solid zone0
 facet normal -0.959105 0.283049 0
  outer loop
   vertex -0.10596 0.0295385 0.22
   vertex -0.105019 0.0327253 0
   vertex -0.10596 0.0295385 0
  endloop
 endfacet
 facet normal 0.967217 -0.253952 0
  outer loop
   vertex 0.106804 -0.0263247 0.22
   vertex 0.10596 -0.0295385 0.22
   vertex 0.10596 -0.0295385 0
  endloop
 endfacet
 facet normal 0.959105 -0.283049 0
  outer loop
   vertex 0.10596 -0.0295385 0.22
   vertex 0.105019 -0.0327253 0
   vertex 0.10596 -0.0295385 0
  endloop
 endfacet
 facet normal -0.967217 0.253952 0
  outer loop
   vertex -0.10596 0.0295385 0.22
   vertex -0.10596 0.0295385 0
   vertex -0.106804 0.0263247 0
  endloop
 endfacet
 facet normal 0.974446 -0.224624 0
  outer loop
   vertex 0.10755 -0.0230869 0.22
   vertex 0.106804 -0.0263247 0.22
   vertex 0.106804 -0.0263247 0
  endloop
 endfacet
 facet normal -0.967217 0.253952 0
  outer loop
   vertex -0.106804 0.0263247 0.22
   vertex -0.10596 0.0295385 0.22
   vertex -0.106804 0.0263247 0
  endloop
 endfacet
 facet normal -0.974446 0.224624 0
  outer loop
   vertex -0.10755 0.0230869 0.22
   vertex -0.106804 0.0263247 0.22
   vertex -0.106804 0.0263247 0
  endloop
 endfacet
 facet normal 0.967217 -0.253952 0
  outer loop
   vertex 0.106804 -0.0263247 0.22
   vertex 0.10596 -0.0295385 0
   vertex 0.106804 -0.0263247 0
  endloop
 endfacet
 facet normal 0.980785 -0.195091 0
  outer loop
   vertex 0.108198 -0.0198281 0.22
   vertex 0.10755 -0.0230869 0.22
   vertex 0.10755 -0.0230869 0
  endloop
 endfacet
 facet normal -0.980785 0.195091 0
  outer loop
   vertex -0.108198 0.0198281 0.22
   vertex -0.10755 0.0230869 0.22
   vertex -0.10755 0.0230869 0
  endloop
 endfacet
 facet normal 0.974446 -0.224624 0
  outer loop
   vertex 0.10755 -0.0230869 0.22
   vertex 0.106804 -0.0263247 0
   vertex 0.10755 -0.0230869 0
  endloop
 endfacet
 facet normal -0.974446 0.224624 0
  outer loop
   vertex -0.10755 0.0230869 0.22
   vertex -0.106804 0.0263247 0
   vertex -0.10755 0.0230869 0
  endloop
 endfacet
 facet normal 0.999886 0.015104 0
  outer loop
   vertex 0.11 0 0.22
   vertex 0.11 0 0
   vertex 0.10995 0.00332233 0
  endloop
 endfacet
 facet normal 0.999886 0.015104 0
  outer loop
   vertex 0.10995 0.00332233 0.22
   vertex 0.11 0 0.22
   vertex 0.10995 0.00332233 0
  endloop
 endfacet
 facet normal 0.980785 -0.195091 0
  outer loop
   vertex 0.108198 -0.0198281 0.22
   vertex 0.10755 -0.0230869 0
   vertex 0.108198 -0.0198281 0
  endloop
 endfacet
 facet normal -0.980785 0.195091 0
  outer loop
   vertex -0.108198 0.0198281 0.22
   vertex -0.10755 0.0230869 0
   vertex -0.108198 0.0198281 0
  endloop
 endfacet
 facet normal 0.998974 0.0452958 0
  outer loop
   vertex 0.109799 0.00664163 0.22
   vertex 0.10995 0.00332233 0.22
   vertex 0.109799 0.00664163 0
  endloop
 endfacet
 facet normal 0.99715 0.0754464 0
  outer loop
   vertex 0.109549 0.00995488 0.22
   vertex 0.109799 0.00664163 0.22
   vertex 0.109799 0.00664163 0
  endloop
 endfacet
 facet normal 0.98623 -0.165379 0
  outer loop
   vertex 0.108748 -0.0165511 0.22
   vertex 0.108198 -0.0198281 0.22
   vertex 0.108748 -0.0165511 0
  endloop
 endfacet
 facet normal 0.998974 0.0452958 0
  outer loop
   vertex 0.10995 0.00332233 0.22
   vertex 0.10995 0.00332233 0
   vertex 0.109799 0.00664163 0
  endloop
 endfacet
 facet normal -0.98623 0.165379 0
  outer loop
   vertex -0.108748 0.0165511 0.22
   vertex -0.108198 0.0198281 0.22
   vertex -0.108748 0.0165511 0
  endloop
 endfacet
 facet normal -0.990775 0.135516 0
  outer loop
   vertex -0.109198 0.013259 0.22
   vertex -0.108748 0.0165511 0.22
   vertex -0.108748 0.0165511 0
  endloop
 endfacet
 facet normal 0.98623 -0.165379 0
  outer loop
   vertex 0.108198 -0.0198281 0.22
   vertex 0.108198 -0.0198281 0
   vertex 0.108748 -0.0165511 0
  endloop
 endfacet
 facet normal -0.98623 0.165379 0
  outer loop
   vertex -0.108198 0.0198281 0.22
   vertex -0.108198 0.0198281 0
   vertex -0.108748 0.0165511 0
  endloop
 endfacet
 facet normal 0.990775 -0.135516 0
  outer loop
   vertex 0.109198 -0.013259 0.22
   vertex 0.108748 -0.0165511 0.22
   vertex 0.109198 -0.013259 0
  endloop
 endfacet
 facet normal 0.994416 -0.10553 0
  outer loop
   vertex 0.109549 -0.00995488 0.22
   vertex 0.109198 -0.013259 0.22
   vertex 0.109198 -0.013259 0
  endloop
 endfacet
 facet normal 0.99715 0.0754464 0
  outer loop
   vertex 0.109549 0.00995488 0.22
   vertex 0.109799 0.00664163 0
   vertex 0.109549 0.00995488 0
  endloop
 endfacet
 facet normal -0.994416 0.10553 0
  outer loop
   vertex -0.109549 0.00995488 0.22
   vertex -0.109198 0.013259 0.22
   vertex -0.109198 0.013259 0
  endloop
 endfacet
 facet normal 0.990775 -0.135516 0
  outer loop
   vertex 0.108748 -0.0165511 0.22
   vertex 0.108748 -0.0165511 0
   vertex 0.109198 -0.013259 0
  endloop
 endfacet
 facet normal -0.990775 0.135516 0
  outer loop
   vertex -0.109198 0.013259 0.22
   vertex -0.108748 0.0165511 0
   vertex -0.109198 0.013259 0
  endloop
 endfacet
 facet normal 0.994416 0.10553 0
  outer loop
   vertex 0.109198 0.013259 0.22
   vertex 0.109549 0.00995488 0.22
   vertex 0.109198 0.013259 0
  endloop
 endfacet
 facet normal 0.99715 -0.0754464 0
  outer loop
   vertex 0.109799 -0.00664163 0.22
   vertex 0.109549 -0.00995488 0.22
   vertex 0.109549 -0.00995488 0
  endloop
 endfacet
 facet normal 0.990775 0.135516 0
  outer loop
   vertex 0.108748 0.0165511 0.22
   vertex 0.109198 0.013259 0.22
   vertex 0.109198 0.013259 0
  endloop
 endfacet
 facet normal 0.994416 0.10553 0
  outer loop
   vertex 0.109549 0.00995488 0.22
   vertex 0.109549 0.00995488 0
   vertex 0.109198 0.013259 0
  endloop
 endfacet
 facet normal 0.994416 -0.10553 0
  outer loop
   vertex 0.109549 -0.00995488 0.22
   vertex 0.109198 -0.013259 0
   vertex 0.109549 -0.00995488 0
  endloop
 endfacet
 facet normal -0.994416 0.10553 0
  outer loop
   vertex -0.109549 0.00995488 0.22
   vertex -0.109198 0.013259 0
   vertex -0.109549 0.00995488 0
  endloop
 endfacet
 facet normal 0.99715 -0.0754464 0
  outer loop
   vertex 0.109799 -0.00664163 0.22
   vertex 0.109549 -0.00995488 0
   vertex 0.109799 -0.00664163 0
  endloop
 endfacet
 facet normal 0.990775 0.135516 0
  outer loop
   vertex 0.108748 0.0165511 0.22
   vertex 0.109198 0.013259 0
   vertex 0.108748 0.0165511 0
  endloop
 endfacet
 facet normal -0.99715 0.0754464 0
  outer loop
   vertex -0.109799 0.00664163 0.22
   vertex -0.109549 0.00995488 0.22
   vertex -0.109799 0.00664163 0
  endloop
 endfacet
 facet normal -0.998974 0.0452958 0
  outer loop
   vertex -0.10995 0.00332233 0.22
   vertex -0.109799 0.00664163 0.22
   vertex -0.109799 0.00664163 0
  endloop
 endfacet
 facet normal 0.998974 -0.0452958 0
  outer loop
   vertex 0.10995 -0.00332233 0.22
   vertex 0.109799 -0.00664163 0.22
   vertex 0.10995 -0.00332233 0
  endloop
 endfacet
 facet normal -0.99715 0.0754464 0
  outer loop
   vertex -0.109549 0.00995488 0.22
   vertex -0.109549 0.00995488 0
   vertex -0.109799 0.00664163 0
  endloop
 endfacet
 facet normal 0.998974 -0.0452958 0
  outer loop
   vertex 0.109799 -0.00664163 0.22
   vertex 0.109799 -0.00664163 0
   vertex 0.10995 -0.00332233 0
  endloop
 endfacet
 facet normal 0.98623 0.165379 0
  outer loop
   vertex 0.108198 0.0198281 0.22
   vertex 0.108748 0.0165511 0.22
   vertex 0.108198 0.0198281 0
  endloop
 endfacet
 facet normal 0.999886 -0.015104 0
  outer loop
   vertex 0.10995 -0.00332233 0.22
   vertex 0.10995 -0.00332233 0
   vertex 0.11 0 0
  endloop
 endfacet
 facet normal 0.980785 0.195091 0
  outer loop
   vertex 0.10755 0.0230869 0.22
   vertex 0.108198 0.0198281 0.22
   vertex 0.108198 0.0198281 0
  endloop
 endfacet
 facet normal 0.999886 -0.015104 0
  outer loop
   vertex 0.11 0 0.22
   vertex 0.10995 -0.00332233 0.22
   vertex 0.11 0 0
  endloop
 endfacet
 facet normal -0.999886 0.015104 0
  outer loop
   vertex -0.11 -3.28478e-16 0.22
   vertex -0.10995 0.00332233 0.22
   vertex -0.10995 0.00332233 0
  endloop
 endfacet
 facet normal 0.98623 0.165379 0
  outer loop
   vertex 0.108748 0.0165511 0.22
   vertex 0.108748 0.0165511 0
   vertex 0.108198 0.0198281 0
  endloop
 endfacet
 facet normal -0.998974 0.0452958 0
  outer loop
   vertex -0.10995 0.00332233 0.22
   vertex -0.109799 0.00664163 0
   vertex -0.10995 0.00332233 0
  endloop
 endfacet
 facet normal -0.999886 -0.015104 0
  outer loop
   vertex -0.10995 -0.00332233 0.22
   vertex -0.11 -3.28478e-16 0.22
   vertex -0.11 -3.28478e-16 0
  endloop
 endfacet
 facet normal 0.980785 0.195091 0
  outer loop
   vertex 0.10755 0.0230869 0.22
   vertex 0.108198 0.0198281 0
   vertex 0.10755 0.0230869 0
  endloop
 endfacet
 facet normal -0.999886 0.015104 0
  outer loop
   vertex -0.11 -3.28478e-16 0.22
   vertex -0.10995 0.00332233 0
   vertex -0.11 -3.28478e-16 0
  endloop
 endfacet
 facet normal 0.974446 0.224624 0
  outer loop
   vertex 0.106804 0.0263247 0.22
   vertex 0.10755 0.0230869 0.22
   vertex 0.106804 0.0263247 0
  endloop
 endfacet
 facet normal 0.967217 0.253952 0
  outer loop
   vertex 0.10596 0.0295385 0.22
   vertex 0.106804 0.0263247 0.22
   vertex 0.106804 0.0263247 0
  endloop
 endfacet
 facet normal -0.999886 -0.015104 -0
  outer loop
   vertex -0.10995 -0.00332233 0.22
   vertex -0.11 -3.28478e-16 0
   vertex -0.10995 -0.00332233 0
  endloop
 endfacet
 facet normal 0.974446 0.224624 0
  outer loop
   vertex 0.10755 0.0230869 0.22
   vertex 0.10755 0.0230869 0
   vertex 0.106804 0.0263247 0
  endloop
 endfacet
 facet normal -0.998974 -0.0452958 -0
  outer loop
   vertex -0.109799 -0.00664163 0.22
   vertex -0.10995 -0.00332233 0.22
   vertex -0.109799 -0.00664163 0
  endloop
 endfacet
 facet normal -0.998974 -0.0452958 -0
  outer loop
   vertex -0.10995 -0.00332233 0.22
   vertex -0.10995 -0.00332233 0
   vertex -0.109799 -0.00664163 0
  endloop
 endfacet
 facet normal 0.967217 0.253952 0
  outer loop
   vertex 0.10596 0.0295385 0.22
   vertex 0.106804 0.0263247 0
   vertex 0.10596 0.0295385 0
  endloop
 endfacet
 facet normal -0.99715 -0.0754464 -0
  outer loop
   vertex -0.109549 -0.00995488 0.22
   vertex -0.109799 -0.00664163 0.22
   vertex -0.109549 -0.00995488 0
  endloop
 endfacet
 facet normal -0.994416 -0.10553 0
  outer loop
   vertex -0.109198 -0.013259 0.22
   vertex -0.109549 -0.00995488 0.22
   vertex -0.109549 -0.00995488 0
  endloop
 endfacet
 facet normal 0.959105 0.283049 0
  outer loop
   vertex 0.105019 0.0327253 0.22
   vertex 0.10596 0.0295385 0.22
   vertex 0.105019 0.0327253 0
  endloop
 endfacet
 facet normal -0.99715 -0.0754464 -0
  outer loop
   vertex -0.109799 -0.00664163 0.22
   vertex -0.109799 -0.00664163 0
   vertex -0.109549 -0.00995488 0
  endloop
 endfacet
 facet normal 0.959105 0.283049 0
  outer loop
   vertex 0.10596 0.0295385 0.22
   vertex 0.10596 0.0295385 0
   vertex 0.105019 0.0327253 0
  endloop
 endfacet
 facet normal -0.990775 -0.135516 0
  outer loop
   vertex -0.108748 -0.0165511 0.22
   vertex -0.109198 -0.013259 0.22
   vertex -0.109198 -0.013259 0
  endloop
 endfacet
 facet normal -0.994416 -0.10553 -0
  outer loop
   vertex -0.109198 -0.013259 0.22
   vertex -0.109549 -0.00995488 0
   vertex -0.109198 -0.013259 0
  endloop
 endfacet
 facet normal 0.950119 0.311889 0
  outer loop
   vertex 0.103983 0.0358823 0.22
   vertex 0.105019 0.0327253 0.22
   vertex 0.103983 0.0358823 0
  endloop
 endfacet
 facet normal 0.950119 0.311889 0
  outer loop
   vertex 0.105019 0.0327253 0.22
   vertex 0.105019 0.0327253 0
   vertex 0.103983 0.0358823 0
  endloop
 endfacet
 facet normal -0.98623 -0.165379 0
  outer loop
   vertex -0.108198 -0.0198281 0.22
   vertex -0.108748 -0.0165511 0.22
   vertex -0.108748 -0.0165511 0
  endloop
 endfacet
 facet normal -0.990775 -0.135516 -0
  outer loop
   vertex -0.108748 -0.0165511 0.22
   vertex -0.109198 -0.013259 0
   vertex -0.108748 -0.0165511 0
  endloop
 endfacet
 facet normal 0.940265 0.340443 0
  outer loop
   vertex 0.102852 0.0390065 0.22
   vertex 0.103983 0.0358823 0.22
   vertex 0.102852 0.0390065 0
  endloop
 endfacet
 facet normal 0.929554 0.368686 0
  outer loop
   vertex 0.101627 0.0420952 0.22
   vertex 0.102852 0.0390065 0.22
   vertex 0.102852 0.0390065 0
  endloop
 endfacet
 facet normal 0.940265 0.340443 0
  outer loop
   vertex 0.103983 0.0358823 0.22
   vertex 0.103983 0.0358823 0
   vertex 0.102852 0.0390065 0
  endloop
 endfacet
 facet normal -0.98623 -0.165379 -0
  outer loop
   vertex -0.108198 -0.0198281 0.22
   vertex -0.108748 -0.0165511 0
   vertex -0.108198 -0.0198281 0
  endloop
 endfacet
 facet normal 0.929554 0.368686 0
  outer loop
   vertex 0.101627 0.0420952 0.22
   vertex 0.102852 0.0390065 0
   vertex 0.101627 0.0420952 0
  endloop
 endfacet
 facet normal -0.980785 -0.195091 -0
  outer loop
   vertex -0.10755 -0.0230869 0.22
   vertex -0.108198 -0.0198281 0.22
   vertex -0.10755 -0.0230869 0
  endloop
 endfacet
 facet normal -0.974446 -0.224624 0
  outer loop
   vertex -0.106804 -0.0263247 0.22
   vertex -0.10755 -0.0230869 0.22
   vertex -0.10755 -0.0230869 0
  endloop
 endfacet
 facet normal -0.980785 -0.195091 -0
  outer loop
   vertex -0.108198 -0.0198281 0.22
   vertex -0.108198 -0.0198281 0
   vertex -0.10755 -0.0230869 0
  endloop
 endfacet
 facet normal 0.917995 0.396593 0
  outer loop
   vertex 0.100309 0.0451454 0.22
   vertex 0.101627 0.0420952 0.22
   vertex 0.100309 0.0451454 0
  endloop
 endfacet
 facet normal 0.917995 0.396593 0
  outer loop
   vertex 0.101627 0.0420952 0.22
   vertex 0.101627 0.0420952 0
   vertex 0.100309 0.0451454 0
  endloop
 endfacet
 facet normal -0.967217 -0.253952 0
  outer loop
   vertex -0.10596 -0.0295385 0.22
   vertex -0.106804 -0.0263247 0.22
   vertex -0.106804 -0.0263247 0
  endloop
 endfacet
 facet normal -0.974446 -0.224624 -0
  outer loop
   vertex -0.106804 -0.0263247 0.22
   vertex -0.10755 -0.0230869 0
   vertex -0.106804 -0.0263247 0
  endloop
 endfacet
 facet normal 0.905597 0.424139 0
  outer loop
   vertex 0.0988997 0.0481544 0.22
   vertex 0.100309 0.0451454 0.22
   vertex 0.0988997 0.0481544 0
  endloop
 endfacet
 facet normal -0.959105 -0.283049 0
  outer loop
   vertex -0.105019 -0.0327253 0.22
   vertex -0.10596 -0.0295385 0.22
   vertex -0.10596 -0.0295385 0
  endloop
 endfacet
 facet normal 0.905597 0.424139 0
  outer loop
   vertex 0.100309 0.0451454 0.22
   vertex 0.100309 0.0451454 0
   vertex 0.0988997 0.0481544 0
  endloop
 endfacet
 facet normal -0.967217 -0.253952 -0
  outer loop
   vertex -0.10596 -0.0295385 0.22
   vertex -0.106804 -0.0263247 0
   vertex -0.10596 -0.0295385 0
  endloop
 endfacet
 facet normal 0.892374 0.451297 0
  outer loop
   vertex 0.0974002 0.0511195 0.22
   vertex 0.0988997 0.0481544 0.22
   vertex 0.0974002 0.0511195 0
  endloop
 endfacet
 facet normal -0.950119 -0.311889 0
  outer loop
   vertex -0.103983 -0.0358823 0.22
   vertex -0.105019 -0.0327253 0.22
   vertex -0.105019 -0.0327253 0
  endloop
 endfacet
 facet normal 0.892374 0.451297 0
  outer loop
   vertex 0.0988997 0.0481544 0.22
   vertex 0.0988997 0.0481544 0
   vertex 0.0974002 0.0511195 0
  endloop
 endfacet
 facet normal -0.959105 -0.283049 -0
  outer loop
   vertex -0.105019 -0.0327253 0.22
   vertex -0.10596 -0.0295385 0
   vertex -0.105019 -0.0327253 0
  endloop
 endfacet
 facet normal 0.878336 0.478044 0
  outer loop
   vertex 0.0958118 0.054038 0.22
   vertex 0.0974002 0.0511195 0.22
   vertex 0.0958118 0.054038 0
  endloop
 endfacet
 facet normal -0.940265 -0.340443 0
  outer loop
   vertex -0.102852 -0.0390065 0.22
   vertex -0.103983 -0.0358823 0.22
   vertex -0.103983 -0.0358823 0
  endloop
 endfacet
 facet normal 0.863497 0.504353 0
  outer loop
   vertex 0.0941359 0.0569072 0.22
   vertex 0.0958118 0.054038 0.22
   vertex 0.0958118 0.054038 0
  endloop
 endfacet
 facet normal 0.878336 0.478044 0
  outer loop
   vertex 0.0974002 0.0511195 0.22
   vertex 0.0974002 0.0511195 0
   vertex 0.0958118 0.054038 0
  endloop
 endfacet
 facet normal -0.950119 -0.311889 -0
  outer loop
   vertex -0.103983 -0.0358823 0.22
   vertex -0.105019 -0.0327253 0
   vertex -0.103983 -0.0358823 0
  endloop
 endfacet
 facet normal -0.929554 -0.368686 0
  outer loop
   vertex -0.101627 -0.0420952 0.22
   vertex -0.102852 -0.0390065 0.22
   vertex -0.102852 -0.0390065 0
  endloop
 endfacet
 facet normal 0.863497 0.504353 0
  outer loop
   vertex 0.0941359 0.0569072 0.22
   vertex 0.0958118 0.054038 0
   vertex 0.0941359 0.0569072 0
  endloop
 endfacet
 facet normal -0.940265 -0.340443 -0
  outer loop
   vertex -0.102852 -0.0390065 0.22
   vertex -0.103983 -0.0358823 0
   vertex -0.102852 -0.0390065 0
  endloop
 endfacet
 facet normal 0.84787 0.530204 0
  outer loop
   vertex 0.0923742 0.0597244 0.22
   vertex 0.0941359 0.0569072 0.22
   vertex 0.0923742 0.0597244 0
  endloop
 endfacet
 facet normal 0.84787 0.530204 0
  outer loop
   vertex 0.0941359 0.0569072 0.22
   vertex 0.0941359 0.0569072 0
   vertex 0.0923742 0.0597244 0
  endloop
 endfacet
 facet normal -0.929554 -0.368686 -0
  outer loop
   vertex -0.101627 -0.0420952 0.22
   vertex -0.102852 -0.0390065 0
   vertex -0.101627 -0.0420952 0
  endloop
 endfacet
 facet normal -0.917995 -0.396593 -0
  outer loop
   vertex -0.100309 -0.0451454 0.22
   vertex -0.101627 -0.0420952 0.22
   vertex -0.100309 -0.0451454 0
  endloop
 endfacet
 facet normal -0.905597 -0.424139 0
  outer loop
   vertex -0.0988997 -0.0481544 0.22
   vertex -0.100309 -0.0451454 0.22
   vertex -0.100309 -0.0451454 0
  endloop
 endfacet
 facet normal -0.917995 -0.396593 -0
  outer loop
   vertex -0.101627 -0.0420952 0.22
   vertex -0.101627 -0.0420952 0
   vertex -0.100309 -0.0451454 0
  endloop
 endfacet
 facet normal 0.831471 0.555569 0
  outer loop
   vertex 0.0905282 0.0624871 0.22
   vertex 0.0923742 0.0597244 0.22
   vertex 0.0905282 0.0624871 0
  endloop
 endfacet
 facet normal 0.831471 0.555569 0
  outer loop
   vertex 0.0923742 0.0597244 0.22
   vertex 0.0923742 0.0597244 0
   vertex 0.0905282 0.0624871 0
  endloop
 endfacet
 facet normal -0.892374 -0.451297 0
  outer loop
   vertex -0.0974002 -0.0511195 0.22
   vertex -0.0988997 -0.0481544 0.22
   vertex -0.0988997 -0.0481544 0
  endloop
 endfacet
 facet normal 0.81431 0.58043 0
  outer loop
   vertex 0.0905282 0.0624871 0.22
   vertex 0.0905282 0.0624871 0
   vertex 0.0885996 0.0651928 0
  endloop
 endfacet
 facet normal 0.81431 0.58043 0
  outer loop
   vertex 0.0885996 0.0651928 0.22
   vertex 0.0905282 0.0624871 0.22
   vertex 0.0885996 0.0651928 0
  endloop
 endfacet
 facet normal -0.905597 -0.424139 -0
  outer loop
   vertex -0.0988997 -0.0481544 0.22
   vertex -0.100309 -0.0451454 0
   vertex -0.0988997 -0.0481544 0
  endloop
 endfacet
 facet normal -0.878336 -0.478044 0
  outer loop
   vertex -0.0958118 -0.054038 0.22
   vertex -0.0974002 -0.0511195 0.22
   vertex -0.0974002 -0.0511195 0
  endloop
 endfacet
 facet normal 0.796407 0.604761 0
  outer loop
   vertex 0.0885996 0.0651928 0.22
   vertex 0.0885996 0.0651928 0
   vertex 0.0865902 0.0678391 0
  endloop
 endfacet
 facet normal -0.892374 -0.451297 -0
  outer loop
   vertex -0.0974002 -0.0511195 0.22
   vertex -0.0988997 -0.0481544 0
   vertex -0.0974002 -0.0511195 0
  endloop
 endfacet
 facet normal 0.796407 0.604761 0
  outer loop
   vertex 0.0865902 0.0678391 0.22
   vertex 0.0885996 0.0651928 0.22
   vertex 0.0865902 0.0678391 0
  endloop
 endfacet
 facet normal 0.77778 0.628536 0
  outer loop
   vertex 0.0845017 0.0704234 0.22
   vertex 0.0865902 0.0678391 0.22
   vertex 0.0865902 0.0678391 0
  endloop
 endfacet
 facet normal -0.878336 -0.478044 -0
  outer loop
   vertex -0.0958118 -0.054038 0.22
   vertex -0.0974002 -0.0511195 0
   vertex -0.0958118 -0.054038 0
  endloop
 endfacet
 facet normal -0.863497 -0.504353 0
  outer loop
   vertex -0.0941359 -0.0569072 0.22
   vertex -0.0958118 -0.054038 0.22
   vertex -0.0958118 -0.054038 0
  endloop
 endfacet
 facet normal 0.77778 0.628536 0
  outer loop
   vertex 0.0845017 0.0704234 0.22
   vertex 0.0865902 0.0678391 0
   vertex 0.0845017 0.0704234 0
  endloop
 endfacet
 facet normal -0.863497 -0.504353 -0
  outer loop
   vertex -0.0941359 -0.0569072 0.22
   vertex -0.0958118 -0.054038 0
   vertex -0.0941359 -0.0569072 0
  endloop
 endfacet
 facet normal 0.75844 0.651743 0
  outer loop
   vertex 0.0845017 0.0704234 0.22
   vertex 0.0845017 0.0704234 0
   vertex 0.0823362 0.0729435 0
  endloop
 endfacet
 facet normal 0.75844 0.651743 0
  outer loop
   vertex 0.0823362 0.0729435 0.22
   vertex 0.0845017 0.0704234 0.22
   vertex 0.0823362 0.0729435 0
  endloop
 endfacet
 facet normal 0.738411 0.674351 0
  outer loop
   vertex 0.0800955 0.075397 0.22
   vertex 0.0823362 0.0729435 0.22
   vertex 0.0823362 0.0729435 0
  endloop
 endfacet
 facet normal -0.84787 -0.530204 -0
  outer loop
   vertex -0.0941359 -0.0569072 0.22
   vertex -0.0941359 -0.0569072 0
   vertex -0.0923742 -0.0597244 0
  endloop
 endfacet
 facet normal -0.84787 -0.530204 -0
  outer loop
   vertex -0.0923742 -0.0597244 0.22
   vertex -0.0941359 -0.0569072 0.22
   vertex -0.0923742 -0.0597244 0
  endloop
 endfacet
 facet normal -0.831471 -0.555569 0
  outer loop
   vertex -0.0905282 -0.0624871 0.22
   vertex -0.0923742 -0.0597244 0.22
   vertex -0.0923742 -0.0597244 0
  endloop
 endfacet
 facet normal 0.738411 0.674351 0
  outer loop
   vertex 0.0800955 0.075397 0.22
   vertex 0.0823362 0.0729435 0
   vertex 0.0800955 0.075397 0
  endloop
 endfacet
 facet normal 0.717705 0.696347 0
  outer loop
   vertex 0.0777817 0.0777817 0.22
   vertex 0.0800955 0.075397 0.22
   vertex 0.0800955 0.075397 0
  endloop
 endfacet
 facet normal -0.831471 -0.555569 -0
  outer loop
   vertex -0.0905282 -0.0624871 0.22
   vertex -0.0923742 -0.0597244 0
   vertex -0.0905282 -0.0624871 0
  endloop
 endfacet
 facet normal -0.81431 -0.58043 0
  outer loop
   vertex -0.0885996 -0.0651928 0.22
   vertex -0.0905282 -0.0624871 0.22
   vertex -0.0905282 -0.0624871 0
  endloop
 endfacet
 facet normal 0.717705 0.696347 0
  outer loop
   vertex 0.0777817 0.0777817 0.22
   vertex 0.0800955 0.075397 0
   vertex 0.0777817 0.0777817 0
  endloop
 endfacet
 facet normal -0.81431 -0.58043 -0
  outer loop
   vertex -0.0885996 -0.0651928 0.22
   vertex -0.0905282 -0.0624871 0
   vertex -0.0885996 -0.0651928 0
  endloop
 endfacet
 facet normal -0.796407 -0.604761 0
  outer loop
   vertex -0.0865902 -0.0678391 0.22
   vertex -0.0885996 -0.0651928 0.22
   vertex -0.0885996 -0.0651928 0
  endloop
 endfacet
 facet normal 0.696347 0.717705 0
  outer loop
   vertex 0.0777817 0.0777817 0.22
   vertex 0.0777817 0.0777817 0
   vertex 0.075397 0.0800955 0
  endloop
 endfacet
 facet normal 0.696347 0.717705 0
  outer loop
   vertex 0.075397 0.0800955 0.22
   vertex 0.0777817 0.0777817 0.22
   vertex 0.075397 0.0800955 0
  endloop
 endfacet
 facet normal 0.674351 0.738411 0
  outer loop
   vertex 0.0729435 0.0823362 0.22
   vertex 0.075397 0.0800955 0.22
   vertex 0.075397 0.0800955 0
  endloop
 endfacet
 facet normal -0.796407 -0.604761 -0
  outer loop
   vertex -0.0865902 -0.0678391 0.22
   vertex -0.0885996 -0.0651928 0
   vertex -0.0865902 -0.0678391 0
  endloop
 endfacet
 facet normal -0.77778 -0.628536 0
  outer loop
   vertex -0.0845017 -0.0704234 0.22
   vertex -0.0865902 -0.0678391 0.22
   vertex -0.0865902 -0.0678391 0
  endloop
 endfacet
 facet normal 0.674351 0.738411 0
  outer loop
   vertex 0.0729435 0.0823362 0.22
   vertex 0.075397 0.0800955 0
   vertex 0.0729435 0.0823362 0
  endloop
 endfacet
 facet normal -0.77778 -0.628536 -0
  outer loop
   vertex -0.0845017 -0.0704234 0.22
   vertex -0.0865902 -0.0678391 0
   vertex -0.0845017 -0.0704234 0
  endloop
 endfacet
 facet normal -0.75844 -0.651743 0
  outer loop
   vertex -0.0823362 -0.0729435 0.22
   vertex -0.0845017 -0.0704234 0.22
   vertex -0.0845017 -0.0704234 0
  endloop
 endfacet
 facet normal 0.651743 0.75844 0
  outer loop
   vertex 0.0729435 0.0823362 0.22
   vertex 0.0729435 0.0823362 0
   vertex 0.0704234 0.0845017 0
  endloop
 endfacet
 facet normal 0.651743 0.75844 0
  outer loop
   vertex 0.0704234 0.0845017 0.22
   vertex 0.0729435 0.0823362 0.22
   vertex 0.0704234 0.0845017 0
  endloop
 endfacet
 facet normal -0.75844 -0.651743 -0
  outer loop
   vertex -0.0823362 -0.0729435 0.22
   vertex -0.0845017 -0.0704234 0
   vertex -0.0823362 -0.0729435 0
  endloop
 endfacet
 facet normal -0.738411 -0.674351 0
  outer loop
   vertex -0.0800955 -0.075397 0.22
   vertex -0.0823362 -0.0729435 0.22
   vertex -0.0823362 -0.0729435 0
  endloop
 endfacet
 facet normal 0.628536 0.77778 0
  outer loop
   vertex 0.0704234 0.0845017 0.22
   vertex 0.0704234 0.0845017 0
   vertex 0.0678391 0.0865902 0
  endloop
 endfacet
 facet normal 0.628536 0.77778 0
  outer loop
   vertex 0.0678391 0.0865902 0.22
   vertex 0.0704234 0.0845017 0.22
   vertex 0.0678391 0.0865902 0
  endloop
 endfacet
 facet normal 0.604761 0.796407 0
  outer loop
   vertex 0.0651928 0.0885996 0.22
   vertex 0.0678391 0.0865902 0.22
   vertex 0.0678391 0.0865902 0
  endloop
 endfacet
 facet normal -0.738411 -0.674351 -0
  outer loop
   vertex -0.0800955 -0.075397 0.22
   vertex -0.0823362 -0.0729435 0
   vertex -0.0800955 -0.075397 0
  endloop
 endfacet
 facet normal 0.604761 0.796407 0
  outer loop
   vertex 0.0651928 0.0885996 0.22
   vertex 0.0678391 0.0865902 0
   vertex 0.0651928 0.0885996 0
  endloop
 endfacet
 facet normal -0.717705 -0.696347 -0
  outer loop
   vertex -0.0800955 -0.075397 0.22
   vertex -0.0800955 -0.075397 0
   vertex -0.0777817 -0.0777817 0
  endloop
 endfacet
 facet normal -0.717705 -0.696347 -0
  outer loop
   vertex -0.0777817 -0.0777817 0.22
   vertex -0.0800955 -0.075397 0.22
   vertex -0.0777817 -0.0777817 0
  endloop
 endfacet
 facet normal -0.696347 -0.717705 0
  outer loop
   vertex -0.075397 -0.0800955 0.22
   vertex -0.0777817 -0.0777817 0.22
   vertex -0.0777817 -0.0777817 0
  endloop
 endfacet
 facet normal 0.58043 0.81431 0
  outer loop
   vertex 0.0624871 0.0905282 0.22
   vertex 0.0651928 0.0885996 0.22
   vertex 0.0624871 0.0905282 0
  endloop
 endfacet
 facet normal 0.555569 0.831471 0
  outer loop
   vertex 0.0597244 0.0923742 0.22
   vertex 0.0624871 0.0905282 0.22
   vertex 0.0624871 0.0905282 0
  endloop
 endfacet
 facet normal 0.58043 0.81431 0
  outer loop
   vertex 0.0651928 0.0885996 0.22
   vertex 0.0651928 0.0885996 0
   vertex 0.0624871 0.0905282 0
  endloop
 endfacet
 facet normal -0.674351 -0.738411 0
  outer loop
   vertex -0.0729435 -0.0823362 0.22
   vertex -0.075397 -0.0800955 0.22
   vertex -0.075397 -0.0800955 0
  endloop
 endfacet
 facet normal -0.696347 -0.717705 -0
  outer loop
   vertex -0.075397 -0.0800955 0.22
   vertex -0.0777817 -0.0777817 0
   vertex -0.075397 -0.0800955 0
  endloop
 endfacet
 facet normal 0.555569 0.831471 0
  outer loop
   vertex 0.0597244 0.0923742 0.22
   vertex 0.0624871 0.0905282 0
   vertex 0.0597244 0.0923742 0
  endloop
 endfacet
 facet normal -0.651743 -0.75844 0
  outer loop
   vertex -0.0704234 -0.0845017 0.22
   vertex -0.0729435 -0.0823362 0.22
   vertex -0.0729435 -0.0823362 0
  endloop
 endfacet
 facet normal -0.674351 -0.738411 -0
  outer loop
   vertex -0.0729435 -0.0823362 0.22
   vertex -0.075397 -0.0800955 0
   vertex -0.0729435 -0.0823362 0
  endloop
 endfacet
 facet normal 0.530204 0.84787 0
  outer loop
   vertex 0.0569072 0.0941359 0.22
   vertex 0.0597244 0.0923742 0.22
   vertex 0.0569072 0.0941359 0
  endloop
 endfacet
 facet normal 0.530204 0.84787 0
  outer loop
   vertex 0.0597244 0.0923742 0.22
   vertex 0.0597244 0.0923742 0
   vertex 0.0569072 0.0941359 0
  endloop
 endfacet
 facet normal -0.651743 -0.75844 -0
  outer loop
   vertex -0.0704234 -0.0845017 0.22
   vertex -0.0729435 -0.0823362 0
   vertex -0.0704234 -0.0845017 0
  endloop
 endfacet
 facet normal 0.504353 0.863497 0
  outer loop
   vertex 0.054038 0.0958118 0.22
   vertex 0.0569072 0.0941359 0.22
   vertex 0.054038 0.0958118 0
  endloop
 endfacet
 facet normal 0.478044 0.878336 0
  outer loop
   vertex 0.0511195 0.0974002 0.22
   vertex 0.054038 0.0958118 0.22
   vertex 0.054038 0.0958118 0
  endloop
 endfacet
 facet normal -0.628536 -0.77778 -0
  outer loop
   vertex -0.0678391 -0.0865902 0.22
   vertex -0.0704234 -0.0845017 0.22
   vertex -0.0678391 -0.0865902 0
  endloop
 endfacet
 facet normal 0.504353 0.863497 0
  outer loop
   vertex 0.0569072 0.0941359 0.22
   vertex 0.0569072 0.0941359 0
   vertex 0.054038 0.0958118 0
  endloop
 endfacet
 facet normal -0.604761 -0.796407 0
  outer loop
   vertex -0.0651928 -0.0885996 0.22
   vertex -0.0678391 -0.0865902 0.22
   vertex -0.0678391 -0.0865902 0
  endloop
 endfacet
 facet normal -0.628536 -0.77778 -0
  outer loop
   vertex -0.0704234 -0.0845017 0.22
   vertex -0.0704234 -0.0845017 0
   vertex -0.0678391 -0.0865902 0
  endloop
 endfacet
 facet normal 0.451297 0.892374 0
  outer loop
   vertex 0.0481544 0.0988997 0.22
   vertex 0.0511195 0.0974002 0.22
   vertex 0.0511195 0.0974002 0
  endloop
 endfacet
 facet normal 0.478044 0.878336 0
  outer loop
   vertex 0.0511195 0.0974002 0.22
   vertex 0.054038 0.0958118 0
   vertex 0.0511195 0.0974002 0
  endloop
 endfacet
 facet normal -0.58043 -0.81431 0
  outer loop
   vertex -0.0624871 -0.0905282 0.22
   vertex -0.0651928 -0.0885996 0.22
   vertex -0.0651928 -0.0885996 0
  endloop
 endfacet
 facet normal -0.604761 -0.796407 -0
  outer loop
   vertex -0.0651928 -0.0885996 0.22
   vertex -0.0678391 -0.0865902 0
   vertex -0.0651928 -0.0885996 0
  endloop
 endfacet
 facet normal 0.424139 0.905597 0
  outer loop
   vertex 0.0451454 0.100309 0.22
   vertex 0.0481544 0.0988997 0.22
   vertex 0.0481544 0.0988997 0
  endloop
 endfacet
 facet normal 0.451297 0.892374 0
  outer loop
   vertex 0.0481544 0.0988997 0.22
   vertex 0.0511195 0.0974002 0
   vertex 0.0481544 0.0988997 0
  endloop
 endfacet
 facet normal -0.58043 -0.81431 -0
  outer loop
   vertex -0.0624871 -0.0905282 0.22
   vertex -0.0651928 -0.0885996 0
   vertex -0.0624871 -0.0905282 0
  endloop
 endfacet
 facet normal 0.424139 0.905597 0
  outer loop
   vertex 0.0451454 0.100309 0.22
   vertex 0.0481544 0.0988997 0
   vertex 0.0451454 0.100309 0
  endloop
 endfacet
 facet normal -0.555569 -0.831471 -0
  outer loop
   vertex -0.0597244 -0.0923742 0.22
   vertex -0.0624871 -0.0905282 0.22
   vertex -0.0597244 -0.0923742 0
  endloop
 endfacet
 facet normal -0.555569 -0.831471 -0
  outer loop
   vertex -0.0624871 -0.0905282 0.22
   vertex -0.0624871 -0.0905282 0
   vertex -0.0597244 -0.0923742 0
  endloop
 endfacet
 facet normal 0.396593 0.917995 0
  outer loop
   vertex 0.0420952 0.101627 0.22
   vertex 0.0451454 0.100309 0.22
   vertex 0.0420952 0.101627 0
  endloop
 endfacet
 facet normal 0.368686 0.929554 0
  outer loop
   vertex 0.0390065 0.102852 0.22
   vertex 0.0420952 0.101627 0.22
   vertex 0.0420952 0.101627 0
  endloop
 endfacet
 facet normal 0.396593 0.917995 0
  outer loop
   vertex 0.0451454 0.100309 0.22
   vertex 0.0451454 0.100309 0
   vertex 0.0420952 0.101627 0
  endloop
 endfacet
 facet normal -0.530204 -0.84787 -0
  outer loop
   vertex -0.0569072 -0.0941359 0.22
   vertex -0.0597244 -0.0923742 0.22
   vertex -0.0569072 -0.0941359 0
  endloop
 endfacet
 facet normal -0.504353 -0.863497 0
  outer loop
   vertex -0.054038 -0.0958118 0.22
   vertex -0.0569072 -0.0941359 0.22
   vertex -0.0569072 -0.0941359 0
  endloop
 endfacet
 facet normal -0.530204 -0.84787 -0
  outer loop
   vertex -0.0597244 -0.0923742 0.22
   vertex -0.0597244 -0.0923742 0
   vertex -0.0569072 -0.0941359 0
  endloop
 endfacet
 facet normal 0.340443 0.940265 0
  outer loop
   vertex 0.0358823 0.103983 0.22
   vertex 0.0390065 0.102852 0.22
   vertex 0.0390065 0.102852 0
  endloop
 endfacet
 facet normal 0.368686 0.929554 0
  outer loop
   vertex 0.0390065 0.102852 0.22
   vertex 0.0420952 0.101627 0
   vertex 0.0390065 0.102852 0
  endloop
 endfacet
 facet normal -0.478044 -0.878336 0
  outer loop
   vertex -0.0511195 -0.0974002 0.22
   vertex -0.054038 -0.0958118 0.22
   vertex -0.054038 -0.0958118 0
  endloop
 endfacet
 facet normal -0.504353 -0.863497 -0
  outer loop
   vertex -0.054038 -0.0958118 0.22
   vertex -0.0569072 -0.0941359 0
   vertex -0.054038 -0.0958118 0
  endloop
 endfacet
 facet normal 0.340443 0.940265 0
  outer loop
   vertex 0.0358823 0.103983 0.22
   vertex 0.0390065 0.102852 0
   vertex 0.0358823 0.103983 0
  endloop
 endfacet
 facet normal -0.478044 -0.878336 -0
  outer loop
   vertex -0.0511195 -0.0974002 0.22
   vertex -0.054038 -0.0958118 0
   vertex -0.0511195 -0.0974002 0
  endloop
 endfacet
 facet normal 0.311889 0.950119 0
  outer loop
   vertex 0.0327253 0.105019 0.22
   vertex 0.0358823 0.103983 0.22
   vertex 0.0327253 0.105019 0
  endloop
 endfacet
 facet normal 0.311889 0.950119 0
  outer loop
   vertex 0.0358823 0.103983 0.22
   vertex 0.0358823 0.103983 0
   vertex 0.0327253 0.105019 0
  endloop
 endfacet
 facet normal -0.451297 -0.892374 -0
  outer loop
   vertex -0.0481544 -0.0988997 0.22
   vertex -0.0511195 -0.0974002 0.22
   vertex -0.0481544 -0.0988997 0
  endloop
 endfacet
 facet normal -0.451297 -0.892374 -0
  outer loop
   vertex -0.0511195 -0.0974002 0.22
   vertex -0.0511195 -0.0974002 0
   vertex -0.0481544 -0.0988997 0
  endloop
 endfacet
 facet normal 0.283049 0.959105 0
  outer loop
   vertex 0.0295385 0.10596 0.22
   vertex 0.0327253 0.105019 0.22
   vertex 0.0295385 0.10596 0
  endloop
 endfacet
 facet normal 0.253952 0.967217 0
  outer loop
   vertex 0.0263247 0.106804 0.22
   vertex 0.0295385 0.10596 0.22
   vertex 0.0295385 0.10596 0
  endloop
 endfacet
 facet normal 0.283049 0.959105 0
  outer loop
   vertex 0.0327253 0.105019 0.22
   vertex 0.0327253 0.105019 0
   vertex 0.0295385 0.10596 0
  endloop
 endfacet
 facet normal -0.424139 -0.905597 -0
  outer loop
   vertex -0.0451454 -0.100309 0.22
   vertex -0.0481544 -0.0988997 0.22
   vertex -0.0451454 -0.100309 0
  endloop
 endfacet
 facet normal -0.396593 -0.917995 0
  outer loop
   vertex -0.0420952 -0.101627 0.22
   vertex -0.0451454 -0.100309 0.22
   vertex -0.0451454 -0.100309 0
  endloop
 endfacet
 facet normal -0.424139 -0.905597 -0
  outer loop
   vertex -0.0481544 -0.0988997 0.22
   vertex -0.0481544 -0.0988997 0
   vertex -0.0451454 -0.100309 0
  endloop
 endfacet
 facet normal 0.224624 0.974446 0
  outer loop
   vertex 0.0230869 0.10755 0.22
   vertex 0.0263247 0.106804 0.22
   vertex 0.0263247 0.106804 0
  endloop
 endfacet
 facet normal 0.253952 0.967217 0
  outer loop
   vertex 0.0263247 0.106804 0.22
   vertex 0.0295385 0.10596 0
   vertex 0.0263247 0.106804 0
  endloop
 endfacet
 facet normal -0.368686 -0.929554 0
  outer loop
   vertex -0.0390065 -0.102852 0.22
   vertex -0.0420952 -0.101627 0.22
   vertex -0.0420952 -0.101627 0
  endloop
 endfacet
 facet normal -0.396593 -0.917995 -0
  outer loop
   vertex -0.0420952 -0.101627 0.22
   vertex -0.0451454 -0.100309 0
   vertex -0.0420952 -0.101627 0
  endloop
 endfacet
 facet normal 0.224624 0.974446 0
  outer loop
   vertex 0.0230869 0.10755 0.22
   vertex 0.0263247 0.106804 0
   vertex 0.0230869 0.10755 0
  endloop
 endfacet
 facet normal -0.340443 -0.940265 0
  outer loop
   vertex -0.0358823 -0.103983 0.22
   vertex -0.0390065 -0.102852 0.22
   vertex -0.0390065 -0.102852 0
  endloop
 endfacet
 facet normal -0.368686 -0.929554 -0
  outer loop
   vertex -0.0390065 -0.102852 0.22
   vertex -0.0420952 -0.101627 0
   vertex -0.0390065 -0.102852 0
  endloop
 endfacet
 facet normal 0.195091 0.980785 0
  outer loop
   vertex 0.0198281 0.108198 0.22
   vertex 0.0230869 0.10755 0.22
   vertex 0.0198281 0.108198 0
  endloop
 endfacet
 facet normal -0.311889 -0.950119 0
  outer loop
   vertex -0.0327253 -0.105019 0.22
   vertex -0.0358823 -0.103983 0.22
   vertex -0.0358823 -0.103983 0
  endloop
 endfacet
 facet normal 0.195091 0.980785 0
  outer loop
   vertex 0.0230869 0.10755 0.22
   vertex 0.0230869 0.10755 0
   vertex 0.0198281 0.108198 0
  endloop
 endfacet
 facet normal -0.340443 -0.940265 -0
  outer loop
   vertex -0.0358823 -0.103983 0.22
   vertex -0.0390065 -0.102852 0
   vertex -0.0358823 -0.103983 0
  endloop
 endfacet
 facet normal 0.165379 0.98623 0
  outer loop
   vertex 0.0198281 0.108198 0.22
   vertex 0.0198281 0.108198 0
   vertex 0.0165511 0.108748 0
  endloop
 endfacet
 facet normal 0.165379 0.98623 0
  outer loop
   vertex 0.0165511 0.108748 0.22
   vertex 0.0198281 0.108198 0.22
   vertex 0.0165511 0.108748 0
  endloop
 endfacet
 facet normal -0.283049 -0.959105 0
  outer loop
   vertex -0.0295385 -0.10596 0.22
   vertex -0.0327253 -0.105019 0.22
   vertex -0.0327253 -0.105019 0
  endloop
 endfacet
 facet normal 0.135516 0.990775 0
  outer loop
   vertex 0.013259 0.109198 0.22
   vertex 0.0165511 0.108748 0.22
   vertex 0.0165511 0.108748 0
  endloop
 endfacet
 facet normal -0.311889 -0.950119 -0
  outer loop
   vertex -0.0327253 -0.105019 0.22
   vertex -0.0358823 -0.103983 0
   vertex -0.0327253 -0.105019 0
  endloop
 endfacet
 facet normal -0.283049 -0.959105 -0
  outer loop
   vertex -0.0295385 -0.10596 0.22
   vertex -0.0327253 -0.105019 0
   vertex -0.0295385 -0.10596 0
  endloop
 endfacet
 facet normal 0.135516 0.990775 0
  outer loop
   vertex 0.013259 0.109198 0.22
   vertex 0.0165511 0.108748 0
   vertex 0.013259 0.109198 0
  endloop
 endfacet
 facet normal 0.10553 0.994416 0
  outer loop
   vertex 0.00995488 0.109549 0.22
   vertex 0.013259 0.109198 0.22
   vertex 0.013259 0.109198 0
  endloop
 endfacet
 facet normal -0.253952 -0.967217 0
  outer loop
   vertex -0.0263247 -0.106804 0.22
   vertex -0.0295385 -0.10596 0.22
   vertex -0.0295385 -0.10596 0
  endloop
 endfacet
 facet normal -0.253952 -0.967217 -0
  outer loop
   vertex -0.0263247 -0.106804 0.22
   vertex -0.0295385 -0.10596 0
   vertex -0.0263247 -0.106804 0
  endloop
 endfacet
 facet normal 0.10553 0.994416 0
  outer loop
   vertex 0.00995488 0.109549 0.22
   vertex 0.013259 0.109198 0
   vertex 0.00995488 0.109549 0
  endloop
 endfacet
 facet normal 0.0754464 0.99715 0
  outer loop
   vertex 0.00664163 0.109799 0.22
   vertex 0.00995488 0.109549 0.22
   vertex 0.00995488 0.109549 0
  endloop
 endfacet
 facet normal -0.224624 -0.974446 0
  outer loop
   vertex -0.0230869 -0.10755 0.22
   vertex -0.0263247 -0.106804 0.22
   vertex -0.0263247 -0.106804 0
  endloop
 endfacet
 facet normal -0.224624 -0.974446 -0
  outer loop
   vertex -0.0230869 -0.10755 0.22
   vertex -0.0263247 -0.106804 0
   vertex -0.0230869 -0.10755 0
  endloop
 endfacet
 facet normal 0.0754464 0.99715 0
  outer loop
   vertex 0.00664163 0.109799 0.22
   vertex 0.00995488 0.109549 0
   vertex 0.00664163 0.109799 0
  endloop
 endfacet
 facet normal -0.195091 -0.980785 0
  outer loop
   vertex -0.0198281 -0.108198 0.22
   vertex -0.0230869 -0.10755 0.22
   vertex -0.0230869 -0.10755 0
  endloop
 endfacet
 facet normal -0.195091 -0.980785 -0
  outer loop
   vertex -0.0198281 -0.108198 0.22
   vertex -0.0230869 -0.10755 0
   vertex -0.0198281 -0.108198 0
  endloop
 endfacet
 facet normal 0.0452958 0.998974 0
  outer loop
   vertex 0.00664163 0.109799 0.22
   vertex 0.00664163 0.109799 0
   vertex 0.00332233 0.10995 0
  endloop
 endfacet
 facet normal 0.0452958 0.998974 0
  outer loop
   vertex 0.00332233 0.10995 0.22
   vertex 0.00664163 0.109799 0.22
   vertex 0.00332233 0.10995 0
  endloop
 endfacet
 facet normal 0.015104 0.999886 0
  outer loop
   vertex -4.21143e-17 0.11 0.22
   vertex 0.00332233 0.10995 0.22
   vertex 0.00332233 0.10995 0
  endloop
 endfacet
 facet normal -0.165379 -0.98623 0
  outer loop
   vertex -0.0165511 -0.108748 0.22
   vertex -0.0198281 -0.108198 0.22
   vertex -0.0198281 -0.108198 0
  endloop
 endfacet
 facet normal 0.015104 0.999886 0
  outer loop
   vertex -4.21143e-17 0.11 0.22
   vertex 0.00332233 0.10995 0
   vertex -4.21143e-17 0.11 0
  endloop
 endfacet
 facet normal -0.165379 -0.98623 -0
  outer loop
   vertex -0.0165511 -0.108748 0.22
   vertex -0.0198281 -0.108198 0
   vertex -0.0165511 -0.108748 0
  endloop
 endfacet
 facet normal -0.135516 -0.990775 0
  outer loop
   vertex -0.013259 -0.109198 0.22
   vertex -0.0165511 -0.108748 0.22
   vertex -0.0165511 -0.108748 0
  endloop
 endfacet
 facet normal -0.015104 0.999886 0
  outer loop
   vertex -4.21143e-17 0.11 0.22
   vertex -4.21143e-17 0.11 0
   vertex -0.00332233 0.10995 0
  endloop
 endfacet
 facet normal -0.135516 -0.990775 -0
  outer loop
   vertex -0.013259 -0.109198 0.22
   vertex -0.0165511 -0.108748 0
   vertex -0.013259 -0.109198 0
  endloop
 endfacet
 facet normal -0.015104 0.999886 0
  outer loop
   vertex -0.00332233 0.10995 0.22
   vertex -4.21143e-17 0.11 0.22
   vertex -0.00332233 0.10995 0
  endloop
 endfacet
 facet normal -0.10553 -0.994416 0
  outer loop
   vertex -0.00995488 -0.109549 0.22
   vertex -0.013259 -0.109198 0.22
   vertex -0.013259 -0.109198 0
  endloop
 endfacet
 facet normal -0.0452958 0.998974 0
  outer loop
   vertex -0.00664163 0.109799 0.22
   vertex -0.00332233 0.10995 0.22
   vertex -0.00332233 0.10995 0
  endloop
 endfacet
 facet normal -0.0452958 0.998974 0
  outer loop
   vertex -0.00664163 0.109799 0.22
   vertex -0.00332233 0.10995 0
   vertex -0.00664163 0.109799 0
  endloop
 endfacet
 facet normal -0.10553 -0.994416 -0
  outer loop
   vertex -0.00995488 -0.109549 0.22
   vertex -0.013259 -0.109198 0
   vertex -0.00995488 -0.109549 0
  endloop
 endfacet
 facet normal -0.0754464 -0.99715 0
  outer loop
   vertex -0.00664163 -0.109799 0.22
   vertex -0.00995488 -0.109549 0.22
   vertex -0.00995488 -0.109549 0
  endloop
 endfacet
 facet normal -0.0754464 -0.99715 -0
  outer loop
   vertex -0.00664163 -0.109799 0.22
   vertex -0.00995488 -0.109549 0
   vertex -0.00664163 -0.109799 0
  endloop
 endfacet
 facet normal -0.0754464 0.99715 0
  outer loop
   vertex -0.00664163 0.109799 0.22
   vertex -0.00664163 0.109799 0
   vertex -0.00995488 0.109549 0
  endloop
 endfacet
 facet normal -0.0452958 -0.998974 0
  outer loop
   vertex -0.00332233 -0.10995 0.22
   vertex -0.00664163 -0.109799 0.22
   vertex -0.00664163 -0.109799 0
  endloop
 endfacet
 facet normal -0.0754464 0.99715 0
  outer loop
   vertex -0.00995488 0.109549 0.22
   vertex -0.00664163 0.109799 0.22
   vertex -0.00995488 0.109549 0
  endloop
 endfacet
 facet normal -0.10553 0.994416 0
  outer loop
   vertex -0.013259 0.109198 0.22
   vertex -0.00995488 0.109549 0.22
   vertex -0.00995488 0.109549 0
  endloop
 endfacet
 facet normal -0.0452958 -0.998974 -0
  outer loop
   vertex -0.00332233 -0.10995 0.22
   vertex -0.00664163 -0.109799 0
   vertex -0.00332233 -0.10995 0
  endloop
 endfacet
 facet normal -0.015104 -0.999886 0
  outer loop
   vertex 2.72892e-16 -0.11 0.22
   vertex -0.00332233 -0.10995 0.22
   vertex -0.00332233 -0.10995 0
  endloop
 endfacet
 facet normal -0.10553 0.994416 0
  outer loop
   vertex -0.013259 0.109198 0.22
   vertex -0.00995488 0.109549 0
   vertex -0.013259 0.109198 0
  endloop
 endfacet
 facet normal -0.135516 0.990775 0
  outer loop
   vertex -0.0165511 0.108748 0.22
   vertex -0.013259 0.109198 0.22
   vertex -0.013259 0.109198 0
  endloop
 endfacet
 facet normal -0.015104 -0.999886 -0
  outer loop
   vertex 2.72892e-16 -0.11 0.22
   vertex -0.00332233 -0.10995 0
   vertex 2.72892e-16 -0.11 0
  endloop
 endfacet
 facet normal 0.015104 -0.999886 0
  outer loop
   vertex 0.00332233 -0.10995 0.22
   vertex 2.72892e-16 -0.11 0.22
   vertex 2.72892e-16 -0.11 0
  endloop
 endfacet
 facet normal -0.135516 0.990775 0
  outer loop
   vertex -0.0165511 0.108748 0.22
   vertex -0.013259 0.109198 0
   vertex -0.0165511 0.108748 0
  endloop
 endfacet
 facet normal -0.165379 0.98623 0
  outer loop
   vertex -0.0198281 0.108198 0.22
   vertex -0.0165511 0.108748 0.22
   vertex -0.0165511 0.108748 0
  endloop
 endfacet
 facet normal 0.015104 -0.999886 0
  outer loop
   vertex 0.00332233 -0.10995 0.22
   vertex 2.72892e-16 -0.11 0
   vertex 0.00332233 -0.10995 0
  endloop
 endfacet
 facet normal 0.0452958 -0.998974 0
  outer loop
   vertex 0.00664163 -0.109799 0.22
   vertex 0.00332233 -0.10995 0.22
   vertex 0.00332233 -0.10995 0
  endloop
 endfacet
 facet normal -0.165379 0.98623 0
  outer loop
   vertex -0.0198281 0.108198 0.22
   vertex -0.0165511 0.108748 0
   vertex -0.0198281 0.108198 0
  endloop
 endfacet
 facet normal 0.0452958 -0.998974 0
  outer loop
   vertex 0.00664163 -0.109799 0.22
   vertex 0.00332233 -0.10995 0
   vertex 0.00664163 -0.109799 0
  endloop
 endfacet
 facet normal 0.0754464 -0.99715 0
  outer loop
   vertex 0.00995488 -0.109549 0.22
   vertex 0.00664163 -0.109799 0.22
   vertex 0.00664163 -0.109799 0
  endloop
 endfacet
 facet normal -0.195091 0.980785 0
  outer loop
   vertex -0.0198281 0.108198 0.22
   vertex -0.0198281 0.108198 0
   vertex -0.0230869 0.10755 0
  endloop
 endfacet
 facet normal -0.195091 0.980785 0
  outer loop
   vertex -0.0230869 0.10755 0.22
   vertex -0.0198281 0.108198 0.22
   vertex -0.0230869 0.10755 0
  endloop
 endfacet
 facet normal 0.0754464 -0.99715 0
  outer loop
   vertex 0.00995488 -0.109549 0.22
   vertex 0.00664163 -0.109799 0
   vertex 0.00995488 -0.109549 0
  endloop
 endfacet
 facet normal -0.224624 0.974446 0
  outer loop
   vertex -0.0263247 0.106804 0.22
   vertex -0.0230869 0.10755 0.22
   vertex -0.0230869 0.10755 0
  endloop
 endfacet
 facet normal 0.10553 -0.994416 0
  outer loop
   vertex 0.013259 -0.109198 0.22
   vertex 0.00995488 -0.109549 0.22
   vertex 0.00995488 -0.109549 0
  endloop
 endfacet
 facet normal -0.224624 0.974446 0
  outer loop
   vertex -0.0263247 0.106804 0.22
   vertex -0.0230869 0.10755 0
   vertex -0.0263247 0.106804 0
  endloop
 endfacet
 facet normal 0.10553 -0.994416 0
  outer loop
   vertex 0.013259 -0.109198 0.22
   vertex 0.00995488 -0.109549 0
   vertex 0.013259 -0.109198 0
  endloop
 endfacet
 facet normal -0.253952 0.967217 0
  outer loop
   vertex -0.0295385 0.10596 0.22
   vertex -0.0263247 0.106804 0.22
   vertex -0.0263247 0.106804 0
  endloop
 endfacet
 facet normal 0.135516 -0.990775 0
  outer loop
   vertex 0.0165511 -0.108748 0.22
   vertex 0.013259 -0.109198 0.22
   vertex 0.013259 -0.109198 0
  endloop
 endfacet
 facet normal 0.135516 -0.990775 0
  outer loop
   vertex 0.0165511 -0.108748 0.22
   vertex 0.013259 -0.109198 0
   vertex 0.0165511 -0.108748 0
  endloop
 endfacet
 facet normal -0.253952 0.967217 0
  outer loop
   vertex -0.0295385 0.10596 0.22
   vertex -0.0263247 0.106804 0
   vertex -0.0295385 0.10596 0
  endloop
 endfacet
 facet normal 0.165379 -0.98623 0
  outer loop
   vertex 0.0198281 -0.108198 0.22
   vertex 0.0165511 -0.108748 0.22
   vertex 0.0165511 -0.108748 0
  endloop
 endfacet
 facet normal -0.283049 0.959105 0
  outer loop
   vertex -0.0327253 0.105019 0.22
   vertex -0.0295385 0.10596 0.22
   vertex -0.0295385 0.10596 0
  endloop
 endfacet
 facet normal 0.165379 -0.98623 0
  outer loop
   vertex 0.0198281 -0.108198 0.22
   vertex 0.0165511 -0.108748 0
   vertex 0.0198281 -0.108198 0
  endloop
 endfacet
 facet normal -0.283049 0.959105 0
  outer loop
   vertex -0.0327253 0.105019 0.22
   vertex -0.0295385 0.10596 0
   vertex -0.0327253 0.105019 0
  endloop
 endfacet
 facet normal -0.311889 0.950119 0
  outer loop
   vertex -0.0358823 0.103983 0.22
   vertex -0.0327253 0.105019 0.22
   vertex -0.0327253 0.105019 0
  endloop
 endfacet
 facet normal 0.195091 -0.980785 0
  outer loop
   vertex 0.0198281 -0.108198 0.22
   vertex 0.0198281 -0.108198 0
   vertex 0.0230869 -0.10755 0
  endloop
 endfacet
 facet normal 0.195091 -0.980785 0
  outer loop
   vertex 0.0230869 -0.10755 0.22
   vertex 0.0198281 -0.108198 0.22
   vertex 0.0230869 -0.10755 0
  endloop
 endfacet
 facet normal -0.340443 0.940265 0
  outer loop
   vertex -0.0390065 0.102852 0.22
   vertex -0.0358823 0.103983 0.22
   vertex -0.0358823 0.103983 0
  endloop
 endfacet
 facet normal -0.311889 0.950119 0
  outer loop
   vertex -0.0358823 0.103983 0.22
   vertex -0.0327253 0.105019 0
   vertex -0.0358823 0.103983 0
  endloop
 endfacet
 facet normal 0.224624 -0.974446 0
  outer loop
   vertex 0.0263247 -0.106804 0.22
   vertex 0.0230869 -0.10755 0.22
   vertex 0.0263247 -0.106804 0
  endloop
 endfacet
 facet normal 0.224624 -0.974446 0
  outer loop
   vertex 0.0230869 -0.10755 0.22
   vertex 0.0230869 -0.10755 0
   vertex 0.0263247 -0.106804 0
  endloop
 endfacet
 facet normal 0.253952 -0.967217 0
  outer loop
   vertex 0.0295385 -0.10596 0.22
   vertex 0.0263247 -0.106804 0.22
   vertex 0.0263247 -0.106804 0
  endloop
 endfacet
 facet normal -0.340443 0.940265 0
  outer loop
   vertex -0.0390065 0.102852 0.22
   vertex -0.0358823 0.103983 0
   vertex -0.0390065 0.102852 0
  endloop
 endfacet
 facet normal 0.283049 -0.959105 0
  outer loop
   vertex 0.0327253 -0.105019 0.22
   vertex 0.0295385 -0.10596 0.22
   vertex 0.0295385 -0.10596 0
  endloop
 endfacet
 facet normal -0.368686 0.929554 0
  outer loop
   vertex -0.0420952 0.101627 0.22
   vertex -0.0390065 0.102852 0.22
   vertex -0.0420952 0.101627 0
  endloop
 endfacet
 facet normal 0.253952 -0.967217 0
  outer loop
   vertex 0.0295385 -0.10596 0.22
   vertex 0.0263247 -0.106804 0
   vertex 0.0295385 -0.10596 0
  endloop
 endfacet
 facet normal -0.396593 0.917995 0
  outer loop
   vertex -0.0451454 0.100309 0.22
   vertex -0.0420952 0.101627 0.22
   vertex -0.0420952 0.101627 0
  endloop
 endfacet
 facet normal -0.368686 0.929554 0
  outer loop
   vertex -0.0390065 0.102852 0.22
   vertex -0.0390065 0.102852 0
   vertex -0.0420952 0.101627 0
  endloop
 endfacet
 facet normal 0.283049 -0.959105 0
  outer loop
   vertex 0.0327253 -0.105019 0.22
   vertex 0.0295385 -0.10596 0
   vertex 0.0327253 -0.105019 0
  endloop
 endfacet
 facet normal -0.424139 0.905597 0
  outer loop
   vertex -0.0481544 0.0988997 0.22
   vertex -0.0451454 0.100309 0.22
   vertex -0.0451454 0.100309 0
  endloop
 endfacet
 facet normal -0.396593 0.917995 0
  outer loop
   vertex -0.0451454 0.100309 0.22
   vertex -0.0420952 0.101627 0
   vertex -0.0451454 0.100309 0
  endloop
 endfacet
 facet normal 0.311889 -0.950119 0
  outer loop
   vertex 0.0358823 -0.103983 0.22
   vertex 0.0327253 -0.105019 0.22
   vertex 0.0358823 -0.103983 0
  endloop
 endfacet
 facet normal 0.311889 -0.950119 0
  outer loop
   vertex 0.0327253 -0.105019 0.22
   vertex 0.0327253 -0.105019 0
   vertex 0.0358823 -0.103983 0
  endloop
 endfacet
 facet normal -0.451297 0.892374 0
  outer loop
   vertex -0.0511195 0.0974002 0.22
   vertex -0.0481544 0.0988997 0.22
   vertex -0.0481544 0.0988997 0
  endloop
 endfacet
 facet normal -0.424139 0.905597 0
  outer loop
   vertex -0.0481544 0.0988997 0.22
   vertex -0.0451454 0.100309 0
   vertex -0.0481544 0.0988997 0
  endloop
 endfacet
 facet normal 0.340443 -0.940265 0
  outer loop
   vertex 0.0390065 -0.102852 0.22
   vertex 0.0358823 -0.103983 0.22
   vertex 0.0390065 -0.102852 0
  endloop
 endfacet
 facet normal 0.368686 -0.929554 0
  outer loop
   vertex 0.0420952 -0.101627 0.22
   vertex 0.0390065 -0.102852 0.22
   vertex 0.0390065 -0.102852 0
  endloop
 endfacet
 facet normal 0.340443 -0.940265 0
  outer loop
   vertex 0.0358823 -0.103983 0.22
   vertex 0.0358823 -0.103983 0
   vertex 0.0390065 -0.102852 0
  endloop
 endfacet
 facet normal -0.478044 0.878336 0
  outer loop
   vertex -0.054038 0.0958118 0.22
   vertex -0.0511195 0.0974002 0.22
   vertex -0.0511195 0.0974002 0
  endloop
 endfacet
 facet normal -0.451297 0.892374 0
  outer loop
   vertex -0.0511195 0.0974002 0.22
   vertex -0.0481544 0.0988997 0
   vertex -0.0511195 0.0974002 0
  endloop
 endfacet
 facet normal 0.396593 -0.917995 0
  outer loop
   vertex 0.0451454 -0.100309 0.22
   vertex 0.0420952 -0.101627 0.22
   vertex 0.0420952 -0.101627 0
  endloop
 endfacet
 facet normal 0.368686 -0.929554 0
  outer loop
   vertex 0.0420952 -0.101627 0.22
   vertex 0.0390065 -0.102852 0
   vertex 0.0420952 -0.101627 0
  endloop
 endfacet
 facet normal -0.478044 0.878336 0
  outer loop
   vertex -0.054038 0.0958118 0.22
   vertex -0.0511195 0.0974002 0
   vertex -0.054038 0.0958118 0
  endloop
 endfacet
 facet normal 0.396593 -0.917995 0
  outer loop
   vertex 0.0451454 -0.100309 0.22
   vertex 0.0420952 -0.101627 0
   vertex 0.0451454 -0.100309 0
  endloop
 endfacet
 facet normal -0.504353 0.863497 0
  outer loop
   vertex -0.0569072 0.0941359 0.22
   vertex -0.054038 0.0958118 0.22
   vertex -0.0569072 0.0941359 0
  endloop
 endfacet
 facet normal 0.424139 -0.905597 0
  outer loop
   vertex 0.0481544 -0.0988997 0.22
   vertex 0.0451454 -0.100309 0.22
   vertex 0.0481544 -0.0988997 0
  endloop
 endfacet
 facet normal -0.504353 0.863497 0
  outer loop
   vertex -0.054038 0.0958118 0.22
   vertex -0.054038 0.0958118 0
   vertex -0.0569072 0.0941359 0
  endloop
 endfacet
 facet normal 0.424139 -0.905597 0
  outer loop
   vertex 0.0451454 -0.100309 0.22
   vertex 0.0451454 -0.100309 0
   vertex 0.0481544 -0.0988997 0
  endloop
 endfacet
 facet normal -0.530204 0.84787 0
  outer loop
   vertex -0.0569072 0.0941359 0.22
   vertex -0.0569072 0.0941359 0
   vertex -0.0597244 0.0923742 0
  endloop
 endfacet
 facet normal 0.451297 -0.892374 0
  outer loop
   vertex 0.0481544 -0.0988997 0.22
   vertex 0.0481544 -0.0988997 0
   vertex 0.0511195 -0.0974002 0
  endloop
 endfacet
 facet normal -0.530204 0.84787 0
  outer loop
   vertex -0.0597244 0.0923742 0.22
   vertex -0.0569072 0.0941359 0.22
   vertex -0.0597244 0.0923742 0
  endloop
 endfacet
 facet normal -0.555569 0.831471 0
  outer loop
   vertex -0.0624871 0.0905282 0.22
   vertex -0.0597244 0.0923742 0.22
   vertex -0.0597244 0.0923742 0
  endloop
 endfacet
 facet normal 0.451297 -0.892374 0
  outer loop
   vertex 0.0511195 -0.0974002 0.22
   vertex 0.0481544 -0.0988997 0.22
   vertex 0.0511195 -0.0974002 0
  endloop
 endfacet
 facet normal 0.478044 -0.878336 0
  outer loop
   vertex 0.054038 -0.0958118 0.22
   vertex 0.0511195 -0.0974002 0.22
   vertex 0.0511195 -0.0974002 0
  endloop
 endfacet
 facet normal 0.478044 -0.878336 0
  outer loop
   vertex 0.054038 -0.0958118 0.22
   vertex 0.0511195 -0.0974002 0
   vertex 0.054038 -0.0958118 0
  endloop
 endfacet
 facet normal -0.555569 0.831471 0
  outer loop
   vertex -0.0624871 0.0905282 0.22
   vertex -0.0597244 0.0923742 0
   vertex -0.0624871 0.0905282 0
  endloop
 endfacet
 facet normal -0.58043 0.81431 0
  outer loop
   vertex -0.0651928 0.0885996 0.22
   vertex -0.0624871 0.0905282 0.22
   vertex -0.0624871 0.0905282 0
  endloop
 endfacet
 facet normal 0.504353 -0.863497 0
  outer loop
   vertex 0.054038 -0.0958118 0.22
   vertex 0.054038 -0.0958118 0
   vertex 0.0569072 -0.0941359 0
  endloop
 endfacet
 facet normal -0.58043 0.81431 0
  outer loop
   vertex -0.0651928 0.0885996 0.22
   vertex -0.0624871 0.0905282 0
   vertex -0.0651928 0.0885996 0
  endloop
 endfacet
 facet normal 0.504353 -0.863497 0
  outer loop
   vertex 0.0569072 -0.0941359 0.22
   vertex 0.054038 -0.0958118 0.22
   vertex 0.0569072 -0.0941359 0
  endloop
 endfacet
 facet normal 0.530204 -0.84787 0
  outer loop
   vertex 0.0597244 -0.0923742 0.22
   vertex 0.0569072 -0.0941359 0.22
   vertex 0.0569072 -0.0941359 0
  endloop
 endfacet
 facet normal 0.530204 -0.84787 0
  outer loop
   vertex 0.0597244 -0.0923742 0.22
   vertex 0.0569072 -0.0941359 0
   vertex 0.0597244 -0.0923742 0
  endloop
 endfacet
 facet normal -0.604761 0.796407 0
  outer loop
   vertex -0.0651928 0.0885996 0.22
   vertex -0.0651928 0.0885996 0
   vertex -0.0678391 0.0865902 0
  endloop
 endfacet
 facet normal 0.555569 -0.831471 0
  outer loop
   vertex 0.0624871 -0.0905282 0.22
   vertex 0.0597244 -0.0923742 0.22
   vertex 0.0597244 -0.0923742 0
  endloop
 endfacet
 facet normal -0.604761 0.796407 0
  outer loop
   vertex -0.0678391 0.0865902 0.22
   vertex -0.0651928 0.0885996 0.22
   vertex -0.0678391 0.0865902 0
  endloop
 endfacet
 facet normal -0.628536 0.77778 0
  outer loop
   vertex -0.0704234 0.0845017 0.22
   vertex -0.0678391 0.0865902 0.22
   vertex -0.0678391 0.0865902 0
  endloop
 endfacet
 facet normal 0.555569 -0.831471 0
  outer loop
   vertex 0.0624871 -0.0905282 0.22
   vertex 0.0597244 -0.0923742 0
   vertex 0.0624871 -0.0905282 0
  endloop
 endfacet
 facet normal -0.628536 0.77778 0
  outer loop
   vertex -0.0704234 0.0845017 0.22
   vertex -0.0678391 0.0865902 0
   vertex -0.0704234 0.0845017 0
  endloop
 endfacet
 facet normal -0.651743 0.75844 0
  outer loop
   vertex -0.0729435 0.0823362 0.22
   vertex -0.0704234 0.0845017 0.22
   vertex -0.0704234 0.0845017 0
  endloop
 endfacet
 facet normal 0.58043 -0.81431 0
  outer loop
   vertex 0.0624871 -0.0905282 0.22
   vertex 0.0624871 -0.0905282 0
   vertex 0.0651928 -0.0885996 0
  endloop
 endfacet
 facet normal 0.58043 -0.81431 0
  outer loop
   vertex 0.0651928 -0.0885996 0.22
   vertex 0.0624871 -0.0905282 0.22
   vertex 0.0651928 -0.0885996 0
  endloop
 endfacet
 facet normal -0.651743 0.75844 0
  outer loop
   vertex -0.0729435 0.0823362 0.22
   vertex -0.0704234 0.0845017 0
   vertex -0.0729435 0.0823362 0
  endloop
 endfacet
 facet normal -0.674351 0.738411 0
  outer loop
   vertex -0.075397 0.0800955 0.22
   vertex -0.0729435 0.0823362 0.22
   vertex -0.0729435 0.0823362 0
  endloop
 endfacet
 facet normal 0.604761 -0.796407 0
  outer loop
   vertex 0.0651928 -0.0885996 0.22
   vertex 0.0651928 -0.0885996 0
   vertex 0.0678391 -0.0865902 0
  endloop
 endfacet
 facet normal 0.604761 -0.796407 0
  outer loop
   vertex 0.0678391 -0.0865902 0.22
   vertex 0.0651928 -0.0885996 0.22
   vertex 0.0678391 -0.0865902 0
  endloop
 endfacet
 facet normal 0.628536 -0.77778 0
  outer loop
   vertex 0.0704234 -0.0845017 0.22
   vertex 0.0678391 -0.0865902 0.22
   vertex 0.0678391 -0.0865902 0
  endloop
 endfacet
 facet normal -0.674351 0.738411 0
  outer loop
   vertex -0.075397 0.0800955 0.22
   vertex -0.0729435 0.0823362 0
   vertex -0.075397 0.0800955 0
  endloop
 endfacet
 facet normal 0.628536 -0.77778 0
  outer loop
   vertex 0.0704234 -0.0845017 0.22
   vertex 0.0678391 -0.0865902 0
   vertex 0.0704234 -0.0845017 0
  endloop
 endfacet
 facet normal 0.651743 -0.75844 0
  outer loop
   vertex 0.0729435 -0.0823362 0.22
   vertex 0.0704234 -0.0845017 0.22
   vertex 0.0704234 -0.0845017 0
  endloop
 endfacet
 facet normal -0.696347 0.717705 0
  outer loop
   vertex -0.075397 0.0800955 0.22
   vertex -0.075397 0.0800955 0
   vertex -0.0777817 0.0777817 0
  endloop
 endfacet
 facet normal -0.696347 0.717705 0
  outer loop
   vertex -0.0777817 0.0777817 0.22
   vertex -0.075397 0.0800955 0.22
   vertex -0.0777817 0.0777817 0
  endloop
 endfacet
 facet normal 0.651743 -0.75844 0
  outer loop
   vertex 0.0729435 -0.0823362 0.22
   vertex 0.0704234 -0.0845017 0
   vertex 0.0729435 -0.0823362 0
  endloop
 endfacet
 facet normal -0.717705 0.696347 0
  outer loop
   vertex -0.0777817 0.0777817 0.22
   vertex -0.0777817 0.0777817 0
   vertex -0.0800955 0.075397 0
  endloop
 endfacet
 facet normal -0.717705 0.696347 0
  outer loop
   vertex -0.0800955 0.075397 0.22
   vertex -0.0777817 0.0777817 0.22
   vertex -0.0800955 0.075397 0
  endloop
 endfacet
 facet normal 0.674351 -0.738411 0
  outer loop
   vertex 0.0729435 -0.0823362 0.22
   vertex 0.0729435 -0.0823362 0
   vertex 0.075397 -0.0800955 0
  endloop
 endfacet
 facet normal -0.738411 0.674351 0
  outer loop
   vertex -0.0823362 0.0729435 0.22
   vertex -0.0800955 0.075397 0.22
   vertex -0.0800955 0.075397 0
  endloop
 endfacet
 facet normal 0.674351 -0.738411 0
  outer loop
   vertex 0.075397 -0.0800955 0.22
   vertex 0.0729435 -0.0823362 0.22
   vertex 0.075397 -0.0800955 0
  endloop
 endfacet
 facet normal -0.738411 0.674351 0
  outer loop
   vertex -0.0823362 0.0729435 0.22
   vertex -0.0800955 0.075397 0
   vertex -0.0823362 0.0729435 0
  endloop
 endfacet
 facet normal -0.75844 0.651743 0
  outer loop
   vertex -0.0845017 0.0704234 0.22
   vertex -0.0823362 0.0729435 0.22
   vertex -0.0823362 0.0729435 0
  endloop
 endfacet
 facet normal 0.696347 -0.717705 0
  outer loop
   vertex 0.075397 -0.0800955 0.22
   vertex 0.075397 -0.0800955 0
   vertex 0.0777817 -0.0777817 0
  endloop
 endfacet
 facet normal 0.696347 -0.717705 0
  outer loop
   vertex 0.0777817 -0.0777817 0.22
   vertex 0.075397 -0.0800955 0.22
   vertex 0.0777817 -0.0777817 0
  endloop
 endfacet
 facet normal 0.717705 -0.696347 0
  outer loop
   vertex 0.0800955 -0.075397 0.22
   vertex 0.0777817 -0.0777817 0.22
   vertex 0.0777817 -0.0777817 0
  endloop
 endfacet
 facet normal -0.75844 0.651743 0
  outer loop
   vertex -0.0845017 0.0704234 0.22
   vertex -0.0823362 0.0729435 0
   vertex -0.0845017 0.0704234 0
  endloop
 endfacet
 facet normal -0.77778 0.628536 0
  outer loop
   vertex -0.0865902 0.0678391 0.22
   vertex -0.0845017 0.0704234 0.22
   vertex -0.0845017 0.0704234 0
  endloop
 endfacet
 facet normal 0.717705 -0.696347 0
  outer loop
   vertex 0.0800955 -0.075397 0.22
   vertex 0.0777817 -0.0777817 0
   vertex 0.0800955 -0.075397 0
  endloop
 endfacet
 facet normal 0.738411 -0.674351 0
  outer loop
   vertex 0.0823362 -0.0729435 0.22
   vertex 0.0800955 -0.075397 0.22
   vertex 0.0800955 -0.075397 0
  endloop
 endfacet
 facet normal -0.77778 0.628536 0
  outer loop
   vertex -0.0865902 0.0678391 0.22
   vertex -0.0845017 0.0704234 0
   vertex -0.0865902 0.0678391 0
  endloop
 endfacet
 facet normal 0.738411 -0.674351 0
  outer loop
   vertex 0.0823362 -0.0729435 0.22
   vertex 0.0800955 -0.075397 0
   vertex 0.0823362 -0.0729435 0
  endloop
 endfacet
 facet normal -0.796407 0.604761 0
  outer loop
   vertex -0.0865902 0.0678391 0.22
   vertex -0.0865902 0.0678391 0
   vertex -0.0885996 0.0651928 0
  endloop
 endfacet
 facet normal 0.75844 -0.651743 0
  outer loop
   vertex 0.0823362 -0.0729435 0.22
   vertex 0.0823362 -0.0729435 0
   vertex 0.0845017 -0.0704234 0
  endloop
 endfacet
 facet normal -0.796407 0.604761 0
  outer loop
   vertex -0.0885996 0.0651928 0.22
   vertex -0.0865902 0.0678391 0.22
   vertex -0.0885996 0.0651928 0
  endloop
 endfacet
 facet normal 0.75844 -0.651743 0
  outer loop
   vertex 0.0845017 -0.0704234 0.22
   vertex 0.0823362 -0.0729435 0.22
   vertex 0.0845017 -0.0704234 0
  endloop
 endfacet
 facet normal -0.81431 0.58043 0
  outer loop
   vertex -0.0905282 0.0624871 0.22
   vertex -0.0885996 0.0651928 0.22
   vertex -0.0885996 0.0651928 0
  endloop
 endfacet
 facet normal 0.77778 -0.628536 0
  outer loop
   vertex 0.0845017 -0.0704234 0.22
   vertex 0.0845017 -0.0704234 0
   vertex 0.0865902 -0.0678391 0
  endloop
 endfacet
 facet normal -0.81431 0.58043 0
  outer loop
   vertex -0.0905282 0.0624871 0.22
   vertex -0.0885996 0.0651928 0
   vertex -0.0905282 0.0624871 0
  endloop
 endfacet
 facet normal 0.77778 -0.628536 0
  outer loop
   vertex 0.0865902 -0.0678391 0.22
   vertex 0.0845017 -0.0704234 0.22
   vertex 0.0865902 -0.0678391 0
  endloop
 endfacet
 facet normal -0.831471 0.555569 0
  outer loop
   vertex -0.0923742 0.0597244 0.22
   vertex -0.0905282 0.0624871 0.22
   vertex -0.0905282 0.0624871 0
  endloop
 endfacet
 facet normal 0.796407 -0.604761 0
  outer loop
   vertex 0.0885996 -0.0651928 0.22
   vertex 0.0865902 -0.0678391 0.22
   vertex 0.0865902 -0.0678391 0
  endloop
 endfacet
 facet normal 0.796407 -0.604761 0
  outer loop
   vertex 0.0885996 -0.0651928 0.22
   vertex 0.0865902 -0.0678391 0
   vertex 0.0885996 -0.0651928 0
  endloop
 endfacet
 facet normal -0.831471 0.555569 0
  outer loop
   vertex -0.0923742 0.0597244 0.22
   vertex -0.0905282 0.0624871 0
   vertex -0.0923742 0.0597244 0
  endloop
 endfacet
 facet normal 0.81431 -0.58043 0
  outer loop
   vertex 0.0905282 -0.0624871 0.22
   vertex 0.0885996 -0.0651928 0.22
   vertex 0.0885996 -0.0651928 0
  endloop
 endfacet
 facet normal 0.81431 -0.58043 0
  outer loop
   vertex 0.0905282 -0.0624871 0.22
   vertex 0.0885996 -0.0651928 0
   vertex 0.0905282 -0.0624871 0
  endloop
 endfacet
 facet normal -0.84787 0.530204 0
  outer loop
   vertex -0.0923742 0.0597244 0.22
   vertex -0.0923742 0.0597244 0
   vertex -0.0941359 0.0569072 0
  endloop
 endfacet
 facet normal 0.831471 -0.555569 0
  outer loop
   vertex 0.0923742 -0.0597244 0.22
   vertex 0.0905282 -0.0624871 0.22
   vertex 0.0905282 -0.0624871 0
  endloop
 endfacet
 facet normal -0.84787 0.530204 0
  outer loop
   vertex -0.0941359 0.0569072 0.22
   vertex -0.0923742 0.0597244 0.22
   vertex -0.0941359 0.0569072 0
  endloop
 endfacet
 facet normal 0.831471 -0.555569 0
  outer loop
   vertex 0.0923742 -0.0597244 0.22
   vertex 0.0905282 -0.0624871 0
   vertex 0.0923742 -0.0597244 0
  endloop
 endfacet
 facet normal 0.84787 -0.530204 0
  outer loop
   vertex 0.0941359 -0.0569072 0.22
   vertex 0.0923742 -0.0597244 0.22
   vertex 0.0923742 -0.0597244 0
  endloop
 endfacet
 facet normal -0.863497 0.504353 0
  outer loop
   vertex -0.0941359 0.0569072 0.22
   vertex -0.0941359 0.0569072 0
   vertex -0.0958118 0.054038 0
  endloop
 endfacet
 facet normal -0.863497 0.504353 0
  outer loop
   vertex -0.0958118 0.054038 0.22
   vertex -0.0941359 0.0569072 0.22
   vertex -0.0958118 0.054038 0
  endloop
 endfacet
 facet normal -0.878336 0.478044 0
  outer loop
   vertex -0.0974002 0.0511195 0.22
   vertex -0.0958118 0.054038 0.22
   vertex -0.0958118 0.054038 0
  endloop
 endfacet
 facet normal 0.84787 -0.530204 0
  outer loop
   vertex 0.0941359 -0.0569072 0.22
   vertex 0.0923742 -0.0597244 0
   vertex 0.0941359 -0.0569072 0
  endloop
 endfacet
 facet normal 0.863497 -0.504353 0
  outer loop
   vertex 0.0958118 -0.054038 0.22
   vertex 0.0941359 -0.0569072 0.22
   vertex 0.0941359 -0.0569072 0
  endloop
 endfacet
 facet normal -0.878336 0.478044 0
  outer loop
   vertex -0.0974002 0.0511195 0.22
   vertex -0.0958118 0.054038 0
   vertex -0.0974002 0.0511195 0
  endloop
 endfacet
 facet normal -0.892374 0.451297 0
  outer loop
   vertex -0.0988997 0.0481544 0.22
   vertex -0.0974002 0.0511195 0.22
   vertex -0.0974002 0.0511195 0
  endloop
 endfacet
 facet normal 0.863497 -0.504353 0
  outer loop
   vertex 0.0958118 -0.054038 0.22
   vertex 0.0941359 -0.0569072 0
   vertex 0.0958118 -0.054038 0
  endloop
 endfacet
 facet normal 0.878336 -0.478044 0
  outer loop
   vertex 0.0974002 -0.0511195 0.22
   vertex 0.0958118 -0.054038 0.22
   vertex 0.0958118 -0.054038 0
  endloop
 endfacet
 facet normal -0.892374 0.451297 0
  outer loop
   vertex -0.0988997 0.0481544 0.22
   vertex -0.0974002 0.0511195 0
   vertex -0.0988997 0.0481544 0
  endloop
 endfacet
 facet normal -0.905597 0.424139 0
  outer loop
   vertex -0.100309 0.0451454 0.22
   vertex -0.0988997 0.0481544 0.22
   vertex -0.0988997 0.0481544 0
  endloop
 endfacet
 facet normal 0.878336 -0.478044 0
  outer loop
   vertex 0.0974002 -0.0511195 0.22
   vertex 0.0958118 -0.054038 0
   vertex 0.0974002 -0.0511195 0
  endloop
 endfacet
 facet normal 0.892374 -0.451297 0
  outer loop
   vertex 0.0988997 -0.0481544 0.22
   vertex 0.0974002 -0.0511195 0.22
   vertex 0.0974002 -0.0511195 0
  endloop
 endfacet
 facet normal 0.905597 -0.424139 0
  outer loop
   vertex 0.100309 -0.0451454 0.22
   vertex 0.0988997 -0.0481544 0.22
   vertex 0.0988997 -0.0481544 0
  endloop
 endfacet
 facet normal -0.905597 0.424139 0
  outer loop
   vertex -0.100309 0.0451454 0.22
   vertex -0.0988997 0.0481544 0
   vertex -0.100309 0.0451454 0
  endloop
 endfacet
 facet normal 0.892374 -0.451297 0
  outer loop
   vertex 0.0988997 -0.0481544 0.22
   vertex 0.0974002 -0.0511195 0
   vertex 0.0988997 -0.0481544 0
  endloop
 endfacet
 facet normal 0.917995 -0.396593 0
  outer loop
   vertex 0.101627 -0.0420952 0.22
   vertex 0.100309 -0.0451454 0.22
   vertex 0.100309 -0.0451454 0
  endloop
 endfacet
 facet normal -0.917995 0.396593 0
  outer loop
   vertex -0.100309 0.0451454 0.22
   vertex -0.100309 0.0451454 0
   vertex -0.101627 0.0420952 0
  endloop
 endfacet
 facet normal 0.905597 -0.424139 0
  outer loop
   vertex 0.100309 -0.0451454 0.22
   vertex 0.0988997 -0.0481544 0
   vertex 0.100309 -0.0451454 0
  endloop
 endfacet
 facet normal -0.917995 0.396593 0
  outer loop
   vertex -0.101627 0.0420952 0.22
   vertex -0.100309 0.0451454 0.22
   vertex -0.101627 0.0420952 0
  endloop
 endfacet
 facet normal -0.929554 0.368686 0
  outer loop
   vertex -0.102852 0.0390065 0.22
   vertex -0.101627 0.0420952 0.22
   vertex -0.101627 0.0420952 0
  endloop
 endfacet
 facet normal 0.929554 -0.368686 0
  outer loop
   vertex 0.102852 -0.0390065 0.22
   vertex 0.101627 -0.0420952 0.22
   vertex 0.101627 -0.0420952 0
  endloop
 endfacet
 facet normal -0.940265 0.340443 0
  outer loop
   vertex -0.103983 0.0358823 0.22
   vertex -0.102852 0.0390065 0.22
   vertex -0.102852 0.0390065 0
  endloop
 endfacet
 facet normal 0.917995 -0.396593 0
  outer loop
   vertex 0.101627 -0.0420952 0.22
   vertex 0.100309 -0.0451454 0
   vertex 0.101627 -0.0420952 0
  endloop
 endfacet
 facet normal -0.929554 0.368686 0
  outer loop
   vertex -0.102852 0.0390065 0.22
   vertex -0.101627 0.0420952 0
   vertex -0.102852 0.0390065 0
  endloop
 endfacet
 facet normal 0.940265 -0.340443 0
  outer loop
   vertex 0.103983 -0.0358823 0.22
   vertex 0.102852 -0.0390065 0.22
   vertex 0.102852 -0.0390065 0
  endloop
 endfacet
 facet normal 0.929554 -0.368686 0
  outer loop
   vertex 0.102852 -0.0390065 0.22
   vertex 0.101627 -0.0420952 0
   vertex 0.102852 -0.0390065 0
  endloop
 endfacet
 facet normal -0.940265 0.340443 0
  outer loop
   vertex -0.103983 0.0358823 0.22
   vertex -0.102852 0.0390065 0
   vertex -0.103983 0.0358823 0
  endloop
 endfacet
 facet normal 0.940265 -0.340443 0
  outer loop
   vertex 0.103983 -0.0358823 0.22
   vertex 0.102852 -0.0390065 0
   vertex 0.103983 -0.0358823 0
  endloop
 endfacet
 facet normal 0.950119 -0.311889 0
  outer loop
   vertex 0.105019 -0.0327253 0.22
   vertex 0.103983 -0.0358823 0.22
   vertex 0.103983 -0.0358823 0
  endloop
 endfacet
 facet normal -0.950119 0.311889 0
  outer loop
   vertex -0.105019 0.0327253 0.22
   vertex -0.103983 0.0358823 0.22
   vertex -0.105019 0.0327253 0
  endloop
 endfacet
 facet normal -0.959105 0.283049 0
  outer loop
   vertex -0.10596 0.0295385 0.22
   vertex -0.105019 0.0327253 0.22
   vertex -0.105019 0.0327253 0
  endloop
 endfacet
 facet normal -0.950119 0.311889 0
  outer loop
   vertex -0.103983 0.0358823 0.22
   vertex -0.103983 0.0358823 0
   vertex -0.105019 0.0327253 0
  endloop
 endfacet
 facet normal 0.959105 -0.283049 0
  outer loop
   vertex 0.10596 -0.0295385 0.22
   vertex 0.105019 -0.0327253 0.22
   vertex 0.105019 -0.0327253 0
  endloop
 endfacet
 facet normal 0.950119 -0.311889 0
  outer loop
   vertex 0.105019 -0.0327253 0.22
   vertex 0.103983 -0.0358823 0
   vertex 0.105019 -0.0327253 0
  endloop
 endfacet
endsolid zone0
