<?xml version="1.0" encoding="UTF-8"?>
<!DOCTYPE svg PUBLIC "-//W3C//DTD SVG 1.1//EN" "http://www.w3.org/Graphics/SVG/1.1/DTD/svg11.dtd">
<svg width="152mm" height="102mm" viewBox="0 0 15200 10200" version="1.1" xmlns="http://www.w3.org/2000/svg" stroke-width="28.222" stroke-linejoin="round" xml:space="preserve">
 <path fill="rgb(255,255,255)" stroke="none" d="M 7596,10267 L -24,10267 -24,107 15216,107 15216,10267 7596,10267 Z"/>
 <path fill="none" stroke="rgb(179,179,179)" stroke-linejoin="round" d="M 8528,8560 L 2475,8560 2475,1506 14582,1506 14582,8560 8528,8560 Z"/>
 <path fill="none" stroke="rgb(179,179,179)" stroke-linejoin="round" d="M 14581,8559 L 2474,8559"/>
 <path fill="none" stroke="rgb(179,179,179)" stroke-linejoin="round" d="M 14581,7551 L 2474,7551"/>
 <path fill="none" stroke="rgb(179,179,179)" stroke-linejoin="round" d="M 14581,6543 L 2474,6543"/>
 <path fill="none" stroke="rgb(179,179,179)" stroke-linejoin="round" d="M 14581,5535 L 2474,5535"/>
 <path fill="none" stroke="rgb(179,179,179)" stroke-linejoin="round" d="M 14581,4528 L 2474,4528"/>
 <path fill="none" stroke="rgb(179,179,179)" stroke-linejoin="round" d="M 14581,3520 L 2474,3520"/>
 <path fill="none" stroke="rgb(179,179,179)" stroke-linejoin="round" d="M 14581,2512 L 2474,2512"/>
 <path fill="none" stroke="rgb(179,179,179)" stroke-linejoin="round" d="M 14581,1505 L 2474,1505"/>
 <path fill="none" stroke="rgb(179,179,179)" stroke-linejoin="round" d="M 2474,8709 L 2474,8559"/>
 <path fill="none" stroke="rgb(179,179,179)" stroke-linejoin="round" d="M 2474,8709 L 2474,8559"/>
 <path fill="none" stroke="rgb(179,179,179)" stroke-linejoin="round" d="M 3988,8709 L 3988,8559"/>
 <path fill="none" stroke="rgb(179,179,179)" stroke-linejoin="round" d="M 3988,8709 L 3988,8559"/>
 <path fill="none" stroke="rgb(179,179,179)" stroke-linejoin="round" d="M 5501,8709 L 5501,8559"/>
 <path fill="none" stroke="rgb(179,179,179)" stroke-linejoin="round" d="M 5501,8709 L 5501,8559"/>
 <path fill="none" stroke="rgb(179,179,179)" stroke-linejoin="round" d="M 7015,8709 L 7015,8559"/>
 <path fill="none" stroke="rgb(179,179,179)" stroke-linejoin="round" d="M 7015,8709 L 7015,8559"/>
 <path fill="none" stroke="rgb(179,179,179)" stroke-linejoin="round" d="M 8527,8709 L 8527,8559"/>
 <path fill="none" stroke="rgb(179,179,179)" stroke-linejoin="round" d="M 8527,8709 L 8527,8559"/>
 <path fill="none" stroke="rgb(179,179,179)" stroke-linejoin="round" d="M 10041,8709 L 10041,8559"/>
 <path fill="none" stroke="rgb(179,179,179)" stroke-linejoin="round" d="M 10041,8709 L 10041,8559"/>
 <path fill="none" stroke="rgb(179,179,179)" stroke-linejoin="round" d="M 11554,8709 L 11554,8559"/>
 <path fill="none" stroke="rgb(179,179,179)" stroke-linejoin="round" d="M 11554,8709 L 11554,8559"/>
 <path fill="none" stroke="rgb(179,179,179)" stroke-linejoin="round" d="M 13068,8709 L 13068,8559"/>
 <path fill="none" stroke="rgb(179,179,179)" stroke-linejoin="round" d="M 13068,8709 L 13068,8559"/>
 <path fill="none" stroke="rgb(179,179,179)" stroke-linejoin="round" d="M 14581,8709 L 14581,8559"/>
 <path fill="none" stroke="rgb(179,179,179)" stroke-linejoin="round" d="M 14581,8709 L 14581,8559"/>
 <path fill="none" stroke="rgb(179,179,179)" stroke-linejoin="round" d="M 2474,8559 L 14581,8559"/>
 <path fill="none" stroke="rgb(179,179,179)" stroke-linejoin="round" d="M 2324,8559 L 2474,8559"/>
 <path fill="none" stroke="rgb(179,179,179)" stroke-linejoin="round" d="M 2324,8559 L 2474,8559"/>
 <path fill="none" stroke="rgb(179,179,179)" stroke-linejoin="round" d="M 2324,7551 L 2474,7551"/>
 <path fill="none" stroke="rgb(179,179,179)" stroke-linejoin="round" d="M 2324,7551 L 2474,7551"/>
 <path fill="none" stroke="rgb(179,179,179)" stroke-linejoin="round" d="M 2324,6543 L 2474,6543"/>
 <path fill="none" stroke="rgb(179,179,179)" stroke-linejoin="round" d="M 2324,6543 L 2474,6543"/>
 <path fill="none" stroke="rgb(179,179,179)" stroke-linejoin="round" d="M 2324,5535 L 2474,5535"/>
 <path fill="none" stroke="rgb(179,179,179)" stroke-linejoin="round" d="M 2324,5535 L 2474,5535"/>
 <path fill="none" stroke="rgb(179,179,179)" stroke-linejoin="round" d="M 2324,4528 L 2474,4528"/>
 <path fill="none" stroke="rgb(179,179,179)" stroke-linejoin="round" d="M 2324,4528 L 2474,4528"/>
 <path fill="none" stroke="rgb(179,179,179)" stroke-linejoin="round" d="M 2324,3520 L 2474,3520"/>
 <path fill="none" stroke="rgb(179,179,179)" stroke-linejoin="round" d="M 2324,3520 L 2474,3520"/>
 <path fill="none" stroke="rgb(179,179,179)" stroke-linejoin="round" d="M 2324,2512 L 2474,2512"/>
 <path fill="none" stroke="rgb(179,179,179)" stroke-linejoin="round" d="M 2324,2512 L 2474,2512"/>
 <path fill="none" stroke="rgb(179,179,179)" stroke-linejoin="round" d="M 2324,1505 L 2474,1505"/>
 <path fill="none" stroke="rgb(179,179,179)" stroke-linejoin="round" d="M 2324,1505 L 2474,1505"/>
 <path fill="none" stroke="rgb(179,179,179)" stroke-linejoin="round" d="M 2474,8559 L 2474,1505"/>
 <path fill="none" stroke="rgb(0,69,134)" stroke-width="80" stroke-linejoin="round" d="M 3988,2040 L 7015,4399 10041,5607 13068,6264"/>
 <path fill="rgb(0,69,134)" stroke="none" d="M 3863,1915 L 3863,2165 4113,2165 4113,1915 3863,1915 Z"/>
 <path fill="none" stroke="rgb(0,69,134)" stroke-linejoin="round" d="M 3863,1915 L 3863,2165 4113,2165 4113,1915 3863,1915 Z"/>
 <path fill="rgb(0,69,134)" stroke="none" d="M 6890,4274 L 6890,4524 7140,4524 7140,4274 6890,4274 Z"/>
 <path fill="none" stroke="rgb(0,69,134)" stroke-linejoin="round" d="M 6890,4274 L 6890,4524 7140,4524 7140,4274 6890,4274 Z"/>
 <path fill="rgb(0,69,134)" stroke="none" d="M 9916,5482 L 9916,5732 10166,5732 10166,5482 9916,5482 Z"/>
 <path fill="none" stroke="rgb(0,69,134)" stroke-linejoin="round" d="M 9916,5482 L 9916,5732 10166,5732 10166,5482 9916,5482 Z"/>
 <path fill="rgb(0,69,134)" stroke="none" d="M 12943,6139 L 12943,6389 13193,6389 13193,6139 12943,6139 Z"/>
 <path fill="none" stroke="rgb(0,69,134)" stroke-linejoin="round" d="M 12943,6139 L 12943,6389 13193,6389 13193,6139 12943,6139 Z"/>
 <text class="TextShape"><tspan class="TextParagraph" font-family="Liberation Sans, sans-serif" font-size="353px" font-weight="400"><tspan class="TextPosition" x="2381" y="9047"><tspan fill="rgb(0,0,0)" stroke="none">1</tspan></tspan></tspan></text>
 <text class="TextShape"><tspan class="TextParagraph" font-family="Liberation Sans, sans-serif" font-size="353px" font-weight="400"><tspan class="TextPosition" x="3750" y="9047"><tspan fill="rgb(0,0,0)" stroke="none">1.2</tspan></tspan></tspan></text>
 <text class="TextShape"><tspan class="TextParagraph" font-family="Liberation Sans, sans-serif" font-size="353px" font-weight="400"><tspan class="TextPosition" x="5263" y="9047"><tspan fill="rgb(0,0,0)" stroke="none">1.4</tspan></tspan></tspan></text>
 <text class="TextShape"><tspan class="TextParagraph" font-family="Liberation Sans, sans-serif" font-size="353px" font-weight="400"><tspan class="TextPosition" x="6777" y="9047"><tspan fill="rgb(0,0,0)" stroke="none">1.6</tspan></tspan></tspan></text>
 <text class="TextShape"><tspan class="TextParagraph" font-family="Liberation Sans, sans-serif" font-size="353px" font-weight="400"><tspan class="TextPosition" x="8290" y="9047"><tspan fill="rgb(0,0,0)" stroke="none">1.8</tspan></tspan></tspan></text>
 <text class="TextShape"><tspan class="TextParagraph" font-family="Liberation Sans, sans-serif" font-size="353px" font-weight="400"><tspan class="TextPosition" x="9949" y="9047"><tspan fill="rgb(0,0,0)" stroke="none">2</tspan></tspan></tspan></text>
 <text class="TextShape"><tspan class="TextParagraph" font-family="Liberation Sans, sans-serif" font-size="353px" font-weight="400"><tspan class="TextPosition" x="11317" y="9047"><tspan fill="rgb(0,0,0)" stroke="none">2.2</tspan></tspan></tspan></text>
 <text class="TextShape"><tspan class="TextParagraph" font-family="Liberation Sans, sans-serif" font-size="353px" font-weight="400"><tspan class="TextPosition" x="12831" y="9047"><tspan fill="rgb(0,0,0)" stroke="none">2.4</tspan></tspan></tspan></text>
 <text class="TextShape"><tspan class="TextParagraph" font-family="Liberation Sans, sans-serif" font-size="353px" font-weight="400"><tspan class="TextPosition" x="14344" y="9047"><tspan fill="rgb(0,0,0)" stroke="none">2.6</tspan></tspan></tspan></text>
 <text class="TextShape"><tspan class="TextParagraph" font-family="Liberation Sans, sans-serif" font-size="353px" font-weight="400"><tspan class="TextPosition" x="1377" y="8639"><tspan fill="rgb(0,0,0)" stroke="none">4.300</tspan></tspan></tspan></text>
 <text class="TextShape"><tspan class="TextParagraph" font-family="Liberation Sans, sans-serif" font-size="353px" font-weight="400"><tspan class="TextPosition" x="1377" y="7631"><tspan fill="rgb(0,0,0)" stroke="none">4.400</tspan></tspan></tspan></text>
 <text class="TextShape"><tspan class="TextParagraph" font-family="Liberation Sans, sans-serif" font-size="353px" font-weight="400"><tspan class="TextPosition" x="1377" y="6623"><tspan fill="rgb(0,0,0)" stroke="none">4.500</tspan></tspan></tspan></text>
 <text class="TextShape"><tspan class="TextParagraph" font-family="Liberation Sans, sans-serif" font-size="353px" font-weight="400"><tspan class="TextPosition" x="1377" y="5615"><tspan fill="rgb(0,0,0)" stroke="none">4.600</tspan></tspan></tspan></text>
 <text class="TextShape"><tspan class="TextParagraph" font-family="Liberation Sans, sans-serif" font-size="353px" font-weight="400"><tspan class="TextPosition" x="1377" y="4607"><tspan fill="rgb(0,0,0)" stroke="none">4.700</tspan></tspan></tspan></text>
 <text class="TextShape"><tspan class="TextParagraph" font-family="Liberation Sans, sans-serif" font-size="353px" font-weight="400"><tspan class="TextPosition" x="1377" y="3599"><tspan fill="rgb(0,0,0)" stroke="none">4.800</tspan></tspan></tspan></text>
 <text class="TextShape"><tspan class="TextParagraph" font-family="Liberation Sans, sans-serif" font-size="353px" font-weight="400"><tspan class="TextPosition" x="1377" y="2591"><tspan fill="rgb(0,0,0)" stroke="none">4.900</tspan></tspan></tspan></text>
 <text class="TextShape"><tspan class="TextParagraph" font-family="Liberation Sans, sans-serif" font-size="353px" font-weight="400"><tspan class="TextPosition" x="1377" y="1584"><tspan fill="rgb(0,0,0)" stroke="none">5.000</tspan></tspan></tspan></text>
 <text class="TextShape"><tspan class="TextParagraph" font-family="Liberation Sans, sans-serif" font-size="459px" font-weight="400"><tspan class="TextPosition" x="4871" y="901"><tspan fill="rgb(0,0,0)" stroke="none">Mean Power of the last turn</tspan></tspan></tspan></text>
 <text class="TextShape"><tspan class="TextParagraph" font-family="Liberation Sans, sans-serif" font-size="318px" font-weight="400"><tspan class="TextPosition" x="6577" y="9665"><tspan fill="rgb(0,0,0)" stroke="none">Length of the domain</tspan></tspan></tspan></text>
 <text class="TextShape" transform="translate(897,5964) rotate(-90) translate(-897,-5964)"><tspan class="TextParagraph" font-family="Liberation Sans, sans-serif" font-size="318px" font-weight="400"><tspan class="TextPosition" x="897" y="5964"><tspan fill="rgb(0,0,0)" stroke="none">Power [W]</tspan></tspan></tspan></text>
</svg>