<?xml version="1.0" encoding="UTF-8"?>
<!DOCTYPE svg PUBLIC "-//W3C//DTD SVG 1.1//EN" "http://www.w3.org/Graphics/SVG/1.1/DTD/svg11.dtd">
<svg width="254mm" height="127mm" viewBox="0 0 25400 12700" version="1.1" xmlns="http://www.w3.org/2000/svg" stroke-width="28.222" stroke-linejoin="round" xml:space="preserve">
 <path fill="rgb(255,255,255)" stroke="none" d="M 12636,12806 L -64,12806 -64,106 25336,106 25336,12806 12636,12806 Z"/>
 <path fill="none" stroke="rgb(179,179,179)" stroke-linejoin="round" d="M 13117,7701 L 2581,7701 2581,1447 23653,1447 23653,7701 13117,7701 Z"/>
 <path fill="none" stroke="rgb(179,179,179)" stroke-linejoin="round" d="M 23652,7700 L 2581,7700"/>
 <path fill="none" stroke="rgb(179,179,179)" stroke-linejoin="round" d="M 23652,6806 L 2581,6806"/>
 <path fill="none" stroke="rgb(179,179,179)" stroke-linejoin="round" d="M 23652,5913 L 2581,5913"/>
 <path fill="none" stroke="rgb(179,179,179)" stroke-linejoin="round" d="M 23652,5020 L 2581,5020"/>
 <path fill="none" stroke="rgb(179,179,179)" stroke-linejoin="round" d="M 23652,4126 L 2581,4126"/>
 <path fill="none" stroke="rgb(179,179,179)" stroke-linejoin="round" d="M 23652,3233 L 2581,3233"/>
 <path fill="none" stroke="rgb(179,179,179)" stroke-linejoin="round" d="M 23652,2339 L 2581,2339"/>
 <path fill="none" stroke="rgb(179,179,179)" stroke-linejoin="round" d="M 23652,1446 L 2581,1446"/>
 <path fill="none" stroke="rgb(179,179,179)" stroke-linejoin="round" d="M 2581,7850 L 2581,7700"/>
 <path fill="none" stroke="rgb(179,179,179)" stroke-linejoin="round" d="M 2581,7850 L 2581,7700"/>
 <path fill="none" stroke="rgb(179,179,179)" stroke-linejoin="round" d="M 3820,7850 L 3820,7700"/>
 <path fill="none" stroke="rgb(179,179,179)" stroke-linejoin="round" d="M 3820,7850 L 3820,7700"/>
 <path fill="none" stroke="rgb(179,179,179)" stroke-linejoin="round" d="M 5060,7850 L 5060,7700"/>
 <path fill="none" stroke="rgb(179,179,179)" stroke-linejoin="round" d="M 5060,7850 L 5060,7700"/>
 <path fill="none" stroke="rgb(179,179,179)" stroke-linejoin="round" d="M 6299,7850 L 6299,7700"/>
 <path fill="none" stroke="rgb(179,179,179)" stroke-linejoin="round" d="M 6299,7850 L 6299,7700"/>
 <path fill="none" stroke="rgb(179,179,179)" stroke-linejoin="round" d="M 7539,7850 L 7539,7700"/>
 <path fill="none" stroke="rgb(179,179,179)" stroke-linejoin="round" d="M 7539,7850 L 7539,7700"/>
 <path fill="none" stroke="rgb(179,179,179)" stroke-linejoin="round" d="M 8778,7850 L 8778,7700"/>
 <path fill="none" stroke="rgb(179,179,179)" stroke-linejoin="round" d="M 8778,7850 L 8778,7700"/>
 <path fill="none" stroke="rgb(179,179,179)" stroke-linejoin="round" d="M 10018,7850 L 10018,7700"/>
 <path fill="none" stroke="rgb(179,179,179)" stroke-linejoin="round" d="M 10018,7850 L 10018,7700"/>
 <path fill="none" stroke="rgb(179,179,179)" stroke-linejoin="round" d="M 11258,7850 L 11258,7700"/>
 <path fill="none" stroke="rgb(179,179,179)" stroke-linejoin="round" d="M 11258,7850 L 11258,7700"/>
 <path fill="none" stroke="rgb(179,179,179)" stroke-linejoin="round" d="M 12497,7850 L 12497,7700"/>
 <path fill="none" stroke="rgb(179,179,179)" stroke-linejoin="round" d="M 12497,7850 L 12497,7700"/>
 <path fill="none" stroke="rgb(179,179,179)" stroke-linejoin="round" d="M 13736,7850 L 13736,7700"/>
 <path fill="none" stroke="rgb(179,179,179)" stroke-linejoin="round" d="M 13736,7850 L 13736,7700"/>
 <path fill="none" stroke="rgb(179,179,179)" stroke-linejoin="round" d="M 14975,7850 L 14975,7700"/>
 <path fill="none" stroke="rgb(179,179,179)" stroke-linejoin="round" d="M 14975,7850 L 14975,7700"/>
 <path fill="none" stroke="rgb(179,179,179)" stroke-linejoin="round" d="M 16215,7850 L 16215,7700"/>
 <path fill="none" stroke="rgb(179,179,179)" stroke-linejoin="round" d="M 16215,7850 L 16215,7700"/>
 <path fill="none" stroke="rgb(179,179,179)" stroke-linejoin="round" d="M 17455,7850 L 17455,7700"/>
 <path fill="none" stroke="rgb(179,179,179)" stroke-linejoin="round" d="M 17455,7850 L 17455,7700"/>
 <path fill="none" stroke="rgb(179,179,179)" stroke-linejoin="round" d="M 18694,7850 L 18694,7700"/>
 <path fill="none" stroke="rgb(179,179,179)" stroke-linejoin="round" d="M 18694,7850 L 18694,7700"/>
 <path fill="none" stroke="rgb(179,179,179)" stroke-linejoin="round" d="M 19934,7850 L 19934,7700"/>
 <path fill="none" stroke="rgb(179,179,179)" stroke-linejoin="round" d="M 19934,7850 L 19934,7700"/>
 <path fill="none" stroke="rgb(179,179,179)" stroke-linejoin="round" d="M 21173,7850 L 21173,7700"/>
 <path fill="none" stroke="rgb(179,179,179)" stroke-linejoin="round" d="M 21173,7850 L 21173,7700"/>
 <path fill="none" stroke="rgb(179,179,179)" stroke-linejoin="round" d="M 22413,7850 L 22413,7700"/>
 <path fill="none" stroke="rgb(179,179,179)" stroke-linejoin="round" d="M 22413,7850 L 22413,7700"/>
 <path fill="none" stroke="rgb(179,179,179)" stroke-linejoin="round" d="M 23652,7850 L 23652,7700"/>
 <path fill="none" stroke="rgb(179,179,179)" stroke-linejoin="round" d="M 23652,7850 L 23652,7700"/>
 <path fill="none" stroke="rgb(179,179,179)" stroke-linejoin="round" d="M 2581,7700 L 23652,7700"/>
 <path fill="none" stroke="rgb(179,179,179)" stroke-linejoin="round" d="M 2431,7700 L 2581,7700"/>
 <path fill="none" stroke="rgb(179,179,179)" stroke-linejoin="round" d="M 2431,7700 L 2581,7700"/>
 <path fill="none" stroke="rgb(179,179,179)" stroke-linejoin="round" d="M 2431,6806 L 2581,6806"/>
 <path fill="none" stroke="rgb(179,179,179)" stroke-linejoin="round" d="M 2431,6806 L 2581,6806"/>
 <path fill="none" stroke="rgb(179,179,179)" stroke-linejoin="round" d="M 2431,5913 L 2581,5913"/>
 <path fill="none" stroke="rgb(179,179,179)" stroke-linejoin="round" d="M 2431,5913 L 2581,5913"/>
 <path fill="none" stroke="rgb(179,179,179)" stroke-linejoin="round" d="M 2431,5020 L 2581,5020"/>
 <path fill="none" stroke="rgb(179,179,179)" stroke-linejoin="round" d="M 2431,5020 L 2581,5020"/>
 <path fill="none" stroke="rgb(179,179,179)" stroke-linejoin="round" d="M 2431,4126 L 2581,4126"/>
 <path fill="none" stroke="rgb(179,179,179)" stroke-linejoin="round" d="M 2431,4126 L 2581,4126"/>
 <path fill="none" stroke="rgb(179,179,179)" stroke-linejoin="round" d="M 2431,3233 L 2581,3233"/>
 <path fill="none" stroke="rgb(179,179,179)" stroke-linejoin="round" d="M 2431,3233 L 2581,3233"/>
 <path fill="none" stroke="rgb(179,179,179)" stroke-linejoin="round" d="M 2431,2339 L 2581,2339"/>
 <path fill="none" stroke="rgb(179,179,179)" stroke-linejoin="round" d="M 2431,2339 L 2581,2339"/>
 <path fill="none" stroke="rgb(179,179,179)" stroke-linejoin="round" d="M 2431,1446 L 2581,1446"/>
 <path fill="none" stroke="rgb(179,179,179)" stroke-linejoin="round" d="M 2431,1446 L 2581,1446"/>
 <path fill="none" stroke="rgb(179,179,179)" stroke-linejoin="round" d="M 2581,7700 L 2581,1446"/>
 <path fill="none" stroke="rgb(179,179,179)" stroke-linejoin="round" d="M 23802,1446 L 23652,1446"/>
 <path fill="none" stroke="rgb(179,179,179)" stroke-linejoin="round" d="M 23802,1446 L 23652,1446"/>
 <path fill="none" stroke="rgb(179,179,179)" stroke-linejoin="round" d="M 23802,2141 L 23652,2141"/>
 <path fill="none" stroke="rgb(179,179,179)" stroke-linejoin="round" d="M 23802,2141 L 23652,2141"/>
 <path fill="none" stroke="rgb(179,179,179)" stroke-linejoin="round" d="M 23802,2836 L 23652,2836"/>
 <path fill="none" stroke="rgb(179,179,179)" stroke-linejoin="round" d="M 23802,2836 L 23652,2836"/>
 <path fill="none" stroke="rgb(179,179,179)" stroke-linejoin="round" d="M 23802,3531 L 23652,3531"/>
 <path fill="none" stroke="rgb(179,179,179)" stroke-linejoin="round" d="M 23802,3531 L 23652,3531"/>
 <path fill="none" stroke="rgb(179,179,179)" stroke-linejoin="round" d="M 23802,4226 L 23652,4226"/>
 <path fill="none" stroke="rgb(179,179,179)" stroke-linejoin="round" d="M 23802,4226 L 23652,4226"/>
 <path fill="none" stroke="rgb(179,179,179)" stroke-linejoin="round" d="M 23802,4921 L 23652,4921"/>
 <path fill="none" stroke="rgb(179,179,179)" stroke-linejoin="round" d="M 23802,4921 L 23652,4921"/>
 <path fill="none" stroke="rgb(179,179,179)" stroke-linejoin="round" d="M 23802,5616 L 23652,5616"/>
 <path fill="none" stroke="rgb(179,179,179)" stroke-linejoin="round" d="M 23802,5616 L 23652,5616"/>
 <path fill="none" stroke="rgb(179,179,179)" stroke-linejoin="round" d="M 23802,6311 L 23652,6311"/>
 <path fill="none" stroke="rgb(179,179,179)" stroke-linejoin="round" d="M 23802,6311 L 23652,6311"/>
 <path fill="none" stroke="rgb(179,179,179)" stroke-linejoin="round" d="M 23802,7005 L 23652,7005"/>
 <path fill="none" stroke="rgb(179,179,179)" stroke-linejoin="round" d="M 23802,7005 L 23652,7005"/>
 <path fill="none" stroke="rgb(179,179,179)" stroke-linejoin="round" d="M 23802,7700 L 23652,7700"/>
 <path fill="none" stroke="rgb(179,179,179)" stroke-linejoin="round" d="M 23802,7700 L 23652,7700"/>
 <path fill="none" stroke="rgb(179,179,179)" stroke-linejoin="round" d="M 23652,7700 L 23652,1446"/>
 <path fill="rgb(0,69,134)" stroke="none" d="M 7694,7700 L 8004,7700 8004,2714 7694,2714 7694,7700 Z"/>
 <path fill="rgb(0,69,134)" stroke="none" d="M 5215,7700 L 5525,7700 5525,2542 5215,2542 5215,7700 Z"/>
 <path fill="rgb(0,69,134)" stroke="none" d="M 3975,7700 L 4285,7700 4285,2714 3975,2714 3975,7700 Z"/>
 <path fill="rgb(0,69,134)" stroke="none" d="M 2735,7700 L 3045,7700 3045,5257 2735,5257 2735,7700 Z"/>
 <path fill="rgb(245,130,32)" stroke="none" d="M 8004,7700 L 8314,7700 8314,2130 8004,2130 8004,7700 Z"/>
 <path fill="rgb(245,130,32)" stroke="none" d="M 5525,7700 L 5834,7700 5834,1937 5525,1937 5525,7700 Z"/>
 <path fill="rgb(245,130,32)" stroke="none" d="M 4285,7700 L 4595,7700 4595,2130 4285,2130 4285,7700 Z"/>
 <path fill="rgb(245,130,32)" stroke="none" d="M 3045,7700 L 3355,7700 3355,4550 3045,4550 3045,7700 Z"/>
 <path fill="rgb(78,154,6)" stroke="none" d="M 8314,3160 L 8623,3160 8623,7700 8314,7700 8314,3160 Z"/>
 <path fill="rgb(78,154,6)" stroke="none" d="M 5834,2994 L 6144,2994 6144,7700 5834,7700 5834,2994 Z"/>
 <path fill="rgb(78,154,6)" stroke="none" d="M 4595,3160 L 4905,3160 4905,7700 4595,7700 4595,3160 Z"/>
 <path fill="rgb(78,154,6)" stroke="none" d="M 3355,2204 L 3665,2204 3665,7700 3355,7700 3355,2204 Z"/>
 <text class="TextShape" transform="translate(1721,9652) rotate(-44.9) translate(-1721,-9652)"><tspan class="TextParagraph" font-family="Liberation Sans, sans-serif" font-size="353px" font-weight="400"><tspan class="TextPosition" x="1721" y="9652"><tspan fill="rgb(0,0,0)" stroke="none">Gauss upwind</tspan></tspan></tspan></text>
 <text class="TextShape" transform="translate(1483,11130) rotate(-44.9) translate(-1483,-11130)"><tspan class="TextParagraph" font-family="Liberation Sans, sans-serif" font-size="353px" font-weight="400"><tspan class="TextPosition" x="1483" y="11130"><tspan fill="rgb(0,0,0)" stroke="none">Gauss linearUpwind grad(U)</tspan></tspan></tspan></text>
 <text class="TextShape" transform="translate(2554,11298) rotate(-44.9) translate(-2554,-11298)"><tspan class="TextParagraph" font-family="Liberation Sans, sans-serif" font-size="353px" font-weight="400"><tspan class="TextPosition" x="2554" y="11298"><tspan fill="rgb(0,0,0)" stroke="none">Gauss linearUpwindV grad(U)</tspan></tspan></tspan></text>
 <text class="TextShape" transform="translate(5607,9484) rotate(-44.9) translate(-5607,-9484)"><tspan class="TextParagraph" font-family="Liberation Sans, sans-serif" font-size="353px" font-weight="400"><tspan class="TextPosition" x="5607" y="9484"><tspan fill="rgb(0,0,0)" stroke="none">Gauss linear</tspan></tspan></tspan></text>
 <text class="TextShape" transform="translate(5238,11094) rotate(-44.9) translate(-5238,-11094)"><tspan class="TextParagraph" font-family="Liberation Sans, sans-serif" font-size="353px" font-weight="400"><tspan class="TextPosition" x="5238" y="11094"><tspan fill="rgb(0,0,0)" stroke="none">Gauss linear upwind limited</tspan></tspan></tspan></text>
 <text class="TextShape" transform="translate(8086,9484) rotate(-44.9) translate(-8086,-9484)"><tspan class="TextParagraph" font-family="Liberation Sans, sans-serif" font-size="353px" font-weight="400"><tspan class="TextPosition" x="8086" y="9484"><tspan fill="rgb(0,0,0)" stroke="none">Gauss cubic</tspan></tspan></tspan></text>
 <text class="TextShape" transform="translate(7380,11430) rotate(-44.9) translate(-7380,-11430)"><tspan class="TextParagraph" font-family="Liberation Sans, sans-serif" font-size="353px" font-weight="400"><tspan class="TextPosition" x="7380" y="11430"><tspan fill="rgb(0,0,0)" stroke="none">Gauss LUST unlimited grad(U)</tspan></tspan></tspan></text>
 <text class="TextShape" transform="translate(9817,10232) rotate(-44.9) translate(-9817,-10232)"><tspan class="TextParagraph" font-family="Liberation Sans, sans-serif" font-size="353px" font-weight="400"><tspan class="TextPosition" x="9817" y="10232"><tspan fill="rgb(0,0,0)" stroke="none">Gauss Lust grad(U)</tspan></tspan></tspan></text>
 <text class="TextShape" transform="translate(9616,11674) rotate(-44.9) translate(-9616,-11674)"><tspan class="TextParagraph" font-family="Liberation Sans, sans-serif" font-size="353px" font-weight="400"><tspan class="TextPosition" x="9616" y="11674"><tspan fill="rgb(0,0,0)" stroke="none">bounded Gauss limited linear 0,2</tspan></tspan></tspan></text>
 <text class="TextShape" transform="translate(12165,10364) rotate(-44.9) translate(-12165,-10364)"><tspan class="TextParagraph" font-family="Liberation Sans, sans-serif" font-size="353px" font-weight="400"><tspan class="TextPosition" x="12165" y="10364"><tspan fill="rgb(0,0,0)" stroke="none">bounded gauss lnear</tspan></tspan></tspan></text>
 <text class="TextShape" transform="translate(12058,11710) rotate(-44.9) translate(-12058,-11710)"><tspan class="TextParagraph" font-family="Liberation Sans, sans-serif" font-size="353px" font-weight="400"><tspan class="TextPosition" x="12058" y="11710"><tspan fill="rgb(0,0,0)" stroke="none">bounded Gauss limited linear V 1</tspan></tspan></tspan></text>
 <text class="TextShape" transform="translate(14364,10644) rotate(-44.9) translate(-14364,-10644)"><tspan class="TextParagraph" font-family="Liberation Sans, sans-serif" font-size="353px" font-weight="400"><tspan class="TextPosition" x="14364" y="10644"><tspan fill="rgb(0,0,0)" stroke="none">bounded Gauss upwind</tspan></tspan></tspan></text>
 <text class="TextShape" transform="translate(14406,11842) rotate(-44.9) translate(-14406,-11842)"><tspan class="TextParagraph" font-family="Liberation Sans, sans-serif" font-size="353px" font-weight="400"><tspan class="TextPosition" x="14406" y="11842"><tspan fill="rgb(0,0,0)" stroke="none">bounded Gauss linear upwind grad</tspan></tspan></tspan></text>
 <text class="TextShape" transform="translate(15403,12084) rotate(-44.9) translate(-15403,-12084)"><tspan class="TextParagraph" font-family="Liberation Sans, sans-serif" font-size="353px" font-weight="400"><tspan class="TextPosition" x="15403" y="12084"><tspan fill="rgb(0,0,0)" stroke="none">bounded Gauss linear upwind limited</tspan></tspan></tspan></text>
 <text class="TextShape" transform="translate(16381,12346) rotate(-44.9) translate(-16381,-12346)"><tspan class="TextParagraph" font-family="Liberation Sans, sans-serif" font-size="353px" font-weight="400"><tspan class="TextPosition" x="16381" y="12346"><tspan fill="rgb(0,0,0)" stroke="none">bounded Gauss linear upwind unlimited</tspan></tspan></tspan></text>
 <text class="TextShape" transform="translate(17563,12403) rotate(-44.9) translate(-17563,-12403)"><tspan class="TextParagraph" font-family="Liberation Sans, sans-serif" font-size="353px" font-weight="400"><tspan class="TextPosition" x="17563" y="12403"><tspan fill="rgb(0,0,0)" stroke="none">bounded Gauss linear upwind V grad(U)</tspan></tspan></tspan></text>
 <text class="TextShape" transform="translate(21274,9932) rotate(-44.9) translate(-21274,-9932)"><tspan class="TextParagraph" font-family="Liberation Sans, sans-serif" font-size="353px" font-weight="400"><tspan class="TextPosition" x="21274" y="9932"><tspan fill="rgb(0,0,0)" stroke="none">Gauss vanLeerV</tspan></tspan></tspan></text>
 <text class="TextShape"><tspan class="TextParagraph" font-family="Liberation Sans, sans-serif" font-size="353px" font-weight="400"><tspan class="TextPosition" x="1855" y="7780"><tspan fill="rgb(0,0,0)" stroke="none">4.4</tspan></tspan></tspan></text>
 <text class="TextShape"><tspan class="TextParagraph" font-family="Liberation Sans, sans-serif" font-size="353px" font-weight="400"><tspan class="TextPosition" x="1855" y="6886"><tspan fill="rgb(0,0,0)" stroke="none">4.6</tspan></tspan></tspan></text>
 <text class="TextShape"><tspan class="TextParagraph" font-family="Liberation Sans, sans-serif" font-size="353px" font-weight="400"><tspan class="TextPosition" x="1855" y="5992"><tspan fill="rgb(0,0,0)" stroke="none">4.8</tspan></tspan></tspan></text>
 <text class="TextShape"><tspan class="TextParagraph" font-family="Liberation Sans, sans-serif" font-size="353px" font-weight="400"><tspan class="TextPosition" x="2146" y="5099"><tspan fill="rgb(0,0,0)" stroke="none">5</tspan></tspan></tspan></text>
 <text class="TextShape"><tspan class="TextParagraph" font-family="Liberation Sans, sans-serif" font-size="353px" font-weight="400"><tspan class="TextPosition" x="1855" y="4205"><tspan fill="rgb(0,0,0)" stroke="none">5.2</tspan></tspan></tspan></text>
 <text class="TextShape"><tspan class="TextParagraph" font-family="Liberation Sans, sans-serif" font-size="353px" font-weight="400"><tspan class="TextPosition" x="1855" y="3312"><tspan fill="rgb(0,0,0)" stroke="none">5.4</tspan></tspan></tspan></text>
 <text class="TextShape"><tspan class="TextParagraph" font-family="Liberation Sans, sans-serif" font-size="353px" font-weight="400"><tspan class="TextPosition" x="1855" y="2418"><tspan fill="rgb(0,0,0)" stroke="none">5.6</tspan></tspan></tspan></text>
 <text class="TextShape"><tspan class="TextParagraph" font-family="Liberation Sans, sans-serif" font-size="353px" font-weight="400"><tspan class="TextPosition" x="1855" y="1525"><tspan fill="rgb(0,0,0)" stroke="none">5.8</tspan></tspan></tspan></text>
 <text class="TextShape"><tspan class="TextParagraph" font-family="Liberation Sans, sans-serif" font-size="353px" font-weight="700"><tspan class="TextPosition" x="23902" y="1525"><tspan fill="rgb(64,121,39)" stroke="none">-0.18</tspan></tspan></tspan></text>
 <text class="TextShape"><tspan class="TextParagraph" font-family="Liberation Sans, sans-serif" font-size="353px" font-weight="700"><tspan class="TextPosition" x="23902" y="2220"><tspan fill="rgb(64,121,39)" stroke="none">-0.16</tspan></tspan></tspan></text>
 <text class="TextShape"><tspan class="TextParagraph" font-family="Liberation Sans, sans-serif" font-size="353px" font-weight="700"><tspan class="TextPosition" x="23902" y="2915"><tspan fill="rgb(64,121,39)" stroke="none">-0.14</tspan></tspan></tspan></text>
 <text class="TextShape"><tspan class="TextParagraph" font-family="Liberation Sans, sans-serif" font-size="353px" font-weight="700"><tspan class="TextPosition" x="23902" y="3610"><tspan fill="rgb(64,121,39)" stroke="none">-0.12</tspan></tspan></tspan></text>
 <text class="TextShape"><tspan class="TextParagraph" font-family="Liberation Sans, sans-serif" font-size="353px" font-weight="700"><tspan class="TextPosition" x="23902" y="4305"><tspan fill="rgb(64,121,39)" stroke="none">-0.1</tspan></tspan></tspan></text>
 <text class="TextShape"><tspan class="TextParagraph" font-family="Liberation Sans, sans-serif" font-size="353px" font-weight="700"><tspan class="TextPosition" x="23902" y="5000"><tspan fill="rgb(64,121,39)" stroke="none">-0.08</tspan></tspan></tspan></text>
 <text class="TextShape"><tspan class="TextParagraph" font-family="Liberation Sans, sans-serif" font-size="353px" font-weight="700"><tspan class="TextPosition" x="23902" y="5695"><tspan fill="rgb(64,121,39)" stroke="none">-0.06</tspan></tspan></tspan></text>
 <text class="TextShape"><tspan class="TextParagraph" font-family="Liberation Sans, sans-serif" font-size="353px" font-weight="700"><tspan class="TextPosition" x="23902" y="6390"><tspan fill="rgb(64,121,39)" stroke="none">-0.04</tspan></tspan></tspan></text>
 <text class="TextShape"><tspan class="TextParagraph" font-family="Liberation Sans, sans-serif" font-size="353px" font-weight="700"><tspan class="TextPosition" x="23902" y="7085"><tspan fill="rgb(64,121,39)" stroke="none">-0.02</tspan></tspan></tspan></text>
 <text class="TextShape"><tspan class="TextParagraph" font-family="Liberation Sans, sans-serif" font-size="353px" font-weight="700"><tspan class="TextPosition" x="23902" y="7780"><tspan fill="rgb(64,121,39)" stroke="none">0</tspan></tspan></tspan></text>
 <text class="TextShape"><tspan class="TextParagraph" font-family="Liberation Sans, sans-serif" font-size="459px" font-weight="400"><tspan class="TextPosition" x="10546" y="951"><tspan fill="rgb(0,0,0)" stroke="none">Divergence schemes</tspan></tspan></tspan></text>
 <path fill="rgb(0,69,134)" stroke="none" d="M 11528,2892 L 11423,2892 11423,2681 11634,2681 11634,2892 11528,2892 Z"/>
 <path fill="rgb(245,130,32)" stroke="none" d="M 16253,2892 L 16147,2892 16147,2681 16358,2681 16358,2892 16253,2892 Z"/>
 <path fill="rgb(78,154,6)" stroke="none" d="M 19179,2892 L 19073,2892 19073,2681 19284,2681 19284,2892 19179,2892 Z"/>
 <text class="TextShape"><tspan class="TextParagraph" font-family="Liberation Sans, sans-serif" font-size="353px" font-weight="400"><tspan class="TextPosition" x="11734" y="2865"><tspan fill="rgb(0,0,0)" stroke="none">Mean power of the last turn</tspan></tspan></tspan></text>
 <text class="TextShape"><tspan class="TextParagraph" font-family="Liberation Sans, sans-serif" font-size="353px" font-weight="400"><tspan class="TextPosition" x="16458" y="2865"><tspan fill="rgb(0,0,0)" stroke="none">Power pressure</tspan></tspan></tspan></text>
 <text class="TextShape"><tspan class="TextParagraph" font-family="Liberation Sans, sans-serif" font-size="353px" font-weight="400"><tspan class="TextPosition" x="19384" y="2865"><tspan fill="rgb(0,0,0)" stroke="none">Power shear stress</tspan></tspan></tspan></text>
 <text class="TextShape" transform="translate(1234,4816) rotate(-90) translate(-1234,-4816)"><tspan class="TextParagraph" font-family="Liberation Sans, sans-serif" font-size="318px" font-weight="400"><tspan class="TextPosition" x="1234" y="4816"><tspan fill="rgb(0,0,0)" stroke="none">Power [W]</tspan></tspan></tspan></text>
</svg>