<?xml version="1.0" encoding="UTF-8"?>
<!DOCTYPE svg PUBLIC "-//W3C//DTD SVG 1.1//EN" "http://www.w3.org/Graphics/SVG/1.1/DTD/svg11.dtd">
<svg width="152mm" height="102mm" viewBox="0 0 15200 10200" version="1.1" xmlns="http://www.w3.org/2000/svg" stroke-width="28.222" stroke-linejoin="round" xml:space="preserve">
 <path fill="rgb(255,255,255)" stroke="none" d="M 7554,10249 L -67,10249 -67,87 15175,87 15175,10249 7554,10249 Z"/>
 <path fill="none" stroke="rgb(179,179,179)" stroke-linejoin="round" d="M 7971,9321 L 2104,9321 2104,1657 13839,1657 13839,9321 7971,9321 Z"/>
 <path fill="none" stroke="rgb(179,179,179)" stroke-linejoin="round" d="M 13839,9320 L 2104,9320"/>
 <path fill="none" stroke="rgb(179,179,179)" stroke-linejoin="round" d="M 13839,8361 L 2104,8361"/>
 <path fill="none" stroke="rgb(179,179,179)" stroke-linejoin="round" d="M 13839,7403 L 2104,7403"/>
 <path fill="none" stroke="rgb(179,179,179)" stroke-linejoin="round" d="M 13839,6445 L 2104,6445"/>
 <path fill="none" stroke="rgb(179,179,179)" stroke-linejoin="round" d="M 13839,5487 L 2104,5487"/>
 <path fill="none" stroke="rgb(179,179,179)" stroke-linejoin="round" d="M 13839,4530 L 2104,4530"/>
 <path fill="none" stroke="rgb(179,179,179)" stroke-linejoin="round" d="M 13839,3572 L 2104,3572"/>
 <path fill="none" stroke="rgb(179,179,179)" stroke-linejoin="round" d="M 13839,2614 L 2104,2614"/>
 <path fill="none" stroke="rgb(179,179,179)" stroke-linejoin="round" d="M 13839,1655 L 2104,1655"/>
 <path fill="none" stroke="rgb(221,221,221)" stroke-linejoin="round" d="M 13839,8840 L 2104,8840"/>
 <path fill="none" stroke="rgb(221,221,221)" stroke-linejoin="round" d="M 13839,7882 L 2104,7882"/>
 <path fill="none" stroke="rgb(221,221,221)" stroke-linejoin="round" d="M 13839,6924 L 2104,6924"/>
 <path fill="none" stroke="rgb(221,221,221)" stroke-linejoin="round" d="M 13839,5966 L 2104,5966"/>
 <path fill="none" stroke="rgb(221,221,221)" stroke-linejoin="round" d="M 13839,5009 L 2104,5009"/>
 <path fill="none" stroke="rgb(221,221,221)" stroke-linejoin="round" d="M 13839,4051 L 2104,4051"/>
 <path fill="none" stroke="rgb(221,221,221)" stroke-linejoin="round" d="M 13839,3093 L 2104,3093"/>
 <path fill="none" stroke="rgb(221,221,221)" stroke-linejoin="round" d="M 13839,2135 L 2104,2135"/>
 <path fill="none" stroke="rgb(179,179,179)" stroke-linejoin="round" d="M 2104,9470 L 2104,9320"/>
 <path fill="none" stroke="rgb(179,179,179)" stroke-linejoin="round" d="M 2104,9470 L 2104,9320"/>
 <path fill="none" stroke="rgb(179,179,179)" stroke-linejoin="round" d="M 6016,9470 L 6016,9320"/>
 <path fill="none" stroke="rgb(179,179,179)" stroke-linejoin="round" d="M 6016,9470 L 6016,9320"/>
 <path fill="none" stroke="rgb(179,179,179)" stroke-linejoin="round" d="M 9927,9470 L 9927,9320"/>
 <path fill="none" stroke="rgb(179,179,179)" stroke-linejoin="round" d="M 9927,9470 L 9927,9320"/>
 <path fill="none" stroke="rgb(179,179,179)" stroke-linejoin="round" d="M 13839,9470 L 13839,9320"/>
 <path fill="none" stroke="rgb(179,179,179)" stroke-linejoin="round" d="M 13839,9470 L 13839,9320"/>
 <path fill="none" stroke="rgb(179,179,179)" stroke-linejoin="round" d="M 2104,9320 L 13839,9320"/>
 <path fill="none" stroke="rgb(179,179,179)" stroke-linejoin="round" d="M 1954,9320 L 2104,9320"/>
 <path fill="none" stroke="rgb(179,179,179)" stroke-linejoin="round" d="M 1954,9320 L 2104,9320"/>
 <path fill="none" stroke="rgb(179,179,179)" stroke-linejoin="round" d="M 1954,8361 L 2104,8361"/>
 <path fill="none" stroke="rgb(179,179,179)" stroke-linejoin="round" d="M 1954,8361 L 2104,8361"/>
 <path fill="none" stroke="rgb(179,179,179)" stroke-linejoin="round" d="M 1954,7403 L 2104,7403"/>
 <path fill="none" stroke="rgb(179,179,179)" stroke-linejoin="round" d="M 1954,7403 L 2104,7403"/>
 <path fill="none" stroke="rgb(179,179,179)" stroke-linejoin="round" d="M 1954,6445 L 2104,6445"/>
 <path fill="none" stroke="rgb(179,179,179)" stroke-linejoin="round" d="M 1954,6445 L 2104,6445"/>
 <path fill="none" stroke="rgb(179,179,179)" stroke-linejoin="round" d="M 1954,5487 L 2104,5487"/>
 <path fill="none" stroke="rgb(179,179,179)" stroke-linejoin="round" d="M 1954,5487 L 2104,5487"/>
 <path fill="none" stroke="rgb(179,179,179)" stroke-linejoin="round" d="M 1954,4530 L 2104,4530"/>
 <path fill="none" stroke="rgb(179,179,179)" stroke-linejoin="round" d="M 1954,4530 L 2104,4530"/>
 <path fill="none" stroke="rgb(179,179,179)" stroke-linejoin="round" d="M 1954,3572 L 2104,3572"/>
 <path fill="none" stroke="rgb(179,179,179)" stroke-linejoin="round" d="M 1954,3572 L 2104,3572"/>
 <path fill="none" stroke="rgb(179,179,179)" stroke-linejoin="round" d="M 1954,2614 L 2104,2614"/>
 <path fill="none" stroke="rgb(179,179,179)" stroke-linejoin="round" d="M 1954,2614 L 2104,2614"/>
 <path fill="none" stroke="rgb(179,179,179)" stroke-linejoin="round" d="M 1954,1655 L 2104,1655"/>
 <path fill="none" stroke="rgb(179,179,179)" stroke-linejoin="round" d="M 1954,1655 L 2104,1655"/>
 <path fill="none" stroke="rgb(179,179,179)" stroke-linejoin="round" d="M 2104,9320 L 2104,1656"/>
 <path fill="none" stroke="rgb(179,179,179)" stroke-linejoin="round" d="M 13989,1656 L 13839,1656"/>
 <path fill="none" stroke="rgb(179,179,179)" stroke-linejoin="round" d="M 13989,1656 L 13839,1656"/>
 <path fill="none" stroke="rgb(179,179,179)" stroke-linejoin="round" d="M 13989,2507 L 13839,2507"/>
 <path fill="none" stroke="rgb(179,179,179)" stroke-linejoin="round" d="M 13989,2507 L 13839,2507"/>
 <path fill="none" stroke="rgb(179,179,179)" stroke-linejoin="round" d="M 13989,3359 L 13839,3359"/>
 <path fill="none" stroke="rgb(179,179,179)" stroke-linejoin="round" d="M 13989,3359 L 13839,3359"/>
 <path fill="none" stroke="rgb(179,179,179)" stroke-linejoin="round" d="M 13989,4211 L 13839,4211"/>
 <path fill="none" stroke="rgb(179,179,179)" stroke-linejoin="round" d="M 13989,4211 L 13839,4211"/>
 <path fill="none" stroke="rgb(179,179,179)" stroke-linejoin="round" d="M 13989,5062 L 13839,5062"/>
 <path fill="none" stroke="rgb(179,179,179)" stroke-linejoin="round" d="M 13989,5062 L 13839,5062"/>
 <path fill="none" stroke="rgb(179,179,179)" stroke-linejoin="round" d="M 13989,5913 L 13839,5913"/>
 <path fill="none" stroke="rgb(179,179,179)" stroke-linejoin="round" d="M 13989,5913 L 13839,5913"/>
 <path fill="none" stroke="rgb(179,179,179)" stroke-linejoin="round" d="M 13989,6765 L 13839,6765"/>
 <path fill="none" stroke="rgb(179,179,179)" stroke-linejoin="round" d="M 13989,6765 L 13839,6765"/>
 <path fill="none" stroke="rgb(179,179,179)" stroke-linejoin="round" d="M 13989,7616 L 13839,7616"/>
 <path fill="none" stroke="rgb(179,179,179)" stroke-linejoin="round" d="M 13989,7616 L 13839,7616"/>
 <path fill="none" stroke="rgb(179,179,179)" stroke-linejoin="round" d="M 13989,8468 L 13839,8468"/>
 <path fill="none" stroke="rgb(179,179,179)" stroke-linejoin="round" d="M 13989,8468 L 13839,8468"/>
 <path fill="none" stroke="rgb(179,179,179)" stroke-linejoin="round" d="M 13989,9320 L 13839,9320"/>
 <path fill="none" stroke="rgb(179,179,179)" stroke-linejoin="round" d="M 13989,9320 L 13839,9320"/>
 <path fill="none" stroke="rgb(179,179,179)" stroke-linejoin="round" d="M 13839,9320 L 13839,1656"/>
 <path fill="rgb(0,69,134)" stroke="none" d="M 10416,9320 L 11394,9320 11394,5317 10416,5317 10416,9320 Z"/>
 <path fill="rgb(0,69,134)" stroke="none" d="M 2593,9320 L 3571,9320 3571,6505 2593,6505 2593,9320 Z"/>
 <path fill="rgb(245,130,32)" stroke="none" d="M 11394,9320 L 12372,9320 12372,2305 11394,2305 11394,9320 Z"/>
 <path fill="rgb(245,130,32)" stroke="none" d="M 3571,9320 L 4549,9320 4549,3475 3571,3475 3571,9320 Z"/>
 <path fill="rgb(78,154,6)" stroke="none" d="M 12372,2626 L 13350,2626 13350,9320 12372,9320 12372,2626 Z"/>
 <path fill="rgb(78,154,6)" stroke="none" d="M 4549,2585 L 5527,2585 5527,9320 4549,9320 4549,2585 Z"/>
 <text class="TextShape"><tspan class="TextParagraph" font-family="Liberation Sans, sans-serif" font-size="353px" font-weight="400"><tspan class="TextPosition" x="3094" y="9808"><tspan fill="rgb(0,0,0)" stroke="none">Gauss linear</tspan></tspan></tspan></text>
 <text class="TextShape"><tspan class="TextParagraph" font-family="Liberation Sans, sans-serif" font-size="353px" font-weight="400"><tspan class="TextPosition" x="7032" y="9808"><tspan fill="rgb(0,0,0)" stroke="none">Leastsquare</tspan></tspan></tspan></text>
 <text class="TextShape"><tspan class="TextParagraph" font-family="Liberation Sans, sans-serif" font-size="353px" font-weight="400"><tspan class="TextPosition" x="10918" y="9808"><tspan fill="rgb(0,0,0)" stroke="none">Gauss cubic</tspan></tspan></tspan></text>
 <text class="TextShape"><tspan class="TextParagraph" font-family="Liberation Sans, sans-serif" font-size="353px" font-weight="400"><tspan class="TextPosition" x="1378" y="9400"><tspan fill="rgb(0,0,0)" stroke="none">4.8</tspan></tspan></tspan></text>
 <text class="TextShape"><tspan class="TextParagraph" font-family="Liberation Sans, sans-serif" font-size="353px" font-weight="400"><tspan class="TextPosition" x="1193" y="8441"><tspan fill="rgb(0,0,0)" stroke="none">4.85</tspan></tspan></tspan></text>
 <text class="TextShape"><tspan class="TextParagraph" font-family="Liberation Sans, sans-serif" font-size="353px" font-weight="400"><tspan class="TextPosition" x="1378" y="7483"><tspan fill="rgb(0,0,0)" stroke="none">4.9</tspan></tspan></tspan></text>
 <text class="TextShape"><tspan class="TextParagraph" font-family="Liberation Sans, sans-serif" font-size="353px" font-weight="400"><tspan class="TextPosition" x="1193" y="6525"><tspan fill="rgb(0,0,0)" stroke="none">4.95</tspan></tspan></tspan></text>
 <text class="TextShape"><tspan class="TextParagraph" font-family="Liberation Sans, sans-serif" font-size="353px" font-weight="400"><tspan class="TextPosition" x="1669" y="5567"><tspan fill="rgb(0,0,0)" stroke="none">5</tspan></tspan></tspan></text>
 <text class="TextShape"><tspan class="TextParagraph" font-family="Liberation Sans, sans-serif" font-size="353px" font-weight="400"><tspan class="TextPosition" x="1193" y="4609"><tspan fill="rgb(0,0,0)" stroke="none">5.05</tspan></tspan></tspan></text>
 <text class="TextShape"><tspan class="TextParagraph" font-family="Liberation Sans, sans-serif" font-size="353px" font-weight="400"><tspan class="TextPosition" x="1378" y="3651"><tspan fill="rgb(0,0,0)" stroke="none">5.1</tspan></tspan></tspan></text>
 <text class="TextShape"><tspan class="TextParagraph" font-family="Liberation Sans, sans-serif" font-size="353px" font-weight="400"><tspan class="TextPosition" x="1193" y="2693"><tspan fill="rgb(0,0,0)" stroke="none">5.15</tspan></tspan></tspan></text>
 <text class="TextShape"><tspan class="TextParagraph" font-family="Liberation Sans, sans-serif" font-size="353px" font-weight="400"><tspan class="TextPosition" x="1378" y="1734"><tspan fill="rgb(0,0,0)" stroke="none">5.2</tspan></tspan></tspan></text>
 <text class="TextShape"><tspan class="TextParagraph" font-family="Liberation Sans, sans-serif" font-size="353px" font-weight="400"><tspan class="TextPosition" x="14089" y="1735"><tspan fill="rgb(64,121,39)" stroke="none">-0.18</tspan></tspan></tspan></text>
 <text class="TextShape"><tspan class="TextParagraph" font-family="Liberation Sans, sans-serif" font-size="353px" font-weight="400"><tspan class="TextPosition" x="14089" y="2586"><tspan fill="rgb(64,121,39)" stroke="none">-0.16</tspan></tspan></tspan></text>
 <text class="TextShape"><tspan class="TextParagraph" font-family="Liberation Sans, sans-serif" font-size="353px" font-weight="400"><tspan class="TextPosition" x="14089" y="3438"><tspan fill="rgb(64,121,39)" stroke="none">-0.14</tspan></tspan></tspan></text>
 <text class="TextShape"><tspan class="TextParagraph" font-family="Liberation Sans, sans-serif" font-size="353px" font-weight="400"><tspan class="TextPosition" x="14089" y="4290"><tspan fill="rgb(64,121,39)" stroke="none">-0.12</tspan></tspan></tspan></text>
 <text class="TextShape"><tspan class="TextParagraph" font-family="Liberation Sans, sans-serif" font-size="353px" font-weight="400"><tspan class="TextPosition" x="14089" y="5141"><tspan fill="rgb(64,121,39)" stroke="none">-0.1</tspan></tspan></tspan></text>
 <text class="TextShape"><tspan class="TextParagraph" font-family="Liberation Sans, sans-serif" font-size="353px" font-weight="400"><tspan class="TextPosition" x="14089" y="5993"><tspan fill="rgb(64,121,39)" stroke="none">-0.08</tspan></tspan></tspan></text>
 <text class="TextShape"><tspan class="TextParagraph" font-family="Liberation Sans, sans-serif" font-size="353px" font-weight="400"><tspan class="TextPosition" x="14089" y="6845"><tspan fill="rgb(64,121,39)" stroke="none">-0.06</tspan></tspan></tspan></text>
 <text class="TextShape"><tspan class="TextParagraph" font-family="Liberation Sans, sans-serif" font-size="353px" font-weight="400"><tspan class="TextPosition" x="14089" y="7696"><tspan fill="rgb(64,121,39)" stroke="none">-0.04</tspan></tspan></tspan></text>
 <text class="TextShape"><tspan class="TextParagraph" font-family="Liberation Sans, sans-serif" font-size="353px" font-weight="400"><tspan class="TextPosition" x="14089" y="8548"><tspan fill="rgb(64,121,39)" stroke="none">-0.02</tspan></tspan></tspan></text>
 <text class="TextShape"><tspan class="TextParagraph" font-family="Liberation Sans, sans-serif" font-size="353px" font-weight="400"><tspan class="TextPosition" x="14089" y="9400"><tspan fill="rgb(64,121,39)" stroke="none">0</tspan></tspan></tspan></text>
 <text class="TextShape"><tspan class="TextParagraph" font-family="Liberation Sans, sans-serif" font-size="459px" font-weight="400"><tspan class="TextPosition" x="5741" y="881"><tspan fill="rgb(0,0,0)" stroke="none">Gradient schemes</tspan></tspan></tspan></text>
 <path fill="rgb(255,255,255)" stroke="none" d="M 7881,1817 L 2301,1817 2301,1286 13461,1286 13461,1817 7881,1817 Z"/>
 <path fill="rgb(0,69,134)" stroke="none" d="M 2522,1657 L 2417,1657 2417,1446 2628,1446 2628,1657 2522,1657 Z"/>
 <path fill="rgb(245,130,32)" stroke="none" d="M 7247,1657 L 7142,1657 7142,1446 7353,1446 7353,1657 7247,1657 Z"/>
 <path fill="rgb(78,154,6)" stroke="none" d="M 10173,1657 L 10067,1657 10067,1446 10278,1446 10278,1657 10173,1657 Z"/>
 <text class="TextShape"><tspan class="TextParagraph" font-family="Liberation Sans, sans-serif" font-size="353px" font-weight="400"><tspan class="TextPosition" x="2728" y="1630"><tspan fill="rgb(0,0,0)" stroke="none">Mean power of the last turn</tspan></tspan></tspan></text>
 <text class="TextShape"><tspan class="TextParagraph" font-family="Liberation Sans, sans-serif" font-size="353px" font-weight="400"><tspan class="TextPosition" x="7453" y="1630"><tspan fill="rgb(0,0,0)" stroke="none">Power pressure</tspan></tspan></tspan></text>
 <text class="TextShape"><tspan class="TextParagraph" font-family="Liberation Sans, sans-serif" font-size="353px" font-weight="400"><tspan class="TextPosition" x="10378" y="1630"><tspan fill="rgb(0,0,0)" stroke="none">Power shear stress</tspan></tspan></tspan></text>
 <text class="TextShape" transform="translate(767,4598) rotate(-90) translate(-767,-4598)"><tspan class="TextParagraph" font-family="Liberation Sans, sans-serif" font-size="318px" font-weight="400"><tspan class="TextPosition" x="767" y="4598"><tspan fill="rgb(0,0,0)" stroke="none">Power [W]</tspan></tspan></tspan></text>
</svg>