<?xml version="1.0" encoding="UTF-8"?>
<!DOCTYPE svg PUBLIC "-//W3C//DTD SVG 1.1//EN" "http://www.w3.org/Graphics/SVG/1.1/DTD/svg11.dtd">
<svg width="180mm" height="89mm" viewBox="0 0 18000 8900" version="1.1" xmlns="http://www.w3.org/2000/svg" stroke-width="28.222" stroke-linejoin="round" xml:space="preserve">
 <path fill="rgb(255,255,255)" stroke="none" d="M 9020,9068 L 7,9068 7,136 18033,136 18033,9068 9020,9068 Z"/>
 <path fill="none" stroke="rgb(98,167,59)" stroke-linejoin="round" d="M 9007,8295 L 1700,8295 1700,1119 16314,1119 16314,8295 9007,8295 Z"/>
 <path fill="none" stroke="rgb(179,179,179)" stroke-linejoin="round" d="M 16314,8294 L 1700,8294"/>
 <path fill="none" stroke="rgb(179,179,179)" stroke-linejoin="round" d="M 16314,7097 L 1700,7097"/>
 <path fill="none" stroke="rgb(179,179,179)" stroke-linejoin="round" d="M 16314,5901 L 1700,5901"/>
 <path fill="none" stroke="rgb(179,179,179)" stroke-linejoin="round" d="M 16314,4705 L 1700,4705"/>
 <path fill="none" stroke="rgb(179,179,179)" stroke-linejoin="round" d="M 16314,3510 L 1700,3510"/>
 <path fill="none" stroke="rgb(179,179,179)" stroke-linejoin="round" d="M 16314,2314 L 1700,2314"/>
 <path fill="none" stroke="rgb(179,179,179)" stroke-linejoin="round" d="M 16314,1118 L 1700,1118"/>
 <path fill="none" stroke="rgb(179,179,179)" stroke-linejoin="round" d="M 1700,8444 L 1700,8294"/>
 <path fill="none" stroke="rgb(179,179,179)" stroke-linejoin="round" d="M 1700,8444 L 1700,8294"/>
 <path fill="none" stroke="rgb(179,179,179)" stroke-linejoin="round" d="M 5353,8444 L 5353,8294"/>
 <path fill="none" stroke="rgb(179,179,179)" stroke-linejoin="round" d="M 5353,8444 L 5353,8294"/>
 <path fill="none" stroke="rgb(179,179,179)" stroke-linejoin="round" d="M 9007,8444 L 9007,8294"/>
 <path fill="none" stroke="rgb(179,179,179)" stroke-linejoin="round" d="M 9007,8444 L 9007,8294"/>
 <path fill="none" stroke="rgb(179,179,179)" stroke-linejoin="round" d="M 12660,8444 L 12660,8294"/>
 <path fill="none" stroke="rgb(179,179,179)" stroke-linejoin="round" d="M 12660,8444 L 12660,8294"/>
 <path fill="none" stroke="rgb(179,179,179)" stroke-linejoin="round" d="M 16314,8444 L 16314,8294"/>
 <path fill="none" stroke="rgb(179,179,179)" stroke-linejoin="round" d="M 16314,8444 L 16314,8294"/>
 <path fill="none" stroke="rgb(179,179,179)" stroke-linejoin="round" d="M 1700,8294 L 16314,8294"/>
 <path fill="none" stroke="rgb(179,179,179)" stroke-linejoin="round" d="M 1550,8294 L 1700,8294"/>
 <path fill="none" stroke="rgb(179,179,179)" stroke-linejoin="round" d="M 1550,8294 L 1700,8294"/>
 <path fill="none" stroke="rgb(179,179,179)" stroke-linejoin="round" d="M 1550,7097 L 1700,7097"/>
 <path fill="none" stroke="rgb(179,179,179)" stroke-linejoin="round" d="M 1550,7097 L 1700,7097"/>
 <path fill="none" stroke="rgb(179,179,179)" stroke-linejoin="round" d="M 1550,5901 L 1700,5901"/>
 <path fill="none" stroke="rgb(179,179,179)" stroke-linejoin="round" d="M 1550,5901 L 1700,5901"/>
 <path fill="none" stroke="rgb(179,179,179)" stroke-linejoin="round" d="M 1550,4705 L 1700,4705"/>
 <path fill="none" stroke="rgb(179,179,179)" stroke-linejoin="round" d="M 1550,4705 L 1700,4705"/>
 <path fill="none" stroke="rgb(179,179,179)" stroke-linejoin="round" d="M 1550,3510 L 1700,3510"/>
 <path fill="none" stroke="rgb(179,179,179)" stroke-linejoin="round" d="M 1550,3510 L 1700,3510"/>
 <path fill="none" stroke="rgb(179,179,179)" stroke-linejoin="round" d="M 1550,2314 L 1700,2314"/>
 <path fill="none" stroke="rgb(179,179,179)" stroke-linejoin="round" d="M 1550,2314 L 1700,2314"/>
 <path fill="none" stroke="rgb(179,179,179)" stroke-linejoin="round" d="M 1550,1118 L 1700,1118"/>
 <path fill="none" stroke="rgb(179,179,179)" stroke-linejoin="round" d="M 1550,1118 L 1700,1118"/>
 <path fill="none" stroke="rgb(179,179,179)" stroke-linejoin="round" d="M 1700,8294 L 1700,1118"/>
 <path fill="none" stroke="rgb(43,81,26)" stroke-linejoin="round" d="M 16464,1118 L 16314,1118"/>
 <path fill="none" stroke="rgb(43,81,26)" stroke-linejoin="round" d="M 16464,1118 L 16314,1118"/>
 <path fill="none" stroke="rgb(43,81,26)" stroke-linejoin="round" d="M 16464,1915 L 16314,1915"/>
 <path fill="none" stroke="rgb(43,81,26)" stroke-linejoin="round" d="M 16464,1915 L 16314,1915"/>
 <path fill="none" stroke="rgb(43,81,26)" stroke-linejoin="round" d="M 16464,2712 L 16314,2712"/>
 <path fill="none" stroke="rgb(43,81,26)" stroke-linejoin="round" d="M 16464,2712 L 16314,2712"/>
 <path fill="none" stroke="rgb(43,81,26)" stroke-linejoin="round" d="M 16464,3510 L 16314,3510"/>
 <path fill="none" stroke="rgb(43,81,26)" stroke-linejoin="round" d="M 16464,3510 L 16314,3510"/>
 <path fill="none" stroke="rgb(43,81,26)" stroke-linejoin="round" d="M 16464,4307 L 16314,4307"/>
 <path fill="none" stroke="rgb(43,81,26)" stroke-linejoin="round" d="M 16464,4307 L 16314,4307"/>
 <path fill="none" stroke="rgb(43,81,26)" stroke-linejoin="round" d="M 16464,5104 L 16314,5104"/>
 <path fill="none" stroke="rgb(43,81,26)" stroke-linejoin="round" d="M 16464,5104 L 16314,5104"/>
 <path fill="none" stroke="rgb(43,81,26)" stroke-linejoin="round" d="M 16464,5901 L 16314,5901"/>
 <path fill="none" stroke="rgb(43,81,26)" stroke-linejoin="round" d="M 16464,5901 L 16314,5901"/>
 <path fill="none" stroke="rgb(43,81,26)" stroke-linejoin="round" d="M 16464,6699 L 16314,6699"/>
 <path fill="none" stroke="rgb(43,81,26)" stroke-linejoin="round" d="M 16464,6699 L 16314,6699"/>
 <path fill="none" stroke="rgb(43,81,26)" stroke-linejoin="round" d="M 16464,7496 L 16314,7496"/>
 <path fill="none" stroke="rgb(43,81,26)" stroke-linejoin="round" d="M 16464,7496 L 16314,7496"/>
 <path fill="none" stroke="rgb(43,81,26)" stroke-linejoin="round" d="M 16464,8294 L 16314,8294"/>
 <path fill="none" stroke="rgb(43,81,26)" stroke-linejoin="round" d="M 16464,8294 L 16314,8294"/>
 <path fill="none" stroke="rgb(43,81,26)" stroke-linejoin="round" d="M 16314,8294 L 16314,1118"/>
 <path fill="rgb(69,79,161)" stroke="none" d="M 13116,8294 L 14030,8294 14030,6172 13116,6172 13116,8294 Z"/>
 <path fill="rgb(69,79,161)" stroke="none" d="M 9463,8294 L 10376,8294 10376,5995 9463,5995 9463,8294 Z"/>
 <path fill="rgb(69,79,161)" stroke="none" d="M 5810,8294 L 6723,8294 6723,5991 5810,5991 5810,8294 Z"/>
 <path fill="rgb(69,79,161)" stroke="none" d="M 2156,8294 L 3070,8294 3070,5976 2156,5976 2156,8294 Z"/>
 <path fill="rgb(78,154,6)" stroke="none" d="M 14030,1991 L 14943,1991 14943,8294 14030,8294 14030,1991 Z"/>
 <path fill="rgb(78,154,6)" stroke="none" d="M 10376,1989 L 11290,1989 11290,8294 10376,8294 10376,1989 Z"/>
 <path fill="rgb(78,154,6)" stroke="none" d="M 6723,1989 L 7637,1989 7637,8294 6723,8294 6723,1989 Z"/>
 <path fill="rgb(78,154,6)" stroke="none" d="M 3070,1988 L 3983,1988 3983,8294 3070,8294 3070,1988 Z"/>
 <path fill="rgb(245,130,32)" stroke="none" d="M 14943,8294 L 15857,8294 15857,2390 14943,2390 14943,8294 Z"/>
 <path fill="rgb(245,130,32)" stroke="none" d="M 11290,8294 L 12203,8294 12203,2213 11290,2213 11290,8294 Z"/>
 <path fill="rgb(245,130,32)" stroke="none" d="M 7637,8294 L 8550,8294 8550,2208 7637,2208 7637,8294 Z"/>
 <path fill="rgb(245,130,32)" stroke="none" d="M 3983,8294 L 4897,8294 4897,2193 3983,2193 3983,8294 Z"/>
 <text class="TextShape"><tspan class="TextParagraph" font-family="Liberation Sans, sans-serif" font-size="353px" font-weight="400"><tspan class="TextPosition" x="2811" y="8782"><tspan fill="rgb(0,0,0)" stroke="none">corrected</tspan></tspan></tspan></text>
 <text class="TextShape"><tspan class="TextParagraph" font-family="Liberation Sans, sans-serif" font-size="353px" font-weight="400"><tspan class="TextPosition" x="5619" y="8782"><tspan fill="rgb(0,0,0)" stroke="none">limited corrected 0,5</tspan></tspan></tspan></text>
 <text class="TextShape"><tspan class="TextParagraph" font-family="Liberation Sans, sans-serif" font-size="353px" font-weight="400"><tspan class="TextPosition" x="9180" y="8782"><tspan fill="rgb(0,0,0)" stroke="none">limited corrected 0,33</tspan></tspan></tspan></text>
 <text class="TextShape"><tspan class="TextParagraph" font-family="Liberation Sans, sans-serif" font-size="353px" font-weight="400"><tspan class="TextPosition" x="13588" y="8782"><tspan fill="rgb(0,0,0)" stroke="none">uncorrected</tspan></tspan></tspan></text>
 <text class="TextShape"><tspan class="TextParagraph" font-family="Liberation Sans, sans-serif" font-size="353px" font-weight="400"><tspan class="TextPosition" x="789" y="8374"><tspan fill="rgb(0,0,0)" stroke="none">4.85</tspan></tspan></tspan></text>
 <text class="TextShape"><tspan class="TextParagraph" font-family="Liberation Sans, sans-serif" font-size="353px" font-weight="400"><tspan class="TextPosition" x="974" y="7177"><tspan fill="rgb(0,0,0)" stroke="none">4.9</tspan></tspan></tspan></text>
 <text class="TextShape"><tspan class="TextParagraph" font-family="Liberation Sans, sans-serif" font-size="353px" font-weight="400"><tspan class="TextPosition" x="789" y="5981"><tspan fill="rgb(0,0,0)" stroke="none">4.95</tspan></tspan></tspan></text>
 <text class="TextShape"><tspan class="TextParagraph" font-family="Liberation Sans, sans-serif" font-size="353px" font-weight="400"><tspan class="TextPosition" x="1265" y="4785"><tspan fill="rgb(0,0,0)" stroke="none">5</tspan></tspan></tspan></text>
 <text class="TextShape"><tspan class="TextParagraph" font-family="Liberation Sans, sans-serif" font-size="353px" font-weight="400"><tspan class="TextPosition" x="789" y="3589"><tspan fill="rgb(0,0,0)" stroke="none">5.05</tspan></tspan></tspan></text>
 <text class="TextShape"><tspan class="TextParagraph" font-family="Liberation Sans, sans-serif" font-size="353px" font-weight="400"><tspan class="TextPosition" x="974" y="2393"><tspan fill="rgb(0,0,0)" stroke="none">5.1</tspan></tspan></tspan></text>
 <text class="TextShape"><tspan class="TextParagraph" font-family="Liberation Sans, sans-serif" font-size="353px" font-weight="400"><tspan class="TextPosition" x="789" y="1197"><tspan fill="rgb(0,0,0)" stroke="none">5.15</tspan></tspan></tspan></text>
 <text class="TextShape"><tspan class="TextParagraph" font-family="Liberation Sans, sans-serif" font-size="353px" font-weight="700"><tspan class="TextPosition" x="16564" y="1197"><tspan fill="rgb(64,121,39)" stroke="none">-0.18</tspan></tspan></tspan></text>
 <text class="TextShape"><tspan class="TextParagraph" font-family="Liberation Sans, sans-serif" font-size="353px" font-weight="700"><tspan class="TextPosition" x="16564" y="1994"><tspan fill="rgb(64,121,39)" stroke="none">-0.16</tspan></tspan></tspan></text>
 <text class="TextShape"><tspan class="TextParagraph" font-family="Liberation Sans, sans-serif" font-size="353px" font-weight="700"><tspan class="TextPosition" x="16564" y="2791"><tspan fill="rgb(64,121,39)" stroke="none">-0.14</tspan></tspan></tspan></text>
 <text class="TextShape"><tspan class="TextParagraph" font-family="Liberation Sans, sans-serif" font-size="353px" font-weight="700"><tspan class="TextPosition" x="16564" y="3589"><tspan fill="rgb(64,121,39)" stroke="none">-0.12</tspan></tspan></tspan></text>
 <text class="TextShape"><tspan class="TextParagraph" font-family="Liberation Sans, sans-serif" font-size="353px" font-weight="700"><tspan class="TextPosition" x="16564" y="4386"><tspan fill="rgb(64,121,39)" stroke="none">-0.1</tspan></tspan></tspan></text>
 <text class="TextShape"><tspan class="TextParagraph" font-family="Liberation Sans, sans-serif" font-size="353px" font-weight="700"><tspan class="TextPosition" x="16564" y="5184"><tspan fill="rgb(64,121,39)" stroke="none">-0.08</tspan></tspan></tspan></text>
 <text class="TextShape"><tspan class="TextParagraph" font-family="Liberation Sans, sans-serif" font-size="353px" font-weight="700"><tspan class="TextPosition" x="16564" y="5981"><tspan fill="rgb(64,121,39)" stroke="none">-0.06</tspan></tspan></tspan></text>
 <text class="TextShape"><tspan class="TextParagraph" font-family="Liberation Sans, sans-serif" font-size="353px" font-weight="700"><tspan class="TextPosition" x="16564" y="6779"><tspan fill="rgb(64,121,39)" stroke="none">-0.04</tspan></tspan></tspan></text>
 <text class="TextShape"><tspan class="TextParagraph" font-family="Liberation Sans, sans-serif" font-size="353px" font-weight="700"><tspan class="TextPosition" x="16564" y="7576"><tspan fill="rgb(64,121,39)" stroke="none">-0.02</tspan></tspan></tspan></text>
 <text class="TextShape"><tspan class="TextParagraph" font-family="Liberation Sans, sans-serif" font-size="353px" font-weight="700"><tspan class="TextPosition" x="16564" y="8374"><tspan fill="rgb(64,121,39)" stroke="none">0</tspan></tspan></tspan></text>
 <text class="TextShape"><tspan class="TextParagraph" font-family="Liberation Sans, sans-serif" font-size="459px" font-weight="400"><tspan class="TextPosition" x="6983" y="686"><tspan fill="rgb(0,0,0)" stroke="none">Laplacian schemes</tspan></tspan></tspan></text>
 <path fill="rgb(69,79,161)" stroke="none" d="M 2484,1478 L 2379,1478 2379,1267 2590,1267 2590,1478 2484,1478 Z"/>
 <path fill="rgb(78,154,6)" stroke="none" d="M 8371,1478 L 8266,1478 8266,1267 8477,1267 8477,1478 8371,1478 Z"/>
 <path fill="rgb(245,130,32)" stroke="none" d="M 12935,1478 L 12829,1478 12829,1267 13040,1267 13040,1478 12935,1478 Z"/>
 <text class="TextShape"><tspan class="TextParagraph" font-family="Liberation Sans, sans-serif" font-size="353px" font-weight="400"><tspan class="TextPosition" x="2690" y="1451"><tspan fill="rgb(0,0,0)" stroke="none"> </tspan><tspan fill="rgb(0,0,0)" stroke="none">Mean power of the last turn</tspan></tspan></tspan></text>
 <text class="TextShape"><tspan class="TextParagraph" font-family="Liberation Sans, sans-serif" font-size="353px" font-weight="400"><tspan class="TextPosition" x="8577" y="1451"><tspan fill="rgb(0,0,0)" stroke="none">Power shear stress</tspan></tspan></tspan></text>
 <text class="TextShape"><tspan class="TextParagraph" font-family="Liberation Sans, sans-serif" font-size="353px" font-weight="400"><tspan class="TextPosition" x="13140" y="1451"><tspan fill="rgb(0,0,0)" stroke="none">Power pressure</tspan></tspan></tspan></text>
 <text class="TextShape" transform="translate(567,4541) rotate(-90) translate(-567,-4541)"><tspan class="TextParagraph" font-family="Liberation Sans, sans-serif" font-size="318px" font-weight="400"><tspan class="TextPosition" x="567" y="4541"><tspan fill="rgb(0,0,0)" stroke="none">Power [W]</tspan></tspan></tspan></text>
</svg>