<?xml version="1.0" encoding="UTF-8"?>
<!DOCTYPE svg PUBLIC "-//W3C//DTD SVG 1.1//EN" "http://www.w3.org/Graphics/SVG/1.1/DTD/svg11.dtd">
<svg width="254mm" height="102mm" viewBox="0 0 25400 10200" version="1.1" xmlns="http://www.w3.org/2000/svg" stroke-width="28.222" stroke-linejoin="round" xml:space="preserve">
 <path fill="rgb(255,255,255)" stroke="none" d="M 12624,10244 L -77,10244 -77,86 25325,86 25325,10244 12624,10244 Z"/>
 <path fill="none" stroke="rgb(179,179,179)" stroke-linejoin="round" d="M 13048,9248 L 2301,9248 2301,1486 23794,1486 23794,9248 13048,9248 Z"/>
 <path fill="none" stroke="rgb(179,179,179)" stroke-linejoin="round" d="M 23794,9247 L 2301,9247"/>
 <path fill="none" stroke="rgb(179,179,179)" stroke-linejoin="round" d="M 23794,8277 L 2301,8277"/>
 <path fill="none" stroke="rgb(179,179,179)" stroke-linejoin="round" d="M 23794,7306 L 2301,7306"/>
 <path fill="none" stroke="rgb(179,179,179)" stroke-linejoin="round" d="M 23794,6336 L 2301,6336"/>
 <path fill="none" stroke="rgb(179,179,179)" stroke-linejoin="round" d="M 23794,5365 L 2301,5365"/>
 <path fill="none" stroke="rgb(179,179,179)" stroke-linejoin="round" d="M 23794,4395 L 2301,4395"/>
 <path fill="none" stroke="rgb(179,179,179)" stroke-linejoin="round" d="M 23794,3425 L 2301,3425"/>
 <path fill="none" stroke="rgb(179,179,179)" stroke-linejoin="round" d="M 23794,2454 L 2301,2454"/>
 <path fill="none" stroke="rgb(179,179,179)" stroke-linejoin="round" d="M 23794,1485 L 2301,1485"/>
 <path fill="none" stroke="rgb(179,179,179)" stroke-linejoin="round" d="M 2301,9397 L 2301,9247"/>
 <path fill="none" stroke="rgb(179,179,179)" stroke-linejoin="round" d="M 2301,9397 L 2301,9247"/>
 <path fill="none" stroke="rgb(179,179,179)" stroke-linejoin="round" d="M 5883,9397 L 5883,9247"/>
 <path fill="none" stroke="rgb(179,179,179)" stroke-linejoin="round" d="M 5883,9397 L 5883,9247"/>
 <path fill="none" stroke="rgb(179,179,179)" stroke-linejoin="round" d="M 9465,9397 L 9465,9247"/>
 <path fill="none" stroke="rgb(179,179,179)" stroke-linejoin="round" d="M 9465,9397 L 9465,9247"/>
 <path fill="none" stroke="rgb(179,179,179)" stroke-linejoin="round" d="M 13048,9397 L 13048,9247"/>
 <path fill="none" stroke="rgb(179,179,179)" stroke-linejoin="round" d="M 13048,9397 L 13048,9247"/>
 <path fill="none" stroke="rgb(179,179,179)" stroke-linejoin="round" d="M 16630,9397 L 16630,9247"/>
 <path fill="none" stroke="rgb(179,179,179)" stroke-linejoin="round" d="M 16630,9397 L 16630,9247"/>
 <path fill="none" stroke="rgb(179,179,179)" stroke-linejoin="round" d="M 20212,9397 L 20212,9247"/>
 <path fill="none" stroke="rgb(179,179,179)" stroke-linejoin="round" d="M 20212,9397 L 20212,9247"/>
 <path fill="none" stroke="rgb(179,179,179)" stroke-linejoin="round" d="M 23794,9397 L 23794,9247"/>
 <path fill="none" stroke="rgb(179,179,179)" stroke-linejoin="round" d="M 23794,9397 L 23794,9247"/>
 <path fill="none" stroke="rgb(179,179,179)" stroke-linejoin="round" d="M 2301,9247 L 23794,9247"/>
 <path fill="none" stroke="rgb(179,179,179)" stroke-linejoin="round" d="M 2151,9247 L 2301,9247"/>
 <path fill="none" stroke="rgb(179,179,179)" stroke-linejoin="round" d="M 2151,9247 L 2301,9247"/>
 <path fill="none" stroke="rgb(179,179,179)" stroke-linejoin="round" d="M 2151,8277 L 2301,8277"/>
 <path fill="none" stroke="rgb(179,179,179)" stroke-linejoin="round" d="M 2151,8277 L 2301,8277"/>
 <path fill="none" stroke="rgb(179,179,179)" stroke-linejoin="round" d="M 2151,7306 L 2301,7306"/>
 <path fill="none" stroke="rgb(179,179,179)" stroke-linejoin="round" d="M 2151,7306 L 2301,7306"/>
 <path fill="none" stroke="rgb(179,179,179)" stroke-linejoin="round" d="M 2151,6336 L 2301,6336"/>
 <path fill="none" stroke="rgb(179,179,179)" stroke-linejoin="round" d="M 2151,6336 L 2301,6336"/>
 <path fill="none" stroke="rgb(179,179,179)" stroke-linejoin="round" d="M 2151,5365 L 2301,5365"/>
 <path fill="none" stroke="rgb(179,179,179)" stroke-linejoin="round" d="M 2151,5365 L 2301,5365"/>
 <path fill="none" stroke="rgb(179,179,179)" stroke-linejoin="round" d="M 2151,4395 L 2301,4395"/>
 <path fill="none" stroke="rgb(179,179,179)" stroke-linejoin="round" d="M 2151,4395 L 2301,4395"/>
 <path fill="none" stroke="rgb(179,179,179)" stroke-linejoin="round" d="M 2151,3425 L 2301,3425"/>
 <path fill="none" stroke="rgb(179,179,179)" stroke-linejoin="round" d="M 2151,3425 L 2301,3425"/>
 <path fill="none" stroke="rgb(179,179,179)" stroke-linejoin="round" d="M 2151,2454 L 2301,2454"/>
 <path fill="none" stroke="rgb(179,179,179)" stroke-linejoin="round" d="M 2151,2454 L 2301,2454"/>
 <path fill="none" stroke="rgb(179,179,179)" stroke-linejoin="round" d="M 2151,1485 L 2301,1485"/>
 <path fill="none" stroke="rgb(179,179,179)" stroke-linejoin="round" d="M 2151,1485 L 2301,1485"/>
 <path fill="none" stroke="rgb(179,179,179)" stroke-linejoin="round" d="M 2301,9247 L 2301,1485"/>
 <path fill="none" stroke="rgb(179,179,179)" stroke-linejoin="round" d="M 23944,1485 L 23794,1485"/>
 <path fill="none" stroke="rgb(179,179,179)" stroke-linejoin="round" d="M 23944,1485 L 23794,1485"/>
 <path fill="none" stroke="rgb(179,179,179)" stroke-linejoin="round" d="M 23944,2346 L 23794,2346"/>
 <path fill="none" stroke="rgb(179,179,179)" stroke-linejoin="round" d="M 23944,2346 L 23794,2346"/>
 <path fill="none" stroke="rgb(179,179,179)" stroke-linejoin="round" d="M 23944,3209 L 23794,3209"/>
 <path fill="none" stroke="rgb(179,179,179)" stroke-linejoin="round" d="M 23944,3209 L 23794,3209"/>
 <path fill="none" stroke="rgb(179,179,179)" stroke-linejoin="round" d="M 23944,4072 L 23794,4072"/>
 <path fill="none" stroke="rgb(179,179,179)" stroke-linejoin="round" d="M 23944,4072 L 23794,4072"/>
 <path fill="none" stroke="rgb(179,179,179)" stroke-linejoin="round" d="M 23944,4935 L 23794,4935"/>
 <path fill="none" stroke="rgb(179,179,179)" stroke-linejoin="round" d="M 23944,4935 L 23794,4935"/>
 <path fill="none" stroke="rgb(179,179,179)" stroke-linejoin="round" d="M 23944,5796 L 23794,5796"/>
 <path fill="none" stroke="rgb(179,179,179)" stroke-linejoin="round" d="M 23944,5796 L 23794,5796"/>
 <path fill="none" stroke="rgb(179,179,179)" stroke-linejoin="round" d="M 23944,6659 L 23794,6659"/>
 <path fill="none" stroke="rgb(179,179,179)" stroke-linejoin="round" d="M 23944,6659 L 23794,6659"/>
 <path fill="none" stroke="rgb(179,179,179)" stroke-linejoin="round" d="M 23944,7522 L 23794,7522"/>
 <path fill="none" stroke="rgb(179,179,179)" stroke-linejoin="round" d="M 23944,7522 L 23794,7522"/>
 <path fill="none" stroke="rgb(179,179,179)" stroke-linejoin="round" d="M 23944,8385 L 23794,8385"/>
 <path fill="none" stroke="rgb(179,179,179)" stroke-linejoin="round" d="M 23944,8385 L 23794,8385"/>
 <path fill="none" stroke="rgb(179,179,179)" stroke-linejoin="round" d="M 23944,9247 L 23794,9247"/>
 <path fill="none" stroke="rgb(179,179,179)" stroke-linejoin="round" d="M 23944,9247 L 23794,9247"/>
 <path fill="none" stroke="rgb(179,179,179)" stroke-linejoin="round" d="M 23794,9247 L 23794,1485"/>
 <path fill="rgb(0,69,134)" stroke="none" d="M 17077,9247 L 17973,9247 17973,6505 17077,6505 17077,9247 Z"/>
 <path fill="rgb(0,69,134)" stroke="none" d="M 2748,9247 L 3644,9247 3644,5425 2748,5425 2748,9247 Z"/>
 <path fill="rgb(245,130,32)" stroke="none" d="M 17973,9247 L 18868,9247 18868,3438 17973,3438 17973,9247 Z"/>
 <path fill="rgb(245,130,32)" stroke="none" d="M 3644,9247 L 4539,9247 4539,2356 3644,2356 3644,9247 Z"/>
 <path fill="rgb(78,154,6)" stroke="none" d="M 18868,2429 L 19764,2429 19764,9247 18868,9247 18868,2429 Z"/>
 <path fill="rgb(78,154,6)" stroke="none" d="M 4539,2425 L 5435,2425 5435,9247 4539,9247 4539,2425 Z"/>
 <text class="TextShape"><tspan class="TextParagraph" font-family="Liberation Sans, sans-serif" font-size="353px" font-weight="400"><tspan class="TextPosition" x="3696" y="9735"><tspan fill="rgb(0,0,0)" stroke="none">Euler</tspan></tspan></tspan></text>
 <text class="TextShape"><tspan class="TextParagraph" font-family="Liberation Sans, sans-serif" font-size="353px" font-weight="400"><tspan class="TextPosition" x="6272" y="9735"><tspan fill="rgb(0,0,0)" stroke="none">CrankNicolson 0,9</tspan></tspan></tspan></text>
 <text class="TextShape"><tspan class="TextParagraph" font-family="Liberation Sans, sans-serif" font-size="353px" font-weight="400"><tspan class="TextPosition" x="9854" y="9735"><tspan fill="rgb(0,0,0)" stroke="none">CrankNicolson 0,5</tspan></tspan></tspan></text>
 <text class="TextShape"><tspan class="TextParagraph" font-family="Liberation Sans, sans-serif" font-size="353px" font-weight="400"><tspan class="TextPosition" x="13435" y="9735"><tspan fill="rgb(0,0,0)" stroke="none">CrankNicolson 0,3</tspan></tspan></tspan></text>
 <text class="TextShape"><tspan class="TextParagraph" font-family="Liberation Sans, sans-serif" font-size="353px" font-weight="400"><tspan class="TextPosition" x="17693" y="9735"><tspan fill="rgb(0,0,0)" stroke="none">backward</tspan></tspan></tspan></text>
 <text class="TextShape"><tspan class="TextParagraph" font-family="Liberation Sans, sans-serif" font-size="353px" font-weight="400"><tspan class="TextPosition" x="21196" y="9735"><tspan fill="rgb(0,0,0)" stroke="none">local Euler</tspan></tspan></tspan></text>
 <text class="TextShape"><tspan class="TextParagraph" font-family="Liberation Sans, sans-serif" font-size="353px" font-weight="400"><tspan class="TextPosition" x="1390" y="9327"><tspan fill="rgb(0,0,0)" stroke="none">4.75</tspan></tspan></tspan></text>
 <text class="TextShape"><tspan class="TextParagraph" font-family="Liberation Sans, sans-serif" font-size="353px" font-weight="400"><tspan class="TextPosition" x="1575" y="8356"><tspan fill="rgb(0,0,0)" stroke="none">4.8</tspan></tspan></tspan></text>
 <text class="TextShape"><tspan class="TextParagraph" font-family="Liberation Sans, sans-serif" font-size="353px" font-weight="400"><tspan class="TextPosition" x="1390" y="7385"><tspan fill="rgb(0,0,0)" stroke="none">4.85</tspan></tspan></tspan></text>
 <text class="TextShape"><tspan class="TextParagraph" font-family="Liberation Sans, sans-serif" font-size="353px" font-weight="400"><tspan class="TextPosition" x="1575" y="6416"><tspan fill="rgb(0,0,0)" stroke="none">4.9</tspan></tspan></tspan></text>
 <text class="TextShape"><tspan class="TextParagraph" font-family="Liberation Sans, sans-serif" font-size="353px" font-weight="400"><tspan class="TextPosition" x="1390" y="5445"><tspan fill="rgb(0,0,0)" stroke="none">4.95</tspan></tspan></tspan></text>
 <text class="TextShape"><tspan class="TextParagraph" font-family="Liberation Sans, sans-serif" font-size="353px" font-weight="400"><tspan class="TextPosition" x="1866" y="4474"><tspan fill="rgb(0,0,0)" stroke="none">5</tspan></tspan></tspan></text>
 <text class="TextShape"><tspan class="TextParagraph" font-family="Liberation Sans, sans-serif" font-size="353px" font-weight="400"><tspan class="TextPosition" x="1390" y="3504"><tspan fill="rgb(0,0,0)" stroke="none">5.05</tspan></tspan></tspan></text>
 <text class="TextShape"><tspan class="TextParagraph" font-family="Liberation Sans, sans-serif" font-size="353px" font-weight="400"><tspan class="TextPosition" x="1575" y="2534"><tspan fill="rgb(0,0,0)" stroke="none">5.1</tspan></tspan></tspan></text>
 <text class="TextShape"><tspan class="TextParagraph" font-family="Liberation Sans, sans-serif" font-size="353px" font-weight="400"><tspan class="TextPosition" x="1390" y="1564"><tspan fill="rgb(0,0,0)" stroke="none">5.15</tspan></tspan></tspan></text>
 <text class="TextShape"><tspan class="TextParagraph" font-family="Liberation Sans, sans-serif" font-size="353px" font-weight="700"><tspan class="TextPosition" x="24044" y="1564"><tspan fill="rgb(64,121,39)" stroke="none">-0.18</tspan></tspan></tspan></text>
 <text class="TextShape"><tspan class="TextParagraph" font-family="Liberation Sans, sans-serif" font-size="353px" font-weight="700"><tspan class="TextPosition" x="24044" y="2426"><tspan fill="rgb(64,121,39)" stroke="none">-0.16</tspan></tspan></tspan></text>
 <text class="TextShape"><tspan class="TextParagraph" font-family="Liberation Sans, sans-serif" font-size="353px" font-weight="700"><tspan class="TextPosition" x="24044" y="3289"><tspan fill="rgb(64,121,39)" stroke="none">-0.14</tspan></tspan></tspan></text>
 <text class="TextShape"><tspan class="TextParagraph" font-family="Liberation Sans, sans-serif" font-size="353px" font-weight="700"><tspan class="TextPosition" x="24044" y="4151"><tspan fill="rgb(64,121,39)" stroke="none">-0.12</tspan></tspan></tspan></text>
 <text class="TextShape"><tspan class="TextParagraph" font-family="Liberation Sans, sans-serif" font-size="353px" font-weight="700"><tspan class="TextPosition" x="24044" y="5014"><tspan fill="rgb(64,121,39)" stroke="none">-0.1</tspan></tspan></tspan></text>
 <text class="TextShape"><tspan class="TextParagraph" font-family="Liberation Sans, sans-serif" font-size="353px" font-weight="700"><tspan class="TextPosition" x="24044" y="5876"><tspan fill="rgb(64,121,39)" stroke="none">-0.08</tspan></tspan></tspan></text>
 <text class="TextShape"><tspan class="TextParagraph" font-family="Liberation Sans, sans-serif" font-size="353px" font-weight="700"><tspan class="TextPosition" x="24044" y="6739"><tspan fill="rgb(64,121,39)" stroke="none">-0.06</tspan></tspan></tspan></text>
 <text class="TextShape"><tspan class="TextParagraph" font-family="Liberation Sans, sans-serif" font-size="353px" font-weight="700"><tspan class="TextPosition" x="24044" y="7601"><tspan fill="rgb(64,121,39)" stroke="none">-0.04</tspan></tspan></tspan></text>
 <text class="TextShape"><tspan class="TextParagraph" font-family="Liberation Sans, sans-serif" font-size="353px" font-weight="700"><tspan class="TextPosition" x="24044" y="8464"><tspan fill="rgb(64,121,39)" stroke="none">-0.02</tspan></tspan></tspan></text>
 <text class="TextShape"><tspan class="TextParagraph" font-family="Liberation Sans, sans-serif" font-size="353px" font-weight="700"><tspan class="TextPosition" x="24044" y="9327"><tspan fill="rgb(64,121,39)" stroke="none">0</tspan></tspan></tspan></text>
 <text class="TextShape"><tspan class="TextParagraph" font-family="Liberation Sans, sans-serif" font-size="459px" font-weight="400"><tspan class="TextPosition" x="11169" y="880"><tspan fill="rgb(0,0,0)" stroke="none">Time schemes</tspan></tspan></tspan></text>
 <path fill="rgb(0,69,134)" stroke="none" d="M 6868,2006 L 6762,2006 6762,1795 6973,1795 6973,2006 6868,2006 Z"/>
 <path fill="rgb(245,130,32)" stroke="none" d="M 11593,2006 L 11487,2006 11487,1795 11698,1795 11698,2006 11593,2006 Z"/>
 <path fill="rgb(78,154,6)" stroke="none" d="M 14519,2006 L 14414,2006 14414,1795 14625,1795 14625,2006 14519,2006 Z"/>
 <text class="TextShape"><tspan class="TextParagraph" font-family="Liberation Sans, sans-serif" font-size="353px" font-weight="400"><tspan class="TextPosition" x="7073" y="1979"><tspan fill="rgb(0,0,0)" stroke="none">Mean power of the last turn</tspan></tspan></tspan></text>
 <text class="TextShape"><tspan class="TextParagraph" font-family="Liberation Sans, sans-serif" font-size="353px" font-weight="400"><tspan class="TextPosition" x="11798" y="1979"><tspan fill="rgb(0,0,0)" stroke="none">Power pressure</tspan></tspan></tspan></text>
 <text class="TextShape"><tspan class="TextParagraph" font-family="Liberation Sans, sans-serif" font-size="353px" font-weight="400"><tspan class="TextPosition" x="14725" y="1979"><tspan fill="rgb(0,0,0)" stroke="none">Power shear stress</tspan></tspan></tspan></text>
 <text class="TextShape" transform="translate(707,6298) rotate(-90) translate(-707,-6298)"><tspan class="TextParagraph" font-family="Liberation Sans, sans-serif" font-size="318px" font-weight="400"><tspan class="TextPosition" x="707" y="6298"><tspan fill="rgb(0,0,0)" stroke="none">Power [W]</tspan></tspan></tspan></text>
</svg>