<?xml version="1.0" encoding="UTF-8"?>
<!DOCTYPE svg PUBLIC "-//W3C//DTD SVG 1.1//EN" "http://www.w3.org/Graphics/SVG/1.1/DTD/svg11.dtd">
<svg width="152mm" height="102mm" viewBox="0 0 15200 10200" version="1.1" xmlns="http://www.w3.org/2000/svg" stroke-width="28.222" stroke-linejoin="round" xml:space="preserve">
 <path fill="rgb(255,255,255)" stroke="none" d="M 7624,10160 L 4,10160 4,0 15244,0 15244,10160 7624,10160 Z"/>
 <path fill="none" stroke="rgb(179,179,179)" stroke-linejoin="round" d="M 8413,8460 L 2074,8460 2074,1402 14753,1402 14753,8460 8413,8460 Z"/>
 <path fill="none" stroke="rgb(179,179,179)" stroke-linejoin="round" d="M 14753,8459 L 2074,8459"/>
 <path fill="none" stroke="rgb(179,179,179)" stroke-linejoin="round" d="M 14753,7576 L 2074,7576"/>
 <path fill="none" stroke="rgb(179,179,179)" stroke-linejoin="round" d="M 14753,6694 L 2074,6694"/>
 <path fill="none" stroke="rgb(179,179,179)" stroke-linejoin="round" d="M 14753,5811 L 2074,5811"/>
 <path fill="none" stroke="rgb(179,179,179)" stroke-linejoin="round" d="M 14753,4930 L 2074,4930"/>
 <path fill="none" stroke="rgb(179,179,179)" stroke-linejoin="round" d="M 14753,4048 L 2074,4048"/>
 <path fill="none" stroke="rgb(179,179,179)" stroke-linejoin="round" d="M 14753,3165 L 2074,3165"/>
 <path fill="none" stroke="rgb(179,179,179)" stroke-linejoin="round" d="M 14753,2283 L 2074,2283"/>
 <path fill="none" stroke="rgb(179,179,179)" stroke-linejoin="round" d="M 14753,1401 L 2074,1401"/>
 <path fill="none" stroke="rgb(179,179,179)" stroke-linejoin="round" d="M 2074,8609 L 2074,8459"/>
 <path fill="none" stroke="rgb(179,179,179)" stroke-linejoin="round" d="M 2074,8609 L 2074,8459"/>
 <path fill="none" stroke="rgb(179,179,179)" stroke-linejoin="round" d="M 3659,8609 L 3659,8459"/>
 <path fill="none" stroke="rgb(179,179,179)" stroke-linejoin="round" d="M 3659,8609 L 3659,8459"/>
 <path fill="none" stroke="rgb(179,179,179)" stroke-linejoin="round" d="M 5244,8609 L 5244,8459"/>
 <path fill="none" stroke="rgb(179,179,179)" stroke-linejoin="round" d="M 5244,8609 L 5244,8459"/>
 <path fill="none" stroke="rgb(179,179,179)" stroke-linejoin="round" d="M 6829,8609 L 6829,8459"/>
 <path fill="none" stroke="rgb(179,179,179)" stroke-linejoin="round" d="M 6829,8609 L 6829,8459"/>
 <path fill="none" stroke="rgb(179,179,179)" stroke-linejoin="round" d="M 8413,8609 L 8413,8459"/>
 <path fill="none" stroke="rgb(179,179,179)" stroke-linejoin="round" d="M 8413,8609 L 8413,8459"/>
 <path fill="none" stroke="rgb(179,179,179)" stroke-linejoin="round" d="M 9998,8609 L 9998,8459"/>
 <path fill="none" stroke="rgb(179,179,179)" stroke-linejoin="round" d="M 9998,8609 L 9998,8459"/>
 <path fill="none" stroke="rgb(179,179,179)" stroke-linejoin="round" d="M 11583,8609 L 11583,8459"/>
 <path fill="none" stroke="rgb(179,179,179)" stroke-linejoin="round" d="M 11583,8609 L 11583,8459"/>
 <path fill="none" stroke="rgb(179,179,179)" stroke-linejoin="round" d="M 13168,8609 L 13168,8459"/>
 <path fill="none" stroke="rgb(179,179,179)" stroke-linejoin="round" d="M 13168,8609 L 13168,8459"/>
 <path fill="none" stroke="rgb(179,179,179)" stroke-linejoin="round" d="M 14753,8609 L 14753,8459"/>
 <path fill="none" stroke="rgb(179,179,179)" stroke-linejoin="round" d="M 14753,8609 L 14753,8459"/>
 <path fill="none" stroke="rgb(179,179,179)" stroke-linejoin="round" d="M 2074,8459 L 14753,8459"/>
 <path fill="none" stroke="rgb(179,179,179)" stroke-linejoin="round" d="M 1924,8459 L 2074,8459"/>
 <path fill="none" stroke="rgb(179,179,179)" stroke-linejoin="round" d="M 1924,8459 L 2074,8459"/>
 <path fill="none" stroke="rgb(179,179,179)" stroke-linejoin="round" d="M 1924,7576 L 2074,7576"/>
 <path fill="none" stroke="rgb(179,179,179)" stroke-linejoin="round" d="M 1924,7576 L 2074,7576"/>
 <path fill="none" stroke="rgb(179,179,179)" stroke-linejoin="round" d="M 1924,6694 L 2074,6694"/>
 <path fill="none" stroke="rgb(179,179,179)" stroke-linejoin="round" d="M 1924,6694 L 2074,6694"/>
 <path fill="none" stroke="rgb(179,179,179)" stroke-linejoin="round" d="M 1924,5811 L 2074,5811"/>
 <path fill="none" stroke="rgb(179,179,179)" stroke-linejoin="round" d="M 1924,5811 L 2074,5811"/>
 <path fill="none" stroke="rgb(179,179,179)" stroke-linejoin="round" d="M 1924,4930 L 2074,4930"/>
 <path fill="none" stroke="rgb(179,179,179)" stroke-linejoin="round" d="M 1924,4930 L 2074,4930"/>
 <path fill="none" stroke="rgb(179,179,179)" stroke-linejoin="round" d="M 1924,4048 L 2074,4048"/>
 <path fill="none" stroke="rgb(179,179,179)" stroke-linejoin="round" d="M 1924,4048 L 2074,4048"/>
 <path fill="none" stroke="rgb(179,179,179)" stroke-linejoin="round" d="M 1924,3165 L 2074,3165"/>
 <path fill="none" stroke="rgb(179,179,179)" stroke-linejoin="round" d="M 1924,3165 L 2074,3165"/>
 <path fill="none" stroke="rgb(179,179,179)" stroke-linejoin="round" d="M 1924,2283 L 2074,2283"/>
 <path fill="none" stroke="rgb(179,179,179)" stroke-linejoin="round" d="M 1924,2283 L 2074,2283"/>
 <path fill="none" stroke="rgb(179,179,179)" stroke-linejoin="round" d="M 1924,1401 L 2074,1401"/>
 <path fill="none" stroke="rgb(179,179,179)" stroke-linejoin="round" d="M 1924,1401 L 2074,1401"/>
 <path fill="none" stroke="rgb(179,179,179)" stroke-linejoin="round" d="M 2074,8459 L 2074,1401"/>
 <path fill="none" stroke="rgb(0,69,134)" stroke-width="80" stroke-linejoin="round" d="M 2866,2271 L 6036,6141 9998,3600 13960,2585"/>
 <path fill="rgb(0,69,134)" stroke="none" d="M 2741,2146 L 2741,2396 2991,2396 2991,2146 2741,2146 Z"/>
 <path fill="none" stroke="rgb(0,69,134)" stroke-linejoin="round" d="M 2741,2146 L 2741,2396 2991,2396 2991,2146 2741,2146 Z"/>
 <path fill="rgb(0,69,134)" stroke="none" d="M 5911,6016 L 5911,6266 6161,6266 6161,6016 5911,6016 Z"/>
 <path fill="none" stroke="rgb(0,69,134)" stroke-linejoin="round" d="M 5911,6016 L 5911,6266 6161,6266 6161,6016 5911,6016 Z"/>
 <path fill="rgb(0,69,134)" stroke="none" d="M 9873,3475 L 9873,3725 10123,3725 10123,3475 9873,3475 Z"/>
 <path fill="none" stroke="rgb(0,69,134)" stroke-linejoin="round" d="M 9873,3475 L 9873,3725 10123,3725 10123,3475 9873,3475 Z"/>
 <path fill="rgb(0,69,134)" stroke="none" d="M 13835,2460 L 13835,2710 14085,2710 14085,2460 13835,2460 Z"/>
 <path fill="none" stroke="rgb(0,69,134)" stroke-linejoin="round" d="M 13835,2460 L 13835,2710 14085,2710 14085,2460 13835,2460 Z"/>
 <text class="TextShape"><tspan class="TextParagraph" font-family="Liberation Sans, sans-serif" font-size="353px" font-weight="400"><tspan class="TextPosition" x="1981" y="8947"><tspan fill="rgb(0,0,0)" stroke="none">0</tspan></tspan></tspan></text>
 <text class="TextShape"><tspan class="TextParagraph" font-family="Liberation Sans, sans-serif" font-size="353px" font-weight="400"><tspan class="TextPosition" x="3566" y="8947"><tspan fill="rgb(0,0,0)" stroke="none">2</tspan></tspan></tspan></text>
 <text class="TextShape"><tspan class="TextParagraph" font-family="Liberation Sans, sans-serif" font-size="353px" font-weight="400"><tspan class="TextPosition" x="5151" y="8947"><tspan fill="rgb(0,0,0)" stroke="none">4</tspan></tspan></tspan></text>
 <text class="TextShape"><tspan class="TextParagraph" font-family="Liberation Sans, sans-serif" font-size="353px" font-weight="400"><tspan class="TextPosition" x="6736" y="8947"><tspan fill="rgb(0,0,0)" stroke="none">6</tspan></tspan></tspan></text>
 <text class="TextShape"><tspan class="TextParagraph" font-family="Liberation Sans, sans-serif" font-size="353px" font-weight="400"><tspan class="TextPosition" x="8321" y="8947"><tspan fill="rgb(0,0,0)" stroke="none">8</tspan></tspan></tspan></text>
 <text class="TextShape"><tspan class="TextParagraph" font-family="Liberation Sans, sans-serif" font-size="353px" font-weight="400"><tspan class="TextPosition" x="9814" y="8947"><tspan fill="rgb(0,0,0)" stroke="none">10</tspan></tspan></tspan></text>
 <text class="TextShape"><tspan class="TextParagraph" font-family="Liberation Sans, sans-serif" font-size="353px" font-weight="400"><tspan class="TextPosition" x="11399" y="8947"><tspan fill="rgb(0,0,0)" stroke="none">12</tspan></tspan></tspan></text>
 <text class="TextShape"><tspan class="TextParagraph" font-family="Liberation Sans, sans-serif" font-size="353px" font-weight="400"><tspan class="TextPosition" x="12984" y="8947"><tspan fill="rgb(0,0,0)" stroke="none">14</tspan></tspan></tspan></text>
 <text class="TextShape"><tspan class="TextParagraph" font-family="Liberation Sans, sans-serif" font-size="353px" font-weight="400"><tspan class="TextPosition" x="14569" y="8947"><tspan fill="rgb(0,0,0)" stroke="none">16</tspan></tspan></tspan></text>
 <text class="TextShape"><tspan class="TextParagraph" font-family="Liberation Sans, sans-serif" font-size="353px" font-weight="400"><tspan class="TextPosition" x="1268" y="8539"><tspan fill="rgb(0,0,0)" stroke="none">160</tspan></tspan></tspan></text>
 <text class="TextShape"><tspan class="TextParagraph" font-family="Liberation Sans, sans-serif" font-size="353px" font-weight="400"><tspan class="TextPosition" x="1268" y="7656"><tspan fill="rgb(0,0,0)" stroke="none">162</tspan></tspan></tspan></text>
 <text class="TextShape"><tspan class="TextParagraph" font-family="Liberation Sans, sans-serif" font-size="353px" font-weight="400"><tspan class="TextPosition" x="1268" y="6774"><tspan fill="rgb(0,0,0)" stroke="none">164</tspan></tspan></tspan></text>
 <text class="TextShape"><tspan class="TextParagraph" font-family="Liberation Sans, sans-serif" font-size="353px" font-weight="400"><tspan class="TextPosition" x="1268" y="5891"><tspan fill="rgb(0,0,0)" stroke="none">166</tspan></tspan></tspan></text>
 <text class="TextShape"><tspan class="TextParagraph" font-family="Liberation Sans, sans-serif" font-size="353px" font-weight="400"><tspan class="TextPosition" x="1268" y="5009"><tspan fill="rgb(0,0,0)" stroke="none">168</tspan></tspan></tspan></text>
 <text class="TextShape"><tspan class="TextParagraph" font-family="Liberation Sans, sans-serif" font-size="353px" font-weight="400"><tspan class="TextPosition" x="1268" y="4127"><tspan fill="rgb(0,0,0)" stroke="none">170</tspan></tspan></tspan></text>
 <text class="TextShape"><tspan class="TextParagraph" font-family="Liberation Sans, sans-serif" font-size="353px" font-weight="400"><tspan class="TextPosition" x="1268" y="3244"><tspan fill="rgb(0,0,0)" stroke="none">172</tspan></tspan></tspan></text>
 <text class="TextShape"><tspan class="TextParagraph" font-family="Liberation Sans, sans-serif" font-size="353px" font-weight="400"><tspan class="TextPosition" x="1268" y="2362"><tspan fill="rgb(0,0,0)" stroke="none">174</tspan></tspan></tspan></text>
 <text class="TextShape"><tspan class="TextParagraph" font-family="Liberation Sans, sans-serif" font-size="353px" font-weight="400"><tspan class="TextPosition" x="1268" y="1480"><tspan fill="rgb(0,0,0)" stroke="none">176</tspan></tspan></tspan></text>
 <text class="TextShape"><tspan class="TextParagraph" font-family="Liberation Sans, sans-serif" font-size="459px" font-weight="400"><tspan class="TextPosition" x="4436" y="794"><tspan fill="rgb(0,0,0)" stroke="none">Total pressure drop (inlet-outlet)</tspan></tspan></tspan></text>
 <text class="TextShape"><tspan class="TextParagraph" font-family="Liberation Sans, sans-serif" font-size="318px" font-weight="400"><tspan class="TextPosition" x="6265" y="9565"><tspan fill="rgb(0,0,0)" stroke="none">Turbolent intensity at inlet</tspan></tspan></tspan></text>
 <text class="TextShape" transform="translate(788,6497) rotate(-90) translate(-788,-6497)"><tspan class="TextParagraph" font-family="Liberation Sans, sans-serif" font-size="318px" font-weight="400"><tspan class="TextPosition" x="788" y="6497"><tspan fill="rgb(0,0,0)" stroke="none">Total Pressure [Pa]</tspan></tspan></tspan></text>
</svg>