<?xml version="1.0" encoding="UTF-8"?>
<!DOCTYPE svg PUBLIC "-//W3C//DTD SVG 1.1//EN" "http://www.w3.org/Graphics/SVG/1.1/DTD/svg11.dtd">
<svg width="152mm" height="102mm" viewBox="0 0 15200 10200" version="1.1" xmlns="http://www.w3.org/2000/svg" stroke-width="28.222" stroke-linejoin="round" xml:space="preserve">
 <path fill="rgb(255,255,255)" stroke="none" d="M 7628,10160 L 8,10160 8,0 15248,0 15248,10160 7628,10160 Z"/>
 <path fill="none" stroke="rgb(179,179,179)" stroke-linejoin="round" d="M 7848,8458 L 2182,8458 2182,1402 13514,1402 13514,8458 7848,8458 Z"/>
 <path fill="none" stroke="rgb(179,179,179)" stroke-linejoin="round" d="M 13514,8457 L 2182,8457"/>
 <path fill="none" stroke="rgb(179,179,179)" stroke-linejoin="round" d="M 13514,7574 L 2182,7574"/>
 <path fill="none" stroke="rgb(179,179,179)" stroke-linejoin="round" d="M 13514,6692 L 2182,6692"/>
 <path fill="none" stroke="rgb(179,179,179)" stroke-linejoin="round" d="M 13514,5810 L 2182,5810"/>
 <path fill="none" stroke="rgb(179,179,179)" stroke-linejoin="round" d="M 13514,4929 L 2182,4929"/>
 <path fill="none" stroke="rgb(179,179,179)" stroke-linejoin="round" d="M 13514,4047 L 2182,4047"/>
 <path fill="none" stroke="rgb(179,179,179)" stroke-linejoin="round" d="M 13514,3165 L 2182,3165"/>
 <path fill="none" stroke="rgb(179,179,179)" stroke-linejoin="round" d="M 13514,2283 L 2182,2283"/>
 <path fill="none" stroke="rgb(179,179,179)" stroke-linejoin="round" d="M 13514,1400 L 2182,1400"/>
 <path fill="none" stroke="rgb(179,179,179)" stroke-linejoin="round" d="M 2182,8607 L 2182,8457"/>
 <path fill="none" stroke="rgb(179,179,179)" stroke-linejoin="round" d="M 2182,8607 L 2182,8457"/>
 <path fill="none" stroke="rgb(179,179,179)" stroke-linejoin="round" d="M 3598,8607 L 3598,8457"/>
 <path fill="none" stroke="rgb(179,179,179)" stroke-linejoin="round" d="M 3598,8607 L 3598,8457"/>
 <path fill="none" stroke="rgb(179,179,179)" stroke-linejoin="round" d="M 5015,8607 L 5015,8457"/>
 <path fill="none" stroke="rgb(179,179,179)" stroke-linejoin="round" d="M 5015,8607 L 5015,8457"/>
 <path fill="none" stroke="rgb(179,179,179)" stroke-linejoin="round" d="M 6431,8607 L 6431,8457"/>
 <path fill="none" stroke="rgb(179,179,179)" stroke-linejoin="round" d="M 6431,8607 L 6431,8457"/>
 <path fill="none" stroke="rgb(179,179,179)" stroke-linejoin="round" d="M 7847,8607 L 7847,8457"/>
 <path fill="none" stroke="rgb(179,179,179)" stroke-linejoin="round" d="M 7847,8607 L 7847,8457"/>
 <path fill="none" stroke="rgb(179,179,179)" stroke-linejoin="round" d="M 9264,8607 L 9264,8457"/>
 <path fill="none" stroke="rgb(179,179,179)" stroke-linejoin="round" d="M 9264,8607 L 9264,8457"/>
 <path fill="none" stroke="rgb(179,179,179)" stroke-linejoin="round" d="M 10680,8607 L 10680,8457"/>
 <path fill="none" stroke="rgb(179,179,179)" stroke-linejoin="round" d="M 10680,8607 L 10680,8457"/>
 <path fill="none" stroke="rgb(179,179,179)" stroke-linejoin="round" d="M 12097,8607 L 12097,8457"/>
 <path fill="none" stroke="rgb(179,179,179)" stroke-linejoin="round" d="M 12097,8607 L 12097,8457"/>
 <path fill="none" stroke="rgb(179,179,179)" stroke-linejoin="round" d="M 13514,8607 L 13514,8457"/>
 <path fill="none" stroke="rgb(179,179,179)" stroke-linejoin="round" d="M 13514,8607 L 13514,8457"/>
 <path fill="none" stroke="rgb(179,179,179)" stroke-linejoin="round" d="M 2182,8457 L 13514,8457"/>
 <path fill="none" stroke="rgb(179,179,179)" stroke-linejoin="round" d="M 2032,8457 L 2182,8457"/>
 <path fill="none" stroke="rgb(179,179,179)" stroke-linejoin="round" d="M 2032,8457 L 2182,8457"/>
 <path fill="none" stroke="rgb(179,179,179)" stroke-linejoin="round" d="M 2032,7574 L 2182,7574"/>
 <path fill="none" stroke="rgb(179,179,179)" stroke-linejoin="round" d="M 2032,7574 L 2182,7574"/>
 <path fill="none" stroke="rgb(179,179,179)" stroke-linejoin="round" d="M 2032,6692 L 2182,6692"/>
 <path fill="none" stroke="rgb(179,179,179)" stroke-linejoin="round" d="M 2032,6692 L 2182,6692"/>
 <path fill="none" stroke="rgb(179,179,179)" stroke-linejoin="round" d="M 2032,5810 L 2182,5810"/>
 <path fill="none" stroke="rgb(179,179,179)" stroke-linejoin="round" d="M 2032,5810 L 2182,5810"/>
 <path fill="none" stroke="rgb(179,179,179)" stroke-linejoin="round" d="M 2032,4929 L 2182,4929"/>
 <path fill="none" stroke="rgb(179,179,179)" stroke-linejoin="round" d="M 2032,4929 L 2182,4929"/>
 <path fill="none" stroke="rgb(179,179,179)" stroke-linejoin="round" d="M 2032,4047 L 2182,4047"/>
 <path fill="none" stroke="rgb(179,179,179)" stroke-linejoin="round" d="M 2032,4047 L 2182,4047"/>
 <path fill="none" stroke="rgb(179,179,179)" stroke-linejoin="round" d="M 2032,3165 L 2182,3165"/>
 <path fill="none" stroke="rgb(179,179,179)" stroke-linejoin="round" d="M 2032,3165 L 2182,3165"/>
 <path fill="none" stroke="rgb(179,179,179)" stroke-linejoin="round" d="M 2032,2283 L 2182,2283"/>
 <path fill="none" stroke="rgb(179,179,179)" stroke-linejoin="round" d="M 2032,2283 L 2182,2283"/>
 <path fill="none" stroke="rgb(179,179,179)" stroke-linejoin="round" d="M 2032,1400 L 2182,1400"/>
 <path fill="none" stroke="rgb(179,179,179)" stroke-linejoin="round" d="M 2032,1400 L 2182,1400"/>
 <path fill="none" stroke="rgb(179,179,179)" stroke-linejoin="round" d="M 2182,8457 L 2182,1401"/>
 <path fill="none" stroke="rgb(179,179,179)" stroke-linejoin="round" d="M 13664,8457 L 13514,8457"/>
 <path fill="none" stroke="rgb(179,179,179)" stroke-linejoin="round" d="M 13664,8457 L 13514,8457"/>
 <path fill="none" stroke="rgb(179,179,179)" stroke-linejoin="round" d="M 13664,7672 L 13514,7672"/>
 <path fill="none" stroke="rgb(179,179,179)" stroke-linejoin="round" d="M 13664,7672 L 13514,7672"/>
 <path fill="none" stroke="rgb(179,179,179)" stroke-linejoin="round" d="M 13664,6888 L 13514,6888"/>
 <path fill="none" stroke="rgb(179,179,179)" stroke-linejoin="round" d="M 13664,6888 L 13514,6888"/>
 <path fill="none" stroke="rgb(179,179,179)" stroke-linejoin="round" d="M 13664,6104 L 13514,6104"/>
 <path fill="none" stroke="rgb(179,179,179)" stroke-linejoin="round" d="M 13664,6104 L 13514,6104"/>
 <path fill="none" stroke="rgb(179,179,179)" stroke-linejoin="round" d="M 13664,5320 L 13514,5320"/>
 <path fill="none" stroke="rgb(179,179,179)" stroke-linejoin="round" d="M 13664,5320 L 13514,5320"/>
 <path fill="none" stroke="rgb(179,179,179)" stroke-linejoin="round" d="M 13664,4537 L 13514,4537"/>
 <path fill="none" stroke="rgb(179,179,179)" stroke-linejoin="round" d="M 13664,4537 L 13514,4537"/>
 <path fill="none" stroke="rgb(179,179,179)" stroke-linejoin="round" d="M 13664,3753 L 13514,3753"/>
 <path fill="none" stroke="rgb(179,179,179)" stroke-linejoin="round" d="M 13664,3753 L 13514,3753"/>
 <path fill="none" stroke="rgb(179,179,179)" stroke-linejoin="round" d="M 13664,2969 L 13514,2969"/>
 <path fill="none" stroke="rgb(179,179,179)" stroke-linejoin="round" d="M 13664,2969 L 13514,2969"/>
 <path fill="none" stroke="rgb(179,179,179)" stroke-linejoin="round" d="M 13664,2185 L 13514,2185"/>
 <path fill="none" stroke="rgb(179,179,179)" stroke-linejoin="round" d="M 13664,2185 L 13514,2185"/>
 <path fill="none" stroke="rgb(179,179,179)" stroke-linejoin="round" d="M 13664,1401 L 13514,1401"/>
 <path fill="none" stroke="rgb(179,179,179)" stroke-linejoin="round" d="M 13664,1401 L 13514,1401"/>
 <path fill="none" stroke="rgb(179,179,179)" stroke-linejoin="round" d="M 13514,8457 L 13514,1401"/>
 <path fill="none" stroke="rgb(255,66,14)" stroke-width="80" stroke-linejoin="round" d="M 2890,6492 L 3598,6649 4306,6784 5015,6913 5723,7042 6431,7171 7847,7401 9264,7610 12805,8068"/>
 <path fill="rgb(255,66,14)" stroke="none" d="M 2765,6492 L 2890,6617 3015,6492 2890,6367 2765,6492 Z"/>
 <path fill="none" stroke="rgb(255,66,14)" stroke-linejoin="round" d="M 2765,6492 L 2890,6617 3015,6492 2890,6367 2765,6492 Z"/>
 <path fill="rgb(255,66,14)" stroke="none" d="M 3473,6649 L 3598,6774 3723,6649 3598,6524 3473,6649 Z"/>
 <path fill="none" stroke="rgb(255,66,14)" stroke-linejoin="round" d="M 3473,6649 L 3598,6774 3723,6649 3598,6524 3473,6649 Z"/>
 <path fill="rgb(255,66,14)" stroke="none" d="M 4181,6784 L 4306,6909 4431,6784 4306,6659 4181,6784 Z"/>
 <path fill="none" stroke="rgb(255,66,14)" stroke-linejoin="round" d="M 4181,6784 L 4306,6909 4431,6784 4306,6659 4181,6784 Z"/>
 <path fill="rgb(255,66,14)" stroke="none" d="M 4890,6913 L 5015,7038 5140,6913 5015,6788 4890,6913 Z"/>
 <path fill="none" stroke="rgb(255,66,14)" stroke-linejoin="round" d="M 4890,6913 L 5015,7038 5140,6913 5015,6788 4890,6913 Z"/>
 <path fill="rgb(255,66,14)" stroke="none" d="M 5598,7042 L 5723,7167 5848,7042 5723,6917 5598,7042 Z"/>
 <path fill="none" stroke="rgb(255,66,14)" stroke-linejoin="round" d="M 5598,7042 L 5723,7167 5848,7042 5723,6917 5598,7042 Z"/>
 <path fill="rgb(255,66,14)" stroke="none" d="M 6306,7171 L 6431,7296 6556,7171 6431,7046 6306,7171 Z"/>
 <path fill="none" stroke="rgb(255,66,14)" stroke-linejoin="round" d="M 6306,7171 L 6431,7296 6556,7171 6431,7046 6306,7171 Z"/>
 <path fill="rgb(255,66,14)" stroke="none" d="M 7722,7401 L 7847,7526 7972,7401 7847,7276 7722,7401 Z"/>
 <path fill="none" stroke="rgb(255,66,14)" stroke-linejoin="round" d="M 7722,7401 L 7847,7526 7972,7401 7847,7276 7722,7401 Z"/>
 <path fill="rgb(255,66,14)" stroke="none" d="M 9139,7610 L 9264,7735 9389,7610 9264,7485 9139,7610 Z"/>
 <path fill="none" stroke="rgb(255,66,14)" stroke-linejoin="round" d="M 9139,7610 L 9264,7735 9389,7610 9264,7485 9139,7610 Z"/>
 <path fill="rgb(255,66,14)" stroke="none" d="M 12680,8068 L 12805,8193 12930,8068 12805,7943 12680,8068 Z"/>
 <path fill="none" stroke="rgb(255,66,14)" stroke-linejoin="round" d="M 12680,8068 L 12805,8193 12930,8068 12805,7943 12680,8068 Z"/>
 <path fill="none" stroke="rgb(0,69,134)" stroke-width="80" stroke-linejoin="round" d="M 2890,1883 L 3598,3598 4306,5734 5015,5683 5723,4915 6431,4050 7847,2777 9264,2266 12805,1790"/>
 <path fill="rgb(0,69,134)" stroke="none" d="M 2765,1758 L 2765,2008 3015,2008 3015,1758 2765,1758 Z"/>
 <path fill="none" stroke="rgb(0,69,134)" stroke-linejoin="round" d="M 2765,1758 L 2765,2008 3015,2008 3015,1758 2765,1758 Z"/>
 <path fill="rgb(0,69,134)" stroke="none" d="M 3473,3473 L 3473,3723 3723,3723 3723,3473 3473,3473 Z"/>
 <path fill="none" stroke="rgb(0,69,134)" stroke-linejoin="round" d="M 3473,3473 L 3473,3723 3723,3723 3723,3473 3473,3473 Z"/>
 <path fill="rgb(0,69,134)" stroke="none" d="M 4181,5609 L 4181,5859 4431,5859 4431,5609 4181,5609 Z"/>
 <path fill="none" stroke="rgb(0,69,134)" stroke-linejoin="round" d="M 4181,5609 L 4181,5859 4431,5859 4431,5609 4181,5609 Z"/>
 <path fill="rgb(0,69,134)" stroke="none" d="M 4890,5558 L 4890,5808 5140,5808 5140,5558 4890,5558 Z"/>
 <path fill="none" stroke="rgb(0,69,134)" stroke-linejoin="round" d="M 4890,5558 L 4890,5808 5140,5808 5140,5558 4890,5558 Z"/>
 <path fill="rgb(0,69,134)" stroke="none" d="M 5598,4790 L 5598,5040 5848,5040 5848,4790 5598,4790 Z"/>
 <path fill="none" stroke="rgb(0,69,134)" stroke-linejoin="round" d="M 5598,4790 L 5598,5040 5848,5040 5848,4790 5598,4790 Z"/>
 <path fill="rgb(0,69,134)" stroke="none" d="M 6306,3925 L 6306,4175 6556,4175 6556,3925 6306,3925 Z"/>
 <path fill="none" stroke="rgb(0,69,134)" stroke-linejoin="round" d="M 6306,3925 L 6306,4175 6556,4175 6556,3925 6306,3925 Z"/>
 <path fill="rgb(0,69,134)" stroke="none" d="M 7722,2652 L 7722,2902 7972,2902 7972,2652 7722,2652 Z"/>
 <path fill="none" stroke="rgb(0,69,134)" stroke-linejoin="round" d="M 7722,2652 L 7722,2902 7972,2902 7972,2652 7722,2652 Z"/>
 <path fill="rgb(0,69,134)" stroke="none" d="M 9139,2141 L 9139,2391 9389,2391 9389,2141 9139,2141 Z"/>
 <path fill="none" stroke="rgb(0,69,134)" stroke-linejoin="round" d="M 9139,2141 L 9139,2391 9389,2391 9389,2141 9139,2141 Z"/>
 <path fill="rgb(0,69,134)" stroke="none" d="M 12680,1665 L 12680,1915 12930,1915 12930,1665 12680,1665 Z"/>
 <path fill="none" stroke="rgb(0,69,134)" stroke-linejoin="round" d="M 12680,1665 L 12680,1915 12930,1915 12930,1665 12680,1665 Z"/>
 <text class="TextShape"><tspan class="TextParagraph" font-family="Liberation Sans, sans-serif" font-size="353px" font-weight="400"><tspan class="TextPosition" x="2089" y="8945"><tspan fill="rgb(0,0,0)" stroke="none">0</tspan></tspan></tspan></text>
 <text class="TextShape"><tspan class="TextParagraph" font-family="Liberation Sans, sans-serif" font-size="353px" font-weight="400"><tspan class="TextPosition" x="3505" y="8945"><tspan fill="rgb(0,0,0)" stroke="none">2</tspan></tspan></tspan></text>
 <text class="TextShape"><tspan class="TextParagraph" font-family="Liberation Sans, sans-serif" font-size="353px" font-weight="400"><tspan class="TextPosition" x="4922" y="8945"><tspan fill="rgb(0,0,0)" stroke="none">4</tspan></tspan></tspan></text>
 <text class="TextShape"><tspan class="TextParagraph" font-family="Liberation Sans, sans-serif" font-size="353px" font-weight="400"><tspan class="TextPosition" x="6338" y="8945"><tspan fill="rgb(0,0,0)" stroke="none">6</tspan></tspan></tspan></text>
 <text class="TextShape"><tspan class="TextParagraph" font-family="Liberation Sans, sans-serif" font-size="353px" font-weight="400"><tspan class="TextPosition" x="7755" y="8945"><tspan fill="rgb(0,0,0)" stroke="none">8</tspan></tspan></tspan></text>
 <text class="TextShape"><tspan class="TextParagraph" font-family="Liberation Sans, sans-serif" font-size="353px" font-weight="400"><tspan class="TextPosition" x="9080" y="8945"><tspan fill="rgb(0,0,0)" stroke="none">10</tspan></tspan></tspan></text>
 <text class="TextShape"><tspan class="TextParagraph" font-family="Liberation Sans, sans-serif" font-size="353px" font-weight="400"><tspan class="TextPosition" x="10496" y="8945"><tspan fill="rgb(0,0,0)" stroke="none">12</tspan></tspan></tspan></text>
 <text class="TextShape"><tspan class="TextParagraph" font-family="Liberation Sans, sans-serif" font-size="353px" font-weight="400"><tspan class="TextPosition" x="11913" y="8945"><tspan fill="rgb(0,0,0)" stroke="none">14</tspan></tspan></tspan></text>
 <text class="TextShape"><tspan class="TextParagraph" font-family="Liberation Sans, sans-serif" font-size="353px" font-weight="400"><tspan class="TextPosition" x="13330" y="8945"><tspan fill="rgb(0,0,0)" stroke="none">16</tspan></tspan></tspan></text>
 <text class="TextShape"><tspan class="TextParagraph" font-family="Liberation Sans, sans-serif" font-size="353px" font-weight="400"><tspan class="TextPosition" x="1271" y="8537"><tspan fill="rgb(0,0,0)" stroke="none">4.85</tspan></tspan></tspan></text>
 <text class="TextShape"><tspan class="TextParagraph" font-family="Liberation Sans, sans-serif" font-size="353px" font-weight="400"><tspan class="TextPosition" x="1456" y="7654"><tspan fill="rgb(0,0,0)" stroke="none">4.9</tspan></tspan></tspan></text>
 <text class="TextShape"><tspan class="TextParagraph" font-family="Liberation Sans, sans-serif" font-size="353px" font-weight="400"><tspan class="TextPosition" x="1271" y="6772"><tspan fill="rgb(0,0,0)" stroke="none">4.95</tspan></tspan></tspan></text>
 <text class="TextShape"><tspan class="TextParagraph" font-family="Liberation Sans, sans-serif" font-size="353px" font-weight="400"><tspan class="TextPosition" x="1747" y="5890"><tspan fill="rgb(0,0,0)" stroke="none">5</tspan></tspan></tspan></text>
 <text class="TextShape"><tspan class="TextParagraph" font-family="Liberation Sans, sans-serif" font-size="353px" font-weight="400"><tspan class="TextPosition" x="1271" y="5008"><tspan fill="rgb(0,0,0)" stroke="none">5.05</tspan></tspan></tspan></text>
 <text class="TextShape"><tspan class="TextParagraph" font-family="Liberation Sans, sans-serif" font-size="353px" font-weight="400"><tspan class="TextPosition" x="1456" y="4126"><tspan fill="rgb(0,0,0)" stroke="none">5.1</tspan></tspan></tspan></text>
 <text class="TextShape"><tspan class="TextParagraph" font-family="Liberation Sans, sans-serif" font-size="353px" font-weight="400"><tspan class="TextPosition" x="1271" y="3244"><tspan fill="rgb(0,0,0)" stroke="none">5.15</tspan></tspan></tspan></text>
 <text class="TextShape"><tspan class="TextParagraph" font-family="Liberation Sans, sans-serif" font-size="353px" font-weight="400"><tspan class="TextPosition" x="1456" y="2362"><tspan fill="rgb(0,0,0)" stroke="none">5.2</tspan></tspan></tspan></text>
 <text class="TextShape"><tspan class="TextParagraph" font-family="Liberation Sans, sans-serif" font-size="353px" font-weight="400"><tspan class="TextPosition" x="1271" y="1479"><tspan fill="rgb(0,0,0)" stroke="none">5.25</tspan></tspan></tspan></text>
 <text class="TextShape"><tspan class="TextParagraph" font-family="Liberation Sans, sans-serif" font-size="353px" font-weight="400"><tspan class="TextPosition" x="13764" y="8537"><tspan fill="rgb(0,0,0)" stroke="none">-0.18</tspan></tspan></tspan></text>
 <text class="TextShape"><tspan class="TextParagraph" font-family="Liberation Sans, sans-serif" font-size="353px" font-weight="400"><tspan class="TextPosition" x="13764" y="7752"><tspan fill="rgb(0,0,0)" stroke="none">-0.16</tspan></tspan></tspan></text>
 <text class="TextShape"><tspan class="TextParagraph" font-family="Liberation Sans, sans-serif" font-size="353px" font-weight="400"><tspan class="TextPosition" x="13764" y="6968"><tspan fill="rgb(0,0,0)" stroke="none">-0.14</tspan></tspan></tspan></text>
 <text class="TextShape"><tspan class="TextParagraph" font-family="Liberation Sans, sans-serif" font-size="353px" font-weight="400"><tspan class="TextPosition" x="13764" y="6184"><tspan fill="rgb(0,0,0)" stroke="none">-0.12</tspan></tspan></tspan></text>
 <text class="TextShape"><tspan class="TextParagraph" font-family="Liberation Sans, sans-serif" font-size="353px" font-weight="400"><tspan class="TextPosition" x="13764" y="5400"><tspan fill="rgb(0,0,0)" stroke="none">-0.1</tspan></tspan></tspan></text>
 <text class="TextShape"><tspan class="TextParagraph" font-family="Liberation Sans, sans-serif" font-size="353px" font-weight="400"><tspan class="TextPosition" x="13764" y="4616"><tspan fill="rgb(0,0,0)" stroke="none">-0.08</tspan></tspan></tspan></text>
 <text class="TextShape"><tspan class="TextParagraph" font-family="Liberation Sans, sans-serif" font-size="353px" font-weight="400"><tspan class="TextPosition" x="13764" y="3832"><tspan fill="rgb(0,0,0)" stroke="none">-0.06</tspan></tspan></tspan></text>
 <text class="TextShape"><tspan class="TextParagraph" font-family="Liberation Sans, sans-serif" font-size="353px" font-weight="400"><tspan class="TextPosition" x="13764" y="3048"><tspan fill="rgb(0,0,0)" stroke="none">-0.04</tspan></tspan></tspan></text>
 <text class="TextShape"><tspan class="TextParagraph" font-family="Liberation Sans, sans-serif" font-size="353px" font-weight="400"><tspan class="TextPosition" x="13764" y="2264"><tspan fill="rgb(0,0,0)" stroke="none">-0.02</tspan></tspan></tspan></text>
 <text class="TextShape"><tspan class="TextParagraph" font-family="Liberation Sans, sans-serif" font-size="353px" font-weight="400"><tspan class="TextPosition" x="13764" y="1480"><tspan fill="rgb(0,0,0)" stroke="none">0</tspan></tspan></tspan></text>
 <text class="TextShape"><tspan class="TextParagraph" font-family="Liberation Sans, sans-serif" font-size="459px" font-weight="400"><tspan class="TextPosition" x="7060" y="744"><tspan fill="rgb(0,0,0)" stroke="none">Power</tspan></tspan></tspan></text>
 <path fill="rgb(255,255,255)" stroke="none" d="M 10907,5685 L 8743,5685 8743,3954 13071,3954 13071,5685 10907,5685 Z"/>
 <path fill="none" stroke="rgb(0,69,134)" stroke-width="80" stroke-linejoin="round" d="M 9133,4477 L 9933,4477"/>
 <path fill="rgb(0,69,134)" stroke="none" d="M 9427,4372 L 9427,4583 9638,4583 9638,4372 9427,4372 Z"/>
 <path fill="none" stroke="rgb(0,69,134)" stroke-linejoin="round" d="M 9427,4372 L 9427,4583 9638,4583 9638,4372 9427,4372 Z"/>
 <path fill="none" stroke="rgb(255,66,14)" stroke-width="80" stroke-linejoin="round" d="M 9133,5159 L 9933,5159"/>
 <path fill="rgb(255,66,14)" stroke="none" d="M 9427,5159 L 9533,5265 9638,5159 9533,5055 9427,5159 Z"/>
 <path fill="none" stroke="rgb(255,66,14)" stroke-linejoin="round" d="M 9427,5159 L 9533,5265 9638,5159 9533,5055 9427,5159 Z"/>
 <text class="TextShape"><tspan class="TextParagraph" font-family="Liberation Sans, sans-serif" font-size="353px" font-weight="400"><tspan class="TextPosition" x="10033" y="4556"><tspan fill="rgb(0,0,0)" stroke="none">Power (Pressure)</tspan></tspan></tspan></text>
 <text class="TextShape"><tspan class="TextParagraph" font-family="Liberation Sans, sans-serif" font-size="353px" font-weight="400"><tspan class="TextPosition" x="10033" y="5238"><tspan fill="rgb(0,0,0)" stroke="none">Power (Shear)</tspan></tspan></tspan></text>
 <text class="TextShape"><tspan class="TextParagraph" font-family="Liberation Sans, sans-serif" font-size="318px" font-weight="400"><tspan class="TextPosition" x="6063" y="9563"><tspan fill="rgb(0,0,0)" stroke="none">Turbolent intensity at inlet</tspan></tspan></tspan></text>
 <text class="TextShape" transform="translate(791,6641) rotate(-90) translate(-791,-6641)"><tspan class="TextParagraph" font-family="Liberation Sans, sans-serif" font-size="318px" font-weight="400"><tspan class="TextPosition" x="791" y="6641"><tspan fill="rgb(0,0,0)" stroke="none">Power generated [W]</tspan></tspan></tspan></text>
</svg>