<?xml version="1.0" encoding="UTF-8"?>
<!DOCTYPE svg PUBLIC "-//W3C//DTD SVG 1.1//EN" "http://www.w3.org/Graphics/SVG/1.1/DTD/svg11.dtd">
<svg width="152mm" height="102mm" viewBox="0 0 15200 10200" version="1.1" xmlns="http://www.w3.org/2000/svg" stroke-width="28.222" stroke-linejoin="round" xml:space="preserve">
 <path fill="rgb(255,255,255)" stroke="none" d="M 7633,10160 L 13,10160 13,0 15253,0 15253,10160 7633,10160 Z"/>
 <path fill="none" stroke="rgb(179,179,179)" stroke-linejoin="round" d="M 8475,8460 L 2188,8460 2188,1402 14762,1402 14762,8460 8475,8460 Z"/>
 <path fill="none" stroke="rgb(179,179,179)" stroke-linejoin="round" d="M 14762,8459 L 2188,8459"/>
 <path fill="none" stroke="rgb(179,179,179)" stroke-linejoin="round" d="M 14762,7576 L 2188,7576"/>
 <path fill="none" stroke="rgb(179,179,179)" stroke-linejoin="round" d="M 14762,6694 L 2188,6694"/>
 <path fill="none" stroke="rgb(179,179,179)" stroke-linejoin="round" d="M 14762,5811 L 2188,5811"/>
 <path fill="none" stroke="rgb(179,179,179)" stroke-linejoin="round" d="M 14762,4930 L 2188,4930"/>
 <path fill="none" stroke="rgb(179,179,179)" stroke-linejoin="round" d="M 14762,4048 L 2188,4048"/>
 <path fill="none" stroke="rgb(179,179,179)" stroke-linejoin="round" d="M 14762,3165 L 2188,3165"/>
 <path fill="none" stroke="rgb(179,179,179)" stroke-linejoin="round" d="M 14762,2283 L 2188,2283"/>
 <path fill="none" stroke="rgb(179,179,179)" stroke-linejoin="round" d="M 14762,1401 L 2188,1401"/>
 <path fill="none" stroke="rgb(179,179,179)" stroke-linejoin="round" d="M 2188,8609 L 2188,8459"/>
 <path fill="none" stroke="rgb(179,179,179)" stroke-linejoin="round" d="M 2188,8609 L 2188,8459"/>
 <path fill="none" stroke="rgb(179,179,179)" stroke-linejoin="round" d="M 3759,8609 L 3759,8459"/>
 <path fill="none" stroke="rgb(179,179,179)" stroke-linejoin="round" d="M 3759,8609 L 3759,8459"/>
 <path fill="none" stroke="rgb(179,179,179)" stroke-linejoin="round" d="M 5331,8609 L 5331,8459"/>
 <path fill="none" stroke="rgb(179,179,179)" stroke-linejoin="round" d="M 5331,8609 L 5331,8459"/>
 <path fill="none" stroke="rgb(179,179,179)" stroke-linejoin="round" d="M 6903,8609 L 6903,8459"/>
 <path fill="none" stroke="rgb(179,179,179)" stroke-linejoin="round" d="M 6903,8609 L 6903,8459"/>
 <path fill="none" stroke="rgb(179,179,179)" stroke-linejoin="round" d="M 8474,8609 L 8474,8459"/>
 <path fill="none" stroke="rgb(179,179,179)" stroke-linejoin="round" d="M 8474,8609 L 8474,8459"/>
 <path fill="none" stroke="rgb(179,179,179)" stroke-linejoin="round" d="M 10046,8609 L 10046,8459"/>
 <path fill="none" stroke="rgb(179,179,179)" stroke-linejoin="round" d="M 10046,8609 L 10046,8459"/>
 <path fill="none" stroke="rgb(179,179,179)" stroke-linejoin="round" d="M 11618,8609 L 11618,8459"/>
 <path fill="none" stroke="rgb(179,179,179)" stroke-linejoin="round" d="M 11618,8609 L 11618,8459"/>
 <path fill="none" stroke="rgb(179,179,179)" stroke-linejoin="round" d="M 13190,8609 L 13190,8459"/>
 <path fill="none" stroke="rgb(179,179,179)" stroke-linejoin="round" d="M 13190,8609 L 13190,8459"/>
 <path fill="none" stroke="rgb(179,179,179)" stroke-linejoin="round" d="M 14762,8609 L 14762,8459"/>
 <path fill="none" stroke="rgb(179,179,179)" stroke-linejoin="round" d="M 14762,8609 L 14762,8459"/>
 <path fill="none" stroke="rgb(179,179,179)" stroke-linejoin="round" d="M 2188,8459 L 14762,8459"/>
 <path fill="none" stroke="rgb(179,179,179)" stroke-linejoin="round" d="M 2038,8459 L 2188,8459"/>
 <path fill="none" stroke="rgb(179,179,179)" stroke-linejoin="round" d="M 2038,8459 L 2188,8459"/>
 <path fill="none" stroke="rgb(179,179,179)" stroke-linejoin="round" d="M 2038,7576 L 2188,7576"/>
 <path fill="none" stroke="rgb(179,179,179)" stroke-linejoin="round" d="M 2038,7576 L 2188,7576"/>
 <path fill="none" stroke="rgb(179,179,179)" stroke-linejoin="round" d="M 2038,6694 L 2188,6694"/>
 <path fill="none" stroke="rgb(179,179,179)" stroke-linejoin="round" d="M 2038,6694 L 2188,6694"/>
 <path fill="none" stroke="rgb(179,179,179)" stroke-linejoin="round" d="M 2038,5811 L 2188,5811"/>
 <path fill="none" stroke="rgb(179,179,179)" stroke-linejoin="round" d="M 2038,5811 L 2188,5811"/>
 <path fill="none" stroke="rgb(179,179,179)" stroke-linejoin="round" d="M 2038,4930 L 2188,4930"/>
 <path fill="none" stroke="rgb(179,179,179)" stroke-linejoin="round" d="M 2038,4930 L 2188,4930"/>
 <path fill="none" stroke="rgb(179,179,179)" stroke-linejoin="round" d="M 2038,4048 L 2188,4048"/>
 <path fill="none" stroke="rgb(179,179,179)" stroke-linejoin="round" d="M 2038,4048 L 2188,4048"/>
 <path fill="none" stroke="rgb(179,179,179)" stroke-linejoin="round" d="M 2038,3165 L 2188,3165"/>
 <path fill="none" stroke="rgb(179,179,179)" stroke-linejoin="round" d="M 2038,3165 L 2188,3165"/>
 <path fill="none" stroke="rgb(179,179,179)" stroke-linejoin="round" d="M 2038,2283 L 2188,2283"/>
 <path fill="none" stroke="rgb(179,179,179)" stroke-linejoin="round" d="M 2038,2283 L 2188,2283"/>
 <path fill="none" stroke="rgb(179,179,179)" stroke-linejoin="round" d="M 2038,1401 L 2188,1401"/>
 <path fill="none" stroke="rgb(179,179,179)" stroke-linejoin="round" d="M 2038,1401 L 2188,1401"/>
 <path fill="none" stroke="rgb(179,179,179)" stroke-linejoin="round" d="M 2188,8459 L 2188,1401"/>
 <path fill="none" stroke="rgb(0,69,134)" stroke-width="80" stroke-linejoin="round" d="M 2973,2411 L 3759,4197 5331,6401 6117,5691 6903,4884 10046,3297 13976,3027"/>
 <path fill="rgb(0,69,134)" stroke="none" d="M 2848,2286 L 2848,2536 3098,2536 3098,2286 2848,2286 Z"/>
 <path fill="none" stroke="rgb(0,69,134)" stroke-linejoin="round" d="M 2848,2286 L 2848,2536 3098,2536 3098,2286 2848,2286 Z"/>
 <path fill="rgb(0,69,134)" stroke="none" d="M 3634,4072 L 3634,4322 3884,4322 3884,4072 3634,4072 Z"/>
 <path fill="none" stroke="rgb(0,69,134)" stroke-linejoin="round" d="M 3634,4072 L 3634,4322 3884,4322 3884,4072 3634,4072 Z"/>
 <path fill="rgb(0,69,134)" stroke="none" d="M 5206,6276 L 5206,6526 5456,6526 5456,6276 5206,6276 Z"/>
 <path fill="none" stroke="rgb(0,69,134)" stroke-linejoin="round" d="M 5206,6276 L 5206,6526 5456,6526 5456,6276 5206,6276 Z"/>
 <path fill="rgb(0,69,134)" stroke="none" d="M 5992,5566 L 5992,5816 6242,5816 6242,5566 5992,5566 Z"/>
 <path fill="none" stroke="rgb(0,69,134)" stroke-linejoin="round" d="M 5992,5566 L 5992,5816 6242,5816 6242,5566 5992,5566 Z"/>
 <path fill="rgb(0,69,134)" stroke="none" d="M 6778,4759 L 6778,5009 7028,5009 7028,4759 6778,4759 Z"/>
 <path fill="none" stroke="rgb(0,69,134)" stroke-linejoin="round" d="M 6778,4759 L 6778,5009 7028,5009 7028,4759 6778,4759 Z"/>
 <path fill="rgb(0,69,134)" stroke="none" d="M 9921,3172 L 9921,3422 10171,3422 10171,3172 9921,3172 Z"/>
 <path fill="none" stroke="rgb(0,69,134)" stroke-linejoin="round" d="M 9921,3172 L 9921,3422 10171,3422 10171,3172 9921,3172 Z"/>
 <path fill="rgb(0,69,134)" stroke="none" d="M 13851,2902 L 13851,3152 14101,3152 14101,2902 13851,2902 Z"/>
 <path fill="none" stroke="rgb(0,69,134)" stroke-linejoin="round" d="M 13851,2902 L 13851,3152 14101,3152 14101,2902 13851,2902 Z"/>
 <text class="TextShape"><tspan class="TextParagraph" font-family="Liberation Sans, sans-serif" font-size="353px" font-weight="400"><tspan class="TextPosition" x="2095" y="8947"><tspan fill="rgb(0,0,0)" stroke="none">0</tspan></tspan></tspan></text>
 <text class="TextShape"><tspan class="TextParagraph" font-family="Liberation Sans, sans-serif" font-size="353px" font-weight="400"><tspan class="TextPosition" x="3666" y="8947"><tspan fill="rgb(0,0,0)" stroke="none">2</tspan></tspan></tspan></text>
 <text class="TextShape"><tspan class="TextParagraph" font-family="Liberation Sans, sans-serif" font-size="353px" font-weight="400"><tspan class="TextPosition" x="5238" y="8947"><tspan fill="rgb(0,0,0)" stroke="none">4</tspan></tspan></tspan></text>
 <text class="TextShape"><tspan class="TextParagraph" font-family="Liberation Sans, sans-serif" font-size="353px" font-weight="400"><tspan class="TextPosition" x="6810" y="8947"><tspan fill="rgb(0,0,0)" stroke="none">6</tspan></tspan></tspan></text>
 <text class="TextShape"><tspan class="TextParagraph" font-family="Liberation Sans, sans-serif" font-size="353px" font-weight="400"><tspan class="TextPosition" x="8382" y="8947"><tspan fill="rgb(0,0,0)" stroke="none">8</tspan></tspan></tspan></text>
 <text class="TextShape"><tspan class="TextParagraph" font-family="Liberation Sans, sans-serif" font-size="353px" font-weight="400"><tspan class="TextPosition" x="9862" y="8947"><tspan fill="rgb(0,0,0)" stroke="none">10</tspan></tspan></tspan></text>
 <text class="TextShape"><tspan class="TextParagraph" font-family="Liberation Sans, sans-serif" font-size="353px" font-weight="400"><tspan class="TextPosition" x="11434" y="8947"><tspan fill="rgb(0,0,0)" stroke="none">12</tspan></tspan></tspan></text>
 <text class="TextShape"><tspan class="TextParagraph" font-family="Liberation Sans, sans-serif" font-size="353px" font-weight="400"><tspan class="TextPosition" x="13006" y="8947"><tspan fill="rgb(0,0,0)" stroke="none">14</tspan></tspan></tspan></text>
 <text class="TextShape"><tspan class="TextParagraph" font-family="Liberation Sans, sans-serif" font-size="353px" font-weight="400"><tspan class="TextPosition" x="14578" y="8947"><tspan fill="rgb(0,0,0)" stroke="none">16</tspan></tspan></tspan></text>
 <text class="TextShape"><tspan class="TextParagraph" font-family="Liberation Sans, sans-serif" font-size="353px" font-weight="400"><tspan class="TextPosition" x="1277" y="8539"><tspan fill="rgb(0,0,0)" stroke="none">4.75</tspan></tspan></tspan></text>
 <text class="TextShape"><tspan class="TextParagraph" font-family="Liberation Sans, sans-serif" font-size="353px" font-weight="400"><tspan class="TextPosition" x="1462" y="7656"><tspan fill="rgb(0,0,0)" stroke="none">4.8</tspan></tspan></tspan></text>
 <text class="TextShape"><tspan class="TextParagraph" font-family="Liberation Sans, sans-serif" font-size="353px" font-weight="400"><tspan class="TextPosition" x="1277" y="6774"><tspan fill="rgb(0,0,0)" stroke="none">4.85</tspan></tspan></tspan></text>
 <text class="TextShape"><tspan class="TextParagraph" font-family="Liberation Sans, sans-serif" font-size="353px" font-weight="400"><tspan class="TextPosition" x="1462" y="5891"><tspan fill="rgb(0,0,0)" stroke="none">4.9</tspan></tspan></tspan></text>
 <text class="TextShape"><tspan class="TextParagraph" font-family="Liberation Sans, sans-serif" font-size="353px" font-weight="400"><tspan class="TextPosition" x="1277" y="5009"><tspan fill="rgb(0,0,0)" stroke="none">4.95</tspan></tspan></tspan></text>
 <text class="TextShape"><tspan class="TextParagraph" font-family="Liberation Sans, sans-serif" font-size="353px" font-weight="400"><tspan class="TextPosition" x="1753" y="4127"><tspan fill="rgb(0,0,0)" stroke="none">5</tspan></tspan></tspan></text>
 <text class="TextShape"><tspan class="TextParagraph" font-family="Liberation Sans, sans-serif" font-size="353px" font-weight="400"><tspan class="TextPosition" x="1277" y="3244"><tspan fill="rgb(0,0,0)" stroke="none">5.05</tspan></tspan></tspan></text>
 <text class="TextShape"><tspan class="TextParagraph" font-family="Liberation Sans, sans-serif" font-size="353px" font-weight="400"><tspan class="TextPosition" x="1462" y="2362"><tspan fill="rgb(0,0,0)" stroke="none">5.1</tspan></tspan></tspan></text>
 <text class="TextShape"><tspan class="TextParagraph" font-family="Liberation Sans, sans-serif" font-size="353px" font-weight="400"><tspan class="TextPosition" x="1277" y="1480"><tspan fill="rgb(0,0,0)" stroke="none">5.15</tspan></tspan></tspan></text>
 <text class="TextShape"><tspan class="TextParagraph" font-family="Liberation Sans, sans-serif" font-size="459px" font-weight="400"><tspan class="TextPosition" x="7011" y="794"><tspan fill="rgb(0,0,0)" stroke="none">Power</tspan></tspan></tspan></text>
 <text class="TextShape"><tspan class="TextParagraph" font-family="Liberation Sans, sans-serif" font-size="318px" font-weight="400"><tspan class="TextPosition" x="6274" y="9565"><tspan fill="rgb(0,0,0)" stroke="none">Turbolent intensity at inlet</tspan></tspan></tspan></text>
 <text class="TextShape" transform="translate(797,6642) rotate(-90) translate(-797,-6642)"><tspan class="TextParagraph" font-family="Liberation Sans, sans-serif" font-size="318px" font-weight="400"><tspan class="TextPosition" x="797" y="6642"><tspan fill="rgb(0,0,0)" stroke="none">Power generated [W]</tspan></tspan></tspan></text>
</svg>