<?xml version="1.0" encoding="UTF-8"?>
<!DOCTYPE svg PUBLIC "-//W3C//DTD SVG 1.1//EN" "http://www.w3.org/Graphics/SVG/1.1/DTD/svg11.dtd">
<svg width="152mm" height="102mm" viewBox="0 0 15200 10200" version="1.1" xmlns="http://www.w3.org/2000/svg" stroke-width="28.222" stroke-linejoin="round" xml:space="preserve">
 <path fill="rgb(255,255,255)" stroke="none" d="M 7627,10160 L 7,10160 7,0 15247,0 15247,10160 7627,10160 Z"/>
 <path fill="none" stroke="rgb(179,179,179)" stroke-linejoin="round" d="M 7847,8458 L 2181,8458 2181,1402 13513,1402 13513,8458 7847,8458 Z"/>
 <path fill="none" stroke="rgb(179,179,179)" stroke-linejoin="round" d="M 13513,8457 L 2181,8457"/>
 <path fill="none" stroke="rgb(179,179,179)" stroke-linejoin="round" d="M 13513,7574 L 2181,7574"/>
 <path fill="none" stroke="rgb(179,179,179)" stroke-linejoin="round" d="M 13513,6692 L 2181,6692"/>
 <path fill="none" stroke="rgb(179,179,179)" stroke-linejoin="round" d="M 13513,5810 L 2181,5810"/>
 <path fill="none" stroke="rgb(179,179,179)" stroke-linejoin="round" d="M 13513,4929 L 2181,4929"/>
 <path fill="none" stroke="rgb(179,179,179)" stroke-linejoin="round" d="M 13513,4047 L 2181,4047"/>
 <path fill="none" stroke="rgb(179,179,179)" stroke-linejoin="round" d="M 13513,3165 L 2181,3165"/>
 <path fill="none" stroke="rgb(179,179,179)" stroke-linejoin="round" d="M 13513,2283 L 2181,2283"/>
 <path fill="none" stroke="rgb(179,179,179)" stroke-linejoin="round" d="M 13513,1400 L 2181,1400"/>
 <path fill="none" stroke="rgb(179,179,179)" stroke-linejoin="round" d="M 2181,8607 L 2181,8457"/>
 <path fill="none" stroke="rgb(179,179,179)" stroke-linejoin="round" d="M 2181,8607 L 2181,8457"/>
 <path fill="none" stroke="rgb(179,179,179)" stroke-linejoin="round" d="M 3597,8607 L 3597,8457"/>
 <path fill="none" stroke="rgb(179,179,179)" stroke-linejoin="round" d="M 3597,8607 L 3597,8457"/>
 <path fill="none" stroke="rgb(179,179,179)" stroke-linejoin="round" d="M 5014,8607 L 5014,8457"/>
 <path fill="none" stroke="rgb(179,179,179)" stroke-linejoin="round" d="M 5014,8607 L 5014,8457"/>
 <path fill="none" stroke="rgb(179,179,179)" stroke-linejoin="round" d="M 6430,8607 L 6430,8457"/>
 <path fill="none" stroke="rgb(179,179,179)" stroke-linejoin="round" d="M 6430,8607 L 6430,8457"/>
 <path fill="none" stroke="rgb(179,179,179)" stroke-linejoin="round" d="M 7846,8607 L 7846,8457"/>
 <path fill="none" stroke="rgb(179,179,179)" stroke-linejoin="round" d="M 7846,8607 L 7846,8457"/>
 <path fill="none" stroke="rgb(179,179,179)" stroke-linejoin="round" d="M 9263,8607 L 9263,8457"/>
 <path fill="none" stroke="rgb(179,179,179)" stroke-linejoin="round" d="M 9263,8607 L 9263,8457"/>
 <path fill="none" stroke="rgb(179,179,179)" stroke-linejoin="round" d="M 10679,8607 L 10679,8457"/>
 <path fill="none" stroke="rgb(179,179,179)" stroke-linejoin="round" d="M 10679,8607 L 10679,8457"/>
 <path fill="none" stroke="rgb(179,179,179)" stroke-linejoin="round" d="M 12096,8607 L 12096,8457"/>
 <path fill="none" stroke="rgb(179,179,179)" stroke-linejoin="round" d="M 12096,8607 L 12096,8457"/>
 <path fill="none" stroke="rgb(179,179,179)" stroke-linejoin="round" d="M 13513,8607 L 13513,8457"/>
 <path fill="none" stroke="rgb(179,179,179)" stroke-linejoin="round" d="M 13513,8607 L 13513,8457"/>
 <path fill="none" stroke="rgb(179,179,179)" stroke-linejoin="round" d="M 2181,8457 L 13513,8457"/>
 <path fill="none" stroke="rgb(179,179,179)" stroke-linejoin="round" d="M 2031,8457 L 2181,8457"/>
 <path fill="none" stroke="rgb(179,179,179)" stroke-linejoin="round" d="M 2031,8457 L 2181,8457"/>
 <path fill="none" stroke="rgb(179,179,179)" stroke-linejoin="round" d="M 2031,7574 L 2181,7574"/>
 <path fill="none" stroke="rgb(179,179,179)" stroke-linejoin="round" d="M 2031,7574 L 2181,7574"/>
 <path fill="none" stroke="rgb(179,179,179)" stroke-linejoin="round" d="M 2031,6692 L 2181,6692"/>
 <path fill="none" stroke="rgb(179,179,179)" stroke-linejoin="round" d="M 2031,6692 L 2181,6692"/>
 <path fill="none" stroke="rgb(179,179,179)" stroke-linejoin="round" d="M 2031,5810 L 2181,5810"/>
 <path fill="none" stroke="rgb(179,179,179)" stroke-linejoin="round" d="M 2031,5810 L 2181,5810"/>
 <path fill="none" stroke="rgb(179,179,179)" stroke-linejoin="round" d="M 2031,4929 L 2181,4929"/>
 <path fill="none" stroke="rgb(179,179,179)" stroke-linejoin="round" d="M 2031,4929 L 2181,4929"/>
 <path fill="none" stroke="rgb(179,179,179)" stroke-linejoin="round" d="M 2031,4047 L 2181,4047"/>
 <path fill="none" stroke="rgb(179,179,179)" stroke-linejoin="round" d="M 2031,4047 L 2181,4047"/>
 <path fill="none" stroke="rgb(179,179,179)" stroke-linejoin="round" d="M 2031,3165 L 2181,3165"/>
 <path fill="none" stroke="rgb(179,179,179)" stroke-linejoin="round" d="M 2031,3165 L 2181,3165"/>
 <path fill="none" stroke="rgb(179,179,179)" stroke-linejoin="round" d="M 2031,2283 L 2181,2283"/>
 <path fill="none" stroke="rgb(179,179,179)" stroke-linejoin="round" d="M 2031,2283 L 2181,2283"/>
 <path fill="none" stroke="rgb(179,179,179)" stroke-linejoin="round" d="M 2031,1400 L 2181,1400"/>
 <path fill="none" stroke="rgb(179,179,179)" stroke-linejoin="round" d="M 2031,1400 L 2181,1400"/>
 <path fill="none" stroke="rgb(179,179,179)" stroke-linejoin="round" d="M 2181,8457 L 2181,1401"/>
 <path fill="none" stroke="rgb(179,179,179)" stroke-linejoin="round" d="M 13663,8457 L 13513,8457"/>
 <path fill="none" stroke="rgb(179,179,179)" stroke-linejoin="round" d="M 13663,8457 L 13513,8457"/>
 <path fill="none" stroke="rgb(179,179,179)" stroke-linejoin="round" d="M 13663,7672 L 13513,7672"/>
 <path fill="none" stroke="rgb(179,179,179)" stroke-linejoin="round" d="M 13663,7672 L 13513,7672"/>
 <path fill="none" stroke="rgb(179,179,179)" stroke-linejoin="round" d="M 13663,6888 L 13513,6888"/>
 <path fill="none" stroke="rgb(179,179,179)" stroke-linejoin="round" d="M 13663,6888 L 13513,6888"/>
 <path fill="none" stroke="rgb(179,179,179)" stroke-linejoin="round" d="M 13663,6104 L 13513,6104"/>
 <path fill="none" stroke="rgb(179,179,179)" stroke-linejoin="round" d="M 13663,6104 L 13513,6104"/>
 <path fill="none" stroke="rgb(179,179,179)" stroke-linejoin="round" d="M 13663,5320 L 13513,5320"/>
 <path fill="none" stroke="rgb(179,179,179)" stroke-linejoin="round" d="M 13663,5320 L 13513,5320"/>
 <path fill="none" stroke="rgb(179,179,179)" stroke-linejoin="round" d="M 13663,4537 L 13513,4537"/>
 <path fill="none" stroke="rgb(179,179,179)" stroke-linejoin="round" d="M 13663,4537 L 13513,4537"/>
 <path fill="none" stroke="rgb(179,179,179)" stroke-linejoin="round" d="M 13663,3753 L 13513,3753"/>
 <path fill="none" stroke="rgb(179,179,179)" stroke-linejoin="round" d="M 13663,3753 L 13513,3753"/>
 <path fill="none" stroke="rgb(179,179,179)" stroke-linejoin="round" d="M 13663,2969 L 13513,2969"/>
 <path fill="none" stroke="rgb(179,179,179)" stroke-linejoin="round" d="M 13663,2969 L 13513,2969"/>
 <path fill="none" stroke="rgb(179,179,179)" stroke-linejoin="round" d="M 13663,2185 L 13513,2185"/>
 <path fill="none" stroke="rgb(179,179,179)" stroke-linejoin="round" d="M 13663,2185 L 13513,2185"/>
 <path fill="none" stroke="rgb(179,179,179)" stroke-linejoin="round" d="M 13663,1401 L 13513,1401"/>
 <path fill="none" stroke="rgb(179,179,179)" stroke-linejoin="round" d="M 13663,1401 L 13513,1401"/>
 <path fill="none" stroke="rgb(179,179,179)" stroke-linejoin="round" d="M 13513,8457 L 13513,1401"/>
 <path fill="none" stroke="rgb(255,66,14)" stroke-width="80" stroke-linejoin="round" d="M 2889,6492 L 3597,6649 5014,6913 5722,7042 6430,7171 9263,7610 12804,8068"/>
 <path fill="rgb(255,66,14)" stroke="none" d="M 2764,6492 L 2889,6617 3014,6492 2889,6367 2764,6492 Z"/>
 <path fill="none" stroke="rgb(255,66,14)" stroke-linejoin="round" d="M 2764,6492 L 2889,6617 3014,6492 2889,6367 2764,6492 Z"/>
 <path fill="rgb(255,66,14)" stroke="none" d="M 3472,6649 L 3597,6774 3722,6649 3597,6524 3472,6649 Z"/>
 <path fill="none" stroke="rgb(255,66,14)" stroke-linejoin="round" d="M 3472,6649 L 3597,6774 3722,6649 3597,6524 3472,6649 Z"/>
 <path fill="rgb(255,66,14)" stroke="none" d="M 4889,6913 L 5014,7038 5139,6913 5014,6788 4889,6913 Z"/>
 <path fill="none" stroke="rgb(255,66,14)" stroke-linejoin="round" d="M 4889,6913 L 5014,7038 5139,6913 5014,6788 4889,6913 Z"/>
 <path fill="rgb(255,66,14)" stroke="none" d="M 5597,7042 L 5722,7167 5847,7042 5722,6917 5597,7042 Z"/>
 <path fill="none" stroke="rgb(255,66,14)" stroke-linejoin="round" d="M 5597,7042 L 5722,7167 5847,7042 5722,6917 5597,7042 Z"/>
 <path fill="rgb(255,66,14)" stroke="none" d="M 6305,7171 L 6430,7296 6555,7171 6430,7046 6305,7171 Z"/>
 <path fill="none" stroke="rgb(255,66,14)" stroke-linejoin="round" d="M 6305,7171 L 6430,7296 6555,7171 6430,7046 6305,7171 Z"/>
 <path fill="rgb(255,66,14)" stroke="none" d="M 9138,7610 L 9263,7735 9388,7610 9263,7485 9138,7610 Z"/>
 <path fill="none" stroke="rgb(255,66,14)" stroke-linejoin="round" d="M 9138,7610 L 9263,7735 9388,7610 9263,7485 9138,7610 Z"/>
 <path fill="rgb(255,66,14)" stroke="none" d="M 12679,8068 L 12804,8193 12929,8068 12804,7943 12679,8068 Z"/>
 <path fill="none" stroke="rgb(255,66,14)" stroke-linejoin="round" d="M 12679,8068 L 12804,8193 12929,8068 12804,7943 12679,8068 Z"/>
 <path fill="none" stroke="rgb(0,69,134)" stroke-width="80" stroke-linejoin="round" d="M 2889,1883 L 3597,3598 5014,5683 5722,4915 6430,4050 9263,2266 12804,1790"/>
 <path fill="rgb(0,69,134)" stroke="none" d="M 2764,1758 L 2764,2008 3014,2008 3014,1758 2764,1758 Z"/>
 <path fill="none" stroke="rgb(0,69,134)" stroke-linejoin="round" d="M 2764,1758 L 2764,2008 3014,2008 3014,1758 2764,1758 Z"/>
 <path fill="rgb(0,69,134)" stroke="none" d="M 3472,3473 L 3472,3723 3722,3723 3722,3473 3472,3473 Z"/>
 <path fill="none" stroke="rgb(0,69,134)" stroke-linejoin="round" d="M 3472,3473 L 3472,3723 3722,3723 3722,3473 3472,3473 Z"/>
 <path fill="rgb(0,69,134)" stroke="none" d="M 4889,5558 L 4889,5808 5139,5808 5139,5558 4889,5558 Z"/>
 <path fill="none" stroke="rgb(0,69,134)" stroke-linejoin="round" d="M 4889,5558 L 4889,5808 5139,5808 5139,5558 4889,5558 Z"/>
 <path fill="rgb(0,69,134)" stroke="none" d="M 5597,4790 L 5597,5040 5847,5040 5847,4790 5597,4790 Z"/>
 <path fill="none" stroke="rgb(0,69,134)" stroke-linejoin="round" d="M 5597,4790 L 5597,5040 5847,5040 5847,4790 5597,4790 Z"/>
 <path fill="rgb(0,69,134)" stroke="none" d="M 6305,3925 L 6305,4175 6555,4175 6555,3925 6305,3925 Z"/>
 <path fill="none" stroke="rgb(0,69,134)" stroke-linejoin="round" d="M 6305,3925 L 6305,4175 6555,4175 6555,3925 6305,3925 Z"/>
 <path fill="rgb(0,69,134)" stroke="none" d="M 9138,2141 L 9138,2391 9388,2391 9388,2141 9138,2141 Z"/>
 <path fill="none" stroke="rgb(0,69,134)" stroke-linejoin="round" d="M 9138,2141 L 9138,2391 9388,2391 9388,2141 9138,2141 Z"/>
 <path fill="rgb(0,69,134)" stroke="none" d="M 12679,1665 L 12679,1915 12929,1915 12929,1665 12679,1665 Z"/>
 <path fill="none" stroke="rgb(0,69,134)" stroke-linejoin="round" d="M 12679,1665 L 12679,1915 12929,1915 12929,1665 12679,1665 Z"/>
 <text class="TextShape"><tspan class="TextParagraph" font-family="Liberation Sans, sans-serif" font-size="353px" font-weight="400"><tspan class="TextPosition" x="2088" y="8945"><tspan fill="rgb(0,0,0)" stroke="none">0</tspan></tspan></tspan></text>
 <text class="TextShape"><tspan class="TextParagraph" font-family="Liberation Sans, sans-serif" font-size="353px" font-weight="400"><tspan class="TextPosition" x="3504" y="8945"><tspan fill="rgb(0,0,0)" stroke="none">2</tspan></tspan></tspan></text>
 <text class="TextShape"><tspan class="TextParagraph" font-family="Liberation Sans, sans-serif" font-size="353px" font-weight="400"><tspan class="TextPosition" x="4921" y="8945"><tspan fill="rgb(0,0,0)" stroke="none">4</tspan></tspan></tspan></text>
 <text class="TextShape"><tspan class="TextParagraph" font-family="Liberation Sans, sans-serif" font-size="353px" font-weight="400"><tspan class="TextPosition" x="6337" y="8945"><tspan fill="rgb(0,0,0)" stroke="none">6</tspan></tspan></tspan></text>
 <text class="TextShape"><tspan class="TextParagraph" font-family="Liberation Sans, sans-serif" font-size="353px" font-weight="400"><tspan class="TextPosition" x="7754" y="8945"><tspan fill="rgb(0,0,0)" stroke="none">8</tspan></tspan></tspan></text>
 <text class="TextShape"><tspan class="TextParagraph" font-family="Liberation Sans, sans-serif" font-size="353px" font-weight="400"><tspan class="TextPosition" x="9079" y="8945"><tspan fill="rgb(0,0,0)" stroke="none">10</tspan></tspan></tspan></text>
 <text class="TextShape"><tspan class="TextParagraph" font-family="Liberation Sans, sans-serif" font-size="353px" font-weight="400"><tspan class="TextPosition" x="10495" y="8945"><tspan fill="rgb(0,0,0)" stroke="none">12</tspan></tspan></tspan></text>
 <text class="TextShape"><tspan class="TextParagraph" font-family="Liberation Sans, sans-serif" font-size="353px" font-weight="400"><tspan class="TextPosition" x="11912" y="8945"><tspan fill="rgb(0,0,0)" stroke="none">14</tspan></tspan></tspan></text>
 <text class="TextShape"><tspan class="TextParagraph" font-family="Liberation Sans, sans-serif" font-size="353px" font-weight="400"><tspan class="TextPosition" x="13329" y="8945"><tspan fill="rgb(0,0,0)" stroke="none">16</tspan></tspan></tspan></text>
 <text class="TextShape"><tspan class="TextParagraph" font-family="Liberation Sans, sans-serif" font-size="353px" font-weight="400"><tspan class="TextPosition" x="1270" y="8537"><tspan fill="rgb(0,0,0)" stroke="none">4.85</tspan></tspan></tspan></text>
 <text class="TextShape"><tspan class="TextParagraph" font-family="Liberation Sans, sans-serif" font-size="353px" font-weight="400"><tspan class="TextPosition" x="1455" y="7654"><tspan fill="rgb(0,0,0)" stroke="none">4.9</tspan></tspan></tspan></text>
 <text class="TextShape"><tspan class="TextParagraph" font-family="Liberation Sans, sans-serif" font-size="353px" font-weight="400"><tspan class="TextPosition" x="1270" y="6772"><tspan fill="rgb(0,0,0)" stroke="none">4.95</tspan></tspan></tspan></text>
 <text class="TextShape"><tspan class="TextParagraph" font-family="Liberation Sans, sans-serif" font-size="353px" font-weight="400"><tspan class="TextPosition" x="1746" y="5890"><tspan fill="rgb(0,0,0)" stroke="none">5</tspan></tspan></tspan></text>
 <text class="TextShape"><tspan class="TextParagraph" font-family="Liberation Sans, sans-serif" font-size="353px" font-weight="400"><tspan class="TextPosition" x="1270" y="5008"><tspan fill="rgb(0,0,0)" stroke="none">5.05</tspan></tspan></tspan></text>
 <text class="TextShape"><tspan class="TextParagraph" font-family="Liberation Sans, sans-serif" font-size="353px" font-weight="400"><tspan class="TextPosition" x="1455" y="4126"><tspan fill="rgb(0,0,0)" stroke="none">5.1</tspan></tspan></tspan></text>
 <text class="TextShape"><tspan class="TextParagraph" font-family="Liberation Sans, sans-serif" font-size="353px" font-weight="400"><tspan class="TextPosition" x="1270" y="3244"><tspan fill="rgb(0,0,0)" stroke="none">5.15</tspan></tspan></tspan></text>
 <text class="TextShape"><tspan class="TextParagraph" font-family="Liberation Sans, sans-serif" font-size="353px" font-weight="400"><tspan class="TextPosition" x="1455" y="2362"><tspan fill="rgb(0,0,0)" stroke="none">5.2</tspan></tspan></tspan></text>
 <text class="TextShape"><tspan class="TextParagraph" font-family="Liberation Sans, sans-serif" font-size="353px" font-weight="400"><tspan class="TextPosition" x="1270" y="1479"><tspan fill="rgb(0,0,0)" stroke="none">5.25</tspan></tspan></tspan></text>
 <text class="TextShape"><tspan class="TextParagraph" font-family="Liberation Sans, sans-serif" font-size="353px" font-weight="400"><tspan class="TextPosition" x="13763" y="8537"><tspan fill="rgb(0,0,0)" stroke="none">-0.18</tspan></tspan></tspan></text>
 <text class="TextShape"><tspan class="TextParagraph" font-family="Liberation Sans, sans-serif" font-size="353px" font-weight="400"><tspan class="TextPosition" x="13763" y="7752"><tspan fill="rgb(0,0,0)" stroke="none">-0.16</tspan></tspan></tspan></text>
 <text class="TextShape"><tspan class="TextParagraph" font-family="Liberation Sans, sans-serif" font-size="353px" font-weight="400"><tspan class="TextPosition" x="13763" y="6968"><tspan fill="rgb(0,0,0)" stroke="none">-0.14</tspan></tspan></tspan></text>
 <text class="TextShape"><tspan class="TextParagraph" font-family="Liberation Sans, sans-serif" font-size="353px" font-weight="400"><tspan class="TextPosition" x="13763" y="6184"><tspan fill="rgb(0,0,0)" stroke="none">-0.12</tspan></tspan></tspan></text>
 <text class="TextShape"><tspan class="TextParagraph" font-family="Liberation Sans, sans-serif" font-size="353px" font-weight="400"><tspan class="TextPosition" x="13763" y="5400"><tspan fill="rgb(0,0,0)" stroke="none">-0.1</tspan></tspan></tspan></text>
 <text class="TextShape"><tspan class="TextParagraph" font-family="Liberation Sans, sans-serif" font-size="353px" font-weight="400"><tspan class="TextPosition" x="13763" y="4616"><tspan fill="rgb(0,0,0)" stroke="none">-0.08</tspan></tspan></tspan></text>
 <text class="TextShape"><tspan class="TextParagraph" font-family="Liberation Sans, sans-serif" font-size="353px" font-weight="400"><tspan class="TextPosition" x="13763" y="3832"><tspan fill="rgb(0,0,0)" stroke="none">-0.06</tspan></tspan></tspan></text>
 <text class="TextShape"><tspan class="TextParagraph" font-family="Liberation Sans, sans-serif" font-size="353px" font-weight="400"><tspan class="TextPosition" x="13763" y="3048"><tspan fill="rgb(0,0,0)" stroke="none">-0.04</tspan></tspan></tspan></text>
 <text class="TextShape"><tspan class="TextParagraph" font-family="Liberation Sans, sans-serif" font-size="353px" font-weight="400"><tspan class="TextPosition" x="13763" y="2264"><tspan fill="rgb(0,0,0)" stroke="none">-0.02</tspan></tspan></tspan></text>
 <text class="TextShape"><tspan class="TextParagraph" font-family="Liberation Sans, sans-serif" font-size="353px" font-weight="400"><tspan class="TextPosition" x="13763" y="1480"><tspan fill="rgb(0,0,0)" stroke="none">0</tspan></tspan></tspan></text>
 <text class="TextShape"><tspan class="TextParagraph" font-family="Liberation Sans, sans-serif" font-size="459px" font-weight="400"><tspan class="TextPosition" x="7055" y="744"><tspan fill="rgb(0,0,0)" stroke="none">Power</tspan></tspan></tspan></text>
 <path fill="rgb(255,255,255)" stroke="none" d="M 10906,5685 L 8742,5685 8742,3954 13070,3954 13070,5685 10906,5685 Z"/>
 <path fill="none" stroke="rgb(0,69,134)" stroke-width="80" stroke-linejoin="round" d="M 9132,4477 L 9932,4477"/>
 <path fill="rgb(0,69,134)" stroke="none" d="M 9426,4372 L 9426,4583 9637,4583 9637,4372 9426,4372 Z"/>
 <path fill="none" stroke="rgb(0,69,134)" stroke-linejoin="round" d="M 9426,4372 L 9426,4583 9637,4583 9637,4372 9426,4372 Z"/>
 <path fill="none" stroke="rgb(255,66,14)" stroke-width="80" stroke-linejoin="round" d="M 9132,5159 L 9932,5159"/>
 <path fill="rgb(255,66,14)" stroke="none" d="M 9426,5159 L 9532,5265 9637,5159 9532,5055 9426,5159 Z"/>
 <path fill="none" stroke="rgb(255,66,14)" stroke-linejoin="round" d="M 9426,5159 L 9532,5265 9637,5159 9532,5055 9426,5159 Z"/>
 <text class="TextShape"><tspan class="TextParagraph" font-family="Liberation Sans, sans-serif" font-size="353px" font-weight="400"><tspan class="TextPosition" x="10032" y="4556"><tspan fill="rgb(0,0,0)" stroke="none">Power (Pressure)</tspan></tspan></tspan></text>
 <text class="TextShape"><tspan class="TextParagraph" font-family="Liberation Sans, sans-serif" font-size="353px" font-weight="400"><tspan class="TextPosition" x="10032" y="5238"><tspan fill="rgb(0,0,0)" stroke="none">Power (Shear)</tspan></tspan></tspan></text>
 <text class="TextShape"><tspan class="TextParagraph" font-family="Liberation Sans, sans-serif" font-size="318px" font-weight="400"><tspan class="TextPosition" x="6062" y="9563"><tspan fill="rgb(0,0,0)" stroke="none">Turbolent intensity at inlet</tspan></tspan></tspan></text>
 <text class="TextShape" transform="translate(790,6641) rotate(-90) translate(-790,-6641)"><tspan class="TextParagraph" font-family="Liberation Sans, sans-serif" font-size="318px" font-weight="400"><tspan class="TextPosition" x="790" y="6641"><tspan fill="rgb(0,0,0)" stroke="none">Power generated [W]</tspan></tspan></tspan></text>
</svg>