<?xml version="1.0" encoding="UTF-8"?>
<!DOCTYPE svg PUBLIC "-//W3C//DTD SVG 1.1//EN" "http://www.w3.org/Graphics/SVG/1.1/DTD/svg11.dtd">
<svg width="152mm" height="102mm" viewBox="0 0 15200 10200" version="1.1" xmlns="http://www.w3.org/2000/svg" stroke-width="28.222" stroke-linejoin="round" xml:space="preserve">
 <path fill="rgb(255,255,255)" stroke="none" d="M 7624,10160 L 4,10160 4,0 15244,0 15244,10160 7624,10160 Z"/>
 <path fill="none" stroke="rgb(179,179,179)" stroke-linejoin="round" d="M 8413,8461 L 2074,8461 2074,1403 14753,1403 14753,8461 8413,8461 Z"/>
 <path fill="none" stroke="rgb(179,179,179)" stroke-linejoin="round" d="M 14753,8460 L 2074,8460"/>
 <path fill="none" stroke="rgb(179,179,179)" stroke-linejoin="round" d="M 14753,7754 L 2074,7754"/>
 <path fill="none" stroke="rgb(179,179,179)" stroke-linejoin="round" d="M 14753,7048 L 2074,7048"/>
 <path fill="none" stroke="rgb(179,179,179)" stroke-linejoin="round" d="M 14753,6342 L 2074,6342"/>
 <path fill="none" stroke="rgb(179,179,179)" stroke-linejoin="round" d="M 14753,5636 L 2074,5636"/>
 <path fill="none" stroke="rgb(179,179,179)" stroke-linejoin="round" d="M 14753,4931 L 2074,4931"/>
 <path fill="none" stroke="rgb(179,179,179)" stroke-linejoin="round" d="M 14753,4225 L 2074,4225"/>
 <path fill="none" stroke="rgb(179,179,179)" stroke-linejoin="round" d="M 14753,3519 L 2074,3519"/>
 <path fill="none" stroke="rgb(179,179,179)" stroke-linejoin="round" d="M 14753,2813 L 2074,2813"/>
 <path fill="none" stroke="rgb(179,179,179)" stroke-linejoin="round" d="M 14753,2107 L 2074,2107"/>
 <path fill="none" stroke="rgb(179,179,179)" stroke-linejoin="round" d="M 14753,1402 L 2074,1402"/>
 <path fill="none" stroke="rgb(179,179,179)" stroke-linejoin="round" d="M 2074,8610 L 2074,8460"/>
 <path fill="none" stroke="rgb(179,179,179)" stroke-linejoin="round" d="M 2074,8610 L 2074,8460"/>
 <path fill="none" stroke="rgb(179,179,179)" stroke-linejoin="round" d="M 3659,8610 L 3659,8460"/>
 <path fill="none" stroke="rgb(179,179,179)" stroke-linejoin="round" d="M 3659,8610 L 3659,8460"/>
 <path fill="none" stroke="rgb(179,179,179)" stroke-linejoin="round" d="M 5244,8610 L 5244,8460"/>
 <path fill="none" stroke="rgb(179,179,179)" stroke-linejoin="round" d="M 5244,8610 L 5244,8460"/>
 <path fill="none" stroke="rgb(179,179,179)" stroke-linejoin="round" d="M 6829,8610 L 6829,8460"/>
 <path fill="none" stroke="rgb(179,179,179)" stroke-linejoin="round" d="M 6829,8610 L 6829,8460"/>
 <path fill="none" stroke="rgb(179,179,179)" stroke-linejoin="round" d="M 8413,8610 L 8413,8460"/>
 <path fill="none" stroke="rgb(179,179,179)" stroke-linejoin="round" d="M 8413,8610 L 8413,8460"/>
 <path fill="none" stroke="rgb(179,179,179)" stroke-linejoin="round" d="M 9998,8610 L 9998,8460"/>
 <path fill="none" stroke="rgb(179,179,179)" stroke-linejoin="round" d="M 9998,8610 L 9998,8460"/>
 <path fill="none" stroke="rgb(179,179,179)" stroke-linejoin="round" d="M 11583,8610 L 11583,8460"/>
 <path fill="none" stroke="rgb(179,179,179)" stroke-linejoin="round" d="M 11583,8610 L 11583,8460"/>
 <path fill="none" stroke="rgb(179,179,179)" stroke-linejoin="round" d="M 13168,8610 L 13168,8460"/>
 <path fill="none" stroke="rgb(179,179,179)" stroke-linejoin="round" d="M 13168,8610 L 13168,8460"/>
 <path fill="none" stroke="rgb(179,179,179)" stroke-linejoin="round" d="M 14753,8610 L 14753,8460"/>
 <path fill="none" stroke="rgb(179,179,179)" stroke-linejoin="round" d="M 14753,8610 L 14753,8460"/>
 <path fill="none" stroke="rgb(179,179,179)" stroke-linejoin="round" d="M 2074,8460 L 14753,8460"/>
 <path fill="none" stroke="rgb(179,179,179)" stroke-linejoin="round" d="M 1924,8460 L 2074,8460"/>
 <path fill="none" stroke="rgb(179,179,179)" stroke-linejoin="round" d="M 1924,8460 L 2074,8460"/>
 <path fill="none" stroke="rgb(179,179,179)" stroke-linejoin="round" d="M 1924,7754 L 2074,7754"/>
 <path fill="none" stroke="rgb(179,179,179)" stroke-linejoin="round" d="M 1924,7754 L 2074,7754"/>
 <path fill="none" stroke="rgb(179,179,179)" stroke-linejoin="round" d="M 1924,7048 L 2074,7048"/>
 <path fill="none" stroke="rgb(179,179,179)" stroke-linejoin="round" d="M 1924,7048 L 2074,7048"/>
 <path fill="none" stroke="rgb(179,179,179)" stroke-linejoin="round" d="M 1924,6342 L 2074,6342"/>
 <path fill="none" stroke="rgb(179,179,179)" stroke-linejoin="round" d="M 1924,6342 L 2074,6342"/>
 <path fill="none" stroke="rgb(179,179,179)" stroke-linejoin="round" d="M 1924,5636 L 2074,5636"/>
 <path fill="none" stroke="rgb(179,179,179)" stroke-linejoin="round" d="M 1924,5636 L 2074,5636"/>
 <path fill="none" stroke="rgb(179,179,179)" stroke-linejoin="round" d="M 1924,4931 L 2074,4931"/>
 <path fill="none" stroke="rgb(179,179,179)" stroke-linejoin="round" d="M 1924,4931 L 2074,4931"/>
 <path fill="none" stroke="rgb(179,179,179)" stroke-linejoin="round" d="M 1924,4225 L 2074,4225"/>
 <path fill="none" stroke="rgb(179,179,179)" stroke-linejoin="round" d="M 1924,4225 L 2074,4225"/>
 <path fill="none" stroke="rgb(179,179,179)" stroke-linejoin="round" d="M 1924,3519 L 2074,3519"/>
 <path fill="none" stroke="rgb(179,179,179)" stroke-linejoin="round" d="M 1924,3519 L 2074,3519"/>
 <path fill="none" stroke="rgb(179,179,179)" stroke-linejoin="round" d="M 1924,2813 L 2074,2813"/>
 <path fill="none" stroke="rgb(179,179,179)" stroke-linejoin="round" d="M 1924,2813 L 2074,2813"/>
 <path fill="none" stroke="rgb(179,179,179)" stroke-linejoin="round" d="M 1924,2107 L 2074,2107"/>
 <path fill="none" stroke="rgb(179,179,179)" stroke-linejoin="round" d="M 1924,2107 L 2074,2107"/>
 <path fill="none" stroke="rgb(179,179,179)" stroke-linejoin="round" d="M 1924,1402 L 2074,1402"/>
 <path fill="none" stroke="rgb(179,179,179)" stroke-linejoin="round" d="M 1924,1402 L 2074,1402"/>
 <path fill="none" stroke="rgb(179,179,179)" stroke-linejoin="round" d="M 2074,8460 L 2074,1402"/>
 <path fill="none" stroke="rgb(0,69,134)" stroke-width="80" stroke-linejoin="round" d="M 2866,2098 L 3659,4253 5244,5880 6036,5194 6829,4559 9998,3161 13960,2349"/>
 <path fill="rgb(0,69,134)" stroke="none" d="M 2741,1973 L 2741,2223 2991,2223 2991,1973 2741,1973 Z"/>
 <path fill="none" stroke="rgb(0,69,134)" stroke-linejoin="round" d="M 2741,1973 L 2741,2223 2991,2223 2991,1973 2741,1973 Z"/>
 <path fill="rgb(0,69,134)" stroke="none" d="M 3534,4128 L 3534,4378 3784,4378 3784,4128 3534,4128 Z"/>
 <path fill="none" stroke="rgb(0,69,134)" stroke-linejoin="round" d="M 3534,4128 L 3534,4378 3784,4378 3784,4128 3534,4128 Z"/>
 <path fill="rgb(0,69,134)" stroke="none" d="M 5119,5755 L 5119,6005 5369,6005 5369,5755 5119,5755 Z"/>
 <path fill="none" stroke="rgb(0,69,134)" stroke-linejoin="round" d="M 5119,5755 L 5119,6005 5369,6005 5369,5755 5119,5755 Z"/>
 <path fill="rgb(0,69,134)" stroke="none" d="M 5911,5070 L 5911,5319 6161,5319 6161,5070 5911,5070 Z"/>
 <path fill="none" stroke="rgb(0,69,134)" stroke-linejoin="round" d="M 5911,5070 L 5911,5319 6161,5319 6161,5070 5911,5070 Z"/>
 <path fill="rgb(0,69,134)" stroke="none" d="M 6704,4434 L 6704,4684 6954,4684 6954,4434 6704,4434 Z"/>
 <path fill="none" stroke="rgb(0,69,134)" stroke-linejoin="round" d="M 6704,4434 L 6704,4684 6954,4684 6954,4434 6704,4434 Z"/>
 <path fill="rgb(0,69,134)" stroke="none" d="M 9873,3036 L 9873,3286 10123,3286 10123,3036 9873,3036 Z"/>
 <path fill="none" stroke="rgb(0,69,134)" stroke-linejoin="round" d="M 9873,3036 L 9873,3286 10123,3286 10123,3036 9873,3036 Z"/>
 <path fill="rgb(0,69,134)" stroke="none" d="M 13835,2224 L 13835,2474 14085,2474 14085,2224 13835,2224 Z"/>
 <path fill="none" stroke="rgb(0,69,134)" stroke-linejoin="round" d="M 13835,2224 L 13835,2474 14085,2474 14085,2224 13835,2224 Z"/>
 <text class="TextShape"><tspan class="TextParagraph" font-family="Liberation Sans, sans-serif" font-size="353px" font-weight="400"><tspan class="TextPosition" x="1981" y="8948"><tspan fill="rgb(0,0,0)" stroke="none">0</tspan></tspan></tspan></text>
 <text class="TextShape"><tspan class="TextParagraph" font-family="Liberation Sans, sans-serif" font-size="353px" font-weight="400"><tspan class="TextPosition" x="3566" y="8948"><tspan fill="rgb(0,0,0)" stroke="none">2</tspan></tspan></tspan></text>
 <text class="TextShape"><tspan class="TextParagraph" font-family="Liberation Sans, sans-serif" font-size="353px" font-weight="400"><tspan class="TextPosition" x="5151" y="8948"><tspan fill="rgb(0,0,0)" stroke="none">4</tspan></tspan></tspan></text>
 <text class="TextShape"><tspan class="TextParagraph" font-family="Liberation Sans, sans-serif" font-size="353px" font-weight="400"><tspan class="TextPosition" x="6736" y="8948"><tspan fill="rgb(0,0,0)" stroke="none">6</tspan></tspan></tspan></text>
 <text class="TextShape"><tspan class="TextParagraph" font-family="Liberation Sans, sans-serif" font-size="353px" font-weight="400"><tspan class="TextPosition" x="8321" y="8948"><tspan fill="rgb(0,0,0)" stroke="none">8</tspan></tspan></tspan></text>
 <text class="TextShape"><tspan class="TextParagraph" font-family="Liberation Sans, sans-serif" font-size="353px" font-weight="400"><tspan class="TextPosition" x="9814" y="8948"><tspan fill="rgb(0,0,0)" stroke="none">10</tspan></tspan></tspan></text>
 <text class="TextShape"><tspan class="TextParagraph" font-family="Liberation Sans, sans-serif" font-size="353px" font-weight="400"><tspan class="TextPosition" x="11399" y="8948"><tspan fill="rgb(0,0,0)" stroke="none">12</tspan></tspan></tspan></text>
 <text class="TextShape"><tspan class="TextParagraph" font-family="Liberation Sans, sans-serif" font-size="353px" font-weight="400"><tspan class="TextPosition" x="12984" y="8948"><tspan fill="rgb(0,0,0)" stroke="none">14</tspan></tspan></tspan></text>
 <text class="TextShape"><tspan class="TextParagraph" font-family="Liberation Sans, sans-serif" font-size="353px" font-weight="400"><tspan class="TextPosition" x="14569" y="8948"><tspan fill="rgb(0,0,0)" stroke="none">16</tspan></tspan></tspan></text>
 <text class="TextShape"><tspan class="TextParagraph" font-family="Liberation Sans, sans-serif" font-size="353px" font-weight="400"><tspan class="TextPosition" x="1268" y="8540"><tspan fill="rgb(0,0,0)" stroke="none">156</tspan></tspan></tspan></text>
 <text class="TextShape"><tspan class="TextParagraph" font-family="Liberation Sans, sans-serif" font-size="353px" font-weight="400"><tspan class="TextPosition" x="1268" y="7834"><tspan fill="rgb(0,0,0)" stroke="none">158</tspan></tspan></tspan></text>
 <text class="TextShape"><tspan class="TextParagraph" font-family="Liberation Sans, sans-serif" font-size="353px" font-weight="400"><tspan class="TextPosition" x="1268" y="7128"><tspan fill="rgb(0,0,0)" stroke="none">160</tspan></tspan></tspan></text>
 <text class="TextShape"><tspan class="TextParagraph" font-family="Liberation Sans, sans-serif" font-size="353px" font-weight="400"><tspan class="TextPosition" x="1268" y="6422"><tspan fill="rgb(0,0,0)" stroke="none">162</tspan></tspan></tspan></text>
 <text class="TextShape"><tspan class="TextParagraph" font-family="Liberation Sans, sans-serif" font-size="353px" font-weight="400"><tspan class="TextPosition" x="1268" y="5716"><tspan fill="rgb(0,0,0)" stroke="none">164</tspan></tspan></tspan></text>
 <text class="TextShape"><tspan class="TextParagraph" font-family="Liberation Sans, sans-serif" font-size="353px" font-weight="400"><tspan class="TextPosition" x="1268" y="5010"><tspan fill="rgb(0,0,0)" stroke="none">166</tspan></tspan></tspan></text>
 <text class="TextShape"><tspan class="TextParagraph" font-family="Liberation Sans, sans-serif" font-size="353px" font-weight="400"><tspan class="TextPosition" x="1268" y="4304"><tspan fill="rgb(0,0,0)" stroke="none">168</tspan></tspan></tspan></text>
 <text class="TextShape"><tspan class="TextParagraph" font-family="Liberation Sans, sans-serif" font-size="353px" font-weight="400"><tspan class="TextPosition" x="1268" y="3598"><tspan fill="rgb(0,0,0)" stroke="none">170</tspan></tspan></tspan></text>
 <text class="TextShape"><tspan class="TextParagraph" font-family="Liberation Sans, sans-serif" font-size="353px" font-weight="400"><tspan class="TextPosition" x="1268" y="2892"><tspan fill="rgb(0,0,0)" stroke="none">172</tspan></tspan></tspan></text>
 <text class="TextShape"><tspan class="TextParagraph" font-family="Liberation Sans, sans-serif" font-size="353px" font-weight="400"><tspan class="TextPosition" x="1268" y="2186"><tspan fill="rgb(0,0,0)" stroke="none">174</tspan></tspan></tspan></text>
 <text class="TextShape"><tspan class="TextParagraph" font-family="Liberation Sans, sans-serif" font-size="353px" font-weight="400"><tspan class="TextPosition" x="1268" y="1481"><tspan fill="rgb(0,0,0)" stroke="none">176</tspan></tspan></tspan></text>
 <text class="TextShape"><tspan class="TextParagraph" font-family="Liberation Sans, sans-serif" font-size="459px" font-weight="400"><tspan class="TextPosition" x="4436" y="794"><tspan fill="rgb(0,0,0)" stroke="none">Total pressure drop (inlet-outlet)</tspan></tspan></tspan></text>
 <text class="TextShape"><tspan class="TextParagraph" font-family="Liberation Sans, sans-serif" font-size="318px" font-weight="400"><tspan class="TextPosition" x="6265" y="9565"><tspan fill="rgb(0,0,0)" stroke="none">Turbolent intensity at inlet</tspan></tspan></tspan></text>
 <text class="TextShape" transform="translate(788,6497) rotate(-90) translate(-788,-6497)"><tspan class="TextParagraph" font-family="Liberation Sans, sans-serif" font-size="318px" font-weight="400"><tspan class="TextPosition" x="788" y="6497"><tspan fill="rgb(0,0,0)" stroke="none">Total Pressure [Pa]</tspan></tspan></tspan></text>
</svg>