<?xml version="1.0" encoding="UTF-8"?>
<!DOCTYPE svg PUBLIC "-//W3C//DTD SVG 1.1//EN" "http://www.w3.org/Graphics/SVG/1.1/DTD/svg11.dtd">
<svg width="152mm" height="102mm" viewBox="0 0 15200 10200" version="1.1" xmlns="http://www.w3.org/2000/svg" stroke-width="28.222" stroke-linejoin="round" xml:space="preserve">
 <path fill="rgb(255,255,255)" stroke="none" d="M 7624,10160 L 4,10160 4,0 15244,0 15244,10160 7624,10160 Z"/>
 <path fill="none" stroke="rgb(179,179,179)" stroke-linejoin="round" d="M 8393,8869 L 2179,8869 2179,1402 14608,1402 14608,8869 8393,8869 Z"/>
 <path fill="none" stroke="rgb(179,179,179)" stroke-linejoin="round" d="M 14608,8868 L 2179,8868"/>
 <path fill="none" stroke="rgb(179,179,179)" stroke-linejoin="round" d="M 14608,7934 L 2179,7934"/>
 <path fill="none" stroke="rgb(179,179,179)" stroke-linejoin="round" d="M 14608,7001 L 2179,7001"/>
 <path fill="none" stroke="rgb(179,179,179)" stroke-linejoin="round" d="M 14608,6067 L 2179,6067"/>
 <path fill="none" stroke="rgb(179,179,179)" stroke-linejoin="round" d="M 14608,5134 L 2179,5134"/>
 <path fill="none" stroke="rgb(179,179,179)" stroke-linejoin="round" d="M 14608,4201 L 2179,4201"/>
 <path fill="none" stroke="rgb(179,179,179)" stroke-linejoin="round" d="M 14608,3268 L 2179,3268"/>
 <path fill="none" stroke="rgb(179,179,179)" stroke-linejoin="round" d="M 14608,2334 L 2179,2334"/>
 <path fill="none" stroke="rgb(179,179,179)" stroke-linejoin="round" d="M 14608,1400 L 2179,1400"/>
 <path fill="none" stroke="rgb(179,179,179)" stroke-linejoin="round" d="M 2179,8084 L 2179,7934"/>
 <path fill="none" stroke="rgb(179,179,179)" stroke-linejoin="round" d="M 2179,8084 L 2179,7934"/>
 <path fill="none" stroke="rgb(179,179,179)" stroke-linejoin="round" d="M 3560,8084 L 3560,7934"/>
 <path fill="none" stroke="rgb(179,179,179)" stroke-linejoin="round" d="M 3560,8084 L 3560,7934"/>
 <path fill="none" stroke="rgb(179,179,179)" stroke-linejoin="round" d="M 4941,8084 L 4941,7934"/>
 <path fill="none" stroke="rgb(179,179,179)" stroke-linejoin="round" d="M 4941,8084 L 4941,7934"/>
 <path fill="none" stroke="rgb(179,179,179)" stroke-linejoin="round" d="M 6322,8084 L 6322,7934"/>
 <path fill="none" stroke="rgb(179,179,179)" stroke-linejoin="round" d="M 6322,8084 L 6322,7934"/>
 <path fill="none" stroke="rgb(179,179,179)" stroke-linejoin="round" d="M 7702,8084 L 7702,7934"/>
 <path fill="none" stroke="rgb(179,179,179)" stroke-linejoin="round" d="M 7702,8084 L 7702,7934"/>
 <path fill="none" stroke="rgb(179,179,179)" stroke-linejoin="round" d="M 9083,8084 L 9083,7934"/>
 <path fill="none" stroke="rgb(179,179,179)" stroke-linejoin="round" d="M 9083,8084 L 9083,7934"/>
 <path fill="none" stroke="rgb(179,179,179)" stroke-linejoin="round" d="M 10464,8084 L 10464,7934"/>
 <path fill="none" stroke="rgb(179,179,179)" stroke-linejoin="round" d="M 10464,8084 L 10464,7934"/>
 <path fill="none" stroke="rgb(179,179,179)" stroke-linejoin="round" d="M 11845,8084 L 11845,7934"/>
 <path fill="none" stroke="rgb(179,179,179)" stroke-linejoin="round" d="M 11845,8084 L 11845,7934"/>
 <path fill="none" stroke="rgb(179,179,179)" stroke-linejoin="round" d="M 13226,8084 L 13226,7934"/>
 <path fill="none" stroke="rgb(179,179,179)" stroke-linejoin="round" d="M 13226,8084 L 13226,7934"/>
 <path fill="none" stroke="rgb(179,179,179)" stroke-linejoin="round" d="M 14608,8084 L 14608,7934"/>
 <path fill="none" stroke="rgb(179,179,179)" stroke-linejoin="round" d="M 14608,8084 L 14608,7934"/>
 <path fill="none" stroke="rgb(179,179,179)" stroke-linejoin="round" d="M 2179,7934 L 14608,7934"/>
 <path fill="none" stroke="rgb(179,179,179)" stroke-linejoin="round" d="M 2029,8868 L 2179,8868"/>
 <path fill="none" stroke="rgb(179,179,179)" stroke-linejoin="round" d="M 2029,8868 L 2179,8868"/>
 <path fill="none" stroke="rgb(179,179,179)" stroke-linejoin="round" d="M 2029,7934 L 2179,7934"/>
 <path fill="none" stroke="rgb(179,179,179)" stroke-linejoin="round" d="M 2029,7934 L 2179,7934"/>
 <path fill="none" stroke="rgb(179,179,179)" stroke-linejoin="round" d="M 2029,7001 L 2179,7001"/>
 <path fill="none" stroke="rgb(179,179,179)" stroke-linejoin="round" d="M 2029,7001 L 2179,7001"/>
 <path fill="none" stroke="rgb(179,179,179)" stroke-linejoin="round" d="M 2029,6067 L 2179,6067"/>
 <path fill="none" stroke="rgb(179,179,179)" stroke-linejoin="round" d="M 2029,6067 L 2179,6067"/>
 <path fill="none" stroke="rgb(179,179,179)" stroke-linejoin="round" d="M 2029,5134 L 2179,5134"/>
 <path fill="none" stroke="rgb(179,179,179)" stroke-linejoin="round" d="M 2029,5134 L 2179,5134"/>
 <path fill="none" stroke="rgb(179,179,179)" stroke-linejoin="round" d="M 2029,4201 L 2179,4201"/>
 <path fill="none" stroke="rgb(179,179,179)" stroke-linejoin="round" d="M 2029,4201 L 2179,4201"/>
 <path fill="none" stroke="rgb(179,179,179)" stroke-linejoin="round" d="M 2029,3267 L 2179,3267"/>
 <path fill="none" stroke="rgb(179,179,179)" stroke-linejoin="round" d="M 2029,3267 L 2179,3267"/>
 <path fill="none" stroke="rgb(179,179,179)" stroke-linejoin="round" d="M 2029,2334 L 2179,2334"/>
 <path fill="none" stroke="rgb(179,179,179)" stroke-linejoin="round" d="M 2029,2334 L 2179,2334"/>
 <path fill="none" stroke="rgb(179,179,179)" stroke-linejoin="round" d="M 2029,1400 L 2179,1400"/>
 <path fill="none" stroke="rgb(179,179,179)" stroke-linejoin="round" d="M 2029,1400 L 2179,1400"/>
 <path fill="none" stroke="rgb(179,179,179)" stroke-linejoin="round" d="M 2179,8868 L 2179,1400"/>
 <path fill="none" stroke="rgb(87,157,28)" stroke-width="80" stroke-linejoin="round" d="M 2179,4074 L 2190,2578 2201,3396 2212,3842 2223,4257 2234,4515 2245,4740 2256,4966 2267,5191 2278,5332 2289,5432 2300,5531 2311,5630 2322,5730 2333,5829 2344,5928 2355,6027 2366,6115 2377,6180 2388,6245 2399,6310 2411,6375 2422,6440 2433,6505 2444,6570 2455,6635 2466,6676 2477,6716 2488,6757 2499,6798 2510,6838 2521,6879 2532,6920 2543,6961 2554,6992 2565,7019 2576,7045 2587,7072 2598,7099 2609,7126 2620,7152 2632,7179 2643,7203 2654,7221 2665,7239 2676,7258 2687,7276 2698,7294 2709,7312 2720,7330 2731,7349 2742,7361 2753,7374 2764,7387 2775,7400 2786,7413 2797,7426 2808,7438 2819,7451 2830,7462 2841,7471 2852,7480 2864,7490 2875,7499 2886,7509 2897,7518 2908,7527 2919,7536 2930,7543 2941,7550 2952,7557 2963,7564 2974,7571 2985,7578 3007,7592 3018,7597 3029,7603 3040,7608 3051,7613 3062,7619 3073,7624 3085,7629 3107,7639 3118,7643 3129,7647 3140,7652 3151,7656 3162,7660 3173,7664 3184,7668 3195,7672 3217,7678 3228,7681 3239,7685 3250,7688 3261,7691 3272,7694 3283,7697 3294,7700 3305,7702 3317,7705 3328,7707 3339,7710 3350,7712 3361,7715 3372,7717 3383,7719 3394,7721 3416,7725 3427,7727 3438,7729 3449,7731 3460,7733 3471,7735 3482,7736 3493,7737 3515,7740 3526,7742 3538,7743 3549,7745 3560,7746 3571,7747 3582,7748 3593,7749 3604,7750 3626,7752 3637,7753 3648,7754 3659,7755 3670,7756 3681,7757 3692,7757 3703,7758 3725,7760 3736,7760 3747,7761 3758,7761 3770,7762 3781,7762 3792,7763 3803,7763 3825,7764 3836,7764 3847,7765 3858,7765 3869,7765 3880,7765 3891,7765 3902,7766 3924,7766 3935,7766 3946,7766 3957,7766 3968,7766 3979,7766 3991,7766 4002,7766 4024,7765 4035,7765 4046,7765 4057,7764 4068,7764 4079,7764 4090,7764 4101,7763 4112,7763 4134,7762 4145,7762 4156,7761 4167,7761 4178,7760 4189,7760 4200,7759 4211,7759 4234,7757 4245,7757 4256,7756 4267,7755 4278,7755 4289,7754 4300,7753 4311,7752 4322,7751 4333,7751 4344,7750 4355,7749 4366,7748 4377,7747 4388,7746 4399,7745 4410,7744 4432,7741 4444,7740 4455,7739 4466,7738 4477,7737 4488,7736 4499,7734 4510,7733 4521,7731 4543,7729 4554,7727 4565,7726 4576,7724 4587,7723 4598,7721 4609,7719 4620,7717 4642,7714 4653,7712 4665,7711 4676,7708 4687,7706 4698,7704 4709,7702 4720,7700 4742,7696 4753,7694 4764,7692 4775,7689 4786,7687 4797,7684 4808,7682 4819,7679 4830,7677 4841,7674 4852,7671 4863,7668 4874,7665 4885,7662 4897,7659 4908,7656 4919,7653 4930,7650 4941,7647 4952,7643 4963,7640 4974,7636 4985,7632 4996,7628 5007,7625 5018,7621 5029,7617 5040,7613 5051,7608 5062,7604 5073,7599 5084,7595 5095,7590 5106,7586 5118,7581 5129,7576 5151,7565 5162,7559 5173,7554 5184,7548 5195,7543 5206,7537 5217,7531 5228,7524 5250,7511 5261,7504 5272,7497 5283,7490 5294,7483 5305,7476 5316,7468 5327,7459 5338,7450 5350,7442 5361,7433 5372,7424 5383,7416 5394,7407 5405,7398 5416,7387 5427,7376 5438,7365 5449,7354 5460,7344 5471,7333 5482,7322 5493,7311 5504,7298 5515,7284 5526,7271 5537,7258 5548,7244 5559,7231 5571,7218 5582,7204 5593,7189 5604,7173 5615,7156 5626,7140 5637,7124 5648,7108 5659,7091 5670,7075 5681,7058 5692,7038 5703,7019 5714,7000 5725,6980 5736,6961 5747,6942 5758,6922 5769,6903 5780,6881 5791,6858 5803,6836 5814,6814 5825,6791 5836,6769 5847,6747 5858,6724 5869,6701 5880,6676 5891,6651 5902,6626 5913,6602 5924,6577 5935,6552 5946,6527 5957,6502 5968,6476 5979,6449 5990,6423 6001,6397 6012,6370 6024,6344 6035,6318 6046,6291 6057,6264 6068,6237 6079,6210 6090,6183 6101,6156 6112,6129 6123,6102 6134,6075 6145,6048 6156,6022 6167,5995 6178,5968 6189,5942 6200,5915 6211,5888 6222,5862 6233,5835 6244,5810 6256,5785 6267,5759 6278,5734 6289,5709 6300,5683 6311,5658 6322,5633 6333,5609 6344,5586 6355,5562 6366,5539 6377,5516 6388,5492 6399,5469 6410,5446 6421,5424 6432,5403 6443,5382 6454,5361 6465,5340 6477,5319 6488,5298 6499,5277 6510,5257 6521,5239 6532,5221 6543,5202 6554,5184 6565,5166 6576,5147 6587,5129 6598,5110 6609,5095 6620,5080 6631,5064 6642,5048 6653,5032 6664,5016 6675,5001 6686,4985 6697,4970 6709,4957 6720,4943 6731,4930 6742,4916 6753,4903 6764,4889 6775,4876 6786,4863 6797,4851 6808,4839 6819,4828 6830,4816 6841,4804 6852,4793 6863,4781 6874,4770 6885,4759 6896,4749 6907,4739 6918,4729 6930,4719 6941,4709 6952,4699 6963,4689 6974,4679 6985,4671 6996,4662 7007,4653 7018,4644 7029,4635 7040,4626 7051,4617 7062,4609 7073,4601 7084,4593 7095,4585 7106,4577 7117,4569 7128,4561 7139,4553 7151,4545 7162,4537 7173,4530 7184,4523 7195,4515 7206,4508 7217,4501 7228,4493 7239,4486 7250,4479 7261,4472 7272,4465 7294,4452 7305,4445 7316,4438 7327,4431 7338,4424 7349,4418 7360,4411 7371,4405 7394,4392 7405,4385 7416,4379 7427,4372 7438,4366 7449,4360 7460,4354 7471,4347 7482,4341 7493,4335 7504,4329 7515,4323 7526,4317 7537,4311 7548,4305 7559,4299 7570,4293 7592,4281 7604,4275 7615,4269 7625,4263 7636,4257 7647,4252 7658,4246 7669,4240 7691,4229 7702,4223 7713,4218 7724,4212 7735,4207 7746,4201 7757,4196 7768,4190 7779,4185 7790,4180 7801,4174 7812,4169 7823,4164 7835,4159 7846,4154 7857,4149 7868,4144 7879,4139 7901,4129 7912,4124 7923,4120 7934,4115 7945,4110 7956,4106 7967,4101 7978,4096 7989,4092 8000,4088 8011,4084 8022,4080 8033,4076 8044,4072 8056,4067 8067,4063 8078,4060 8089,4056 8100,4053 8111,4049 8122,4045 8133,4042 8144,4038 8155,4035 8166,4032 8177,4029 8188,4026 8210,4021 8221,4018 8232,4015 8243,4012 8254,4009 8265,4007 8276,4006 8288,4004 8310,4000 8321,3998 8332,3996 8343,3994 8354,3993 8365,3992 8376,3991 8387,3990 8409,3988 8420,3987 8431,3986 8442,3985 8453,3986 8464,3986 8475,3986 8486,3986 8509,3986 8520,3986 8531,3986 8542,3987 8553,3989 8564,3990 8575,3991 8586,3992 8608,3995 8619,3996 8630,3998 8641,4000 8652,4003 8663,4005 8674,4008 8685,4010 8696,4012 8718,4018 8729,4021 8741,4025 8752,4029 8763,4033 8774,4036 8785,4040 8796,4044 8807,4047 8818,4052 8829,4058 8840,4063 8851,4068 8862,4073 8873,4078 8884,4083 8895,4088 8917,4100 8928,4107 8939,4113 8950,4120 8962,4126 8973,4133 8984,4139 8995,4146 9017,4162 9028,4170 9039,4178 9050,4186 9061,4194 9072,4202 9083,4210 9094,4219 9105,4229 9116,4238 9127,4248 9138,4257 9149,4267 9160,4277 9171,4286 9182,4296 9194,4308 9205,4319 9216,4330 9227,4341 9238,4352 9249,4363 9260,4374 9271,4386 9282,4398 9293,4411 9304,4423 9315,4436 9326,4449 9337,4461 9348,4474 9359,4487 9370,4501 9381,4515 9392,4529 9403,4543 9415,4557 9426,4572 9437,4586 9448,4600 9459,4615 9470,4631 9481,4646 9492,4662 9503,4678 9514,4693 9525,4709 9536,4724 9547,4740 9558,4757 9569,4775 9580,4792 9591,4809 9602,4826 9613,4843 9624,4860 9636,4877 9647,4895 9658,4913 9669,4931 9680,4950 9691,4968 9702,4986 9713,5005 9724,5023 9735,5042 9746,5061 9757,5080 9768,5099 9779,5118 9790,5138 9801,5157 9812,5177 9823,5197 9834,5217 9845,5237 9856,5258 9868,5278 9879,5299 9890,5319 9901,5340 9912,5360 9923,5381 9934,5403 9945,5424 9956,5445 9967,5466 9978,5488 9989,5509 10000,5530 10011,5552 10022,5574 10033,5596 10044,5618 10055,5640 10066,5662 10077,5684 10089,5706 10100,5728 10111,5751 10122,5773 10133,5795 10144,5818 10155,5840 10166,5863 10177,5885 10188,5908 10199,5930 10210,5953 10221,5975 10232,5998 10243,6021 10254,6043 10265,6066 10276,6088 10287,6111 10298,6134 10309,6156 10321,6179 10332,6201 10343,6224 10354,6246 10365,6268 10376,6291 10387,6313 10398,6335 10409,6357 10420,6379 10431,6401 10442,6423 10453,6445 10464,6467 10475,6488 10486,6509 10497,6530 10508,6552 10519,6573 10530,6594 10542,6615 10553,6636 10564,6657 10575,6676 10586,6696 10597,6716 10608,6736 10619,6756 10630,6776 10641,6796 10652,6815 10663,6834 10674,6852 10685,6871 10696,6889 10707,6908 10718,6926 10729,6944 10740,6963 10751,6979 10762,6996 10774,7013 10785,7030 10796,7046 10807,7063 10818,7080 10829,7096 10840,7112 10851,7127 10862,7142 10873,7157 10884,7172 10895,7186 10906,7201 10917,7216 10928,7231 10939,7244 10950,7257 10961,7270 10972,7283 10983,7296 10995,7309 11006,7323 11017,7336 11028,7347 11039,7359 11050,7370 11061,7382 11072,7393 11083,7405 11094,7416 11105,7428 11116,7438 11127,7448 11138,7458 11149,7468 11160,7478 11171,7488 11182,7498 11193,7508 11204,7518 11215,7526 11227,7535 11238,7544 11249,7552 11260,7561 11271,7570 11282,7578 11293,7587 11304,7595 11315,7602 11326,7610 11337,7617 11359,7633 11370,7640 11381,7648 11392,7655 11403,7661 11414,7668 11425,7674 11436,7681 11448,7688 11459,7694 11470,7701 11481,7707 11492,7713 11503,7719 11514,7725 11525,7731 11536,7736 11547,7742 11569,7754 11580,7759 11591,7764 11602,7770 11613,7775 11624,7780 11635,7785 11646,7790 11668,7800 11680,7805 11691,7809 11702,7814 11713,7819 11724,7823 11735,7828 11746,7833 11768,7841 11779,7845 11790,7850 11801,7854 11812,7858 11823,7862 11834,7866 11845,7870 11856,7874 11867,7878 11878,7882 11889,7885 11901,7889 11912,7893 11923,7897 11934,7901 11945,7904 11956,7908 11978,7915 11989,7918 12000,7922 12011,7925 12022,7929 12033,7932 12044,7935 12055,7939 12066,7942 12077,7945 12088,7948 12099,7952 12110,7955 12122,7958 12133,7961 12144,7964 12155,7967 12177,7973 12188,7976 12199,7979 12210,7982 12221,7985 12232,7988 12243,7991 12254,7994 12276,8000 12287,8003 12298,8006 12309,8009 12320,8011 12331,8014 12342,8017 12354,8020 12365,8023 12387,8028 12398,8031 12409,8034 12420,8037 12431,8039 12442,8042 12453,8045 12464,8048 12486,8053 12497,8056 12508,8059 12519,8061 12530,8064 12541,8067 12552,8069 12563,8072 12586,8078 12597,8080 12608,8083 12619,8086 12630,8089 12641,8091 12652,8094 12663,8097 12685,8102 12696,8105 12707,8108 12718,8111 12729,8114 12740,8117 12751,8120 12762,8122 12773,8125 12784,8128 12795,8132 12807,8135 12818,8138 12829,8141 12840,8144 12851,8147 12862,8150 12873,8153 12884,8157 12895,8160 12906,8163 12917,8166 12928,8170 12939,8173 12950,8177 12961,8180 12972,8184 12994,8191 13005,8195 13016,8198 13028,8202 13039,8206 13050,8210 13061,8215 13072,8220 13094,8230 13105,8235 13116,8240 13127,8245 13138,8252 13149,8264 13160,8277 13171,8289 13182,8302 13193,8314 13204,8327 13215,8339 13226,8352"/>
 <path fill="none" stroke="rgb(255,211,32)" stroke-width="80" stroke-linejoin="round" d="M 2179,4146 L 2190,2647 2201,3460 2212,3902 2223,4314 2234,4570 2245,4795 2256,5019 2267,5243 2278,5384 2289,5483 2300,5582 2311,5681 2322,5780 2333,5880 2344,5979 2355,6078 2366,6165 2377,6230 2388,6295 2399,6360 2411,6425 2422,6490 2433,6555 2444,6620 2455,6685 2466,6725 2477,6766 2488,6807 2499,6848 2510,6888 2521,6929 2532,6970 2543,7011 2554,7042 2565,7069 2576,7096 2587,7122 2598,7149 2609,7176 2620,7203 2632,7229 2643,7253 2654,7271 2665,7290 2676,7308 2687,7326 2698,7344 2709,7362 2720,7381 2731,7399 2742,7412 2753,7424 2764,7437 2775,7450 2786,7463 2797,7476 2808,7489 2819,7501 2830,7512 2841,7521 2852,7530 2864,7540 2875,7549 2886,7559 2897,7568 2908,7577 2919,7586 2930,7593 2941,7600 2952,7607 2963,7614 2974,7621 2985,7628 3007,7642 3018,7647 3029,7652 3040,7658 3051,7663 3062,7669 3073,7674 3085,7679 3107,7689 3118,7693 3129,7697 3140,7701 3151,7705 3162,7710 3173,7714 3184,7718 3195,7722 3217,7728 3228,7731 3239,7734 3250,7738 3261,7741 3272,7744 3283,7747 3294,7750 3317,7755 3328,7757 3339,7760 3350,7762 3361,7764 3372,7767 3383,7769 3394,7771 3416,7775 3427,7777 3438,7778 3449,7780 3460,7782 3471,7784 3482,7785 3493,7787 3515,7790 3526,7791 3538,7793 3549,7794 3560,7796 3571,7796 3582,7798 3593,7799 3604,7800 3626,7802 3637,7803 3648,7804 3659,7805 3670,7805 3681,7806 3692,7807 3703,7807 3725,7809 3736,7810 3747,7810 3758,7811 3770,7811 3781,7811 3792,7812 3803,7812 3825,7813 3836,7814 3847,7814 3858,7814 3869,7814 3880,7814 3891,7814 3902,7815 3924,7815 3935,7815 3946,7815 3957,7815 3968,7815 3979,7815 3991,7815 4002,7815 4024,7814 4035,7814 4046,7814 4057,7813 4068,7813 4079,7813 4090,7813 4101,7812 4112,7812 4134,7811 4145,7811 4156,7810 4167,7810 4178,7809 4189,7809 4200,7808 4211,7808 4234,7806 4245,7806 4256,7805 4267,7804 4278,7804 4289,7803 4300,7802 4311,7801 4333,7799 4344,7799 4355,7798 4366,7797 4377,7796 4388,7795 4399,7794 4410,7793 4432,7790 4444,7789 4455,7788 4466,7787 4477,7786 4488,7785 4499,7783 4510,7782 4521,7780 4543,7778 4554,7776 4565,7775 4576,7773 4587,7772 4598,7770 4609,7768 4620,7766 4631,7765 4642,7763 4653,7761 4665,7760 4676,7757 4687,7755 4698,7753 4709,7751 4720,7749 4742,7745 4753,7743 4764,7741 4775,7738 4786,7736 4797,7733 4808,7731 4819,7728 4830,7726 4841,7723 4852,7720 4863,7717 4874,7714 4885,7711 4897,7708 4908,7705 4919,7702 4930,7699 4941,7696 4952,7692 4963,7689 4974,7685 4985,7681 4996,7678 5007,7674 5018,7670 5029,7666 5040,7662 5051,7658 5062,7653 5073,7649 5084,7644 5095,7640 5106,7635 5118,7631 5129,7626 5151,7614 5162,7609 5173,7603 5184,7598 5195,7592 5206,7586 5217,7581 5228,7574 5250,7560 5261,7553 5272,7546 5283,7539 5294,7532 5305,7525 5316,7517 5327,7508 5338,7500 5350,7491 5361,7482 5372,7474 5383,7465 5394,7456 5405,7447 5416,7436 5427,7426 5438,7415 5449,7404 5460,7393 5471,7382 5482,7372 5493,7361 5504,7347 5515,7334 5526,7321 5537,7307 5548,7294 5559,7281 5571,7267 5582,7254 5593,7239 5604,7222 5615,7206 5626,7190 5637,7174 5648,7157 5659,7141 5670,7125 5681,7108 5692,7088 5703,7069 5714,7050 5725,7030 5736,7011 5747,6992 5758,6972 5769,6953 5780,6930 5791,6908 5803,6886 5814,6864 5825,6841 5836,6819 5847,6797 5858,6774 5869,6751 5880,6726 5891,6701 5902,6676 5913,6652 5924,6627 5935,6602 5946,6578 5957,6552 5968,6526 5979,6500 5990,6473 6001,6447 6012,6420 6024,6394 6035,6368 6046,6341 6057,6314 6068,6287 6079,6260 6090,6233 6101,6206 6112,6179 6123,6152 6134,6125 6145,6099 6156,6072 6167,6045 6178,6019 6189,5992 6200,5966 6211,5939 6222,5912 6233,5886 6244,5861 6256,5835 6267,5810 6278,5785 6289,5759 6300,5734 6311,5709 6322,5683 6333,5660 6344,5637 6355,5613 6366,5590 6377,5567 6388,5543 6399,5520 6410,5496 6421,5475 6432,5454 6443,5433 6454,5412 6465,5391 6477,5370 6488,5349 6499,5328 6510,5308 6521,5290 6532,5272 6543,5253 6554,5235 6565,5217 6576,5198 6587,5180 6598,5162 6609,5146 6620,5130 6631,5114 6642,5098 6653,5083 6664,5068 6675,5052 6686,5036 6697,5022 6709,5008 6720,4995 6731,4981 6742,4968 6753,4954 6764,4941 6775,4927 6786,4914 6797,4903 6808,4891 6819,4879 6830,4868 6841,4856 6852,4844 6863,4833 6874,4821 6885,4811 6896,4801 6907,4791 6918,4781 6930,4771 6941,4761 6952,4751 6963,4741 6974,4731 6985,4723 6996,4714 7007,4705 7018,4696 7029,4687 7040,4678 7051,4669 7062,4661 7073,4653 7084,4645 7095,4637 7106,4629 7117,4621 7128,4613 7139,4605 7151,4597 7162,4590 7173,4582 7184,4575 7195,4568 7206,4560 7217,4553 7228,4546 7239,4539 7250,4532 7261,4525 7272,4518 7294,4504 7305,4497 7316,4491 7327,4484 7338,4477 7349,4471 7360,4464 7371,4458 7394,4445 7405,4438 7416,4432 7427,4425 7438,4419 7449,4413 7460,4407 7471,4400 7482,4394 7493,4388 7504,4382 7515,4376 7526,4370 7537,4364 7548,4358 7559,4352 7570,4346 7581,4340 7592,4334 7604,4328 7615,4322 7625,4317 7636,4311 7647,4305 7658,4299 7669,4294 7691,4282 7702,4277 7713,4271 7724,4266 7735,4260 7746,4255 7757,4250 7768,4244 7779,4239 7801,4228 7812,4223 7823,4218 7835,4213 7846,4208 7857,4203 7868,4198 7879,4193 7901,4183 7912,4179 7923,4174 7934,4169 7945,4165 7956,4160 7967,4155 7978,4151 8000,4142 8011,4138 8022,4134 8033,4130 8044,4126 8056,4122 8067,4118 8078,4114 8100,4107 8111,4104 8122,4100 8133,4097 8144,4093 8155,4090 8166,4086 8177,4084 8188,4081 8210,4075 8221,4073 8232,4070 8243,4067 8254,4064 8265,4062 8276,4061 8288,4059 8310,4055 8321,4053 8332,4051 8343,4049 8354,4048 8365,4047 8376,4046 8387,4045 8398,4044 8409,4043 8420,4042 8431,4042 8442,4041 8453,4041 8464,4041 8475,4041 8486,4041 8509,4042 8520,4042 8531,4042 8542,4043 8553,4044 8564,4046 8575,4047 8586,4048 8608,4051 8619,4052 8630,4054 8641,4056 8652,4059 8663,4061 8674,4064 8685,4066 8696,4069 8707,4071 8718,4074 8729,4078 8741,4082 8752,4085 8763,4089 8774,4093 8785,4096 8796,4100 8818,4109 8829,4114 8840,4119 8851,4124 8862,4129 8873,4135 8884,4140 8895,4145 8917,4157 8928,4164 8939,4170 8950,4177 8962,4183 8973,4190 8984,4196 8995,4203 9006,4211 9017,4219 9028,4227 9039,4235 9050,4243 9061,4251 9072,4259 9083,4267 9094,4277 9105,4286 9116,4296 9127,4305 9138,4315 9149,4325 9160,4334 9171,4344 9182,4354 9194,4365 9205,4376 9216,4388 9227,4399 9238,4410 9249,4421 9260,4432 9271,4444 9282,4456 9293,4469 9304,4482 9315,4494 9326,4507 9337,4520 9348,4532 9359,4545 9370,4559 9381,4573 9392,4587 9403,4602 9415,4616 9426,4630 9437,4644 9448,4658 9459,4674 9470,4689 9481,4705 9492,4721 9503,4736 9514,4752 9525,4768 9536,4783 9547,4799 9558,4816 9569,4833 9580,4850 9591,4868 9602,4885 9613,4902 9624,4919 9636,4936 9647,4954 9658,4972 9669,4991 9680,5009 9691,5027 9702,5045 9713,5064 9724,5081 9735,5100 9746,5120 9757,5139 9768,5159 9779,5178 9790,5198 9801,5217 9812,5236 9823,5256 9834,5277 9845,5297 9856,5318 9868,5338 9879,5359 9890,5379 9901,5399 9912,5420 9923,5441 9934,5463 9945,5484 9956,5505 9967,5527 9978,5548 9989,5569 10000,5591 10011,5612 10022,5634 10033,5656 10044,5678 10055,5700 10066,5722 10077,5744 10089,5766 10100,5789 10111,5811 10122,5834 10133,5856 10144,5878 10155,5901 10166,5923 10177,5946 10188,5968 10199,5991 10210,6014 10221,6036 10232,6059 10243,6082 10254,6104 10265,6127 10276,6150 10287,6172 10298,6195 10309,6217 10321,6240 10332,6262 10343,6285 10354,6307 10365,6330 10376,6352 10387,6374 10398,6396 10409,6418 10420,6440 10431,6462 10442,6484 10453,6506 10464,6529 10475,6550 10486,6571 10497,6592 10508,6613 10519,6634 10530,6656 10542,6677 10553,6698 10564,6718 10575,6738 10586,6758 10597,6778 10608,6798 10619,6818 10630,6838 10641,6858 10652,6878 10663,6896 10674,6914 10685,6933 10696,6951 10707,6970 10718,6988 10729,7007 10740,7025 10751,7042 10762,7059 10774,7075 10785,7092 10796,7109 10807,7126 10818,7142 10829,7159 10840,7175 10851,7190 10862,7204 10873,7219 10884,7234 10895,7249 10906,7264 10917,7279 10928,7293 10939,7307 10950,7320 10961,7333 10972,7346 10983,7359 10995,7372 11006,7386 11017,7399 11028,7410 11039,7422 11050,7433 11061,7445 11072,7456 11083,7468 11094,7479 11105,7491 11116,7501 11127,7511 11138,7521 11149,7531 11160,7541 11171,7551 11182,7561 11193,7572 11204,7581 11215,7590 11227,7599 11238,7607 11249,7616 11260,7625 11271,7633 11282,7642 11293,7651 11304,7658 11315,7666 11326,7674 11337,7681 11359,7696 11370,7704 11381,7712 11392,7719 11403,7725 11414,7732 11425,7738 11436,7745 11448,7752 11459,7758 11470,7765 11481,7771 11492,7777 11503,7783 11514,7789 11525,7795 11536,7801 11547,7806 11569,7818 11580,7823 11591,7829 11602,7834 11613,7839 11624,7844 11635,7849 11646,7854 11668,7864 11680,7869 11691,7874 11702,7878 11713,7883 11724,7888 11735,7892 11746,7897 11768,7906 11779,7910 11790,7914 11801,7918 11812,7922 11823,7926 11834,7931 11845,7935 11856,7939 11867,7942 11878,7946 11889,7950 11901,7954 11912,7958 11923,7961 11934,7965 11945,7969 11956,7972 11978,7979 11989,7983 12000,7986 12011,7990 12022,7993 12033,7997 12044,8000 12055,8003 12077,8010 12088,8013 12099,8016 12110,8019 12122,8022 12133,8025 12144,8029 12155,8032 12177,8038 12188,8041 12199,8044 12210,8047 12221,8050 12232,8053 12243,8055 12254,8058 12276,8064 12287,8067 12298,8070 12309,8073 12320,8075 12331,8078 12342,8081 12354,8084 12365,8086 12387,8092 12398,8095 12409,8097 12420,8100 12431,8103 12442,8105 12453,8108 12464,8111 12486,8116 12497,8119 12508,8122 12519,8124 12530,8127 12541,8129 12552,8132 12563,8135 12586,8140 12597,8143 12608,8145 12619,8148 12630,8151 12641,8153 12652,8156 12663,8159 12685,8164 12696,8167 12707,8170 12718,8172 12729,8175 12740,8178 12751,8180 12762,8183 12773,8186 12795,8191 12807,8194 12818,8197 12829,8200 12840,8203 12851,8206 12862,8208 12873,8212 12895,8218 12906,8221 12917,8224 12928,8227 12939,8230 12950,8233 12961,8236 12972,8240 12983,8243 12994,8246 13005,8250 13016,8253 13028,8257 13039,8260 13050,8263 13061,8267 13072,8270 13094,8277 13105,8280 13116,8283 13127,8287 13138,8292 13149,8301 13160,8311 13171,8320 13182,8329 13193,8339 13204,8348 13215,8357 13226,8367"/>
 <path fill="none" stroke="rgb(255,66,14)" stroke-width="80" stroke-linejoin="round" d="M 2179,4297 L 2190,2724 2201,3496 2212,3915 2223,4305 2234,4551 2245,4767 2256,4984 2267,5199 2278,5338 2289,5437 2300,5537 2311,5636 2322,5736 2333,5835 2344,5935 2355,6034 2366,6124 2377,6193 2388,6262 2399,6331 2411,6400 2422,6469 2433,6538 2444,6607 2455,6676 2466,6721 2477,6767 2488,6812 2499,6858 2510,6903 2521,6949 2532,6994 2543,7039 2554,7075 2565,7106 2576,7136 2587,7167 2598,7197 2609,7228 2620,7259 2632,7289 2643,7316 2654,7337 2665,7357 2676,7378 2687,7399 2698,7419 2709,7440 2720,7460 2731,7481 2742,7495 2753,7508 2764,7522 2775,7536 2786,7550 2797,7564 2808,7578 2819,7591 2830,7602 2841,7612 2852,7621 2864,7630 2875,7640 2886,7649 2897,7659 2908,7668 2919,7676 2930,7683 2941,7689 2952,7696 2963,7702 2974,7709 2985,7715 3007,7728 3018,7733 3029,7737 3040,7742 3051,7746 3062,7750 3073,7755 3085,7759 3107,7767 3118,7771 3129,7774 3140,7777 3151,7780 3162,7783 3173,7786 3184,7789 3195,7792 3217,7796 3228,7798 3239,7800 3250,7802 3261,7804 3272,7807 3283,7809 3294,7810 3317,7813 3328,7814 3339,7816 3350,7817 3361,7818 3372,7820 3383,7821 3394,7822 3416,7823 3427,7824 3438,7825 3449,7826 3460,7827 3471,7827 3482,7828 3493,7828 3515,7829 3526,7830 3538,7830 3549,7830 3560,7831 3571,7831 3582,7831 3593,7831 3604,7832 3626,7832 3637,7832 3648,7832 3659,7832 3670,7832 3681,7832 3692,7832 3703,7832 3725,7831 3736,7831 3747,7831 3758,7831 3770,7831 3781,7830 3792,7830 3803,7830 3825,7829 3836,7829 3847,7828 3858,7828 3869,7827 3880,7827 3891,7826 3902,7826 3924,7825 3935,7825 3946,7824 3957,7823 3968,7823 3979,7822 3991,7822 4002,7821 4024,7820 4035,7819 4046,7818 4057,7818 4068,7817 4079,7816 4090,7816 4101,7815 4112,7814 4134,7813 4145,7812 4156,7811 4167,7810 4178,7809 4189,7808 4200,7808 4211,7807 4234,7805 4245,7804 4256,7803 4267,7802 4278,7801 4289,7800 4300,7799 4311,7798 4333,7796 4344,7795 4355,7794 4366,7793 4377,7792 4388,7790 4399,7789 4410,7788 4432,7785 4444,7784 4455,7783 4466,7782 4477,7781 4488,7779 4499,7778 4510,7776 4521,7775 4543,7772 4554,7771 4565,7769 4576,7768 4587,7766 4598,7765 4609,7763 4620,7761 4642,7758 4653,7756 4665,7755 4676,7753 4687,7751 4698,7749 4709,7747 4720,7745 4742,7742 4753,7740 4764,7737 4775,7735 4786,7733 4797,7731 4808,7729 4819,7726 4841,7722 4852,7720 4863,7717 4874,7714 4885,7712 4897,7709 4908,7706 4919,7704 4930,7701 4941,7698 4952,7695 4963,7692 4974,7689 4985,7685 4996,7682 5007,7679 5018,7676 5029,7673 5051,7665 5062,7661 5073,7657 5084,7653 5095,7649 5106,7645 5118,7641 5129,7637 5151,7627 5162,7622 5173,7617 5184,7612 5195,7607 5206,7602 5217,7597 5228,7591 5239,7584 5250,7578 5261,7572 5272,7565 5283,7559 5294,7553 5305,7546 5316,7539 5327,7530 5338,7522 5350,7514 5361,7506 5372,7498 5383,7489 5394,7481 5405,7472 5416,7461 5427,7451 5438,7440 5449,7429 5460,7419 5471,7408 5482,7397 5493,7387 5504,7373 5515,7359 5526,7346 5537,7332 5548,7318 5559,7304 5571,7291 5582,7277 5593,7261 5604,7244 5615,7227 5626,7209 5637,7192 5648,7175 5659,7158 5670,7141 5681,7122 5692,7102 5703,7081 5714,7060 5725,7040 5736,7019 5747,6998 5758,6978 5769,6957 5780,6934 5791,6910 5803,6886 5814,6863 5825,6839 5836,6816 5847,6792 5858,6769 5869,6744 5880,6718 5891,6692 5902,6667 5913,6641 5924,6615 5935,6590 5946,6564 5957,6538 5968,6511 5979,6485 5990,6458 6001,6432 6012,6405 6024,6378 6035,6352 6046,6325 6057,6299 6068,6272 6079,6245 6090,6219 6101,6192 6112,6166 6123,6139 6134,6113 6145,6087 6156,6062 6167,6036 6178,6011 6189,5985 6200,5960 6211,5935 6222,5909 6233,5884 6244,5861 6256,5837 6267,5814 6278,5790 6289,5766 6300,5743 6311,5719 6322,5696 6333,5674 6344,5653 6355,5632 6366,5611 6377,5589 6388,5568 6399,5547 6410,5525 6421,5506 6432,5487 6443,5469 6454,5450 6465,5431 6477,5412 6488,5394 6499,5375 6510,5357 6521,5341 6532,5325 6543,5309 6554,5293 6565,5276 6576,5260 6587,5244 6598,5228 6609,5214 6620,5201 6631,5187 6642,5173 6653,5159 6664,5146 6675,5132 6686,5118 6697,5106 6709,5094 6720,5082 6731,5072 6742,5060 6753,5049 6764,5037 6775,5025 6786,5014 6797,5004 6808,4994 6819,4984 6830,4975 6841,4965 6852,4955 6863,4945 6885,4927 6896,4918 6907,4909 6918,4901 6930,4892 6941,4884 6952,4875 6963,4867 6985,4852 6996,4844 7007,4837 7018,4829 7029,4821 7040,4814 7051,4806 7062,4799 7073,4792 7084,4786 7095,4779 7106,4772 7117,4765 7128,4758 7139,4752 7151,4745 7162,4739 7173,4732 7184,4726 7195,4720 7206,4713 7217,4707 7228,4701 7239,4694 7250,4688 7261,4682 7272,4676 7283,4670 7294,4664 7305,4658 7316,4652 7327,4646 7338,4640 7349,4634 7360,4628 7371,4622 7383,4616 7394,4611 7405,4605 7416,4599 7427,4593 7438,4587 7449,4581 7460,4576 7471,4570 7493,4558 7504,4552 7515,4547 7526,4541 7537,4535 7548,4529 7559,4524 7570,4518 7592,4506 7604,4501 7615,4495 7625,4489 7636,4484 7647,4478 7658,4472 7669,4467 7691,4456 7702,4450 7713,4444 7724,4439 7735,4433 7746,4428 7757,4422 7768,4417 7779,4411 7790,4406 7801,4400 7812,4395 7823,4390 7835,4384 7846,4379 7857,4374 7868,4368 7879,4363 7901,4353 7912,4348 7923,4343 7934,4337 7945,4332 7956,4327 7967,4322 7978,4317 8000,4308 8011,4303 8022,4298 8033,4294 8044,4289 8056,4284 8067,4280 8078,4275 8100,4267 8111,4262 8122,4258 8133,4254 8144,4250 8155,4245 8166,4241 8177,4238 8188,4234 8199,4230 8210,4227 8221,4223 8232,4219 8243,4216 8254,4212 8265,4209 8276,4206 8288,4203 8310,4198 8321,4195 8332,4192 8343,4189 8354,4186 8365,4184 8376,4182 8387,4180 8409,4176 8420,4174 8431,4171 8442,4170 8453,4168 8464,4167 8475,4166 8486,4165 8509,4162 8520,4161 8531,4160 8542,4160 8553,4160 8564,4160 8575,4159 8586,4159 8608,4159 8619,4159 8630,4159 8641,4160 8652,4161 8663,4162 8674,4163 8685,4164 8696,4165 8718,4167 8729,4169 8741,4172 8752,4174 8763,4176 8774,4178 8785,4180 8796,4182 8818,4188 8829,4191 8840,4195 8851,4198 8862,4201 8873,4205 8884,4208 8895,4212 8917,4221 8928,4225 8939,4230 8950,4235 8962,4240 8973,4245 8984,4249 8995,4254 9006,4261 9017,4267 9028,4273 9039,4279 9050,4286 9061,4292 9072,4298 9083,4304 9094,4312 9105,4320 9116,4328 9127,4336 9138,4343 9149,4351 9160,4359 9171,4367 9182,4376 9194,4385 9205,4395 9216,4404 9227,4414 9238,4423 9249,4433 9260,4442 9271,4452 9282,4464 9293,4475 9304,4486 9315,4498 9326,4509 9337,4520 9348,4532 9359,4543 9370,4556 9381,4570 9392,4583 9403,4596 9415,4609 9426,4623 9437,4636 9448,4649 9459,4664 9470,4679 9481,4694 9492,4709 9503,4725 9514,4740 9525,4755 9536,4770 9547,4786 9558,4803 9569,4821 9580,4838 9591,4855 9602,4872 9613,4889 9624,4906 9636,4924 9647,4943 9658,4962 9669,4981 9680,5000 9691,5019 9702,5038 9713,5057 9724,5076 9735,5095 9746,5116 9757,5137 9768,5158 9779,5178 9790,5199 9801,5220 9812,5241 9823,5262 9834,5284 9845,5307 9856,5329 9868,5351 9879,5374 9890,5396 9901,5418 9912,5441 9923,5464 9934,5488 9945,5511 9956,5535 9967,5558 9978,5582 9989,5605 10000,5629 10011,5653 10022,5678 10033,5702 10044,5727 10055,5751 10066,5776 10077,5800 10089,5824 10100,5849 10111,5874 10122,5899 10133,5925 10144,5950 10155,5975 10166,6000 10177,6025 10188,6050 10199,6075 10210,6101 10221,6126 10232,6151 10243,6176 10254,6202 10265,6227 10276,6252 10287,6277 10298,6302 10309,6327 10321,6352 10332,6377 10343,6402 10354,6427 10365,6452 10376,6477 10387,6501 10398,6525 10409,6549 10420,6573 10431,6597 10442,6621 10453,6645 10464,6670 10475,6692 10486,6715 10497,6738 10508,6760 10519,6783 10530,6806 10542,6828 10553,6851 10564,6873 10575,6893 10586,6914 10597,6935 10608,6956 10619,6977 10630,6998 10641,7018 10652,7038 10663,7057 10674,7076 10685,7095 10696,7113 10707,7132 10718,7150 10729,7169 10740,7188 10751,7204 10762,7220 10774,7237 10785,7253 10796,7269 10807,7286 10818,7302 10829,7318 10840,7333 10851,7347 10862,7361 10873,7375 10884,7389 10895,7403 10906,7417 10917,7431 10928,7444 10939,7457 10950,7468 10961,7480 10972,7492 10983,7504 10995,7516 11006,7528 11017,7540 11028,7550 11039,7560 11050,7570 11061,7580 11072,7590 11083,7601 11094,7611 11105,7621 11116,7630 11127,7638 11138,7647 11149,7655 11160,7664 11171,7673 11182,7681 11193,7690 11204,7698 11215,7705 11227,7712 11238,7719 11260,7734 11271,7741 11282,7748 11293,7755 11304,7761 11315,7767 11326,7774 11337,7780 11359,7792 11370,7798 11381,7804 11392,7809 11403,7815 11414,7820 11425,7825 11436,7830 11448,7836 11459,7841 11470,7846 11481,7851 11492,7855 11503,7860 11514,7864 11525,7869 11536,7873 11547,7878 11569,7886 11580,7890 11591,7894 11602,7898 11613,7902 11624,7906 11635,7910 11646,7913 11657,7917 11668,7921 11680,7924 11691,7927 11702,7931 11713,7934 11724,7937 11735,7941 11746,7944 11768,7950 11779,7953 11790,7956 11801,7959 11812,7962 11823,7965 11834,7968 11845,7971 11856,7974 11878,7979 11889,7982 11901,7984 11912,7987 11923,7990 11934,7992 11945,7995 11956,7997 11978,8002 11989,8004 12000,8007 12011,8009 12022,8011 12033,8014 12044,8016 12055,8018 12077,8023 12088,8025 12099,8027 12110,8029 12122,8032 12133,8034 12144,8036 12155,8038 12177,8042 12188,8044 12199,8046 12210,8048 12221,8050 12232,8052 12243,8054 12254,8056 12276,8060 12287,8063 12298,8065 12309,8066 12320,8069 12331,8070 12342,8072 12354,8074 12365,8076 12376,8078 12387,8080 12398,8082 12409,8084 12420,8086 12431,8088 12442,8090 12453,8092 12464,8094 12486,8098 12497,8100 12508,8102 12519,8104 12530,8106 12541,8108 12552,8110 12563,8112 12586,8116 12597,8118 12608,8120 12619,8122 12630,8124 12641,8126 12652,8128 12663,8130 12685,8134 12696,8136 12707,8138 12718,8140 12729,8142 12740,8144 12751,8146 12762,8148 12773,8150 12795,8154 12807,8156 12818,8158 12829,8160 12840,8162 12851,8164 12862,8166 12873,8169 12895,8173 12906,8175 12917,8177 12928,8179 12939,8181 12950,8184 12961,8186 12972,8188 12994,8193 13005,8195 13016,8198 13028,8200 13039,8202 13050,8204 13061,8206 13072,8207 13094,8210 13105,8212 13116,8213 13127,8215 13138,8218 13149,8222 13160,8227 13171,8231 13193,8241 13204,8245 13215,8250 13226,8255"/>
 <path fill="none" stroke="rgb(0,69,134)" stroke-width="80" stroke-linejoin="round" d="M 2179,4517 L 2190,2785 2201,3476 2212,3849 2223,4196 2234,4416 2245,4611 2256,4807 2267,5002 2278,5131 2289,5229 2300,5327 2311,5425 2322,5522 2333,5620 2344,5718 2355,5816 2366,5909 2377,5992 2388,6075 2399,6158 2411,6241 2422,6324 2433,6407 2444,6490 2455,6573 2466,6643 2477,6713 2488,6782 2499,6852 2510,6922 2521,6992 2532,7062 2543,7132 2554,7190 2565,7241 2576,7293 2587,7344 2598,7395 2609,7447 2620,7498 2632,7550 2643,7592 2654,7618 2665,7643 2676,7668 2687,7693 2698,7719 2709,7744 2720,7769 2731,7795 2742,7802 2753,7809 2764,7816 2775,7823 2786,7830 2808,7844 2819,7852 2830,7855 2841,7856 2852,7858 2864,7859 2875,7861 2886,7862 2908,7865 2919,7866 2930,7867 2941,7867 2952,7867 2963,7868 2974,7868 2985,7868 3007,7869 3018,7869 3029,7869 3040,7869 3051,7868 3062,7868 3073,7868 3085,7868 3107,7868 3118,7868 3129,7867 3140,7867 3151,7867 3162,7867 3173,7866 3184,7866 3195,7866 3217,7865 3228,7865 3239,7864 3250,7864 3261,7863 3272,7863 3283,7863 3294,7862 3317,7861 3328,7861 3339,7861 3350,7860 3361,7860 3372,7859 3383,7859 3394,7858 3416,7857 3427,7857 3438,7856 3449,7856 3460,7855 3471,7855 3482,7854 3493,7854 3515,7853 3526,7852 3538,7852 3549,7851 3560,7851 3571,7850 3582,7850 3593,7849 3604,7848 3626,7847 3637,7847 3648,7846 3659,7846 3670,7845 3681,7845 3692,7844 3703,7843 3725,7842 3736,7842 3747,7841 3758,7841 3770,7840 3781,7839 3792,7839 3803,7838 3825,7837 3836,7836 3847,7836 3858,7835 3869,7834 3880,7833 3891,7833 3902,7832 3924,7831 3935,7830 3946,7829 3957,7829 3968,7828 3979,7827 3991,7826 4002,7826 4024,7824 4035,7823 4046,7823 4057,7822 4068,7821 4079,7820 4090,7819 4101,7819 4112,7818 4134,7816 4145,7815 4156,7814 4167,7813 4178,7812 4189,7812 4200,7811 4211,7810 4234,7808 4245,7807 4256,7806 4267,7805 4278,7804 4289,7803 4300,7802 4311,7801 4333,7799 4344,7798 4355,7797 4366,7796 4377,7795 4388,7793 4399,7792 4410,7791 4432,7789 4444,7788 4455,7786 4466,7785 4477,7784 4488,7783 4499,7781 4510,7780 4521,7779 4543,7776 4554,7775 4565,7774 4576,7772 4587,7771 4598,7769 4609,7768 4620,7766 4631,7765 4642,7763 4653,7762 4665,7760 4676,7759 4687,7757 4698,7755 4709,7753 4720,7752 4742,7748 4753,7746 4764,7745 4775,7743 4786,7741 4797,7739 4808,7737 4819,7735 4841,7731 4852,7728 4863,7726 4874,7724 4885,7721 4897,7719 4908,7717 4919,7714 4941,7709 4952,7707 4963,7704 4974,7701 4985,7698 4996,7695 5007,7693 5018,7690 5029,7687 5051,7680 5062,7677 5073,7673 5084,7670 5095,7667 5106,7663 5118,7660 5129,7656 5140,7652 5151,7648 5162,7644 5173,7639 5184,7635 5195,7631 5206,7627 5217,7622 5228,7617 5239,7612 5250,7606 5261,7601 5272,7596 5283,7590 5294,7585 5305,7579 5316,7573 5327,7566 5338,7559 5350,7552 5361,7545 5372,7537 5383,7530 5394,7523 5405,7515 5416,7506 5427,7496 5438,7487 5460,7467 5471,7458 5482,7448 5493,7439 5504,7426 5515,7414 5526,7401 5537,7388 5548,7376 5559,7363 5571,7350 5582,7338 5593,7323 5604,7307 5615,7290 5626,7274 5637,7258 5648,7242 5659,7226 5670,7210 5681,7192 5692,7173 5703,7153 5714,7134 5725,7114 5736,7094 5747,7075 5758,7055 5769,7036 5780,7013 5791,6991 5803,6968 5814,6945 5825,6923 5836,6900 5847,6878 5858,6855 5869,6831 5880,6806 5891,6782 5902,6757 5913,6732 5924,6708 5935,6683 5946,6658 5957,6633 5968,6608 5979,6582 5990,6556 6001,6530 6012,6505 6024,6479 6035,6453 6046,6428 6057,6402 6068,6376 6079,6350 6090,6324 6101,6299 6112,6273 6123,6247 6134,6221 6145,6196 6156,6171 6167,6147 6178,6122 6189,6097 6200,6072 6211,6047 6222,6022 6233,5998 6244,5975 6256,5952 6267,5928 6278,5905 6289,5882 6300,5859 6311,5836 6322,5812 6333,5791 6344,5770 6355,5749 6366,5728 6377,5707 6388,5686 6399,5665 6410,5644 6421,5624 6432,5606 6443,5587 6454,5568 6465,5550 6477,5531 6488,5512 6499,5494 6510,5476 6521,5460 6532,5443 6543,5427 6554,5411 6565,5395 6576,5378 6587,5362 6598,5346 6609,5332 6620,5318 6631,5304 6642,5290 6653,5276 6664,5262 6675,5248 6686,5234 6697,5222 6709,5210 6720,5198 6731,5186 6742,5174 6753,5163 6764,5151 6775,5139 6786,5127 6797,5117 6808,5107 6819,5097 6830,5087 6841,5078 6852,5068 6863,5058 6885,5039 6896,5030 6907,5022 6918,5013 6930,5004 6941,4996 6952,4987 6963,4978 6974,4970 6985,4962 6996,4955 7007,4947 7018,4939 7029,4932 7040,4924 7051,4917 7062,4909 7073,4902 7084,4895 7095,4888 7106,4882 7117,4875 7128,4868 7139,4861 7151,4854 7162,4847 7173,4841 7184,4834 7195,4828 7206,4821 7217,4815 7228,4809 7239,4802 7250,4796 7261,4789 7272,4783 7294,4771 7305,4764 7316,4758 7327,4752 7338,4746 7349,4739 7360,4733 7371,4727 7383,4721 7394,4715 7405,4708 7416,4702 7427,4696 7438,4690 7449,4683 7460,4677 7471,4671 7493,4658 7504,4652 7515,4646 7526,4639 7537,4633 7548,4626 7559,4620 7570,4614 7581,4607 7592,4601 7604,4594 7615,4588 7625,4581 7636,4575 7647,4568 7658,4562 7669,4555 7691,4542 7702,4535 7713,4529 7724,4522 7735,4515 7746,4509 7757,4502 7768,4495 7779,4489 7790,4482 7801,4475 7812,4469 7823,4462 7835,4455 7846,4448 7857,4442 7868,4435 7879,4428 7901,4415 7912,4408 7923,4402 7934,4395 7945,4388 7956,4382 7967,4375 7978,4368 8000,4355 8011,4349 8022,4342 8033,4336 8044,4329 8056,4323 8067,4317 8078,4310 8089,4304 8100,4298 8111,4292 8122,4286 8133,4279 8144,4273 8155,4267 8166,4261 8177,4255 8188,4250 8199,4244 8210,4238 8221,4232 8232,4227 8243,4221 8254,4215 8265,4210 8276,4205 8288,4200 8310,4190 8321,4185 8332,4180 8343,4174 8354,4170 8365,4165 8376,4161 8387,4156 8409,4148 8420,4143 8431,4139 8442,4135 8453,4131 8464,4127 8475,4124 8486,4120 8497,4117 8509,4113 8520,4109 8531,4106 8542,4103 8553,4100 8564,4097 8575,4094 8586,4092 8608,4086 8619,4083 8630,4081 8641,4079 8652,4077 8663,4075 8674,4073 8685,4071 8696,4069 8707,4068 8718,4066 8729,4065 8741,4064 8752,4063 8763,4062 8774,4061 8785,4060 8796,4059 8818,4057 8829,4057 8840,4057 8851,4057 8862,4056 8873,4056 8884,4056 8895,4056 8917,4057 8928,4058 8939,4058 8950,4059 8962,4060 8973,4060 8984,4061 8995,4062 9017,4065 9028,4067 9039,4068 9050,4070 9061,4071 9072,4073 9083,4075 9094,4077 9105,4080 9116,4082 9127,4085 9138,4088 9149,4090 9160,4093 9171,4095 9182,4099 9194,4102 9205,4106 9216,4110 9227,4114 9238,4117 9249,4121 9260,4125 9271,4129 9282,4134 9293,4139 9304,4144 9315,4149 9326,4154 9337,4159 9348,4164 9359,4169 9370,4175 9381,4182 9392,4188 9403,4195 9426,4208 9437,4214 9448,4221 9459,4228 9470,4237 9481,4245 9492,4253 9503,4261 9525,4277 9536,4285 9547,4294 9558,4304 9569,4315 9580,4325 9591,4335 9602,4345 9613,4355 9624,4365 9636,4375 9647,4387 9658,4399 9669,4412 9680,4424 9691,4436 9702,4448 9713,4460 9724,4473 9735,4486 9746,4501 9757,4515 9768,4530 9779,4545 9790,4559 9801,4574 9812,4588 9823,4604 9834,4621 9845,4638 9856,4655 9868,4672 9879,4689 9890,4706 9901,4723 9912,4740 9923,4760 9934,4779 9945,4799 9956,4818 9967,4838 9978,4858 9989,4877 10000,4897 10011,4918 10022,4940 10033,4962 10044,4984 10055,5007 10066,5029 10077,5051 10089,5073 10100,5095 10111,5119 10122,5144 10133,5168 10144,5193 10155,5217 10166,5242 10177,5266 10188,5291 10199,5317 10210,5343 10221,5370 10232,5396 10243,5423 10254,5449 10265,5475 10276,5502 10287,5529 10298,5557 10309,5585 10321,5613 10332,5641 10343,5668 10354,5696 10365,5724 10376,5752 10387,5781 10398,5810 10409,5839 10420,5867 10431,5896 10442,5925 10453,5954 10464,5982 10475,6011 10486,6040 10497,6069 10508,6098 10519,6127 10530,6156 10542,6185 10553,6214 10564,6242 10575,6271 10586,6299 10597,6328 10608,6356 10619,6384 10630,6413 10641,6441 10652,6469 10663,6496 10674,6523 10685,6550 10696,6577 10707,6604 10718,6632 10729,6659 10740,6686 10751,6711 10762,6736 10774,6761 10785,6786 10796,6811 10807,6837 10818,6862 10829,6887 10840,6910 10851,6933 10862,6956 10873,6978 10884,7001 10895,7024 10906,7047 10917,7069 10928,7091 10939,7111 10950,7131 10961,7151 10972,7171 10983,7190 10995,7211 11006,7230 11017,7250 11028,7267 11039,7284 11050,7302 11061,7319 11072,7336 11083,7353 11094,7370 11105,7387 11116,7402 11127,7417 11138,7431 11149,7446 11160,7460 11171,7475 11182,7489 11193,7503 11204,7517 11215,7529 11227,7541 11238,7553 11249,7565 11260,7577 11271,7589 11282,7601 11293,7613 11304,7623 11315,7633 11326,7643 11337,7652 11359,7672 11370,7682 11381,7692 11392,7701 11403,7709 11414,7717 11425,7725 11436,7733 11448,7741 11470,7758 11481,7765 11492,7772 11503,7779 11514,7785 11525,7792 11536,7799 11547,7805 11569,7819 11580,7824 11591,7829 11602,7835 11613,7840 11624,7846 11635,7851 11646,7856 11668,7867 11680,7871 11691,7875 11702,7880 11713,7884 11724,7889 11735,7893 11746,7897 11768,7905 11779,7909 11790,7912 11801,7916 11812,7919 11823,7923 11834,7927 11845,7930 11856,7933 11878,7939 11889,7941 11901,7944 11912,7947 11923,7950 11934,7953 11945,7956 11956,7958 11978,7962 11989,7965 12000,7967 12011,7969 12022,7972 12033,7974 12044,7976 12055,7978 12066,7980 12077,7981 12088,7983 12099,7985 12110,7987 12122,7989 12133,7990 12144,7992 12155,7993 12177,7996 12188,7998 12199,8000 12210,8001 12221,8002 12232,8004 12243,8005 12254,8006 12276,8008 12287,8010 12298,8011 12309,8012 12320,8013 12331,8014 12342,8015 12354,8017 12365,8018 12387,8020 12398,8021 12409,8022 12420,8023 12431,8024 12442,8024 12453,8025 12464,8026 12486,8028 12497,8028 12508,8029 12519,8030 12530,8031 12541,8032 12552,8034 12563,8035 12586,8036 12597,8037 12608,8038 12619,8038 12630,8039 12641,8039 12652,8040 12663,8041 12685,8043 12696,8044 12707,8046 12718,8048 12729,8050 12740,8051 12751,8053 12762,8055 12773,8056 12795,8060 12807,8061 12818,8063 12829,8064 12840,8066 12851,8068 12862,8070 12873,8075 12884,8080 12895,8085 12906,8089 12917,8094 12928,8099 12939,8104 12950,8108 12961,8113 12972,8117 12994,8125 13005,8130 13016,8134 13028,8138 13039,8142 13050,8149 13061,8158 13072,8166 13094,8182 13105,8191 13116,8199 13127,8207 13138,8216 13149,8226 13160,8237 13171,8247 13182,8257 13193,8268 13204,8278 13215,8288 13226,8299"/>
 <text class="TextShape"><tspan class="TextParagraph" font-family="Liberation Sans, sans-serif" font-size="353px" font-weight="400"><tspan class="TextPosition" x="2086" y="8422"><tspan fill="rgb(0,0,0)" stroke="none">0</tspan></tspan></tspan></text>
 <text class="TextShape"><tspan class="TextParagraph" font-family="Liberation Sans, sans-serif" font-size="353px" font-weight="400"><tspan class="TextPosition" x="3229" y="8422"><tspan fill="rgb(0,0,0)" stroke="none">0.05</tspan></tspan></tspan></text>
 <text class="TextShape"><tspan class="TextParagraph" font-family="Liberation Sans, sans-serif" font-size="353px" font-weight="400"><tspan class="TextPosition" x="4703" y="8422"><tspan fill="rgb(0,0,0)" stroke="none">0.1</tspan></tspan></tspan></text>
 <text class="TextShape"><tspan class="TextParagraph" font-family="Liberation Sans, sans-serif" font-size="353px" font-weight="400"><tspan class="TextPosition" x="5991" y="8422"><tspan fill="rgb(0,0,0)" stroke="none">0.15</tspan></tspan></tspan></text>
 <text class="TextShape"><tspan class="TextParagraph" font-family="Liberation Sans, sans-serif" font-size="353px" font-weight="400"><tspan class="TextPosition" x="7465" y="8422"><tspan fill="rgb(0,0,0)" stroke="none">0.2</tspan></tspan></tspan></text>
 <text class="TextShape"><tspan class="TextParagraph" font-family="Liberation Sans, sans-serif" font-size="353px" font-weight="400"><tspan class="TextPosition" x="8753" y="8422"><tspan fill="rgb(0,0,0)" stroke="none">0.25</tspan></tspan></tspan></text>
 <text class="TextShape"><tspan class="TextParagraph" font-family="Liberation Sans, sans-serif" font-size="353px" font-weight="400"><tspan class="TextPosition" x="10227" y="8422"><tspan fill="rgb(0,0,0)" stroke="none">0.3</tspan></tspan></tspan></text>
 <text class="TextShape"><tspan class="TextParagraph" font-family="Liberation Sans, sans-serif" font-size="353px" font-weight="400"><tspan class="TextPosition" x="11515" y="8422"><tspan fill="rgb(0,0,0)" stroke="none">0.35</tspan></tspan></tspan></text>
 <text class="TextShape"><tspan class="TextParagraph" font-family="Liberation Sans, sans-serif" font-size="353px" font-weight="400"><tspan class="TextPosition" x="12989" y="8422"><tspan fill="rgb(0,0,0)" stroke="none">0.4</tspan></tspan></tspan></text>
 <text class="TextShape"><tspan class="TextParagraph" font-family="Liberation Sans, sans-serif" font-size="353px" font-weight="400"><tspan class="TextPosition" x="14278" y="8422"><tspan fill="rgb(0,0,0)" stroke="none">0.45</tspan></tspan></tspan></text>
 <text class="TextShape"><tspan class="TextParagraph" font-family="Liberation Sans, sans-serif" font-size="353px" font-weight="400"><tspan class="TextPosition" x="1268" y="8948"><tspan fill="rgb(0,0,0)" stroke="none">-100</tspan></tspan></tspan></text>
 <text class="TextShape"><tspan class="TextParagraph" font-family="Liberation Sans, sans-serif" font-size="353px" font-weight="400"><tspan class="TextPosition" x="1744" y="8014"><tspan fill="rgb(0,0,0)" stroke="none">0</tspan></tspan></tspan></text>
 <text class="TextShape"><tspan class="TextParagraph" font-family="Liberation Sans, sans-serif" font-size="353px" font-weight="400"><tspan class="TextPosition" x="1373" y="7081"><tspan fill="rgb(0,0,0)" stroke="none">100</tspan></tspan></tspan></text>
 <text class="TextShape"><tspan class="TextParagraph" font-family="Liberation Sans, sans-serif" font-size="353px" font-weight="400"><tspan class="TextPosition" x="1373" y="6147"><tspan fill="rgb(0,0,0)" stroke="none">200</tspan></tspan></tspan></text>
 <text class="TextShape"><tspan class="TextParagraph" font-family="Liberation Sans, sans-serif" font-size="353px" font-weight="400"><tspan class="TextPosition" x="1373" y="5214"><tspan fill="rgb(0,0,0)" stroke="none">300</tspan></tspan></tspan></text>
 <text class="TextShape"><tspan class="TextParagraph" font-family="Liberation Sans, sans-serif" font-size="353px" font-weight="400"><tspan class="TextPosition" x="1373" y="4280"><tspan fill="rgb(0,0,0)" stroke="none">400</tspan></tspan></tspan></text>
 <text class="TextShape"><tspan class="TextParagraph" font-family="Liberation Sans, sans-serif" font-size="353px" font-weight="400"><tspan class="TextPosition" x="1373" y="3346"><tspan fill="rgb(0,0,0)" stroke="none">500</tspan></tspan></tspan></text>
 <text class="TextShape"><tspan class="TextParagraph" font-family="Liberation Sans, sans-serif" font-size="353px" font-weight="400"><tspan class="TextPosition" x="1373" y="2413"><tspan fill="rgb(0,0,0)" stroke="none">600</tspan></tspan></tspan></text>
 <text class="TextShape"><tspan class="TextParagraph" font-family="Liberation Sans, sans-serif" font-size="353px" font-weight="400"><tspan class="TextPosition" x="1373" y="1479"><tspan fill="rgb(0,0,0)" stroke="none">700</tspan></tspan></tspan></text>
 <text class="TextShape"><tspan class="TextParagraph" font-family="Liberation Sans, sans-serif" font-size="459px" font-weight="400"><tspan class="TextPosition" x="5692" y="794"><tspan fill="rgb(0,0,0)" stroke="none">Total pressure drop</tspan></tspan></tspan></text>
 <path fill="rgb(255,255,255)" stroke="none" d="M 12079,3715 L 10287,3715 10287,1939 13870,1939 13870,3715 12079,3715 Z"/>
 <path fill="none" stroke="rgb(0,69,134)" stroke-width="80" stroke-linejoin="round" d="M 10569,2198 L 11369,2198"/>
 <path fill="none" stroke="rgb(255,66,14)" stroke-width="80" stroke-linejoin="round" d="M 10569,2617 L 11369,2617"/>
 <path fill="none" stroke="rgb(255,211,32)" stroke-width="80" stroke-linejoin="round" d="M 10569,3036 L 11369,3036"/>
 <path fill="none" stroke="rgb(87,157,28)" stroke-width="80" stroke-linejoin="round" d="M 10569,3455 L 11369,3455"/>
 <text class="TextShape"><tspan class="TextParagraph" font-family="Liberation Sans, sans-serif" font-size="353px" font-weight="400"><tspan class="TextPosition" x="11469" y="2277"><tspan fill="rgb(0,0,0)" stroke="none">Intensity 1%</tspan></tspan></tspan></text>
 <text class="TextShape"><tspan class="TextParagraph" font-family="Liberation Sans, sans-serif" font-size="353px" font-weight="400"><tspan class="TextPosition" x="11469" y="2696"><tspan fill="rgb(0,0,0)" stroke="none">Intensity 5%</tspan></tspan></tspan></text>
 <text class="TextShape"><tspan class="TextParagraph" font-family="Liberation Sans, sans-serif" font-size="353px" font-weight="400"><tspan class="TextPosition" x="11469" y="3115"><tspan fill="rgb(0,0,0)" stroke="none">Intensity 10%</tspan></tspan></tspan></text>
 <text class="TextShape"><tspan class="TextParagraph" font-family="Liberation Sans, sans-serif" font-size="353px" font-weight="400"><tspan class="TextPosition" x="11469" y="3534"><tspan fill="rgb(0,0,0)" stroke="none">Intensity 15%</tspan></tspan></tspan></text>
 <text class="TextShape"><tspan class="TextParagraph" font-family="Liberation Sans, sans-serif" font-size="318px" font-weight="400"><tspan class="TextPosition" x="8024" y="9565"><tspan fill="rgb(0,0,0)" stroke="none">y</tspan></tspan></tspan></text>
 <text class="TextShape" transform="translate(788,6497) rotate(-90) translate(-788,-6497)"><tspan class="TextParagraph" font-family="Liberation Sans, sans-serif" font-size="318px" font-weight="400"><tspan class="TextPosition" x="788" y="6497"><tspan fill="rgb(0,0,0)" stroke="none">Total Pressure [Pa]</tspan></tspan></tspan></text>
</svg>