<?xml version="1.0" encoding="UTF-8"?>
<!DOCTYPE svg PUBLIC "-//W3C//DTD SVG 1.1//EN" "http://www.w3.org/Graphics/SVG/1.1/DTD/svg11.dtd">
<svg width="152mm" height="102mm" viewBox="0 0 15200 10200" version="1.1" xmlns="http://www.w3.org/2000/svg" stroke-width="28.222" stroke-linejoin="round" xml:space="preserve">
 <path fill="rgb(255,255,255)" stroke="none" d="M 7633,10160 L 13,10160 13,0 15253,0 15253,10160 7633,10160 Z"/>
 <path fill="none" stroke="rgb(179,179,179)" stroke-linejoin="round" d="M 8297,9179 L 2378,9179 2378,854 14216,854 14216,9179 8297,9179 Z"/>
 <path fill="none" stroke="rgb(179,179,179)" stroke-linejoin="round" d="M 14216,9178 L 2378,9178"/>
 <path fill="none" stroke="rgb(179,179,179)" stroke-linejoin="round" d="M 14216,7988 L 2378,7988"/>
 <path fill="none" stroke="rgb(179,179,179)" stroke-linejoin="round" d="M 14216,6799 L 2378,6799"/>
 <path fill="none" stroke="rgb(179,179,179)" stroke-linejoin="round" d="M 14216,5609 L 2378,5609"/>
 <path fill="none" stroke="rgb(179,179,179)" stroke-linejoin="round" d="M 14216,4421 L 2378,4421"/>
 <path fill="none" stroke="rgb(179,179,179)" stroke-linejoin="round" d="M 14216,3231 L 2378,3231"/>
 <path fill="none" stroke="rgb(179,179,179)" stroke-linejoin="round" d="M 14216,2042 L 2378,2042"/>
 <path fill="none" stroke="rgb(179,179,179)" stroke-linejoin="round" d="M 14216,852 L 2378,852"/>
 <path fill="none" stroke="rgb(179,179,179)" stroke-linejoin="round" d="M 2378,8138 L 2378,7988"/>
 <path fill="none" stroke="rgb(179,179,179)" stroke-linejoin="round" d="M 2378,8138 L 2378,7988"/>
 <path fill="none" stroke="rgb(179,179,179)" stroke-linejoin="round" d="M 4351,8138 L 4351,7988"/>
 <path fill="none" stroke="rgb(179,179,179)" stroke-linejoin="round" d="M 4351,8138 L 4351,7988"/>
 <path fill="none" stroke="rgb(179,179,179)" stroke-linejoin="round" d="M 6324,8138 L 6324,7988"/>
 <path fill="none" stroke="rgb(179,179,179)" stroke-linejoin="round" d="M 6324,8138 L 6324,7988"/>
 <path fill="none" stroke="rgb(179,179,179)" stroke-linejoin="round" d="M 8296,8138 L 8296,7988"/>
 <path fill="none" stroke="rgb(179,179,179)" stroke-linejoin="round" d="M 8296,8138 L 8296,7988"/>
 <path fill="none" stroke="rgb(179,179,179)" stroke-linejoin="round" d="M 10269,8138 L 10269,7988"/>
 <path fill="none" stroke="rgb(179,179,179)" stroke-linejoin="round" d="M 10269,8138 L 10269,7988"/>
 <path fill="none" stroke="rgb(179,179,179)" stroke-linejoin="round" d="M 12242,8138 L 12242,7988"/>
 <path fill="none" stroke="rgb(179,179,179)" stroke-linejoin="round" d="M 12242,8138 L 12242,7988"/>
 <path fill="none" stroke="rgb(179,179,179)" stroke-linejoin="round" d="M 14216,8138 L 14216,7988"/>
 <path fill="none" stroke="rgb(179,179,179)" stroke-linejoin="round" d="M 14216,8138 L 14216,7988"/>
 <path fill="none" stroke="rgb(179,179,179)" stroke-linejoin="round" d="M 2378,7988 L 14216,7988"/>
 <path fill="none" stroke="rgb(179,179,179)" stroke-linejoin="round" d="M 2228,9178 L 2378,9178"/>
 <path fill="none" stroke="rgb(179,179,179)" stroke-linejoin="round" d="M 2228,9178 L 2378,9178"/>
 <path fill="none" stroke="rgb(179,179,179)" stroke-linejoin="round" d="M 2228,7988 L 2378,7988"/>
 <path fill="none" stroke="rgb(179,179,179)" stroke-linejoin="round" d="M 2228,7988 L 2378,7988"/>
 <path fill="none" stroke="rgb(179,179,179)" stroke-linejoin="round" d="M 2228,6799 L 2378,6799"/>
 <path fill="none" stroke="rgb(179,179,179)" stroke-linejoin="round" d="M 2228,6799 L 2378,6799"/>
 <path fill="none" stroke="rgb(179,179,179)" stroke-linejoin="round" d="M 2228,5609 L 2378,5609"/>
 <path fill="none" stroke="rgb(179,179,179)" stroke-linejoin="round" d="M 2228,5609 L 2378,5609"/>
 <path fill="none" stroke="rgb(179,179,179)" stroke-linejoin="round" d="M 2228,4421 L 2378,4421"/>
 <path fill="none" stroke="rgb(179,179,179)" stroke-linejoin="round" d="M 2228,4421 L 2378,4421"/>
 <path fill="none" stroke="rgb(179,179,179)" stroke-linejoin="round" d="M 2228,3231 L 2378,3231"/>
 <path fill="none" stroke="rgb(179,179,179)" stroke-linejoin="round" d="M 2228,3231 L 2378,3231"/>
 <path fill="none" stroke="rgb(179,179,179)" stroke-linejoin="round" d="M 2228,2042 L 2378,2042"/>
 <path fill="none" stroke="rgb(179,179,179)" stroke-linejoin="round" d="M 2228,2042 L 2378,2042"/>
 <path fill="none" stroke="rgb(179,179,179)" stroke-linejoin="round" d="M 2228,853 L 2378,853"/>
 <path fill="none" stroke="rgb(179,179,179)" stroke-linejoin="round" d="M 2228,853 L 2378,853"/>
 <path fill="none" stroke="rgb(179,179,179)" stroke-linejoin="round" d="M 2378,9178 L 2378,852"/>
 <path fill="none" stroke="rgb(255,211,32)" stroke-width="80" stroke-linejoin="round" d="M 3364,7960 L 4844,7878 7310,7969 9776,8028 11256,8015"/>
 <path fill="rgb(255,211,32)" stroke="none" d="M 3239,7835 L 3364,8085 3489,7835 3239,7835 Z"/>
 <path fill="none" stroke="rgb(255,211,32)" stroke-linejoin="round" d="M 3239,7835 L 3364,8085 3489,7835 3239,7835 Z"/>
 <path fill="rgb(255,211,32)" stroke="none" d="M 4719,7753 L 4844,8003 4969,7753 4719,7753 Z"/>
 <path fill="none" stroke="rgb(255,211,32)" stroke-linejoin="round" d="M 4719,7753 L 4844,8003 4969,7753 4719,7753 Z"/>
 <path fill="rgb(255,211,32)" stroke="none" d="M 7185,7844 L 7310,8094 7435,7844 7185,7844 Z"/>
 <path fill="none" stroke="rgb(255,211,32)" stroke-linejoin="round" d="M 7185,7844 L 7310,8094 7435,7844 7185,7844 Z"/>
 <path fill="rgb(255,211,32)" stroke="none" d="M 9651,7903 L 9776,8153 9901,7903 9651,7903 Z"/>
 <path fill="none" stroke="rgb(255,211,32)" stroke-linejoin="round" d="M 9651,7903 L 9776,8153 9901,7903 9651,7903 Z"/>
 <path fill="rgb(255,211,32)" stroke="none" d="M 11131,7890 L 11256,8140 11381,7890 11131,7890 Z"/>
 <path fill="none" stroke="rgb(255,211,32)" stroke-linejoin="round" d="M 11131,7890 L 11256,8140 11381,7890 11131,7890 Z"/>
 <path fill="none" stroke="rgb(255,66,14)" stroke-width="80" stroke-linejoin="round" d="M 3364,6505 L 4844,3479 7310,1736 9776,4031 11256,6712"/>
 <path fill="rgb(255,66,14)" stroke="none" d="M 3239,6505 L 3364,6630 3489,6505 3364,6380 3239,6505 Z"/>
 <path fill="none" stroke="rgb(255,66,14)" stroke-linejoin="round" d="M 3239,6505 L 3364,6630 3489,6505 3364,6380 3239,6505 Z"/>
 <path fill="rgb(255,66,14)" stroke="none" d="M 4719,3479 L 4844,3604 4969,3479 4844,3354 4719,3479 Z"/>
 <path fill="none" stroke="rgb(255,66,14)" stroke-linejoin="round" d="M 4719,3479 L 4844,3604 4969,3479 4844,3354 4719,3479 Z"/>
 <path fill="rgb(255,66,14)" stroke="none" d="M 7185,1736 L 7310,1861 7435,1736 7310,1611 7185,1736 Z"/>
 <path fill="none" stroke="rgb(255,66,14)" stroke-linejoin="round" d="M 7185,1736 L 7310,1861 7435,1736 7310,1611 7185,1736 Z"/>
 <path fill="rgb(255,66,14)" stroke="none" d="M 9651,4031 L 9776,4156 9901,4031 9776,3906 9651,4031 Z"/>
 <path fill="none" stroke="rgb(255,66,14)" stroke-linejoin="round" d="M 9651,4031 L 9776,4156 9901,4031 9776,3906 9651,4031 Z"/>
 <path fill="rgb(255,66,14)" stroke="none" d="M 11131,6712 L 11256,6837 11381,6712 11256,6587 11131,6712 Z"/>
 <path fill="none" stroke="rgb(255,66,14)" stroke-linejoin="round" d="M 11131,6712 L 11256,6837 11381,6712 11256,6587 11131,6712 Z"/>
 <path fill="none" stroke="rgb(0,69,134)" stroke-width="80" stroke-linejoin="round" d="M 3364,6534 L 4844,3589 6077,2426 6570,2022 7310,1756 8049,2092 8543,2484 9776,3992 11256,6685 12242,9050"/>
 <path fill="rgb(0,69,134)" stroke="none" d="M 3239,6409 L 3239,6659 3489,6659 3489,6409 3239,6409 Z"/>
 <path fill="none" stroke="rgb(0,69,134)" stroke-linejoin="round" d="M 3239,6409 L 3239,6659 3489,6659 3489,6409 3239,6409 Z"/>
 <path fill="rgb(0,69,134)" stroke="none" d="M 4719,3464 L 4719,3714 4969,3714 4969,3464 4719,3464 Z"/>
 <path fill="none" stroke="rgb(0,69,134)" stroke-linejoin="round" d="M 4719,3464 L 4719,3714 4969,3714 4969,3464 4719,3464 Z"/>
 <path fill="rgb(0,69,134)" stroke="none" d="M 5952,2301 L 5952,2551 6202,2551 6202,2301 5952,2301 Z"/>
 <path fill="none" stroke="rgb(0,69,134)" stroke-linejoin="round" d="M 5952,2301 L 5952,2551 6202,2551 6202,2301 5952,2301 Z"/>
 <path fill="rgb(0,69,134)" stroke="none" d="M 6445,1897 L 6445,2147 6695,2147 6695,1897 6445,1897 Z"/>
 <path fill="none" stroke="rgb(0,69,134)" stroke-linejoin="round" d="M 6445,1897 L 6445,2147 6695,2147 6695,1897 6445,1897 Z"/>
 <path fill="rgb(0,69,134)" stroke="none" d="M 7185,1631 L 7185,1881 7435,1881 7435,1631 7185,1631 Z"/>
 <path fill="none" stroke="rgb(0,69,134)" stroke-linejoin="round" d="M 7185,1631 L 7185,1881 7435,1881 7435,1631 7185,1631 Z"/>
 <path fill="rgb(0,69,134)" stroke="none" d="M 7924,1967 L 7924,2217 8174,2217 8174,1967 7924,1967 Z"/>
 <path fill="none" stroke="rgb(0,69,134)" stroke-linejoin="round" d="M 7924,1967 L 7924,2217 8174,2217 8174,1967 7924,1967 Z"/>
 <path fill="rgb(0,69,134)" stroke="none" d="M 8418,2359 L 8418,2609 8668,2609 8668,2359 8418,2359 Z"/>
 <path fill="none" stroke="rgb(0,69,134)" stroke-linejoin="round" d="M 8418,2359 L 8418,2609 8668,2609 8668,2359 8418,2359 Z"/>
 <path fill="rgb(0,69,134)" stroke="none" d="M 9651,3867 L 9651,4117 9901,4117 9901,3867 9651,3867 Z"/>
 <path fill="none" stroke="rgb(0,69,134)" stroke-linejoin="round" d="M 9651,3867 L 9651,4117 9901,4117 9901,3867 9651,3867 Z"/>
 <path fill="rgb(0,69,134)" stroke="none" d="M 11131,6560 L 11131,6810 11381,6810 11381,6560 11131,6560 Z"/>
 <path fill="none" stroke="rgb(0,69,134)" stroke-linejoin="round" d="M 11131,6560 L 11131,6810 11381,6810 11381,6560 11131,6560 Z"/>
 <path fill="rgb(0,69,134)" stroke="none" d="M 12117,8925 L 12117,9175 12367,9175 12367,8925 12117,8925 Z"/>
 <path fill="none" stroke="rgb(0,69,134)" stroke-linejoin="round" d="M 12117,8925 L 12117,9175 12367,9175 12367,8925 12117,8925 Z"/>
 <text class="TextShape"><tspan class="TextParagraph" font-family="Liberation Sans, sans-serif" font-size="353px" font-weight="400"><tspan class="TextPosition" x="2285" y="8476"><tspan fill="rgb(0,0,0)" stroke="none">0</tspan></tspan></tspan></text>
 <text class="TextShape"><tspan class="TextParagraph" font-family="Liberation Sans, sans-serif" font-size="353px" font-weight="400"><tspan class="TextPosition" x="4113" y="8476"><tspan fill="rgb(0,0,0)" stroke="none">0.2</tspan></tspan></tspan></text>
 <text class="TextShape"><tspan class="TextParagraph" font-family="Liberation Sans, sans-serif" font-size="353px" font-weight="400"><tspan class="TextPosition" x="6086" y="8476"><tspan fill="rgb(0,0,0)" stroke="none">0.4</tspan></tspan></tspan></text>
 <text class="TextShape"><tspan class="TextParagraph" font-family="Liberation Sans, sans-serif" font-size="353px" font-weight="400"><tspan class="TextPosition" x="8059" y="8476"><tspan fill="rgb(0,0,0)" stroke="none">0.6</tspan></tspan></tspan></text>
 <text class="TextShape"><tspan class="TextParagraph" font-family="Liberation Sans, sans-serif" font-size="353px" font-weight="400"><tspan class="TextPosition" x="10032" y="8476"><tspan fill="rgb(0,0,0)" stroke="none">0.8</tspan></tspan></tspan></text>
 <text class="TextShape"><tspan class="TextParagraph" font-family="Liberation Sans, sans-serif" font-size="353px" font-weight="400"><tspan class="TextPosition" x="12150" y="8476"><tspan fill="rgb(0,0,0)" stroke="none">1</tspan></tspan></tspan></text>
 <text class="TextShape"><tspan class="TextParagraph" font-family="Liberation Sans, sans-serif" font-size="353px" font-weight="400"><tspan class="TextPosition" x="13979" y="8476"><tspan fill="rgb(0,0,0)" stroke="none">1.2</tspan></tspan></tspan></text>
 <text class="TextShape"><tspan class="TextParagraph" font-family="Liberation Sans, sans-serif" font-size="353px" font-weight="400"><tspan class="TextPosition" x="1361" y="9258"><tspan fill="rgb(0,0,0)" stroke="none">-0.05</tspan></tspan></tspan></text>
 <text class="TextShape"><tspan class="TextParagraph" font-family="Liberation Sans, sans-serif" font-size="353px" font-weight="400"><tspan class="TextPosition" x="1943" y="8068"><tspan fill="rgb(0,0,0)" stroke="none">0</tspan></tspan></tspan></text>
 <text class="TextShape"><tspan class="TextParagraph" font-family="Liberation Sans, sans-serif" font-size="353px" font-weight="400"><tspan class="TextPosition" x="1467" y="6879"><tspan fill="rgb(0,0,0)" stroke="none">0.05</tspan></tspan></tspan></text>
 <text class="TextShape"><tspan class="TextParagraph" font-family="Liberation Sans, sans-serif" font-size="353px" font-weight="400"><tspan class="TextPosition" x="1652" y="5689"><tspan fill="rgb(0,0,0)" stroke="none">0.1</tspan></tspan></tspan></text>
 <text class="TextShape"><tspan class="TextParagraph" font-family="Liberation Sans, sans-serif" font-size="353px" font-weight="400"><tspan class="TextPosition" x="1467" y="4500"><tspan fill="rgb(0,0,0)" stroke="none">0.15</tspan></tspan></tspan></text>
 <text class="TextShape"><tspan class="TextParagraph" font-family="Liberation Sans, sans-serif" font-size="353px" font-weight="400"><tspan class="TextPosition" x="1652" y="3310"><tspan fill="rgb(0,0,0)" stroke="none">0.2</tspan></tspan></tspan></text>
 <text class="TextShape"><tspan class="TextParagraph" font-family="Liberation Sans, sans-serif" font-size="353px" font-weight="400"><tspan class="TextPosition" x="1467" y="2121"><tspan fill="rgb(0,0,0)" stroke="none">0.25</tspan></tspan></tspan></text>
 <text class="TextShape"><tspan class="TextParagraph" font-family="Liberation Sans, sans-serif" font-size="353px" font-weight="400"><tspan class="TextPosition" x="1652" y="932"><tspan fill="rgb(0,0,0)" stroke="none">0.3</tspan></tspan></tspan></text>
 <text class="TextShape"><tspan class="TextParagraph" font-family="Liberation Sans, sans-serif" font-size="459px" font-weight="400"><tspan class="TextPosition" x="5438" y="614"><tspan fill="rgb(0,0,0)" stroke="none">Comparison between meshes</tspan></tspan></tspan></text>
 <path fill="rgb(255,255,255)" stroke="none" d="M 12579,3519 L 10469,3519 10469,1983 14689,1983 14689,3519 12579,3519 Z"/>
 <path fill="none" stroke="rgb(0,69,134)" stroke-width="80" stroke-linejoin="round" d="M 11347,2286 L 12147,2286"/>
 <path fill="rgb(0,69,134)" stroke="none" d="M 11641,2181 L 11641,2392 11852,2392 11852,2181 11641,2181 Z"/>
 <path fill="none" stroke="rgb(0,69,134)" stroke-linejoin="round" d="M 11641,2181 L 11641,2392 11852,2392 11852,2181 11641,2181 Z"/>
 <path fill="none" stroke="rgb(255,66,14)" stroke-width="80" stroke-linejoin="round" d="M 11347,2749 L 12147,2749"/>
 <path fill="rgb(255,66,14)" stroke="none" d="M 11641,2749 L 11747,2855 11852,2749 11747,2644 11641,2749 Z"/>
 <path fill="none" stroke="rgb(255,66,14)" stroke-linejoin="round" d="M 11641,2749 L 11747,2855 11852,2749 11747,2644 11641,2749 Z"/>
 <path fill="none" stroke="rgb(255,211,32)" stroke-width="80" stroke-linejoin="round" d="M 11347,3212 L 12147,3212"/>
 <path fill="rgb(255,211,32)" stroke="none" d="M 11641,3107 L 11747,3318 11852,3107 11641,3107 Z"/>
 <path fill="none" stroke="rgb(255,211,32)" stroke-linejoin="round" d="M 11641,3107 L 11747,3318 11852,3107 11641,3107 Z"/>
 <text class="TextShape"><tspan class="TextParagraph" font-family="Liberation Sans, sans-serif" font-size="353px" font-weight="400"><tspan class="TextPosition" x="12247" y="2365"><tspan fill="rgb(0,0,0)" stroke="none">Mesh 80</tspan></tspan></tspan></text>
 <text class="TextShape"><tspan class="TextParagraph" font-family="Liberation Sans, sans-serif" font-size="353px" font-weight="400"><tspan class="TextPosition" x="12247" y="2828"><tspan fill="rgb(0,0,0)" stroke="none">Mesh 120</tspan></tspan></tspan></text>
 <text class="TextShape"><tspan class="TextParagraph" font-family="Liberation Sans, sans-serif" font-size="353px" font-weight="400"><tspan class="TextPosition" x="12247" y="3291"><tspan fill="rgb(0,0,0)" stroke="none">Difference</tspan></tspan></tspan></text>
 <text class="TextShape"><tspan class="TextParagraph" font-family="Liberation Sans, sans-serif" font-size="318px" font-weight="400"><tspan class="TextPosition" x="6638" y="9875"><tspan fill="rgb(0,0,0)" stroke="none">Blade speed ratio</tspan></tspan></tspan></text>
 <text class="TextShape" transform="translate(881,6246) rotate(-90) translate(-881,-6246)"><tspan class="TextParagraph" font-family="Liberation Sans, sans-serif" font-size="318px" font-weight="400"><tspan class="TextPosition" x="881" y="6246"><tspan fill="rgb(0,0,0)" stroke="none">Power coefficient</tspan></tspan></tspan></text>
</svg>