<?xml version="1.0" encoding="UTF-8"?>
<!DOCTYPE svg PUBLIC "-//W3C//DTD SVG 1.1//EN" "http://www.w3.org/Graphics/SVG/1.1/DTD/svg11.dtd">
<svg width="152mm" height="102mm" viewBox="0 0 15200 10200" version="1.1" xmlns="http://www.w3.org/2000/svg" stroke-width="28.222" stroke-linejoin="round" xml:space="preserve">
 <path fill="rgb(255,255,255)" stroke="none" d="M 7614,10161 L -6,10161 -6,1 15234,1 15234,10161 7614,10161 Z"/>
 <path fill="none" stroke="rgb(179,179,179)" stroke-linejoin="round" d="M 7449,8705 L 1777,8705 1777,1040 13121,1040 13121,8705 7449,8705 Z"/>
 <path fill="none" stroke="rgb(179,179,179)" stroke-linejoin="round" d="M 13121,8704 L 1777,8704"/>
 <path fill="none" stroke="rgb(179,179,179)" stroke-linejoin="round" d="M 13121,7426 L 1777,7426"/>
 <path fill="none" stroke="rgb(179,179,179)" stroke-linejoin="round" d="M 13121,6148 L 1777,6148"/>
 <path fill="none" stroke="rgb(179,179,179)" stroke-linejoin="round" d="M 13121,4872 L 1777,4872"/>
 <path fill="none" stroke="rgb(179,179,179)" stroke-linejoin="round" d="M 13121,3594 L 1777,3594"/>
 <path fill="none" stroke="rgb(179,179,179)" stroke-linejoin="round" d="M 13121,2316 L 1777,2316"/>
 <path fill="none" stroke="rgb(179,179,179)" stroke-linejoin="round" d="M 13121,1039 L 1777,1039"/>
 <path fill="none" stroke="rgb(179,179,179)" stroke-linejoin="round" d="M 1777,8854 L 1777,8704"/>
 <path fill="none" stroke="rgb(179,179,179)" stroke-linejoin="round" d="M 1777,8854 L 1777,8704"/>
 <path fill="none" stroke="rgb(179,179,179)" stroke-linejoin="round" d="M 4046,8854 L 4046,8704"/>
 <path fill="none" stroke="rgb(179,179,179)" stroke-linejoin="round" d="M 4046,8854 L 4046,8704"/>
 <path fill="none" stroke="rgb(179,179,179)" stroke-linejoin="round" d="M 6315,8854 L 6315,8704"/>
 <path fill="none" stroke="rgb(179,179,179)" stroke-linejoin="round" d="M 6315,8854 L 6315,8704"/>
 <path fill="none" stroke="rgb(179,179,179)" stroke-linejoin="round" d="M 8583,8854 L 8583,8704"/>
 <path fill="none" stroke="rgb(179,179,179)" stroke-linejoin="round" d="M 8583,8854 L 8583,8704"/>
 <path fill="none" stroke="rgb(179,179,179)" stroke-linejoin="round" d="M 10852,8854 L 10852,8704"/>
 <path fill="none" stroke="rgb(179,179,179)" stroke-linejoin="round" d="M 10852,8854 L 10852,8704"/>
 <path fill="none" stroke="rgb(179,179,179)" stroke-linejoin="round" d="M 13121,8854 L 13121,8704"/>
 <path fill="none" stroke="rgb(179,179,179)" stroke-linejoin="round" d="M 13121,8854 L 13121,8704"/>
 <path fill="none" stroke="rgb(179,179,179)" stroke-linejoin="round" d="M 1777,8704 L 13121,8704"/>
 <path fill="none" stroke="rgb(179,179,179)" stroke-linejoin="round" d="M 1627,8704 L 1777,8704"/>
 <path fill="none" stroke="rgb(179,179,179)" stroke-linejoin="round" d="M 1627,8704 L 1777,8704"/>
 <path fill="none" stroke="rgb(179,179,179)" stroke-linejoin="round" d="M 1627,7426 L 1777,7426"/>
 <path fill="none" stroke="rgb(179,179,179)" stroke-linejoin="round" d="M 1627,7426 L 1777,7426"/>
 <path fill="none" stroke="rgb(179,179,179)" stroke-linejoin="round" d="M 1627,6148 L 1777,6148"/>
 <path fill="none" stroke="rgb(179,179,179)" stroke-linejoin="round" d="M 1627,6148 L 1777,6148"/>
 <path fill="none" stroke="rgb(179,179,179)" stroke-linejoin="round" d="M 1627,4872 L 1777,4872"/>
 <path fill="none" stroke="rgb(179,179,179)" stroke-linejoin="round" d="M 1627,4872 L 1777,4872"/>
 <path fill="none" stroke="rgb(179,179,179)" stroke-linejoin="round" d="M 1627,3594 L 1777,3594"/>
 <path fill="none" stroke="rgb(179,179,179)" stroke-linejoin="round" d="M 1627,3594 L 1777,3594"/>
 <path fill="none" stroke="rgb(179,179,179)" stroke-linejoin="round" d="M 1627,2316 L 1777,2316"/>
 <path fill="none" stroke="rgb(179,179,179)" stroke-linejoin="round" d="M 1627,2316 L 1777,2316"/>
 <path fill="none" stroke="rgb(179,179,179)" stroke-linejoin="round" d="M 1627,1039 L 1777,1039"/>
 <path fill="none" stroke="rgb(179,179,179)" stroke-linejoin="round" d="M 1627,1039 L 1777,1039"/>
 <path fill="none" stroke="rgb(179,179,179)" stroke-linejoin="round" d="M 1777,8704 L 1777,1039"/>
 <path fill="none" stroke="rgb(179,179,179)" stroke-linejoin="round" d="M 13271,8704 L 13121,8704"/>
 <path fill="none" stroke="rgb(179,179,179)" stroke-linejoin="round" d="M 13271,8704 L 13121,8704"/>
 <path fill="none" stroke="rgb(179,179,179)" stroke-linejoin="round" d="M 13271,7426 L 13121,7426"/>
 <path fill="none" stroke="rgb(179,179,179)" stroke-linejoin="round" d="M 13271,7426 L 13121,7426"/>
 <path fill="none" stroke="rgb(179,179,179)" stroke-linejoin="round" d="M 13271,6148 L 13121,6148"/>
 <path fill="none" stroke="rgb(179,179,179)" stroke-linejoin="round" d="M 13271,6148 L 13121,6148"/>
 <path fill="none" stroke="rgb(179,179,179)" stroke-linejoin="round" d="M 13271,4872 L 13121,4872"/>
 <path fill="none" stroke="rgb(179,179,179)" stroke-linejoin="round" d="M 13271,4872 L 13121,4872"/>
 <path fill="none" stroke="rgb(179,179,179)" stroke-linejoin="round" d="M 13271,3594 L 13121,3594"/>
 <path fill="none" stroke="rgb(179,179,179)" stroke-linejoin="round" d="M 13271,3594 L 13121,3594"/>
 <path fill="none" stroke="rgb(179,179,179)" stroke-linejoin="round" d="M 13271,2316 L 13121,2316"/>
 <path fill="none" stroke="rgb(179,179,179)" stroke-linejoin="round" d="M 13271,2316 L 13121,2316"/>
 <path fill="none" stroke="rgb(179,179,179)" stroke-linejoin="round" d="M 13271,1039 L 13121,1039"/>
 <path fill="none" stroke="rgb(179,179,179)" stroke-linejoin="round" d="M 13271,1039 L 13121,1039"/>
 <path fill="none" stroke="rgb(179,179,179)" stroke-linejoin="round" d="M 13121,8704 L 13121,1039"/>
 <path fill="none" stroke="rgb(255,66,14)" stroke-width="80" stroke-linejoin="round" d="M 2245,7403 L 2923,6360 3790,6516 4807,5034 7420,4338 10701,3323"/>
 <path fill="rgb(255,66,14)" stroke="none" d="M 2120,7403 L 2245,7528 2370,7403 2245,7278 2120,7403 Z"/>
 <path fill="none" stroke="rgb(255,66,14)" stroke-linejoin="round" d="M 2120,7403 L 2245,7528 2370,7403 2245,7278 2120,7403 Z"/>
 <path fill="rgb(255,66,14)" stroke="none" d="M 2798,6360 L 2923,6485 3048,6360 2923,6235 2798,6360 Z"/>
 <path fill="none" stroke="rgb(255,66,14)" stroke-linejoin="round" d="M 2798,6360 L 2923,6485 3048,6360 2923,6235 2798,6360 Z"/>
 <path fill="rgb(255,66,14)" stroke="none" d="M 3665,6516 L 3790,6641 3915,6516 3790,6391 3665,6516 Z"/>
 <path fill="none" stroke="rgb(255,66,14)" stroke-linejoin="round" d="M 3665,6516 L 3790,6641 3915,6516 3790,6391 3665,6516 Z"/>
 <path fill="rgb(255,66,14)" stroke="none" d="M 4682,5034 L 4807,5158 4932,5034 4807,4909 4682,5034 Z"/>
 <path fill="none" stroke="rgb(255,66,14)" stroke-linejoin="round" d="M 4682,5034 L 4807,5158 4932,5034 4807,4909 4682,5034 Z"/>
 <path fill="rgb(255,66,14)" stroke="none" d="M 7295,4338 L 7420,4463 7545,4338 7420,4213 7295,4338 Z"/>
 <path fill="none" stroke="rgb(255,66,14)" stroke-linejoin="round" d="M 7295,4338 L 7420,4463 7545,4338 7420,4213 7295,4338 Z"/>
 <path fill="rgb(255,66,14)" stroke="none" d="M 10576,3323 L 10701,3448 10826,3323 10701,3198 10576,3323 Z"/>
 <path fill="none" stroke="rgb(255,66,14)" stroke-linejoin="round" d="M 10576,3323 L 10701,3448 10826,3323 10701,3198 10576,3323 Z"/>
 <path fill="none" stroke="rgb(255,211,32)" stroke-width="80" stroke-linejoin="round" d="M 2245,6446 L 2923,4595 3790,3845 4807,3758 7420,3518 10701,3314"/>
 <path fill="rgb(255,211,32)" stroke="none" d="M 2120,6321 L 2245,6571 2370,6321 2120,6321 Z"/>
 <path fill="none" stroke="rgb(255,211,32)" stroke-linejoin="round" d="M 2120,6321 L 2245,6571 2370,6321 2120,6321 Z"/>
 <path fill="rgb(255,211,32)" stroke="none" d="M 2798,4470 L 2923,4720 3048,4470 2798,4470 Z"/>
 <path fill="none" stroke="rgb(255,211,32)" stroke-linejoin="round" d="M 2798,4470 L 2923,4720 3048,4470 2798,4470 Z"/>
 <path fill="rgb(255,211,32)" stroke="none" d="M 3665,3720 L 3790,3970 3915,3720 3665,3720 Z"/>
 <path fill="none" stroke="rgb(255,211,32)" stroke-linejoin="round" d="M 3665,3720 L 3790,3970 3915,3720 3665,3720 Z"/>
 <path fill="rgb(255,211,32)" stroke="none" d="M 4682,3633 L 4807,3883 4932,3633 4682,3633 Z"/>
 <path fill="none" stroke="rgb(255,211,32)" stroke-linejoin="round" d="M 4682,3633 L 4807,3883 4932,3633 4682,3633 Z"/>
 <path fill="rgb(255,211,32)" stroke="none" d="M 7295,3393 L 7420,3643 7545,3393 7295,3393 Z"/>
 <path fill="none" stroke="rgb(255,211,32)" stroke-linejoin="round" d="M 7295,3393 L 7420,3643 7545,3393 7295,3393 Z"/>
 <path fill="rgb(255,211,32)" stroke="none" d="M 10576,3189 L 10701,3439 10826,3189 10576,3189 Z"/>
 <path fill="none" stroke="rgb(255,211,32)" stroke-linejoin="round" d="M 10576,3189 L 10701,3439 10826,3189 10576,3189 Z"/>
 <path fill="none" stroke="rgb(0,69,134)" stroke-width="80" stroke-linejoin="round" d="M 2245,5169 L 2923,3371 3790,2613 4807,2600 7420,2395 10701,2242"/>
 <path fill="rgb(0,69,134)" stroke="none" d="M 2120,5045 L 2120,5294 2370,5294 2370,5045 2120,5045 Z"/>
 <path fill="none" stroke="rgb(0,69,134)" stroke-linejoin="round" d="M 2120,5045 L 2120,5294 2370,5294 2370,5045 2120,5045 Z"/>
 <path fill="rgb(0,69,134)" stroke="none" d="M 2798,3246 L 2798,3496 3048,3496 3048,3246 2798,3246 Z"/>
 <path fill="none" stroke="rgb(0,69,134)" stroke-linejoin="round" d="M 2798,3246 L 2798,3496 3048,3496 3048,3246 2798,3246 Z"/>
 <path fill="rgb(0,69,134)" stroke="none" d="M 3665,2488 L 3665,2738 3915,2738 3915,2488 3665,2488 Z"/>
 <path fill="none" stroke="rgb(0,69,134)" stroke-linejoin="round" d="M 3665,2488 L 3665,2738 3915,2738 3915,2488 3665,2488 Z"/>
 <path fill="rgb(0,69,134)" stroke="none" d="M 4682,2475 L 4682,2725 4932,2725 4932,2475 4682,2475 Z"/>
 <path fill="none" stroke="rgb(0,69,134)" stroke-linejoin="round" d="M 4682,2475 L 4682,2725 4932,2725 4932,2475 4682,2475 Z"/>
 <path fill="rgb(0,69,134)" stroke="none" d="M 7295,2270 L 7295,2520 7545,2520 7545,2270 7295,2270 Z"/>
 <path fill="none" stroke="rgb(0,69,134)" stroke-linejoin="round" d="M 7295,2270 L 7295,2520 7545,2520 7545,2270 7295,2270 Z"/>
 <path fill="rgb(0,69,134)" stroke="none" d="M 10576,2117 L 10576,2367 10826,2367 10826,2117 10576,2117 Z"/>
 <path fill="none" stroke="rgb(0,69,134)" stroke-linejoin="round" d="M 10576,2117 L 10576,2367 10826,2367 10826,2117 10576,2117 Z"/>
 <text class="TextShape"><tspan class="TextParagraph" font-family="Liberation Sans, sans-serif" font-size="353px" font-weight="400"><tspan class="TextPosition" x="1684" y="9192"><tspan fill="rgb(0,0,0)" stroke="none">0</tspan></tspan></tspan></text>
 <text class="TextShape"><tspan class="TextParagraph" font-family="Liberation Sans, sans-serif" font-size="353px" font-weight="400"><tspan class="TextPosition" x="3583" y="9192"><tspan fill="rgb(0,0,0)" stroke="none">50000</tspan></tspan></tspan></text>
 <text class="TextShape"><tspan class="TextParagraph" font-family="Liberation Sans, sans-serif" font-size="353px" font-weight="400"><tspan class="TextPosition" x="5759" y="9192"><tspan fill="rgb(0,0,0)" stroke="none">100000</tspan></tspan></tspan></text>
 <text class="TextShape"><tspan class="TextParagraph" font-family="Liberation Sans, sans-serif" font-size="353px" font-weight="400"><tspan class="TextPosition" x="8028" y="9192"><tspan fill="rgb(0,0,0)" stroke="none">150000</tspan></tspan></tspan></text>
 <text class="TextShape"><tspan class="TextParagraph" font-family="Liberation Sans, sans-serif" font-size="353px" font-weight="400"><tspan class="TextPosition" x="10297" y="9192"><tspan fill="rgb(0,0,0)" stroke="none">200000</tspan></tspan></tspan></text>
 <text class="TextShape"><tspan class="TextParagraph" font-family="Liberation Sans, sans-serif" font-size="353px" font-weight="400"><tspan class="TextPosition" x="12566" y="9192"><tspan fill="rgb(0,0,0)" stroke="none">250000</tspan></tspan></tspan></text>
 <text class="TextShape"><tspan class="TextParagraph" font-family="Liberation Sans, sans-serif" font-size="353px" font-weight="400"><tspan class="TextPosition" x="1051" y="8784"><tspan fill="rgb(0,102,179)" stroke="none">4.2</tspan></tspan></tspan></text>
 <text class="TextShape"><tspan class="TextParagraph" font-family="Liberation Sans, sans-serif" font-size="353px" font-weight="400"><tspan class="TextPosition" x="1051" y="7506"><tspan fill="rgb(0,102,179)" stroke="none">4.4</tspan></tspan></tspan></text>
 <text class="TextShape"><tspan class="TextParagraph" font-family="Liberation Sans, sans-serif" font-size="353px" font-weight="400"><tspan class="TextPosition" x="1051" y="6228"><tspan fill="rgb(0,102,179)" stroke="none">4.6</tspan></tspan></tspan></text>
 <text class="TextShape"><tspan class="TextParagraph" font-family="Liberation Sans, sans-serif" font-size="353px" font-weight="400"><tspan class="TextPosition" x="1051" y="4951"><tspan fill="rgb(0,102,179)" stroke="none">4.8</tspan></tspan></tspan></text>
 <text class="TextShape"><tspan class="TextParagraph" font-family="Liberation Sans, sans-serif" font-size="353px" font-weight="400"><tspan class="TextPosition" x="1342" y="3673"><tspan fill="rgb(0,102,179)" stroke="none">5</tspan></tspan></tspan></text>
 <text class="TextShape"><tspan class="TextParagraph" font-family="Liberation Sans, sans-serif" font-size="353px" font-weight="400"><tspan class="TextPosition" x="1051" y="2395"><tspan fill="rgb(0,102,179)" stroke="none">5.2</tspan></tspan></tspan></text>
 <text class="TextShape"><tspan class="TextParagraph" font-family="Liberation Sans, sans-serif" font-size="353px" font-weight="400"><tspan class="TextPosition" x="1051" y="1118"><tspan fill="rgb(0,102,179)" stroke="none">5.4</tspan></tspan></tspan></text>
 <text class="TextShape"><tspan class="TextParagraph" font-family="Liberation Sans, sans-serif" font-size="353px" font-weight="400"><tspan class="TextPosition" x="13371" y="8784"><tspan fill="rgb(239,65,61)" stroke="none">-0.21</tspan></tspan></tspan></text>
 <text class="TextShape"><tspan class="TextParagraph" font-family="Liberation Sans, sans-serif" font-size="353px" font-weight="400"><tspan class="TextPosition" x="13371" y="7506"><tspan fill="rgb(239,65,61)" stroke="none">-0.2</tspan></tspan></tspan></text>
 <text class="TextShape"><tspan class="TextParagraph" font-family="Liberation Sans, sans-serif" font-size="353px" font-weight="400"><tspan class="TextPosition" x="13371" y="6228"><tspan fill="rgb(239,65,61)" stroke="none">-0.19</tspan></tspan></tspan></text>
 <text class="TextShape"><tspan class="TextParagraph" font-family="Liberation Sans, sans-serif" font-size="353px" font-weight="400"><tspan class="TextPosition" x="13371" y="4951"><tspan fill="rgb(239,65,61)" stroke="none">-0.18</tspan></tspan></tspan></text>
 <text class="TextShape"><tspan class="TextParagraph" font-family="Liberation Sans, sans-serif" font-size="353px" font-weight="400"><tspan class="TextPosition" x="13371" y="3673"><tspan fill="rgb(239,65,61)" stroke="none">-0.17</tspan></tspan></tspan></text>
 <text class="TextShape"><tspan class="TextParagraph" font-family="Liberation Sans, sans-serif" font-size="353px" font-weight="400"><tspan class="TextPosition" x="13371" y="2395"><tspan fill="rgb(239,65,61)" stroke="none">-0.16</tspan></tspan></tspan></text>
 <text class="TextShape"><tspan class="TextParagraph" font-family="Liberation Sans, sans-serif" font-size="353px" font-weight="400"><tspan class="TextPosition" x="13371" y="1118"><tspan fill="rgb(239,65,61)" stroke="none">-0.15</tspan></tspan></tspan></text>
 <text class="TextShape"><tspan class="TextParagraph" font-family="Liberation Sans, sans-serif" font-size="459px" font-weight="400"><tspan class="TextPosition" x="6992" y="795"><tspan fill="rgb(0,0,0)" stroke="none">Power</tspan></tspan></tspan></text>
 <path fill="none" stroke="rgb(0,69,134)" stroke-width="80" stroke-linejoin="round" d="M 8691,6479 L 9491,6479"/>
 <path fill="rgb(0,69,134)" stroke="none" d="M 8985,6374 L 8985,6585 9196,6585 9196,6374 8985,6374 Z"/>
 <path fill="none" stroke="rgb(0,69,134)" stroke-linejoin="round" d="M 8985,6374 L 8985,6585 9196,6585 9196,6374 8985,6374 Z"/>
 <path fill="none" stroke="rgb(255,211,32)" stroke-width="80" stroke-linejoin="round" d="M 8691,6810 L 9491,6810"/>
 <path fill="rgb(255,211,32)" stroke="none" d="M 8985,6705 L 9091,6916 9196,6705 8985,6705 Z"/>
 <path fill="none" stroke="rgb(255,211,32)" stroke-linejoin="round" d="M 8985,6705 L 9091,6916 9196,6705 8985,6705 Z"/>
 <path fill="none" stroke="rgb(255,66,14)" stroke-width="80" stroke-linejoin="round" d="M 8691,7141 L 9491,7141"/>
 <path fill="rgb(255,66,14)" stroke="none" d="M 8985,7141 L 9091,7247 9196,7141 9091,7036 8985,7141 Z"/>
 <path fill="none" stroke="rgb(255,66,14)" stroke-linejoin="round" d="M 8985,7141 L 9091,7247 9196,7141 9091,7036 8985,7141 Z"/>
 <text class="TextShape"><tspan class="TextParagraph" font-family="Liberation Sans, sans-serif" font-size="353px" font-weight="400"><tspan class="TextPosition" x="9591" y="6558"><tspan fill="rgb(0,0,0)" stroke="none">Power Pressure</tspan></tspan></tspan></text>
 <text class="TextShape"><tspan class="TextParagraph" font-family="Liberation Sans, sans-serif" font-size="353px" font-weight="400"><tspan class="TextPosition" x="9591" y="6889"><tspan fill="rgb(0,0,0)" stroke="none">Power Tot</tspan></tspan></tspan></text>
 <text class="TextShape"><tspan class="TextParagraph" font-family="Liberation Sans, sans-serif" font-size="353px" font-weight="400"><tspan class="TextPosition" x="9591" y="7220"><tspan fill="rgb(0,0,0)" stroke="none">Power Tau</tspan></tspan></tspan></text>
 <text class="TextShape"><tspan class="TextParagraph" font-family="Liberation Sans, sans-serif" font-size="318px" font-weight="400"><tspan class="TextPosition" x="6629" y="9810"><tspan fill="rgb(0,0,0)" stroke="none">Cells number</tspan></tspan></tspan></text>
 <text class="TextShape" transform="translate(571,6598) rotate(-90) translate(-571,-6598)"><tspan class="TextParagraph" font-family="Liberation Sans, sans-serif" font-size="318px" font-weight="400"><tspan class="TextPosition" x="571" y="6598"><tspan fill="rgb(0,0,0)" stroke="none">Power (Pressure) [W]</tspan></tspan></tspan></text>
 <text class="TextShape" transform="translate(14778,6386) rotate(-90) translate(-14778,-6386)"><tspan class="TextParagraph" font-family="Liberation Sans, sans-serif" font-size="318px" font-weight="400"><tspan class="TextPosition" x="14778" y="6386"><tspan fill="rgb(0,0,0)" stroke="none">Power (Shear) [W]</tspan></tspan></tspan></text>
</svg>