<?xml version="1.0" encoding="UTF-8"?>
<!DOCTYPE svg PUBLIC "-//W3C//DTD SVG 1.1//EN" "http://www.w3.org/Graphics/SVG/1.1/DTD/svg11.dtd">
<svg width="152mm" height="102mm" viewBox="0 0 15200 10200" version="1.1" xmlns="http://www.w3.org/2000/svg" stroke-width="28.222" stroke-linejoin="round" xml:space="preserve">
 <path fill="rgb(255,255,255)" stroke="none" d="M 7603,10160 L -17,10160 -17,0 15223,0 15223,10160 7603,10160 Z"/>
 <path fill="none" stroke="rgb(179,179,179)" stroke-linejoin="round" d="M 7438,8704 L 1766,8704 1766,1039 13110,1039 13110,8704 7438,8704 Z"/>
 <path fill="none" stroke="rgb(179,179,179)" stroke-linejoin="round" d="M 13110,8703 L 1766,8703"/>
 <path fill="none" stroke="rgb(179,179,179)" stroke-linejoin="round" d="M 13110,7851 L 1766,7851"/>
 <path fill="none" stroke="rgb(179,179,179)" stroke-linejoin="round" d="M 13110,6999 L 1766,6999"/>
 <path fill="none" stroke="rgb(179,179,179)" stroke-linejoin="round" d="M 13110,6147 L 1766,6147"/>
 <path fill="none" stroke="rgb(179,179,179)" stroke-linejoin="round" d="M 13110,5295 L 1766,5295"/>
 <path fill="none" stroke="rgb(179,179,179)" stroke-linejoin="round" d="M 13110,4445 L 1766,4445"/>
 <path fill="none" stroke="rgb(179,179,179)" stroke-linejoin="round" d="M 13110,3593 L 1766,3593"/>
 <path fill="none" stroke="rgb(179,179,179)" stroke-linejoin="round" d="M 13110,2741 L 1766,2741"/>
 <path fill="none" stroke="rgb(179,179,179)" stroke-linejoin="round" d="M 13110,1889 L 1766,1889"/>
 <path fill="none" stroke="rgb(179,179,179)" stroke-linejoin="round" d="M 13110,1037 L 1766,1037"/>
 <path fill="none" stroke="rgb(179,179,179)" stroke-linejoin="round" d="M 1766,8853 L 1766,8703"/>
 <path fill="none" stroke="rgb(179,179,179)" stroke-linejoin="round" d="M 1766,8853 L 1766,8703"/>
 <path fill="none" stroke="rgb(179,179,179)" stroke-linejoin="round" d="M 3026,8853 L 3026,8703"/>
 <path fill="none" stroke="rgb(179,179,179)" stroke-linejoin="round" d="M 3026,8853 L 3026,8703"/>
 <path fill="none" stroke="rgb(179,179,179)" stroke-linejoin="round" d="M 4287,8853 L 4287,8703"/>
 <path fill="none" stroke="rgb(179,179,179)" stroke-linejoin="round" d="M 4287,8853 L 4287,8703"/>
 <path fill="none" stroke="rgb(179,179,179)" stroke-linejoin="round" d="M 5547,8853 L 5547,8703"/>
 <path fill="none" stroke="rgb(179,179,179)" stroke-linejoin="round" d="M 5547,8853 L 5547,8703"/>
 <path fill="none" stroke="rgb(179,179,179)" stroke-linejoin="round" d="M 6808,8853 L 6808,8703"/>
 <path fill="none" stroke="rgb(179,179,179)" stroke-linejoin="round" d="M 6808,8853 L 6808,8703"/>
 <path fill="none" stroke="rgb(179,179,179)" stroke-linejoin="round" d="M 8067,8853 L 8067,8703"/>
 <path fill="none" stroke="rgb(179,179,179)" stroke-linejoin="round" d="M 8067,8853 L 8067,8703"/>
 <path fill="none" stroke="rgb(179,179,179)" stroke-linejoin="round" d="M 9328,8853 L 9328,8703"/>
 <path fill="none" stroke="rgb(179,179,179)" stroke-linejoin="round" d="M 9328,8853 L 9328,8703"/>
 <path fill="none" stroke="rgb(179,179,179)" stroke-linejoin="round" d="M 10588,8853 L 10588,8703"/>
 <path fill="none" stroke="rgb(179,179,179)" stroke-linejoin="round" d="M 10588,8853 L 10588,8703"/>
 <path fill="none" stroke="rgb(179,179,179)" stroke-linejoin="round" d="M 11849,8853 L 11849,8703"/>
 <path fill="none" stroke="rgb(179,179,179)" stroke-linejoin="round" d="M 11849,8853 L 11849,8703"/>
 <path fill="none" stroke="rgb(179,179,179)" stroke-linejoin="round" d="M 13110,8853 L 13110,8703"/>
 <path fill="none" stroke="rgb(179,179,179)" stroke-linejoin="round" d="M 13110,8853 L 13110,8703"/>
 <path fill="none" stroke="rgb(179,179,179)" stroke-linejoin="round" d="M 1766,8703 L 13110,8703"/>
 <path fill="none" stroke="rgb(179,179,179)" stroke-linejoin="round" d="M 1616,8703 L 1766,8703"/>
 <path fill="none" stroke="rgb(179,179,179)" stroke-linejoin="round" d="M 1616,8703 L 1766,8703"/>
 <path fill="none" stroke="rgb(179,179,179)" stroke-linejoin="round" d="M 1616,7851 L 1766,7851"/>
 <path fill="none" stroke="rgb(179,179,179)" stroke-linejoin="round" d="M 1616,7851 L 1766,7851"/>
 <path fill="none" stroke="rgb(179,179,179)" stroke-linejoin="round" d="M 1616,6999 L 1766,6999"/>
 <path fill="none" stroke="rgb(179,179,179)" stroke-linejoin="round" d="M 1616,6999 L 1766,6999"/>
 <path fill="none" stroke="rgb(179,179,179)" stroke-linejoin="round" d="M 1616,6147 L 1766,6147"/>
 <path fill="none" stroke="rgb(179,179,179)" stroke-linejoin="round" d="M 1616,6147 L 1766,6147"/>
 <path fill="none" stroke="rgb(179,179,179)" stroke-linejoin="round" d="M 1616,5295 L 1766,5295"/>
 <path fill="none" stroke="rgb(179,179,179)" stroke-linejoin="round" d="M 1616,5295 L 1766,5295"/>
 <path fill="none" stroke="rgb(179,179,179)" stroke-linejoin="round" d="M 1616,4445 L 1766,4445"/>
 <path fill="none" stroke="rgb(179,179,179)" stroke-linejoin="round" d="M 1616,4445 L 1766,4445"/>
 <path fill="none" stroke="rgb(179,179,179)" stroke-linejoin="round" d="M 1616,3593 L 1766,3593"/>
 <path fill="none" stroke="rgb(179,179,179)" stroke-linejoin="round" d="M 1616,3593 L 1766,3593"/>
 <path fill="none" stroke="rgb(179,179,179)" stroke-linejoin="round" d="M 1616,2741 L 1766,2741"/>
 <path fill="none" stroke="rgb(179,179,179)" stroke-linejoin="round" d="M 1616,2741 L 1766,2741"/>
 <path fill="none" stroke="rgb(179,179,179)" stroke-linejoin="round" d="M 1616,1889 L 1766,1889"/>
 <path fill="none" stroke="rgb(179,179,179)" stroke-linejoin="round" d="M 1616,1889 L 1766,1889"/>
 <path fill="none" stroke="rgb(179,179,179)" stroke-linejoin="round" d="M 1616,1037 L 1766,1037"/>
 <path fill="none" stroke="rgb(179,179,179)" stroke-linejoin="round" d="M 1616,1037 L 1766,1037"/>
 <path fill="none" stroke="rgb(179,179,179)" stroke-linejoin="round" d="M 1766,8703 L 1766,1038"/>
 <path fill="none" stroke="rgb(179,179,179)" stroke-linejoin="round" d="M 13260,8703 L 13110,8703"/>
 <path fill="none" stroke="rgb(179,179,179)" stroke-linejoin="round" d="M 13260,8703 L 13110,8703"/>
 <path fill="none" stroke="rgb(179,179,179)" stroke-linejoin="round" d="M 13260,7936 L 13110,7936"/>
 <path fill="none" stroke="rgb(179,179,179)" stroke-linejoin="round" d="M 13260,7936 L 13110,7936"/>
 <path fill="none" stroke="rgb(179,179,179)" stroke-linejoin="round" d="M 13260,7169 L 13110,7169"/>
 <path fill="none" stroke="rgb(179,179,179)" stroke-linejoin="round" d="M 13260,7169 L 13110,7169"/>
 <path fill="none" stroke="rgb(179,179,179)" stroke-linejoin="round" d="M 13260,6403 L 13110,6403"/>
 <path fill="none" stroke="rgb(179,179,179)" stroke-linejoin="round" d="M 13260,6403 L 13110,6403"/>
 <path fill="none" stroke="rgb(179,179,179)" stroke-linejoin="round" d="M 13260,5636 L 13110,5636"/>
 <path fill="none" stroke="rgb(179,179,179)" stroke-linejoin="round" d="M 13260,5636 L 13110,5636"/>
 <path fill="none" stroke="rgb(179,179,179)" stroke-linejoin="round" d="M 13260,4871 L 13110,4871"/>
 <path fill="none" stroke="rgb(179,179,179)" stroke-linejoin="round" d="M 13260,4871 L 13110,4871"/>
 <path fill="none" stroke="rgb(179,179,179)" stroke-linejoin="round" d="M 13260,4104 L 13110,4104"/>
 <path fill="none" stroke="rgb(179,179,179)" stroke-linejoin="round" d="M 13260,4104 L 13110,4104"/>
 <path fill="none" stroke="rgb(179,179,179)" stroke-linejoin="round" d="M 13260,3337 L 13110,3337"/>
 <path fill="none" stroke="rgb(179,179,179)" stroke-linejoin="round" d="M 13260,3337 L 13110,3337"/>
 <path fill="none" stroke="rgb(179,179,179)" stroke-linejoin="round" d="M 13260,2571 L 13110,2571"/>
 <path fill="none" stroke="rgb(179,179,179)" stroke-linejoin="round" d="M 13260,2571 L 13110,2571"/>
 <path fill="none" stroke="rgb(179,179,179)" stroke-linejoin="round" d="M 13260,1804 L 13110,1804"/>
 <path fill="none" stroke="rgb(179,179,179)" stroke-linejoin="round" d="M 13260,1804 L 13110,1804"/>
 <path fill="none" stroke="rgb(179,179,179)" stroke-linejoin="round" d="M 13260,1038 L 13110,1038"/>
 <path fill="none" stroke="rgb(179,179,179)" stroke-linejoin="round" d="M 13260,1038 L 13110,1038"/>
 <path fill="none" stroke="rgb(179,179,179)" stroke-linejoin="round" d="M 13110,8703 L 13110,1038"/>
 <path fill="none" stroke="rgb(255,211,32)" stroke-width="80" stroke-linejoin="round" d="M 2416,2947 L 3282,5441 4316,5967 5476,6332 8281,6365 11647,6343"/>
 <path fill="rgb(255,211,32)" stroke="none" d="M 2291,2822 L 2416,3072 2541,2822 2291,2822 Z"/>
 <path fill="none" stroke="rgb(255,211,32)" stroke-linejoin="round" d="M 2291,2822 L 2416,3072 2541,2822 2291,2822 Z"/>
 <path fill="rgb(255,211,32)" stroke="none" d="M 3157,5316 L 3282,5566 3407,5316 3157,5316 Z"/>
 <path fill="none" stroke="rgb(255,211,32)" stroke-linejoin="round" d="M 3157,5316 L 3282,5566 3407,5316 3157,5316 Z"/>
 <path fill="rgb(255,211,32)" stroke="none" d="M 4191,5842 L 4316,6092 4441,5842 4191,5842 Z"/>
 <path fill="none" stroke="rgb(255,211,32)" stroke-linejoin="round" d="M 4191,5842 L 4316,6092 4441,5842 4191,5842 Z"/>
 <path fill="rgb(255,211,32)" stroke="none" d="M 5351,6207 L 5476,6457 5601,6207 5351,6207 Z"/>
 <path fill="none" stroke="rgb(255,211,32)" stroke-linejoin="round" d="M 5351,6207 L 5476,6457 5601,6207 5351,6207 Z"/>
 <path fill="rgb(255,211,32)" stroke="none" d="M 8156,6240 L 8281,6490 8406,6240 8156,6240 Z"/>
 <path fill="none" stroke="rgb(255,211,32)" stroke-linejoin="round" d="M 8156,6240 L 8281,6490 8406,6240 8156,6240 Z"/>
 <path fill="rgb(255,211,32)" stroke="none" d="M 11522,6218 L 11647,6468 11772,6218 11522,6218 Z"/>
 <path fill="none" stroke="rgb(255,211,32)" stroke-linejoin="round" d="M 11522,6218 L 11647,6468 11772,6218 11522,6218 Z"/>
 <path fill="none" stroke="rgb(255,66,14)" stroke-width="80" stroke-linejoin="round" d="M 2416,5066 L 3282,8027 4316,8290 5476,7928 8281,7721 11647,7566"/>
 <path fill="rgb(255,66,14)" stroke="none" d="M 2291,5066 L 2416,5190 2541,5066 2416,4941 2291,5066 Z"/>
 <path fill="none" stroke="rgb(255,66,14)" stroke-linejoin="round" d="M 2291,5066 L 2416,5190 2541,5066 2416,4941 2291,5066 Z"/>
 <path fill="rgb(255,66,14)" stroke="none" d="M 3157,8027 L 3282,8152 3407,8027 3282,7902 3157,8027 Z"/>
 <path fill="none" stroke="rgb(255,66,14)" stroke-linejoin="round" d="M 3157,8027 L 3282,8152 3407,8027 3282,7902 3157,8027 Z"/>
 <path fill="rgb(255,66,14)" stroke="none" d="M 4191,8290 L 4316,8415 4441,8290 4316,8165 4191,8290 Z"/>
 <path fill="none" stroke="rgb(255,66,14)" stroke-linejoin="round" d="M 4191,8290 L 4316,8415 4441,8290 4316,8165 4191,8290 Z"/>
 <path fill="rgb(255,66,14)" stroke="none" d="M 5351,7928 L 5476,8053 5601,7928 5476,7803 5351,7928 Z"/>
 <path fill="none" stroke="rgb(255,66,14)" stroke-linejoin="round" d="M 5351,7928 L 5476,8053 5601,7928 5476,7803 5351,7928 Z"/>
 <path fill="rgb(255,66,14)" stroke="none" d="M 8156,7721 L 8281,7846 8406,7721 8281,7596 8156,7721 Z"/>
 <path fill="none" stroke="rgb(255,66,14)" stroke-linejoin="round" d="M 8156,7721 L 8281,7846 8406,7721 8281,7596 8156,7721 Z"/>
 <path fill="rgb(255,66,14)" stroke="none" d="M 11522,7566 L 11647,7691 11772,7566 11647,7441 11522,7566 Z"/>
 <path fill="none" stroke="rgb(255,66,14)" stroke-linejoin="round" d="M 11522,7566 L 11647,7691 11772,7566 11647,7441 11522,7566 Z"/>
 <path fill="none" stroke="rgb(0,69,134)" stroke-width="80" stroke-linejoin="round" d="M 2416,2052 L 3282,3889 4316,4356 5476,4802 8281,4880 11647,4893"/>
 <path fill="rgb(0,69,134)" stroke="none" d="M 2291,1927 L 2291,2177 2541,2177 2541,1927 2291,1927 Z"/>
 <path fill="none" stroke="rgb(0,69,134)" stroke-linejoin="round" d="M 2291,1927 L 2291,2177 2541,2177 2541,1927 2291,1927 Z"/>
 <path fill="rgb(0,69,134)" stroke="none" d="M 3157,3764 L 3157,4014 3407,4014 3407,3764 3157,3764 Z"/>
 <path fill="none" stroke="rgb(0,69,134)" stroke-linejoin="round" d="M 3157,3764 L 3157,4014 3407,4014 3407,3764 3157,3764 Z"/>
 <path fill="rgb(0,69,134)" stroke="none" d="M 4191,4231 L 4191,4481 4441,4481 4441,4231 4191,4231 Z"/>
 <path fill="none" stroke="rgb(0,69,134)" stroke-linejoin="round" d="M 4191,4231 L 4191,4481 4441,4481 4441,4231 4191,4231 Z"/>
 <path fill="rgb(0,69,134)" stroke="none" d="M 5351,4677 L 5351,4927 5601,4927 5601,4677 5351,4677 Z"/>
 <path fill="none" stroke="rgb(0,69,134)" stroke-linejoin="round" d="M 5351,4677 L 5351,4927 5601,4927 5601,4677 5351,4677 Z"/>
 <path fill="rgb(0,69,134)" stroke="none" d="M 8156,4755 L 8156,5005 8406,5005 8406,4755 8156,4755 Z"/>
 <path fill="none" stroke="rgb(0,69,134)" stroke-linejoin="round" d="M 8156,4755 L 8156,5005 8406,5005 8406,4755 8156,4755 Z"/>
 <path fill="rgb(0,69,134)" stroke="none" d="M 11522,4768 L 11522,5018 11772,5018 11772,4768 11522,4768 Z"/>
 <path fill="none" stroke="rgb(0,69,134)" stroke-linejoin="round" d="M 11522,4768 L 11522,5018 11772,5018 11772,4768 11522,4768 Z"/>
 <text class="TextShape"><tspan class="TextParagraph" font-family="Liberation Sans, sans-serif" font-size="353px" font-weight="400"><tspan class="TextPosition" x="1673" y="9191"><tspan fill="rgb(0,0,0)" stroke="none">0</tspan></tspan></tspan></text>
 <text class="TextShape"><tspan class="TextParagraph" font-family="Liberation Sans, sans-serif" font-size="353px" font-weight="400"><tspan class="TextPosition" x="2563" y="9191"><tspan fill="rgb(0,0,0)" stroke="none">20000</tspan></tspan></tspan></text>
 <text class="TextShape"><tspan class="TextParagraph" font-family="Liberation Sans, sans-serif" font-size="353px" font-weight="400"><tspan class="TextPosition" x="3824" y="9191"><tspan fill="rgb(0,0,0)" stroke="none">40000</tspan></tspan></tspan></text>
 <text class="TextShape"><tspan class="TextParagraph" font-family="Liberation Sans, sans-serif" font-size="353px" font-weight="400"><tspan class="TextPosition" x="5084" y="9191"><tspan fill="rgb(0,0,0)" stroke="none">60000</tspan></tspan></tspan></text>
 <text class="TextShape"><tspan class="TextParagraph" font-family="Liberation Sans, sans-serif" font-size="353px" font-weight="400"><tspan class="TextPosition" x="6345" y="9191"><tspan fill="rgb(0,0,0)" stroke="none">80000</tspan></tspan></tspan></text>
 <text class="TextShape"><tspan class="TextParagraph" font-family="Liberation Sans, sans-serif" font-size="353px" font-weight="400"><tspan class="TextPosition" x="7512" y="9191"><tspan fill="rgb(0,0,0)" stroke="none">100000</tspan></tspan></tspan></text>
 <text class="TextShape"><tspan class="TextParagraph" font-family="Liberation Sans, sans-serif" font-size="353px" font-weight="400"><tspan class="TextPosition" x="8773" y="9191"><tspan fill="rgb(0,0,0)" stroke="none">120000</tspan></tspan></tspan></text>
 <text class="TextShape"><tspan class="TextParagraph" font-family="Liberation Sans, sans-serif" font-size="353px" font-weight="400"><tspan class="TextPosition" x="10033" y="9191"><tspan fill="rgb(0,0,0)" stroke="none">140000</tspan></tspan></tspan></text>
 <text class="TextShape"><tspan class="TextParagraph" font-family="Liberation Sans, sans-serif" font-size="353px" font-weight="400"><tspan class="TextPosition" x="11294" y="9191"><tspan fill="rgb(0,0,0)" stroke="none">160000</tspan></tspan></tspan></text>
 <text class="TextShape"><tspan class="TextParagraph" font-family="Liberation Sans, sans-serif" font-size="353px" font-weight="400"><tspan class="TextPosition" x="12555" y="9191"><tspan fill="rgb(0,0,0)" stroke="none">180000</tspan></tspan></tspan></text>
 <text class="TextShape"><tspan class="TextParagraph" font-family="Liberation Sans, sans-serif" font-size="353px" font-weight="400"><tspan class="TextPosition" x="1040" y="8783"><tspan fill="rgb(0,102,179)" stroke="none">4.5</tspan></tspan></tspan></text>
 <text class="TextShape"><tspan class="TextParagraph" font-family="Liberation Sans, sans-serif" font-size="353px" font-weight="400"><tspan class="TextPosition" x="1040" y="7931"><tspan fill="rgb(0,102,179)" stroke="none">4.6</tspan></tspan></tspan></text>
 <text class="TextShape"><tspan class="TextParagraph" font-family="Liberation Sans, sans-serif" font-size="353px" font-weight="400"><tspan class="TextPosition" x="1040" y="7079"><tspan fill="rgb(0,102,179)" stroke="none">4.7</tspan></tspan></tspan></text>
 <text class="TextShape"><tspan class="TextParagraph" font-family="Liberation Sans, sans-serif" font-size="353px" font-weight="400"><tspan class="TextPosition" x="1040" y="6227"><tspan fill="rgb(0,102,179)" stroke="none">4.8</tspan></tspan></tspan></text>
 <text class="TextShape"><tspan class="TextParagraph" font-family="Liberation Sans, sans-serif" font-size="353px" font-weight="400"><tspan class="TextPosition" x="1040" y="5375"><tspan fill="rgb(0,102,179)" stroke="none">4.9</tspan></tspan></tspan></text>
 <text class="TextShape"><tspan class="TextParagraph" font-family="Liberation Sans, sans-serif" font-size="353px" font-weight="400"><tspan class="TextPosition" x="1331" y="4524"><tspan fill="rgb(0,102,179)" stroke="none">5</tspan></tspan></tspan></text>
 <text class="TextShape"><tspan class="TextParagraph" font-family="Liberation Sans, sans-serif" font-size="353px" font-weight="400"><tspan class="TextPosition" x="1040" y="3672"><tspan fill="rgb(0,102,179)" stroke="none">5.1</tspan></tspan></tspan></text>
 <text class="TextShape"><tspan class="TextParagraph" font-family="Liberation Sans, sans-serif" font-size="353px" font-weight="400"><tspan class="TextPosition" x="1040" y="2820"><tspan fill="rgb(0,102,179)" stroke="none">5.2</tspan></tspan></tspan></text>
 <text class="TextShape"><tspan class="TextParagraph" font-family="Liberation Sans, sans-serif" font-size="353px" font-weight="400"><tspan class="TextPosition" x="1040" y="1968"><tspan fill="rgb(0,102,179)" stroke="none">5.3</tspan></tspan></tspan></text>
 <text class="TextShape"><tspan class="TextParagraph" font-family="Liberation Sans, sans-serif" font-size="353px" font-weight="400"><tspan class="TextPosition" x="1040" y="1116"><tspan fill="rgb(0,102,179)" stroke="none">5.4</tspan></tspan></tspan></text>
 <text class="TextShape"><tspan class="TextParagraph" font-family="Liberation Sans, sans-serif" font-size="353px" font-weight="400"><tspan class="TextPosition" x="13360" y="8783"><tspan fill="rgb(239,65,61)" stroke="none">-0.2</tspan></tspan></tspan></text>
 <text class="TextShape"><tspan class="TextParagraph" font-family="Liberation Sans, sans-serif" font-size="353px" font-weight="400"><tspan class="TextPosition" x="13360" y="8016"><tspan fill="rgb(239,65,61)" stroke="none">-0.18</tspan></tspan></tspan></text>
 <text class="TextShape"><tspan class="TextParagraph" font-family="Liberation Sans, sans-serif" font-size="353px" font-weight="400"><tspan class="TextPosition" x="13360" y="7249"><tspan fill="rgb(239,65,61)" stroke="none">-0.16</tspan></tspan></tspan></text>
 <text class="TextShape"><tspan class="TextParagraph" font-family="Liberation Sans, sans-serif" font-size="353px" font-weight="400"><tspan class="TextPosition" x="13360" y="6483"><tspan fill="rgb(239,65,61)" stroke="none">-0.14</tspan></tspan></tspan></text>
 <text class="TextShape"><tspan class="TextParagraph" font-family="Liberation Sans, sans-serif" font-size="353px" font-weight="400"><tspan class="TextPosition" x="13360" y="5716"><tspan fill="rgb(239,65,61)" stroke="none">-0.12</tspan></tspan></tspan></text>
 <text class="TextShape"><tspan class="TextParagraph" font-family="Liberation Sans, sans-serif" font-size="353px" font-weight="400"><tspan class="TextPosition" x="13360" y="4950"><tspan fill="rgb(239,65,61)" stroke="none">-0.1</tspan></tspan></tspan></text>
 <text class="TextShape"><tspan class="TextParagraph" font-family="Liberation Sans, sans-serif" font-size="353px" font-weight="400"><tspan class="TextPosition" x="13360" y="4183"><tspan fill="rgb(239,65,61)" stroke="none">-0.08</tspan></tspan></tspan></text>
 <text class="TextShape"><tspan class="TextParagraph" font-family="Liberation Sans, sans-serif" font-size="353px" font-weight="400"><tspan class="TextPosition" x="13360" y="3416"><tspan fill="rgb(239,65,61)" stroke="none">-0.06</tspan></tspan></tspan></text>
 <text class="TextShape"><tspan class="TextParagraph" font-family="Liberation Sans, sans-serif" font-size="353px" font-weight="400"><tspan class="TextPosition" x="13360" y="2650"><tspan fill="rgb(239,65,61)" stroke="none">-0.04</tspan></tspan></tspan></text>
 <text class="TextShape"><tspan class="TextParagraph" font-family="Liberation Sans, sans-serif" font-size="353px" font-weight="400"><tspan class="TextPosition" x="13360" y="1883"><tspan fill="rgb(239,65,61)" stroke="none">-0.02</tspan></tspan></tspan></text>
 <text class="TextShape"><tspan class="TextParagraph" font-family="Liberation Sans, sans-serif" font-size="353px" font-weight="400"><tspan class="TextPosition" x="13360" y="1117"><tspan fill="rgb(239,65,61)" stroke="none">0</tspan></tspan></tspan></text>
 <text class="TextShape"><tspan class="TextParagraph" font-family="Liberation Sans, sans-serif" font-size="459px" font-weight="400"><tspan class="TextPosition" x="6981" y="794"><tspan fill="rgb(0,0,0)" stroke="none">Power</tspan></tspan></tspan></text>
 <path fill="none" stroke="rgb(0,69,134)" stroke-width="80" stroke-linejoin="round" d="M 8817,2332 L 9617,2332"/>
 <path fill="rgb(0,69,134)" stroke="none" d="M 9111,2227 L 9111,2438 9322,2438 9322,2227 9111,2227 Z"/>
 <path fill="none" stroke="rgb(0,69,134)" stroke-linejoin="round" d="M 9111,2227 L 9111,2438 9322,2438 9322,2227 9111,2227 Z"/>
 <path fill="none" stroke="rgb(255,66,14)" stroke-width="80" stroke-linejoin="round" d="M 8817,2663 L 9617,2663"/>
 <path fill="rgb(255,66,14)" stroke="none" d="M 9111,2663 L 9217,2769 9322,2663 9217,2558 9111,2663 Z"/>
 <path fill="none" stroke="rgb(255,66,14)" stroke-linejoin="round" d="M 9111,2663 L 9217,2769 9322,2663 9217,2558 9111,2663 Z"/>
 <path fill="none" stroke="rgb(255,211,32)" stroke-width="80" stroke-linejoin="round" d="M 8817,2994 L 9617,2994"/>
 <path fill="rgb(255,211,32)" stroke="none" d="M 9111,2889 L 9217,3100 9322,2889 9111,2889 Z"/>
 <path fill="none" stroke="rgb(255,211,32)" stroke-linejoin="round" d="M 9111,2889 L 9217,3100 9322,2889 9111,2889 Z"/>
 <text class="TextShape"><tspan class="TextParagraph" font-family="Liberation Sans, sans-serif" font-size="353px" font-weight="400"><tspan class="TextPosition" x="9717" y="2411"><tspan fill="rgb(0,0,0)" stroke="none">Power Pressure</tspan></tspan></tspan></text>
 <text class="TextShape"><tspan class="TextParagraph" font-family="Liberation Sans, sans-serif" font-size="353px" font-weight="400"><tspan class="TextPosition" x="9717" y="2742"><tspan fill="rgb(0,0,0)" stroke="none">Power Tau</tspan></tspan></tspan></text>
 <text class="TextShape"><tspan class="TextParagraph" font-family="Liberation Sans, sans-serif" font-size="353px" font-weight="400"><tspan class="TextPosition" x="9717" y="3073"><tspan fill="rgb(0,0,0)" stroke="none">Power Tot</tspan></tspan></tspan></text>
 <text class="TextShape"><tspan class="TextParagraph" font-family="Liberation Sans, sans-serif" font-size="318px" font-weight="400"><tspan class="TextPosition" x="6618" y="9809"><tspan fill="rgb(0,0,0)" stroke="none">Cells number</tspan></tspan></tspan></text>
 <text class="TextShape" transform="translate(560,6596) rotate(-90) translate(-560,-6596)"><tspan class="TextParagraph" font-family="Liberation Sans, sans-serif" font-size="318px" font-weight="400"><tspan class="TextPosition" x="560" y="6596"><tspan fill="rgb(0,0,0)" stroke="none">Power (Pressure) [W]</tspan></tspan></tspan></text>
 <text class="TextShape" transform="translate(14767,6384) rotate(-90) translate(-14767,-6384)"><tspan class="TextParagraph" font-family="Liberation Sans, sans-serif" font-size="318px" font-weight="400"><tspan class="TextPosition" x="14767" y="6384"><tspan fill="rgb(0,0,0)" stroke="none">Power (Shear) [W]</tspan></tspan></tspan></text>
</svg>