<?xml version="1.0" encoding="UTF-8"?>
<!DOCTYPE svg PUBLIC "-//W3C//DTD SVG 1.1//EN" "http://www.w3.org/Graphics/SVG/1.1/DTD/svg11.dtd">
<svg width="152mm" height="102mm" viewBox="0 0 15200 10200" version="1.1" xmlns="http://www.w3.org/2000/svg" stroke-width="28.222" stroke-linejoin="round" xml:space="preserve">
 <path fill="rgb(255,255,255)" stroke="none" d="M 7666,10161 L 46,10161 46,1 15286,1 15286,10161 7666,10161 Z"/>
 <path fill="none" stroke="rgb(179,179,179)" stroke-linejoin="round" d="M 8270,8461 L 2116,8461 2116,1403 14425,1403 14425,8461 8270,8461 Z"/>
 <path fill="none" stroke="rgb(179,179,179)" stroke-linejoin="round" d="M 14425,8460 L 2116,8460"/>
 <path fill="none" stroke="rgb(179,179,179)" stroke-linejoin="round" d="M 14425,7754 L 2116,7754"/>
 <path fill="none" stroke="rgb(179,179,179)" stroke-linejoin="round" d="M 14425,7048 L 2116,7048"/>
 <path fill="none" stroke="rgb(179,179,179)" stroke-linejoin="round" d="M 14425,6342 L 2116,6342"/>
 <path fill="none" stroke="rgb(179,179,179)" stroke-linejoin="round" d="M 14425,5636 L 2116,5636"/>
 <path fill="none" stroke="rgb(179,179,179)" stroke-linejoin="round" d="M 14425,4931 L 2116,4931"/>
 <path fill="none" stroke="rgb(179,179,179)" stroke-linejoin="round" d="M 14425,4225 L 2116,4225"/>
 <path fill="none" stroke="rgb(179,179,179)" stroke-linejoin="round" d="M 14425,3519 L 2116,3519"/>
 <path fill="none" stroke="rgb(179,179,179)" stroke-linejoin="round" d="M 14425,2813 L 2116,2813"/>
 <path fill="none" stroke="rgb(179,179,179)" stroke-linejoin="round" d="M 14425,2107 L 2116,2107"/>
 <path fill="none" stroke="rgb(179,179,179)" stroke-linejoin="round" d="M 14425,1402 L 2116,1402"/>
 <path fill="none" stroke="rgb(179,179,179)" stroke-linejoin="round" d="M 2116,8610 L 2116,8460"/>
 <path fill="none" stroke="rgb(179,179,179)" stroke-linejoin="round" d="M 2116,8610 L 2116,8460"/>
 <path fill="none" stroke="rgb(179,179,179)" stroke-linejoin="round" d="M 3483,8610 L 3483,8460"/>
 <path fill="none" stroke="rgb(179,179,179)" stroke-linejoin="round" d="M 3483,8610 L 3483,8460"/>
 <path fill="none" stroke="rgb(179,179,179)" stroke-linejoin="round" d="M 4851,8610 L 4851,8460"/>
 <path fill="none" stroke="rgb(179,179,179)" stroke-linejoin="round" d="M 4851,8610 L 4851,8460"/>
 <path fill="none" stroke="rgb(179,179,179)" stroke-linejoin="round" d="M 6219,8610 L 6219,8460"/>
 <path fill="none" stroke="rgb(179,179,179)" stroke-linejoin="round" d="M 6219,8610 L 6219,8460"/>
 <path fill="none" stroke="rgb(179,179,179)" stroke-linejoin="round" d="M 7587,8610 L 7587,8460"/>
 <path fill="none" stroke="rgb(179,179,179)" stroke-linejoin="round" d="M 7587,8610 L 7587,8460"/>
 <path fill="none" stroke="rgb(179,179,179)" stroke-linejoin="round" d="M 8953,8610 L 8953,8460"/>
 <path fill="none" stroke="rgb(179,179,179)" stroke-linejoin="round" d="M 8953,8610 L 8953,8460"/>
 <path fill="none" stroke="rgb(179,179,179)" stroke-linejoin="round" d="M 10321,8610 L 10321,8460"/>
 <path fill="none" stroke="rgb(179,179,179)" stroke-linejoin="round" d="M 10321,8610 L 10321,8460"/>
 <path fill="none" stroke="rgb(179,179,179)" stroke-linejoin="round" d="M 11689,8610 L 11689,8460"/>
 <path fill="none" stroke="rgb(179,179,179)" stroke-linejoin="round" d="M 11689,8610 L 11689,8460"/>
 <path fill="none" stroke="rgb(179,179,179)" stroke-linejoin="round" d="M 13057,8610 L 13057,8460"/>
 <path fill="none" stroke="rgb(179,179,179)" stroke-linejoin="round" d="M 13057,8610 L 13057,8460"/>
 <path fill="none" stroke="rgb(179,179,179)" stroke-linejoin="round" d="M 14425,8610 L 14425,8460"/>
 <path fill="none" stroke="rgb(179,179,179)" stroke-linejoin="round" d="M 14425,8610 L 14425,8460"/>
 <path fill="none" stroke="rgb(179,179,179)" stroke-linejoin="round" d="M 2116,8460 L 14425,8460"/>
 <path fill="none" stroke="rgb(179,179,179)" stroke-linejoin="round" d="M 1966,8460 L 2116,8460"/>
 <path fill="none" stroke="rgb(179,179,179)" stroke-linejoin="round" d="M 1966,8460 L 2116,8460"/>
 <path fill="none" stroke="rgb(179,179,179)" stroke-linejoin="round" d="M 1966,7754 L 2116,7754"/>
 <path fill="none" stroke="rgb(179,179,179)" stroke-linejoin="round" d="M 1966,7754 L 2116,7754"/>
 <path fill="none" stroke="rgb(179,179,179)" stroke-linejoin="round" d="M 1966,7048 L 2116,7048"/>
 <path fill="none" stroke="rgb(179,179,179)" stroke-linejoin="round" d="M 1966,7048 L 2116,7048"/>
 <path fill="none" stroke="rgb(179,179,179)" stroke-linejoin="round" d="M 1966,6342 L 2116,6342"/>
 <path fill="none" stroke="rgb(179,179,179)" stroke-linejoin="round" d="M 1966,6342 L 2116,6342"/>
 <path fill="none" stroke="rgb(179,179,179)" stroke-linejoin="round" d="M 1966,5636 L 2116,5636"/>
 <path fill="none" stroke="rgb(179,179,179)" stroke-linejoin="round" d="M 1966,5636 L 2116,5636"/>
 <path fill="none" stroke="rgb(179,179,179)" stroke-linejoin="round" d="M 1966,4931 L 2116,4931"/>
 <path fill="none" stroke="rgb(179,179,179)" stroke-linejoin="round" d="M 1966,4931 L 2116,4931"/>
 <path fill="none" stroke="rgb(179,179,179)" stroke-linejoin="round" d="M 1966,4225 L 2116,4225"/>
 <path fill="none" stroke="rgb(179,179,179)" stroke-linejoin="round" d="M 1966,4225 L 2116,4225"/>
 <path fill="none" stroke="rgb(179,179,179)" stroke-linejoin="round" d="M 1966,3519 L 2116,3519"/>
 <path fill="none" stroke="rgb(179,179,179)" stroke-linejoin="round" d="M 1966,3519 L 2116,3519"/>
 <path fill="none" stroke="rgb(179,179,179)" stroke-linejoin="round" d="M 1966,2813 L 2116,2813"/>
 <path fill="none" stroke="rgb(179,179,179)" stroke-linejoin="round" d="M 1966,2813 L 2116,2813"/>
 <path fill="none" stroke="rgb(179,179,179)" stroke-linejoin="round" d="M 1966,2107 L 2116,2107"/>
 <path fill="none" stroke="rgb(179,179,179)" stroke-linejoin="round" d="M 1966,2107 L 2116,2107"/>
 <path fill="none" stroke="rgb(179,179,179)" stroke-linejoin="round" d="M 1966,1402 L 2116,1402"/>
 <path fill="none" stroke="rgb(179,179,179)" stroke-linejoin="round" d="M 1966,1402 L 2116,1402"/>
 <path fill="none" stroke="rgb(179,179,179)" stroke-linejoin="round" d="M 2116,8460 L 2116,1402"/>
 <path fill="none" stroke="rgb(0,69,134)" stroke-width="80" stroke-linejoin="round" d="M 2779,3394 L 3758,3735 5023,3171 6512,2768 10363,2300 13094,2278"/>
 <path fill="rgb(0,69,134)" stroke="none" d="M 2654,3269 L 2654,3519 2904,3519 2904,3269 2654,3269 Z"/>
 <path fill="none" stroke="rgb(0,69,134)" stroke-linejoin="round" d="M 2654,3269 L 2654,3519 2904,3519 2904,3269 2654,3269 Z"/>
 <path fill="rgb(0,69,134)" stroke="none" d="M 3633,3610 L 3633,3860 3883,3860 3883,3610 3633,3610 Z"/>
 <path fill="none" stroke="rgb(0,69,134)" stroke-linejoin="round" d="M 3633,3610 L 3633,3860 3883,3860 3883,3610 3633,3610 Z"/>
 <path fill="rgb(0,69,134)" stroke="none" d="M 4898,3046 L 4898,3296 5148,3296 5148,3046 4898,3046 Z"/>
 <path fill="none" stroke="rgb(0,69,134)" stroke-linejoin="round" d="M 4898,3046 L 4898,3296 5148,3296 5148,3046 4898,3046 Z"/>
 <path fill="rgb(0,69,134)" stroke="none" d="M 6387,2643 L 6387,2893 6637,2893 6637,2643 6387,2643 Z"/>
 <path fill="none" stroke="rgb(0,69,134)" stroke-linejoin="round" d="M 6387,2643 L 6387,2893 6637,2893 6637,2643 6387,2643 Z"/>
 <path fill="rgb(0,69,134)" stroke="none" d="M 10238,2175 L 10238,2425 10488,2425 10488,2175 10238,2175 Z"/>
 <path fill="none" stroke="rgb(0,69,134)" stroke-linejoin="round" d="M 10238,2175 L 10238,2425 10488,2425 10488,2175 10238,2175 Z"/>
 <path fill="rgb(0,69,134)" stroke="none" d="M 12969,2153 L 12969,2403 13219,2403 13219,2153 12969,2153 Z"/>
 <path fill="none" stroke="rgb(0,69,134)" stroke-linejoin="round" d="M 12969,2153 L 12969,2403 13219,2403 13219,2153 12969,2153 Z"/>
 <text class="TextShape"><tspan class="TextParagraph" font-family="Liberation Sans, sans-serif" font-size="353px" font-weight="400"><tspan class="TextPosition" x="2023" y="8948"><tspan fill="rgb(0,0,0)" stroke="none">0</tspan></tspan></tspan></text>
 <text class="TextShape"><tspan class="TextParagraph" font-family="Liberation Sans, sans-serif" font-size="353px" font-weight="400"><tspan class="TextPosition" x="3020" y="8948"><tspan fill="rgb(0,0,0)" stroke="none">20000</tspan></tspan></tspan></text>
 <text class="TextShape"><tspan class="TextParagraph" font-family="Liberation Sans, sans-serif" font-size="353px" font-weight="400"><tspan class="TextPosition" x="4388" y="8948"><tspan fill="rgb(0,0,0)" stroke="none">40000</tspan></tspan></tspan></text>
 <text class="TextShape"><tspan class="TextParagraph" font-family="Liberation Sans, sans-serif" font-size="353px" font-weight="400"><tspan class="TextPosition" x="5756" y="8948"><tspan fill="rgb(0,0,0)" stroke="none">60000</tspan></tspan></tspan></text>
 <text class="TextShape"><tspan class="TextParagraph" font-family="Liberation Sans, sans-serif" font-size="353px" font-weight="400"><tspan class="TextPosition" x="7124" y="8948"><tspan fill="rgb(0,0,0)" stroke="none">80000</tspan></tspan></tspan></text>
 <text class="TextShape"><tspan class="TextParagraph" font-family="Liberation Sans, sans-serif" font-size="353px" font-weight="400"><tspan class="TextPosition" x="8398" y="8948"><tspan fill="rgb(0,0,0)" stroke="none">100000</tspan></tspan></tspan></text>
 <text class="TextShape"><tspan class="TextParagraph" font-family="Liberation Sans, sans-serif" font-size="353px" font-weight="400"><tspan class="TextPosition" x="9766" y="8948"><tspan fill="rgb(0,0,0)" stroke="none">120000</tspan></tspan></tspan></text>
 <text class="TextShape"><tspan class="TextParagraph" font-family="Liberation Sans, sans-serif" font-size="353px" font-weight="400"><tspan class="TextPosition" x="11134" y="8948"><tspan fill="rgb(0,0,0)" stroke="none">140000</tspan></tspan></tspan></text>
 <text class="TextShape"><tspan class="TextParagraph" font-family="Liberation Sans, sans-serif" font-size="353px" font-weight="400"><tspan class="TextPosition" x="12502" y="8948"><tspan fill="rgb(0,0,0)" stroke="none">160000</tspan></tspan></tspan></text>
 <text class="TextShape"><tspan class="TextParagraph" font-family="Liberation Sans, sans-serif" font-size="353px" font-weight="400"><tspan class="TextPosition" x="13870" y="8948"><tspan fill="rgb(0,0,0)" stroke="none">180000</tspan></tspan></tspan></text>
 <text class="TextShape"><tspan class="TextParagraph" font-family="Liberation Sans, sans-serif" font-size="353px" font-weight="400"><tspan class="TextPosition" x="1310" y="8540"><tspan fill="rgb(0,0,0)" stroke="none">400</tspan></tspan></tspan></text>
 <text class="TextShape"><tspan class="TextParagraph" font-family="Liberation Sans, sans-serif" font-size="353px" font-weight="400"><tspan class="TextPosition" x="1310" y="7834"><tspan fill="rgb(0,0,0)" stroke="none">410</tspan></tspan></tspan></text>
 <text class="TextShape"><tspan class="TextParagraph" font-family="Liberation Sans, sans-serif" font-size="353px" font-weight="400"><tspan class="TextPosition" x="1310" y="7128"><tspan fill="rgb(0,0,0)" stroke="none">420</tspan></tspan></tspan></text>
 <text class="TextShape"><tspan class="TextParagraph" font-family="Liberation Sans, sans-serif" font-size="353px" font-weight="400"><tspan class="TextPosition" x="1310" y="6422"><tspan fill="rgb(0,0,0)" stroke="none">430</tspan></tspan></tspan></text>
 <text class="TextShape"><tspan class="TextParagraph" font-family="Liberation Sans, sans-serif" font-size="353px" font-weight="400"><tspan class="TextPosition" x="1310" y="5716"><tspan fill="rgb(0,0,0)" stroke="none">440</tspan></tspan></tspan></text>
 <text class="TextShape"><tspan class="TextParagraph" font-family="Liberation Sans, sans-serif" font-size="353px" font-weight="400"><tspan class="TextPosition" x="1310" y="5010"><tspan fill="rgb(0,0,0)" stroke="none">450</tspan></tspan></tspan></text>
 <text class="TextShape"><tspan class="TextParagraph" font-family="Liberation Sans, sans-serif" font-size="353px" font-weight="400"><tspan class="TextPosition" x="1310" y="4304"><tspan fill="rgb(0,0,0)" stroke="none">460</tspan></tspan></tspan></text>
 <text class="TextShape"><tspan class="TextParagraph" font-family="Liberation Sans, sans-serif" font-size="353px" font-weight="400"><tspan class="TextPosition" x="1310" y="3598"><tspan fill="rgb(0,0,0)" stroke="none">470</tspan></tspan></tspan></text>
 <text class="TextShape"><tspan class="TextParagraph" font-family="Liberation Sans, sans-serif" font-size="353px" font-weight="400"><tspan class="TextPosition" x="1310" y="2892"><tspan fill="rgb(0,0,0)" stroke="none">480</tspan></tspan></tspan></text>
 <text class="TextShape"><tspan class="TextParagraph" font-family="Liberation Sans, sans-serif" font-size="353px" font-weight="400"><tspan class="TextPosition" x="1310" y="2186"><tspan fill="rgb(0,0,0)" stroke="none">490</tspan></tspan></tspan></text>
 <text class="TextShape"><tspan class="TextParagraph" font-family="Liberation Sans, sans-serif" font-size="353px" font-weight="400"><tspan class="TextPosition" x="1310" y="1481"><tspan fill="rgb(0,0,0)" stroke="none">500</tspan></tspan></tspan></text>
 <text class="TextShape"><tspan class="TextParagraph" font-family="Liberation Sans, sans-serif" font-size="459px" font-weight="400"><tspan class="TextPosition" x="3274" y="795"><tspan fill="rgb(0,0,0)" stroke="none">Total pressure at outlet patch  (2.4 seconds)</tspan></tspan></tspan></text>
 <text class="TextShape"><tspan class="TextParagraph" font-family="Liberation Sans, sans-serif" font-size="318px" font-weight="400"><tspan class="TextPosition" x="7180" y="9566"><tspan fill="rgb(0,0,0)" stroke="none">Cells number</tspan></tspan></tspan></text>
 <text class="TextShape" transform="translate(830,6723) rotate(-90) translate(-830,-6723)"><tspan class="TextParagraph" font-family="Liberation Sans, sans-serif" font-size="318px" font-weight="400"><tspan class="TextPosition" x="830" y="6723"><tspan fill="rgb(0,0,0)" stroke="none">Relative pressure [Pa]</tspan></tspan></tspan></text>
</svg>