<?xml version="1.0" encoding="UTF-8"?>
<!DOCTYPE svg PUBLIC "-//W3C//DTD SVG 1.1//EN" "http://www.w3.org/Graphics/SVG/1.1/DTD/svg11.dtd">
<svg width="152mm" height="102mm" viewBox="0 0 15200 10200" version="1.1" xmlns="http://www.w3.org/2000/svg" stroke-width="28.222" stroke-linejoin="round" xml:space="preserve">
 <path fill="rgb(255,255,255)" stroke="none" d="M 7620,10161 L 0,10161 0,1 15240,1 15240,10161 7620,10161 Z"/>
 <path fill="none" stroke="rgb(179,179,179)" stroke-linejoin="round" d="M 8224,8461 L 2070,8461 2070,1403 14379,1403 14379,8461 8224,8461 Z"/>
 <path fill="none" stroke="rgb(179,179,179)" stroke-linejoin="round" d="M 14379,8460 L 2070,8460"/>
 <path fill="none" stroke="rgb(179,179,179)" stroke-linejoin="round" d="M 14379,7754 L 2070,7754"/>
 <path fill="none" stroke="rgb(179,179,179)" stroke-linejoin="round" d="M 14379,7048 L 2070,7048"/>
 <path fill="none" stroke="rgb(179,179,179)" stroke-linejoin="round" d="M 14379,6342 L 2070,6342"/>
 <path fill="none" stroke="rgb(179,179,179)" stroke-linejoin="round" d="M 14379,5636 L 2070,5636"/>
 <path fill="none" stroke="rgb(179,179,179)" stroke-linejoin="round" d="M 14379,4931 L 2070,4931"/>
 <path fill="none" stroke="rgb(179,179,179)" stroke-linejoin="round" d="M 14379,4225 L 2070,4225"/>
 <path fill="none" stroke="rgb(179,179,179)" stroke-linejoin="round" d="M 14379,3519 L 2070,3519"/>
 <path fill="none" stroke="rgb(179,179,179)" stroke-linejoin="round" d="M 14379,2813 L 2070,2813"/>
 <path fill="none" stroke="rgb(179,179,179)" stroke-linejoin="round" d="M 14379,2107 L 2070,2107"/>
 <path fill="none" stroke="rgb(179,179,179)" stroke-linejoin="round" d="M 14379,1402 L 2070,1402"/>
 <path fill="none" stroke="rgb(179,179,179)" stroke-linejoin="round" d="M 2070,8610 L 2070,8460"/>
 <path fill="none" stroke="rgb(179,179,179)" stroke-linejoin="round" d="M 2070,8610 L 2070,8460"/>
 <path fill="none" stroke="rgb(179,179,179)" stroke-linejoin="round" d="M 3437,8610 L 3437,8460"/>
 <path fill="none" stroke="rgb(179,179,179)" stroke-linejoin="round" d="M 3437,8610 L 3437,8460"/>
 <path fill="none" stroke="rgb(179,179,179)" stroke-linejoin="round" d="M 4805,8610 L 4805,8460"/>
 <path fill="none" stroke="rgb(179,179,179)" stroke-linejoin="round" d="M 4805,8610 L 4805,8460"/>
 <path fill="none" stroke="rgb(179,179,179)" stroke-linejoin="round" d="M 6173,8610 L 6173,8460"/>
 <path fill="none" stroke="rgb(179,179,179)" stroke-linejoin="round" d="M 6173,8610 L 6173,8460"/>
 <path fill="none" stroke="rgb(179,179,179)" stroke-linejoin="round" d="M 7541,8610 L 7541,8460"/>
 <path fill="none" stroke="rgb(179,179,179)" stroke-linejoin="round" d="M 7541,8610 L 7541,8460"/>
 <path fill="none" stroke="rgb(179,179,179)" stroke-linejoin="round" d="M 8907,8610 L 8907,8460"/>
 <path fill="none" stroke="rgb(179,179,179)" stroke-linejoin="round" d="M 8907,8610 L 8907,8460"/>
 <path fill="none" stroke="rgb(179,179,179)" stroke-linejoin="round" d="M 10275,8610 L 10275,8460"/>
 <path fill="none" stroke="rgb(179,179,179)" stroke-linejoin="round" d="M 10275,8610 L 10275,8460"/>
 <path fill="none" stroke="rgb(179,179,179)" stroke-linejoin="round" d="M 11643,8610 L 11643,8460"/>
 <path fill="none" stroke="rgb(179,179,179)" stroke-linejoin="round" d="M 11643,8610 L 11643,8460"/>
 <path fill="none" stroke="rgb(179,179,179)" stroke-linejoin="round" d="M 13011,8610 L 13011,8460"/>
 <path fill="none" stroke="rgb(179,179,179)" stroke-linejoin="round" d="M 13011,8610 L 13011,8460"/>
 <path fill="none" stroke="rgb(179,179,179)" stroke-linejoin="round" d="M 14379,8610 L 14379,8460"/>
 <path fill="none" stroke="rgb(179,179,179)" stroke-linejoin="round" d="M 14379,8610 L 14379,8460"/>
 <path fill="none" stroke="rgb(179,179,179)" stroke-linejoin="round" d="M 2070,8460 L 14379,8460"/>
 <path fill="none" stroke="rgb(179,179,179)" stroke-linejoin="round" d="M 1920,8460 L 2070,8460"/>
 <path fill="none" stroke="rgb(179,179,179)" stroke-linejoin="round" d="M 1920,8460 L 2070,8460"/>
 <path fill="none" stroke="rgb(179,179,179)" stroke-linejoin="round" d="M 1920,7754 L 2070,7754"/>
 <path fill="none" stroke="rgb(179,179,179)" stroke-linejoin="round" d="M 1920,7754 L 2070,7754"/>
 <path fill="none" stroke="rgb(179,179,179)" stroke-linejoin="round" d="M 1920,7048 L 2070,7048"/>
 <path fill="none" stroke="rgb(179,179,179)" stroke-linejoin="round" d="M 1920,7048 L 2070,7048"/>
 <path fill="none" stroke="rgb(179,179,179)" stroke-linejoin="round" d="M 1920,6342 L 2070,6342"/>
 <path fill="none" stroke="rgb(179,179,179)" stroke-linejoin="round" d="M 1920,6342 L 2070,6342"/>
 <path fill="none" stroke="rgb(179,179,179)" stroke-linejoin="round" d="M 1920,5636 L 2070,5636"/>
 <path fill="none" stroke="rgb(179,179,179)" stroke-linejoin="round" d="M 1920,5636 L 2070,5636"/>
 <path fill="none" stroke="rgb(179,179,179)" stroke-linejoin="round" d="M 1920,4931 L 2070,4931"/>
 <path fill="none" stroke="rgb(179,179,179)" stroke-linejoin="round" d="M 1920,4931 L 2070,4931"/>
 <path fill="none" stroke="rgb(179,179,179)" stroke-linejoin="round" d="M 1920,4225 L 2070,4225"/>
 <path fill="none" stroke="rgb(179,179,179)" stroke-linejoin="round" d="M 1920,4225 L 2070,4225"/>
 <path fill="none" stroke="rgb(179,179,179)" stroke-linejoin="round" d="M 1920,3519 L 2070,3519"/>
 <path fill="none" stroke="rgb(179,179,179)" stroke-linejoin="round" d="M 1920,3519 L 2070,3519"/>
 <path fill="none" stroke="rgb(179,179,179)" stroke-linejoin="round" d="M 1920,2813 L 2070,2813"/>
 <path fill="none" stroke="rgb(179,179,179)" stroke-linejoin="round" d="M 1920,2813 L 2070,2813"/>
 <path fill="none" stroke="rgb(179,179,179)" stroke-linejoin="round" d="M 1920,2107 L 2070,2107"/>
 <path fill="none" stroke="rgb(179,179,179)" stroke-linejoin="round" d="M 1920,2107 L 2070,2107"/>
 <path fill="none" stroke="rgb(179,179,179)" stroke-linejoin="round" d="M 1920,1402 L 2070,1402"/>
 <path fill="none" stroke="rgb(179,179,179)" stroke-linejoin="round" d="M 1920,1402 L 2070,1402"/>
 <path fill="none" stroke="rgb(179,179,179)" stroke-linejoin="round" d="M 2070,8460 L 2070,1402"/>
 <path fill="none" stroke="rgb(0,69,134)" stroke-width="80" stroke-linejoin="round" d="M 2733,4113 L 3712,4236 4977,5191 6466,5480 10317,6115 13048,6340"/>
 <path fill="rgb(0,69,134)" stroke="none" d="M 2608,3988 L 2608,4238 2858,4238 2858,3988 2608,3988 Z"/>
 <path fill="none" stroke="rgb(0,69,134)" stroke-linejoin="round" d="M 2608,3988 L 2608,4238 2858,4238 2858,3988 2608,3988 Z"/>
 <path fill="rgb(0,69,134)" stroke="none" d="M 3587,4111 L 3587,4361 3837,4361 3837,4111 3587,4111 Z"/>
 <path fill="none" stroke="rgb(0,69,134)" stroke-linejoin="round" d="M 3587,4111 L 3587,4361 3837,4361 3837,4111 3587,4111 Z"/>
 <path fill="rgb(0,69,134)" stroke="none" d="M 4852,5067 L 4852,5316 5102,5316 5102,5067 4852,5067 Z"/>
 <path fill="none" stroke="rgb(0,69,134)" stroke-linejoin="round" d="M 4852,5067 L 4852,5316 5102,5316 5102,5067 4852,5067 Z"/>
 <path fill="rgb(0,69,134)" stroke="none" d="M 6341,5355 L 6341,5605 6591,5605 6591,5355 6341,5355 Z"/>
 <path fill="none" stroke="rgb(0,69,134)" stroke-linejoin="round" d="M 6341,5355 L 6341,5605 6591,5605 6591,5355 6341,5355 Z"/>
 <path fill="rgb(0,69,134)" stroke="none" d="M 10192,5990 L 10192,6240 10442,6240 10442,5990 10192,5990 Z"/>
 <path fill="none" stroke="rgb(0,69,134)" stroke-linejoin="round" d="M 10192,5990 L 10192,6240 10442,6240 10442,5990 10192,5990 Z"/>
 <path fill="rgb(0,69,134)" stroke="none" d="M 12923,6215 L 12923,6465 13173,6465 13173,6215 12923,6215 Z"/>
 <path fill="none" stroke="rgb(0,69,134)" stroke-linejoin="round" d="M 12923,6215 L 12923,6465 13173,6465 13173,6215 12923,6215 Z"/>
 <text class="TextShape"><tspan class="TextParagraph" font-family="Liberation Sans, sans-serif" font-size="353px" font-weight="400"><tspan class="TextPosition" x="1977" y="8948"><tspan fill="rgb(0,0,0)" stroke="none">0</tspan></tspan></tspan></text>
 <text class="TextShape"><tspan class="TextParagraph" font-family="Liberation Sans, sans-serif" font-size="353px" font-weight="400"><tspan class="TextPosition" x="2974" y="8948"><tspan fill="rgb(0,0,0)" stroke="none">20000</tspan></tspan></tspan></text>
 <text class="TextShape"><tspan class="TextParagraph" font-family="Liberation Sans, sans-serif" font-size="353px" font-weight="400"><tspan class="TextPosition" x="4342" y="8948"><tspan fill="rgb(0,0,0)" stroke="none">40000</tspan></tspan></tspan></text>
 <text class="TextShape"><tspan class="TextParagraph" font-family="Liberation Sans, sans-serif" font-size="353px" font-weight="400"><tspan class="TextPosition" x="5710" y="8948"><tspan fill="rgb(0,0,0)" stroke="none">60000</tspan></tspan></tspan></text>
 <text class="TextShape"><tspan class="TextParagraph" font-family="Liberation Sans, sans-serif" font-size="353px" font-weight="400"><tspan class="TextPosition" x="7078" y="8948"><tspan fill="rgb(0,0,0)" stroke="none">80000</tspan></tspan></tspan></text>
 <text class="TextShape"><tspan class="TextParagraph" font-family="Liberation Sans, sans-serif" font-size="353px" font-weight="400"><tspan class="TextPosition" x="8352" y="8948"><tspan fill="rgb(0,0,0)" stroke="none">100000</tspan></tspan></tspan></text>
 <text class="TextShape"><tspan class="TextParagraph" font-family="Liberation Sans, sans-serif" font-size="353px" font-weight="400"><tspan class="TextPosition" x="9720" y="8948"><tspan fill="rgb(0,0,0)" stroke="none">120000</tspan></tspan></tspan></text>
 <text class="TextShape"><tspan class="TextParagraph" font-family="Liberation Sans, sans-serif" font-size="353px" font-weight="400"><tspan class="TextPosition" x="11088" y="8948"><tspan fill="rgb(0,0,0)" stroke="none">140000</tspan></tspan></tspan></text>
 <text class="TextShape"><tspan class="TextParagraph" font-family="Liberation Sans, sans-serif" font-size="353px" font-weight="400"><tspan class="TextPosition" x="12456" y="8948"><tspan fill="rgb(0,0,0)" stroke="none">160000</tspan></tspan></tspan></text>
 <text class="TextShape"><tspan class="TextParagraph" font-family="Liberation Sans, sans-serif" font-size="353px" font-weight="400"><tspan class="TextPosition" x="13824" y="8948"><tspan fill="rgb(0,0,0)" stroke="none">180000</tspan></tspan></tspan></text>
 <text class="TextShape"><tspan class="TextParagraph" font-family="Liberation Sans, sans-serif" font-size="353px" font-weight="400"><tspan class="TextPosition" x="1264" y="8540"><tspan fill="rgb(0,0,0)" stroke="none">150</tspan></tspan></tspan></text>
 <text class="TextShape"><tspan class="TextParagraph" font-family="Liberation Sans, sans-serif" font-size="353px" font-weight="400"><tspan class="TextPosition" x="1264" y="7834"><tspan fill="rgb(0,0,0)" stroke="none">155</tspan></tspan></tspan></text>
 <text class="TextShape"><tspan class="TextParagraph" font-family="Liberation Sans, sans-serif" font-size="353px" font-weight="400"><tspan class="TextPosition" x="1264" y="7128"><tspan fill="rgb(0,0,0)" stroke="none">160</tspan></tspan></tspan></text>
 <text class="TextShape"><tspan class="TextParagraph" font-family="Liberation Sans, sans-serif" font-size="353px" font-weight="400"><tspan class="TextPosition" x="1264" y="6422"><tspan fill="rgb(0,0,0)" stroke="none">165</tspan></tspan></tspan></text>
 <text class="TextShape"><tspan class="TextParagraph" font-family="Liberation Sans, sans-serif" font-size="353px" font-weight="400"><tspan class="TextPosition" x="1264" y="5716"><tspan fill="rgb(0,0,0)" stroke="none">170</tspan></tspan></tspan></text>
 <text class="TextShape"><tspan class="TextParagraph" font-family="Liberation Sans, sans-serif" font-size="353px" font-weight="400"><tspan class="TextPosition" x="1264" y="5010"><tspan fill="rgb(0,0,0)" stroke="none">175</tspan></tspan></tspan></text>
 <text class="TextShape"><tspan class="TextParagraph" font-family="Liberation Sans, sans-serif" font-size="353px" font-weight="400"><tspan class="TextPosition" x="1264" y="4304"><tspan fill="rgb(0,0,0)" stroke="none">180</tspan></tspan></tspan></text>
 <text class="TextShape"><tspan class="TextParagraph" font-family="Liberation Sans, sans-serif" font-size="353px" font-weight="400"><tspan class="TextPosition" x="1264" y="3598"><tspan fill="rgb(0,0,0)" stroke="none">185</tspan></tspan></tspan></text>
 <text class="TextShape"><tspan class="TextParagraph" font-family="Liberation Sans, sans-serif" font-size="353px" font-weight="400"><tspan class="TextPosition" x="1264" y="2892"><tspan fill="rgb(0,0,0)" stroke="none">190</tspan></tspan></tspan></text>
 <text class="TextShape"><tspan class="TextParagraph" font-family="Liberation Sans, sans-serif" font-size="353px" font-weight="400"><tspan class="TextPosition" x="1264" y="2186"><tspan fill="rgb(0,0,0)" stroke="none">195</tspan></tspan></tspan></text>
 <text class="TextShape"><tspan class="TextParagraph" font-family="Liberation Sans, sans-serif" font-size="353px" font-weight="400"><tspan class="TextPosition" x="1264" y="1481"><tspan fill="rgb(0,0,0)" stroke="none">200</tspan></tspan></tspan></text>
 <text class="TextShape"><tspan class="TextParagraph" font-family="Liberation Sans, sans-serif" font-size="459px" font-weight="400"><tspan class="TextPosition" x="4167" y="795"><tspan fill="rgb(0,0,0)" stroke="none">Total pressure drop at 2.4 seconds</tspan></tspan></tspan></text>
 <text class="TextShape"><tspan class="TextParagraph" font-family="Liberation Sans, sans-serif" font-size="318px" font-weight="400"><tspan class="TextPosition" x="7134" y="9566"><tspan fill="rgb(0,0,0)" stroke="none">Cells number</tspan></tspan></tspan></text>
 <text class="TextShape" transform="translate(784,6723) rotate(-90) translate(-784,-6723)"><tspan class="TextParagraph" font-family="Liberation Sans, sans-serif" font-size="318px" font-weight="400"><tspan class="TextPosition" x="784" y="6723"><tspan fill="rgb(0,0,0)" stroke="none">Relative pressure [Pa]</tspan></tspan></tspan></text>
</svg>