<?xml version="1.0" encoding="UTF-8"?>
<!DOCTYPE svg PUBLIC "-//W3C//DTD SVG 1.1//EN" "http://www.w3.org/Graphics/SVG/1.1/DTD/svg11.dtd">
<svg width="152mm" height="102mm" viewBox="0 0 15200 10200" version="1.1" xmlns="http://www.w3.org/2000/svg" stroke-width="28.222" stroke-linejoin="round" xml:space="preserve">
 <path fill="rgb(255,255,255)" stroke="none" d="M 7666,10160 L 46,10160 46,0 15286,0 15286,10160 7666,10160 Z"/>
 <path fill="none" stroke="rgb(179,179,179)" stroke-linejoin="round" d="M 8270,8460 L 2116,8460 2116,1402 14425,1402 14425,8460 8270,8460 Z"/>
 <path fill="none" stroke="rgb(179,179,179)" stroke-linejoin="round" d="M 14425,8459 L 2116,8459"/>
 <path fill="none" stroke="rgb(179,179,179)" stroke-linejoin="round" d="M 14425,7753 L 2116,7753"/>
 <path fill="none" stroke="rgb(179,179,179)" stroke-linejoin="round" d="M 14425,7047 L 2116,7047"/>
 <path fill="none" stroke="rgb(179,179,179)" stroke-linejoin="round" d="M 14425,6341 L 2116,6341"/>
 <path fill="none" stroke="rgb(179,179,179)" stroke-linejoin="round" d="M 14425,5635 L 2116,5635"/>
 <path fill="none" stroke="rgb(179,179,179)" stroke-linejoin="round" d="M 14425,4930 L 2116,4930"/>
 <path fill="none" stroke="rgb(179,179,179)" stroke-linejoin="round" d="M 14425,4224 L 2116,4224"/>
 <path fill="none" stroke="rgb(179,179,179)" stroke-linejoin="round" d="M 14425,3518 L 2116,3518"/>
 <path fill="none" stroke="rgb(179,179,179)" stroke-linejoin="round" d="M 14425,2812 L 2116,2812"/>
 <path fill="none" stroke="rgb(179,179,179)" stroke-linejoin="round" d="M 14425,2106 L 2116,2106"/>
 <path fill="none" stroke="rgb(179,179,179)" stroke-linejoin="round" d="M 14425,1401 L 2116,1401"/>
 <path fill="none" stroke="rgb(179,179,179)" stroke-linejoin="round" d="M 2116,8609 L 2116,8459"/>
 <path fill="none" stroke="rgb(179,179,179)" stroke-linejoin="round" d="M 2116,8609 L 2116,8459"/>
 <path fill="none" stroke="rgb(179,179,179)" stroke-linejoin="round" d="M 3483,8609 L 3483,8459"/>
 <path fill="none" stroke="rgb(179,179,179)" stroke-linejoin="round" d="M 3483,8609 L 3483,8459"/>
 <path fill="none" stroke="rgb(179,179,179)" stroke-linejoin="round" d="M 4851,8609 L 4851,8459"/>
 <path fill="none" stroke="rgb(179,179,179)" stroke-linejoin="round" d="M 4851,8609 L 4851,8459"/>
 <path fill="none" stroke="rgb(179,179,179)" stroke-linejoin="round" d="M 6219,8609 L 6219,8459"/>
 <path fill="none" stroke="rgb(179,179,179)" stroke-linejoin="round" d="M 6219,8609 L 6219,8459"/>
 <path fill="none" stroke="rgb(179,179,179)" stroke-linejoin="round" d="M 7587,8609 L 7587,8459"/>
 <path fill="none" stroke="rgb(179,179,179)" stroke-linejoin="round" d="M 7587,8609 L 7587,8459"/>
 <path fill="none" stroke="rgb(179,179,179)" stroke-linejoin="round" d="M 8953,8609 L 8953,8459"/>
 <path fill="none" stroke="rgb(179,179,179)" stroke-linejoin="round" d="M 8953,8609 L 8953,8459"/>
 <path fill="none" stroke="rgb(179,179,179)" stroke-linejoin="round" d="M 10321,8609 L 10321,8459"/>
 <path fill="none" stroke="rgb(179,179,179)" stroke-linejoin="round" d="M 10321,8609 L 10321,8459"/>
 <path fill="none" stroke="rgb(179,179,179)" stroke-linejoin="round" d="M 11689,8609 L 11689,8459"/>
 <path fill="none" stroke="rgb(179,179,179)" stroke-linejoin="round" d="M 11689,8609 L 11689,8459"/>
 <path fill="none" stroke="rgb(179,179,179)" stroke-linejoin="round" d="M 13057,8609 L 13057,8459"/>
 <path fill="none" stroke="rgb(179,179,179)" stroke-linejoin="round" d="M 13057,8609 L 13057,8459"/>
 <path fill="none" stroke="rgb(179,179,179)" stroke-linejoin="round" d="M 14425,8609 L 14425,8459"/>
 <path fill="none" stroke="rgb(179,179,179)" stroke-linejoin="round" d="M 14425,8609 L 14425,8459"/>
 <path fill="none" stroke="rgb(179,179,179)" stroke-linejoin="round" d="M 2116,8459 L 14425,8459"/>
 <path fill="none" stroke="rgb(179,179,179)" stroke-linejoin="round" d="M 1966,8459 L 2116,8459"/>
 <path fill="none" stroke="rgb(179,179,179)" stroke-linejoin="round" d="M 1966,8459 L 2116,8459"/>
 <path fill="none" stroke="rgb(179,179,179)" stroke-linejoin="round" d="M 1966,7753 L 2116,7753"/>
 <path fill="none" stroke="rgb(179,179,179)" stroke-linejoin="round" d="M 1966,7753 L 2116,7753"/>
 <path fill="none" stroke="rgb(179,179,179)" stroke-linejoin="round" d="M 1966,7047 L 2116,7047"/>
 <path fill="none" stroke="rgb(179,179,179)" stroke-linejoin="round" d="M 1966,7047 L 2116,7047"/>
 <path fill="none" stroke="rgb(179,179,179)" stroke-linejoin="round" d="M 1966,6341 L 2116,6341"/>
 <path fill="none" stroke="rgb(179,179,179)" stroke-linejoin="round" d="M 1966,6341 L 2116,6341"/>
 <path fill="none" stroke="rgb(179,179,179)" stroke-linejoin="round" d="M 1966,5635 L 2116,5635"/>
 <path fill="none" stroke="rgb(179,179,179)" stroke-linejoin="round" d="M 1966,5635 L 2116,5635"/>
 <path fill="none" stroke="rgb(179,179,179)" stroke-linejoin="round" d="M 1966,4930 L 2116,4930"/>
 <path fill="none" stroke="rgb(179,179,179)" stroke-linejoin="round" d="M 1966,4930 L 2116,4930"/>
 <path fill="none" stroke="rgb(179,179,179)" stroke-linejoin="round" d="M 1966,4224 L 2116,4224"/>
 <path fill="none" stroke="rgb(179,179,179)" stroke-linejoin="round" d="M 1966,4224 L 2116,4224"/>
 <path fill="none" stroke="rgb(179,179,179)" stroke-linejoin="round" d="M 1966,3518 L 2116,3518"/>
 <path fill="none" stroke="rgb(179,179,179)" stroke-linejoin="round" d="M 1966,3518 L 2116,3518"/>
 <path fill="none" stroke="rgb(179,179,179)" stroke-linejoin="round" d="M 1966,2812 L 2116,2812"/>
 <path fill="none" stroke="rgb(179,179,179)" stroke-linejoin="round" d="M 1966,2812 L 2116,2812"/>
 <path fill="none" stroke="rgb(179,179,179)" stroke-linejoin="round" d="M 1966,2106 L 2116,2106"/>
 <path fill="none" stroke="rgb(179,179,179)" stroke-linejoin="round" d="M 1966,2106 L 2116,2106"/>
 <path fill="none" stroke="rgb(179,179,179)" stroke-linejoin="round" d="M 1966,1401 L 2116,1401"/>
 <path fill="none" stroke="rgb(179,179,179)" stroke-linejoin="round" d="M 1966,1401 L 2116,1401"/>
 <path fill="none" stroke="rgb(179,179,179)" stroke-linejoin="round" d="M 2116,8459 L 2116,1401"/>
 <path fill="none" stroke="rgb(0,69,134)" stroke-width="80" stroke-linejoin="round" d="M 2779,4475 L 3758,3793 5023,4921 6512,5725 10363,6661 13094,6705"/>
 <path fill="rgb(0,69,134)" stroke="none" d="M 2654,4350 L 2654,4600 2904,4600 2904,4350 2654,4350 Z"/>
 <path fill="none" stroke="rgb(0,69,134)" stroke-linejoin="round" d="M 2654,4350 L 2654,4600 2904,4600 2904,4350 2654,4350 Z"/>
 <path fill="rgb(0,69,134)" stroke="none" d="M 3633,3668 L 3633,3918 3883,3918 3883,3668 3633,3668 Z"/>
 <path fill="none" stroke="rgb(0,69,134)" stroke-linejoin="round" d="M 3633,3668 L 3633,3918 3883,3918 3883,3668 3633,3668 Z"/>
 <path fill="rgb(0,69,134)" stroke="none" d="M 4898,4796 L 4898,5046 5148,5046 5148,4796 4898,4796 Z"/>
 <path fill="none" stroke="rgb(0,69,134)" stroke-linejoin="round" d="M 4898,4796 L 4898,5046 5148,5046 5148,4796 4898,4796 Z"/>
 <path fill="rgb(0,69,134)" stroke="none" d="M 6387,5600 L 6387,5850 6637,5850 6637,5600 6387,5600 Z"/>
 <path fill="none" stroke="rgb(0,69,134)" stroke-linejoin="round" d="M 6387,5600 L 6387,5850 6637,5850 6637,5600 6387,5600 Z"/>
 <path fill="rgb(0,69,134)" stroke="none" d="M 10238,6536 L 10238,6786 10488,6786 10488,6536 10238,6536 Z"/>
 <path fill="none" stroke="rgb(0,69,134)" stroke-linejoin="round" d="M 10238,6536 L 10238,6786 10488,6786 10488,6536 10238,6536 Z"/>
 <path fill="rgb(0,69,134)" stroke="none" d="M 12969,6580 L 12969,6830 13219,6830 13219,6580 12969,6580 Z"/>
 <path fill="none" stroke="rgb(0,69,134)" stroke-linejoin="round" d="M 12969,6580 L 12969,6830 13219,6830 13219,6580 12969,6580 Z"/>
 <text class="TextShape"><tspan class="TextParagraph" font-family="Liberation Sans, sans-serif" font-size="353px" font-weight="400"><tspan class="TextPosition" x="2023" y="8947"><tspan fill="rgb(0,0,0)" stroke="none">0</tspan></tspan></tspan></text>
 <text class="TextShape"><tspan class="TextParagraph" font-family="Liberation Sans, sans-serif" font-size="353px" font-weight="400"><tspan class="TextPosition" x="3020" y="8947"><tspan fill="rgb(0,0,0)" stroke="none">20000</tspan></tspan></tspan></text>
 <text class="TextShape"><tspan class="TextParagraph" font-family="Liberation Sans, sans-serif" font-size="353px" font-weight="400"><tspan class="TextPosition" x="4388" y="8947"><tspan fill="rgb(0,0,0)" stroke="none">40000</tspan></tspan></tspan></text>
 <text class="TextShape"><tspan class="TextParagraph" font-family="Liberation Sans, sans-serif" font-size="353px" font-weight="400"><tspan class="TextPosition" x="5756" y="8947"><tspan fill="rgb(0,0,0)" stroke="none">60000</tspan></tspan></tspan></text>
 <text class="TextShape"><tspan class="TextParagraph" font-family="Liberation Sans, sans-serif" font-size="353px" font-weight="400"><tspan class="TextPosition" x="7124" y="8947"><tspan fill="rgb(0,0,0)" stroke="none">80000</tspan></tspan></tspan></text>
 <text class="TextShape"><tspan class="TextParagraph" font-family="Liberation Sans, sans-serif" font-size="353px" font-weight="400"><tspan class="TextPosition" x="8398" y="8947"><tspan fill="rgb(0,0,0)" stroke="none">100000</tspan></tspan></tspan></text>
 <text class="TextShape"><tspan class="TextParagraph" font-family="Liberation Sans, sans-serif" font-size="353px" font-weight="400"><tspan class="TextPosition" x="9766" y="8947"><tspan fill="rgb(0,0,0)" stroke="none">120000</tspan></tspan></tspan></text>
 <text class="TextShape"><tspan class="TextParagraph" font-family="Liberation Sans, sans-serif" font-size="353px" font-weight="400"><tspan class="TextPosition" x="11134" y="8947"><tspan fill="rgb(0,0,0)" stroke="none">140000</tspan></tspan></tspan></text>
 <text class="TextShape"><tspan class="TextParagraph" font-family="Liberation Sans, sans-serif" font-size="353px" font-weight="400"><tspan class="TextPosition" x="12502" y="8947"><tspan fill="rgb(0,0,0)" stroke="none">160000</tspan></tspan></tspan></text>
 <text class="TextShape"><tspan class="TextParagraph" font-family="Liberation Sans, sans-serif" font-size="353px" font-weight="400"><tspan class="TextPosition" x="13870" y="8947"><tspan fill="rgb(0,0,0)" stroke="none">180000</tspan></tspan></tspan></text>
 <text class="TextShape"><tspan class="TextParagraph" font-family="Liberation Sans, sans-serif" font-size="353px" font-weight="400"><tspan class="TextPosition" x="1310" y="8539"><tspan fill="rgb(0,0,0)" stroke="none">100</tspan></tspan></tspan></text>
 <text class="TextShape"><tspan class="TextParagraph" font-family="Liberation Sans, sans-serif" font-size="353px" font-weight="400"><tspan class="TextPosition" x="1310" y="7833"><tspan fill="rgb(0,0,0)" stroke="none">105</tspan></tspan></tspan></text>
 <text class="TextShape"><tspan class="TextParagraph" font-family="Liberation Sans, sans-serif" font-size="353px" font-weight="400"><tspan class="TextPosition" x="1310" y="7127"><tspan fill="rgb(0,0,0)" stroke="none">110</tspan></tspan></tspan></text>
 <text class="TextShape"><tspan class="TextParagraph" font-family="Liberation Sans, sans-serif" font-size="353px" font-weight="400"><tspan class="TextPosition" x="1310" y="6421"><tspan fill="rgb(0,0,0)" stroke="none">115</tspan></tspan></tspan></text>
 <text class="TextShape"><tspan class="TextParagraph" font-family="Liberation Sans, sans-serif" font-size="353px" font-weight="400"><tspan class="TextPosition" x="1310" y="5715"><tspan fill="rgb(0,0,0)" stroke="none">120</tspan></tspan></tspan></text>
 <text class="TextShape"><tspan class="TextParagraph" font-family="Liberation Sans, sans-serif" font-size="353px" font-weight="400"><tspan class="TextPosition" x="1310" y="5009"><tspan fill="rgb(0,0,0)" stroke="none">125</tspan></tspan></tspan></text>
 <text class="TextShape"><tspan class="TextParagraph" font-family="Liberation Sans, sans-serif" font-size="353px" font-weight="400"><tspan class="TextPosition" x="1310" y="4303"><tspan fill="rgb(0,0,0)" stroke="none">130</tspan></tspan></tspan></text>
 <text class="TextShape"><tspan class="TextParagraph" font-family="Liberation Sans, sans-serif" font-size="353px" font-weight="400"><tspan class="TextPosition" x="1310" y="3597"><tspan fill="rgb(0,0,0)" stroke="none">135</tspan></tspan></tspan></text>
 <text class="TextShape"><tspan class="TextParagraph" font-family="Liberation Sans, sans-serif" font-size="353px" font-weight="400"><tspan class="TextPosition" x="1310" y="2891"><tspan fill="rgb(0,0,0)" stroke="none">140</tspan></tspan></tspan></text>
 <text class="TextShape"><tspan class="TextParagraph" font-family="Liberation Sans, sans-serif" font-size="353px" font-weight="400"><tspan class="TextPosition" x="1310" y="2185"><tspan fill="rgb(0,0,0)" stroke="none">145</tspan></tspan></tspan></text>
 <text class="TextShape"><tspan class="TextParagraph" font-family="Liberation Sans, sans-serif" font-size="353px" font-weight="400"><tspan class="TextPosition" x="1310" y="1480"><tspan fill="rgb(0,0,0)" stroke="none">150</tspan></tspan></tspan></text>
 <text class="TextShape"><tspan class="TextParagraph" font-family="Liberation Sans, sans-serif" font-size="459px" font-weight="400"><tspan class="TextPosition" x="2665" y="794"><tspan fill="rgb(0,0,0)" stroke="none">Total pressure drop at 2.4 seconds (constant inlet)</tspan></tspan></tspan></text>
 <text class="TextShape"><tspan class="TextParagraph" font-family="Liberation Sans, sans-serif" font-size="318px" font-weight="400"><tspan class="TextPosition" x="7180" y="9565"><tspan fill="rgb(0,0,0)" stroke="none">Cells number</tspan></tspan></tspan></text>
 <text class="TextShape" transform="translate(830,6722) rotate(-90) translate(-830,-6722)"><tspan class="TextParagraph" font-family="Liberation Sans, sans-serif" font-size="318px" font-weight="400"><tspan class="TextPosition" x="830" y="6722"><tspan fill="rgb(0,0,0)" stroke="none">Relative pressure [Pa]</tspan></tspan></tspan></text>
</svg>