solid zone0
 facet normal 0.226049 -0.974116 0
  outer loop
   vertex 0.0576575 -0.0662231 0.22
   vertex 0.0556833 -0.0666812 0.22
   vertex 0.0576575 -0.0662231 0
  endloop
 endfacet
 facet normal 0.275094 -0.961417 0
  outer loop
   vertex 0.0596059 -0.0656656 0.22
   vertex 0.0576575 -0.0662231 0.22
   vertex 0.0576575 -0.0662231 0
  endloop
 endfacet
 facet normal 0.226049 -0.974116 0
  outer loop
   vertex 0.0556833 -0.0666812 0.22
   vertex 0.0556833 -0.0666812 0
   vertex 0.0576575 -0.0662231 0
  endloop
 endfacet
 facet normal 0.323439 -0.946249 0
  outer loop
   vertex 0.0615236 -0.0650101 0.22
   vertex 0.0596059 -0.0656656 0.22
   vertex 0.0596059 -0.0656656 0
  endloop
 endfacet
 facet normal 0.275094 -0.961417 0
  outer loop
   vertex 0.0596059 -0.0656656 0.22
   vertex 0.0576575 -0.0662231 0
   vertex 0.0596059 -0.0656656 0
  endloop
 endfacet
 facet normal 0.323439 -0.946249 0
  outer loop
   vertex 0.0615236 -0.0650101 0.22
   vertex 0.0596059 -0.0656656 0
   vertex 0.0615236 -0.0650101 0
  endloop
 endfacet
 facet normal 0.999679 0.025332 0
  outer loop
   vertex 0.0876314 -0.0275 0.22
   vertex 0.0876314 -0.0275 0
   vertex 0.0875801 -0.025474 0
  endloop
 endfacet
 facet normal 0.999679 0.025332 0
  outer loop
   vertex 0.0875801 -0.025474 0.22
   vertex 0.0876314 -0.0275 0.22
   vertex 0.0875801 -0.025474 0
  endloop
 endfacet
 facet normal 0.370949 -0.928653 0
  outer loop
   vertex 0.0634056 -0.0642583 0.22
   vertex 0.0615236 -0.0650101 0.22
   vertex 0.0634056 -0.0642583 0
  endloop
 endfacet
 facet normal 0.370949 -0.928653 0
  outer loop
   vertex 0.0615236 -0.0650101 0.22
   vertex 0.0615236 -0.0650101 0
   vertex 0.0634056 -0.0642583 0
  endloop
 endfacet
 facet normal 0.997113 0.0759319 0
  outer loop
   vertex 0.0874262 -0.0234533 0.22
   vertex 0.0875801 -0.025474 0.22
   vertex 0.0874262 -0.0234533 0
  endloop
 endfacet
 facet normal 0.997113 0.0759319 0
  outer loop
   vertex 0.0875801 -0.025474 0.22
   vertex 0.0875801 -0.025474 0
   vertex 0.0874262 -0.0234533 0
  endloop
 endfacet
 facet normal 0.417511 -0.908672 0
  outer loop
   vertex 0.0652472 -0.0634122 0.22
   vertex 0.0634056 -0.0642583 0.22
   vertex 0.0652472 -0.0634122 0
  endloop
 endfacet
 facet normal 0.462997 -0.88636 0
  outer loop
   vertex 0.0670435 -0.0624739 0.22
   vertex 0.0652472 -0.0634122 0.22
   vertex 0.0652472 -0.0634122 0
  endloop
 endfacet
 facet normal 0.417511 -0.908672 0
  outer loop
   vertex 0.0634056 -0.0642583 0.22
   vertex 0.0634056 -0.0642583 0
   vertex 0.0652472 -0.0634122 0
  endloop
 endfacet
 facet normal 0.991987 0.12634 0
  outer loop
   vertex 0.0871701 -0.0214429 0.22
   vertex 0.0874262 -0.0234533 0.22
   vertex 0.0871701 -0.0214429 0
  endloop
 endfacet
 facet normal 0.984315 0.17642 0
  outer loop
   vertex 0.0868126 -0.0194481 0.22
   vertex 0.0871701 -0.0214429 0.22
   vertex 0.0871701 -0.0214429 0
  endloop
 endfacet
 facet normal 0.991987 0.12634 0
  outer loop
   vertex 0.0874262 -0.0234533 0.22
   vertex 0.0874262 -0.0234533 0
   vertex 0.0871701 -0.0214429 0
  endloop
 endfacet
 facet normal 0.462997 -0.88636 0
  outer loop
   vertex 0.0670435 -0.0624739 0.22
   vertex 0.0652472 -0.0634122 0
   vertex 0.0670435 -0.0624739 0
  endloop
 endfacet
 facet normal 0.507296 -0.861772 0
  outer loop
   vertex 0.06879 -0.0614458 0.22
   vertex 0.0670435 -0.0624739 0.22
   vertex 0.06879 -0.0614458 0
  endloop
 endfacet
 facet normal 0.550293 -0.834972 0
  outer loop
   vertex 0.0704821 -0.0603305 0.22
   vertex 0.06879 -0.0614458 0.22
   vertex 0.06879 -0.0614458 0
  endloop
 endfacet
 facet normal 0.984315 0.17642 0
  outer loop
   vertex 0.0868126 -0.0194481 0.22
   vertex 0.0871701 -0.0214429 0
   vertex 0.0868126 -0.0194481 0
  endloop
 endfacet
 facet normal 0.507296 -0.861772 0
  outer loop
   vertex 0.0670435 -0.0624739 0.22
   vertex 0.0670435 -0.0624739 0
   vertex 0.06879 -0.0614458 0
  endloop
 endfacet
 facet normal 0.974117 0.226045 0
  outer loop
   vertex 0.0863545 -0.0174739 0.22
   vertex 0.0868126 -0.0194481 0.22
   vertex 0.0863545 -0.0174739 0
  endloop
 endfacet
 facet normal 0.550293 -0.834972 0
  outer loop
   vertex 0.0704821 -0.0603305 0.22
   vertex 0.06879 -0.0614458 0
   vertex 0.0704821 -0.0603305 0
  endloop
 endfacet
 facet normal 0.591875 -0.80603 0
  outer loop
   vertex 0.0721156 -0.059131 0.22
   vertex 0.0704821 -0.0603305 0.22
   vertex 0.0704821 -0.0603305 0
  endloop
 endfacet
 facet normal 0.974117 0.226045 0
  outer loop
   vertex 0.0868126 -0.0194481 0.22
   vertex 0.0868126 -0.0194481 0
   vertex 0.0863545 -0.0174739 0
  endloop
 endfacet
 facet normal 0.631943 -0.775015 0
  outer loop
   vertex 0.0736863 -0.0578503 0.22
   vertex 0.0721156 -0.059131 0.22
   vertex 0.0721156 -0.059131 0
  endloop
 endfacet
 facet normal 0.961416 0.275098 0
  outer loop
   vertex 0.085797 -0.0155255 0.22
   vertex 0.0863545 -0.0174739 0.22
   vertex 0.085797 -0.0155255 0
  endloop
 endfacet
 facet normal 0.946249 0.323439 0
  outer loop
   vertex 0.0851415 -0.0136078 0.22
   vertex 0.085797 -0.0155255 0.22
   vertex 0.085797 -0.0155255 0
  endloop
 endfacet
 facet normal 0.591875 -0.80603 0
  outer loop
   vertex 0.0721156 -0.059131 0.22
   vertex 0.0704821 -0.0603305 0
   vertex 0.0721156 -0.059131 0
  endloop
 endfacet
 facet normal 0.961416 0.275098 0
  outer loop
   vertex 0.0863545 -0.0174739 0.22
   vertex 0.0863545 -0.0174739 0
   vertex 0.085797 -0.0155255 0
  endloop
 endfacet
 facet normal 0.670386 -0.742013 0
  outer loop
   vertex 0.0751901 -0.0564917 0.22
   vertex 0.0736863 -0.0578503 0.22
   vertex 0.0736863 -0.0578503 0
  endloop
 endfacet
 facet normal 0.631943 -0.775015 0
  outer loop
   vertex 0.0736863 -0.0578503 0.22
   vertex 0.0721156 -0.059131 0
   vertex 0.0736863 -0.0578503 0
  endloop
 endfacet
 facet normal 0.946249 0.323439 0
  outer loop
   vertex 0.0851415 -0.0136078 0.22
   vertex 0.085797 -0.0155255 0
   vertex 0.0851415 -0.0136078 0
  endloop
 endfacet
 facet normal 0.707106 -0.707108 0
  outer loop
   vertex 0.0766231 -0.0550587 0.22
   vertex 0.0751901 -0.0564917 0.22
   vertex 0.0751901 -0.0564917 0
  endloop
 endfacet
 facet normal 0.670386 -0.742013 0
  outer loop
   vertex 0.0751901 -0.0564917 0.22
   vertex 0.0736863 -0.0578503 0
   vertex 0.0751901 -0.0564917 0
  endloop
 endfacet
 facet normal 0.928653 0.370948 0
  outer loop
   vertex 0.0843897 -0.0117258 0.22
   vertex 0.0851415 -0.0136078 0.22
   vertex 0.0843897 -0.0117258 0
  endloop
 endfacet
 facet normal 0.928653 0.370948 0
  outer loop
   vertex 0.0851415 -0.0136078 0.22
   vertex 0.0851415 -0.0136078 0
   vertex 0.0843897 -0.0117258 0
  endloop
 endfacet
 facet normal 0.742014 -0.670385 0
  outer loop
   vertex 0.0779817 -0.0535549 0.22
   vertex 0.0766231 -0.0550587 0.22
   vertex 0.0766231 -0.0550587 0
  endloop
 endfacet
 facet normal 0.707106 -0.707108 0
  outer loop
   vertex 0.0766231 -0.0550587 0.22
   vertex 0.0751901 -0.0564917 0
   vertex 0.0766231 -0.0550587 0
  endloop
 endfacet
 facet normal 0.908673 0.417509 0
  outer loop
   vertex 0.0835436 -0.00988423 0.22
   vertex 0.0843897 -0.0117258 0.22
   vertex 0.0835436 -0.00988423 0
  endloop
 endfacet
 facet normal 0.88636 0.462996 0
  outer loop
   vertex 0.0826053 -0.00808792 0.22
   vertex 0.0835436 -0.00988423 0.22
   vertex 0.0835436 -0.00988423 0
  endloop
 endfacet
 facet normal 0.775015 -0.631942 0
  outer loop
   vertex 0.0792624 -0.0519842 0.22
   vertex 0.0779817 -0.0535549 0.22
   vertex 0.0779817 -0.0535549 0
  endloop
 endfacet
 facet normal 0.908673 0.417509 0
  outer loop
   vertex 0.0843897 -0.0117258 0.22
   vertex 0.0843897 -0.0117258 0
   vertex 0.0835436 -0.00988423 0
  endloop
 endfacet
 facet normal 0.742014 -0.670385 0
  outer loop
   vertex 0.0779817 -0.0535549 0.22
   vertex 0.0766231 -0.0550587 0
   vertex 0.0779817 -0.0535549 0
  endloop
 endfacet
 facet normal 0.861771 0.507298 0
  outer loop
   vertex 0.0815772 -0.00634144 0.22
   vertex 0.0826053 -0.00808792 0.22
   vertex 0.0826053 -0.00808792 0
  endloop
 endfacet
 facet normal 0.806028 -0.591877 0
  outer loop
   vertex 0.0804619 -0.0503507 0.22
   vertex 0.0792624 -0.0519842 0.22
   vertex 0.0792624 -0.0519842 0
  endloop
 endfacet
 facet normal 0.88636 0.462996 0
  outer loop
   vertex 0.0826053 -0.00808792 0.22
   vertex 0.0835436 -0.00988423 0
   vertex 0.0826053 -0.00808792 0
  endloop
 endfacet
 facet normal 0.775015 -0.631942 0
  outer loop
   vertex 0.0792624 -0.0519842 0.22
   vertex 0.0779817 -0.0535549 0
   vertex 0.0792624 -0.0519842 0
  endloop
 endfacet
 facet normal 0.834973 -0.550291 0
  outer loop
   vertex 0.0815772 -0.0486586 0.22
   vertex 0.0804619 -0.0503507 0.22
   vertex 0.0804619 -0.0503507 0
  endloop
 endfacet
 facet normal 0.834973 0.550291 0
  outer loop
   vertex 0.0804619 -0.00464927 0.22
   vertex 0.0815772 -0.00634144 0.22
   vertex 0.0815772 -0.00634144 0
  endloop
 endfacet
 facet normal 0.861771 0.507298 0
  outer loop
   vertex 0.0815772 -0.00634144 0.22
   vertex 0.0826053 -0.00808792 0
   vertex 0.0815772 -0.00634144 0
  endloop
 endfacet
 facet normal 0.806028 -0.591877 0
  outer loop
   vertex 0.0804619 -0.0503507 0.22
   vertex 0.0792624 -0.0519842 0
   vertex 0.0804619 -0.0503507 0
  endloop
 endfacet
 facet normal 0.834973 -0.550291 0
  outer loop
   vertex 0.0815772 -0.0486586 0.22
   vertex 0.0804619 -0.0503507 0
   vertex 0.0815772 -0.0486586 0
  endloop
 endfacet
 facet normal 0.834973 0.550291 0
  outer loop
   vertex 0.0804619 -0.00464927 0.22
   vertex 0.0815772 -0.00634144 0
   vertex 0.0804619 -0.00464927 0
  endloop
 endfacet
 facet normal 0.861771 -0.507297 0
  outer loop
   vertex 0.0826053 -0.0469121 0.22
   vertex 0.0815772 -0.0486586 0.22
   vertex 0.0815772 -0.0486586 0
  endloop
 endfacet
 facet normal 0.861771 -0.507297 0
  outer loop
   vertex 0.0826053 -0.0469121 0.22
   vertex 0.0815772 -0.0486586 0
   vertex 0.0826053 -0.0469121 0
  endloop
 endfacet
 facet normal 0.806028 0.591877 0
  outer loop
   vertex 0.0804619 -0.00464927 0.22
   vertex 0.0804619 -0.00464927 0
   vertex 0.0792624 -0.00301576 0
  endloop
 endfacet
 facet normal 0.88636 -0.462996 0
  outer loop
   vertex 0.0835436 -0.0451158 0.22
   vertex 0.0826053 -0.0469121 0.22
   vertex 0.0826053 -0.0469121 0
  endloop
 endfacet
 facet normal 0.806028 0.591877 0
  outer loop
   vertex 0.0792624 -0.00301576 0.22
   vertex 0.0804619 -0.00464927 0.22
   vertex 0.0792624 -0.00301576 0
  endloop
 endfacet
 facet normal 0.775015 0.631943 0
  outer loop
   vertex 0.0779817 -0.0014451 0.22
   vertex 0.0792624 -0.00301576 0.22
   vertex 0.0792624 -0.00301576 0
  endloop
 endfacet
 facet normal 0.88636 -0.462996 0
  outer loop
   vertex 0.0835436 -0.0451158 0.22
   vertex 0.0826053 -0.0469121 0
   vertex 0.0835436 -0.0451158 0
  endloop
 endfacet
 facet normal 0.908673 -0.417509 0
  outer loop
   vertex 0.0843897 -0.0432742 0.22
   vertex 0.0835436 -0.0451158 0.22
   vertex 0.0835436 -0.0451158 0
  endloop
 endfacet
 facet normal 0.775015 0.631943 0
  outer loop
   vertex 0.0779817 -0.0014451 0.22
   vertex 0.0792624 -0.00301576 0
   vertex 0.0779817 -0.0014451 0
  endloop
 endfacet
 facet normal 0.742014 0.670384 0
  outer loop
   vertex 0.0766231 5.86768e-05 0.22
   vertex 0.0779817 -0.0014451 0.22
   vertex 0.0779817 -0.0014451 0
  endloop
 endfacet
 facet normal 0.908673 -0.417509 0
  outer loop
   vertex 0.0843897 -0.0432742 0.22
   vertex 0.0835436 -0.0451158 0
   vertex 0.0843897 -0.0432742 0
  endloop
 endfacet
 facet normal 0.928653 -0.370949 0
  outer loop
   vertex 0.0851415 -0.0413922 0.22
   vertex 0.0843897 -0.0432742 0.22
   vertex 0.0843897 -0.0432742 0
  endloop
 endfacet
 facet normal 0.742014 0.670384 0
  outer loop
   vertex 0.0766231 5.86768e-05 0.22
   vertex 0.0779817 -0.0014451 0
   vertex 0.0766231 5.86768e-05 0
  endloop
 endfacet
 facet normal 0.928653 -0.370949 0
  outer loop
   vertex 0.0851415 -0.0413922 0.22
   vertex 0.0843897 -0.0432742 0
   vertex 0.0851415 -0.0413922 0
  endloop
 endfacet
 facet normal 0.946249 -0.323439 0
  outer loop
   vertex 0.085797 -0.0394745 0.22
   vertex 0.0851415 -0.0413922 0.22
   vertex 0.0851415 -0.0413922 0
  endloop
 endfacet
 facet normal 0.707106 0.707107 0
  outer loop
   vertex 0.0766231 5.86768e-05 0.22
   vertex 0.0766231 5.86768e-05 0
   vertex 0.0751901 0.00149171 0
  endloop
 endfacet
 facet normal 0.707106 0.707107 0
  outer loop
   vertex 0.0751901 0.00149171 0.22
   vertex 0.0766231 5.86768e-05 0.22
   vertex 0.0751901 0.00149171 0
  endloop
 endfacet
 facet normal 0.946249 -0.323439 0
  outer loop
   vertex 0.085797 -0.0394745 0.22
   vertex 0.0851415 -0.0413922 0
   vertex 0.085797 -0.0394745 0
  endloop
 endfacet
 facet normal 0.961416 -0.275097 0
  outer loop
   vertex 0.0863545 -0.0375261 0.22
   vertex 0.085797 -0.0394745 0.22
   vertex 0.085797 -0.0394745 0
  endloop
 endfacet
 facet normal 0.961416 -0.275097 0
  outer loop
   vertex 0.0863545 -0.0375261 0.22
   vertex 0.085797 -0.0394745 0
   vertex 0.0863545 -0.0375261 0
  endloop
 endfacet
 facet normal 0.670385 0.742013 0
  outer loop
   vertex 0.0751901 0.00149171 0.22
   vertex 0.0751901 0.00149171 0
   vertex 0.0736863 0.00285032 0
  endloop
 endfacet
 facet normal 0.670385 0.742013 0
  outer loop
   vertex 0.0736863 0.00285032 0.22
   vertex 0.0751901 0.00149171 0.22
   vertex 0.0736863 0.00285032 0
  endloop
 endfacet
 facet normal 0.974117 -0.226045 0
  outer loop
   vertex 0.0868126 -0.0355519 0.22
   vertex 0.0863545 -0.0375261 0.22
   vertex 0.0863545 -0.0375261 0
  endloop
 endfacet
 facet normal 0.631943 0.775015 0
  outer loop
   vertex 0.0721156 0.00413103 0.22
   vertex 0.0736863 0.00285032 0.22
   vertex 0.0736863 0.00285032 0
  endloop
 endfacet
 facet normal 0.974117 -0.226045 0
  outer loop
   vertex 0.0868126 -0.0355519 0.22
   vertex 0.0863545 -0.0375261 0
   vertex 0.0868126 -0.0355519 0
  endloop
 endfacet
 facet normal 0.984315 -0.17642 0
  outer loop
   vertex 0.0871701 -0.0335571 0.22
   vertex 0.0868126 -0.0355519 0.22
   vertex 0.0868126 -0.0355519 0
  endloop
 endfacet
 facet normal 0.631943 0.775015 0
  outer loop
   vertex 0.0721156 0.00413103 0.22
   vertex 0.0736863 0.00285032 0
   vertex 0.0721156 0.00413103 0
  endloop
 endfacet
 facet normal 0.591876 0.806029 0
  outer loop
   vertex 0.0704821 0.00533054 0.22
   vertex 0.0721156 0.00413103 0.22
   vertex 0.0721156 0.00413103 0
  endloop
 endfacet
 facet normal 0.984315 -0.17642 0
  outer loop
   vertex 0.0871701 -0.0335571 0.22
   vertex 0.0868126 -0.0355519 0
   vertex 0.0871701 -0.0335571 0
  endloop
 endfacet
 facet normal 0.991987 -0.12634 0
  outer loop
   vertex 0.0874262 -0.0315467 0.22
   vertex 0.0871701 -0.0335571 0.22
   vertex 0.0871701 -0.0335571 0
  endloop
 endfacet
 facet normal 0.591876 0.806029 0
  outer loop
   vertex 0.0704821 0.00533054 0.22
   vertex 0.0721156 0.00413103 0
   vertex 0.0704821 0.00533054 0
  endloop
 endfacet
 facet normal 0.991987 -0.12634 0
  outer loop
   vertex 0.0874262 -0.0315467 0.22
   vertex 0.0871701 -0.0335571 0
   vertex 0.0874262 -0.0315467 0
  endloop
 endfacet
 facet normal 0.550292 0.834972 0
  outer loop
   vertex 0.0704821 0.00533054 0.22
   vertex 0.0704821 0.00533054 0
   vertex 0.06879 0.00644577 0
  endloop
 endfacet
 facet normal 0.550292 0.834972 0
  outer loop
   vertex 0.06879 0.00644577 0.22
   vertex 0.0704821 0.00533054 0.22
   vertex 0.06879 0.00644577 0
  endloop
 endfacet
 facet normal 0.507296 0.861772 0
  outer loop
   vertex 0.0670435 0.00747386 0.22
   vertex 0.06879 0.00644577 0.22
   vertex 0.06879 0.00644577 0
  endloop
 endfacet
 facet normal 0.997113 -0.0759319 0
  outer loop
   vertex 0.0874262 -0.0315467 0.22
   vertex 0.0874262 -0.0315467 0
   vertex 0.0875801 -0.029526 0
  endloop
 endfacet
 facet normal 0.997113 -0.0759319 0
  outer loop
   vertex 0.0875801 -0.029526 0.22
   vertex 0.0874262 -0.0315467 0.22
   vertex 0.0875801 -0.029526 0
  endloop
 endfacet
 facet normal 0.999679 -0.025332 0
  outer loop
   vertex 0.0875801 -0.029526 0.22
   vertex 0.0875801 -0.029526 0
   vertex 0.0876314 -0.0275 0
  endloop
 endfacet
 facet normal 0.999679 -0.025332 0
  outer loop
   vertex 0.0876314 -0.0275 0.22
   vertex 0.0875801 -0.029526 0.22
   vertex 0.0876314 -0.0275 0
  endloop
 endfacet
 facet normal 0.507296 0.861772 0
  outer loop
   vertex 0.0670435 0.00747386 0.22
   vertex 0.06879 0.00644577 0
   vertex 0.0670435 0.00747386 0
  endloop
 endfacet
 facet normal 0.462997 0.88636 0
  outer loop
   vertex 0.0670435 0.00747386 0.22
   vertex 0.0670435 0.00747386 0
   vertex 0.0652472 0.00841218 0
  endloop
 endfacet
 facet normal 0.462997 0.88636 0
  outer loop
   vertex 0.0652472 0.00841218 0.22
   vertex 0.0670435 0.00747386 0.22
   vertex 0.0652472 0.00841218 0
  endloop
 endfacet
 facet normal 0.417509 0.908673 0
  outer loop
   vertex 0.0652472 0.00841218 0.22
   vertex 0.0652472 0.00841218 0
   vertex 0.0634056 0.00925831 0
  endloop
 endfacet
 facet normal 0.417509 0.908673 0
  outer loop
   vertex 0.0634056 0.00925831 0.22
   vertex 0.0652472 0.00841218 0.22
   vertex 0.0634056 0.00925831 0
  endloop
 endfacet
 facet normal 0.37095 0.928653 0
  outer loop
   vertex 0.0615236 0.0100101 0.22
   vertex 0.0634056 0.00925831 0.22
   vertex 0.0615236 0.0100101 0
  endloop
 endfacet
 facet normal 0.37095 0.928653 0
  outer loop
   vertex 0.0634056 0.00925831 0.22
   vertex 0.0634056 0.00925831 0
   vertex 0.0615236 0.0100101 0
  endloop
 endfacet
 facet normal 0.323438 0.946249 0
  outer loop
   vertex 0.0596059 0.0106656 0.22
   vertex 0.0615236 0.0100101 0.22
   vertex 0.0615236 0.0100101 0
  endloop
 endfacet
 facet normal 0.323438 0.946249 0
  outer loop
   vertex 0.0596059 0.0106656 0.22
   vertex 0.0615236 0.0100101 0
   vertex 0.0596059 0.0106656 0
  endloop
 endfacet
 facet normal 0.275096 0.961417 0
  outer loop
   vertex 0.0576575 0.0112231 0.22
   vertex 0.0596059 0.0106656 0.22
   vertex 0.0576575 0.0112231 0
  endloop
 endfacet
 facet normal 0.226049 0.974116 0
  outer loop
   vertex 0.0556833 0.0116812 0.22
   vertex 0.0576575 0.0112231 0.22
   vertex 0.0576575 0.0112231 0
  endloop
 endfacet
 facet normal 0.275096 0.961417 0
  outer loop
   vertex 0.0596059 0.0106656 0.22
   vertex 0.0596059 0.0106656 0
   vertex 0.0576575 0.0112231 0
  endloop
 endfacet
 facet normal 0.176419 0.984315 0
  outer loop
   vertex 0.0536885 0.0120387 0.22
   vertex 0.0556833 0.0116812 0.22
   vertex 0.0556833 0.0116812 0
  endloop
 endfacet
 facet normal 0.226049 0.974116 0
  outer loop
   vertex 0.0556833 0.0116812 0.22
   vertex 0.0576575 0.0112231 0
   vertex 0.0556833 0.0116812 0
  endloop
 endfacet
 facet normal 0.176419 0.984315 0
  outer loop
   vertex 0.0536885 0.0120387 0.22
   vertex 0.0556833 0.0116812 0
   vertex 0.0536885 0.0120387 0
  endloop
 endfacet
 facet normal 0.126339 0.991987 0
  outer loop
   vertex 0.0516781 0.0122948 0.22
   vertex 0.0536885 0.0120387 0.22
   vertex 0.0516781 0.0122948 0
  endloop
 endfacet
 facet normal 0.0759328 0.997113 0
  outer loop
   vertex 0.0496574 0.0124487 0.22
   vertex 0.0516781 0.0122948 0.22
   vertex 0.0516781 0.0122948 0
  endloop
 endfacet
 facet normal 0.126339 0.991987 0
  outer loop
   vertex 0.0536885 0.0120387 0.22
   vertex 0.0536885 0.0120387 0
   vertex 0.0516781 0.0122948 0
  endloop
 endfacet
 facet normal 0.0253329 0.999679 0
  outer loop
   vertex 0.0476314 0.0125 0.22
   vertex 0.0496574 0.0124487 0.22
   vertex 0.0496574 0.0124487 0
  endloop
 endfacet
 facet normal 0.0759328 0.997113 0
  outer loop
   vertex 0.0496574 0.0124487 0.22
   vertex 0.0516781 0.0122948 0
   vertex 0.0496574 0.0124487 0
  endloop
 endfacet
 facet normal 0.0253329 0.999679 0
  outer loop
   vertex 0.0476314 0.0125 0.22
   vertex 0.0496574 0.0124487 0
   vertex 0.0476314 0.0125 0
  endloop
 endfacet
 facet normal -0.0253329 0.999679 0
  outer loop
   vertex 0.0456054 0.0124487 0.22
   vertex 0.0476314 0.0125 0.22
   vertex 0.0456054 0.0124487 0
  endloop
 endfacet
 facet normal -0.0759328 0.997113 0
  outer loop
   vertex 0.0435847 0.0122948 0.22
   vertex 0.0456054 0.0124487 0.22
   vertex 0.0456054 0.0124487 0
  endloop
 endfacet
 facet normal -0.0253329 0.999679 0
  outer loop
   vertex 0.0476314 0.0125 0.22
   vertex 0.0476314 0.0125 0
   vertex 0.0456054 0.0124487 0
  endloop
 endfacet
 facet normal -0.126339 0.991987 0
  outer loop
   vertex 0.0415743 0.0120387 0.22
   vertex 0.0435847 0.0122948 0.22
   vertex 0.0435847 0.0122948 0
  endloop
 endfacet
 facet normal -0.0759328 0.997113 0
  outer loop
   vertex 0.0435847 0.0122948 0.22
   vertex 0.0456054 0.0124487 0
   vertex 0.0435847 0.0122948 0
  endloop
 endfacet
 facet normal -0.126339 0.991987 0
  outer loop
   vertex 0.0415743 0.0120387 0.22
   vertex 0.0435847 0.0122948 0
   vertex 0.0415743 0.0120387 0
  endloop
 endfacet
 facet normal -0.176419 0.984315 0
  outer loop
   vertex 0.0395795 0.0116812 0.22
   vertex 0.0415743 0.0120387 0.22
   vertex 0.0395795 0.0116812 0
  endloop
 endfacet
 facet normal -0.226049 0.974116 0
  outer loop
   vertex 0.0376053 0.0112231 0.22
   vertex 0.0395795 0.0116812 0.22
   vertex 0.0395795 0.0116812 0
  endloop
 endfacet
 facet normal -0.176419 0.984315 0
  outer loop
   vertex 0.0415743 0.0120387 0.22
   vertex 0.0415743 0.0120387 0
   vertex 0.0395795 0.0116812 0
  endloop
 endfacet
 facet normal -0.275096 0.961417 0
  outer loop
   vertex 0.0356569 0.0106656 0.22
   vertex 0.0376053 0.0112231 0.22
   vertex 0.0376053 0.0112231 0
  endloop
 endfacet
 facet normal -0.226049 0.974116 0
  outer loop
   vertex 0.0376053 0.0112231 0.22
   vertex 0.0395795 0.0116812 0
   vertex 0.0376053 0.0112231 0
  endloop
 endfacet
 facet normal -0.275096 0.961417 0
  outer loop
   vertex 0.0356569 0.0106656 0.22
   vertex 0.0376053 0.0112231 0
   vertex 0.0356569 0.0106656 0
  endloop
 endfacet
 facet normal -0.323438 0.946249 0
  outer loop
   vertex 0.0356569 0.0106656 0.22
   vertex 0.0356569 0.0106656 0
   vertex 0.0337392 0.0100101 0
  endloop
 endfacet
 facet normal -0.323438 0.946249 0
  outer loop
   vertex 0.0337392 0.0100101 0.22
   vertex 0.0356569 0.0106656 0.22
   vertex 0.0337392 0.0100101 0
  endloop
 endfacet
 facet normal -0.37095 0.928653 0
  outer loop
   vertex 0.0318572 0.00925831 0.22
   vertex 0.0337392 0.0100101 0.22
   vertex 0.0337392 0.0100101 0
  endloop
 endfacet
 facet normal -0.37095 0.928653 0
  outer loop
   vertex 0.0318572 0.00925831 0.22
   vertex 0.0337392 0.0100101 0
   vertex 0.0318572 0.00925831 0
  endloop
 endfacet
 facet normal -0.417509 0.908673 0
  outer loop
   vertex 0.0300156 0.00841218 0.22
   vertex 0.0318572 0.00925831 0.22
   vertex 0.0318572 0.00925831 0
  endloop
 endfacet
 facet normal -0.417509 0.908673 0
  outer loop
   vertex 0.0300156 0.00841218 0.22
   vertex 0.0318572 0.00925831 0
   vertex 0.0300156 0.00841218 0
  endloop
 endfacet
 facet normal -0.462997 0.88636 0
  outer loop
   vertex 0.0282193 0.00747386 0.22
   vertex 0.0300156 0.00841218 0.22
   vertex 0.0300156 0.00841218 0
  endloop
 endfacet
 facet normal -0.462997 0.88636 0
  outer loop
   vertex 0.0282193 0.00747386 0.22
   vertex 0.0300156 0.00841218 0
   vertex 0.0282193 0.00747386 0
  endloop
 endfacet
 facet normal -0.507296 0.861772 0
  outer loop
   vertex 0.0264728 0.00644577 0.22
   vertex 0.0282193 0.00747386 0.22
   vertex 0.0282193 0.00747386 0
  endloop
 endfacet
 facet normal -0.507296 0.861772 0
  outer loop
   vertex 0.0264728 0.00644577 0.22
   vertex 0.0282193 0.00747386 0
   vertex 0.0264728 0.00644577 0
  endloop
 endfacet
 facet normal -0.550292 0.834972 0
  outer loop
   vertex 0.0247807 0.00533054 0.22
   vertex 0.0264728 0.00644577 0.22
   vertex 0.0264728 0.00644577 0
  endloop
 endfacet
 facet normal -0.550292 0.834972 0
  outer loop
   vertex 0.0247807 0.00533054 0.22
   vertex 0.0264728 0.00644577 0
   vertex 0.0247807 0.00533054 0
  endloop
 endfacet
 facet normal -0.591877 0.806028 0
  outer loop
   vertex 0.0231472 0.00413103 0.22
   vertex 0.0247807 0.00533054 0.22
   vertex 0.0247807 0.00533054 0
  endloop
 endfacet
 facet normal -0.591877 0.806028 0
  outer loop
   vertex 0.0231472 0.00413103 0.22
   vertex 0.0247807 0.00533054 0
   vertex 0.0231472 0.00413103 0
  endloop
 endfacet
 facet normal -0.631942 0.775016 0
  outer loop
   vertex 0.0215765 0.00285032 0.22
   vertex 0.0231472 0.00413103 0.22
   vertex 0.0231472 0.00413103 0
  endloop
 endfacet
 facet normal -0.631942 0.775016 0
  outer loop
   vertex 0.0215765 0.00285032 0.22
   vertex 0.0231472 0.00413103 0
   vertex 0.0215765 0.00285032 0
  endloop
 endfacet
 facet normal -0.670385 0.742014 0
  outer loop
   vertex 0.0200727 0.00149171 0.22
   vertex 0.0215765 0.00285032 0.22
   vertex 0.0215765 0.00285032 0
  endloop
 endfacet
 facet normal -0.670385 0.742014 0
  outer loop
   vertex 0.0200727 0.00149171 0.22
   vertex 0.0215765 0.00285032 0
   vertex 0.0200727 0.00149171 0
  endloop
 endfacet
 facet normal -0.707107 0.707106 0
  outer loop
   vertex 0.0186397 5.86768e-05 0.22
   vertex 0.0200727 0.00149171 0.22
   vertex 0.0200727 0.00149171 0
  endloop
 endfacet
 facet normal -0.707107 0.707106 0
  outer loop
   vertex 0.0186397 5.86768e-05 0.22
   vertex 0.0200727 0.00149171 0
   vertex 0.0186397 5.86768e-05 0
  endloop
 endfacet
 facet normal -0.742013 0.670385 0
  outer loop
   vertex 0.0172811 -0.0014451 0.22
   vertex 0.0186397 5.86768e-05 0.22
   vertex 0.0186397 5.86768e-05 0
  endloop
 endfacet
 facet normal -0.742013 0.670385 0
  outer loop
   vertex 0.0172811 -0.0014451 0.22
   vertex 0.0186397 5.86768e-05 0
   vertex 0.0172811 -0.0014451 0
  endloop
 endfacet
 facet normal -0.775016 0.631942 0
  outer loop
   vertex 0.0172811 -0.0014451 0.22
   vertex 0.0172811 -0.0014451 0
   vertex 0.0160004 -0.00301576 0
  endloop
 endfacet
 facet normal -0.775016 0.631942 0
  outer loop
   vertex 0.0160004 -0.00301576 0.22
   vertex 0.0172811 -0.0014451 0.22
   vertex 0.0160004 -0.00301576 0
  endloop
 endfacet
 facet normal -0.806028 0.591877 0
  outer loop
   vertex 0.0148009 -0.00464927 0.22
   vertex 0.0160004 -0.00301576 0.22
   vertex 0.0160004 -0.00301576 0
  endloop
 endfacet
 facet normal -0.806028 0.591877 0
  outer loop
   vertex 0.0148009 -0.00464927 0.22
   vertex 0.0160004 -0.00301576 0
   vertex 0.0148009 -0.00464927 0
  endloop
 endfacet
 facet normal -0.834972 0.550293 0
  outer loop
   vertex 0.0136856 -0.00634144 0.22
   vertex 0.0148009 -0.00464927 0.22
   vertex 0.0148009 -0.00464927 0
  endloop
 endfacet
 facet normal -0.834972 0.550293 0
  outer loop
   vertex 0.0136856 -0.00634144 0.22
   vertex 0.0148009 -0.00464927 0
   vertex 0.0136856 -0.00634144 0
  endloop
 endfacet
 facet normal -0.861772 0.507296 0
  outer loop
   vertex 0.0126575 -0.00808792 0.22
   vertex 0.0136856 -0.00634144 0.22
   vertex 0.0136856 -0.00634144 0
  endloop
 endfacet
 facet normal -0.861772 0.507296 0
  outer loop
   vertex 0.0126575 -0.00808792 0.22
   vertex 0.0136856 -0.00634144 0
   vertex 0.0126575 -0.00808792 0
  endloop
 endfacet
 facet normal -0.88636 0.462997 0
  outer loop
   vertex 0.0126575 -0.00808792 0.22
   vertex 0.0126575 -0.00808792 0
   vertex 0.0117192 -0.00988423 0
  endloop
 endfacet
 facet normal -0.88636 0.462997 0
  outer loop
   vertex 0.0117192 -0.00988423 0.22
   vertex 0.0126575 -0.00808792 0.22
   vertex 0.0117192 -0.00988423 0
  endloop
 endfacet
 facet normal -0.908673 0.417509 0
  outer loop
   vertex 0.0108731 -0.0117258 0.22
   vertex 0.0117192 -0.00988423 0.22
   vertex 0.0117192 -0.00988423 0
  endloop
 endfacet
 facet normal -0.908673 0.417509 0
  outer loop
   vertex 0.0108731 -0.0117258 0.22
   vertex 0.0117192 -0.00988423 0
   vertex 0.0108731 -0.0117258 0
  endloop
 endfacet
 facet normal -0.928653 0.37095 0
  outer loop
   vertex 0.0101213 -0.0136078 0.22
   vertex 0.0108731 -0.0117258 0.22
   vertex 0.0108731 -0.0117258 0
  endloop
 endfacet
 facet normal -0.928653 0.37095 0
  outer loop
   vertex 0.0101213 -0.0136078 0.22
   vertex 0.0108731 -0.0117258 0
   vertex 0.0101213 -0.0136078 0
  endloop
 endfacet
 facet normal -0.946249 0.323438 0
  outer loop
   vertex 0.00946583 -0.0155255 0.22
   vertex 0.0101213 -0.0136078 0.22
   vertex 0.0101213 -0.0136078 0
  endloop
 endfacet
 facet normal -0.946249 0.323438 0
  outer loop
   vertex 0.00946583 -0.0155255 0.22
   vertex 0.0101213 -0.0136078 0
   vertex 0.00946583 -0.0155255 0
  endloop
 endfacet
 facet normal -0.961417 0.275096 0
  outer loop
   vertex 0.00890831 -0.0174739 0.22
   vertex 0.00946583 -0.0155255 0.22
   vertex 0.00946583 -0.0155255 0
  endloop
 endfacet
 facet normal -0.961417 0.275096 0
  outer loop
   vertex 0.00890831 -0.0174739 0.22
   vertex 0.00946583 -0.0155255 0
   vertex 0.00890831 -0.0174739 0
  endloop
 endfacet
 facet normal -0.974116 0.226048 0
  outer loop
   vertex 0.0084502 -0.0194481 0.22
   vertex 0.00890831 -0.0174739 0.22
   vertex 0.00890831 -0.0174739 0
  endloop
 endfacet
 facet normal -0.984315 0.17642 0
  outer loop
   vertex 0.00809266 -0.0214429 0.22
   vertex 0.0084502 -0.0194481 0.22
   vertex 0.0084502 -0.0194481 0
  endloop
 endfacet
 facet normal -0.974116 0.226048 0
  outer loop
   vertex 0.0084502 -0.0194481 0.22
   vertex 0.00890831 -0.0174739 0
   vertex 0.0084502 -0.0194481 0
  endloop
 endfacet
 facet normal -0.984315 0.17642 0
  outer loop
   vertex 0.00809266 -0.0214429 0.22
   vertex 0.0084502 -0.0194481 0
   vertex 0.00809266 -0.0214429 0
  endloop
 endfacet
 facet normal -0.991987 0.126338 0
  outer loop
   vertex 0.00783662 -0.0234533 0.22
   vertex 0.00809266 -0.0214429 0.22
   vertex 0.00783662 -0.0234533 0
  endloop
 endfacet
 facet normal -0.997113 0.0759331 0
  outer loop
   vertex 0.00768274 -0.025474 0.22
   vertex 0.00783662 -0.0234533 0.22
   vertex 0.00783662 -0.0234533 0
  endloop
 endfacet
 facet normal -0.991987 0.126338 0
  outer loop
   vertex 0.00809266 -0.0214429 0.22
   vertex 0.00809266 -0.0214429 0
   vertex 0.00783662 -0.0234533 0
  endloop
 endfacet
 facet normal -0.999679 0.0253327 0
  outer loop
   vertex 0.0076314 -0.0275 0.22
   vertex 0.00768274 -0.025474 0.22
   vertex 0.00768274 -0.025474 0
  endloop
 endfacet
 facet normal -0.997113 0.0759331 0
  outer loop
   vertex 0.00768274 -0.025474 0.22
   vertex 0.00783662 -0.0234533 0
   vertex 0.00768274 -0.025474 0
  endloop
 endfacet
 facet normal -0.999679 -0.0253327 0
  outer loop
   vertex 0.00768274 -0.029526 0.22
   vertex 0.0076314 -0.0275 0.22
   vertex 0.0076314 -0.0275 0
  endloop
 endfacet
 facet normal -0.999679 0.0253327 0
  outer loop
   vertex 0.0076314 -0.0275 0.22
   vertex 0.00768274 -0.025474 0
   vertex 0.0076314 -0.0275 0
  endloop
 endfacet
 facet normal -0.999679 -0.0253327 -0
  outer loop
   vertex 0.00768274 -0.029526 0.22
   vertex 0.0076314 -0.0275 0
   vertex 0.00768274 -0.029526 0
  endloop
 endfacet
 facet normal -0.997113 -0.0759331 0
  outer loop
   vertex 0.00783662 -0.0315467 0.22
   vertex 0.00768274 -0.029526 0.22
   vertex 0.00768274 -0.029526 0
  endloop
 endfacet
 facet normal -0.997113 -0.0759331 -0
  outer loop
   vertex 0.00783662 -0.0315467 0.22
   vertex 0.00768274 -0.029526 0
   vertex 0.00783662 -0.0315467 0
  endloop
 endfacet
 facet normal -0.991987 -0.126338 -0
  outer loop
   vertex 0.00783662 -0.0315467 0.22
   vertex 0.00783662 -0.0315467 0
   vertex 0.00809266 -0.0335571 0
  endloop
 endfacet
 facet normal -0.991987 -0.126338 -0
  outer loop
   vertex 0.00809266 -0.0335571 0.22
   vertex 0.00783662 -0.0315467 0.22
   vertex 0.00809266 -0.0335571 0
  endloop
 endfacet
 facet normal -0.984315 -0.17642 0
  outer loop
   vertex 0.0084502 -0.0355519 0.22
   vertex 0.00809266 -0.0335571 0.22
   vertex 0.00809266 -0.0335571 0
  endloop
 endfacet
 facet normal -0.984315 -0.17642 -0
  outer loop
   vertex 0.0084502 -0.0355519 0.22
   vertex 0.00809266 -0.0335571 0
   vertex 0.0084502 -0.0355519 0
  endloop
 endfacet
 facet normal -0.974116 -0.226049 0
  outer loop
   vertex 0.00890831 -0.0375261 0.22
   vertex 0.0084502 -0.0355519 0.22
   vertex 0.0084502 -0.0355519 0
  endloop
 endfacet
 facet normal -0.974116 -0.226049 -0
  outer loop
   vertex 0.00890831 -0.0375261 0.22
   vertex 0.0084502 -0.0355519 0
   vertex 0.00890831 -0.0375261 0
  endloop
 endfacet
 facet normal -0.961417 -0.275096 0
  outer loop
   vertex 0.00946583 -0.0394745 0.22
   vertex 0.00890831 -0.0375261 0.22
   vertex 0.00890831 -0.0375261 0
  endloop
 endfacet
 facet normal -0.961417 -0.275096 -0
  outer loop
   vertex 0.00946583 -0.0394745 0.22
   vertex 0.00890831 -0.0375261 0
   vertex 0.00946583 -0.0394745 0
  endloop
 endfacet
 facet normal -0.946249 -0.323438 0
  outer loop
   vertex 0.0101213 -0.0413922 0.22
   vertex 0.00946583 -0.0394745 0.22
   vertex 0.00946583 -0.0394745 0
  endloop
 endfacet
 facet normal -0.946249 -0.323438 -0
  outer loop
   vertex 0.0101213 -0.0413922 0.22
   vertex 0.00946583 -0.0394745 0
   vertex 0.0101213 -0.0413922 0
  endloop
 endfacet
 facet normal -0.928653 -0.37095 0
  outer loop
   vertex 0.0108731 -0.0432742 0.22
   vertex 0.0101213 -0.0413922 0.22
   vertex 0.0101213 -0.0413922 0
  endloop
 endfacet
 facet normal -0.928653 -0.37095 -0
  outer loop
   vertex 0.0108731 -0.0432742 0.22
   vertex 0.0101213 -0.0413922 0
   vertex 0.0108731 -0.0432742 0
  endloop
 endfacet
 facet normal -0.908673 -0.417509 0
  outer loop
   vertex 0.0117192 -0.0451158 0.22
   vertex 0.0108731 -0.0432742 0.22
   vertex 0.0108731 -0.0432742 0
  endloop
 endfacet
 facet normal -0.908673 -0.417509 -0
  outer loop
   vertex 0.0117192 -0.0451158 0.22
   vertex 0.0108731 -0.0432742 0
   vertex 0.0117192 -0.0451158 0
  endloop
 endfacet
 facet normal -0.88636 -0.462996 -0
  outer loop
   vertex 0.0117192 -0.0451158 0.22
   vertex 0.0117192 -0.0451158 0
   vertex 0.0126575 -0.0469121 0
  endloop
 endfacet
 facet normal -0.88636 -0.462996 -0
  outer loop
   vertex 0.0126575 -0.0469121 0.22
   vertex 0.0117192 -0.0451158 0.22
   vertex 0.0126575 -0.0469121 0
  endloop
 endfacet
 facet normal -0.861772 -0.507296 0
  outer loop
   vertex 0.0136856 -0.0486586 0.22
   vertex 0.0126575 -0.0469121 0.22
   vertex 0.0126575 -0.0469121 0
  endloop
 endfacet
 facet normal -0.861772 -0.507296 -0
  outer loop
   vertex 0.0136856 -0.0486586 0.22
   vertex 0.0126575 -0.0469121 0
   vertex 0.0136856 -0.0486586 0
  endloop
 endfacet
 facet normal -0.834971 -0.550293 0
  outer loop
   vertex 0.0148009 -0.0503507 0.22
   vertex 0.0136856 -0.0486586 0.22
   vertex 0.0136856 -0.0486586 0
  endloop
 endfacet
 facet normal -0.834971 -0.550293 -0
  outer loop
   vertex 0.0148009 -0.0503507 0.22
   vertex 0.0136856 -0.0486586 0
   vertex 0.0148009 -0.0503507 0
  endloop
 endfacet
 facet normal -0.806028 -0.591877 0
  outer loop
   vertex 0.0160004 -0.0519842 0.22
   vertex 0.0148009 -0.0503507 0.22
   vertex 0.0148009 -0.0503507 0
  endloop
 endfacet
 facet normal -0.775016 -0.631941 0
  outer loop
   vertex 0.0172811 -0.0535549 0.22
   vertex 0.0160004 -0.0519842 0.22
   vertex 0.0160004 -0.0519842 0
  endloop
 endfacet
 facet normal -0.806028 -0.591877 -0
  outer loop
   vertex 0.0160004 -0.0519842 0.22
   vertex 0.0148009 -0.0503507 0
   vertex 0.0160004 -0.0519842 0
  endloop
 endfacet
 facet normal -0.775016 -0.631941 -0
  outer loop
   vertex 0.0172811 -0.0535549 0.22
   vertex 0.0160004 -0.0519842 0
   vertex 0.0172811 -0.0535549 0
  endloop
 endfacet
 facet normal -0.742013 -0.670385 -0
  outer loop
   vertex 0.0186397 -0.0550587 0.22
   vertex 0.0172811 -0.0535549 0.22
   vertex 0.0186397 -0.0550587 0
  endloop
 endfacet
 facet normal -0.707107 -0.707107 0
  outer loop
   vertex 0.0200727 -0.0564917 0.22
   vertex 0.0186397 -0.0550587 0.22
   vertex 0.0186397 -0.0550587 0
  endloop
 endfacet
 facet normal -0.742013 -0.670385 -0
  outer loop
   vertex 0.0172811 -0.0535549 0.22
   vertex 0.0172811 -0.0535549 0
   vertex 0.0186397 -0.0550587 0
  endloop
 endfacet
 facet normal -0.670385 -0.742013 0
  outer loop
   vertex 0.0215765 -0.0578503 0.22
   vertex 0.0200727 -0.0564917 0.22
   vertex 0.0200727 -0.0564917 0
  endloop
 endfacet
 facet normal -0.707107 -0.707107 -0
  outer loop
   vertex 0.0200727 -0.0564917 0.22
   vertex 0.0186397 -0.0550587 0
   vertex 0.0200727 -0.0564917 0
  endloop
 endfacet
 facet normal -0.631942 -0.775016 0
  outer loop
   vertex 0.0231472 -0.059131 0.22
   vertex 0.0215765 -0.0578503 0.22
   vertex 0.0215765 -0.0578503 0
  endloop
 endfacet
 facet normal -0.670385 -0.742013 -0
  outer loop
   vertex 0.0215765 -0.0578503 0.22
   vertex 0.0200727 -0.0564917 0
   vertex 0.0215765 -0.0578503 0
  endloop
 endfacet
 facet normal -0.591876 -0.806029 0
  outer loop
   vertex 0.0247807 -0.0603305 0.22
   vertex 0.0231472 -0.059131 0.22
   vertex 0.0231472 -0.059131 0
  endloop
 endfacet
 facet normal -0.631942 -0.775016 -0
  outer loop
   vertex 0.0231472 -0.059131 0.22
   vertex 0.0215765 -0.0578503 0
   vertex 0.0231472 -0.059131 0
  endloop
 endfacet
 facet normal -0.550293 -0.834972 0
  outer loop
   vertex 0.0264728 -0.0614458 0.22
   vertex 0.0247807 -0.0603305 0.22
   vertex 0.0247807 -0.0603305 0
  endloop
 endfacet
 facet normal -0.591876 -0.806029 -0
  outer loop
   vertex 0.0247807 -0.0603305 0.22
   vertex 0.0231472 -0.059131 0
   vertex 0.0247807 -0.0603305 0
  endloop
 endfacet
 facet normal -0.507296 -0.861772 0
  outer loop
   vertex 0.0282193 -0.0624739 0.22
   vertex 0.0264728 -0.0614458 0.22
   vertex 0.0264728 -0.0614458 0
  endloop
 endfacet
 facet normal -0.550293 -0.834972 -0
  outer loop
   vertex 0.0264728 -0.0614458 0.22
   vertex 0.0247807 -0.0603305 0
   vertex 0.0264728 -0.0614458 0
  endloop
 endfacet
 facet normal -0.462996 -0.88636 0
  outer loop
   vertex 0.0300156 -0.0634122 0.22
   vertex 0.0282193 -0.0624739 0.22
   vertex 0.0282193 -0.0624739 0
  endloop
 endfacet
 facet normal -0.507296 -0.861772 -0
  outer loop
   vertex 0.0282193 -0.0624739 0.22
   vertex 0.0264728 -0.0614458 0
   vertex 0.0282193 -0.0624739 0
  endloop
 endfacet
 facet normal -0.41751 -0.908672 0
  outer loop
   vertex 0.0318572 -0.0642583 0.22
   vertex 0.0300156 -0.0634122 0.22
   vertex 0.0300156 -0.0634122 0
  endloop
 endfacet
 facet normal -0.462996 -0.88636 -0
  outer loop
   vertex 0.0300156 -0.0634122 0.22
   vertex 0.0282193 -0.0624739 0
   vertex 0.0300156 -0.0634122 0
  endloop
 endfacet
 facet normal -0.370949 -0.928653 0
  outer loop
   vertex 0.0337392 -0.0650101 0.22
   vertex 0.0318572 -0.0642583 0.22
   vertex 0.0318572 -0.0642583 0
  endloop
 endfacet
 facet normal -0.41751 -0.908672 -0
  outer loop
   vertex 0.0318572 -0.0642583 0.22
   vertex 0.0300156 -0.0634122 0
   vertex 0.0318572 -0.0642583 0
  endloop
 endfacet
 facet normal -0.323439 -0.946249 0
  outer loop
   vertex 0.0356569 -0.0656656 0.22
   vertex 0.0337392 -0.0650101 0.22
   vertex 0.0337392 -0.0650101 0
  endloop
 endfacet
 facet normal -0.370949 -0.928653 -0
  outer loop
   vertex 0.0337392 -0.0650101 0.22
   vertex 0.0318572 -0.0642583 0
   vertex 0.0337392 -0.0650101 0
  endloop
 endfacet
 facet normal -0.275094 -0.961417 0
  outer loop
   vertex 0.0376053 -0.0662231 0.22
   vertex 0.0356569 -0.0656656 0.22
   vertex 0.0356569 -0.0656656 0
  endloop
 endfacet
 facet normal -0.323439 -0.946249 -0
  outer loop
   vertex 0.0356569 -0.0656656 0.22
   vertex 0.0337392 -0.0650101 0
   vertex 0.0356569 -0.0656656 0
  endloop
 endfacet
 facet normal -0.275094 -0.961417 -0
  outer loop
   vertex 0.0376053 -0.0662231 0.22
   vertex 0.0356569 -0.0656656 0
   vertex 0.0376053 -0.0662231 0
  endloop
 endfacet
 facet normal -0.226049 -0.974116 0
  outer loop
   vertex 0.0395795 -0.0666812 0.22
   vertex 0.0376053 -0.0662231 0.22
   vertex 0.0376053 -0.0662231 0
  endloop
 endfacet
 facet normal -0.226049 -0.974116 -0
  outer loop
   vertex 0.0395795 -0.0666812 0.22
   vertex 0.0376053 -0.0662231 0
   vertex 0.0395795 -0.0666812 0
  endloop
 endfacet
 facet normal -0.17642 -0.984315 0
  outer loop
   vertex 0.0415743 -0.0670387 0.22
   vertex 0.0395795 -0.0666812 0.22
   vertex 0.0395795 -0.0666812 0
  endloop
 endfacet
 facet normal -0.17642 -0.984315 -0
  outer loop
   vertex 0.0415743 -0.0670387 0.22
   vertex 0.0395795 -0.0666812 0
   vertex 0.0415743 -0.0670387 0
  endloop
 endfacet
 facet normal -0.126336 -0.991987 0
  outer loop
   vertex 0.0435847 -0.0672948 0.22
   vertex 0.0415743 -0.0670387 0.22
   vertex 0.0415743 -0.0670387 0
  endloop
 endfacet
 facet normal -0.0759356 -0.997113 0
  outer loop
   vertex 0.0456054 -0.0674487 0.22
   vertex 0.0435847 -0.0672948 0.22
   vertex 0.0435847 -0.0672948 0
  endloop
 endfacet
 facet normal -0.126336 -0.991987 -0
  outer loop
   vertex 0.0435847 -0.0672948 0.22
   vertex 0.0415743 -0.0670387 0
   vertex 0.0435847 -0.0672948 0
  endloop
 endfacet
 facet normal -0.0759356 -0.997113 -0
  outer loop
   vertex 0.0456054 -0.0674487 0.22
   vertex 0.0435847 -0.0672948 0
   vertex 0.0456054 -0.0674487 0
  endloop
 endfacet
 facet normal -0.025332 -0.999679 -0
  outer loop
   vertex 0.0476314 -0.0675 0.22
   vertex 0.0456054 -0.0674487 0.22
   vertex 0.0476314 -0.0675 0
  endloop
 endfacet
 facet normal -0.025332 -0.999679 -0
  outer loop
   vertex 0.0456054 -0.0674487 0.22
   vertex 0.0456054 -0.0674487 0
   vertex 0.0476314 -0.0675 0
  endloop
 endfacet
 facet normal 0.025332 -0.999679 0
  outer loop
   vertex 0.0496574 -0.0674487 0.22
   vertex 0.0476314 -0.0675 0.22
   vertex 0.0496574 -0.0674487 0
  endloop
 endfacet
 facet normal 0.0759356 -0.997113 0
  outer loop
   vertex 0.0516781 -0.0672948 0.22
   vertex 0.0496574 -0.0674487 0.22
   vertex 0.0496574 -0.0674487 0
  endloop
 endfacet
 facet normal 0.025332 -0.999679 0
  outer loop
   vertex 0.0476314 -0.0675 0.22
   vertex 0.0476314 -0.0675 0
   vertex 0.0496574 -0.0674487 0
  endloop
 endfacet
 facet normal 0.126336 -0.991987 0
  outer loop
   vertex 0.0536885 -0.0670387 0.22
   vertex 0.0516781 -0.0672948 0.22
   vertex 0.0516781 -0.0672948 0
  endloop
 endfacet
 facet normal 0.0759356 -0.997113 0
  outer loop
   vertex 0.0516781 -0.0672948 0.22
   vertex 0.0496574 -0.0674487 0
   vertex 0.0516781 -0.0672948 0
  endloop
 endfacet
 facet normal 0.126336 -0.991987 0
  outer loop
   vertex 0.0536885 -0.0670387 0.22
   vertex 0.0516781 -0.0672948 0
   vertex 0.0536885 -0.0670387 0
  endloop
 endfacet
 facet normal 0.17642 -0.984315 0
  outer loop
   vertex 0.0556833 -0.0666812 0.22
   vertex 0.0536885 -0.0670387 0.22
   vertex 0.0556833 -0.0666812 0
  endloop
 endfacet
 facet normal 0.17642 -0.984315 0
  outer loop
   vertex 0.0536885 -0.0670387 0.22
   vertex 0.0536885 -0.0670387 0
   vertex 0.0556833 -0.0666812 0
  endloop
 endfacet
endsolid zone0
