<?xml version="1.0" encoding="UTF-8"?>
<!DOCTYPE svg PUBLIC "-//W3C//DTD SVG 1.1//EN" "http://www.w3.org/Graphics/SVG/1.1/DTD/svg11.dtd">
<svg width="152mm" height="102mm" viewBox="0 0 15200 10200" version="1.1" xmlns="http://www.w3.org/2000/svg" stroke-width="28.222" stroke-linejoin="round" xml:space="preserve">
 <path fill="rgb(255,255,255)" stroke="none" d="M 7620,10160 L 0,10160 0,0 15240,0 15240,10160 7620,10160 Z"/>
 <path fill="none" stroke="rgb(179,179,179)" stroke-linejoin="round" d="M 7455,8704 L 1783,8704 1783,1039 13127,1039 13127,8704 7455,8704 Z"/>
 <path fill="none" stroke="rgb(179,179,179)" stroke-linejoin="round" d="M 13127,8703 L 1783,8703"/>
 <path fill="none" stroke="rgb(179,179,179)" stroke-linejoin="round" d="M 13127,7607 L 1783,7607"/>
 <path fill="none" stroke="rgb(179,179,179)" stroke-linejoin="round" d="M 13127,6512 L 1783,6512"/>
 <path fill="none" stroke="rgb(179,179,179)" stroke-linejoin="round" d="M 13127,5417 L 1783,5417"/>
 <path fill="none" stroke="rgb(179,179,179)" stroke-linejoin="round" d="M 13127,4323 L 1783,4323"/>
 <path fill="none" stroke="rgb(179,179,179)" stroke-linejoin="round" d="M 13127,3228 L 1783,3228"/>
 <path fill="none" stroke="rgb(179,179,179)" stroke-linejoin="round" d="M 13127,2133 L 1783,2133"/>
 <path fill="none" stroke="rgb(179,179,179)" stroke-linejoin="round" d="M 13127,1037 L 1783,1037"/>
 <path fill="none" stroke="rgb(179,179,179)" stroke-linejoin="round" d="M 1783,8853 L 1783,8703"/>
 <path fill="none" stroke="rgb(179,179,179)" stroke-linejoin="round" d="M 1783,8853 L 1783,8703"/>
 <path fill="none" stroke="rgb(179,179,179)" stroke-linejoin="round" d="M 3043,8853 L 3043,8703"/>
 <path fill="none" stroke="rgb(179,179,179)" stroke-linejoin="round" d="M 3043,8853 L 3043,8703"/>
 <path fill="none" stroke="rgb(179,179,179)" stroke-linejoin="round" d="M 4304,8853 L 4304,8703"/>
 <path fill="none" stroke="rgb(179,179,179)" stroke-linejoin="round" d="M 4304,8853 L 4304,8703"/>
 <path fill="none" stroke="rgb(179,179,179)" stroke-linejoin="round" d="M 5564,8853 L 5564,8703"/>
 <path fill="none" stroke="rgb(179,179,179)" stroke-linejoin="round" d="M 5564,8853 L 5564,8703"/>
 <path fill="none" stroke="rgb(179,179,179)" stroke-linejoin="round" d="M 6825,8853 L 6825,8703"/>
 <path fill="none" stroke="rgb(179,179,179)" stroke-linejoin="round" d="M 6825,8853 L 6825,8703"/>
 <path fill="none" stroke="rgb(179,179,179)" stroke-linejoin="round" d="M 8084,8853 L 8084,8703"/>
 <path fill="none" stroke="rgb(179,179,179)" stroke-linejoin="round" d="M 8084,8853 L 8084,8703"/>
 <path fill="none" stroke="rgb(179,179,179)" stroke-linejoin="round" d="M 9345,8853 L 9345,8703"/>
 <path fill="none" stroke="rgb(179,179,179)" stroke-linejoin="round" d="M 9345,8853 L 9345,8703"/>
 <path fill="none" stroke="rgb(179,179,179)" stroke-linejoin="round" d="M 10605,8853 L 10605,8703"/>
 <path fill="none" stroke="rgb(179,179,179)" stroke-linejoin="round" d="M 10605,8853 L 10605,8703"/>
 <path fill="none" stroke="rgb(179,179,179)" stroke-linejoin="round" d="M 11866,8853 L 11866,8703"/>
 <path fill="none" stroke="rgb(179,179,179)" stroke-linejoin="round" d="M 11866,8853 L 11866,8703"/>
 <path fill="none" stroke="rgb(179,179,179)" stroke-linejoin="round" d="M 13127,8853 L 13127,8703"/>
 <path fill="none" stroke="rgb(179,179,179)" stroke-linejoin="round" d="M 13127,8853 L 13127,8703"/>
 <path fill="none" stroke="rgb(179,179,179)" stroke-linejoin="round" d="M 1783,8703 L 13127,8703"/>
 <path fill="none" stroke="rgb(179,179,179)" stroke-linejoin="round" d="M 1633,8703 L 1783,8703"/>
 <path fill="none" stroke="rgb(179,179,179)" stroke-linejoin="round" d="M 1633,8703 L 1783,8703"/>
 <path fill="none" stroke="rgb(179,179,179)" stroke-linejoin="round" d="M 1633,7607 L 1783,7607"/>
 <path fill="none" stroke="rgb(179,179,179)" stroke-linejoin="round" d="M 1633,7607 L 1783,7607"/>
 <path fill="none" stroke="rgb(179,179,179)" stroke-linejoin="round" d="M 1633,6512 L 1783,6512"/>
 <path fill="none" stroke="rgb(179,179,179)" stroke-linejoin="round" d="M 1633,6512 L 1783,6512"/>
 <path fill="none" stroke="rgb(179,179,179)" stroke-linejoin="round" d="M 1633,5417 L 1783,5417"/>
 <path fill="none" stroke="rgb(179,179,179)" stroke-linejoin="round" d="M 1633,5417 L 1783,5417"/>
 <path fill="none" stroke="rgb(179,179,179)" stroke-linejoin="round" d="M 1633,4323 L 1783,4323"/>
 <path fill="none" stroke="rgb(179,179,179)" stroke-linejoin="round" d="M 1633,4323 L 1783,4323"/>
 <path fill="none" stroke="rgb(179,179,179)" stroke-linejoin="round" d="M 1633,3228 L 1783,3228"/>
 <path fill="none" stroke="rgb(179,179,179)" stroke-linejoin="round" d="M 1633,3228 L 1783,3228"/>
 <path fill="none" stroke="rgb(179,179,179)" stroke-linejoin="round" d="M 1633,2133 L 1783,2133"/>
 <path fill="none" stroke="rgb(179,179,179)" stroke-linejoin="round" d="M 1633,2133 L 1783,2133"/>
 <path fill="none" stroke="rgb(179,179,179)" stroke-linejoin="round" d="M 1633,1037 L 1783,1037"/>
 <path fill="none" stroke="rgb(179,179,179)" stroke-linejoin="round" d="M 1633,1037 L 1783,1037"/>
 <path fill="none" stroke="rgb(179,179,179)" stroke-linejoin="round" d="M 1783,8703 L 1783,1038"/>
 <path fill="none" stroke="rgb(179,179,179)" stroke-linejoin="round" d="M 13277,8703 L 13127,8703"/>
 <path fill="none" stroke="rgb(179,179,179)" stroke-linejoin="round" d="M 13277,8703 L 13127,8703"/>
 <path fill="none" stroke="rgb(179,179,179)" stroke-linejoin="round" d="M 13277,7607 L 13127,7607"/>
 <path fill="none" stroke="rgb(179,179,179)" stroke-linejoin="round" d="M 13277,7607 L 13127,7607"/>
 <path fill="none" stroke="rgb(179,179,179)" stroke-linejoin="round" d="M 13277,6512 L 13127,6512"/>
 <path fill="none" stroke="rgb(179,179,179)" stroke-linejoin="round" d="M 13277,6512 L 13127,6512"/>
 <path fill="none" stroke="rgb(179,179,179)" stroke-linejoin="round" d="M 13277,5417 L 13127,5417"/>
 <path fill="none" stroke="rgb(179,179,179)" stroke-linejoin="round" d="M 13277,5417 L 13127,5417"/>
 <path fill="none" stroke="rgb(179,179,179)" stroke-linejoin="round" d="M 13277,4323 L 13127,4323"/>
 <path fill="none" stroke="rgb(179,179,179)" stroke-linejoin="round" d="M 13277,4323 L 13127,4323"/>
 <path fill="none" stroke="rgb(179,179,179)" stroke-linejoin="round" d="M 13277,3228 L 13127,3228"/>
 <path fill="none" stroke="rgb(179,179,179)" stroke-linejoin="round" d="M 13277,3228 L 13127,3228"/>
 <path fill="none" stroke="rgb(179,179,179)" stroke-linejoin="round" d="M 13277,2133 L 13127,2133"/>
 <path fill="none" stroke="rgb(179,179,179)" stroke-linejoin="round" d="M 13277,2133 L 13127,2133"/>
 <path fill="none" stroke="rgb(179,179,179)" stroke-linejoin="round" d="M 13277,1038 L 13127,1038"/>
 <path fill="none" stroke="rgb(179,179,179)" stroke-linejoin="round" d="M 13277,1038 L 13127,1038"/>
 <path fill="none" stroke="rgb(179,179,179)" stroke-linejoin="round" d="M 13127,8703 L 13127,1038"/>
 <path fill="none" stroke="rgb(255,66,14)" stroke-width="80" stroke-linejoin="round" d="M 2394,4877 L 3296,3931 4462,4907 5835,5944 9384,7183 11900,8293"/>
 <path fill="rgb(255,66,14)" stroke="none" d="M 2269,4877 L 2394,5002 2519,4877 2394,4752 2269,4877 Z"/>
 <path fill="none" stroke="rgb(255,66,14)" stroke-linejoin="round" d="M 2269,4877 L 2394,5002 2519,4877 2394,4752 2269,4877 Z"/>
 <path fill="rgb(255,66,14)" stroke="none" d="M 3171,3931 L 3296,4056 3421,3931 3296,3806 3171,3931 Z"/>
 <path fill="none" stroke="rgb(255,66,14)" stroke-linejoin="round" d="M 3171,3931 L 3296,4056 3421,3931 3296,3806 3171,3931 Z"/>
 <path fill="rgb(255,66,14)" stroke="none" d="M 4337,4907 L 4462,5032 4587,4907 4462,4782 4337,4907 Z"/>
 <path fill="none" stroke="rgb(255,66,14)" stroke-linejoin="round" d="M 4337,4907 L 4462,5032 4587,4907 4462,4782 4337,4907 Z"/>
 <path fill="rgb(255,66,14)" stroke="none" d="M 5710,5944 L 5835,6069 5960,5944 5835,5819 5710,5944 Z"/>
 <path fill="none" stroke="rgb(255,66,14)" stroke-linejoin="round" d="M 5710,5944 L 5835,6069 5960,5944 5835,5819 5710,5944 Z"/>
 <path fill="rgb(255,66,14)" stroke="none" d="M 9259,7183 L 9384,7308 9509,7183 9384,7058 9259,7183 Z"/>
 <path fill="none" stroke="rgb(255,66,14)" stroke-linejoin="round" d="M 9259,7183 L 9384,7308 9509,7183 9384,7058 9259,7183 Z"/>
 <path fill="rgb(255,66,14)" stroke="none" d="M 11775,8293 L 11900,8418 12025,8293 11900,8168 11775,8293 Z"/>
 <path fill="none" stroke="rgb(255,66,14)" stroke-linejoin="round" d="M 11775,8293 L 11900,8418 12025,8293 11900,8168 11775,8293 Z"/>
 <path fill="none" stroke="rgb(0,69,134)" stroke-width="80" stroke-linejoin="round" d="M 2394,6362 L 3296,3083 4462,3161 5835,2938 9384,2410 11900,1708"/>
 <path fill="rgb(0,69,134)" stroke="none" d="M 2269,6237 L 2269,6487 2519,6487 2519,6237 2269,6237 Z"/>
 <path fill="none" stroke="rgb(0,69,134)" stroke-linejoin="round" d="M 2269,6237 L 2269,6487 2519,6487 2519,6237 2269,6237 Z"/>
 <path fill="rgb(0,69,134)" stroke="none" d="M 3171,2958 L 3171,3208 3421,3208 3421,2958 3171,2958 Z"/>
 <path fill="none" stroke="rgb(0,69,134)" stroke-linejoin="round" d="M 3171,2958 L 3171,3208 3421,3208 3421,2958 3171,2958 Z"/>
 <path fill="rgb(0,69,134)" stroke="none" d="M 4337,3036 L 4337,3286 4587,3286 4587,3036 4337,3036 Z"/>
 <path fill="none" stroke="rgb(0,69,134)" stroke-linejoin="round" d="M 4337,3036 L 4337,3286 4587,3286 4587,3036 4337,3036 Z"/>
 <path fill="rgb(0,69,134)" stroke="none" d="M 5710,2813 L 5710,3063 5960,3063 5960,2813 5710,2813 Z"/>
 <path fill="none" stroke="rgb(0,69,134)" stroke-linejoin="round" d="M 5710,2813 L 5710,3063 5960,3063 5960,2813 5710,2813 Z"/>
 <path fill="rgb(0,69,134)" stroke="none" d="M 9259,2285 L 9259,2535 9509,2535 9509,2285 9259,2285 Z"/>
 <path fill="none" stroke="rgb(0,69,134)" stroke-linejoin="round" d="M 9259,2285 L 9259,2535 9509,2535 9509,2285 9259,2285 Z"/>
 <path fill="rgb(0,69,134)" stroke="none" d="M 11775,1583 L 11775,1833 12025,1833 12025,1583 11775,1583 Z"/>
 <path fill="none" stroke="rgb(0,69,134)" stroke-linejoin="round" d="M 11775,1583 L 11775,1833 12025,1833 12025,1583 11775,1583 Z"/>
 <text class="TextShape"><tspan class="TextParagraph" font-family="Liberation Sans, sans-serif" font-size="353px" font-weight="400"><tspan class="TextPosition" x="1690" y="9191"><tspan fill="rgb(0,0,0)" stroke="none">0</tspan></tspan></tspan></text>
 <text class="TextShape"><tspan class="TextParagraph" font-family="Liberation Sans, sans-serif" font-size="353px" font-weight="400"><tspan class="TextPosition" x="2580" y="9191"><tspan fill="rgb(0,0,0)" stroke="none">20000</tspan></tspan></tspan></text>
 <text class="TextShape"><tspan class="TextParagraph" font-family="Liberation Sans, sans-serif" font-size="353px" font-weight="400"><tspan class="TextPosition" x="3841" y="9191"><tspan fill="rgb(0,0,0)" stroke="none">40000</tspan></tspan></tspan></text>
 <text class="TextShape"><tspan class="TextParagraph" font-family="Liberation Sans, sans-serif" font-size="353px" font-weight="400"><tspan class="TextPosition" x="5101" y="9191"><tspan fill="rgb(0,0,0)" stroke="none">60000</tspan></tspan></tspan></text>
 <text class="TextShape"><tspan class="TextParagraph" font-family="Liberation Sans, sans-serif" font-size="353px" font-weight="400"><tspan class="TextPosition" x="6362" y="9191"><tspan fill="rgb(0,0,0)" stroke="none">80000</tspan></tspan></tspan></text>
 <text class="TextShape"><tspan class="TextParagraph" font-family="Liberation Sans, sans-serif" font-size="353px" font-weight="400"><tspan class="TextPosition" x="7529" y="9191"><tspan fill="rgb(0,0,0)" stroke="none">100000</tspan></tspan></tspan></text>
 <text class="TextShape"><tspan class="TextParagraph" font-family="Liberation Sans, sans-serif" font-size="353px" font-weight="400"><tspan class="TextPosition" x="8790" y="9191"><tspan fill="rgb(0,0,0)" stroke="none">120000</tspan></tspan></tspan></text>
 <text class="TextShape"><tspan class="TextParagraph" font-family="Liberation Sans, sans-serif" font-size="353px" font-weight="400"><tspan class="TextPosition" x="10050" y="9191"><tspan fill="rgb(0,0,0)" stroke="none">140000</tspan></tspan></tspan></text>
 <text class="TextShape"><tspan class="TextParagraph" font-family="Liberation Sans, sans-serif" font-size="353px" font-weight="400"><tspan class="TextPosition" x="11311" y="9191"><tspan fill="rgb(0,0,0)" stroke="none">160000</tspan></tspan></tspan></text>
 <text class="TextShape"><tspan class="TextParagraph" font-family="Liberation Sans, sans-serif" font-size="353px" font-weight="400"><tspan class="TextPosition" x="12572" y="9191"><tspan fill="rgb(0,0,0)" stroke="none">180000</tspan></tspan></tspan></text>
 <text class="TextShape"><tspan class="TextParagraph" font-family="Liberation Sans, sans-serif" font-size="353px" font-weight="400"><tspan class="TextPosition" x="1057" y="8783"><tspan fill="rgb(0,102,179)" stroke="none">4.6</tspan></tspan></tspan></text>
 <text class="TextShape"><tspan class="TextParagraph" font-family="Liberation Sans, sans-serif" font-size="353px" font-weight="400"><tspan class="TextPosition" x="1057" y="7687"><tspan fill="rgb(0,102,179)" stroke="none">4.7</tspan></tspan></tspan></text>
 <text class="TextShape"><tspan class="TextParagraph" font-family="Liberation Sans, sans-serif" font-size="353px" font-weight="400"><tspan class="TextPosition" x="1057" y="6592"><tspan fill="rgb(0,102,179)" stroke="none">4.8</tspan></tspan></tspan></text>
 <text class="TextShape"><tspan class="TextParagraph" font-family="Liberation Sans, sans-serif" font-size="353px" font-weight="400"><tspan class="TextPosition" x="1057" y="5497"><tspan fill="rgb(0,102,179)" stroke="none">4.9</tspan></tspan></tspan></text>
 <text class="TextShape"><tspan class="TextParagraph" font-family="Liberation Sans, sans-serif" font-size="353px" font-weight="400"><tspan class="TextPosition" x="1348" y="4402"><tspan fill="rgb(0,102,179)" stroke="none">5</tspan></tspan></tspan></text>
 <text class="TextShape"><tspan class="TextParagraph" font-family="Liberation Sans, sans-serif" font-size="353px" font-weight="400"><tspan class="TextPosition" x="1057" y="3307"><tspan fill="rgb(0,102,179)" stroke="none">5.1</tspan></tspan></tspan></text>
 <text class="TextShape"><tspan class="TextParagraph" font-family="Liberation Sans, sans-serif" font-size="353px" font-weight="400"><tspan class="TextPosition" x="1057" y="2212"><tspan fill="rgb(0,102,179)" stroke="none">5.2</tspan></tspan></tspan></text>
 <text class="TextShape"><tspan class="TextParagraph" font-family="Liberation Sans, sans-serif" font-size="353px" font-weight="400"><tspan class="TextPosition" x="1057" y="1116"><tspan fill="rgb(0,102,179)" stroke="none">5.3</tspan></tspan></tspan></text>
 <text class="TextShape"><tspan class="TextParagraph" font-family="Liberation Sans, sans-serif" font-size="353px" font-weight="400"><tspan class="TextPosition" x="13377" y="8783"><tspan fill="rgb(239,65,61)" stroke="none">-0.165</tspan></tspan></tspan></text>
 <text class="TextShape"><tspan class="TextParagraph" font-family="Liberation Sans, sans-serif" font-size="353px" font-weight="400"><tspan class="TextPosition" x="13377" y="7687"><tspan fill="rgb(239,65,61)" stroke="none">-0.16</tspan></tspan></tspan></text>
 <text class="TextShape"><tspan class="TextParagraph" font-family="Liberation Sans, sans-serif" font-size="353px" font-weight="400"><tspan class="TextPosition" x="13377" y="6592"><tspan fill="rgb(239,65,61)" stroke="none">-0.155</tspan></tspan></tspan></text>
 <text class="TextShape"><tspan class="TextParagraph" font-family="Liberation Sans, sans-serif" font-size="353px" font-weight="400"><tspan class="TextPosition" x="13377" y="5497"><tspan fill="rgb(239,65,61)" stroke="none">-0.15</tspan></tspan></tspan></text>
 <text class="TextShape"><tspan class="TextParagraph" font-family="Liberation Sans, sans-serif" font-size="353px" font-weight="400"><tspan class="TextPosition" x="13377" y="4402"><tspan fill="rgb(239,65,61)" stroke="none">-0.145</tspan></tspan></tspan></text>
 <text class="TextShape"><tspan class="TextParagraph" font-family="Liberation Sans, sans-serif" font-size="353px" font-weight="400"><tspan class="TextPosition" x="13377" y="3307"><tspan fill="rgb(239,65,61)" stroke="none">-0.14</tspan></tspan></tspan></text>
 <text class="TextShape"><tspan class="TextParagraph" font-family="Liberation Sans, sans-serif" font-size="353px" font-weight="400"><tspan class="TextPosition" x="13377" y="2212"><tspan fill="rgb(239,65,61)" stroke="none">-0.135</tspan></tspan></tspan></text>
 <text class="TextShape"><tspan class="TextParagraph" font-family="Liberation Sans, sans-serif" font-size="353px" font-weight="400"><tspan class="TextPosition" x="13377" y="1117"><tspan fill="rgb(239,65,61)" stroke="none">-0.13</tspan></tspan></tspan></text>
 <text class="TextShape"><tspan class="TextParagraph" font-family="Liberation Sans, sans-serif" font-size="459px" font-weight="400"><tspan class="TextPosition" x="6998" y="794"><tspan fill="rgb(0,0,0)" stroke="none">Power</tspan></tspan></tspan></text>
 <path fill="none" stroke="rgb(0,69,134)" stroke-width="80" stroke-linejoin="round" d="M 8692,3379 L 9492,3379"/>
 <path fill="rgb(0,69,134)" stroke="none" d="M 8986,3274 L 8986,3485 9197,3485 9197,3274 8986,3274 Z"/>
 <path fill="none" stroke="rgb(0,69,134)" stroke-linejoin="round" d="M 8986,3274 L 8986,3485 9197,3485 9197,3274 8986,3274 Z"/>
 <path fill="none" stroke="rgb(255,66,14)" stroke-width="80" stroke-linejoin="round" d="M 8692,3850 L 9492,3850"/>
 <path fill="rgb(255,66,14)" stroke="none" d="M 8986,3850 L 9092,3956 9197,3850 9092,3745 8986,3850 Z"/>
 <path fill="none" stroke="rgb(255,66,14)" stroke-linejoin="round" d="M 8986,3850 L 9092,3956 9197,3850 9092,3745 8986,3850 Z"/>
 <text class="TextShape"><tspan class="TextParagraph" font-family="Liberation Sans, sans-serif" font-size="353px" font-weight="400"><tspan class="TextPosition" x="9592" y="3458"><tspan fill="rgb(0,0,0)" stroke="none">Power Pressure</tspan></tspan></tspan></text>
 <text class="TextShape"><tspan class="TextParagraph" font-family="Liberation Sans, sans-serif" font-size="353px" font-weight="400"><tspan class="TextPosition" x="9592" y="3929"><tspan fill="rgb(0,0,0)" stroke="none">Power Tau</tspan></tspan></tspan></text>
 <text class="TextShape"><tspan class="TextParagraph" font-family="Liberation Sans, sans-serif" font-size="318px" font-weight="400"><tspan class="TextPosition" x="6728" y="9809"><tspan fill="rgb(0,0,0)" stroke="none">Cells number</tspan></tspan></tspan></text>
 <text class="TextShape" transform="translate(577,6596) rotate(-90) translate(-577,-6596)"><tspan class="TextParagraph" font-family="Liberation Sans, sans-serif" font-size="318px" font-weight="400"><tspan class="TextPosition" x="577" y="6596"><tspan fill="rgb(0,0,0)" stroke="none">Power (Pressure) [W]</tspan></tspan></tspan></text>
 <text class="TextShape" transform="translate(14970,6384) rotate(-90) translate(-14970,-6384)"><tspan class="TextParagraph" font-family="Liberation Sans, sans-serif" font-size="318px" font-weight="400"><tspan class="TextPosition" x="14970" y="6384"><tspan fill="rgb(0,0,0)" stroke="none">Power (Shear) [W]</tspan></tspan></tspan></text>
</svg>