<?xml version="1.0" encoding="UTF-8"?>
<!DOCTYPE svg PUBLIC "-//W3C//DTD SVG 1.1//EN" "http://www.w3.org/Graphics/SVG/1.1/DTD/svg11.dtd">
<svg width="152mm" height="102mm" viewBox="0 0 15200 10200" version="1.1" xmlns="http://www.w3.org/2000/svg" stroke-width="28.222" stroke-linejoin="round" xml:space="preserve">
 <path fill="rgb(255,255,255)" stroke="none" d="M 7602,10160 L -17,10160 -17,0 15220,0 15220,10160 7602,10160 Z"/>
 <path fill="none" stroke="rgb(179,179,179)" stroke-linejoin="round" d="M 7589,8879 L 1919,8879 1919,1216 13259,1216 13259,8879 7589,8879 Z"/>
 <path fill="none" stroke="rgb(179,179,179)" stroke-linejoin="round" d="M 13259,8878 L 1919,8878"/>
 <path fill="none" stroke="rgb(179,179,179)" stroke-linejoin="round" d="M 13259,7919 L 1919,7919"/>
 <path fill="none" stroke="rgb(179,179,179)" stroke-linejoin="round" d="M 13259,6962 L 1919,6962"/>
 <path fill="none" stroke="rgb(179,179,179)" stroke-linejoin="round" d="M 13259,6004 L 1919,6004"/>
 <path fill="none" stroke="rgb(179,179,179)" stroke-linejoin="round" d="M 13259,5046 L 1919,5046"/>
 <path fill="none" stroke="rgb(179,179,179)" stroke-linejoin="round" d="M 13259,4088 L 1919,4088"/>
 <path fill="none" stroke="rgb(179,179,179)" stroke-linejoin="round" d="M 13259,3130 L 1919,3130"/>
 <path fill="none" stroke="rgb(179,179,179)" stroke-linejoin="round" d="M 13259,2173 L 1919,2173"/>
 <path fill="none" stroke="rgb(179,179,179)" stroke-linejoin="round" d="M 13259,1215 L 1919,1215"/>
 <path fill="none" stroke="rgb(179,179,179)" stroke-linejoin="round" d="M 1919,9028 L 1919,8878"/>
 <path fill="none" stroke="rgb(179,179,179)" stroke-linejoin="round" d="M 1919,9028 L 1919,8878"/>
 <path fill="none" stroke="rgb(179,179,179)" stroke-linejoin="round" d="M 3053,9028 L 3053,8878"/>
 <path fill="none" stroke="rgb(179,179,179)" stroke-linejoin="round" d="M 3053,9028 L 3053,8878"/>
 <path fill="none" stroke="rgb(179,179,179)" stroke-linejoin="round" d="M 4187,9028 L 4187,8878"/>
 <path fill="none" stroke="rgb(179,179,179)" stroke-linejoin="round" d="M 4187,9028 L 4187,8878"/>
 <path fill="none" stroke="rgb(179,179,179)" stroke-linejoin="round" d="M 5321,9028 L 5321,8878"/>
 <path fill="none" stroke="rgb(179,179,179)" stroke-linejoin="round" d="M 5321,9028 L 5321,8878"/>
 <path fill="none" stroke="rgb(179,179,179)" stroke-linejoin="round" d="M 6455,9028 L 6455,8878"/>
 <path fill="none" stroke="rgb(179,179,179)" stroke-linejoin="round" d="M 6455,9028 L 6455,8878"/>
 <path fill="none" stroke="rgb(179,179,179)" stroke-linejoin="round" d="M 7589,9028 L 7589,8878"/>
 <path fill="none" stroke="rgb(179,179,179)" stroke-linejoin="round" d="M 7589,9028 L 7589,8878"/>
 <path fill="none" stroke="rgb(179,179,179)" stroke-linejoin="round" d="M 8722,9028 L 8722,8878"/>
 <path fill="none" stroke="rgb(179,179,179)" stroke-linejoin="round" d="M 8722,9028 L 8722,8878"/>
 <path fill="none" stroke="rgb(179,179,179)" stroke-linejoin="round" d="M 9856,9028 L 9856,8878"/>
 <path fill="none" stroke="rgb(179,179,179)" stroke-linejoin="round" d="M 9856,9028 L 9856,8878"/>
 <path fill="none" stroke="rgb(179,179,179)" stroke-linejoin="round" d="M 10990,9028 L 10990,8878"/>
 <path fill="none" stroke="rgb(179,179,179)" stroke-linejoin="round" d="M 10990,9028 L 10990,8878"/>
 <path fill="none" stroke="rgb(179,179,179)" stroke-linejoin="round" d="M 12124,9028 L 12124,8878"/>
 <path fill="none" stroke="rgb(179,179,179)" stroke-linejoin="round" d="M 12124,9028 L 12124,8878"/>
 <path fill="none" stroke="rgb(179,179,179)" stroke-linejoin="round" d="M 13259,9028 L 13259,8878"/>
 <path fill="none" stroke="rgb(179,179,179)" stroke-linejoin="round" d="M 13259,9028 L 13259,8878"/>
 <path fill="none" stroke="rgb(179,179,179)" stroke-linejoin="round" d="M 1919,8878 L 13259,8878"/>
 <path fill="none" stroke="rgb(179,179,179)" stroke-linejoin="round" d="M 1769,8878 L 1919,8878"/>
 <path fill="none" stroke="rgb(179,179,179)" stroke-linejoin="round" d="M 1769,8878 L 1919,8878"/>
 <path fill="none" stroke="rgb(179,179,179)" stroke-linejoin="round" d="M 1769,7919 L 1919,7919"/>
 <path fill="none" stroke="rgb(179,179,179)" stroke-linejoin="round" d="M 1769,7919 L 1919,7919"/>
 <path fill="none" stroke="rgb(179,179,179)" stroke-linejoin="round" d="M 1769,6962 L 1919,6962"/>
 <path fill="none" stroke="rgb(179,179,179)" stroke-linejoin="round" d="M 1769,6962 L 1919,6962"/>
 <path fill="none" stroke="rgb(179,179,179)" stroke-linejoin="round" d="M 1769,6004 L 1919,6004"/>
 <path fill="none" stroke="rgb(179,179,179)" stroke-linejoin="round" d="M 1769,6004 L 1919,6004"/>
 <path fill="none" stroke="rgb(179,179,179)" stroke-linejoin="round" d="M 1769,5046 L 1919,5046"/>
 <path fill="none" stroke="rgb(179,179,179)" stroke-linejoin="round" d="M 1769,5046 L 1919,5046"/>
 <path fill="none" stroke="rgb(179,179,179)" stroke-linejoin="round" d="M 1769,4088 L 1919,4088"/>
 <path fill="none" stroke="rgb(179,179,179)" stroke-linejoin="round" d="M 1769,4088 L 1919,4088"/>
 <path fill="none" stroke="rgb(179,179,179)" stroke-linejoin="round" d="M 1769,3130 L 1919,3130"/>
 <path fill="none" stroke="rgb(179,179,179)" stroke-linejoin="round" d="M 1769,3130 L 1919,3130"/>
 <path fill="none" stroke="rgb(179,179,179)" stroke-linejoin="round" d="M 1769,2173 L 1919,2173"/>
 <path fill="none" stroke="rgb(179,179,179)" stroke-linejoin="round" d="M 1769,2173 L 1919,2173"/>
 <path fill="none" stroke="rgb(179,179,179)" stroke-linejoin="round" d="M 1769,1215 L 1919,1215"/>
 <path fill="none" stroke="rgb(179,179,179)" stroke-linejoin="round" d="M 1769,1215 L 1919,1215"/>
 <path fill="none" stroke="rgb(179,179,179)" stroke-linejoin="round" d="M 1919,8878 L 1919,1215"/>
 <path fill="none" stroke="rgb(179,179,179)" stroke-linejoin="round" d="M 13409,8878 L 13259,8878"/>
 <path fill="none" stroke="rgb(179,179,179)" stroke-linejoin="round" d="M 13409,8878 L 13259,8878"/>
 <path fill="none" stroke="rgb(179,179,179)" stroke-linejoin="round" d="M 13409,7919 L 13259,7919"/>
 <path fill="none" stroke="rgb(179,179,179)" stroke-linejoin="round" d="M 13409,7919 L 13259,7919"/>
 <path fill="none" stroke="rgb(179,179,179)" stroke-linejoin="round" d="M 13409,6962 L 13259,6962"/>
 <path fill="none" stroke="rgb(179,179,179)" stroke-linejoin="round" d="M 13409,6962 L 13259,6962"/>
 <path fill="none" stroke="rgb(179,179,179)" stroke-linejoin="round" d="M 13409,6004 L 13259,6004"/>
 <path fill="none" stroke="rgb(179,179,179)" stroke-linejoin="round" d="M 13409,6004 L 13259,6004"/>
 <path fill="none" stroke="rgb(179,179,179)" stroke-linejoin="round" d="M 13409,5046 L 13259,5046"/>
 <path fill="none" stroke="rgb(179,179,179)" stroke-linejoin="round" d="M 13409,5046 L 13259,5046"/>
 <path fill="none" stroke="rgb(179,179,179)" stroke-linejoin="round" d="M 13409,4088 L 13259,4088"/>
 <path fill="none" stroke="rgb(179,179,179)" stroke-linejoin="round" d="M 13409,4088 L 13259,4088"/>
 <path fill="none" stroke="rgb(179,179,179)" stroke-linejoin="round" d="M 13409,3130 L 13259,3130"/>
 <path fill="none" stroke="rgb(179,179,179)" stroke-linejoin="round" d="M 13409,3130 L 13259,3130"/>
 <path fill="none" stroke="rgb(179,179,179)" stroke-linejoin="round" d="M 13409,2173 L 13259,2173"/>
 <path fill="none" stroke="rgb(179,179,179)" stroke-linejoin="round" d="M 13409,2173 L 13259,2173"/>
 <path fill="none" stroke="rgb(179,179,179)" stroke-linejoin="round" d="M 13409,1215 L 13259,1215"/>
 <path fill="none" stroke="rgb(179,179,179)" stroke-linejoin="round" d="M 13409,1215 L 13259,1215"/>
 <path fill="none" stroke="rgb(179,179,179)" stroke-linejoin="round" d="M 13259,8878 L 13259,1215"/>
 <path fill="none" stroke="rgb(255,66,14)" stroke-width="80" stroke-linejoin="round" d="M 3053,7463 L 5321,7474 7589,7487 9856,7479 12124,7506"/>
 <path fill="rgb(255,66,14)" stroke="none" d="M 2928,7463 L 3053,7588 3178,7463 3053,7338 2928,7463 Z"/>
 <path fill="none" stroke="rgb(255,66,14)" stroke-linejoin="round" d="M 2928,7463 L 3053,7588 3178,7463 3053,7338 2928,7463 Z"/>
 <path fill="rgb(255,66,14)" stroke="none" d="M 5196,7474 L 5321,7599 5446,7474 5321,7349 5196,7474 Z"/>
 <path fill="none" stroke="rgb(255,66,14)" stroke-linejoin="round" d="M 5196,7474 L 5321,7599 5446,7474 5321,7349 5196,7474 Z"/>
 <path fill="rgb(255,66,14)" stroke="none" d="M 7464,7487 L 7589,7612 7713,7487 7589,7362 7464,7487 Z"/>
 <path fill="none" stroke="rgb(255,66,14)" stroke-linejoin="round" d="M 7464,7487 L 7589,7612 7713,7487 7589,7362 7464,7487 Z"/>
 <path fill="rgb(255,66,14)" stroke="none" d="M 9731,7479 L 9856,7604 9981,7479 9856,7354 9731,7479 Z"/>
 <path fill="none" stroke="rgb(255,66,14)" stroke-linejoin="round" d="M 9731,7479 L 9856,7604 9981,7479 9856,7354 9731,7479 Z"/>
 <path fill="rgb(255,66,14)" stroke="none" d="M 11999,7506 L 12124,7630 12249,7506 12124,7381 11999,7506 Z"/>
 <path fill="none" stroke="rgb(255,66,14)" stroke-linejoin="round" d="M 11999,7506 L 12124,7630 12249,7506 12124,7381 11999,7506 Z"/>
 <path fill="none" stroke="rgb(0,69,134)" stroke-width="80" stroke-linejoin="round" d="M 3053,4867 L 5321,5035 7589,5114 9856,5089 12124,5185"/>
 <path fill="rgb(0,69,134)" stroke="none" d="M 2928,4742 L 2928,4992 3178,4992 3178,4742 2928,4742 Z"/>
 <path fill="none" stroke="rgb(0,69,134)" stroke-linejoin="round" d="M 2928,4742 L 2928,4992 3178,4992 3178,4742 2928,4742 Z"/>
 <path fill="rgb(0,69,134)" stroke="none" d="M 5196,4910 L 5196,5160 5446,5160 5446,4910 5196,4910 Z"/>
 <path fill="none" stroke="rgb(0,69,134)" stroke-linejoin="round" d="M 5196,4910 L 5196,5160 5446,5160 5446,4910 5196,4910 Z"/>
 <path fill="rgb(0,69,134)" stroke="none" d="M 7464,4989 L 7464,5239 7713,5239 7713,4989 7464,4989 Z"/>
 <path fill="none" stroke="rgb(0,69,134)" stroke-linejoin="round" d="M 7464,4989 L 7464,5239 7713,5239 7713,4989 7464,4989 Z"/>
 <path fill="rgb(0,69,134)" stroke="none" d="M 9731,4964 L 9731,5214 9981,5214 9981,4964 9731,4964 Z"/>
 <path fill="none" stroke="rgb(0,69,134)" stroke-linejoin="round" d="M 9731,4964 L 9731,5214 9981,5214 9981,4964 9731,4964 Z"/>
 <path fill="rgb(0,69,134)" stroke="none" d="M 11999,5060 L 11999,5310 12249,5310 12249,5060 11999,5060 Z"/>
 <path fill="none" stroke="rgb(0,69,134)" stroke-linejoin="round" d="M 11999,5060 L 11999,5310 12249,5310 12249,5060 11999,5060 Z"/>
 <text class="TextShape"><tspan class="TextParagraph" font-family="Liberation Sans, sans-serif" font-size="353px" font-weight="400"><tspan class="TextPosition" x="1681" y="9366"><tspan fill="rgb(0,0,0)" stroke="none">1.5</tspan></tspan></tspan></text>
 <text class="TextShape"><tspan class="TextParagraph" font-family="Liberation Sans, sans-serif" font-size="353px" font-weight="400"><tspan class="TextPosition" x="2960" y="9366"><tspan fill="rgb(0,0,0)" stroke="none">2</tspan></tspan></tspan></text>
 <text class="TextShape"><tspan class="TextParagraph" font-family="Liberation Sans, sans-serif" font-size="353px" font-weight="400"><tspan class="TextPosition" x="3949" y="9366"><tspan fill="rgb(0,0,0)" stroke="none">2.5</tspan></tspan></tspan></text>
 <text class="TextShape"><tspan class="TextParagraph" font-family="Liberation Sans, sans-serif" font-size="353px" font-weight="400"><tspan class="TextPosition" x="5228" y="9366"><tspan fill="rgb(0,0,0)" stroke="none">3</tspan></tspan></tspan></text>
 <text class="TextShape"><tspan class="TextParagraph" font-family="Liberation Sans, sans-serif" font-size="353px" font-weight="400"><tspan class="TextPosition" x="6217" y="9366"><tspan fill="rgb(0,0,0)" stroke="none">3.5</tspan></tspan></tspan></text>
 <text class="TextShape"><tspan class="TextParagraph" font-family="Liberation Sans, sans-serif" font-size="353px" font-weight="400"><tspan class="TextPosition" x="7496" y="9366"><tspan fill="rgb(0,0,0)" stroke="none">4</tspan></tspan></tspan></text>
 <text class="TextShape"><tspan class="TextParagraph" font-family="Liberation Sans, sans-serif" font-size="353px" font-weight="400"><tspan class="TextPosition" x="8485" y="9366"><tspan fill="rgb(0,0,0)" stroke="none">4.5</tspan></tspan></tspan></text>
 <text class="TextShape"><tspan class="TextParagraph" font-family="Liberation Sans, sans-serif" font-size="353px" font-weight="400"><tspan class="TextPosition" x="9764" y="9366"><tspan fill="rgb(0,0,0)" stroke="none">5</tspan></tspan></tspan></text>
 <text class="TextShape"><tspan class="TextParagraph" font-family="Liberation Sans, sans-serif" font-size="353px" font-weight="400"><tspan class="TextPosition" x="10753" y="9366"><tspan fill="rgb(0,0,0)" stroke="none">5.5</tspan></tspan></tspan></text>
 <text class="TextShape"><tspan class="TextParagraph" font-family="Liberation Sans, sans-serif" font-size="353px" font-weight="400"><tspan class="TextPosition" x="12032" y="9366"><tspan fill="rgb(0,0,0)" stroke="none">6</tspan></tspan></tspan></text>
 <text class="TextShape"><tspan class="TextParagraph" font-family="Liberation Sans, sans-serif" font-size="353px" font-weight="400"><tspan class="TextPosition" x="13022" y="9366"><tspan fill="rgb(0,0,0)" stroke="none">6.5</tspan></tspan></tspan></text>
 <text class="TextShape"><tspan class="TextParagraph" font-family="Liberation Sans, sans-serif" font-size="353px" font-weight="400"><tspan class="TextPosition" x="1193" y="8958"><tspan fill="rgb(0,102,179)" stroke="none">4.3</tspan></tspan></tspan></text>
 <text class="TextShape"><tspan class="TextParagraph" font-family="Liberation Sans, sans-serif" font-size="353px" font-weight="400"><tspan class="TextPosition" x="1008" y="7999"><tspan fill="rgb(0,102,179)" stroke="none">4.35</tspan></tspan></tspan></text>
 <text class="TextShape"><tspan class="TextParagraph" font-family="Liberation Sans, sans-serif" font-size="353px" font-weight="400"><tspan class="TextPosition" x="1193" y="7041"><tspan fill="rgb(0,102,179)" stroke="none">4.4</tspan></tspan></tspan></text>
 <text class="TextShape"><tspan class="TextParagraph" font-family="Liberation Sans, sans-serif" font-size="353px" font-weight="400"><tspan class="TextPosition" x="1008" y="6083"><tspan fill="rgb(0,102,179)" stroke="none">4.45</tspan></tspan></tspan></text>
 <text class="TextShape"><tspan class="TextParagraph" font-family="Liberation Sans, sans-serif" font-size="353px" font-weight="400"><tspan class="TextPosition" x="1193" y="5125"><tspan fill="rgb(0,102,179)" stroke="none">4.5</tspan></tspan></tspan></text>
 <text class="TextShape"><tspan class="TextParagraph" font-family="Liberation Sans, sans-serif" font-size="353px" font-weight="400"><tspan class="TextPosition" x="1008" y="4168"><tspan fill="rgb(0,102,179)" stroke="none">4.55</tspan></tspan></tspan></text>
 <text class="TextShape"><tspan class="TextParagraph" font-family="Liberation Sans, sans-serif" font-size="353px" font-weight="400"><tspan class="TextPosition" x="1193" y="3210"><tspan fill="rgb(0,102,179)" stroke="none">4.6</tspan></tspan></tspan></text>
 <text class="TextShape"><tspan class="TextParagraph" font-family="Liberation Sans, sans-serif" font-size="353px" font-weight="400"><tspan class="TextPosition" x="1008" y="2252"><tspan fill="rgb(0,102,179)" stroke="none">4.65</tspan></tspan></tspan></text>
 <text class="TextShape"><tspan class="TextParagraph" font-family="Liberation Sans, sans-serif" font-size="353px" font-weight="400"><tspan class="TextPosition" x="1193" y="1294"><tspan fill="rgb(0,102,179)" stroke="none">4.7</tspan></tspan></tspan></text>
 <text class="TextShape"><tspan class="TextParagraph" font-family="Liberation Sans, sans-serif" font-size="353px" font-weight="400"><tspan class="TextPosition" x="13509" y="8958"><tspan fill="rgb(239,65,61)" stroke="none">-0.2</tspan></tspan></tspan></text>
 <text class="TextShape"><tspan class="TextParagraph" font-family="Liberation Sans, sans-serif" font-size="353px" font-weight="400"><tspan class="TextPosition" x="13509" y="7999"><tspan fill="rgb(239,65,61)" stroke="none">-0.15</tspan></tspan></tspan></text>
 <text class="TextShape"><tspan class="TextParagraph" font-family="Liberation Sans, sans-serif" font-size="353px" font-weight="400"><tspan class="TextPosition" x="13509" y="7041"><tspan fill="rgb(239,65,61)" stroke="none">-0.1</tspan></tspan></tspan></text>
 <text class="TextShape"><tspan class="TextParagraph" font-family="Liberation Sans, sans-serif" font-size="353px" font-weight="400"><tspan class="TextPosition" x="13509" y="6083"><tspan fill="rgb(239,65,61)" stroke="none">-0.05</tspan></tspan></tspan></text>
 <text class="TextShape"><tspan class="TextParagraph" font-family="Liberation Sans, sans-serif" font-size="353px" font-weight="400"><tspan class="TextPosition" x="13509" y="5125"><tspan fill="rgb(239,65,61)" stroke="none">0</tspan></tspan></tspan></text>
 <text class="TextShape"><tspan class="TextParagraph" font-family="Liberation Sans, sans-serif" font-size="353px" font-weight="400"><tspan class="TextPosition" x="13509" y="4168"><tspan fill="rgb(239,65,61)" stroke="none">0.05</tspan></tspan></tspan></text>
 <text class="TextShape"><tspan class="TextParagraph" font-family="Liberation Sans, sans-serif" font-size="353px" font-weight="400"><tspan class="TextPosition" x="13509" y="3210"><tspan fill="rgb(239,65,61)" stroke="none">0.1</tspan></tspan></tspan></text>
 <text class="TextShape"><tspan class="TextParagraph" font-family="Liberation Sans, sans-serif" font-size="353px" font-weight="400"><tspan class="TextPosition" x="13509" y="2252"><tspan fill="rgb(239,65,61)" stroke="none">0.15</tspan></tspan></tspan></text>
 <text class="TextShape"><tspan class="TextParagraph" font-family="Liberation Sans, sans-serif" font-size="353px" font-weight="400"><tspan class="TextPosition" x="13509" y="1294"><tspan fill="rgb(239,65,61)" stroke="none">0.2</tspan></tspan></tspan></text>
 <text class="TextShape"><tspan class="TextParagraph" font-family="Liberation Sans, sans-serif" font-size="459px" font-weight="400"><tspan class="TextPosition" x="6980" y="794"><tspan fill="rgb(0,0,0)" stroke="none">Power</tspan></tspan></tspan></text>
 <path fill="none" stroke="rgb(0,69,134)" stroke-width="80" stroke-linejoin="round" d="M 8841,2443 L 9641,2443"/>
 <path fill="rgb(0,69,134)" stroke="none" d="M 9135,2338 L 9135,2548 9346,2548 9346,2338 9135,2338 Z"/>
 <path fill="none" stroke="rgb(0,69,134)" stroke-linejoin="round" d="M 9135,2338 L 9135,2548 9346,2548 9346,2338 9135,2338 Z"/>
 <path fill="none" stroke="rgb(255,66,14)" stroke-width="80" stroke-linejoin="round" d="M 8841,2884 L 9641,2884"/>
 <path fill="rgb(255,66,14)" stroke="none" d="M 9135,2884 L 9241,2990 9346,2884 9241,2779 9135,2884 Z"/>
 <path fill="none" stroke="rgb(255,66,14)" stroke-linejoin="round" d="M 9135,2884 L 9241,2990 9346,2884 9241,2779 9135,2884 Z"/>
 <text class="TextShape"><tspan class="TextParagraph" font-family="Liberation Sans, sans-serif" font-size="353px" font-weight="400"><tspan class="TextPosition" x="9741" y="2522"><tspan fill="rgb(0,0,0)" stroke="none">Pressure power</tspan></tspan></tspan></text>
 <text class="TextShape"><tspan class="TextParagraph" font-family="Liberation Sans, sans-serif" font-size="353px" font-weight="400"><tspan class="TextPosition" x="9741" y="2963"><tspan fill="rgb(0,0,0)" stroke="none">Shear power</tspan></tspan></tspan></text>
 <text class="TextShape"><tspan class="TextParagraph" font-family="Liberation Sans, sans-serif" font-size="318px" font-weight="400"><tspan class="TextPosition" x="6677" y="9984"><tspan fill="rgb(0,0,0)" stroke="none">Cells number</tspan></tspan></tspan></text>
 <text class="TextShape" transform="translate(528,6772) rotate(-90) translate(-528,-6772)"><tspan class="TextParagraph" font-family="Liberation Sans, sans-serif" font-size="318px" font-weight="400"><tspan class="TextPosition" x="528" y="6772"><tspan fill="rgb(0,0,0)" stroke="none">Power (Pressure) [W]</tspan></tspan></tspan></text>
 <text class="TextShape" transform="translate(14287,5976) rotate(-90) translate(-14287,-5976)"><tspan class="TextParagraph" font-family="Liberation Sans, sans-serif" font-size="318px" font-weight="400"><tspan class="TextPosition" x="14287" y="5976"><tspan fill="rgb(0,0,0)" stroke="none">Power (Shear) [W]</tspan></tspan></tspan></text>
</svg>