<?xml version="1.0" encoding="UTF-8"?>
<!DOCTYPE svg PUBLIC "-//W3C//DTD SVG 1.1//EN" "http://www.w3.org/Graphics/SVG/1.1/DTD/svg11.dtd">
<svg width="152mm" height="102mm" viewBox="0 0 15200 10200" version="1.1" xmlns="http://www.w3.org/2000/svg" stroke-width="28.222" stroke-linejoin="round" xml:space="preserve">
 <path fill="rgb(255,255,255)" stroke="none" d="M 7633,10160 L 13,10160 13,0 15253,0 15253,10160 7633,10160 Z"/>
 <path fill="none" stroke="rgb(179,179,179)" stroke-linejoin="round" d="M 8297,9179 L 2378,9179 2378,854 14216,854 14216,9179 8297,9179 Z"/>
 <path fill="none" stroke="rgb(179,179,179)" stroke-linejoin="round" d="M 14216,9178 L 2378,9178"/>
 <path fill="none" stroke="rgb(179,179,179)" stroke-linejoin="round" d="M 14216,7790 L 2378,7790"/>
 <path fill="none" stroke="rgb(179,179,179)" stroke-linejoin="round" d="M 14216,6402 L 2378,6402"/>
 <path fill="none" stroke="rgb(179,179,179)" stroke-linejoin="round" d="M 14216,5015 L 2378,5015"/>
 <path fill="none" stroke="rgb(179,179,179)" stroke-linejoin="round" d="M 14216,3628 L 2378,3628"/>
 <path fill="none" stroke="rgb(179,179,179)" stroke-linejoin="round" d="M 14216,2240 L 2378,2240"/>
 <path fill="none" stroke="rgb(179,179,179)" stroke-linejoin="round" d="M 14216,853 L 2378,853"/>
 <path fill="none" stroke="rgb(179,179,179)" stroke-linejoin="round" d="M 2378,8634 L 2378,8484"/>
 <path fill="none" stroke="rgb(179,179,179)" stroke-linejoin="round" d="M 2378,8634 L 2378,8484"/>
 <path fill="none" stroke="rgb(179,179,179)" stroke-linejoin="round" d="M 4351,8634 L 4351,8484"/>
 <path fill="none" stroke="rgb(179,179,179)" stroke-linejoin="round" d="M 4351,8634 L 4351,8484"/>
 <path fill="none" stroke="rgb(179,179,179)" stroke-linejoin="round" d="M 6324,8634 L 6324,8484"/>
 <path fill="none" stroke="rgb(179,179,179)" stroke-linejoin="round" d="M 6324,8634 L 6324,8484"/>
 <path fill="none" stroke="rgb(179,179,179)" stroke-linejoin="round" d="M 8296,8634 L 8296,8484"/>
 <path fill="none" stroke="rgb(179,179,179)" stroke-linejoin="round" d="M 8296,8634 L 8296,8484"/>
 <path fill="none" stroke="rgb(179,179,179)" stroke-linejoin="round" d="M 10269,8634 L 10269,8484"/>
 <path fill="none" stroke="rgb(179,179,179)" stroke-linejoin="round" d="M 10269,8634 L 10269,8484"/>
 <path fill="none" stroke="rgb(179,179,179)" stroke-linejoin="round" d="M 12242,8634 L 12242,8484"/>
 <path fill="none" stroke="rgb(179,179,179)" stroke-linejoin="round" d="M 12242,8634 L 12242,8484"/>
 <path fill="none" stroke="rgb(179,179,179)" stroke-linejoin="round" d="M 14216,8634 L 14216,8484"/>
 <path fill="none" stroke="rgb(179,179,179)" stroke-linejoin="round" d="M 14216,8634 L 14216,8484"/>
 <path fill="none" stroke="rgb(179,179,179)" stroke-linejoin="round" d="M 2378,8484 L 14216,8484"/>
 <path fill="none" stroke="rgb(179,179,179)" stroke-linejoin="round" d="M 2228,9178 L 2378,9178"/>
 <path fill="none" stroke="rgb(179,179,179)" stroke-linejoin="round" d="M 2228,9178 L 2378,9178"/>
 <path fill="none" stroke="rgb(179,179,179)" stroke-linejoin="round" d="M 2228,7790 L 2378,7790"/>
 <path fill="none" stroke="rgb(179,179,179)" stroke-linejoin="round" d="M 2228,7790 L 2378,7790"/>
 <path fill="none" stroke="rgb(179,179,179)" stroke-linejoin="round" d="M 2228,6402 L 2378,6402"/>
 <path fill="none" stroke="rgb(179,179,179)" stroke-linejoin="round" d="M 2228,6402 L 2378,6402"/>
 <path fill="none" stroke="rgb(179,179,179)" stroke-linejoin="round" d="M 2228,5016 L 2378,5016"/>
 <path fill="none" stroke="rgb(179,179,179)" stroke-linejoin="round" d="M 2228,5016 L 2378,5016"/>
 <path fill="none" stroke="rgb(179,179,179)" stroke-linejoin="round" d="M 2228,3628 L 2378,3628"/>
 <path fill="none" stroke="rgb(179,179,179)" stroke-linejoin="round" d="M 2228,3628 L 2378,3628"/>
 <path fill="none" stroke="rgb(179,179,179)" stroke-linejoin="round" d="M 2228,2240 L 2378,2240"/>
 <path fill="none" stroke="rgb(179,179,179)" stroke-linejoin="round" d="M 2228,2240 L 2378,2240"/>
 <path fill="none" stroke="rgb(179,179,179)" stroke-linejoin="round" d="M 2228,853 L 2378,853"/>
 <path fill="none" stroke="rgb(179,179,179)" stroke-linejoin="round" d="M 2228,853 L 2378,853"/>
 <path fill="none" stroke="rgb(179,179,179)" stroke-linejoin="round" d="M 2378,9178 L 2378,853"/>
 <path fill="none" stroke="rgb(255,211,32)" stroke-width="80" stroke-linejoin="round" d="M 4351,5016 L 5337,3350 6324,2101 7310,1546 8296,1963 9283,3489 10269,5153 11256,6957"/>
 <path fill="rgb(255,211,32)" stroke="none" d="M 4226,4891 L 4351,5140 4476,4891 4226,4891 Z"/>
 <path fill="none" stroke="rgb(255,211,32)" stroke-linejoin="round" d="M 4226,4891 L 4351,5140 4476,4891 4226,4891 Z"/>
 <path fill="rgb(255,211,32)" stroke="none" d="M 5212,3225 L 5337,3475 5462,3225 5212,3225 Z"/>
 <path fill="none" stroke="rgb(255,211,32)" stroke-linejoin="round" d="M 5212,3225 L 5337,3475 5462,3225 5212,3225 Z"/>
 <path fill="rgb(255,211,32)" stroke="none" d="M 6199,1976 L 6324,2226 6449,1976 6199,1976 Z"/>
 <path fill="none" stroke="rgb(255,211,32)" stroke-linejoin="round" d="M 6199,1976 L 6324,2226 6449,1976 6199,1976 Z"/>
 <path fill="rgb(255,211,32)" stroke="none" d="M 7185,1421 L 7310,1671 7435,1421 7185,1421 Z"/>
 <path fill="none" stroke="rgb(255,211,32)" stroke-linejoin="round" d="M 7185,1421 L 7310,1671 7435,1421 7185,1421 Z"/>
 <path fill="rgb(255,211,32)" stroke="none" d="M 8171,1838 L 8296,2088 8421,1838 8171,1838 Z"/>
 <path fill="none" stroke="rgb(255,211,32)" stroke-linejoin="round" d="M 8171,1838 L 8296,2088 8421,1838 8171,1838 Z"/>
 <path fill="rgb(255,211,32)" stroke="none" d="M 9158,3364 L 9283,3614 9408,3364 9158,3364 Z"/>
 <path fill="none" stroke="rgb(255,211,32)" stroke-linejoin="round" d="M 9158,3364 L 9283,3614 9408,3364 9158,3364 Z"/>
 <path fill="rgb(255,211,32)" stroke="none" d="M 10144,5029 L 10269,5278 10394,5029 10144,5029 Z"/>
 <path fill="none" stroke="rgb(255,211,32)" stroke-linejoin="round" d="M 10144,5029 L 10269,5278 10394,5029 10144,5029 Z"/>
 <path fill="rgb(255,211,32)" stroke="none" d="M 11131,6832 L 11256,7082 11381,6832 11131,6832 Z"/>
 <path fill="none" stroke="rgb(255,211,32)" stroke-linejoin="round" d="M 11131,6832 L 11256,7082 11381,6832 11131,6832 Z"/>
 <path fill="none" stroke="rgb(255,66,14)" stroke-width="80" stroke-linejoin="round" d="M 3364,7619 L 4844,5853 7310,4837 9776,6175 11256,7739"/>
 <path fill="rgb(255,66,14)" stroke="none" d="M 3239,7619 L 3364,7744 3489,7619 3364,7494 3239,7619 Z"/>
 <path fill="none" stroke="rgb(255,66,14)" stroke-linejoin="round" d="M 3239,7619 L 3364,7744 3489,7619 3364,7494 3239,7619 Z"/>
 <path fill="rgb(255,66,14)" stroke="none" d="M 4719,5853 L 4844,5978 4969,5853 4844,5728 4719,5853 Z"/>
 <path fill="none" stroke="rgb(255,66,14)" stroke-linejoin="round" d="M 4719,5853 L 4844,5978 4969,5853 4844,5728 4719,5853 Z"/>
 <path fill="rgb(255,66,14)" stroke="none" d="M 7185,4837 L 7310,4962 7435,4837 7310,4712 7185,4837 Z"/>
 <path fill="none" stroke="rgb(255,66,14)" stroke-linejoin="round" d="M 7185,4837 L 7310,4962 7435,4837 7310,4712 7185,4837 Z"/>
 <path fill="rgb(255,66,14)" stroke="none" d="M 9651,6175 L 9776,6300 9901,6175 9776,6050 9651,6175 Z"/>
 <path fill="none" stroke="rgb(255,66,14)" stroke-linejoin="round" d="M 9651,6175 L 9776,6300 9901,6175 9776,6050 9651,6175 Z"/>
 <path fill="rgb(255,66,14)" stroke="none" d="M 11131,7739 L 11256,7864 11381,7739 11256,7614 11131,7739 Z"/>
 <path fill="none" stroke="rgb(255,66,14)" stroke-linejoin="round" d="M 11131,7739 L 11256,7864 11381,7739 11256,7614 11131,7739 Z"/>
 <path fill="none" stroke="rgb(0,69,134)" stroke-width="80" stroke-linejoin="round" d="M 3364,7635 L 4844,5917 6077,5238 6570,5004 7310,4848 8049,5045 8543,5272 9776,6152 11256,7724 12242,9103"/>
 <path fill="rgb(0,69,134)" stroke="none" d="M 3239,7510 L 3239,7760 3489,7760 3489,7510 3239,7510 Z"/>
 <path fill="none" stroke="rgb(0,69,134)" stroke-linejoin="round" d="M 3239,7510 L 3239,7760 3489,7760 3489,7510 3239,7510 Z"/>
 <path fill="rgb(0,69,134)" stroke="none" d="M 4719,5792 L 4719,6042 4969,6042 4969,5792 4719,5792 Z"/>
 <path fill="none" stroke="rgb(0,69,134)" stroke-linejoin="round" d="M 4719,5792 L 4719,6042 4969,6042 4969,5792 4719,5792 Z"/>
 <path fill="rgb(0,69,134)" stroke="none" d="M 5952,5113 L 5952,5363 6202,5363 6202,5113 5952,5113 Z"/>
 <path fill="none" stroke="rgb(0,69,134)" stroke-linejoin="round" d="M 5952,5113 L 5952,5363 6202,5363 6202,5113 5952,5113 Z"/>
 <path fill="rgb(0,69,134)" stroke="none" d="M 6445,4879 L 6445,5128 6695,5128 6695,4879 6445,4879 Z"/>
 <path fill="none" stroke="rgb(0,69,134)" stroke-linejoin="round" d="M 6445,4879 L 6445,5128 6695,5128 6695,4879 6445,4879 Z"/>
 <path fill="rgb(0,69,134)" stroke="none" d="M 7185,4723 L 7185,4973 7435,4973 7435,4723 7185,4723 Z"/>
 <path fill="none" stroke="rgb(0,69,134)" stroke-linejoin="round" d="M 7185,4723 L 7185,4973 7435,4973 7435,4723 7185,4723 Z"/>
 <path fill="rgb(0,69,134)" stroke="none" d="M 7924,4920 L 7924,5169 8174,5169 8174,4920 7924,4920 Z"/>
 <path fill="none" stroke="rgb(0,69,134)" stroke-linejoin="round" d="M 7924,4920 L 7924,5169 8174,5169 8174,4920 7924,4920 Z"/>
 <path fill="rgb(0,69,134)" stroke="none" d="M 8418,5147 L 8418,5397 8668,5397 8668,5147 8418,5147 Z"/>
 <path fill="none" stroke="rgb(0,69,134)" stroke-linejoin="round" d="M 8418,5147 L 8418,5397 8668,5397 8668,5147 8418,5147 Z"/>
 <path fill="rgb(0,69,134)" stroke="none" d="M 9651,6027 L 9651,6277 9901,6277 9901,6027 9651,6027 Z"/>
 <path fill="none" stroke="rgb(0,69,134)" stroke-linejoin="round" d="M 9651,6027 L 9651,6277 9901,6277 9901,6027 9651,6027 Z"/>
 <path fill="rgb(0,69,134)" stroke="none" d="M 11131,7599 L 11131,7849 11381,7849 11381,7599 11131,7599 Z"/>
 <path fill="none" stroke="rgb(0,69,134)" stroke-linejoin="round" d="M 11131,7599 L 11131,7849 11381,7849 11381,7599 11131,7599 Z"/>
 <path fill="rgb(0,69,134)" stroke="none" d="M 12117,8978 L 12117,9228 12367,9228 12367,8978 12117,8978 Z"/>
 <path fill="none" stroke="rgb(0,69,134)" stroke-linejoin="round" d="M 12117,8978 L 12117,9228 12367,9228 12367,8978 12117,8978 Z"/>
 <text class="TextShape"><tspan class="TextParagraph" font-family="Liberation Sans, sans-serif" font-size="353px" font-weight="400"><tspan class="TextPosition" x="2285" y="8972"><tspan fill="rgb(0,0,0)" stroke="none">0</tspan></tspan></tspan></text>
 <text class="TextShape"><tspan class="TextParagraph" font-family="Liberation Sans, sans-serif" font-size="353px" font-weight="400"><tspan class="TextPosition" x="4113" y="8972"><tspan fill="rgb(0,0,0)" stroke="none">0.2</tspan></tspan></tspan></text>
 <text class="TextShape"><tspan class="TextParagraph" font-family="Liberation Sans, sans-serif" font-size="353px" font-weight="400"><tspan class="TextPosition" x="6086" y="8972"><tspan fill="rgb(0,0,0)" stroke="none">0.4</tspan></tspan></tspan></text>
 <text class="TextShape"><tspan class="TextParagraph" font-family="Liberation Sans, sans-serif" font-size="353px" font-weight="400"><tspan class="TextPosition" x="8059" y="8972"><tspan fill="rgb(0,0,0)" stroke="none">0.6</tspan></tspan></tspan></text>
 <text class="TextShape"><tspan class="TextParagraph" font-family="Liberation Sans, sans-serif" font-size="353px" font-weight="400"><tspan class="TextPosition" x="10032" y="8972"><tspan fill="rgb(0,0,0)" stroke="none">0.8</tspan></tspan></tspan></text>
 <text class="TextShape"><tspan class="TextParagraph" font-family="Liberation Sans, sans-serif" font-size="353px" font-weight="400"><tspan class="TextPosition" x="12150" y="8972"><tspan fill="rgb(0,0,0)" stroke="none">1</tspan></tspan></tspan></text>
 <text class="TextShape"><tspan class="TextParagraph" font-family="Liberation Sans, sans-serif" font-size="353px" font-weight="400"><tspan class="TextPosition" x="13979" y="8972"><tspan fill="rgb(0,0,0)" stroke="none">1.2</tspan></tspan></tspan></text>
 <text class="TextShape"><tspan class="TextParagraph" font-family="Liberation Sans, sans-serif" font-size="353px" font-weight="400"><tspan class="TextPosition" x="1361" y="9258"><tspan fill="rgb(0,0,0)" stroke="none">-0.05</tspan></tspan></tspan></text>
 <text class="TextShape"><tspan class="TextParagraph" font-family="Liberation Sans, sans-serif" font-size="353px" font-weight="400"><tspan class="TextPosition" x="1467" y="7870"><tspan fill="rgb(0,0,0)" stroke="none">0.05</tspan></tspan></tspan></text>
 <text class="TextShape"><tspan class="TextParagraph" font-family="Liberation Sans, sans-serif" font-size="353px" font-weight="400"><tspan class="TextPosition" x="1467" y="6482"><tspan fill="rgb(0,0,0)" stroke="none">0.15</tspan></tspan></tspan></text>
 <text class="TextShape"><tspan class="TextParagraph" font-family="Liberation Sans, sans-serif" font-size="353px" font-weight="400"><tspan class="TextPosition" x="1467" y="5095"><tspan fill="rgb(0,0,0)" stroke="none">0.25</tspan></tspan></tspan></text>
 <text class="TextShape"><tspan class="TextParagraph" font-family="Liberation Sans, sans-serif" font-size="353px" font-weight="400"><tspan class="TextPosition" x="1467" y="3707"><tspan fill="rgb(0,0,0)" stroke="none">0.35</tspan></tspan></tspan></text>
 <text class="TextShape"><tspan class="TextParagraph" font-family="Liberation Sans, sans-serif" font-size="353px" font-weight="400"><tspan class="TextPosition" x="1467" y="2319"><tspan fill="rgb(0,0,0)" stroke="none">0.45</tspan></tspan></tspan></text>
 <text class="TextShape"><tspan class="TextParagraph" font-family="Liberation Sans, sans-serif" font-size="353px" font-weight="400"><tspan class="TextPosition" x="1467" y="932"><tspan fill="rgb(0,0,0)" stroke="none">0.55</tspan></tspan></tspan></text>
 <text class="TextShape"><tspan class="TextParagraph" font-family="Liberation Sans, sans-serif" font-size="459px" font-weight="400"><tspan class="TextPosition" x="5439" y="614"><tspan fill="rgb(0,0,0)" stroke="none">Comparison with experiments</tspan></tspan></tspan></text>
 <path fill="rgb(255,255,255)" stroke="none" d="M 12579,3519 L 10469,3519 10469,1983 14689,1983 14689,3519 12579,3519 Z"/>
 <path fill="none" stroke="rgb(0,69,134)" stroke-width="80" stroke-linejoin="round" d="M 11255,2286 L 12055,2286"/>
 <path fill="rgb(0,69,134)" stroke="none" d="M 11549,2181 L 11549,2392 11760,2392 11760,2181 11549,2181 Z"/>
 <path fill="none" stroke="rgb(0,69,134)" stroke-linejoin="round" d="M 11549,2181 L 11549,2392 11760,2392 11760,2181 11549,2181 Z"/>
 <path fill="none" stroke="rgb(255,66,14)" stroke-width="80" stroke-linejoin="round" d="M 11255,2749 L 12055,2749"/>
 <path fill="rgb(255,66,14)" stroke="none" d="M 11549,2749 L 11655,2855 11760,2749 11655,2644 11549,2749 Z"/>
 <path fill="none" stroke="rgb(255,66,14)" stroke-linejoin="round" d="M 11549,2749 L 11655,2855 11760,2749 11655,2644 11549,2749 Z"/>
 <path fill="none" stroke="rgb(255,211,32)" stroke-width="80" stroke-linejoin="round" d="M 11255,3212 L 12055,3212"/>
 <path fill="rgb(255,211,32)" stroke="none" d="M 11549,3107 L 11655,3318 11760,3107 11549,3107 Z"/>
 <path fill="none" stroke="rgb(255,211,32)" stroke-linejoin="round" d="M 11549,3107 L 11655,3318 11760,3107 11549,3107 Z"/>
 <text class="TextShape"><tspan class="TextParagraph" font-family="Liberation Sans, sans-serif" font-size="353px" font-weight="400"><tspan class="TextPosition" x="12155" y="2365"><tspan fill="rgb(0,0,0)" stroke="none">Mesh 80</tspan></tspan></tspan></text>
 <text class="TextShape"><tspan class="TextParagraph" font-family="Liberation Sans, sans-serif" font-size="353px" font-weight="400"><tspan class="TextPosition" x="12155" y="2828"><tspan fill="rgb(0,0,0)" stroke="none">Mesh 120</tspan></tspan></tspan></text>
 <text class="TextShape"><tspan class="TextParagraph" font-family="Liberation Sans, sans-serif" font-size="353px" font-weight="400"><tspan class="TextPosition" x="12155" y="3291"><tspan fill="rgb(0,0,0)" stroke="none">Experiment</tspan></tspan></tspan></text>
 <text class="TextShape"><tspan class="TextParagraph" font-family="Liberation Sans, sans-serif" font-size="318px" font-weight="400"><tspan class="TextPosition" x="6638" y="9875"><tspan fill="rgb(0,0,0)" stroke="none">Blade speed ratio</tspan></tspan></tspan></text>
 <text class="TextShape" transform="translate(881,6246) rotate(-90) translate(-881,-6246)"><tspan class="TextParagraph" font-family="Liberation Sans, sans-serif" font-size="318px" font-weight="400"><tspan class="TextPosition" x="881" y="6246"><tspan fill="rgb(0,0,0)" stroke="none">Power coefficient</tspan></tspan></tspan></text>
</svg>