<?xml version="1.0" encoding="UTF-8"?>
<!DOCTYPE svg PUBLIC "-//W3C//DTD SVG 1.1//EN" "http://www.w3.org/Graphics/SVG/1.1/DTD/svg11.dtd">
<svg width="152mm" height="102mm" viewBox="0 0 15200 10200" version="1.1" xmlns="http://www.w3.org/2000/svg" stroke-width="28.222" stroke-linejoin="round" xml:space="preserve">
 <path fill="rgb(255,255,255)" stroke="none" d="M 7633,10160 L 13,10160 13,0 15253,0 15253,10160 7633,10160 Z"/>
 <path fill="none" stroke="rgb(179,179,179)" stroke-linejoin="round" d="M 8297,9179 L 2378,9179 2378,854 14216,854 14216,9179 8297,9179 Z"/>
 <path fill="none" stroke="rgb(179,179,179)" stroke-linejoin="round" d="M 14216,9178 L 2378,9178"/>
 <path fill="none" stroke="rgb(179,179,179)" stroke-linejoin="round" d="M 14216,7790 L 2378,7790"/>
 <path fill="none" stroke="rgb(179,179,179)" stroke-linejoin="round" d="M 14216,6402 L 2378,6402"/>
 <path fill="none" stroke="rgb(179,179,179)" stroke-linejoin="round" d="M 14216,5016 L 2378,5016"/>
 <path fill="none" stroke="rgb(179,179,179)" stroke-linejoin="round" d="M 14216,3628 L 2378,3628"/>
 <path fill="none" stroke="rgb(179,179,179)" stroke-linejoin="round" d="M 14216,2240 L 2378,2240"/>
 <path fill="none" stroke="rgb(179,179,179)" stroke-linejoin="round" d="M 14216,852 L 2378,852"/>
 <path fill="none" stroke="rgb(179,179,179)" stroke-linejoin="round" d="M 2378,8981 L 2378,8831"/>
 <path fill="none" stroke="rgb(179,179,179)" stroke-linejoin="round" d="M 2378,8981 L 2378,8831"/>
 <path fill="none" stroke="rgb(179,179,179)" stroke-linejoin="round" d="M 4351,8981 L 4351,8831"/>
 <path fill="none" stroke="rgb(179,179,179)" stroke-linejoin="round" d="M 4351,8981 L 4351,8831"/>
 <path fill="none" stroke="rgb(179,179,179)" stroke-linejoin="round" d="M 6324,8981 L 6324,8831"/>
 <path fill="none" stroke="rgb(179,179,179)" stroke-linejoin="round" d="M 6324,8981 L 6324,8831"/>
 <path fill="none" stroke="rgb(179,179,179)" stroke-linejoin="round" d="M 8296,8981 L 8296,8831"/>
 <path fill="none" stroke="rgb(179,179,179)" stroke-linejoin="round" d="M 8296,8981 L 8296,8831"/>
 <path fill="none" stroke="rgb(179,179,179)" stroke-linejoin="round" d="M 10269,8981 L 10269,8831"/>
 <path fill="none" stroke="rgb(179,179,179)" stroke-linejoin="round" d="M 10269,8981 L 10269,8831"/>
 <path fill="none" stroke="rgb(179,179,179)" stroke-linejoin="round" d="M 12242,8981 L 12242,8831"/>
 <path fill="none" stroke="rgb(179,179,179)" stroke-linejoin="round" d="M 12242,8981 L 12242,8831"/>
 <path fill="none" stroke="rgb(179,179,179)" stroke-linejoin="round" d="M 14216,8981 L 14216,8831"/>
 <path fill="none" stroke="rgb(179,179,179)" stroke-linejoin="round" d="M 14216,8981 L 14216,8831"/>
 <path fill="none" stroke="rgb(179,179,179)" stroke-linejoin="round" d="M 2378,8831 L 14216,8831"/>
 <path fill="none" stroke="rgb(179,179,179)" stroke-linejoin="round" d="M 2228,9178 L 2378,9178"/>
 <path fill="none" stroke="rgb(179,179,179)" stroke-linejoin="round" d="M 2228,9178 L 2378,9178"/>
 <path fill="none" stroke="rgb(179,179,179)" stroke-linejoin="round" d="M 2228,7790 L 2378,7790"/>
 <path fill="none" stroke="rgb(179,179,179)" stroke-linejoin="round" d="M 2228,7790 L 2378,7790"/>
 <path fill="none" stroke="rgb(179,179,179)" stroke-linejoin="round" d="M 2228,6402 L 2378,6402"/>
 <path fill="none" stroke="rgb(179,179,179)" stroke-linejoin="round" d="M 2228,6402 L 2378,6402"/>
 <path fill="none" stroke="rgb(179,179,179)" stroke-linejoin="round" d="M 2228,5015 L 2378,5015"/>
 <path fill="none" stroke="rgb(179,179,179)" stroke-linejoin="round" d="M 2228,5015 L 2378,5015"/>
 <path fill="none" stroke="rgb(179,179,179)" stroke-linejoin="round" d="M 2228,3628 L 2378,3628"/>
 <path fill="none" stroke="rgb(179,179,179)" stroke-linejoin="round" d="M 2228,3628 L 2378,3628"/>
 <path fill="none" stroke="rgb(179,179,179)" stroke-linejoin="round" d="M 2228,2240 L 2378,2240"/>
 <path fill="none" stroke="rgb(179,179,179)" stroke-linejoin="round" d="M 2228,2240 L 2378,2240"/>
 <path fill="none" stroke="rgb(179,179,179)" stroke-linejoin="round" d="M 2228,852 L 2378,852"/>
 <path fill="none" stroke="rgb(179,179,179)" stroke-linejoin="round" d="M 2228,852 L 2378,852"/>
 <path fill="none" stroke="rgb(179,179,179)" stroke-linejoin="round" d="M 2378,9178 L 2378,853"/>
 <path fill="none" stroke="rgb(255,66,14)" stroke-width="80" stroke-linejoin="round" d="M 4351,5361 L 5337,3697 6324,2448 7310,1893 8296,2310 9283,3836 10269,5500 11256,7304"/>
 <path fill="rgb(255,66,14)" stroke="none" d="M 4226,5236 L 4351,5486 4476,5236 4226,5236 Z"/>
 <path fill="none" stroke="rgb(255,66,14)" stroke-linejoin="round" d="M 4226,5236 L 4351,5486 4476,5236 4226,5236 Z"/>
 <path fill="rgb(255,66,14)" stroke="none" d="M 5212,3572 L 5337,3822 5462,3572 5212,3572 Z"/>
 <path fill="none" stroke="rgb(255,66,14)" stroke-linejoin="round" d="M 5212,3572 L 5337,3822 5462,3572 5212,3572 Z"/>
 <path fill="rgb(255,66,14)" stroke="none" d="M 6199,2323 L 6324,2573 6449,2323 6199,2323 Z"/>
 <path fill="none" stroke="rgb(255,66,14)" stroke-linejoin="round" d="M 6199,2323 L 6324,2573 6449,2323 6199,2323 Z"/>
 <path fill="rgb(255,66,14)" stroke="none" d="M 7185,1768 L 7310,2018 7435,1768 7185,1768 Z"/>
 <path fill="none" stroke="rgb(255,66,14)" stroke-linejoin="round" d="M 7185,1768 L 7310,2018 7435,1768 7185,1768 Z"/>
 <path fill="rgb(255,66,14)" stroke="none" d="M 8171,2185 L 8296,2435 8421,2185 8171,2185 Z"/>
 <path fill="none" stroke="rgb(255,66,14)" stroke-linejoin="round" d="M 8171,2185 L 8296,2435 8421,2185 8171,2185 Z"/>
 <path fill="rgb(255,66,14)" stroke="none" d="M 9158,3711 L 9283,3961 9408,3711 9158,3711 Z"/>
 <path fill="none" stroke="rgb(255,66,14)" stroke-linejoin="round" d="M 9158,3711 L 9283,3961 9408,3711 9158,3711 Z"/>
 <path fill="rgb(255,66,14)" stroke="none" d="M 10144,5375 L 10269,5625 10394,5375 10144,5375 Z"/>
 <path fill="none" stroke="rgb(255,66,14)" stroke-linejoin="round" d="M 10144,5375 L 10269,5625 10394,5375 10144,5375 Z"/>
 <path fill="rgb(255,66,14)" stroke="none" d="M 11131,7179 L 11256,7429 11381,7179 11131,7179 Z"/>
 <path fill="none" stroke="rgb(255,66,14)" stroke-linejoin="round" d="M 11131,7179 L 11256,7429 11381,7179 11131,7179 Z"/>
 <path fill="none" stroke="rgb(0,69,134)" stroke-width="80" stroke-linejoin="round" d="M 3364,7212 L 4844,3934 6077,2639 6570,2190 7310,1893 8049,2268 8543,2704 9776,4383 11256,7380 11929,9178"/>
 <path fill="rgb(0,69,134)" stroke="none" d="M 3239,7087 L 3239,7337 3489,7337 3489,7087 3239,7087 Z"/>
 <path fill="none" stroke="rgb(0,69,134)" stroke-linejoin="round" d="M 3239,7087 L 3239,7337 3489,7337 3489,7087 3239,7087 Z"/>
 <path fill="rgb(0,69,134)" stroke="none" d="M 4719,3809 L 4719,4059 4969,4059 4969,3809 4719,3809 Z"/>
 <path fill="none" stroke="rgb(0,69,134)" stroke-linejoin="round" d="M 4719,3809 L 4719,4059 4969,4059 4969,3809 4719,3809 Z"/>
 <path fill="rgb(0,69,134)" stroke="none" d="M 5952,2514 L 5952,2764 6202,2764 6202,2514 5952,2514 Z"/>
 <path fill="none" stroke="rgb(0,69,134)" stroke-linejoin="round" d="M 5952,2514 L 5952,2764 6202,2764 6202,2514 5952,2514 Z"/>
 <path fill="rgb(0,69,134)" stroke="none" d="M 6445,2065 L 6445,2315 6695,2315 6695,2065 6445,2065 Z"/>
 <path fill="none" stroke="rgb(0,69,134)" stroke-linejoin="round" d="M 6445,2065 L 6445,2315 6695,2315 6695,2065 6445,2065 Z"/>
 <path fill="rgb(0,69,134)" stroke="none" d="M 7185,1768 L 7185,2018 7435,2018 7435,1768 7185,1768 Z"/>
 <path fill="none" stroke="rgb(0,69,134)" stroke-linejoin="round" d="M 7185,1768 L 7185,2018 7435,2018 7435,1768 7185,1768 Z"/>
 <path fill="rgb(0,69,134)" stroke="none" d="M 7924,2143 L 7924,2393 8174,2393 8174,2143 7924,2143 Z"/>
 <path fill="none" stroke="rgb(0,69,134)" stroke-linejoin="round" d="M 7924,2143 L 7924,2393 8174,2393 8174,2143 7924,2143 Z"/>
 <path fill="rgb(0,69,134)" stroke="none" d="M 8418,2579 L 8418,2829 8668,2829 8668,2579 8418,2579 Z"/>
 <path fill="none" stroke="rgb(0,69,134)" stroke-linejoin="round" d="M 8418,2579 L 8418,2829 8668,2829 8668,2579 8418,2579 Z"/>
 <path fill="rgb(0,69,134)" stroke="none" d="M 9651,4258 L 9651,4508 9901,4508 9901,4258 9651,4258 Z"/>
 <path fill="none" stroke="rgb(0,69,134)" stroke-linejoin="round" d="M 9651,4258 L 9651,4508 9901,4508 9901,4258 9651,4258 Z"/>
 <path fill="rgb(0,69,134)" stroke="none" d="M 11131,7255 L 11131,7505 11381,7505 11381,7255 11131,7255 Z"/>
 <path fill="none" stroke="rgb(0,69,134)" stroke-linejoin="round" d="M 11131,7255 L 11131,7505 11381,7505 11381,7255 11131,7255 Z"/>
 <text class="TextShape"><tspan class="TextParagraph" font-family="Liberation Sans, sans-serif" font-size="353px" font-weight="400"><tspan class="TextPosition" x="2285" y="9319"><tspan fill="rgb(0,0,0)" stroke="none">0</tspan></tspan></tspan></text>
 <text class="TextShape"><tspan class="TextParagraph" font-family="Liberation Sans, sans-serif" font-size="353px" font-weight="400"><tspan class="TextPosition" x="4113" y="9319"><tspan fill="rgb(0,0,0)" stroke="none">0.2</tspan></tspan></tspan></text>
 <text class="TextShape"><tspan class="TextParagraph" font-family="Liberation Sans, sans-serif" font-size="353px" font-weight="400"><tspan class="TextPosition" x="6086" y="9319"><tspan fill="rgb(0,0,0)" stroke="none">0.4</tspan></tspan></tspan></text>
 <text class="TextShape"><tspan class="TextParagraph" font-family="Liberation Sans, sans-serif" font-size="353px" font-weight="400"><tspan class="TextPosition" x="8059" y="9319"><tspan fill="rgb(0,0,0)" stroke="none">0.6</tspan></tspan></tspan></text>
 <text class="TextShape"><tspan class="TextParagraph" font-family="Liberation Sans, sans-serif" font-size="353px" font-weight="400"><tspan class="TextPosition" x="10032" y="9319"><tspan fill="rgb(0,0,0)" stroke="none">0.8</tspan></tspan></tspan></text>
 <text class="TextShape"><tspan class="TextParagraph" font-family="Liberation Sans, sans-serif" font-size="353px" font-weight="400"><tspan class="TextPosition" x="12150" y="9319"><tspan fill="rgb(0,0,0)" stroke="none">1</tspan></tspan></tspan></text>
 <text class="TextShape"><tspan class="TextParagraph" font-family="Liberation Sans, sans-serif" font-size="353px" font-weight="400"><tspan class="TextPosition" x="13979" y="9319"><tspan fill="rgb(0,0,0)" stroke="none">1.2</tspan></tspan></tspan></text>
 <text class="TextShape"><tspan class="TextParagraph" font-family="Liberation Sans, sans-serif" font-size="353px" font-weight="400"><tspan class="TextPosition" x="1361" y="9258"><tspan fill="rgb(0,0,0)" stroke="none">-0.05</tspan></tspan></tspan></text>
 <text class="TextShape"><tspan class="TextParagraph" font-family="Liberation Sans, sans-serif" font-size="353px" font-weight="400"><tspan class="TextPosition" x="1467" y="7870"><tspan fill="rgb(0,0,0)" stroke="none">0.15</tspan></tspan></tspan></text>
 <text class="TextShape"><tspan class="TextParagraph" font-family="Liberation Sans, sans-serif" font-size="353px" font-weight="400"><tspan class="TextPosition" x="1467" y="6482"><tspan fill="rgb(0,0,0)" stroke="none">0.35</tspan></tspan></tspan></text>
 <text class="TextShape"><tspan class="TextParagraph" font-family="Liberation Sans, sans-serif" font-size="353px" font-weight="400"><tspan class="TextPosition" x="1467" y="5094"><tspan fill="rgb(0,0,0)" stroke="none">0.55</tspan></tspan></tspan></text>
 <text class="TextShape"><tspan class="TextParagraph" font-family="Liberation Sans, sans-serif" font-size="353px" font-weight="400"><tspan class="TextPosition" x="1467" y="3707"><tspan fill="rgb(0,0,0)" stroke="none">0.75</tspan></tspan></tspan></text>
 <text class="TextShape"><tspan class="TextParagraph" font-family="Liberation Sans, sans-serif" font-size="353px" font-weight="400"><tspan class="TextPosition" x="1467" y="2319"><tspan fill="rgb(0,0,0)" stroke="none">0.95</tspan></tspan></tspan></text>
 <text class="TextShape"><tspan class="TextParagraph" font-family="Liberation Sans, sans-serif" font-size="353px" font-weight="400"><tspan class="TextPosition" x="1467" y="931"><tspan fill="rgb(0,0,0)" stroke="none">1.15</tspan></tspan></tspan></text>
 <text class="TextShape"><tspan class="TextParagraph" font-family="Liberation Sans, sans-serif" font-size="459px" font-weight="400"><tspan class="TextPosition" x="4347" y="614"><tspan fill="rgb(0,0,0)" stroke="none">Comparison with experiments (relative)</tspan></tspan></tspan></text>
 <path fill="rgb(255,255,255)" stroke="none" d="M 12579,3519 L 10469,3519 10469,1983 14689,1983 14689,3519 12579,3519 Z"/>
 <path fill="none" stroke="rgb(0,69,134)" stroke-width="80" stroke-linejoin="round" d="M 10858,2441 L 11658,2441"/>
 <path fill="rgb(0,69,134)" stroke="none" d="M 11152,2336 L 11152,2547 11363,2547 11363,2336 11152,2336 Z"/>
 <path fill="none" stroke="rgb(0,69,134)" stroke-linejoin="round" d="M 11152,2336 L 11152,2547 11363,2547 11363,2336 11152,2336 Z"/>
 <path fill="none" stroke="rgb(255,66,14)" stroke-width="80" stroke-linejoin="round" d="M 10858,3059 L 11658,3059"/>
 <path fill="rgb(255,66,14)" stroke="none" d="M 11152,2954 L 11258,3165 11363,2954 11152,2954 Z"/>
 <path fill="none" stroke="rgb(255,66,14)" stroke-linejoin="round" d="M 11152,2954 L 11258,3165 11363,2954 11152,2954 Z"/>
 <text class="TextShape"><tspan class="TextParagraph" font-family="Liberation Sans, sans-serif" font-size="353px" font-weight="400"><tspan class="TextPosition" x="11758" y="2520"><tspan fill="rgb(0,0,0)" stroke="none">Mesh 80 relative</tspan></tspan></tspan></text>
 <text class="TextShape"><tspan class="TextParagraph" font-family="Liberation Sans, sans-serif" font-size="353px" font-weight="400"><tspan class="TextPosition" x="11758" y="3138"><tspan fill="rgb(0,0,0)" stroke="none">Exp relative</tspan></tspan></tspan></text>
 <text class="TextShape"><tspan class="TextParagraph" font-family="Liberation Sans, sans-serif" font-size="318px" font-weight="400"><tspan class="TextPosition" x="6638" y="9937"><tspan fill="rgb(0,0,0)" stroke="none">Blade speed ratio</tspan></tspan></tspan></text>
 <text class="TextShape" transform="translate(881,6277) rotate(-90) translate(-881,-6277)"><tspan class="TextParagraph" font-family="Liberation Sans, sans-serif" font-size="318px" font-weight="400"><tspan class="TextPosition" x="881" y="6277"><tspan fill="rgb(0,0,0)" stroke="none">Power coefficient</tspan></tspan></tspan></text>
</svg>