<?xml version="1.0" encoding="UTF-8"?>
<!DOCTYPE svg PUBLIC "-//W3C//DTD SVG 1.1//EN" "http://www.w3.org/Graphics/SVG/1.1/DTD/svg11.dtd">
<svg width="152mm" height="102mm" viewBox="0 0 15200 10200" version="1.1" xmlns="http://www.w3.org/2000/svg" stroke-width="28.222" stroke-linejoin="round" xml:space="preserve">
 <path fill="rgb(255,255,255)" stroke="none" d="M 7614,10160 L -6,10160 -6,0 15234,0 15234,10160 7614,10160 Z"/>
 <path fill="none" stroke="rgb(179,179,179)" stroke-linejoin="round" d="M 7449,8704 L 1777,8704 1777,1039 13121,1039 13121,8704 7449,8704 Z"/>
 <path fill="none" stroke="rgb(179,179,179)" stroke-linejoin="round" d="M 13121,8703 L 1777,8703"/>
 <path fill="none" stroke="rgb(179,179,179)" stroke-linejoin="round" d="M 13121,7744 L 1777,7744"/>
 <path fill="none" stroke="rgb(179,179,179)" stroke-linejoin="round" d="M 13121,6786 L 1777,6786"/>
 <path fill="none" stroke="rgb(179,179,179)" stroke-linejoin="round" d="M 13121,5828 L 1777,5828"/>
 <path fill="none" stroke="rgb(179,179,179)" stroke-linejoin="round" d="M 13121,4870 L 1777,4870"/>
 <path fill="none" stroke="rgb(179,179,179)" stroke-linejoin="round" d="M 13121,3912 L 1777,3912"/>
 <path fill="none" stroke="rgb(179,179,179)" stroke-linejoin="round" d="M 13121,2954 L 1777,2954"/>
 <path fill="none" stroke="rgb(179,179,179)" stroke-linejoin="round" d="M 13121,1996 L 1777,1996"/>
 <path fill="none" stroke="rgb(179,179,179)" stroke-linejoin="round" d="M 13121,1038 L 1777,1038"/>
 <path fill="none" stroke="rgb(179,179,179)" stroke-linejoin="round" d="M 1777,8853 L 1777,8703"/>
 <path fill="none" stroke="rgb(179,179,179)" stroke-linejoin="round" d="M 1777,8853 L 1777,8703"/>
 <path fill="none" stroke="rgb(179,179,179)" stroke-linejoin="round" d="M 4046,8853 L 4046,8703"/>
 <path fill="none" stroke="rgb(179,179,179)" stroke-linejoin="round" d="M 4046,8853 L 4046,8703"/>
 <path fill="none" stroke="rgb(179,179,179)" stroke-linejoin="round" d="M 6315,8853 L 6315,8703"/>
 <path fill="none" stroke="rgb(179,179,179)" stroke-linejoin="round" d="M 6315,8853 L 6315,8703"/>
 <path fill="none" stroke="rgb(179,179,179)" stroke-linejoin="round" d="M 8583,8853 L 8583,8703"/>
 <path fill="none" stroke="rgb(179,179,179)" stroke-linejoin="round" d="M 8583,8853 L 8583,8703"/>
 <path fill="none" stroke="rgb(179,179,179)" stroke-linejoin="round" d="M 10852,8853 L 10852,8703"/>
 <path fill="none" stroke="rgb(179,179,179)" stroke-linejoin="round" d="M 10852,8853 L 10852,8703"/>
 <path fill="none" stroke="rgb(179,179,179)" stroke-linejoin="round" d="M 13121,8853 L 13121,8703"/>
 <path fill="none" stroke="rgb(179,179,179)" stroke-linejoin="round" d="M 13121,8853 L 13121,8703"/>
 <path fill="none" stroke="rgb(179,179,179)" stroke-linejoin="round" d="M 1777,8703 L 13121,8703"/>
 <path fill="none" stroke="rgb(179,179,179)" stroke-linejoin="round" d="M 1627,8703 L 1777,8703"/>
 <path fill="none" stroke="rgb(179,179,179)" stroke-linejoin="round" d="M 1627,8703 L 1777,8703"/>
 <path fill="none" stroke="rgb(179,179,179)" stroke-linejoin="round" d="M 1627,7744 L 1777,7744"/>
 <path fill="none" stroke="rgb(179,179,179)" stroke-linejoin="round" d="M 1627,7744 L 1777,7744"/>
 <path fill="none" stroke="rgb(179,179,179)" stroke-linejoin="round" d="M 1627,6786 L 1777,6786"/>
 <path fill="none" stroke="rgb(179,179,179)" stroke-linejoin="round" d="M 1627,6786 L 1777,6786"/>
 <path fill="none" stroke="rgb(179,179,179)" stroke-linejoin="round" d="M 1627,5828 L 1777,5828"/>
 <path fill="none" stroke="rgb(179,179,179)" stroke-linejoin="round" d="M 1627,5828 L 1777,5828"/>
 <path fill="none" stroke="rgb(179,179,179)" stroke-linejoin="round" d="M 1627,4870 L 1777,4870"/>
 <path fill="none" stroke="rgb(179,179,179)" stroke-linejoin="round" d="M 1627,4870 L 1777,4870"/>
 <path fill="none" stroke="rgb(179,179,179)" stroke-linejoin="round" d="M 1627,3912 L 1777,3912"/>
 <path fill="none" stroke="rgb(179,179,179)" stroke-linejoin="round" d="M 1627,3912 L 1777,3912"/>
 <path fill="none" stroke="rgb(179,179,179)" stroke-linejoin="round" d="M 1627,2954 L 1777,2954"/>
 <path fill="none" stroke="rgb(179,179,179)" stroke-linejoin="round" d="M 1627,2954 L 1777,2954"/>
 <path fill="none" stroke="rgb(179,179,179)" stroke-linejoin="round" d="M 1627,1996 L 1777,1996"/>
 <path fill="none" stroke="rgb(179,179,179)" stroke-linejoin="round" d="M 1627,1996 L 1777,1996"/>
 <path fill="none" stroke="rgb(179,179,179)" stroke-linejoin="round" d="M 1627,1038 L 1777,1038"/>
 <path fill="none" stroke="rgb(179,179,179)" stroke-linejoin="round" d="M 1627,1038 L 1777,1038"/>
 <path fill="none" stroke="rgb(179,179,179)" stroke-linejoin="round" d="M 1777,8703 L 1777,1038"/>
 <path fill="none" stroke="rgb(179,179,179)" stroke-linejoin="round" d="M 13271,8703 L 13121,8703"/>
 <path fill="none" stroke="rgb(179,179,179)" stroke-linejoin="round" d="M 13271,8703 L 13121,8703"/>
 <path fill="none" stroke="rgb(179,179,179)" stroke-linejoin="round" d="M 13271,7425 L 13121,7425"/>
 <path fill="none" stroke="rgb(179,179,179)" stroke-linejoin="round" d="M 13271,7425 L 13121,7425"/>
 <path fill="none" stroke="rgb(179,179,179)" stroke-linejoin="round" d="M 13271,6147 L 13121,6147"/>
 <path fill="none" stroke="rgb(179,179,179)" stroke-linejoin="round" d="M 13271,6147 L 13121,6147"/>
 <path fill="none" stroke="rgb(179,179,179)" stroke-linejoin="round" d="M 13271,4871 L 13121,4871"/>
 <path fill="none" stroke="rgb(179,179,179)" stroke-linejoin="round" d="M 13271,4871 L 13121,4871"/>
 <path fill="none" stroke="rgb(179,179,179)" stroke-linejoin="round" d="M 13271,3593 L 13121,3593"/>
 <path fill="none" stroke="rgb(179,179,179)" stroke-linejoin="round" d="M 13271,3593 L 13121,3593"/>
 <path fill="none" stroke="rgb(179,179,179)" stroke-linejoin="round" d="M 13271,2315 L 13121,2315"/>
 <path fill="none" stroke="rgb(179,179,179)" stroke-linejoin="round" d="M 13271,2315 L 13121,2315"/>
 <path fill="none" stroke="rgb(179,179,179)" stroke-linejoin="round" d="M 13271,1038 L 13121,1038"/>
 <path fill="none" stroke="rgb(179,179,179)" stroke-linejoin="round" d="M 13271,1038 L 13121,1038"/>
 <path fill="none" stroke="rgb(179,179,179)" stroke-linejoin="round" d="M 13121,8703 L 13121,1038"/>
 <path fill="none" stroke="rgb(255,66,14)" stroke-width="80" stroke-linejoin="round" d="M 2245,7402 L 2923,6359 3790,6515 4807,5033 7420,4337 10701,3322"/>
 <path fill="rgb(255,66,14)" stroke="none" d="M 2120,7402 L 2245,7527 2370,7402 2245,7277 2120,7402 Z"/>
 <path fill="none" stroke="rgb(255,66,14)" stroke-linejoin="round" d="M 2120,7402 L 2245,7527 2370,7402 2245,7277 2120,7402 Z"/>
 <path fill="rgb(255,66,14)" stroke="none" d="M 2798,6359 L 2923,6484 3048,6359 2923,6234 2798,6359 Z"/>
 <path fill="none" stroke="rgb(255,66,14)" stroke-linejoin="round" d="M 2798,6359 L 2923,6484 3048,6359 2923,6234 2798,6359 Z"/>
 <path fill="rgb(255,66,14)" stroke="none" d="M 3665,6515 L 3790,6640 3915,6515 3790,6390 3665,6515 Z"/>
 <path fill="none" stroke="rgb(255,66,14)" stroke-linejoin="round" d="M 3665,6515 L 3790,6640 3915,6515 3790,6390 3665,6515 Z"/>
 <path fill="rgb(255,66,14)" stroke="none" d="M 4682,5033 L 4807,5157 4932,5033 4807,4908 4682,5033 Z"/>
 <path fill="none" stroke="rgb(255,66,14)" stroke-linejoin="round" d="M 4682,5033 L 4807,5157 4932,5033 4807,4908 4682,5033 Z"/>
 <path fill="rgb(255,66,14)" stroke="none" d="M 7295,4337 L 7420,4462 7545,4337 7420,4212 7295,4337 Z"/>
 <path fill="none" stroke="rgb(255,66,14)" stroke-linejoin="round" d="M 7295,4337 L 7420,4462 7545,4337 7420,4212 7295,4337 Z"/>
 <path fill="rgb(255,66,14)" stroke="none" d="M 10576,3322 L 10701,3447 10826,3322 10701,3197 10576,3322 Z"/>
 <path fill="none" stroke="rgb(255,66,14)" stroke-linejoin="round" d="M 10576,3322 L 10701,3447 10826,3322 10701,3197 10576,3322 Z"/>
 <path fill="none" stroke="rgb(0,69,134)" stroke-width="80" stroke-linejoin="round" d="M 2245,6276 L 2923,3578 3790,2441 4807,2422 7420,2114 10701,1884"/>
 <path fill="rgb(0,69,134)" stroke="none" d="M 2120,6151 L 2120,6401 2370,6401 2370,6151 2120,6151 Z"/>
 <path fill="none" stroke="rgb(0,69,134)" stroke-linejoin="round" d="M 2120,6151 L 2120,6401 2370,6401 2370,6151 2120,6151 Z"/>
 <path fill="rgb(0,69,134)" stroke="none" d="M 2798,3453 L 2798,3703 3048,3703 3048,3453 2798,3453 Z"/>
 <path fill="none" stroke="rgb(0,69,134)" stroke-linejoin="round" d="M 2798,3453 L 2798,3703 3048,3703 3048,3453 2798,3453 Z"/>
 <path fill="rgb(0,69,134)" stroke="none" d="M 3665,2316 L 3665,2566 3915,2566 3915,2316 3665,2316 Z"/>
 <path fill="none" stroke="rgb(0,69,134)" stroke-linejoin="round" d="M 3665,2316 L 3665,2566 3915,2566 3915,2316 3665,2316 Z"/>
 <path fill="rgb(0,69,134)" stroke="none" d="M 4682,2297 L 4682,2547 4932,2547 4932,2297 4682,2297 Z"/>
 <path fill="none" stroke="rgb(0,69,134)" stroke-linejoin="round" d="M 4682,2297 L 4682,2547 4932,2547 4932,2297 4682,2297 Z"/>
 <path fill="rgb(0,69,134)" stroke="none" d="M 7295,1989 L 7295,2239 7545,2239 7545,1989 7295,1989 Z"/>
 <path fill="none" stroke="rgb(0,69,134)" stroke-linejoin="round" d="M 7295,1989 L 7295,2239 7545,2239 7545,1989 7295,1989 Z"/>
 <path fill="rgb(0,69,134)" stroke="none" d="M 10576,1759 L 10576,2009 10826,2009 10826,1759 10576,1759 Z"/>
 <path fill="none" stroke="rgb(0,69,134)" stroke-linejoin="round" d="M 10576,1759 L 10576,2009 10826,2009 10826,1759 10576,1759 Z"/>
 <text class="TextShape"><tspan class="TextParagraph" font-family="Liberation Sans, sans-serif" font-size="353px" font-weight="400"><tspan class="TextPosition" x="1684" y="9191"><tspan fill="rgb(0,0,0)" stroke="none">0</tspan></tspan></tspan></text>
 <text class="TextShape"><tspan class="TextParagraph" font-family="Liberation Sans, sans-serif" font-size="353px" font-weight="400"><tspan class="TextPosition" x="3583" y="9191"><tspan fill="rgb(0,0,0)" stroke="none">50000</tspan></tspan></tspan></text>
 <text class="TextShape"><tspan class="TextParagraph" font-family="Liberation Sans, sans-serif" font-size="353px" font-weight="400"><tspan class="TextPosition" x="5759" y="9191"><tspan fill="rgb(0,0,0)" stroke="none">100000</tspan></tspan></tspan></text>
 <text class="TextShape"><tspan class="TextParagraph" font-family="Liberation Sans, sans-serif" font-size="353px" font-weight="400"><tspan class="TextPosition" x="8028" y="9191"><tspan fill="rgb(0,0,0)" stroke="none">150000</tspan></tspan></tspan></text>
 <text class="TextShape"><tspan class="TextParagraph" font-family="Liberation Sans, sans-serif" font-size="353px" font-weight="400"><tspan class="TextPosition" x="10297" y="9191"><tspan fill="rgb(0,0,0)" stroke="none">200000</tspan></tspan></tspan></text>
 <text class="TextShape"><tspan class="TextParagraph" font-family="Liberation Sans, sans-serif" font-size="353px" font-weight="400"><tspan class="TextPosition" x="12566" y="9191"><tspan fill="rgb(0,0,0)" stroke="none">250000</tspan></tspan></tspan></text>
 <text class="TextShape"><tspan class="TextParagraph" font-family="Liberation Sans, sans-serif" font-size="353px" font-weight="400"><tspan class="TextPosition" x="1051" y="8783"><tspan fill="rgb(0,102,179)" stroke="none">4.5</tspan></tspan></tspan></text>
 <text class="TextShape"><tspan class="TextParagraph" font-family="Liberation Sans, sans-serif" font-size="353px" font-weight="400"><tspan class="TextPosition" x="1051" y="7824"><tspan fill="rgb(0,102,179)" stroke="none">4.6</tspan></tspan></tspan></text>
 <text class="TextShape"><tspan class="TextParagraph" font-family="Liberation Sans, sans-serif" font-size="353px" font-weight="400"><tspan class="TextPosition" x="1051" y="6866"><tspan fill="rgb(0,102,179)" stroke="none">4.7</tspan></tspan></tspan></text>
 <text class="TextShape"><tspan class="TextParagraph" font-family="Liberation Sans, sans-serif" font-size="353px" font-weight="400"><tspan class="TextPosition" x="1051" y="5908"><tspan fill="rgb(0,102,179)" stroke="none">4.8</tspan></tspan></tspan></text>
 <text class="TextShape"><tspan class="TextParagraph" font-family="Liberation Sans, sans-serif" font-size="353px" font-weight="400"><tspan class="TextPosition" x="1051" y="4949"><tspan fill="rgb(0,102,179)" stroke="none">4.9</tspan></tspan></tspan></text>
 <text class="TextShape"><tspan class="TextParagraph" font-family="Liberation Sans, sans-serif" font-size="353px" font-weight="400"><tspan class="TextPosition" x="1342" y="3991"><tspan fill="rgb(0,102,179)" stroke="none">5</tspan></tspan></tspan></text>
 <text class="TextShape"><tspan class="TextParagraph" font-family="Liberation Sans, sans-serif" font-size="353px" font-weight="400"><tspan class="TextPosition" x="1051" y="3033"><tspan fill="rgb(0,102,179)" stroke="none">5.1</tspan></tspan></tspan></text>
 <text class="TextShape"><tspan class="TextParagraph" font-family="Liberation Sans, sans-serif" font-size="353px" font-weight="400"><tspan class="TextPosition" x="1051" y="2075"><tspan fill="rgb(0,102,179)" stroke="none">5.2</tspan></tspan></tspan></text>
 <text class="TextShape"><tspan class="TextParagraph" font-family="Liberation Sans, sans-serif" font-size="353px" font-weight="400"><tspan class="TextPosition" x="1051" y="1117"><tspan fill="rgb(0,102,179)" stroke="none">5.3</tspan></tspan></tspan></text>
 <text class="TextShape"><tspan class="TextParagraph" font-family="Liberation Sans, sans-serif" font-size="353px" font-weight="400"><tspan class="TextPosition" x="13371" y="8783"><tspan fill="rgb(239,65,61)" stroke="none">-0.21</tspan></tspan></tspan></text>
 <text class="TextShape"><tspan class="TextParagraph" font-family="Liberation Sans, sans-serif" font-size="353px" font-weight="400"><tspan class="TextPosition" x="13371" y="7505"><tspan fill="rgb(239,65,61)" stroke="none">-0.2</tspan></tspan></tspan></text>
 <text class="TextShape"><tspan class="TextParagraph" font-family="Liberation Sans, sans-serif" font-size="353px" font-weight="400"><tspan class="TextPosition" x="13371" y="6227"><tspan fill="rgb(239,65,61)" stroke="none">-0.19</tspan></tspan></tspan></text>
 <text class="TextShape"><tspan class="TextParagraph" font-family="Liberation Sans, sans-serif" font-size="353px" font-weight="400"><tspan class="TextPosition" x="13371" y="4950"><tspan fill="rgb(239,65,61)" stroke="none">-0.18</tspan></tspan></tspan></text>
 <text class="TextShape"><tspan class="TextParagraph" font-family="Liberation Sans, sans-serif" font-size="353px" font-weight="400"><tspan class="TextPosition" x="13371" y="3672"><tspan fill="rgb(239,65,61)" stroke="none">-0.17</tspan></tspan></tspan></text>
 <text class="TextShape"><tspan class="TextParagraph" font-family="Liberation Sans, sans-serif" font-size="353px" font-weight="400"><tspan class="TextPosition" x="13371" y="2394"><tspan fill="rgb(239,65,61)" stroke="none">-0.16</tspan></tspan></tspan></text>
 <text class="TextShape"><tspan class="TextParagraph" font-family="Liberation Sans, sans-serif" font-size="353px" font-weight="400"><tspan class="TextPosition" x="13371" y="1117"><tspan fill="rgb(239,65,61)" stroke="none">-0.15</tspan></tspan></tspan></text>
 <text class="TextShape"><tspan class="TextParagraph" font-family="Liberation Sans, sans-serif" font-size="459px" font-weight="400"><tspan class="TextPosition" x="6992" y="794"><tspan fill="rgb(0,0,0)" stroke="none">Power</tspan></tspan></tspan></text>
 <path fill="none" stroke="rgb(0,69,134)" stroke-width="80" stroke-linejoin="round" d="M 8828,2443 L 9628,2443"/>
 <path fill="rgb(0,69,134)" stroke="none" d="M 9122,2338 L 9122,2549 9333,2549 9333,2338 9122,2338 Z"/>
 <path fill="none" stroke="rgb(0,69,134)" stroke-linejoin="round" d="M 9122,2338 L 9122,2549 9333,2549 9333,2338 9122,2338 Z"/>
 <path fill="none" stroke="rgb(255,66,14)" stroke-width="80" stroke-linejoin="round" d="M 8828,2885 L 9628,2885"/>
 <path fill="rgb(255,66,14)" stroke="none" d="M 9122,2885 L 9228,2991 9333,2885 9228,2780 9122,2885 Z"/>
 <path fill="none" stroke="rgb(255,66,14)" stroke-linejoin="round" d="M 9122,2885 L 9228,2991 9333,2885 9228,2780 9122,2885 Z"/>
 <text class="TextShape"><tspan class="TextParagraph" font-family="Liberation Sans, sans-serif" font-size="353px" font-weight="400"><tspan class="TextPosition" x="9728" y="2522"><tspan fill="rgb(0,0,0)" stroke="none">Power Pressure</tspan></tspan></tspan></text>
 <text class="TextShape"><tspan class="TextParagraph" font-family="Liberation Sans, sans-serif" font-size="353px" font-weight="400"><tspan class="TextPosition" x="9728" y="2964"><tspan fill="rgb(0,0,0)" stroke="none">Power Tau</tspan></tspan></tspan></text>
 <text class="TextShape"><tspan class="TextParagraph" font-family="Liberation Sans, sans-serif" font-size="318px" font-weight="400"><tspan class="TextPosition" x="6629" y="9809"><tspan fill="rgb(0,0,0)" stroke="none">Cells number</tspan></tspan></tspan></text>
 <text class="TextShape" transform="translate(571,6597) rotate(-90) translate(-571,-6597)"><tspan class="TextParagraph" font-family="Liberation Sans, sans-serif" font-size="318px" font-weight="400"><tspan class="TextPosition" x="571" y="6597"><tspan fill="rgb(0,0,0)" stroke="none">Power (Pressure) [W]</tspan></tspan></tspan></text>
 <text class="TextShape" transform="translate(14778,6385) rotate(-90) translate(-14778,-6385)"><tspan class="TextParagraph" font-family="Liberation Sans, sans-serif" font-size="318px" font-weight="400"><tspan class="TextPosition" x="14778" y="6385"><tspan fill="rgb(0,0,0)" stroke="none">Power (Shear) [W]</tspan></tspan></tspan></text>
</svg>