<?xml version="1.0" encoding="UTF-8"?>
<!DOCTYPE svg PUBLIC "-//W3C//DTD SVG 1.1//EN" "http://www.w3.org/Graphics/SVG/1.1/DTD/svg11.dtd">
<svg width="152mm" height="102mm" viewBox="0 0 15200 10200" version="1.1" xmlns="http://www.w3.org/2000/svg" stroke-width="28.222" stroke-linejoin="round" xml:space="preserve">
 <path fill="rgb(255,255,255)" stroke="none" d="M 7619,10160 L -1,10160 -1,0 15239,0 15239,10160 7619,10160 Z"/>
 <path fill="none" stroke="rgb(179,179,179)" stroke-linejoin="round" d="M 8183,8460 L 1989,8460 1989,1403 14378,1403 14378,8460 8183,8460 Z"/>
 <path fill="none" stroke="rgb(179,179,179)" stroke-linejoin="round" d="M 14378,8459 L 1989,8459"/>
 <path fill="none" stroke="rgb(179,179,179)" stroke-linejoin="round" d="M 14378,7576 L 1989,7576"/>
 <path fill="none" stroke="rgb(179,179,179)" stroke-linejoin="round" d="M 14378,6694 L 1989,6694"/>
 <path fill="none" stroke="rgb(179,179,179)" stroke-linejoin="round" d="M 14378,5812 L 1989,5812"/>
 <path fill="none" stroke="rgb(179,179,179)" stroke-linejoin="round" d="M 14378,4931 L 1989,4931"/>
 <path fill="none" stroke="rgb(179,179,179)" stroke-linejoin="round" d="M 14378,4048 L 1989,4048"/>
 <path fill="none" stroke="rgb(179,179,179)" stroke-linejoin="round" d="M 14378,3166 L 1989,3166"/>
 <path fill="none" stroke="rgb(179,179,179)" stroke-linejoin="round" d="M 14378,2284 L 1989,2284"/>
 <path fill="none" stroke="rgb(179,179,179)" stroke-linejoin="round" d="M 14378,1401 L 1989,1401"/>
 <path fill="none" stroke="rgb(179,179,179)" stroke-linejoin="round" d="M 1989,8609 L 1989,8459"/>
 <path fill="none" stroke="rgb(179,179,179)" stroke-linejoin="round" d="M 1989,8609 L 1989,8459"/>
 <path fill="none" stroke="rgb(179,179,179)" stroke-linejoin="round" d="M 4467,8609 L 4467,8459"/>
 <path fill="none" stroke="rgb(179,179,179)" stroke-linejoin="round" d="M 4467,8609 L 4467,8459"/>
 <path fill="none" stroke="rgb(179,179,179)" stroke-linejoin="round" d="M 6945,8609 L 6945,8459"/>
 <path fill="none" stroke="rgb(179,179,179)" stroke-linejoin="round" d="M 6945,8609 L 6945,8459"/>
 <path fill="none" stroke="rgb(179,179,179)" stroke-linejoin="round" d="M 9422,8609 L 9422,8459"/>
 <path fill="none" stroke="rgb(179,179,179)" stroke-linejoin="round" d="M 9422,8609 L 9422,8459"/>
 <path fill="none" stroke="rgb(179,179,179)" stroke-linejoin="round" d="M 11900,8609 L 11900,8459"/>
 <path fill="none" stroke="rgb(179,179,179)" stroke-linejoin="round" d="M 11900,8609 L 11900,8459"/>
 <path fill="none" stroke="rgb(179,179,179)" stroke-linejoin="round" d="M 14378,8609 L 14378,8459"/>
 <path fill="none" stroke="rgb(179,179,179)" stroke-linejoin="round" d="M 14378,8609 L 14378,8459"/>
 <path fill="none" stroke="rgb(179,179,179)" stroke-linejoin="round" d="M 1989,8459 L 14378,8459"/>
 <path fill="none" stroke="rgb(179,179,179)" stroke-linejoin="round" d="M 1839,8459 L 1989,8459"/>
 <path fill="none" stroke="rgb(179,179,179)" stroke-linejoin="round" d="M 1839,8459 L 1989,8459"/>
 <path fill="none" stroke="rgb(179,179,179)" stroke-linejoin="round" d="M 1839,7576 L 1989,7576"/>
 <path fill="none" stroke="rgb(179,179,179)" stroke-linejoin="round" d="M 1839,7576 L 1989,7576"/>
 <path fill="none" stroke="rgb(179,179,179)" stroke-linejoin="round" d="M 1839,6694 L 1989,6694"/>
 <path fill="none" stroke="rgb(179,179,179)" stroke-linejoin="round" d="M 1839,6694 L 1989,6694"/>
 <path fill="none" stroke="rgb(179,179,179)" stroke-linejoin="round" d="M 1839,5812 L 1989,5812"/>
 <path fill="none" stroke="rgb(179,179,179)" stroke-linejoin="round" d="M 1839,5812 L 1989,5812"/>
 <path fill="none" stroke="rgb(179,179,179)" stroke-linejoin="round" d="M 1839,4930 L 1989,4930"/>
 <path fill="none" stroke="rgb(179,179,179)" stroke-linejoin="round" d="M 1839,4930 L 1989,4930"/>
 <path fill="none" stroke="rgb(179,179,179)" stroke-linejoin="round" d="M 1839,4048 L 1989,4048"/>
 <path fill="none" stroke="rgb(179,179,179)" stroke-linejoin="round" d="M 1839,4048 L 1989,4048"/>
 <path fill="none" stroke="rgb(179,179,179)" stroke-linejoin="round" d="M 1839,3166 L 1989,3166"/>
 <path fill="none" stroke="rgb(179,179,179)" stroke-linejoin="round" d="M 1839,3166 L 1989,3166"/>
 <path fill="none" stroke="rgb(179,179,179)" stroke-linejoin="round" d="M 1839,2284 L 1989,2284"/>
 <path fill="none" stroke="rgb(179,179,179)" stroke-linejoin="round" d="M 1839,2284 L 1989,2284"/>
 <path fill="none" stroke="rgb(179,179,179)" stroke-linejoin="round" d="M 1839,1401 L 1989,1401"/>
 <path fill="none" stroke="rgb(179,179,179)" stroke-linejoin="round" d="M 1839,1401 L 1989,1401"/>
 <path fill="none" stroke="rgb(179,179,179)" stroke-linejoin="round" d="M 1989,8459 L 1989,1402"/>
 <path fill="none" stroke="rgb(0,69,134)" stroke-width="80" stroke-linejoin="round" d="M 2500,6223 L 3241,3667 4188,2631 5298,2511 8151,2179 11735,1897"/>
 <path fill="rgb(0,69,134)" stroke="none" d="M 2375,6098 L 2375,6348 2625,6348 2625,6098 2375,6098 Z"/>
 <path fill="none" stroke="rgb(0,69,134)" stroke-linejoin="round" d="M 2375,6098 L 2375,6348 2625,6348 2625,6098 2375,6098 Z"/>
 <path fill="rgb(0,69,134)" stroke="none" d="M 3116,3542 L 3116,3792 3366,3792 3366,3542 3116,3542 Z"/>
 <path fill="none" stroke="rgb(0,69,134)" stroke-linejoin="round" d="M 3116,3542 L 3116,3792 3366,3792 3366,3542 3116,3542 Z"/>
 <path fill="rgb(0,69,134)" stroke="none" d="M 4063,2506 L 4063,2756 4313,2756 4313,2506 4063,2506 Z"/>
 <path fill="none" stroke="rgb(0,69,134)" stroke-linejoin="round" d="M 4063,2506 L 4063,2756 4313,2756 4313,2506 4063,2506 Z"/>
 <path fill="rgb(0,69,134)" stroke="none" d="M 5173,2386 L 5173,2636 5423,2636 5423,2386 5173,2386 Z"/>
 <path fill="none" stroke="rgb(0,69,134)" stroke-linejoin="round" d="M 5173,2386 L 5173,2636 5423,2636 5423,2386 5173,2386 Z"/>
 <path fill="rgb(0,69,134)" stroke="none" d="M 8026,2054 L 8026,2304 8276,2304 8276,2054 8026,2054 Z"/>
 <path fill="none" stroke="rgb(0,69,134)" stroke-linejoin="round" d="M 8026,2054 L 8026,2304 8276,2304 8276,2054 8026,2054 Z"/>
 <path fill="rgb(0,69,134)" stroke="none" d="M 11610,1772 L 11610,2022 11860,2022 11860,1772 11610,1772 Z"/>
 <path fill="none" stroke="rgb(0,69,134)" stroke-linejoin="round" d="M 11610,1772 L 11610,2022 11860,2022 11860,1772 11610,1772 Z"/>
 <text class="TextShape"><tspan class="TextParagraph" font-family="Liberation Sans, sans-serif" font-size="353px" font-weight="400"><tspan class="TextPosition" x="1896" y="8947"><tspan fill="rgb(0,0,0)" stroke="none">0</tspan></tspan></tspan></text>
 <text class="TextShape"><tspan class="TextParagraph" font-family="Liberation Sans, sans-serif" font-size="353px" font-weight="400"><tspan class="TextPosition" x="4004" y="8947"><tspan fill="rgb(0,0,0)" stroke="none">50000</tspan></tspan></tspan></text>
 <text class="TextShape"><tspan class="TextParagraph" font-family="Liberation Sans, sans-serif" font-size="353px" font-weight="400"><tspan class="TextPosition" x="6389" y="8947"><tspan fill="rgb(0,0,0)" stroke="none">100000</tspan></tspan></tspan></text>
 <text class="TextShape"><tspan class="TextParagraph" font-family="Liberation Sans, sans-serif" font-size="353px" font-weight="400"><tspan class="TextPosition" x="8867" y="8947"><tspan fill="rgb(0,0,0)" stroke="none">150000</tspan></tspan></tspan></text>
 <text class="TextShape"><tspan class="TextParagraph" font-family="Liberation Sans, sans-serif" font-size="353px" font-weight="400"><tspan class="TextPosition" x="11345" y="8947"><tspan fill="rgb(0,0,0)" stroke="none">200000</tspan></tspan></tspan></text>
 <text class="TextShape"><tspan class="TextParagraph" font-family="Liberation Sans, sans-serif" font-size="353px" font-weight="400"><tspan class="TextPosition" x="13823" y="8947"><tspan fill="rgb(0,0,0)" stroke="none">250000</tspan></tspan></tspan></text>
 <text class="TextShape"><tspan class="TextParagraph" font-family="Liberation Sans, sans-serif" font-size="353px" font-weight="400"><tspan class="TextPosition" x="1263" y="8539"><tspan fill="rgb(0,0,0)" stroke="none">4.3</tspan></tspan></tspan></text>
 <text class="TextShape"><tspan class="TextParagraph" font-family="Liberation Sans, sans-serif" font-size="353px" font-weight="400"><tspan class="TextPosition" x="1263" y="7656"><tspan fill="rgb(0,0,0)" stroke="none">4.4</tspan></tspan></tspan></text>
 <text class="TextShape"><tspan class="TextParagraph" font-family="Liberation Sans, sans-serif" font-size="353px" font-weight="400"><tspan class="TextPosition" x="1263" y="6774"><tspan fill="rgb(0,0,0)" stroke="none">4.5</tspan></tspan></tspan></text>
 <text class="TextShape"><tspan class="TextParagraph" font-family="Liberation Sans, sans-serif" font-size="353px" font-weight="400"><tspan class="TextPosition" x="1263" y="5892"><tspan fill="rgb(0,0,0)" stroke="none">4.6</tspan></tspan></tspan></text>
 <text class="TextShape"><tspan class="TextParagraph" font-family="Liberation Sans, sans-serif" font-size="353px" font-weight="400"><tspan class="TextPosition" x="1263" y="5009"><tspan fill="rgb(0,0,0)" stroke="none">4.7</tspan></tspan></tspan></text>
 <text class="TextShape"><tspan class="TextParagraph" font-family="Liberation Sans, sans-serif" font-size="353px" font-weight="400"><tspan class="TextPosition" x="1263" y="4127"><tspan fill="rgb(0,0,0)" stroke="none">4.8</tspan></tspan></tspan></text>
 <text class="TextShape"><tspan class="TextParagraph" font-family="Liberation Sans, sans-serif" font-size="353px" font-weight="400"><tspan class="TextPosition" x="1263" y="3245"><tspan fill="rgb(0,0,0)" stroke="none">4.9</tspan></tspan></tspan></text>
 <text class="TextShape"><tspan class="TextParagraph" font-family="Liberation Sans, sans-serif" font-size="353px" font-weight="400"><tspan class="TextPosition" x="1554" y="2363"><tspan fill="rgb(0,0,0)" stroke="none">5</tspan></tspan></tspan></text>
 <text class="TextShape"><tspan class="TextParagraph" font-family="Liberation Sans, sans-serif" font-size="353px" font-weight="400"><tspan class="TextPosition" x="1263" y="1480"><tspan fill="rgb(0,0,0)" stroke="none">5.1</tspan></tspan></tspan></text>
 <text class="TextShape"><tspan class="TextParagraph" font-family="Liberation Sans, sans-serif" font-size="459px" font-weight="400"><tspan class="TextPosition" x="4894" y="794"><tspan fill="rgb(0,0,0)" stroke="none">Mean Power of the last turn</tspan></tspan></tspan></text>
 <text class="TextShape"><tspan class="TextParagraph" font-family="Liberation Sans, sans-serif" font-size="318px" font-weight="400"><tspan class="TextPosition" x="7133" y="9565"><tspan fill="rgb(0,0,0)" stroke="none">Cells number</tspan></tspan></tspan></text>
 <text class="TextShape" transform="translate(783,5862) rotate(-90) translate(-783,-5862)"><tspan class="TextParagraph" font-family="Liberation Sans, sans-serif" font-size="318px" font-weight="400"><tspan class="TextPosition" x="783" y="5862"><tspan fill="rgb(0,0,0)" stroke="none">Power [W]</tspan></tspan></tspan></text>
</svg>