<?xml version="1.0" encoding="UTF-8"?>
<!DOCTYPE svg PUBLIC "-//W3C//DTD SVG 1.1//EN" "http://www.w3.org/Graphics/SVG/1.1/DTD/svg11.dtd">
<svg width="152mm" height="102mm" viewBox="0 0 15200 10200" version="1.1" xmlns="http://www.w3.org/2000/svg" stroke-width="28.222" stroke-linejoin="round" xml:space="preserve">
 <path fill="rgb(255,255,255)" stroke="none" d="M 7614,10160 L -6,10160 -6,0 15234,0 15234,10160 7614,10160 Z"/>
 <path fill="none" stroke="rgb(179,179,179)" stroke-linejoin="round" d="M 8218,8460 L 2064,8460 2064,1402 14373,1402 14373,8460 8218,8460 Z"/>
 <path fill="none" stroke="rgb(179,179,179)" stroke-linejoin="round" d="M 14373,8459 L 2064,8459"/>
 <path fill="none" stroke="rgb(179,179,179)" stroke-linejoin="round" d="M 14373,7753 L 2064,7753"/>
 <path fill="none" stroke="rgb(179,179,179)" stroke-linejoin="round" d="M 14373,7047 L 2064,7047"/>
 <path fill="none" stroke="rgb(179,179,179)" stroke-linejoin="round" d="M 14373,6341 L 2064,6341"/>
 <path fill="none" stroke="rgb(179,179,179)" stroke-linejoin="round" d="M 14373,5635 L 2064,5635"/>
 <path fill="none" stroke="rgb(179,179,179)" stroke-linejoin="round" d="M 14373,4930 L 2064,4930"/>
 <path fill="none" stroke="rgb(179,179,179)" stroke-linejoin="round" d="M 14373,4224 L 2064,4224"/>
 <path fill="none" stroke="rgb(179,179,179)" stroke-linejoin="round" d="M 14373,3518 L 2064,3518"/>
 <path fill="none" stroke="rgb(179,179,179)" stroke-linejoin="round" d="M 14373,2812 L 2064,2812"/>
 <path fill="none" stroke="rgb(179,179,179)" stroke-linejoin="round" d="M 14373,2106 L 2064,2106"/>
 <path fill="none" stroke="rgb(179,179,179)" stroke-linejoin="round" d="M 14373,1401 L 2064,1401"/>
 <path fill="none" stroke="rgb(179,179,179)" stroke-linejoin="round" d="M 2064,8609 L 2064,8459"/>
 <path fill="none" stroke="rgb(179,179,179)" stroke-linejoin="round" d="M 2064,8609 L 2064,8459"/>
 <path fill="none" stroke="rgb(179,179,179)" stroke-linejoin="round" d="M 4526,8609 L 4526,8459"/>
 <path fill="none" stroke="rgb(179,179,179)" stroke-linejoin="round" d="M 4526,8609 L 4526,8459"/>
 <path fill="none" stroke="rgb(179,179,179)" stroke-linejoin="round" d="M 6988,8609 L 6988,8459"/>
 <path fill="none" stroke="rgb(179,179,179)" stroke-linejoin="round" d="M 6988,8609 L 6988,8459"/>
 <path fill="none" stroke="rgb(179,179,179)" stroke-linejoin="round" d="M 9449,8609 L 9449,8459"/>
 <path fill="none" stroke="rgb(179,179,179)" stroke-linejoin="round" d="M 9449,8609 L 9449,8459"/>
 <path fill="none" stroke="rgb(179,179,179)" stroke-linejoin="round" d="M 11911,8609 L 11911,8459"/>
 <path fill="none" stroke="rgb(179,179,179)" stroke-linejoin="round" d="M 11911,8609 L 11911,8459"/>
 <path fill="none" stroke="rgb(179,179,179)" stroke-linejoin="round" d="M 14373,8609 L 14373,8459"/>
 <path fill="none" stroke="rgb(179,179,179)" stroke-linejoin="round" d="M 14373,8609 L 14373,8459"/>
 <path fill="none" stroke="rgb(179,179,179)" stroke-linejoin="round" d="M 2064,8459 L 14373,8459"/>
 <path fill="none" stroke="rgb(179,179,179)" stroke-linejoin="round" d="M 1914,8459 L 2064,8459"/>
 <path fill="none" stroke="rgb(179,179,179)" stroke-linejoin="round" d="M 1914,8459 L 2064,8459"/>
 <path fill="none" stroke="rgb(179,179,179)" stroke-linejoin="round" d="M 1914,7753 L 2064,7753"/>
 <path fill="none" stroke="rgb(179,179,179)" stroke-linejoin="round" d="M 1914,7753 L 2064,7753"/>
 <path fill="none" stroke="rgb(179,179,179)" stroke-linejoin="round" d="M 1914,7047 L 2064,7047"/>
 <path fill="none" stroke="rgb(179,179,179)" stroke-linejoin="round" d="M 1914,7047 L 2064,7047"/>
 <path fill="none" stroke="rgb(179,179,179)" stroke-linejoin="round" d="M 1914,6341 L 2064,6341"/>
 <path fill="none" stroke="rgb(179,179,179)" stroke-linejoin="round" d="M 1914,6341 L 2064,6341"/>
 <path fill="none" stroke="rgb(179,179,179)" stroke-linejoin="round" d="M 1914,5635 L 2064,5635"/>
 <path fill="none" stroke="rgb(179,179,179)" stroke-linejoin="round" d="M 1914,5635 L 2064,5635"/>
 <path fill="none" stroke="rgb(179,179,179)" stroke-linejoin="round" d="M 1914,4930 L 2064,4930"/>
 <path fill="none" stroke="rgb(179,179,179)" stroke-linejoin="round" d="M 1914,4930 L 2064,4930"/>
 <path fill="none" stroke="rgb(179,179,179)" stroke-linejoin="round" d="M 1914,4224 L 2064,4224"/>
 <path fill="none" stroke="rgb(179,179,179)" stroke-linejoin="round" d="M 1914,4224 L 2064,4224"/>
 <path fill="none" stroke="rgb(179,179,179)" stroke-linejoin="round" d="M 1914,3518 L 2064,3518"/>
 <path fill="none" stroke="rgb(179,179,179)" stroke-linejoin="round" d="M 1914,3518 L 2064,3518"/>
 <path fill="none" stroke="rgb(179,179,179)" stroke-linejoin="round" d="M 1914,2812 L 2064,2812"/>
 <path fill="none" stroke="rgb(179,179,179)" stroke-linejoin="round" d="M 1914,2812 L 2064,2812"/>
 <path fill="none" stroke="rgb(179,179,179)" stroke-linejoin="round" d="M 1914,2106 L 2064,2106"/>
 <path fill="none" stroke="rgb(179,179,179)" stroke-linejoin="round" d="M 1914,2106 L 2064,2106"/>
 <path fill="none" stroke="rgb(179,179,179)" stroke-linejoin="round" d="M 1914,1401 L 2064,1401"/>
 <path fill="none" stroke="rgb(179,179,179)" stroke-linejoin="round" d="M 1914,1401 L 2064,1401"/>
 <path fill="none" stroke="rgb(179,179,179)" stroke-linejoin="round" d="M 2064,8459 L 2064,1401"/>
 <path fill="none" stroke="rgb(0,69,134)" stroke-width="80" stroke-linejoin="round" d="M 2572,4198 L 3308,4145 4249,3830 5352,3288 8186,2449 11747,2395"/>
 <path fill="rgb(0,69,134)" stroke="none" d="M 2447,4073 L 2447,4323 2697,4323 2697,4073 2447,4073 Z"/>
 <path fill="none" stroke="rgb(0,69,134)" stroke-linejoin="round" d="M 2447,4073 L 2447,4323 2697,4323 2697,4073 2447,4073 Z"/>
 <path fill="rgb(0,69,134)" stroke="none" d="M 3183,4020 L 3183,4270 3433,4270 3433,4020 3183,4020 Z"/>
 <path fill="none" stroke="rgb(0,69,134)" stroke-linejoin="round" d="M 3183,4020 L 3183,4270 3433,4270 3433,4020 3183,4020 Z"/>
 <path fill="rgb(0,69,134)" stroke="none" d="M 4124,3705 L 4124,3955 4374,3955 4374,3705 4124,3705 Z"/>
 <path fill="none" stroke="rgb(0,69,134)" stroke-linejoin="round" d="M 4124,3705 L 4124,3955 4374,3955 4374,3705 4124,3705 Z"/>
 <path fill="rgb(0,69,134)" stroke="none" d="M 5227,3163 L 5227,3413 5477,3413 5477,3163 5227,3163 Z"/>
 <path fill="none" stroke="rgb(0,69,134)" stroke-linejoin="round" d="M 5227,3163 L 5227,3413 5477,3413 5477,3163 5227,3163 Z"/>
 <path fill="rgb(0,69,134)" stroke="none" d="M 8061,2324 L 8061,2574 8311,2574 8311,2324 8061,2324 Z"/>
 <path fill="none" stroke="rgb(0,69,134)" stroke-linejoin="round" d="M 8061,2324 L 8061,2574 8311,2574 8311,2324 8061,2324 Z"/>
 <path fill="rgb(0,69,134)" stroke="none" d="M 11622,2270 L 11622,2520 11872,2520 11872,2270 11622,2270 Z"/>
 <path fill="none" stroke="rgb(0,69,134)" stroke-linejoin="round" d="M 11622,2270 L 11622,2520 11872,2520 11872,2270 11622,2270 Z"/>
 <text class="TextShape"><tspan class="TextParagraph" font-family="Liberation Sans, sans-serif" font-size="353px" font-weight="400"><tspan class="TextPosition" x="1971" y="8947"><tspan fill="rgb(0,0,0)" stroke="none">0</tspan></tspan></tspan></text>
 <text class="TextShape"><tspan class="TextParagraph" font-family="Liberation Sans, sans-serif" font-size="353px" font-weight="400"><tspan class="TextPosition" x="4063" y="8947"><tspan fill="rgb(0,0,0)" stroke="none">50000</tspan></tspan></tspan></text>
 <text class="TextShape"><tspan class="TextParagraph" font-family="Liberation Sans, sans-serif" font-size="353px" font-weight="400"><tspan class="TextPosition" x="6432" y="8947"><tspan fill="rgb(0,0,0)" stroke="none">100000</tspan></tspan></tspan></text>
 <text class="TextShape"><tspan class="TextParagraph" font-family="Liberation Sans, sans-serif" font-size="353px" font-weight="400"><tspan class="TextPosition" x="8894" y="8947"><tspan fill="rgb(0,0,0)" stroke="none">150000</tspan></tspan></tspan></text>
 <text class="TextShape"><tspan class="TextParagraph" font-family="Liberation Sans, sans-serif" font-size="353px" font-weight="400"><tspan class="TextPosition" x="11356" y="8947"><tspan fill="rgb(0,0,0)" stroke="none">200000</tspan></tspan></tspan></text>
 <text class="TextShape"><tspan class="TextParagraph" font-family="Liberation Sans, sans-serif" font-size="353px" font-weight="400"><tspan class="TextPosition" x="13818" y="8947"><tspan fill="rgb(0,0,0)" stroke="none">250000</tspan></tspan></tspan></text>
 <text class="TextShape"><tspan class="TextParagraph" font-family="Liberation Sans, sans-serif" font-size="353px" font-weight="400"><tspan class="TextPosition" x="1258" y="8539"><tspan fill="rgb(0,0,0)" stroke="none">400</tspan></tspan></tspan></text>
 <text class="TextShape"><tspan class="TextParagraph" font-family="Liberation Sans, sans-serif" font-size="353px" font-weight="400"><tspan class="TextPosition" x="1258" y="7833"><tspan fill="rgb(0,0,0)" stroke="none">410</tspan></tspan></tspan></text>
 <text class="TextShape"><tspan class="TextParagraph" font-family="Liberation Sans, sans-serif" font-size="353px" font-weight="400"><tspan class="TextPosition" x="1258" y="7127"><tspan fill="rgb(0,0,0)" stroke="none">420</tspan></tspan></tspan></text>
 <text class="TextShape"><tspan class="TextParagraph" font-family="Liberation Sans, sans-serif" font-size="353px" font-weight="400"><tspan class="TextPosition" x="1258" y="6421"><tspan fill="rgb(0,0,0)" stroke="none">430</tspan></tspan></tspan></text>
 <text class="TextShape"><tspan class="TextParagraph" font-family="Liberation Sans, sans-serif" font-size="353px" font-weight="400"><tspan class="TextPosition" x="1258" y="5715"><tspan fill="rgb(0,0,0)" stroke="none">440</tspan></tspan></tspan></text>
 <text class="TextShape"><tspan class="TextParagraph" font-family="Liberation Sans, sans-serif" font-size="353px" font-weight="400"><tspan class="TextPosition" x="1258" y="5009"><tspan fill="rgb(0,0,0)" stroke="none">450</tspan></tspan></tspan></text>
 <text class="TextShape"><tspan class="TextParagraph" font-family="Liberation Sans, sans-serif" font-size="353px" font-weight="400"><tspan class="TextPosition" x="1258" y="4303"><tspan fill="rgb(0,0,0)" stroke="none">460</tspan></tspan></tspan></text>
 <text class="TextShape"><tspan class="TextParagraph" font-family="Liberation Sans, sans-serif" font-size="353px" font-weight="400"><tspan class="TextPosition" x="1258" y="3597"><tspan fill="rgb(0,0,0)" stroke="none">470</tspan></tspan></tspan></text>
 <text class="TextShape"><tspan class="TextParagraph" font-family="Liberation Sans, sans-serif" font-size="353px" font-weight="400"><tspan class="TextPosition" x="1258" y="2891"><tspan fill="rgb(0,0,0)" stroke="none">480</tspan></tspan></tspan></text>
 <text class="TextShape"><tspan class="TextParagraph" font-family="Liberation Sans, sans-serif" font-size="353px" font-weight="400"><tspan class="TextPosition" x="1258" y="2185"><tspan fill="rgb(0,0,0)" stroke="none">490</tspan></tspan></tspan></text>
 <text class="TextShape"><tspan class="TextParagraph" font-family="Liberation Sans, sans-serif" font-size="353px" font-weight="400"><tspan class="TextPosition" x="1258" y="1480"><tspan fill="rgb(0,0,0)" stroke="none">500</tspan></tspan></tspan></text>
 <text class="TextShape"><tspan class="TextParagraph" font-family="Liberation Sans, sans-serif" font-size="459px" font-weight="400"><tspan class="TextPosition" x="3222" y="794"><tspan fill="rgb(0,0,0)" stroke="none">Total pressure at outlet patch  (2.4 seconds)</tspan></tspan></tspan></text>
 <text class="TextShape"><tspan class="TextParagraph" font-family="Liberation Sans, sans-serif" font-size="318px" font-weight="400"><tspan class="TextPosition" x="7128" y="9565"><tspan fill="rgb(0,0,0)" stroke="none">Cells number</tspan></tspan></tspan></text>
 <text class="TextShape" transform="translate(778,6722) rotate(-90) translate(-778,-6722)"><tspan class="TextParagraph" font-family="Liberation Sans, sans-serif" font-size="318px" font-weight="400"><tspan class="TextPosition" x="778" y="6722"><tspan fill="rgb(0,0,0)" stroke="none">Relative pressure [Pa]</tspan></tspan></tspan></text>
</svg>