<?xml version="1.0" encoding="UTF-8"?>
<!DOCTYPE svg PUBLIC "-//W3C//DTD SVG 1.1//EN" "http://www.w3.org/Graphics/SVG/1.1/DTD/svg11.dtd">
<svg width="152mm" height="102mm" viewBox="0 0 15200 10200" version="1.1" xmlns="http://www.w3.org/2000/svg" stroke-width="28.222" stroke-linejoin="round" xml:space="preserve">
 <path fill="rgb(255,255,255)" stroke="none" d="M 7614,10160 L -6,10160 -6,0 15234,0 15234,10160 7614,10160 Z"/>
 <path fill="none" stroke="rgb(179,179,179)" stroke-linejoin="round" d="M 8033,8460 L 1878,8460 1878,1242 14188,1242 14188,8460 8033,8460 Z"/>
 <path fill="none" stroke="rgb(179,179,179)" stroke-linejoin="round" d="M 14188,8459 L 1878,8459"/>
 <path fill="none" stroke="rgb(179,179,179)" stroke-linejoin="round" d="M 14188,7496 L 1878,7496"/>
 <path fill="none" stroke="rgb(179,179,179)" stroke-linejoin="round" d="M 14188,6533 L 1878,6533"/>
 <path fill="none" stroke="rgb(179,179,179)" stroke-linejoin="round" d="M 14188,5571 L 1878,5571"/>
 <path fill="none" stroke="rgb(179,179,179)" stroke-linejoin="round" d="M 14188,4609 L 1878,4609"/>
 <path fill="none" stroke="rgb(179,179,179)" stroke-linejoin="round" d="M 14188,3647 L 1878,3647"/>
 <path fill="none" stroke="rgb(179,179,179)" stroke-linejoin="round" d="M 14188,2684 L 1878,2684"/>
 <path fill="none" stroke="rgb(179,179,179)" stroke-linejoin="round" d="M 14188,1722 L 1878,1722"/>
 <path fill="none" stroke="rgb(179,179,179)" stroke-linejoin="round" d="M 1878,8609 L 1878,8459"/>
 <path fill="none" stroke="rgb(179,179,179)" stroke-linejoin="round" d="M 1878,8609 L 1878,8459"/>
 <path fill="none" stroke="rgb(179,179,179)" stroke-linejoin="round" d="M 4340,8609 L 4340,8459"/>
 <path fill="none" stroke="rgb(179,179,179)" stroke-linejoin="round" d="M 4340,8609 L 4340,8459"/>
 <path fill="none" stroke="rgb(179,179,179)" stroke-linejoin="round" d="M 6802,8609 L 6802,8459"/>
 <path fill="none" stroke="rgb(179,179,179)" stroke-linejoin="round" d="M 6802,8609 L 6802,8459"/>
 <path fill="none" stroke="rgb(179,179,179)" stroke-linejoin="round" d="M 9263,8609 L 9263,8459"/>
 <path fill="none" stroke="rgb(179,179,179)" stroke-linejoin="round" d="M 9263,8609 L 9263,8459"/>
 <path fill="none" stroke="rgb(179,179,179)" stroke-linejoin="round" d="M 11725,8609 L 11725,8459"/>
 <path fill="none" stroke="rgb(179,179,179)" stroke-linejoin="round" d="M 11725,8609 L 11725,8459"/>
 <path fill="none" stroke="rgb(179,179,179)" stroke-linejoin="round" d="M 14188,8609 L 14188,8459"/>
 <path fill="none" stroke="rgb(179,179,179)" stroke-linejoin="round" d="M 14188,8609 L 14188,8459"/>
 <path fill="none" stroke="rgb(179,179,179)" stroke-linejoin="round" d="M 1878,8459 L 14188,8459"/>
 <path fill="none" stroke="rgb(179,179,179)" stroke-linejoin="round" d="M 1728,8459 L 1878,8459"/>
 <path fill="none" stroke="rgb(179,179,179)" stroke-linejoin="round" d="M 1728,8459 L 1878,8459"/>
 <path fill="none" stroke="rgb(179,179,179)" stroke-linejoin="round" d="M 1728,7496 L 1878,7496"/>
 <path fill="none" stroke="rgb(179,179,179)" stroke-linejoin="round" d="M 1728,7496 L 1878,7496"/>
 <path fill="none" stroke="rgb(179,179,179)" stroke-linejoin="round" d="M 1728,6533 L 1878,6533"/>
 <path fill="none" stroke="rgb(179,179,179)" stroke-linejoin="round" d="M 1728,6533 L 1878,6533"/>
 <path fill="none" stroke="rgb(179,179,179)" stroke-linejoin="round" d="M 1728,5571 L 1878,5571"/>
 <path fill="none" stroke="rgb(179,179,179)" stroke-linejoin="round" d="M 1728,5571 L 1878,5571"/>
 <path fill="none" stroke="rgb(179,179,179)" stroke-linejoin="round" d="M 1728,4609 L 1878,4609"/>
 <path fill="none" stroke="rgb(179,179,179)" stroke-linejoin="round" d="M 1728,4609 L 1878,4609"/>
 <path fill="none" stroke="rgb(179,179,179)" stroke-linejoin="round" d="M 1728,3647 L 1878,3647"/>
 <path fill="none" stroke="rgb(179,179,179)" stroke-linejoin="round" d="M 1728,3647 L 1878,3647"/>
 <path fill="none" stroke="rgb(179,179,179)" stroke-linejoin="round" d="M 1728,2684 L 1878,2684"/>
 <path fill="none" stroke="rgb(179,179,179)" stroke-linejoin="round" d="M 1728,2684 L 1878,2684"/>
 <path fill="none" stroke="rgb(179,179,179)" stroke-linejoin="round" d="M 1728,1722 L 1878,1722"/>
 <path fill="none" stroke="rgb(179,179,179)" stroke-linejoin="round" d="M 1728,1722 L 1878,1722"/>
 <path fill="none" stroke="rgb(179,179,179)" stroke-linejoin="round" d="M 1878,8459 L 1878,1241"/>
 <path fill="none" stroke="rgb(0,69,134)" stroke-width="80" stroke-linejoin="round" d="M 2386,4146 L 3122,4182 4063,4397 5166,4767 8001,5337 11562,5374"/>
 <path fill="rgb(0,69,134)" stroke="none" d="M 2261,4021 L 2261,4271 2511,4271 2511,4021 2261,4021 Z"/>
 <path fill="none" stroke="rgb(0,69,134)" stroke-linejoin="round" d="M 2261,4021 L 2261,4271 2511,4271 2511,4021 2261,4021 Z"/>
 <path fill="rgb(0,69,134)" stroke="none" d="M 2997,4057 L 2997,4307 3247,4307 3247,4057 2997,4057 Z"/>
 <path fill="none" stroke="rgb(0,69,134)" stroke-linejoin="round" d="M 2997,4057 L 2997,4307 3247,4307 3247,4057 2997,4057 Z"/>
 <path fill="rgb(0,69,134)" stroke="none" d="M 3938,4272 L 3938,4522 4188,4522 4188,4272 3938,4272 Z"/>
 <path fill="none" stroke="rgb(0,69,134)" stroke-linejoin="round" d="M 3938,4272 L 3938,4522 4188,4522 4188,4272 3938,4272 Z"/>
 <path fill="rgb(0,69,134)" stroke="none" d="M 5041,4642 L 5041,4892 5291,4892 5291,4642 5041,4642 Z"/>
 <path fill="none" stroke="rgb(0,69,134)" stroke-linejoin="round" d="M 5041,4642 L 5041,4892 5291,4892 5291,4642 5041,4642 Z"/>
 <path fill="rgb(0,69,134)" stroke="none" d="M 7876,5212 L 7876,5462 8126,5462 8126,5212 7876,5212 Z"/>
 <path fill="none" stroke="rgb(0,69,134)" stroke-linejoin="round" d="M 7876,5212 L 7876,5462 8126,5462 8126,5212 7876,5212 Z"/>
 <path fill="rgb(0,69,134)" stroke="none" d="M 11437,5249 L 11437,5499 11687,5499 11687,5249 11437,5249 Z"/>
 <path fill="none" stroke="rgb(0,69,134)" stroke-linejoin="round" d="M 11437,5249 L 11437,5499 11687,5499 11687,5249 11437,5249 Z"/>
 <text class="TextShape"><tspan class="TextParagraph" font-family="Liberation Sans, sans-serif" font-size="353px" font-weight="400"><tspan class="TextPosition" x="1785" y="8947"><tspan fill="rgb(0,0,0)" stroke="none">0</tspan></tspan></tspan></text>
 <text class="TextShape"><tspan class="TextParagraph" font-family="Liberation Sans, sans-serif" font-size="353px" font-weight="400"><tspan class="TextPosition" x="3877" y="8947"><tspan fill="rgb(0,0,0)" stroke="none">50000</tspan></tspan></tspan></text>
 <text class="TextShape"><tspan class="TextParagraph" font-family="Liberation Sans, sans-serif" font-size="353px" font-weight="400"><tspan class="TextPosition" x="6246" y="8947"><tspan fill="rgb(0,0,0)" stroke="none">100000</tspan></tspan></tspan></text>
 <text class="TextShape"><tspan class="TextParagraph" font-family="Liberation Sans, sans-serif" font-size="353px" font-weight="400"><tspan class="TextPosition" x="8708" y="8947"><tspan fill="rgb(0,0,0)" stroke="none">150000</tspan></tspan></tspan></text>
 <text class="TextShape"><tspan class="TextParagraph" font-family="Liberation Sans, sans-serif" font-size="353px" font-weight="400"><tspan class="TextPosition" x="11170" y="8947"><tspan fill="rgb(0,0,0)" stroke="none">200000</tspan></tspan></tspan></text>
 <text class="TextShape"><tspan class="TextParagraph" font-family="Liberation Sans, sans-serif" font-size="353px" font-weight="400"><tspan class="TextPosition" x="13633" y="8947"><tspan fill="rgb(0,0,0)" stroke="none">250000</tspan></tspan></tspan></text>
 <text class="TextShape"><tspan class="TextParagraph" font-family="Liberation Sans, sans-serif" font-size="353px" font-weight="400"><tspan class="TextPosition" x="1258" y="8539"><tspan fill="rgb(0,0,0)" stroke="none">50</tspan></tspan></tspan></text>
 <text class="TextShape"><tspan class="TextParagraph" font-family="Liberation Sans, sans-serif" font-size="353px" font-weight="400"><tspan class="TextPosition" x="1258" y="7576"><tspan fill="rgb(0,0,0)" stroke="none">70</tspan></tspan></tspan></text>
 <text class="TextShape"><tspan class="TextParagraph" font-family="Liberation Sans, sans-serif" font-size="353px" font-weight="400"><tspan class="TextPosition" x="1258" y="6613"><tspan fill="rgb(0,0,0)" stroke="none">90</tspan></tspan></tspan></text>
 <text class="TextShape"><tspan class="TextParagraph" font-family="Liberation Sans, sans-serif" font-size="353px" font-weight="400"><tspan class="TextPosition" x="1072" y="5651"><tspan fill="rgb(0,0,0)" stroke="none">110</tspan></tspan></tspan></text>
 <text class="TextShape"><tspan class="TextParagraph" font-family="Liberation Sans, sans-serif" font-size="353px" font-weight="400"><tspan class="TextPosition" x="1072" y="4688"><tspan fill="rgb(0,0,0)" stroke="none">130</tspan></tspan></tspan></text>
 <text class="TextShape"><tspan class="TextParagraph" font-family="Liberation Sans, sans-serif" font-size="353px" font-weight="400"><tspan class="TextPosition" x="1072" y="3726"><tspan fill="rgb(0,0,0)" stroke="none">150</tspan></tspan></tspan></text>
 <text class="TextShape"><tspan class="TextParagraph" font-family="Liberation Sans, sans-serif" font-size="353px" font-weight="400"><tspan class="TextPosition" x="1072" y="2763"><tspan fill="rgb(0,0,0)" stroke="none">170</tspan></tspan></tspan></text>
 <text class="TextShape"><tspan class="TextParagraph" font-family="Liberation Sans, sans-serif" font-size="353px" font-weight="400"><tspan class="TextPosition" x="1072" y="1801"><tspan fill="rgb(0,0,0)" stroke="none">190</tspan></tspan></tspan></text>
 <text class="TextShape"><tspan class="TextParagraph" font-family="Liberation Sans, sans-serif" font-size="459px" font-weight="400"><tspan class="TextPosition" x="2613" y="794"><tspan fill="rgb(0,0,0)" stroke="none">Total pressure drop at 2.4 seconds (constant inlet)</tspan></tspan></tspan></text>
 <text class="TextShape"><tspan class="TextParagraph" font-family="Liberation Sans, sans-serif" font-size="318px" font-weight="400"><tspan class="TextPosition" x="7128" y="9565"><tspan fill="rgb(0,0,0)" stroke="none">Cells number</tspan></tspan></tspan></text>
 <text class="TextShape" transform="translate(778,6722) rotate(-90) translate(-778,-6722)"><tspan class="TextParagraph" font-family="Liberation Sans, sans-serif" font-size="318px" font-weight="400"><tspan class="TextPosition" x="778" y="6722"><tspan fill="rgb(0,0,0)" stroke="none">Relative pressure [Pa]</tspan></tspan></tspan></text>
</svg>