<?xml version="1.0" encoding="UTF-8"?>
<!DOCTYPE svg PUBLIC "-//W3C//DTD SVG 1.1//EN" "http://www.w3.org/Graphics/SVG/1.1/DTD/svg11.dtd">
<svg width="152mm" height="102mm" viewBox="0 0 15200 10200" version="1.1" xmlns="http://www.w3.org/2000/svg" stroke-width="28.222" stroke-linejoin="round" xml:space="preserve">
 <path fill="rgb(255,255,255)" stroke="none" d="M 7619,10160 L -1,10160 -1,0 15239,0 15239,10160 7619,10160 Z"/>
 <path fill="none" stroke="rgb(179,179,179)" stroke-linejoin="round" d="M 8223,8460 L 2069,8460 2069,1242 14378,1242 14378,8460 8223,8460 Z"/>
 <path fill="none" stroke="rgb(179,179,179)" stroke-linejoin="round" d="M 14378,8459 L 2069,8459"/>
 <path fill="none" stroke="rgb(179,179,179)" stroke-linejoin="round" d="M 14378,7496 L 2069,7496"/>
 <path fill="none" stroke="rgb(179,179,179)" stroke-linejoin="round" d="M 14378,6533 L 2069,6533"/>
 <path fill="none" stroke="rgb(179,179,179)" stroke-linejoin="round" d="M 14378,5571 L 2069,5571"/>
 <path fill="none" stroke="rgb(179,179,179)" stroke-linejoin="round" d="M 14378,4609 L 2069,4609"/>
 <path fill="none" stroke="rgb(179,179,179)" stroke-linejoin="round" d="M 14378,3647 L 2069,3647"/>
 <path fill="none" stroke="rgb(179,179,179)" stroke-linejoin="round" d="M 14378,2684 L 2069,2684"/>
 <path fill="none" stroke="rgb(179,179,179)" stroke-linejoin="round" d="M 14378,1722 L 2069,1722"/>
 <path fill="none" stroke="rgb(179,179,179)" stroke-linejoin="round" d="M 2069,8609 L 2069,8459"/>
 <path fill="none" stroke="rgb(179,179,179)" stroke-linejoin="round" d="M 2069,8609 L 2069,8459"/>
 <path fill="none" stroke="rgb(179,179,179)" stroke-linejoin="round" d="M 4531,8609 L 4531,8459"/>
 <path fill="none" stroke="rgb(179,179,179)" stroke-linejoin="round" d="M 4531,8609 L 4531,8459"/>
 <path fill="none" stroke="rgb(179,179,179)" stroke-linejoin="round" d="M 6993,8609 L 6993,8459"/>
 <path fill="none" stroke="rgb(179,179,179)" stroke-linejoin="round" d="M 6993,8609 L 6993,8459"/>
 <path fill="none" stroke="rgb(179,179,179)" stroke-linejoin="round" d="M 9454,8609 L 9454,8459"/>
 <path fill="none" stroke="rgb(179,179,179)" stroke-linejoin="round" d="M 9454,8609 L 9454,8459"/>
 <path fill="none" stroke="rgb(179,179,179)" stroke-linejoin="round" d="M 11916,8609 L 11916,8459"/>
 <path fill="none" stroke="rgb(179,179,179)" stroke-linejoin="round" d="M 11916,8609 L 11916,8459"/>
 <path fill="none" stroke="rgb(179,179,179)" stroke-linejoin="round" d="M 14378,8609 L 14378,8459"/>
 <path fill="none" stroke="rgb(179,179,179)" stroke-linejoin="round" d="M 14378,8609 L 14378,8459"/>
 <path fill="none" stroke="rgb(179,179,179)" stroke-linejoin="round" d="M 2069,8459 L 14378,8459"/>
 <path fill="none" stroke="rgb(179,179,179)" stroke-linejoin="round" d="M 1919,8459 L 2069,8459"/>
 <path fill="none" stroke="rgb(179,179,179)" stroke-linejoin="round" d="M 1919,8459 L 2069,8459"/>
 <path fill="none" stroke="rgb(179,179,179)" stroke-linejoin="round" d="M 1919,7496 L 2069,7496"/>
 <path fill="none" stroke="rgb(179,179,179)" stroke-linejoin="round" d="M 1919,7496 L 2069,7496"/>
 <path fill="none" stroke="rgb(179,179,179)" stroke-linejoin="round" d="M 1919,6533 L 2069,6533"/>
 <path fill="none" stroke="rgb(179,179,179)" stroke-linejoin="round" d="M 1919,6533 L 2069,6533"/>
 <path fill="none" stroke="rgb(179,179,179)" stroke-linejoin="round" d="M 1919,5571 L 2069,5571"/>
 <path fill="none" stroke="rgb(179,179,179)" stroke-linejoin="round" d="M 1919,5571 L 2069,5571"/>
 <path fill="none" stroke="rgb(179,179,179)" stroke-linejoin="round" d="M 1919,4609 L 2069,4609"/>
 <path fill="none" stroke="rgb(179,179,179)" stroke-linejoin="round" d="M 1919,4609 L 2069,4609"/>
 <path fill="none" stroke="rgb(179,179,179)" stroke-linejoin="round" d="M 1919,3647 L 2069,3647"/>
 <path fill="none" stroke="rgb(179,179,179)" stroke-linejoin="round" d="M 1919,3647 L 2069,3647"/>
 <path fill="none" stroke="rgb(179,179,179)" stroke-linejoin="round" d="M 1919,2684 L 2069,2684"/>
 <path fill="none" stroke="rgb(179,179,179)" stroke-linejoin="round" d="M 1919,2684 L 2069,2684"/>
 <path fill="none" stroke="rgb(179,179,179)" stroke-linejoin="round" d="M 1919,1722 L 2069,1722"/>
 <path fill="none" stroke="rgb(179,179,179)" stroke-linejoin="round" d="M 1919,1722 L 2069,1722"/>
 <path fill="none" stroke="rgb(179,179,179)" stroke-linejoin="round" d="M 2069,8459 L 2069,1241"/>
 <path fill="none" stroke="rgb(0,69,134)" stroke-width="80" stroke-linejoin="round" d="M 2577,4248 L 3313,4473 4254,4538 5357,4764 8191,5102 11752,5418"/>
 <path fill="rgb(0,69,134)" stroke="none" d="M 2452,4123 L 2452,4373 2702,4373 2702,4123 2452,4123 Z"/>
 <path fill="none" stroke="rgb(0,69,134)" stroke-linejoin="round" d="M 2452,4123 L 2452,4373 2702,4373 2702,4123 2452,4123 Z"/>
 <path fill="rgb(0,69,134)" stroke="none" d="M 3188,4348 L 3188,4598 3438,4598 3438,4348 3188,4348 Z"/>
 <path fill="none" stroke="rgb(0,69,134)" stroke-linejoin="round" d="M 3188,4348 L 3188,4598 3438,4598 3438,4348 3188,4348 Z"/>
 <path fill="rgb(0,69,134)" stroke="none" d="M 4129,4413 L 4129,4663 4379,4663 4379,4413 4129,4413 Z"/>
 <path fill="none" stroke="rgb(0,69,134)" stroke-linejoin="round" d="M 4129,4413 L 4129,4663 4379,4663 4379,4413 4129,4413 Z"/>
 <path fill="rgb(0,69,134)" stroke="none" d="M 5232,4639 L 5232,4889 5482,4889 5482,4639 5232,4639 Z"/>
 <path fill="none" stroke="rgb(0,69,134)" stroke-linejoin="round" d="M 5232,4639 L 5232,4889 5482,4889 5482,4639 5232,4639 Z"/>
 <path fill="rgb(0,69,134)" stroke="none" d="M 8066,4978 L 8066,5227 8316,5227 8316,4978 8066,4978 Z"/>
 <path fill="none" stroke="rgb(0,69,134)" stroke-linejoin="round" d="M 8066,4978 L 8066,5227 8316,5227 8316,4978 8066,4978 Z"/>
 <path fill="rgb(0,69,134)" stroke="none" d="M 11627,5293 L 11627,5543 11877,5543 11877,5293 11627,5293 Z"/>
 <path fill="none" stroke="rgb(0,69,134)" stroke-linejoin="round" d="M 11627,5293 L 11627,5543 11877,5543 11877,5293 11627,5293 Z"/>
 <text class="TextShape"><tspan class="TextParagraph" font-family="Liberation Sans, sans-serif" font-size="353px" font-weight="400"><tspan class="TextPosition" x="1976" y="8947"><tspan fill="rgb(0,0,0)" stroke="none">0</tspan></tspan></tspan></text>
 <text class="TextShape"><tspan class="TextParagraph" font-family="Liberation Sans, sans-serif" font-size="353px" font-weight="400"><tspan class="TextPosition" x="4068" y="8947"><tspan fill="rgb(0,0,0)" stroke="none">50000</tspan></tspan></tspan></text>
 <text class="TextShape"><tspan class="TextParagraph" font-family="Liberation Sans, sans-serif" font-size="353px" font-weight="400"><tspan class="TextPosition" x="6437" y="8947"><tspan fill="rgb(0,0,0)" stroke="none">100000</tspan></tspan></tspan></text>
 <text class="TextShape"><tspan class="TextParagraph" font-family="Liberation Sans, sans-serif" font-size="353px" font-weight="400"><tspan class="TextPosition" x="8899" y="8947"><tspan fill="rgb(0,0,0)" stroke="none">150000</tspan></tspan></tspan></text>
 <text class="TextShape"><tspan class="TextParagraph" font-family="Liberation Sans, sans-serif" font-size="353px" font-weight="400"><tspan class="TextPosition" x="11361" y="8947"><tspan fill="rgb(0,0,0)" stroke="none">200000</tspan></tspan></tspan></text>
 <text class="TextShape"><tspan class="TextParagraph" font-family="Liberation Sans, sans-serif" font-size="353px" font-weight="400"><tspan class="TextPosition" x="13823" y="8947"><tspan fill="rgb(0,0,0)" stroke="none">250000</tspan></tspan></tspan></text>
 <text class="TextShape"><tspan class="TextParagraph" font-family="Liberation Sans, sans-serif" font-size="353px" font-weight="400"><tspan class="TextPosition" x="1263" y="8539"><tspan fill="rgb(0,0,0)" stroke="none">100</tspan></tspan></tspan></text>
 <text class="TextShape"><tspan class="TextParagraph" font-family="Liberation Sans, sans-serif" font-size="353px" font-weight="400"><tspan class="TextPosition" x="1263" y="7576"><tspan fill="rgb(0,0,0)" stroke="none">120</tspan></tspan></tspan></text>
 <text class="TextShape"><tspan class="TextParagraph" font-family="Liberation Sans, sans-serif" font-size="353px" font-weight="400"><tspan class="TextPosition" x="1263" y="6613"><tspan fill="rgb(0,0,0)" stroke="none">140</tspan></tspan></tspan></text>
 <text class="TextShape"><tspan class="TextParagraph" font-family="Liberation Sans, sans-serif" font-size="353px" font-weight="400"><tspan class="TextPosition" x="1263" y="5651"><tspan fill="rgb(0,0,0)" stroke="none">160</tspan></tspan></tspan></text>
 <text class="TextShape"><tspan class="TextParagraph" font-family="Liberation Sans, sans-serif" font-size="353px" font-weight="400"><tspan class="TextPosition" x="1263" y="4688"><tspan fill="rgb(0,0,0)" stroke="none">180</tspan></tspan></tspan></text>
 <text class="TextShape"><tspan class="TextParagraph" font-family="Liberation Sans, sans-serif" font-size="353px" font-weight="400"><tspan class="TextPosition" x="1263" y="3726"><tspan fill="rgb(0,0,0)" stroke="none">200</tspan></tspan></tspan></text>
 <text class="TextShape"><tspan class="TextParagraph" font-family="Liberation Sans, sans-serif" font-size="353px" font-weight="400"><tspan class="TextPosition" x="1263" y="2763"><tspan fill="rgb(0,0,0)" stroke="none">220</tspan></tspan></tspan></text>
 <text class="TextShape"><tspan class="TextParagraph" font-family="Liberation Sans, sans-serif" font-size="353px" font-weight="400"><tspan class="TextPosition" x="1263" y="1801"><tspan fill="rgb(0,0,0)" stroke="none">240</tspan></tspan></tspan></text>
 <text class="TextShape"><tspan class="TextParagraph" font-family="Liberation Sans, sans-serif" font-size="459px" font-weight="400"><tspan class="TextPosition" x="4166" y="794"><tspan fill="rgb(0,0,0)" stroke="none">Total pressure drop at 2.4 seconds</tspan></tspan></tspan></text>
 <text class="TextShape"><tspan class="TextParagraph" font-family="Liberation Sans, sans-serif" font-size="318px" font-weight="400"><tspan class="TextPosition" x="7133" y="9565"><tspan fill="rgb(0,0,0)" stroke="none">Cells number</tspan></tspan></tspan></text>
 <text class="TextShape" transform="translate(783,6722) rotate(-90) translate(-783,-6722)"><tspan class="TextParagraph" font-family="Liberation Sans, sans-serif" font-size="318px" font-weight="400"><tspan class="TextPosition" x="783" y="6722"><tspan fill="rgb(0,0,0)" stroke="none">Relative pressure [Pa]</tspan></tspan></tspan></text>
</svg>