<?xml version="1.0" encoding="UTF-8"?>
<!DOCTYPE svg PUBLIC "-//W3C//DTD SVG 1.1//EN" "http://www.w3.org/Graphics/SVG/1.1/DTD/svg11.dtd">
<svg width="152mm" height="102mm" viewBox="0 0 15200 10200" version="1.1" xmlns="http://www.w3.org/2000/svg" stroke-width="28.222" stroke-linejoin="round" xml:space="preserve">
 <path fill="rgb(255,255,255)" stroke="none" d="M 7620,10160 L 0,10160 0,0 15240,0 15240,10160 7620,10160 Z"/>
 <path fill="none" stroke="rgb(179,179,179)" stroke-linejoin="round" d="M 8275,8369 L 2015,8369 2015,1312 14535,1312 14535,8369 8275,8369 Z"/>
 <path fill="none" stroke="rgb(179,179,179)" stroke-linejoin="round" d="M 14535,8368 L 2015,8368"/>
 <path fill="none" stroke="rgb(179,179,179)" stroke-linejoin="round" d="M 14535,7485 L 2015,7485"/>
 <path fill="none" stroke="rgb(179,179,179)" stroke-linejoin="round" d="M 14535,6603 L 2015,6603"/>
 <path fill="none" stroke="rgb(179,179,179)" stroke-linejoin="round" d="M 14535,5721 L 2015,5721"/>
 <path fill="none" stroke="rgb(179,179,179)" stroke-linejoin="round" d="M 14535,4839 L 2015,4839"/>
 <path fill="none" stroke="rgb(179,179,179)" stroke-linejoin="round" d="M 14535,3957 L 2015,3957"/>
 <path fill="none" stroke="rgb(179,179,179)" stroke-linejoin="round" d="M 14535,3075 L 2015,3075"/>
 <path fill="none" stroke="rgb(179,179,179)" stroke-linejoin="round" d="M 14535,2193 L 2015,2193"/>
 <path fill="none" stroke="rgb(179,179,179)" stroke-linejoin="round" d="M 14535,1310 L 2015,1310"/>
 <path fill="none" stroke="rgb(179,179,179)" stroke-linejoin="round" d="M 2015,8518 L 2015,8368"/>
 <path fill="none" stroke="rgb(179,179,179)" stroke-linejoin="round" d="M 2015,8518 L 2015,8368"/>
 <path fill="none" stroke="rgb(179,179,179)" stroke-linejoin="round" d="M 4101,8518 L 4101,8368"/>
 <path fill="none" stroke="rgb(179,179,179)" stroke-linejoin="round" d="M 4101,8518 L 4101,8368"/>
 <path fill="none" stroke="rgb(179,179,179)" stroke-linejoin="round" d="M 6188,8518 L 6188,8368"/>
 <path fill="none" stroke="rgb(179,179,179)" stroke-linejoin="round" d="M 6188,8518 L 6188,8368"/>
 <path fill="none" stroke="rgb(179,179,179)" stroke-linejoin="round" d="M 8274,8518 L 8274,8368"/>
 <path fill="none" stroke="rgb(179,179,179)" stroke-linejoin="round" d="M 8274,8518 L 8274,8368"/>
 <path fill="none" stroke="rgb(179,179,179)" stroke-linejoin="round" d="M 10361,8518 L 10361,8368"/>
 <path fill="none" stroke="rgb(179,179,179)" stroke-linejoin="round" d="M 10361,8518 L 10361,8368"/>
 <path fill="none" stroke="rgb(179,179,179)" stroke-linejoin="round" d="M 12448,8518 L 12448,8368"/>
 <path fill="none" stroke="rgb(179,179,179)" stroke-linejoin="round" d="M 12448,8518 L 12448,8368"/>
 <path fill="none" stroke="rgb(179,179,179)" stroke-linejoin="round" d="M 14535,8518 L 14535,8368"/>
 <path fill="none" stroke="rgb(179,179,179)" stroke-linejoin="round" d="M 14535,8518 L 14535,8368"/>
 <path fill="none" stroke="rgb(179,179,179)" stroke-linejoin="round" d="M 2015,8368 L 14535,8368"/>
 <path fill="none" stroke="rgb(179,179,179)" stroke-linejoin="round" d="M 1865,8368 L 2015,8368"/>
 <path fill="none" stroke="rgb(179,179,179)" stroke-linejoin="round" d="M 1865,8368 L 2015,8368"/>
 <path fill="none" stroke="rgb(179,179,179)" stroke-linejoin="round" d="M 1865,7485 L 2015,7485"/>
 <path fill="none" stroke="rgb(179,179,179)" stroke-linejoin="round" d="M 1865,7485 L 2015,7485"/>
 <path fill="none" stroke="rgb(179,179,179)" stroke-linejoin="round" d="M 1865,6603 L 2015,6603"/>
 <path fill="none" stroke="rgb(179,179,179)" stroke-linejoin="round" d="M 1865,6603 L 2015,6603"/>
 <path fill="none" stroke="rgb(179,179,179)" stroke-linejoin="round" d="M 1865,5721 L 2015,5721"/>
 <path fill="none" stroke="rgb(179,179,179)" stroke-linejoin="round" d="M 1865,5721 L 2015,5721"/>
 <path fill="none" stroke="rgb(179,179,179)" stroke-linejoin="round" d="M 1865,4839 L 2015,4839"/>
 <path fill="none" stroke="rgb(179,179,179)" stroke-linejoin="round" d="M 1865,4839 L 2015,4839"/>
 <path fill="none" stroke="rgb(179,179,179)" stroke-linejoin="round" d="M 1865,3957 L 2015,3957"/>
 <path fill="none" stroke="rgb(179,179,179)" stroke-linejoin="round" d="M 1865,3957 L 2015,3957"/>
 <path fill="none" stroke="rgb(179,179,179)" stroke-linejoin="round" d="M 1865,3075 L 2015,3075"/>
 <path fill="none" stroke="rgb(179,179,179)" stroke-linejoin="round" d="M 1865,3075 L 2015,3075"/>
 <path fill="none" stroke="rgb(179,179,179)" stroke-linejoin="round" d="M 1865,2193 L 2015,2193"/>
 <path fill="none" stroke="rgb(179,179,179)" stroke-linejoin="round" d="M 1865,2193 L 2015,2193"/>
 <path fill="none" stroke="rgb(179,179,179)" stroke-linejoin="round" d="M 1865,1310 L 2015,1310"/>
 <path fill="none" stroke="rgb(179,179,179)" stroke-linejoin="round" d="M 1865,1310 L 2015,1310"/>
 <path fill="none" stroke="rgb(179,179,179)" stroke-linejoin="round" d="M 2015,8368 L 2015,1310"/>
 <path fill="none" stroke="rgb(0,69,134)" stroke-width="80" stroke-linejoin="round" d="M 4101,4674 L 6188,4829 8274,4903 10361,4879 12448,4968"/>
 <path fill="rgb(0,69,134)" stroke="none" d="M 3976,4549 L 3976,4799 4226,4799 4226,4549 3976,4549 Z"/>
 <path fill="none" stroke="rgb(0,69,134)" stroke-linejoin="round" d="M 3976,4549 L 3976,4799 4226,4799 4226,4549 3976,4549 Z"/>
 <path fill="rgb(0,69,134)" stroke="none" d="M 6063,4704 L 6063,4954 6313,4954 6313,4704 6063,4704 Z"/>
 <path fill="none" stroke="rgb(0,69,134)" stroke-linejoin="round" d="M 6063,4704 L 6063,4954 6313,4954 6313,4704 6063,4704 Z"/>
 <path fill="rgb(0,69,134)" stroke="none" d="M 8149,4778 L 8149,5028 8399,5028 8399,4778 8149,4778 Z"/>
 <path fill="none" stroke="rgb(0,69,134)" stroke-linejoin="round" d="M 8149,4778 L 8149,5028 8399,5028 8399,4778 8149,4778 Z"/>
 <path fill="rgb(0,69,134)" stroke="none" d="M 10236,4754 L 10236,5004 10486,5004 10486,4754 10236,4754 Z"/>
 <path fill="none" stroke="rgb(0,69,134)" stroke-linejoin="round" d="M 10236,4754 L 10236,5004 10486,5004 10486,4754 10236,4754 Z"/>
 <path fill="rgb(0,69,134)" stroke="none" d="M 12323,4843 L 12323,5092 12573,5092 12573,4843 12323,4843 Z"/>
 <path fill="none" stroke="rgb(0,69,134)" stroke-linejoin="round" d="M 12323,4843 L 12323,5092 12573,5092 12573,4843 12323,4843 Z"/>
 <text class="TextShape"><tspan class="TextParagraph" font-family="Liberation Sans, sans-serif" font-size="353px" font-weight="400"><tspan class="TextPosition" x="1922" y="8856"><tspan fill="rgb(0,0,0)" stroke="none">1</tspan></tspan></tspan></text>
 <text class="TextShape"><tspan class="TextParagraph" font-family="Liberation Sans, sans-serif" font-size="353px" font-weight="400"><tspan class="TextPosition" x="4008" y="8856"><tspan fill="rgb(0,0,0)" stroke="none">2</tspan></tspan></tspan></text>
 <text class="TextShape"><tspan class="TextParagraph" font-family="Liberation Sans, sans-serif" font-size="353px" font-weight="400"><tspan class="TextPosition" x="6095" y="8856"><tspan fill="rgb(0,0,0)" stroke="none">3</tspan></tspan></tspan></text>
 <text class="TextShape"><tspan class="TextParagraph" font-family="Liberation Sans, sans-serif" font-size="353px" font-weight="400"><tspan class="TextPosition" x="8182" y="8856"><tspan fill="rgb(0,0,0)" stroke="none">4</tspan></tspan></tspan></text>
 <text class="TextShape"><tspan class="TextParagraph" font-family="Liberation Sans, sans-serif" font-size="353px" font-weight="400"><tspan class="TextPosition" x="10269" y="8856"><tspan fill="rgb(0,0,0)" stroke="none">5</tspan></tspan></tspan></text>
 <text class="TextShape"><tspan class="TextParagraph" font-family="Liberation Sans, sans-serif" font-size="353px" font-weight="400"><tspan class="TextPosition" x="12356" y="8856"><tspan fill="rgb(0,0,0)" stroke="none">6</tspan></tspan></tspan></text>
 <text class="TextShape"><tspan class="TextParagraph" font-family="Liberation Sans, sans-serif" font-size="353px" font-weight="400"><tspan class="TextPosition" x="14443" y="8856"><tspan fill="rgb(0,0,0)" stroke="none">7</tspan></tspan></tspan></text>
 <text class="TextShape"><tspan class="TextParagraph" font-family="Liberation Sans, sans-serif" font-size="353px" font-weight="400"><tspan class="TextPosition" x="1289" y="8448"><tspan fill="rgb(0,0,0)" stroke="none">4.3</tspan></tspan></tspan></text>
 <text class="TextShape"><tspan class="TextParagraph" font-family="Liberation Sans, sans-serif" font-size="353px" font-weight="400"><tspan class="TextPosition" x="1104" y="7565"><tspan fill="rgb(0,0,0)" stroke="none">4.35</tspan></tspan></tspan></text>
 <text class="TextShape"><tspan class="TextParagraph" font-family="Liberation Sans, sans-serif" font-size="353px" font-weight="400"><tspan class="TextPosition" x="1289" y="6683"><tspan fill="rgb(0,0,0)" stroke="none">4.4</tspan></tspan></tspan></text>
 <text class="TextShape"><tspan class="TextParagraph" font-family="Liberation Sans, sans-serif" font-size="353px" font-weight="400"><tspan class="TextPosition" x="1104" y="5801"><tspan fill="rgb(0,0,0)" stroke="none">4.45</tspan></tspan></tspan></text>
 <text class="TextShape"><tspan class="TextParagraph" font-family="Liberation Sans, sans-serif" font-size="353px" font-weight="400"><tspan class="TextPosition" x="1289" y="4918"><tspan fill="rgb(0,0,0)" stroke="none">4.5</tspan></tspan></tspan></text>
 <text class="TextShape"><tspan class="TextParagraph" font-family="Liberation Sans, sans-serif" font-size="353px" font-weight="400"><tspan class="TextPosition" x="1104" y="4036"><tspan fill="rgb(0,0,0)" stroke="none">4.55</tspan></tspan></tspan></text>
 <text class="TextShape"><tspan class="TextParagraph" font-family="Liberation Sans, sans-serif" font-size="353px" font-weight="400"><tspan class="TextPosition" x="1289" y="3154"><tspan fill="rgb(0,0,0)" stroke="none">4.6</tspan></tspan></tspan></text>
 <text class="TextShape"><tspan class="TextParagraph" font-family="Liberation Sans, sans-serif" font-size="353px" font-weight="400"><tspan class="TextPosition" x="1104" y="2272"><tspan fill="rgb(0,0,0)" stroke="none">4.65</tspan></tspan></tspan></text>
 <text class="TextShape"><tspan class="TextParagraph" font-family="Liberation Sans, sans-serif" font-size="353px" font-weight="400"><tspan class="TextPosition" x="1289" y="1389"><tspan fill="rgb(0,0,0)" stroke="none">4.7</tspan></tspan></tspan></text>
 <text class="TextShape"><tspan class="TextParagraph" font-family="Liberation Sans, sans-serif" font-size="459px" font-weight="400"><tspan class="TextPosition" x="6416" y="794"><tspan fill="rgb(0,0,0)" stroke="none">Mean power</tspan></tspan></tspan></text>
 <text class="TextShape"><tspan class="TextParagraph" font-family="Liberation Sans, sans-serif" font-size="318px" font-weight="400"><tspan class="TextPosition" x="6940" y="9474"><tspan fill="rgb(0,0,0)" stroke="none">Turn number</tspan></tspan></tspan></text>
 <text class="TextShape" transform="translate(624,5506) rotate(-90) translate(-624,-5506)"><tspan class="TextParagraph" font-family="Liberation Sans, sans-serif" font-size="318px" font-weight="400"><tspan class="TextPosition" x="624" y="5506"><tspan fill="rgb(0,0,0)" stroke="none">Power</tspan></tspan></tspan></text>
</svg>