<?xml version="1.0" encoding="UTF-8"?>
<!DOCTYPE svg PUBLIC "-//W3C//DTD SVG 1.1//EN" "http://www.w3.org/Graphics/SVG/1.1/DTD/svg11.dtd">
<svg width="152mm" height="102mm" viewBox="0 0 15200 10200" version="1.1" xmlns="http://www.w3.org/2000/svg" stroke-width="28.222" stroke-linejoin="round" xml:space="preserve">
 <path fill="rgb(255,255,255)" stroke="none" d="M 7620,10160 L 0,10160 0,0 15240,0 15240,10160 7620,10160 Z"/>
 <path fill="none" stroke="rgb(179,179,179)" stroke-linejoin="round" d="M 7992,8460 L 1699,8460 1699,364 14286,364 14286,8460 7992,8460 Z"/>
 <path fill="none" stroke="rgb(179,179,179)" stroke-linejoin="round" d="M 1699,363 L 1699,8459"/>
 <path fill="none" stroke="rgb(179,179,179)" stroke-linejoin="round" d="M 4846,363 L 4846,8459"/>
 <path fill="none" stroke="rgb(179,179,179)" stroke-linejoin="round" d="M 7992,363 L 7992,8459"/>
 <path fill="none" stroke="rgb(179,179,179)" stroke-linejoin="round" d="M 11139,363 L 11139,8459"/>
 <path fill="none" stroke="rgb(179,179,179)" stroke-linejoin="round" d="M 14286,363 L 14286,8459"/>
 <path fill="none" stroke="rgb(179,179,179)" stroke-linejoin="round" d="M 14286,8459 L 1699,8459"/>
 <path fill="none" stroke="rgb(179,179,179)" stroke-linejoin="round" d="M 14286,7446 L 1699,7446"/>
 <path fill="none" stroke="rgb(179,179,179)" stroke-linejoin="round" d="M 14286,6434 L 1699,6434"/>
 <path fill="none" stroke="rgb(179,179,179)" stroke-linejoin="round" d="M 14286,5422 L 1699,5422"/>
 <path fill="none" stroke="rgb(179,179,179)" stroke-linejoin="round" d="M 14286,4411 L 1699,4411"/>
 <path fill="none" stroke="rgb(179,179,179)" stroke-linejoin="round" d="M 14286,3399 L 1699,3399"/>
 <path fill="none" stroke="rgb(179,179,179)" stroke-linejoin="round" d="M 14286,2387 L 1699,2387"/>
 <path fill="none" stroke="rgb(179,179,179)" stroke-linejoin="round" d="M 14286,1375 L 1699,1375"/>
 <path fill="none" stroke="rgb(179,179,179)" stroke-linejoin="round" d="M 14286,363 L 1699,363"/>
 <path fill="none" stroke="rgb(179,179,179)" stroke-linejoin="round" d="M 1699,8609 L 1699,8459"/>
 <path fill="none" stroke="rgb(179,179,179)" stroke-linejoin="round" d="M 1699,8609 L 1699,8459"/>
 <path fill="none" stroke="rgb(179,179,179)" stroke-linejoin="round" d="M 4846,8609 L 4846,8459"/>
 <path fill="none" stroke="rgb(179,179,179)" stroke-linejoin="round" d="M 4846,8609 L 4846,8459"/>
 <path fill="none" stroke="rgb(179,179,179)" stroke-linejoin="round" d="M 7992,8609 L 7992,8459"/>
 <path fill="none" stroke="rgb(179,179,179)" stroke-linejoin="round" d="M 7992,8609 L 7992,8459"/>
 <path fill="none" stroke="rgb(179,179,179)" stroke-linejoin="round" d="M 11139,8609 L 11139,8459"/>
 <path fill="none" stroke="rgb(179,179,179)" stroke-linejoin="round" d="M 11139,8609 L 11139,8459"/>
 <path fill="none" stroke="rgb(179,179,179)" stroke-linejoin="round" d="M 14286,8609 L 14286,8459"/>
 <path fill="none" stroke="rgb(179,179,179)" stroke-linejoin="round" d="M 14286,8609 L 14286,8459"/>
 <path fill="none" stroke="rgb(179,179,179)" stroke-linejoin="round" d="M 1699,8459 L 14286,8459"/>
 <path fill="none" stroke="rgb(179,179,179)" stroke-linejoin="round" d="M 1549,8459 L 1699,8459"/>
 <path fill="none" stroke="rgb(179,179,179)" stroke-linejoin="round" d="M 1549,8459 L 1699,8459"/>
 <path fill="none" stroke="rgb(179,179,179)" stroke-linejoin="round" d="M 1549,7446 L 1699,7446"/>
 <path fill="none" stroke="rgb(179,179,179)" stroke-linejoin="round" d="M 1549,7446 L 1699,7446"/>
 <path fill="none" stroke="rgb(179,179,179)" stroke-linejoin="round" d="M 1549,6434 L 1699,6434"/>
 <path fill="none" stroke="rgb(179,179,179)" stroke-linejoin="round" d="M 1549,6434 L 1699,6434"/>
 <path fill="none" stroke="rgb(179,179,179)" stroke-linejoin="round" d="M 1549,5422 L 1699,5422"/>
 <path fill="none" stroke="rgb(179,179,179)" stroke-linejoin="round" d="M 1549,5422 L 1699,5422"/>
 <path fill="none" stroke="rgb(179,179,179)" stroke-linejoin="round" d="M 1549,4411 L 1699,4411"/>
 <path fill="none" stroke="rgb(179,179,179)" stroke-linejoin="round" d="M 1549,4411 L 1699,4411"/>
 <path fill="none" stroke="rgb(179,179,179)" stroke-linejoin="round" d="M 1549,3399 L 1699,3399"/>
 <path fill="none" stroke="rgb(179,179,179)" stroke-linejoin="round" d="M 1549,3399 L 1699,3399"/>
 <path fill="none" stroke="rgb(179,179,179)" stroke-linejoin="round" d="M 1549,2387 L 1699,2387"/>
 <path fill="none" stroke="rgb(179,179,179)" stroke-linejoin="round" d="M 1549,2387 L 1699,2387"/>
 <path fill="none" stroke="rgb(179,179,179)" stroke-linejoin="round" d="M 1549,1375 L 1699,1375"/>
 <path fill="none" stroke="rgb(179,179,179)" stroke-linejoin="round" d="M 1549,1375 L 1699,1375"/>
 <path fill="none" stroke="rgb(179,179,179)" stroke-linejoin="round" d="M 1549,363 L 1699,363"/>
 <path fill="none" stroke="rgb(179,179,179)" stroke-linejoin="round" d="M 1549,363 L 1699,363"/>
 <path fill="none" stroke="rgb(179,179,179)" stroke-linejoin="round" d="M 1699,8459 L 1699,363"/>
 <path fill="none" stroke="rgb(0,69,134)" stroke-width="80" stroke-linejoin="round" d="M 12753,1223 L 12742,1224 12726,1224 12709,1225 12692,1225 12675,1226 12658,1226 12642,1227 12626,1228 12608,1228 12592,1229 12578,1229 12575,1229 12559,1230 12542,1230 12524,1231 12508,1232 12491,1232 12474,1233 12457,1233 12442,1234 12424,1235 12407,1235 12391,1236 12374,1237 12357,1238 12340,1239 12323,1240 12307,1241 12290,1242 12272,1243 12256,1244 12240,1245 12222,1246 12206,1248 12187,1249 12181,1249 12172,1250 12157,1251 12140,1252 12122,1253 12106,1254 12088,1256 12070,1257 12055,1258 12039,1259 12020,1259 12005,1260 11988,1260 11970,1260 11952,1266 11938,1267 11924,1270 11922,1270 11903,1275 11888,1280 11869,1286 11864,1288 11854,1292 11838,1298 11821,1305 11812,1308 11802,1313 11786,1320 11769,1327 11765,1329 11751,1335 11737,1342 11723,1348 11720,1350 11702,1359 11683,1368 11668,1375 11654,1383 11643,1388 11635,1392 11620,1400 11605,1408 11601,1410 11585,1419 11570,1427 11550,1438 11534,1448 11516,1465 11510,1469 11502,1477 11488,1489 11484,1493 11470,1505 11466,1509 11451,1526 11435,1543 11431,1549 11417,1567 11401,1584 11385,1602 11381,1608 11365,1625 11349,1643 11344,1649 11334,1660 11328,1666 11318,1678 11313,1684 11302,1695 11290,1707 11285,1713 11275,1725 11264,1736 11259,1742 11247,1754 11237,1766 11232,1772 11220,1783 11214,1789 11202,1801 11197,1807 11180,1825 11164,1842 11147,1860 11141,1865 11129,1877 11123,1883 11113,1895 11105,1900 11100,1906 11082,1924 11065,1941 11047,1959 11034,1971 11023,1982 11017,1988 11003,2000 10998,2006 10984,2018 10979,2023 10965,2035 10959,2041 10948,2053 10940,2059 10928,2070 10914,2082 10896,2100 10882,2111 10876,2117 10862,2129 10850,2141 10843,2146 10829,2158 10810,2176 10795,2187 10783,2199 10774,2205 10761,2217 10746,2228 10740,2234 10727,2246 10711,2258 10698,2269 10688,2279 10681,2289 10673,2300 10663,2310 10655,2321 10647,2331 10639,2342 10629,2352 10613,2373 10595,2394 10579,2415 10560,2436 10544,2457 10525,2478 10508,2499 10489,2520 10481,2531 10472,2541 10464,2552 10456,2562 10444,2573 10427,2594 10407,2615 10390,2636 10369,2657 10360,2667 10352,2678 10343,2688 10322,2709 10313,2720 10304,2730 10292,2741 10283,2751 10273,2762 10264,2772 10252,2783 10243,2793 10221,2814 10211,2825 10202,2835 10192,2846 10170,2867 10160,2877 10151,2888 10138,2898 10128,2909 10108,2930 10095,2940 10085,2951 10075,2961 10065,2972 10051,2982 10041,2993 10031,3003 10021,3014 10007,3024 9986,3045 9975,3056 9965,3066 9951,3076 9940,3087 9919,3108 9904,3118 9893,3129 9871,3150 9856,3160 9834,3181 9823,3192 9807,3202 9784,3223 9773,3234 9757,3244 9734,3265 9722,3276 9706,3286 9682,3307 9668,3325 9650,3342 9636,3359 9621,3376 9602,3394 9588,3411 9574,3428 9559,3446 9540,3463 9525,3480 9510,3497 9496,3515 9475,3532 9460,3549 9445,3567 9430,3584 9409,3601 9394,3618 9378,3636 9362,3653 9341,3670 9325,3688 9309,3705 9293,3722 9271,3739 9255,3757 9238,3774 9221,3791 9204,3809 9182,3826 9165,3843 9147,3860 9130,3878 9106,3895 9089,3912 9071,3930 9053,3947 9028,3964 9010,3981 8992,3999 8973,4016 8948,4033 8929,4051 8909,4068 8890,4085 8864,4102 8844,4120 8824,4137 8804,4154 8777,4172 8756,4189 8736,4206 8707,4223 8686,4241 8665,4258 8643,4275 8613,4293 8591,4310 8569,4327 8546,4344 8515,4362 8492,4379 8469,4396 8445,4414 8412,4431 8388,4448 8363,4465 8339,4483 8304,4500 8278,4517 8253,4535 8226,4552 8190,4569 8163,4586 8135,4604 8101,4641 8063,4685 8013,4730 7974,4775 7934,4819 7893,4864 7840,4909 7798,4954 7756,4998 7712,5043 7655,5087 7611,5131 7565,5176 7519,5221 7457,5266 7408,5310 7358,5355 7308,5400 7240,5444 7187,5489 7133,5534 7078,5579 7004,5623 6946,5668 6886,5713 6805,5757 6742,5802 6678,5847 6611,5892 6508,5960 6424,6028 6337,6095 6248,6163 6129,6231 6032,6299 5931,6367 5827,6434 5686,6502 5571,6570 5451,6638 5325,6706 5153,6773 5011,6841 4837,6936 4639,7044 4369,7152 4132,7261 3872,7369 3586,7477 3177,7585 2785,7702 2307,7828 1728,7954 1699,7959"/>
 <text class="TextShape"><tspan class="TextParagraph" font-family="Liberation Sans, sans-serif" font-size="353px" font-weight="400"><tspan class="TextPosition" x="1606" y="8947"><tspan fill="rgb(0,0,0)" stroke="none">1</tspan></tspan></tspan></text>
 <text class="TextShape"><tspan class="TextParagraph" font-family="Liberation Sans, sans-serif" font-size="353px" font-weight="400"><tspan class="TextPosition" x="4661" y="8947"><tspan fill="rgb(0,0,0)" stroke="none">10</tspan></tspan></tspan></text>
 <text class="TextShape"><tspan class="TextParagraph" font-family="Liberation Sans, sans-serif" font-size="353px" font-weight="400"><tspan class="TextPosition" x="7715" y="8947"><tspan fill="rgb(0,0,0)" stroke="none">100</tspan></tspan></tspan></text>
 <text class="TextShape"><tspan class="TextParagraph" font-family="Liberation Sans, sans-serif" font-size="353px" font-weight="400"><tspan class="TextPosition" x="10769" y="8947"><tspan fill="rgb(0,0,0)" stroke="none">1000</tspan></tspan></tspan></text>
 <text class="TextShape"><tspan class="TextParagraph" font-family="Liberation Sans, sans-serif" font-size="353px" font-weight="400"><tspan class="TextPosition" x="13824" y="8947"><tspan fill="rgb(0,0,0)" stroke="none">10000</tspan></tspan></tspan></text>
 <text class="TextShape"><tspan class="TextParagraph" font-family="Liberation Sans, sans-serif" font-size="353px" font-weight="400"><tspan class="TextPosition" x="1264" y="8539"><tspan fill="rgb(0,0,0)" stroke="none">0</tspan></tspan></tspan></text>
 <text class="TextShape"><tspan class="TextParagraph" font-family="Liberation Sans, sans-serif" font-size="353px" font-weight="400"><tspan class="TextPosition" x="1264" y="7526"><tspan fill="rgb(0,0,0)" stroke="none">2</tspan></tspan></tspan></text>
 <text class="TextShape"><tspan class="TextParagraph" font-family="Liberation Sans, sans-serif" font-size="353px" font-weight="400"><tspan class="TextPosition" x="1264" y="6514"><tspan fill="rgb(0,0,0)" stroke="none">4</tspan></tspan></tspan></text>
 <text class="TextShape"><tspan class="TextParagraph" font-family="Liberation Sans, sans-serif" font-size="353px" font-weight="400"><tspan class="TextPosition" x="1264" y="5502"><tspan fill="rgb(0,0,0)" stroke="none">6</tspan></tspan></tspan></text>
 <text class="TextShape"><tspan class="TextParagraph" font-family="Liberation Sans, sans-serif" font-size="353px" font-weight="400"><tspan class="TextPosition" x="1264" y="4490"><tspan fill="rgb(0,0,0)" stroke="none">8</tspan></tspan></tspan></text>
 <text class="TextShape"><tspan class="TextParagraph" font-family="Liberation Sans, sans-serif" font-size="353px" font-weight="400"><tspan class="TextPosition" x="1079" y="3478"><tspan fill="rgb(0,0,0)" stroke="none">10</tspan></tspan></tspan></text>
 <text class="TextShape"><tspan class="TextParagraph" font-family="Liberation Sans, sans-serif" font-size="353px" font-weight="400"><tspan class="TextPosition" x="1079" y="2466"><tspan fill="rgb(0,0,0)" stroke="none">12</tspan></tspan></tspan></text>
 <text class="TextShape"><tspan class="TextParagraph" font-family="Liberation Sans, sans-serif" font-size="353px" font-weight="400"><tspan class="TextPosition" x="1079" y="1454"><tspan fill="rgb(0,0,0)" stroke="none">14</tspan></tspan></tspan></text>
 <text class="TextShape"><tspan class="TextParagraph" font-family="Liberation Sans, sans-serif" font-size="353px" font-weight="400"><tspan class="TextPosition" x="1079" y="442"><tspan fill="rgb(0,0,0)" stroke="none">16</tspan></tspan></tspan></text>
 <text class="TextShape"><tspan class="TextParagraph" font-family="Liberation Sans, sans-serif" font-size="318px" font-weight="400"><tspan class="TextPosition" x="7928" y="9565"><tspan fill="rgb(0,0,0)" stroke="none">y+</tspan></tspan></tspan></text>
 <text class="TextShape" transform="translate(784,4827) rotate(-90) translate(-784,-4827)"><tspan class="TextParagraph" font-family="Liberation Sans, sans-serif" font-size="318px" font-weight="400"><tspan class="TextPosition" x="784" y="4827"><tspan fill="rgb(0,0,0)" stroke="none">U+</tspan></tspan></tspan></text>
</svg>