<?xml version="1.0" encoding="UTF-8"?>
<!DOCTYPE svg PUBLIC "-//W3C//DTD SVG 1.1//EN" "http://www.w3.org/Graphics/SVG/1.1/DTD/svg11.dtd">
<svg width="152mm" height="102mm" viewBox="0 0 15200 10200" version="1.1" xmlns="http://www.w3.org/2000/svg" stroke-width="28.222" stroke-linejoin="round" xml:space="preserve">
 <path fill="rgb(255,255,255)" stroke="none" d="M 7708,10160 L 88,10160 88,0 15328,0 15328,10160 7708,10160 Z"/>
 <path fill="none" stroke="rgb(179,179,179)" stroke-linejoin="round" d="M 7131,8869 L 2925,8869 2925,1402 11337,1402 11337,8869 7131,8869 Z"/>
 <path fill="none" stroke="rgb(179,179,179)" stroke-linejoin="round" d="M 2925,1401 L 2925,8868"/>
 <path fill="none" stroke="rgb(179,179,179)" stroke-linejoin="round" d="M 3766,1401 L 3766,8868"/>
 <path fill="none" stroke="rgb(179,179,179)" stroke-linejoin="round" d="M 4607,1401 L 4607,8868"/>
 <path fill="none" stroke="rgb(179,179,179)" stroke-linejoin="round" d="M 5448,1401 L 5448,8868"/>
 <path fill="none" stroke="rgb(179,179,179)" stroke-linejoin="round" d="M 6290,1401 L 6290,8868"/>
 <path fill="none" stroke="rgb(179,179,179)" stroke-linejoin="round" d="M 7131,1401 L 7131,8868"/>
 <path fill="none" stroke="rgb(179,179,179)" stroke-linejoin="round" d="M 7971,1401 L 7971,8868"/>
 <path fill="none" stroke="rgb(179,179,179)" stroke-linejoin="round" d="M 8813,1401 L 8813,8868"/>
 <path fill="none" stroke="rgb(179,179,179)" stroke-linejoin="round" d="M 9654,1401 L 9654,8868"/>
 <path fill="none" stroke="rgb(179,179,179)" stroke-linejoin="round" d="M 10495,1401 L 10495,8868"/>
 <path fill="none" stroke="rgb(179,179,179)" stroke-linejoin="round" d="M 11337,1401 L 11337,8868"/>
 <path fill="none" stroke="rgb(179,179,179)" stroke-linejoin="round" d="M 11337,8868 L 2925,8868"/>
 <path fill="none" stroke="rgb(179,179,179)" stroke-linejoin="round" d="M 11337,7374 L 2925,7374"/>
 <path fill="none" stroke="rgb(179,179,179)" stroke-linejoin="round" d="M 11337,5880 L 2925,5880"/>
 <path fill="none" stroke="rgb(179,179,179)" stroke-linejoin="round" d="M 11337,4388 L 2925,4388"/>
 <path fill="none" stroke="rgb(179,179,179)" stroke-linejoin="round" d="M 11337,2894 L 2925,2894"/>
 <path fill="none" stroke="rgb(179,179,179)" stroke-linejoin="round" d="M 11337,1401 L 2925,1401"/>
 <path fill="none" stroke="rgb(179,179,179)" stroke-linejoin="round" d="M 2925,8271 L 2925,8121"/>
 <path fill="none" stroke="rgb(179,179,179)" stroke-linejoin="round" d="M 2925,8271 L 2925,8121"/>
 <path fill="none" stroke="rgb(179,179,179)" stroke-linejoin="round" d="M 3766,8271 L 3766,8121"/>
 <path fill="none" stroke="rgb(179,179,179)" stroke-linejoin="round" d="M 3766,8271 L 3766,8121"/>
 <path fill="none" stroke="rgb(179,179,179)" stroke-linejoin="round" d="M 4607,8271 L 4607,8121"/>
 <path fill="none" stroke="rgb(179,179,179)" stroke-linejoin="round" d="M 4607,8271 L 4607,8121"/>
 <path fill="none" stroke="rgb(179,179,179)" stroke-linejoin="round" d="M 5448,8271 L 5448,8121"/>
 <path fill="none" stroke="rgb(179,179,179)" stroke-linejoin="round" d="M 5448,8271 L 5448,8121"/>
 <path fill="none" stroke="rgb(179,179,179)" stroke-linejoin="round" d="M 6290,8271 L 6290,8121"/>
 <path fill="none" stroke="rgb(179,179,179)" stroke-linejoin="round" d="M 6290,8271 L 6290,8121"/>
 <path fill="none" stroke="rgb(179,179,179)" stroke-linejoin="round" d="M 7131,8271 L 7131,8121"/>
 <path fill="none" stroke="rgb(179,179,179)" stroke-linejoin="round" d="M 7131,8271 L 7131,8121"/>
 <path fill="none" stroke="rgb(179,179,179)" stroke-linejoin="round" d="M 7971,8271 L 7971,8121"/>
 <path fill="none" stroke="rgb(179,179,179)" stroke-linejoin="round" d="M 7971,8271 L 7971,8121"/>
 <path fill="none" stroke="rgb(179,179,179)" stroke-linejoin="round" d="M 8813,8271 L 8813,8121"/>
 <path fill="none" stroke="rgb(179,179,179)" stroke-linejoin="round" d="M 8813,8271 L 8813,8121"/>
 <path fill="none" stroke="rgb(179,179,179)" stroke-linejoin="round" d="M 9654,8271 L 9654,8121"/>
 <path fill="none" stroke="rgb(179,179,179)" stroke-linejoin="round" d="M 9654,8271 L 9654,8121"/>
 <path fill="none" stroke="rgb(179,179,179)" stroke-linejoin="round" d="M 10495,8271 L 10495,8121"/>
 <path fill="none" stroke="rgb(179,179,179)" stroke-linejoin="round" d="M 10495,8271 L 10495,8121"/>
 <path fill="none" stroke="rgb(179,179,179)" stroke-linejoin="round" d="M 11337,8271 L 11337,8121"/>
 <path fill="none" stroke="rgb(179,179,179)" stroke-linejoin="round" d="M 11337,8271 L 11337,8121"/>
 <path fill="none" stroke="rgb(179,179,179)" stroke-linejoin="round" d="M 2925,8121 L 11337,8121"/>
 <path fill="none" stroke="rgb(179,179,179)" stroke-linejoin="round" d="M 2775,8868 L 2925,8868"/>
 <path fill="none" stroke="rgb(179,179,179)" stroke-linejoin="round" d="M 2775,8868 L 2925,8868"/>
 <path fill="none" stroke="rgb(179,179,179)" stroke-linejoin="round" d="M 2775,7374 L 2925,7374"/>
 <path fill="none" stroke="rgb(179,179,179)" stroke-linejoin="round" d="M 2775,7374 L 2925,7374"/>
 <path fill="none" stroke="rgb(179,179,179)" stroke-linejoin="round" d="M 2775,5880 L 2925,5880"/>
 <path fill="none" stroke="rgb(179,179,179)" stroke-linejoin="round" d="M 2775,5880 L 2925,5880"/>
 <path fill="none" stroke="rgb(179,179,179)" stroke-linejoin="round" d="M 2775,4388 L 2925,4388"/>
 <path fill="none" stroke="rgb(179,179,179)" stroke-linejoin="round" d="M 2775,4388 L 2925,4388"/>
 <path fill="none" stroke="rgb(179,179,179)" stroke-linejoin="round" d="M 2775,2894 L 2925,2894"/>
 <path fill="none" stroke="rgb(179,179,179)" stroke-linejoin="round" d="M 2775,2894 L 2925,2894"/>
 <path fill="none" stroke="rgb(179,179,179)" stroke-linejoin="round" d="M 2775,1401 L 2925,1401"/>
 <path fill="none" stroke="rgb(179,179,179)" stroke-linejoin="round" d="M 2775,1401 L 2925,1401"/>
 <path fill="none" stroke="rgb(179,179,179)" stroke-linejoin="round" d="M 2925,8868 L 2925,1401"/>
 <path fill="none" stroke="rgb(255,66,14)" stroke-width="80" stroke-linejoin="round" d="M 10021,2147 L 10020,2159 10017,2213 10017,2228 10015,2261 10012,2315 10009,2362 10007,2410 10004,2464 10001,2518 9999,2563 9996,2619 9993,2664 9990,2718 9988,2766 9985,2813 9982,2867 9980,2921 9977,2969 9975,3002 9974,3023 9972,3067 9969,3121 9966,3169 9963,3223 9961,3270 9958,3318 9955,3372 9952,3426 9950,3471 9946,3524 9943,3572 9938,3626 9934,3674 9929,3728 9925,3772 9921,3826 9916,3874 9912,3928 9908,3975 9903,4029 9899,4077 9894,4131 9893,4143 9890,4185 9885,4229 9881,4277 9876,4331 9871,4379 9866,4433 9862,4480 9856,4534 9851,4573 9850,4588 9844,4636 9839,4680 9832,4734 9826,4782 9819,4836 9810,4869 9807,4884 9792,4937 9778,4985 9768,5018 9761,5039 9743,5089 9726,5136 9709,5184 9688,5238 9685,5244 9669,5286 9647,5340 9644,5346 9627,5387 9603,5438 9578,5492 9563,5528 9556,5540 9529,5594 9518,5608 9490,5641 9479,5656 9451,5689 9434,5710 9401,5743 9394,5749 9355,5788 9349,5797 9310,5835 9303,5841 9270,5877 9251,5895 9231,5916 9205,5943 9186,5964 9153,5997 9147,6006 9108,6045 9062,6092 9023,6131 9010,6146 8984,6173 8958,6200 8938,6218 8912,6245 8899,6260 8860,6301 8821,6340 8814,6346 8775,6388 8762,6400 8736,6427 8717,6448 8697,6469 8664,6502 8651,6514 8619,6549 8612,6555 8572,6588 8562,6597 8525,6624 8488,6651 8441,6684 8413,6705 8403,6711 8366,6738 8347,6750 8319,6770 8282,6797 8273,6803 8235,6830 8207,6851 8198,6857 8160,6884 8132,6905 8114,6920 8076,6947 8067,6953 8029,6980 7992,7006 7955,7033 7927,7054 7908,7066 7870,7093 7852,7105 7824,7126 7786,7153 7739,7186 7711,7207 7703,7213 7662,7239 7636,7254 7623,7260 7585,7281 7533,7308 7494,7329 7455,7350 7443,7356 7417,7368 7378,7389 7339,7410 7326,7416 7288,7437 7249,7455 7236,7464 7210,7475 7171,7496 7145,7508 7120,7523 7081,7544 7055,7556 7042,7562 7003,7583 6965,7604 6952,7610 6913,7631 6874,7652 6861,7658 6835,7673 6797,7691 6758,7711 6706,7738 6649,7750 6618,7759 6587,7765 6525,7777 6494,7786 6462,7792 6400,7804 6369,7813 6338,7819 6276,7831 6244,7840 6213,7846 6182,7852 6120,7867 6089,7873 6058,7879 5995,7894 5964,7900 5933,7906 5902,7915 5871,7921 5840,7927 5808,7933 5753,7941 5698,7947 5644,7953 5589,7959 5534,7968 5479,7974 5425,7980 5370,7986 5315,7995 5260,8001 5206,8007 5151,8013 5096,8022 5041,8028 4941,8034 4819,8040 4696,8049 4574,8055 4452,8061 4329,8067 4207,8076 4052,8082 3864,8088 3676,8094 3488,8100 3300,8109 3112,8115 2925,8121"/>
 <path fill="none" stroke="rgb(0,69,134)" stroke-width="80" stroke-linejoin="round" d="M 10141,2147 L 10141,2159 10141,2213 10141,2222 10141,2261 10140,2315 10140,2362 10139,2410 10139,2464 10138,2518 10138,2563 10138,2619 10137,2664 10136,2718 10136,2766 10135,2813 10135,2867 10135,2921 10134,2969 10134,3023 10133,3067 10133,3121 10133,3169 10132,3223 10132,3270 10131,3318 10130,3372 10130,3426 10130,3471 10129,3524 10128,3572 10127,3626 10126,3674 10125,3728 10124,3772 10123,3826 10122,3874 10121,3928 10120,3975 10119,4029 10118,4077 10117,4131 10115,4185 10114,4229 10113,4277 10111,4331 10110,4379 10109,4433 10108,4480 10106,4534 10105,4588 10105,4636 10104,4680 10104,4734 10098,4767 10098,4782 10096,4836 10090,4884 10082,4937 10075,4985 10065,5039 10058,5078 10055,5089 10045,5136 10035,5184 10021,5238 10016,5259 10010,5286 9995,5340 9982,5387 9974,5414 9967,5438 9950,5492 9936,5540 9934,5546 9917,5594 9892,5635 9889,5641 9860,5689 9851,5701 9816,5743 9810,5749 9769,5797 9764,5803 9729,5841 9723,5850 9682,5895 9641,5943 9600,5991 9594,5997 9559,6039 9553,6045 9518,6083 9512,6092 9478,6131 9466,6146 9437,6179 9419,6200 9396,6227 9378,6245 9355,6275 9331,6301 9314,6319 9291,6346 9273,6367 9244,6400 9232,6415 9203,6448 9191,6460 9156,6502 9150,6508 9115,6549 9109,6555 9067,6588 9057,6597 9026,6615 8984,6642 8973,6651 8942,6669 8900,6696 8889,6705 8858,6723 8816,6750 8774,6776 8732,6803 8691,6830 8659,6851 8649,6857 8607,6884 8575,6905 8565,6911 8523,6938 8502,6953 8481,6965 8439,6992 8418,7006 8408,7012 8366,7039 8345,7054 8324,7066 8282,7093 8261,7105 8240,7120 8198,7147 8188,7153 8157,7174 8115,7201 8104,7207 8073,7228 8028,7248 8011,7254 7994,7260 7942,7281 7907,7296 7873,7308 7856,7314 7821,7329 7787,7341 7752,7356 7735,7362 7701,7377 7667,7389 7615,7410 7581,7422 7529,7443 7495,7455 7477,7464 7460,7469 7408,7490 7374,7502 7357,7508 7322,7523 7288,7535 7253,7550 7236,7556 7201,7571 7167,7583 7115,7604 7098,7610 7081,7619 7046,7631 6995,7652 6977,7658 6960,7664 6908,7685 6874,7700 6839,7711 6788,7732 6734,7744 6689,7750 6644,7759 6600,7765 6555,7771 6511,7777 6466,7786 6421,7792 6377,7798 6332,7804 6288,7813 6243,7819 6198,7825 6154,7831 6109,7840 6065,7846 6020,7852 5975,7858 5931,7867 5886,7873 5842,7879 5797,7885 5752,7894 5708,7900 5663,7906 5619,7915 5574,7921 5529,7927 5484,7933 5417,7941 5349,7947 5282,7953 5214,7959 5146,7968 5079,7974 5011,7980 4943,7986 4876,7995 4808,8001 4741,8007 4673,8013 4605,8022 4538,8028 4443,8034 4335,8040 4227,8049 4119,8055 4012,8061 3904,8067 3796,8076 3679,8082 3553,8088 3428,8094 3302,8100 3176,8109 3050,8115 2925,8121"/>
 <text class="TextShape"><tspan class="TextParagraph" font-family="Liberation Sans, sans-serif" font-size="353px" font-weight="400"><tspan class="TextPosition" x="2832" y="8609"><tspan fill="rgb(0,0,0)" stroke="none">0</tspan></tspan></tspan></text>
 <text class="TextShape"><tspan class="TextParagraph" font-family="Liberation Sans, sans-serif" font-size="353px" font-weight="400"><tspan class="TextPosition" x="3528" y="8609"><tspan fill="rgb(0,0,0)" stroke="none">0,2</tspan></tspan></tspan></text>
 <text class="TextShape"><tspan class="TextParagraph" font-family="Liberation Sans, sans-serif" font-size="353px" font-weight="400"><tspan class="TextPosition" x="4369" y="8609"><tspan fill="rgb(0,0,0)" stroke="none">0,4</tspan></tspan></tspan></text>
 <text class="TextShape"><tspan class="TextParagraph" font-family="Liberation Sans, sans-serif" font-size="353px" font-weight="400"><tspan class="TextPosition" x="5210" y="8609"><tspan fill="rgb(0,0,0)" stroke="none">0,6</tspan></tspan></tspan></text>
 <text class="TextShape"><tspan class="TextParagraph" font-family="Liberation Sans, sans-serif" font-size="353px" font-weight="400"><tspan class="TextPosition" x="6052" y="8609"><tspan fill="rgb(0,0,0)" stroke="none">0,8</tspan></tspan></tspan></text>
 <text class="TextShape"><tspan class="TextParagraph" font-family="Liberation Sans, sans-serif" font-size="353px" font-weight="400"><tspan class="TextPosition" x="7038" y="8609"><tspan fill="rgb(0,0,0)" stroke="none">1</tspan></tspan></tspan></text>
 <text class="TextShape"><tspan class="TextParagraph" font-family="Liberation Sans, sans-serif" font-size="353px" font-weight="400"><tspan class="TextPosition" x="7734" y="8609"><tspan fill="rgb(0,0,0)" stroke="none">1,2</tspan></tspan></tspan></text>
 <text class="TextShape"><tspan class="TextParagraph" font-family="Liberation Sans, sans-serif" font-size="353px" font-weight="400"><tspan class="TextPosition" x="8576" y="8609"><tspan fill="rgb(0,0,0)" stroke="none">1,4</tspan></tspan></tspan></text>
 <text class="TextShape"><tspan class="TextParagraph" font-family="Liberation Sans, sans-serif" font-size="353px" font-weight="400"><tspan class="TextPosition" x="9417" y="8609"><tspan fill="rgb(0,0,0)" stroke="none">1,6</tspan></tspan></tspan></text>
 <text class="TextShape"><tspan class="TextParagraph" font-family="Liberation Sans, sans-serif" font-size="353px" font-weight="400"><tspan class="TextPosition" x="10258" y="8609"><tspan fill="rgb(0,0,0)" stroke="none">1,8</tspan></tspan></tspan></text>
 <text class="TextShape"><tspan class="TextParagraph" font-family="Liberation Sans, sans-serif" font-size="353px" font-weight="400"><tspan class="TextPosition" x="11245" y="8609"><tspan fill="rgb(0,0,0)" stroke="none">2</tspan></tspan></tspan></text>
 <text class="TextShape"><tspan class="TextParagraph" font-family="Liberation Sans, sans-serif" font-size="353px" font-weight="400"><tspan class="TextPosition" x="1352" y="8948"><tspan fill="rgb(0,0,0)" stroke="none">-0,00025</tspan></tspan></tspan></text>
 <text class="TextShape"><tspan class="TextParagraph" font-family="Liberation Sans, sans-serif" font-size="353px" font-weight="400"><tspan class="TextPosition" x="1458" y="7454"><tspan fill="rgb(0,0,0)" stroke="none">0,00025</tspan></tspan></tspan></text>
 <text class="TextShape"><tspan class="TextParagraph" font-family="Liberation Sans, sans-serif" font-size="353px" font-weight="400"><tspan class="TextPosition" x="1458" y="5960"><tspan fill="rgb(0,0,0)" stroke="none">0,00075</tspan></tspan></tspan></text>
 <text class="TextShape"><tspan class="TextParagraph" font-family="Liberation Sans, sans-serif" font-size="353px" font-weight="400"><tspan class="TextPosition" x="1458" y="4467"><tspan fill="rgb(0,0,0)" stroke="none">0,00125</tspan></tspan></tspan></text>
 <text class="TextShape"><tspan class="TextParagraph" font-family="Liberation Sans, sans-serif" font-size="353px" font-weight="400"><tspan class="TextPosition" x="1458" y="2973"><tspan fill="rgb(0,0,0)" stroke="none">0,00175</tspan></tspan></tspan></text>
 <text class="TextShape"><tspan class="TextParagraph" font-family="Liberation Sans, sans-serif" font-size="353px" font-weight="400"><tspan class="TextPosition" x="1458" y="1480"><tspan fill="rgb(0,0,0)" stroke="none">0,00225</tspan></tspan></tspan></text>
 <text class="TextShape"><tspan class="TextParagraph" font-family="Liberation Sans, sans-serif" font-size="459px" font-weight="400"><tspan class="TextPosition" x="5035" y="794"><tspan fill="rgb(0,0,0)" stroke="none">velocity profile on blade BL</tspan></tspan></tspan></text>
 <path fill="none" stroke="rgb(0,69,134)" stroke-width="80" stroke-linejoin="round" d="M 11851,4870 L 12651,4870"/>
 <path fill="none" stroke="rgb(255,66,14)" stroke-width="80" stroke-linejoin="round" d="M 11851,5288 L 12651,5288"/>
 <text class="TextShape"><tspan class="TextParagraph" font-family="Liberation Sans, sans-serif" font-size="353px" font-weight="400"><tspan class="TextPosition" x="12751" y="4949"><tspan fill="rgb(0,0,0)" stroke="none">ux_komegasst</tspan></tspan></tspan></text>
 <text class="TextShape"><tspan class="TextParagraph" font-family="Liberation Sans, sans-serif" font-size="353px" font-weight="400"><tspan class="TextPosition" x="12751" y="5367"><tspan fill="rgb(0,0,0)" stroke="none">ux_kepsilon</tspan></tspan></tspan></text>
 <text class="TextShape"><tspan class="TextParagraph" font-family="Liberation Sans, sans-serif" font-size="318px" font-weight="400"><tspan class="TextPosition" x="5729" y="9565"><tspan fill="rgb(0,0,0)" stroke="none">U_x [m/s]</tspan></tspan></tspan></text>
 <text class="TextShape" transform="translate(872,5465) rotate(-90) translate(-872,-5465)"><tspan class="TextParagraph" font-family="Liberation Sans, sans-serif" font-size="318px" font-weight="400"><tspan class="TextPosition" x="872" y="5465"><tspan fill="rgb(0,0,0)" stroke="none">y [m]</tspan></tspan></tspan></text>
</svg>