<?xml version="1.0" encoding="UTF-8" standalone="no"?>
<svg
   xmlns:dc="http://purl.org/dc/elements/1.1/"
   xmlns:cc="http://creativecommons.org/ns#"
   xmlns:rdf="http://www.w3.org/1999/02/22-rdf-syntax-ns#"
   xmlns:svg="http://www.w3.org/2000/svg"
   xmlns="http://www.w3.org/2000/svg"
   xmlns:sodipodi="http://sodipodi.sourceforge.net/DTD/sodipodi-0.dtd"
   xmlns:inkscape="http://www.inkscape.org/namespaces/inkscape"
   width="107.81994mm"
   height="91.237442mm"
   viewBox="0 0 10781.994 9123.7442"
   version="1.1"
   xml:space="preserve"
   id="svg296"
   sodipodi:docname="detailBL_kW_Keps.svg"
   style="stroke-width:28.22200012;stroke-linejoin:round"
   inkscape:version="0.92.3 (3ce5693, 2018-03-11)"><metadata
   id="metadata302"><rdf:RDF><cc:Work
       rdf:about=""><dc:format>image/svg+xml</dc:format><dc:type
         rdf:resource="http://purl.org/dc/dcmitype/StillImage" /></cc:Work></rdf:RDF></metadata><defs
   id="defs300" /><sodipodi:namedview
   pagecolor="#ffffff"
   bordercolor="#666666"
   borderopacity="1"
   objecttolerance="10"
   gridtolerance="10"
   guidetolerance="10"
   inkscape:pageopacity="0"
   inkscape:pageshadow="2"
   inkscape:window-width="2560"
   inkscape:window-height="1355"
   id="namedview298"
   showgrid="false"
   inkscape:zoom="1.7314873"
   inkscape:cx="443.8057"
   inkscape:cy="229.90537"
   inkscape:window-x="0"
   inkscape:window-y="0"
   inkscape:window-maximized="1"
   inkscape:current-layer="svg296" />
 <path
   d="M 7066.4258,9652.7536 H -553.57422 v -10160 H 14686.426 v 10160 z"
   id="path2"
   inkscape:connector-curvature="0"
   style="fill:#ffffff;stroke:none" />
 <path
   d="m 6489.4258,8361.7536 h -4206 v -7467 h 8412.0002 v 7467 z"
   id="path4"
   inkscape:connector-curvature="0"
   style="fill:none;stroke:#b3b3b3;stroke-linejoin:round" />
 <path
   d="m 2283.4258,893.7536 v 7467"
   id="path6"
   inkscape:connector-curvature="0"
   style="fill:none;stroke:#b3b3b3;stroke-linejoin:round" />
 <path
   d="m 3124.4258,893.7536 v 7467"
   id="path8"
   inkscape:connector-curvature="0"
   style="fill:none;stroke:#b3b3b3;stroke-linejoin:round" />
 <path
   d="m 3965.4258,893.7536 v 7467"
   id="path10"
   inkscape:connector-curvature="0"
   style="fill:none;stroke:#b3b3b3;stroke-linejoin:round" />
 <path
   d="m 4806.4258,893.7536 v 7467"
   id="path12"
   inkscape:connector-curvature="0"
   style="fill:none;stroke:#b3b3b3;stroke-linejoin:round" />
 <path
   d="m 5648.4258,893.7536 v 7467"
   id="path14"
   inkscape:connector-curvature="0"
   style="fill:none;stroke:#b3b3b3;stroke-linejoin:round" />
 <path
   d="m 6489.4258,893.7536 v 7467"
   id="path16"
   inkscape:connector-curvature="0"
   style="fill:none;stroke:#b3b3b3;stroke-linejoin:round" />
 <path
   d="m 7329.4258,893.7536 v 7467"
   id="path18"
   inkscape:connector-curvature="0"
   style="fill:none;stroke:#b3b3b3;stroke-linejoin:round" />
 <path
   d="m 8171.4258,893.7536 v 7467"
   id="path20"
   inkscape:connector-curvature="0"
   style="fill:none;stroke:#b3b3b3;stroke-linejoin:round" />
 <path
   d="m 9012.4258,893.7536 v 7467"
   id="path22"
   inkscape:connector-curvature="0"
   style="fill:none;stroke:#b3b3b3;stroke-linejoin:round" />
 <path
   d="m 9853.4258,893.7536 v 7467"
   id="path24"
   inkscape:connector-curvature="0"
   style="fill:none;stroke:#b3b3b3;stroke-linejoin:round" />
 <path
   d="m 10695.426,893.7536 v 7467"
   id="path26"
   inkscape:connector-curvature="0"
   style="fill:none;stroke:#b3b3b3;stroke-linejoin:round" />
 <path
   d="M 10695.426,8360.7536 H 2283.4258"
   id="path28"
   inkscape:connector-curvature="0"
   style="fill:none;stroke:#b3b3b3;stroke-linejoin:round" />
 <path
   d="M 10695.426,6866.7536 H 2283.4258"
   id="path30"
   inkscape:connector-curvature="0"
   style="fill:none;stroke:#b3b3b3;stroke-linejoin:round" />
 <path
   d="M 10695.426,5372.7536 H 2283.4258"
   id="path32"
   inkscape:connector-curvature="0"
   style="fill:none;stroke:#b3b3b3;stroke-linejoin:round" />
 <path
   d="M 10695.426,3880.7536 H 2283.4258"
   id="path34"
   inkscape:connector-curvature="0"
   style="fill:none;stroke:#b3b3b3;stroke-linejoin:round" />
 <path
   d="M 10695.426,2386.7536 H 2283.4258"
   id="path36"
   inkscape:connector-curvature="0"
   style="fill:none;stroke:#b3b3b3;stroke-linejoin:round" />
 <path
   d="M 10695.426,893.7536 H 2283.4258"
   id="path38"
   inkscape:connector-curvature="0"
   style="fill:none;stroke:#b3b3b3;stroke-linejoin:round" />
 <path
   d="m 2283.4258,7763.7536 v -150"
   id="path40"
   inkscape:connector-curvature="0"
   style="fill:none;stroke:#b3b3b3;stroke-linejoin:round" />
 <path
   d="m 2283.4258,7763.7536 v -150"
   id="path42"
   inkscape:connector-curvature="0"
   style="fill:none;stroke:#b3b3b3;stroke-linejoin:round" />
 <path
   d="m 3124.4258,7763.7536 v -150"
   id="path44"
   inkscape:connector-curvature="0"
   style="fill:none;stroke:#b3b3b3;stroke-linejoin:round" />
 <path
   d="m 3124.4258,7763.7536 v -150"
   id="path46"
   inkscape:connector-curvature="0"
   style="fill:none;stroke:#b3b3b3;stroke-linejoin:round" />
 <path
   d="m 3965.4258,7763.7536 v -150"
   id="path48"
   inkscape:connector-curvature="0"
   style="fill:none;stroke:#b3b3b3;stroke-linejoin:round" />
 <path
   d="m 3965.4258,7763.7536 v -150"
   id="path50"
   inkscape:connector-curvature="0"
   style="fill:none;stroke:#b3b3b3;stroke-linejoin:round" />
 <path
   d="m 4806.4258,7763.7536 v -150"
   id="path52"
   inkscape:connector-curvature="0"
   style="fill:none;stroke:#b3b3b3;stroke-linejoin:round" />
 <path
   d="m 4806.4258,7763.7536 v -150"
   id="path54"
   inkscape:connector-curvature="0"
   style="fill:none;stroke:#b3b3b3;stroke-linejoin:round" />
 <path
   d="m 5648.4258,7763.7536 v -150"
   id="path56"
   inkscape:connector-curvature="0"
   style="fill:none;stroke:#b3b3b3;stroke-linejoin:round" />
 <path
   d="m 5648.4258,7763.7536 v -150"
   id="path58"
   inkscape:connector-curvature="0"
   style="fill:none;stroke:#b3b3b3;stroke-linejoin:round" />
 <path
   d="m 6489.4258,7763.7536 v -150"
   id="path60"
   inkscape:connector-curvature="0"
   style="fill:none;stroke:#b3b3b3;stroke-linejoin:round" />
 <path
   d="m 6489.4258,7763.7536 v -150"
   id="path62"
   inkscape:connector-curvature="0"
   style="fill:none;stroke:#b3b3b3;stroke-linejoin:round" />
 <path
   d="m 7329.4258,7763.7536 v -150"
   id="path64"
   inkscape:connector-curvature="0"
   style="fill:none;stroke:#b3b3b3;stroke-linejoin:round" />
 <path
   d="m 7329.4258,7763.7536 v -150"
   id="path66"
   inkscape:connector-curvature="0"
   style="fill:none;stroke:#b3b3b3;stroke-linejoin:round" />
 <path
   d="m 8171.4258,7763.7536 v -150"
   id="path68"
   inkscape:connector-curvature="0"
   style="fill:none;stroke:#b3b3b3;stroke-linejoin:round" />
 <path
   d="m 8171.4258,7763.7536 v -150"
   id="path70"
   inkscape:connector-curvature="0"
   style="fill:none;stroke:#b3b3b3;stroke-linejoin:round" />
 <path
   d="m 9012.4258,7763.7536 v -150"
   id="path72"
   inkscape:connector-curvature="0"
   style="fill:none;stroke:#b3b3b3;stroke-linejoin:round" />
 <path
   d="m 9012.4258,7763.7536 v -150"
   id="path74"
   inkscape:connector-curvature="0"
   style="fill:none;stroke:#b3b3b3;stroke-linejoin:round" />
 <path
   d="m 9853.4258,7763.7536 v -150"
   id="path76"
   inkscape:connector-curvature="0"
   style="fill:none;stroke:#b3b3b3;stroke-linejoin:round" />
 <path
   d="m 9853.4258,7763.7536 v -150"
   id="path78"
   inkscape:connector-curvature="0"
   style="fill:none;stroke:#b3b3b3;stroke-linejoin:round" />
 <path
   d="m 10695.426,7763.7536 v -150"
   id="path80"
   inkscape:connector-curvature="0"
   style="fill:none;stroke:#b3b3b3;stroke-linejoin:round" />
 <path
   d="m 10695.426,7763.7536 v -150"
   id="path82"
   inkscape:connector-curvature="0"
   style="fill:none;stroke:#b3b3b3;stroke-linejoin:round" />
 <path
   d="M 2283.4258,7613.7536 H 10695.426"
   id="path84"
   inkscape:connector-curvature="0"
   style="fill:none;stroke:#b3b3b3;stroke-linejoin:round" />
 <path
   d="m 2133.4258,8360.7536 h 150"
   id="path86"
   inkscape:connector-curvature="0"
   style="fill:none;stroke:#b3b3b3;stroke-linejoin:round" />
 <path
   d="m 2133.4258,8360.7536 h 150"
   id="path88"
   inkscape:connector-curvature="0"
   style="fill:none;stroke:#b3b3b3;stroke-linejoin:round" />
 <path
   d="m 2133.4258,6866.7536 h 150"
   id="path90"
   inkscape:connector-curvature="0"
   style="fill:none;stroke:#b3b3b3;stroke-linejoin:round" />
 <path
   d="m 2133.4258,6866.7536 h 150"
   id="path92"
   inkscape:connector-curvature="0"
   style="fill:none;stroke:#b3b3b3;stroke-linejoin:round" />
 <path
   d="m 2133.4258,5372.7536 h 150"
   id="path94"
   inkscape:connector-curvature="0"
   style="fill:none;stroke:#b3b3b3;stroke-linejoin:round" />
 <path
   d="m 2133.4258,5372.7536 h 150"
   id="path96"
   inkscape:connector-curvature="0"
   style="fill:none;stroke:#b3b3b3;stroke-linejoin:round" />
 <path
   d="m 2133.4258,3880.7536 h 150"
   id="path98"
   inkscape:connector-curvature="0"
   style="fill:none;stroke:#b3b3b3;stroke-linejoin:round" />
 <path
   d="m 2133.4258,3880.7536 h 150"
   id="path100"
   inkscape:connector-curvature="0"
   style="fill:none;stroke:#b3b3b3;stroke-linejoin:round" />
 <path
   d="m 2133.4258,2386.7536 h 150"
   id="path102"
   inkscape:connector-curvature="0"
   style="fill:none;stroke:#b3b3b3;stroke-linejoin:round" />
 <path
   d="m 2133.4258,2386.7536 h 150"
   id="path104"
   inkscape:connector-curvature="0"
   style="fill:none;stroke:#b3b3b3;stroke-linejoin:round" />
 <path
   d="m 2133.4258,893.7536 h 150"
   id="path106"
   inkscape:connector-curvature="0"
   style="fill:none;stroke:#b3b3b3;stroke-linejoin:round" />
 <path
   d="m 2133.4258,893.7536 h 150"
   id="path108"
   inkscape:connector-curvature="0"
   style="fill:none;stroke:#b3b3b3;stroke-linejoin:round" />
 <path
   d="m 2283.4258,8360.7536 v -7467"
   id="path110"
   inkscape:connector-curvature="0"
   style="fill:none;stroke:#b3b3b3;stroke-linejoin:round" />
 <path
   d="m 9379.4258,1639.7536 -1,12 -3,54 v 15 l -2,33 -3,54 -3,47 -2,48 -3,54 -3,54 -2,45 -3,56 -3,45 -3,54 -2,48 -3,47 -3,54 -2,54 -3,48 -2,33 -1,21 -2,44 -3,54 -3,48 -3,54 -2,47 -3,48 -3,54 -3,54 -2,45 -4,53 -3,48 -5,54 -4,48 -5,54 -4,44 -4,54 -5,48 -4,54 -4,47 -5,54 -4,48 -5,54 -1,12 -3,42 -5,44 -4,48 -5,54 -5,48 -5,54 -4,47 -6,54 -5,39 -1,15 -6,48 -5,44 -7,54 -6,48 -7,54 -9,33 -3,15 -15,53 -14,48 -10,33 -7,21 -18,50 -17,47 -17,48 -21,54 -3,6 -16,42 -22,54 -3,6 -17,41 -24,51 -25,54 -15,36 -7,12 -27,54 -11,14 -28,33 -11,15 -28,33 -17,21 -33,33 -7,6 -39,39 -6,9 -39,38 -7,6 -33,36 -19,18 -20,21 -26,27 -19,21 -33,33 -6,9 -39,39 -46,47 -39,39 -13,15 -26,27 -26,27 -20,18 -26,27 -13,15 -39,41 -39,39 -7,6 -39,42 -13,12 -26,27 -19,21 -20,21 -33,33 -13,12 -32,35 -7,6 -40,33 -10,9 -37,27 -37,27 -47,33 -28,21 -10,6 -37,27 -19,12 -28,20 -37,27 -9,6 -38,27 -28,21 -9,6 -38,27 -28,21 -18,15 -38,27 -9,6 -38,27 -37,26 -37,27 -28,21 -19,12 -38,27 -18,12 -28,21 -38,27 -47,33 -28,21 -8,6 -41,26 -26,15 -13,6 -38,21 -52,27 -39,21 -39,21 -12,6 -26,12 -39,21 -39,21 -13,6 -38,21 -39,18 -13,9 -26,11 -39,21 -26,12 -25,15 -39,21 -26,12 -13,6 -39,21 -38,21 -13,6 -39,21 -39,21 -13,6 -26,15 -38,18 -39,20 -52,27 -57,12 -31,9 -31,6 -62,12 -31,9 -32,6 -62,12 -31,9 -31,6 -62,12 -32,9 -31,6 -31,6 -62,15 -31,6 -31,6 -63,15 -31,6 -31,6 -31,9 -31,6 -31,6 -32,6 -55,8 -55,6 -54,6 -55,6 -55,9 -55,6 -54,6 -55,6 -55,9 -55,6 -54,6 -55,6 -55,9 -55,6 -100,6 -122,6 -123,9 -122,6 -122,6 -123,6 -122,9 -155,6 -188,6 -188,6 -188,6 -188,9 -188,6 -187,6"
   id="path112"
   inkscape:connector-curvature="0"
   style="fill:none;stroke:#ff420e;stroke-width:80;stroke-linejoin:round" />
 <path
   d="m 9499.4258,1639.7536 v 12 54 9 39 l -1,54 v 47 l -1,48 v 54 l -1,54 v 45 56 l -1,45 -1,54 v 48 l -1,47 v 54 54 l -1,48 v 54 l -1,44 v 54 48 l -1,54 v 47 l -1,48 -1,54 v 54 45 l -1,53 -1,48 -1,54 -1,48 -1,54 -1,44 -1,54 -1,48 -1,54 -1,47 -1,54 -1,48 -1,54 -2,54 -1,44 -1,48 -2,54 -1,48 -1,54 -1,47 -2,54 -1,54 v 48 l -1,44 v 54 l -6,33 v 15 l -2,54 -6,48 -8,53 -7,48 -10,54 -7,39 -3,11 -10,47 -10,48 -14,54 -5,21 -6,27 -15,54 -13,47 -8,27 -7,24 -17,54 -14,48 -2,6 -17,48 -25,41 -3,6 -29,48 -9,12 -35,42 -6,6 -41,48 -5,6 -35,38 -6,9 -41,45 -41,48 -41,48 -6,6 -35,42 -6,6 -35,38 -6,9 -34,39 -12,15 -29,33 -18,21 -23,27 -18,18 -23,30 -24,26 -17,18 -23,27 -18,21 -29,33 -12,15 -29,33 -12,12 -35,42 -6,6 -35,41 -6,6 -42,33 -10,9 -31,18 -42,27 -11,9 -31,18 -42,27 -11,9 -31,18 -42,27 -42,26 -42,27 -41,27 -32,21 -10,6 -42,27 -32,21 -10,6 -42,27 -21,15 -21,12 -42,27 -21,14 -10,6 -42,27 -21,15 -21,12 -42,27 -21,12 -21,15 -42,27 -10,6 -31,21 -42,27 -11,6 -31,21 -45,20 -17,6 -17,6 -52,21 -35,15 -34,12 -17,6 -35,15 -34,12 -35,15 -17,6 -34,15 -34,12 -52,21 -34,12 -52,21 -34,12 -18,9 -17,5 -52,21 -34,12 -17,6 -35,15 -34,12 -35,15 -17,6 -35,15 -34,12 -52,21 -17,6 -17,9 -35,12 -51,21 -18,6 -17,6 -52,21 -34,15 -35,11 -51,21 -54,12 -45,6 -45,9 -44,6 -45,6 -44,6 -45,9 -45,6 -44,6 -45,6 -44,9 -45,6 -45,6 -44,6 -45,9 -44,6 -45,6 -45,6 -44,9 -45,6 -44,6 -45,6 -45,9 -44,6 -45,6 -44,9 -45,6 -45,6 -45,6 -67,8 -68,6 -67,6 -68,6 -68,9 -67,6 -68,6 -68,6 -67,9 -68,6 -67,6 -68,6 -68,9 -67,6 -95,6 -108,6 -108,9 -108,6 -107,6 -108,6 -108,9 -117,6 -126,6 -125,6 -126,6 -126,9 -126,6 -125,6"
   id="path114"
   inkscape:connector-curvature="0"
   style="fill:none;stroke:#004586;stroke-width:80;stroke-linejoin:round" />
 <text
   class="TextShape"
   id="text122"
   x="-641.57422"
   y="-507.2464"><tspan
     class="TextParagraph"
     font-size="353px"
     font-weight="400"
     id="tspan120"
     style="font-weight:400;font-size:353px;font-family:'Liberation Sans', sans-serif"><tspan
       class="TextPosition"
       x="2190.4258"
       y="8101.7534"
       id="tspan118"><tspan
         id="tspan116"
         style="fill:#000000;stroke:none">0</tspan></tspan></tspan></text>

 <text
   class="TextShape"
   id="text130"
   x="-641.57422"
   y="-507.2464"><tspan
     class="TextParagraph"
     font-size="353px"
     font-weight="400"
     id="tspan128"
     style="font-weight:400;font-size:353px;font-family:'Liberation Sans', sans-serif"><tspan
       class="TextPosition"
       x="2886.4258"
       y="8101.7534"
       id="tspan126"><tspan
         id="tspan124"
         style="fill:#000000;stroke:none">0,2</tspan></tspan></tspan></text>

 <text
   class="TextShape"
   id="text138"
   x="-641.57422"
   y="-507.2464"><tspan
     class="TextParagraph"
     font-size="353px"
     font-weight="400"
     id="tspan136"
     style="font-weight:400;font-size:353px;font-family:'Liberation Sans', sans-serif"><tspan
       class="TextPosition"
       x="3727.4258"
       y="8101.7534"
       id="tspan134"><tspan
         id="tspan132"
         style="fill:#000000;stroke:none">0,4</tspan></tspan></tspan></text>

 <text
   class="TextShape"
   id="text146"
   x="-641.57422"
   y="-507.2464"><tspan
     class="TextParagraph"
     font-size="353px"
     font-weight="400"
     id="tspan144"
     style="font-weight:400;font-size:353px;font-family:'Liberation Sans', sans-serif"><tspan
       class="TextPosition"
       x="4568.4258"
       y="8101.7534"
       id="tspan142"><tspan
         id="tspan140"
         style="fill:#000000;stroke:none">0,6</tspan></tspan></tspan></text>

 <text
   class="TextShape"
   id="text154"
   x="-641.57422"
   y="-507.2464"><tspan
     class="TextParagraph"
     font-size="353px"
     font-weight="400"
     id="tspan152"
     style="font-weight:400;font-size:353px;font-family:'Liberation Sans', sans-serif"><tspan
       class="TextPosition"
       x="5410.4258"
       y="8101.7534"
       id="tspan150"><tspan
         id="tspan148"
         style="fill:#000000;stroke:none">0,8</tspan></tspan></tspan></text>

 <text
   class="TextShape"
   id="text162"
   x="-641.57422"
   y="-507.2464"><tspan
     class="TextParagraph"
     font-size="353px"
     font-weight="400"
     id="tspan160"
     style="font-weight:400;font-size:353px;font-family:'Liberation Sans', sans-serif"><tspan
       class="TextPosition"
       x="6396.4258"
       y="8101.7534"
       id="tspan158"><tspan
         id="tspan156"
         style="fill:#000000;stroke:none">1</tspan></tspan></tspan></text>

 <text
   class="TextShape"
   id="text170"
   x="-641.57422"
   y="-507.2464"><tspan
     class="TextParagraph"
     font-size="353px"
     font-weight="400"
     id="tspan168"
     style="font-weight:400;font-size:353px;font-family:'Liberation Sans', sans-serif"><tspan
       class="TextPosition"
       x="7092.4258"
       y="8101.7534"
       id="tspan166"><tspan
         id="tspan164"
         style="fill:#000000;stroke:none">1,2</tspan></tspan></tspan></text>

 <text
   class="TextShape"
   id="text178"
   x="-641.57422"
   y="-507.2464"><tspan
     class="TextParagraph"
     font-size="353px"
     font-weight="400"
     id="tspan176"
     style="font-weight:400;font-size:353px;font-family:'Liberation Sans', sans-serif"><tspan
       class="TextPosition"
       x="7934.4258"
       y="8101.7534"
       id="tspan174"><tspan
         id="tspan172"
         style="fill:#000000;stroke:none">1,4</tspan></tspan></tspan></text>

 <text
   class="TextShape"
   id="text186"
   x="-641.57422"
   y="-507.2464"><tspan
     class="TextParagraph"
     font-size="353px"
     font-weight="400"
     id="tspan184"
     style="font-weight:400;font-size:353px;font-family:'Liberation Sans', sans-serif"><tspan
       class="TextPosition"
       x="8775.4258"
       y="8101.7534"
       id="tspan182"><tspan
         id="tspan180"
         style="fill:#000000;stroke:none">1,6</tspan></tspan></tspan></text>

 <text
   class="TextShape"
   id="text194"
   x="-641.57422"
   y="-507.2464"><tspan
     class="TextParagraph"
     font-size="353px"
     font-weight="400"
     id="tspan192"
     style="font-weight:400;font-size:353px;font-family:'Liberation Sans', sans-serif"><tspan
       class="TextPosition"
       x="9616.4258"
       y="8101.7534"
       id="tspan190"><tspan
         id="tspan188"
         style="fill:#000000;stroke:none">1,8</tspan></tspan></tspan></text>

 <text
   class="TextShape"
   id="text202"
   x="-641.57422"
   y="-507.2464"><tspan
     class="TextParagraph"
     font-size="353px"
     font-weight="400"
     id="tspan200"
     style="font-weight:400;font-size:353px;font-family:'Liberation Sans', sans-serif"><tspan
       class="TextPosition"
       x="10603.426"
       y="8101.7534"
       id="tspan198"><tspan
         id="tspan196"
         style="fill:#000000;stroke:none">2</tspan></tspan></tspan></text>

 <text
   class="TextShape"
   id="text210"
   x="-641.57422"
   y="-507.2464"><tspan
     class="TextParagraph"
     font-size="353px"
     font-weight="400"
     id="tspan208"
     style="font-weight:400;font-size:353px;font-family:'Liberation Sans', sans-serif"><tspan
       class="TextPosition"
       x="710.42578"
       y="8440.7539"
       id="tspan206"><tspan
         id="tspan204"
         style="fill:#000000;stroke:none">-0,00025</tspan></tspan></tspan></text>

 <text
   class="TextShape"
   id="text218"
   x="-641.57422"
   y="-507.2464"><tspan
     class="TextParagraph"
     font-size="353px"
     font-weight="400"
     id="tspan216"
     style="font-weight:400;font-size:353px;font-family:'Liberation Sans', sans-serif"><tspan
       class="TextPosition"
       x="816.42578"
       y="6946.7534"
       id="tspan214"><tspan
         id="tspan212"
         style="fill:#000000;stroke:none">0,00025</tspan></tspan></tspan></text>

 <text
   class="TextShape"
   id="text226"
   x="-641.57422"
   y="-507.2464"><tspan
     class="TextParagraph"
     font-size="353px"
     font-weight="400"
     id="tspan224"
     style="font-weight:400;font-size:353px;font-family:'Liberation Sans', sans-serif"><tspan
       class="TextPosition"
       x="816.42578"
       y="5452.7534"
       id="tspan222"><tspan
         id="tspan220"
         style="fill:#000000;stroke:none">0,00075</tspan></tspan></tspan></text>

 <text
   class="TextShape"
   id="text234"
   x="-641.57422"
   y="-507.2464"><tspan
     class="TextParagraph"
     font-size="353px"
     font-weight="400"
     id="tspan232"
     style="font-weight:400;font-size:353px;font-family:'Liberation Sans', sans-serif"><tspan
       class="TextPosition"
       x="816.42578"
       y="3959.7537"
       id="tspan230"><tspan
         id="tspan228"
         style="fill:#000000;stroke:none">0,00125</tspan></tspan></tspan></text>

 <text
   class="TextShape"
   id="text242"
   x="-641.57422"
   y="-507.2464"><tspan
     class="TextParagraph"
     font-size="353px"
     font-weight="400"
     id="tspan240"
     style="font-weight:400;font-size:353px;font-family:'Liberation Sans', sans-serif"><tspan
       class="TextPosition"
       x="816.42578"
       y="2465.7537"
       id="tspan238"><tspan
         id="tspan236"
         style="fill:#000000;stroke:none">0,00175</tspan></tspan></tspan></text>

 <text
   class="TextShape"
   id="text250"
   x="-641.57422"
   y="-507.2464"><tspan
     class="TextParagraph"
     font-size="353px"
     font-weight="400"
     id="tspan248"
     style="font-weight:400;font-size:353px;font-family:'Liberation Sans', sans-serif"><tspan
       class="TextPosition"
       x="816.42578"
       y="972.7536"
       id="tspan246"><tspan
         id="tspan244"
         style="fill:#000000;stroke:none">0,00225</tspan></tspan></tspan></text>

 <text
   class="TextShape"
   id="text258"
   x="-1619.5388"
   y="-461.4043"><tspan
     class="TextParagraph"
     font-size="459px"
     font-weight="400"
     id="tspan256"
     style="font-weight:400;font-size:459px;font-family:'Liberation Sans', sans-serif"><tspan
       class="TextPosition"
       x="3415.4612"
       y="332.5957"
       id="tspan254"><tspan
         id="tspan252"
         style="fill:#000000;stroke:none">Velocity profile on blade B.L.</tspan></tspan></tspan></text>

 
 
 
 <g
   id="g4293"
   transform="translate(-15769.465,-1011.5094)"><rect
     style="fill:#ffffff;stroke-width:660.00317383"
     y="3476.4934"
     x="19253.68"
     height="1253.0172"
     width="3407.5957"
     id="rect4007" /><path
     style="fill:none;stroke:#004586;stroke-width:80;stroke-linejoin:round"
     inkscape:connector-curvature="0"
     id="path260"
     d="m 19414.945,3907.316 h 800" /><path
     style="fill:none;stroke:#ff420e;stroke-width:80;stroke-linejoin:round"
     inkscape:connector-curvature="0"
     id="path262"
     d="m 19414.945,4325.316 h 800" /><text
     y="-962.68402"
     x="7563.9453"
     id="text270"
     class="TextShape"><tspan
       style="font-weight:400;font-size:353px;font-family:'Liberation Sans', sans-serif"
       id="tspan268"
       font-weight="400"
       font-size="353px"
       class="TextParagraph"><tspan
         id="tspan266"
         y="3986.3162"
         x="20314.945"
         class="TextPosition"><tspan
           style="fill:#000000;stroke:none"
           id="tspan264">ux_komegasst</tspan></tspan></tspan></text>
<text
     y="-962.68402"
     x="7563.9453"
     id="text278"
     class="TextShape"><tspan
       style="font-weight:400;font-size:353px;font-family:'Liberation Sans', sans-serif"
       id="tspan276"
       font-weight="400"
       font-size="353px"
       class="TextParagraph"><tspan
         id="tspan274"
         y="4404.3159"
         x="20314.945"
         class="TextPosition"><tspan
           style="fill:#000000;stroke:none"
           id="tspan272">ux_kepsilon</tspan></tspan></tspan></text>
</g>
 <text
   class="TextShape"
   id="text286"
   x="-641.57422"
   y="-507.2464"><tspan
     class="TextParagraph"
     font-size="318px"
     font-weight="400"
     id="tspan284"
     style="font-weight:400;font-size:318px;font-family:'Liberation Sans', sans-serif"><tspan
       class="TextPosition"
       x="5087.4258"
       y="9057.7539"
       id="tspan282"><tspan
         id="tspan280"
         style="fill:#000000;stroke:none">U_x [m/s]</tspan></tspan></tspan></text>

 <text
   class="TextShape"
   transform="rotate(-90)"
   id="text294"
   x="-5829.7534"
   y="-5234.5742"><tspan
     class="TextParagraph"
     font-size="318px"
     font-weight="400"
     id="tspan292"
     style="font-weight:400;font-size:318px;font-family:'Liberation Sans', sans-serif"><tspan
       class="TextPosition"
       x="-4957.7534"
       y="230.42578"
       id="tspan290"><tspan
         id="tspan288"
         style="fill:#000000;stroke:none">y [m]</tspan></tspan></tspan></text>

</svg>