<?xml version="1.0" encoding="UTF-8"?>
<!DOCTYPE svg PUBLIC "-//W3C//DTD SVG 1.1//EN" "http://www.w3.org/Graphics/SVG/1.1/DTD/svg11.dtd">
<svg width="152mm" height="102mm" viewBox="0 0 15200 10200" version="1.1" xmlns="http://www.w3.org/2000/svg" stroke-width="28.222" stroke-linejoin="round" xml:space="preserve">
 <path fill="rgb(255,255,255)" stroke="none" d="M 7786,10179 L 166,10179 166,19 15406,19 15406,10179 7786,10179 Z"/>
 <path fill="none" stroke="rgb(179,179,179)" stroke-linejoin="round" d="M 8436,8479 L 2050,8479 2050,1421 14822,1421 14822,8479 8436,8479 Z"/>
 <path fill="none" stroke="rgb(179,179,179)" stroke-linejoin="round" d="M 14822,8478 L 2050,8478"/>
 <path fill="none" stroke="rgb(179,179,179)" stroke-linejoin="round" d="M 14822,7301 L 2050,7301"/>
 <path fill="none" stroke="rgb(179,179,179)" stroke-linejoin="round" d="M 14822,6125 L 2050,6125"/>
 <path fill="none" stroke="rgb(179,179,179)" stroke-linejoin="round" d="M 14822,4949 L 2050,4949"/>
 <path fill="none" stroke="rgb(179,179,179)" stroke-linejoin="round" d="M 14822,3773 L 2050,3773"/>
 <path fill="none" stroke="rgb(179,179,179)" stroke-linejoin="round" d="M 14822,2596 L 2050,2596"/>
 <path fill="none" stroke="rgb(179,179,179)" stroke-linejoin="round" d="M 14822,1420 L 2050,1420"/>
 <path fill="none" stroke="rgb(179,179,179)" stroke-linejoin="round" d="M 2050,8628 L 2050,8478"/>
 <path fill="none" stroke="rgb(179,179,179)" stroke-linejoin="round" d="M 2050,8628 L 2050,8478"/>
 <path fill="none" stroke="rgb(179,179,179)" stroke-linejoin="round" d="M 14822,8628 L 14822,8478"/>
 <path fill="none" stroke="rgb(179,179,179)" stroke-linejoin="round" d="M 14822,8628 L 14822,8478"/>
 <path fill="none" stroke="rgb(179,179,179)" stroke-linejoin="round" d="M 2050,8478 L 14822,8478"/>
 <path fill="none" stroke="rgb(179,179,179)" stroke-linejoin="round" d="M 1900,8478 L 2050,8478"/>
 <path fill="none" stroke="rgb(179,179,179)" stroke-linejoin="round" d="M 1900,8478 L 2050,8478"/>
 <path fill="none" stroke="rgb(179,179,179)" stroke-linejoin="round" d="M 1900,7301 L 2050,7301"/>
 <path fill="none" stroke="rgb(179,179,179)" stroke-linejoin="round" d="M 1900,7301 L 2050,7301"/>
 <path fill="none" stroke="rgb(179,179,179)" stroke-linejoin="round" d="M 1900,6125 L 2050,6125"/>
 <path fill="none" stroke="rgb(179,179,179)" stroke-linejoin="round" d="M 1900,6125 L 2050,6125"/>
 <path fill="none" stroke="rgb(179,179,179)" stroke-linejoin="round" d="M 1900,4949 L 2050,4949"/>
 <path fill="none" stroke="rgb(179,179,179)" stroke-linejoin="round" d="M 1900,4949 L 2050,4949"/>
 <path fill="none" stroke="rgb(179,179,179)" stroke-linejoin="round" d="M 1900,3773 L 2050,3773"/>
 <path fill="none" stroke="rgb(179,179,179)" stroke-linejoin="round" d="M 1900,3773 L 2050,3773"/>
 <path fill="none" stroke="rgb(179,179,179)" stroke-linejoin="round" d="M 1900,2596 L 2050,2596"/>
 <path fill="none" stroke="rgb(179,179,179)" stroke-linejoin="round" d="M 1900,2596 L 2050,2596"/>
 <path fill="none" stroke="rgb(179,179,179)" stroke-linejoin="round" d="M 1900,1420 L 2050,1420"/>
 <path fill="none" stroke="rgb(179,179,179)" stroke-linejoin="round" d="M 1900,1420 L 2050,1420"/>
 <path fill="none" stroke="rgb(179,179,179)" stroke-linejoin="round" d="M 2050,8478 L 2050,1420"/>
 <path fill="none" stroke="rgb(255,66,14)" stroke-width="80" stroke-linejoin="round" d="M 8418,2632 L 8016,3422 7469,4327 6988,4988 6461,5591 5879,6138 5049,6742 4254,7175 3285,7559 2110,7876 2050,7886"/>
 <path fill="rgb(255,66,14)" stroke="none" d="M 8293,2632 L 8418,2757 8543,2632 8418,2507 8293,2632 Z"/>
 <path fill="none" stroke="rgb(255,66,14)" stroke-linejoin="round" d="M 8293,2632 L 8418,2757 8543,2632 8418,2507 8293,2632 Z"/>
 <path fill="rgb(255,66,14)" stroke="none" d="M 7891,3422 L 8016,3547 8141,3422 8016,3297 7891,3422 Z"/>
 <path fill="none" stroke="rgb(255,66,14)" stroke-linejoin="round" d="M 7891,3422 L 8016,3547 8141,3422 8016,3297 7891,3422 Z"/>
 <path fill="rgb(255,66,14)" stroke="none" d="M 7344,4327 L 7469,4452 7594,4327 7469,4202 7344,4327 Z"/>
 <path fill="none" stroke="rgb(255,66,14)" stroke-linejoin="round" d="M 7344,4327 L 7469,4452 7594,4327 7469,4202 7344,4327 Z"/>
 <path fill="rgb(255,66,14)" stroke="none" d="M 6863,4988 L 6988,5112 7113,4988 6988,4863 6863,4988 Z"/>
 <path fill="none" stroke="rgb(255,66,14)" stroke-linejoin="round" d="M 6863,4988 L 6988,5112 7113,4988 6988,4863 6863,4988 Z"/>
 <path fill="rgb(255,66,14)" stroke="none" d="M 6336,5591 L 6461,5716 6586,5591 6461,5466 6336,5591 Z"/>
 <path fill="none" stroke="rgb(255,66,14)" stroke-linejoin="round" d="M 6336,5591 L 6461,5716 6586,5591 6461,5466 6336,5591 Z"/>
 <path fill="rgb(255,66,14)" stroke="none" d="M 5754,6138 L 5879,6263 6004,6138 5879,6013 5754,6138 Z"/>
 <path fill="none" stroke="rgb(255,66,14)" stroke-linejoin="round" d="M 5754,6138 L 5879,6263 6004,6138 5879,6013 5754,6138 Z"/>
 <path fill="rgb(255,66,14)" stroke="none" d="M 4924,6742 L 5049,6867 5174,6742 5049,6617 4924,6742 Z"/>
 <path fill="none" stroke="rgb(255,66,14)" stroke-linejoin="round" d="M 4924,6742 L 5049,6867 5174,6742 5049,6617 4924,6742 Z"/>
 <path fill="rgb(255,66,14)" stroke="none" d="M 4129,7175 L 4254,7300 4379,7175 4254,7050 4129,7175 Z"/>
 <path fill="none" stroke="rgb(255,66,14)" stroke-linejoin="round" d="M 4129,7175 L 4254,7300 4379,7175 4254,7050 4129,7175 Z"/>
 <path fill="rgb(255,66,14)" stroke="none" d="M 3160,7559 L 3285,7684 3410,7559 3285,7434 3160,7559 Z"/>
 <path fill="none" stroke="rgb(255,66,14)" stroke-linejoin="round" d="M 3160,7559 L 3285,7684 3410,7559 3285,7434 3160,7559 Z"/>
 <path fill="rgb(255,66,14)" stroke="none" d="M 1985,7876 L 2110,8001 2235,7876 2110,7751 1985,7876 Z"/>
 <path fill="none" stroke="rgb(255,66,14)" stroke-linejoin="round" d="M 1985,7876 L 2110,8001 2235,7876 2110,7751 1985,7876 Z"/>
 <path fill="none" stroke="rgb(0,69,134)" stroke-width="80" stroke-linejoin="round" d="M 8418,6708 L 8016,6833 7469,6959 6988,7085 6461,7211 5879,7336 5049,7462 4254,7598 3285,7745 2110,7891 2050,7897"/>
 <path fill="rgb(0,69,134)" stroke="none" d="M 8293,6583 L 8293,6833 8543,6833 8543,6583 8293,6583 Z"/>
 <path fill="none" stroke="rgb(0,69,134)" stroke-linejoin="round" d="M 8293,6583 L 8293,6833 8543,6833 8543,6583 8293,6583 Z"/>
 <path fill="rgb(0,69,134)" stroke="none" d="M 7891,6708 L 7891,6958 8141,6958 8141,6708 7891,6708 Z"/>
 <path fill="none" stroke="rgb(0,69,134)" stroke-linejoin="round" d="M 7891,6708 L 7891,6958 8141,6958 8141,6708 7891,6708 Z"/>
 <path fill="rgb(0,69,134)" stroke="none" d="M 7344,6834 L 7344,7084 7594,7084 7594,6834 7344,6834 Z"/>
 <path fill="none" stroke="rgb(0,69,134)" stroke-linejoin="round" d="M 7344,6834 L 7344,7084 7594,7084 7594,6834 7344,6834 Z"/>
 <path fill="rgb(0,69,134)" stroke="none" d="M 6863,6960 L 6863,7210 7113,7210 7113,6960 6863,6960 Z"/>
 <path fill="none" stroke="rgb(0,69,134)" stroke-linejoin="round" d="M 6863,6960 L 6863,7210 7113,7210 7113,6960 6863,6960 Z"/>
 <path fill="rgb(0,69,134)" stroke="none" d="M 6336,7086 L 6336,7336 6586,7336 6586,7086 6336,7086 Z"/>
 <path fill="none" stroke="rgb(0,69,134)" stroke-linejoin="round" d="M 6336,7086 L 6336,7336 6586,7336 6586,7086 6336,7086 Z"/>
 <path fill="rgb(0,69,134)" stroke="none" d="M 5754,7211 L 5754,7461 6004,7461 6004,7211 5754,7211 Z"/>
 <path fill="none" stroke="rgb(0,69,134)" stroke-linejoin="round" d="M 5754,7211 L 5754,7461 6004,7461 6004,7211 5754,7211 Z"/>
 <path fill="rgb(0,69,134)" stroke="none" d="M 4924,7337 L 4924,7587 5174,7587 5174,7337 4924,7337 Z"/>
 <path fill="none" stroke="rgb(0,69,134)" stroke-linejoin="round" d="M 4924,7337 L 4924,7587 5174,7587 5174,7337 4924,7337 Z"/>
 <path fill="rgb(0,69,134)" stroke="none" d="M 4129,7473 L 4129,7723 4379,7723 4379,7473 4129,7473 Z"/>
 <path fill="none" stroke="rgb(0,69,134)" stroke-linejoin="round" d="M 4129,7473 L 4129,7723 4379,7723 4379,7473 4129,7473 Z"/>
 <path fill="rgb(0,69,134)" stroke="none" d="M 3160,7620 L 3160,7870 3410,7870 3410,7620 3160,7620 Z"/>
 <path fill="none" stroke="rgb(0,69,134)" stroke-linejoin="round" d="M 3160,7620 L 3160,7870 3410,7870 3410,7620 3160,7620 Z"/>
 <path fill="rgb(0,69,134)" stroke="none" d="M 1985,7766 L 1985,8016 2235,8016 2235,7766 1985,7766 Z"/>
 <path fill="none" stroke="rgb(0,69,134)" stroke-linejoin="round" d="M 1985,7766 L 1985,8016 2235,8016 2235,7766 1985,7766 Z"/>
 <text class="TextShape"><tspan class="TextParagraph" font-family="Liberation Sans, sans-serif" font-size="353px" font-weight="400"><tspan class="TextPosition" x="1957" y="8966"><tspan fill="rgb(0,0,0)" stroke="none">1</tspan></tspan></tspan></text>
 <text class="TextShape"><tspan class="TextParagraph" font-family="Liberation Sans, sans-serif" font-size="353px" font-weight="400"><tspan class="TextPosition" x="14545" y="8966"><tspan fill="rgb(0,0,0)" stroke="none">100</tspan></tspan></tspan></text>
 <text class="TextShape"><tspan class="TextParagraph" font-family="Liberation Sans, sans-serif" font-size="353px" font-weight="400"><tspan class="TextPosition" x="1615" y="8558"><tspan fill="rgb(0,0,0)" stroke="none">0</tspan></tspan></tspan></text>
 <text class="TextShape"><tspan class="TextParagraph" font-family="Liberation Sans, sans-serif" font-size="353px" font-weight="400"><tspan class="TextPosition" x="1615" y="7381"><tspan fill="rgb(0,0,0)" stroke="none">2</tspan></tspan></tspan></text>
 <text class="TextShape"><tspan class="TextParagraph" font-family="Liberation Sans, sans-serif" font-size="353px" font-weight="400"><tspan class="TextPosition" x="1615" y="6205"><tspan fill="rgb(0,0,0)" stroke="none">4</tspan></tspan></tspan></text>
 <text class="TextShape"><tspan class="TextParagraph" font-family="Liberation Sans, sans-serif" font-size="353px" font-weight="400"><tspan class="TextPosition" x="1615" y="5028"><tspan fill="rgb(0,0,0)" stroke="none">6</tspan></tspan></tspan></text>
 <text class="TextShape"><tspan class="TextParagraph" font-family="Liberation Sans, sans-serif" font-size="353px" font-weight="400"><tspan class="TextPosition" x="1615" y="3852"><tspan fill="rgb(0,0,0)" stroke="none">8</tspan></tspan></tspan></text>
 <text class="TextShape"><tspan class="TextParagraph" font-family="Liberation Sans, sans-serif" font-size="353px" font-weight="400"><tspan class="TextPosition" x="1430" y="2675"><tspan fill="rgb(0,0,0)" stroke="none">10</tspan></tspan></tspan></text>
 <text class="TextShape"><tspan class="TextParagraph" font-family="Liberation Sans, sans-serif" font-size="353px" font-weight="400"><tspan class="TextPosition" x="1430" y="1499"><tspan fill="rgb(0,0,0)" stroke="none">12</tspan></tspan></tspan></text>
 <text class="TextShape"><tspan class="TextParagraph" font-family="Liberation Sans, sans-serif" font-size="459px" font-weight="400"><tspan class="TextPosition" x="5722" y="813"><tspan fill="rgb(0,0,0)" stroke="none">U+ for  K-omegaSST</tspan></tspan></tspan></text>
 <path fill="none" stroke="rgb(0,69,134)" stroke-width="80" stroke-linejoin="round" d="M 9769,2943 L 10569,2943"/>
 <path fill="rgb(0,69,134)" stroke="none" d="M 10063,2838 L 10063,3049 10274,3049 10274,2838 10063,2838 Z"/>
 <path fill="none" stroke="rgb(0,69,134)" stroke-linejoin="round" d="M 10063,2838 L 10063,3049 10274,3049 10274,2838 10063,2838 Z"/>
 <path fill="none" stroke="rgb(255,66,14)" stroke-width="80" stroke-linejoin="round" d="M 9769,3918 L 10569,3918"/>
 <path fill="rgb(255,66,14)" stroke="none" d="M 10063,3918 L 10169,4024 10274,3918 10169,3813 10063,3918 Z"/>
 <path fill="none" stroke="rgb(255,66,14)" stroke-linejoin="round" d="M 10063,3918 L 10169,4024 10274,3918 10169,3813 10063,3918 Z"/>
 <text class="TextShape"><tspan class="TextParagraph" font-family="Liberation Sans, sans-serif" font-size="353px" font-weight="400"><tspan class="TextPosition" x="10669" y="3022"><tspan fill="rgb(0,0,0)" stroke="none">u_plus_komegasst</tspan></tspan></tspan></text>
 <text class="TextShape"><tspan class="TextParagraph" font-family="Liberation Sans, sans-serif" font-size="353px" font-weight="400"><tspan class="TextPosition" x="10669" y="3997"><tspan fill="rgb(0,0,0)" stroke="none">linear_trend</tspan></tspan></tspan></text>
 <text class="TextShape"><tspan class="TextParagraph" font-family="Liberation Sans, sans-serif" font-size="318px" font-weight="400"><tspan class="TextPosition" x="7856" y="9584"><tspan fill="rgb(0,0,0)" stroke="none">y+ [ / ]</tspan></tspan></tspan></text>
 <text class="TextShape" transform="translate(950,5603) rotate(-90) translate(-950,-5603)"><tspan class="TextParagraph" font-family="Liberation Sans, sans-serif" font-size="318px" font-weight="400"><tspan class="TextPosition" x="950" y="5603"><tspan fill="rgb(0,0,0)" stroke="none">U+ [ / ]</tspan></tspan></tspan></text>
</svg>