<?xml version="1.0" encoding="UTF-8"?>
<!DOCTYPE svg PUBLIC "-//W3C//DTD SVG 1.1//EN" "http://www.w3.org/Graphics/SVG/1.1/DTD/svg11.dtd">
<svg width="152mm" height="102mm" viewBox="0 0 15200 10200" version="1.1" xmlns="http://www.w3.org/2000/svg" stroke-width="28.222" stroke-linejoin="round" xml:space="preserve">
 <path fill="rgb(255,255,255)" stroke="none" d="M 7620,10144 L 0,10144 0,-16 15240,-16 15240,10144 7620,10144 Z"/>
 <path fill="none" stroke="rgb(179,179,179)" stroke-linejoin="round" d="M 8456,8444 L 2308,8444 2308,1811 14604,1811 14604,8444 8456,8444 Z"/>
 <path fill="none" stroke="rgb(179,179,179)" stroke-linejoin="round" d="M 14604,8443 L 2308,8443"/>
 <path fill="none" stroke="rgb(179,179,179)" stroke-linejoin="round" d="M 14604,7337 L 2308,7337"/>
 <path fill="none" stroke="rgb(179,179,179)" stroke-linejoin="round" d="M 14604,6231 L 2308,6231"/>
 <path fill="none" stroke="rgb(179,179,179)" stroke-linejoin="round" d="M 14604,5125 L 2308,5125"/>
 <path fill="none" stroke="rgb(179,179,179)" stroke-linejoin="round" d="M 14604,4021 L 2308,4021"/>
 <path fill="none" stroke="rgb(179,179,179)" stroke-linejoin="round" d="M 14604,2915 L 2308,2915"/>
 <path fill="none" stroke="rgb(179,179,179)" stroke-linejoin="round" d="M 14604,1809 L 2308,1809"/>
 <path fill="none" stroke="rgb(179,179,179)" stroke-linejoin="round" d="M 2308,8593 L 2308,8443"/>
 <path fill="none" stroke="rgb(179,179,179)" stroke-linejoin="round" d="M 2308,8593 L 2308,8443"/>
 <path fill="none" stroke="rgb(179,179,179)" stroke-linejoin="round" d="M 4064,8593 L 4064,8443"/>
 <path fill="none" stroke="rgb(179,179,179)" stroke-linejoin="round" d="M 4064,8593 L 4064,8443"/>
 <path fill="none" stroke="rgb(179,179,179)" stroke-linejoin="round" d="M 5821,8593 L 5821,8443"/>
 <path fill="none" stroke="rgb(179,179,179)" stroke-linejoin="round" d="M 5821,8593 L 5821,8443"/>
 <path fill="none" stroke="rgb(179,179,179)" stroke-linejoin="round" d="M 7578,8593 L 7578,8443"/>
 <path fill="none" stroke="rgb(179,179,179)" stroke-linejoin="round" d="M 7578,8593 L 7578,8443"/>
 <path fill="none" stroke="rgb(179,179,179)" stroke-linejoin="round" d="M 9333,8593 L 9333,8443"/>
 <path fill="none" stroke="rgb(179,179,179)" stroke-linejoin="round" d="M 9333,8593 L 9333,8443"/>
 <path fill="none" stroke="rgb(179,179,179)" stroke-linejoin="round" d="M 11090,8593 L 11090,8443"/>
 <path fill="none" stroke="rgb(179,179,179)" stroke-linejoin="round" d="M 11090,8593 L 11090,8443"/>
 <path fill="none" stroke="rgb(179,179,179)" stroke-linejoin="round" d="M 12847,8593 L 12847,8443"/>
 <path fill="none" stroke="rgb(179,179,179)" stroke-linejoin="round" d="M 12847,8593 L 12847,8443"/>
 <path fill="none" stroke="rgb(179,179,179)" stroke-linejoin="round" d="M 14604,8593 L 14604,8443"/>
 <path fill="none" stroke="rgb(179,179,179)" stroke-linejoin="round" d="M 14604,8593 L 14604,8443"/>
 <path fill="none" stroke="rgb(179,179,179)" stroke-linejoin="round" d="M 2308,8443 L 14604,8443"/>
 <path fill="none" stroke="rgb(179,179,179)" stroke-linejoin="round" d="M 2158,8443 L 2308,8443"/>
 <path fill="none" stroke="rgb(179,179,179)" stroke-linejoin="round" d="M 2158,8443 L 2308,8443"/>
 <path fill="none" stroke="rgb(179,179,179)" stroke-linejoin="round" d="M 2158,7337 L 2308,7337"/>
 <path fill="none" stroke="rgb(179,179,179)" stroke-linejoin="round" d="M 2158,7337 L 2308,7337"/>
 <path fill="none" stroke="rgb(179,179,179)" stroke-linejoin="round" d="M 2158,6231 L 2308,6231"/>
 <path fill="none" stroke="rgb(179,179,179)" stroke-linejoin="round" d="M 2158,6231 L 2308,6231"/>
 <path fill="none" stroke="rgb(179,179,179)" stroke-linejoin="round" d="M 2158,5125 L 2308,5125"/>
 <path fill="none" stroke="rgb(179,179,179)" stroke-linejoin="round" d="M 2158,5125 L 2308,5125"/>
 <path fill="none" stroke="rgb(179,179,179)" stroke-linejoin="round" d="M 2158,4021 L 2308,4021"/>
 <path fill="none" stroke="rgb(179,179,179)" stroke-linejoin="round" d="M 2158,4021 L 2308,4021"/>
 <path fill="none" stroke="rgb(179,179,179)" stroke-linejoin="round" d="M 2158,2915 L 2308,2915"/>
 <path fill="none" stroke="rgb(179,179,179)" stroke-linejoin="round" d="M 2158,2915 L 2308,2915"/>
 <path fill="none" stroke="rgb(179,179,179)" stroke-linejoin="round" d="M 2158,1809 L 2308,1809"/>
 <path fill="none" stroke="rgb(179,179,179)" stroke-linejoin="round" d="M 2158,1809 L 2308,1809"/>
 <path fill="none" stroke="rgb(179,179,179)" stroke-linejoin="round" d="M 2308,8443 L 2308,1809"/>
 <path fill="none" stroke="rgb(255,211,32)" stroke-width="80" stroke-linejoin="round" d="M 2308,2670 L 2413,2671 2518,2671 2624,2672 2729,2673 2835,2674 2940,2676 3045,2677 3151,2678 3256,2679 3362,2680 3467,2682 3572,2683 3678,2686 3783,2690 3889,2694 3994,2700 4099,2708 4205,2720 4310,2736 4416,2759 4521,2792 4626,2841 4732,2908 4837,2996 4943,3107 5048,3238 5153,3385 5259,3542 5364,3702 5470,3857 5575,3998 5680,4119 5786,4219 5891,4297 5997,4352 6102,4389 6207,4408 6313,4414 6418,4410 6524,4402 6629,4391 6734,4384 6840,4381 6945,4385 7051,4396 7156,4415 7261,4442 7367,4476 7472,4518 7578,4566 7682,4622 7787,4684 7893,4750 7998,4821 8104,4894 8209,4968 8314,5040 8420,5109 8525,5175 8631,5235 8736,5287 8841,5333 8947,5374 9052,5410 9158,5444 9263,5474 9368,5500 9474,5517 9579,5519 9685,5496 9790,5437 9896,5335 10001,5183 10106,4981 10212,4734 10317,4451 10423,4149 10528,3845 10633,3555 10739,3296 10844,3076 10950,2898 11055,2760 11160,2659 11266,2589 11371,2544 11477,2520 11582,2507 11687,2505 11793,2507 11898,2514 12004,2523 12109,2534 12214,2546 12320,2560 12425,2574 12531,2589 12636,2605 12741,2620 12847,2635"/>
 <path fill="none" stroke="rgb(255,66,14)" stroke-width="80" stroke-linejoin="round" d="M 2308,2566 L 2413,2567 2518,2568 2624,2569 2729,2570 2835,2571 2940,2572 3045,2574 3151,2576 3256,2577 3362,2579 3467,2581 3572,2583 3678,2586 3783,2589 3889,2594 3994,2601 4099,2612 4205,2625 4310,2645 4416,2671 4521,2709 4626,2761 4732,2831 4837,2920 4943,3031 5048,3162 5153,3310 5259,3471 5364,3637 5470,3802 5575,3957 5680,4094 5786,4210 5891,4303 5997,4372 6102,4417 6207,4443 6313,4450 6418,4445 6524,4432 6629,4414 6734,4399 6840,4388 6945,4383 7051,4387 7156,4400 7261,4422 7367,4453 7472,4493 7578,4541 7682,4598 7787,4662 7893,4732 7998,4807 8104,4885 8209,4965 8314,5044 8420,5119 8525,5189 8631,5252 8736,5303 8841,5343 8947,5371 9052,5387 9158,5390 9263,5381 9368,5357 9474,5319 9579,5263 9685,5185 9790,5083 9896,4959 10001,4808 10106,4636 10212,4444 10317,4238 10423,4024 10528,3809 10633,3599 10739,3402 10844,3224 10950,3068 11055,2934 11160,2824 11266,2733 11371,2662 11477,2605 11582,2561 11687,2528 11793,2503 11898,2487 12004,2477 12109,2473 12214,2476 12320,2484 12425,2496 12531,2511 12636,2529 12741,2547 12847,2566"/>
 <path fill="none" stroke="rgb(0,69,134)" stroke-width="80" stroke-linejoin="round" d="M 2308,2685 L 2413,2686 2518,2687 2624,2687 2729,2688 2835,2689 2940,2690 3045,2691 3151,2692 3256,2693 3362,2695 3467,2696 3572,2696 3678,2696 3783,2698 3889,2704 3994,2711 4099,2720 4205,2731 4310,2748 4416,2773 4521,2808 4626,2858 4732,2924 4837,3011 4943,3119 5048,3246 5153,3391 5259,3548 5364,3709 5470,3867 5575,4014 5680,4144 5786,4254 5891,4343 5997,4411 6102,4459 6207,4490 6313,4506 6418,4511 6524,4508 6629,4502 6734,4496 6840,4492 6945,4494 7051,4502 7156,4518 7261,4540 7367,4569 7472,4604 7578,4646 7682,4695 7787,4749 7893,4807 7998,4870 8104,4935 8209,5002 8314,5068 8420,5134 8525,5197 8631,5257 8736,5311 8841,5360 8947,5405 9052,5445 9158,5484 9263,5522 9368,5563 9474,5609 9579,5656 9685,5699 9790,5721 9896,5708 10001,5646 10106,5529 10212,5351 10317,5115 10423,4832 10528,4513 10633,4180 10739,3853 10844,3551 10950,3286 11055,3062 11160,2880 11266,2739 11371,2634 11477,2561 11582,2515 11687,2490 11793,2479 11898,2479 12004,2484 12109,2493 12214,2503 12320,2517 12425,2531 12531,2549 12636,2567 12741,2587 12847,2607"/>
 <text class="TextShape"><tspan class="TextParagraph" font-family="Liberation Sans, sans-serif" font-size="353px" font-weight="400"><tspan class="TextPosition" x="2215" y="8931"><tspan fill="rgb(0,0,0)" stroke="none">0</tspan></tspan></tspan></text>
 <text class="TextShape"><tspan class="TextParagraph" font-family="Liberation Sans, sans-serif" font-size="353px" font-weight="400"><tspan class="TextPosition" x="3733" y="8931"><tspan fill="rgb(0,0,0)" stroke="none">0,05</tspan></tspan></tspan></text>
 <text class="TextShape"><tspan class="TextParagraph" font-family="Liberation Sans, sans-serif" font-size="353px" font-weight="400"><tspan class="TextPosition" x="5583" y="8931"><tspan fill="rgb(0,0,0)" stroke="none">0,1</tspan></tspan></tspan></text>
 <text class="TextShape"><tspan class="TextParagraph" font-family="Liberation Sans, sans-serif" font-size="353px" font-weight="400"><tspan class="TextPosition" x="7247" y="8931"><tspan fill="rgb(0,0,0)" stroke="none">0,15</tspan></tspan></tspan></text>
 <text class="TextShape"><tspan class="TextParagraph" font-family="Liberation Sans, sans-serif" font-size="353px" font-weight="400"><tspan class="TextPosition" x="9096" y="8931"><tspan fill="rgb(0,0,0)" stroke="none">0,2</tspan></tspan></tspan></text>
 <text class="TextShape"><tspan class="TextParagraph" font-family="Liberation Sans, sans-serif" font-size="353px" font-weight="400"><tspan class="TextPosition" x="10760" y="8931"><tspan fill="rgb(0,0,0)" stroke="none">0,25</tspan></tspan></tspan></text>
 <text class="TextShape"><tspan class="TextParagraph" font-family="Liberation Sans, sans-serif" font-size="353px" font-weight="400"><tspan class="TextPosition" x="12610" y="8931"><tspan fill="rgb(0,0,0)" stroke="none">0,3</tspan></tspan></tspan></text>
 <text class="TextShape"><tspan class="TextParagraph" font-family="Liberation Sans, sans-serif" font-size="353px" font-weight="400"><tspan class="TextPosition" x="14274" y="8931"><tspan fill="rgb(0,0,0)" stroke="none">0,35</tspan></tspan></tspan></text>
 <text class="TextShape"><tspan class="TextParagraph" font-family="Liberation Sans, sans-serif" font-size="353px" font-weight="400"><tspan class="TextPosition" x="1873" y="8523"><tspan fill="rgb(0,0,0)" stroke="none">0</tspan></tspan></tspan></text>
 <text class="TextShape"><tspan class="TextParagraph" font-family="Liberation Sans, sans-serif" font-size="353px" font-weight="400"><tspan class="TextPosition" x="1582" y="7417"><tspan fill="rgb(0,0,0)" stroke="none">0,2</tspan></tspan></tspan></text>
 <text class="TextShape"><tspan class="TextParagraph" font-family="Liberation Sans, sans-serif" font-size="353px" font-weight="400"><tspan class="TextPosition" x="1582" y="6311"><tspan fill="rgb(0,0,0)" stroke="none">0,4</tspan></tspan></tspan></text>
 <text class="TextShape"><tspan class="TextParagraph" font-family="Liberation Sans, sans-serif" font-size="353px" font-weight="400"><tspan class="TextPosition" x="1582" y="5205"><tspan fill="rgb(0,0,0)" stroke="none">0,6</tspan></tspan></tspan></text>
 <text class="TextShape"><tspan class="TextParagraph" font-family="Liberation Sans, sans-serif" font-size="353px" font-weight="400"><tspan class="TextPosition" x="1582" y="4100"><tspan fill="rgb(0,0,0)" stroke="none">0,8</tspan></tspan></tspan></text>
 <text class="TextShape"><tspan class="TextParagraph" font-family="Liberation Sans, sans-serif" font-size="353px" font-weight="400"><tspan class="TextPosition" x="1873" y="2994"><tspan fill="rgb(0,0,0)" stroke="none">1</tspan></tspan></tspan></text>
 <text class="TextShape"><tspan class="TextParagraph" font-family="Liberation Sans, sans-serif" font-size="353px" font-weight="400"><tspan class="TextPosition" x="1582" y="1888"><tspan fill="rgb(0,0,0)" stroke="none">1,2</tspan></tspan></tspan></text>
 <text class="TextShape"><tspan class="TextParagraph" font-family="Liberation Sans, sans-serif" font-size="459px" font-weight="400"><tspan class="TextPosition" x="4339" y="778"><tspan fill="rgb(0,0,0)" stroke="none">|U| within main wake at t = 120[s]</tspan></tspan></tspan></text>
 <path fill="none" stroke="rgb(0,69,134)" stroke-width="80" stroke-linejoin="round" d="M 11875,6526 L 12675,6526"/>
 <path fill="none" stroke="rgb(255,66,14)" stroke-width="80" stroke-linejoin="round" d="M 11875,6945 L 12675,6945"/>
 <path fill="none" stroke="rgb(255,211,32)" stroke-width="80" stroke-linejoin="round" d="M 11875,7364 L 12675,7364"/>
 <text class="TextShape"><tspan class="TextParagraph" font-family="Liberation Sans, sans-serif" font-size="353px" font-weight="400"><tspan class="TextPosition" x="12775" y="6605"><tspan fill="rgb(0,0,0)" stroke="none">U_laminar</tspan></tspan></tspan></text>
 <text class="TextShape"><tspan class="TextParagraph" font-family="Liberation Sans, sans-serif" font-size="353px" font-weight="400"><tspan class="TextPosition" x="12775" y="7024"><tspan fill="rgb(0,0,0)" stroke="none">U_Keps</tspan></tspan></tspan></text>
 <text class="TextShape"><tspan class="TextParagraph" font-family="Liberation Sans, sans-serif" font-size="353px" font-weight="400"><tspan class="TextPosition" x="12775" y="7443"><tspan fill="rgb(0,0,0)" stroke="none">U_Kwsst</tspan></tspan></tspan></text>
 <text class="TextShape"><tspan class="TextParagraph" font-family="Liberation Sans, sans-serif" font-size="318px" font-weight="400"><tspan class="TextPosition" x="7584" y="9549"><tspan fill="rgb(0,0,0)" stroke="none">arclength</tspan></tspan></tspan></text>
 <text class="TextShape" transform="translate(784,5899) rotate(-90) translate(-784,-5899)"><tspan class="TextParagraph" font-family="Liberation Sans, sans-serif" font-size="318px" font-weight="400"><tspan class="TextPosition" x="784" y="5899"><tspan fill="rgb(0,0,0)" stroke="none">|U| [m/s]</tspan></tspan></tspan></text>
</svg>