<?xml version="1.0" encoding="UTF-8"?>
<!DOCTYPE svg PUBLIC "-//W3C//DTD SVG 1.1//EN" "http://www.w3.org/Graphics/SVG/1.1/DTD/svg11.dtd">
<svg width="152mm" height="102mm" viewBox="0 0 15200 10200" version="1.1" xmlns="http://www.w3.org/2000/svg" stroke-width="28.222" stroke-linejoin="round" xml:space="preserve">
 <path fill="rgb(255,255,255)" stroke="none" d="M 7620,10168 L 0,10168 0,8 15240,8 15240,10168 7620,10168 Z"/>
 <path fill="none" stroke="rgb(179,179,179)" stroke-linejoin="round" d="M 7905,8371 L 1601,8371 1601,1318 14210,1318 14210,8371 7905,8371 Z"/>
 <path fill="none" stroke="rgb(179,179,179)" stroke-linejoin="round" d="M 14209,8370 L 1601,8370"/>
 <path fill="none" stroke="rgb(179,179,179)" stroke-linejoin="round" d="M 14209,7586 L 1601,7586"/>
 <path fill="none" stroke="rgb(179,179,179)" stroke-linejoin="round" d="M 14209,6802 L 1601,6802"/>
 <path fill="none" stroke="rgb(179,179,179)" stroke-linejoin="round" d="M 14209,6018 L 1601,6018"/>
 <path fill="none" stroke="rgb(179,179,179)" stroke-linejoin="round" d="M 14209,5234 L 1601,5234"/>
 <path fill="none" stroke="rgb(179,179,179)" stroke-linejoin="round" d="M 14209,4452 L 1601,4452"/>
 <path fill="none" stroke="rgb(179,179,179)" stroke-linejoin="round" d="M 14209,3668 L 1601,3668"/>
 <path fill="none" stroke="rgb(179,179,179)" stroke-linejoin="round" d="M 14209,2884 L 1601,2884"/>
 <path fill="none" stroke="rgb(179,179,179)" stroke-linejoin="round" d="M 14209,2100 L 1601,2100"/>
 <path fill="none" stroke="rgb(179,179,179)" stroke-linejoin="round" d="M 14209,1316 L 1601,1316"/>
 <path fill="none" stroke="rgb(179,179,179)" stroke-linejoin="round" d="M 1601,8520 L 1601,8370"/>
 <path fill="none" stroke="rgb(179,179,179)" stroke-linejoin="round" d="M 1601,8520 L 1601,8370"/>
 <path fill="none" stroke="rgb(179,179,179)" stroke-linejoin="round" d="M 4123,8520 L 4123,8370"/>
 <path fill="none" stroke="rgb(179,179,179)" stroke-linejoin="round" d="M 4123,8520 L 4123,8370"/>
 <path fill="none" stroke="rgb(179,179,179)" stroke-linejoin="round" d="M 6645,8520 L 6645,8370"/>
 <path fill="none" stroke="rgb(179,179,179)" stroke-linejoin="round" d="M 6645,8520 L 6645,8370"/>
 <path fill="none" stroke="rgb(179,179,179)" stroke-linejoin="round" d="M 9166,8520 L 9166,8370"/>
 <path fill="none" stroke="rgb(179,179,179)" stroke-linejoin="round" d="M 9166,8520 L 9166,8370"/>
 <path fill="none" stroke="rgb(179,179,179)" stroke-linejoin="round" d="M 11688,8520 L 11688,8370"/>
 <path fill="none" stroke="rgb(179,179,179)" stroke-linejoin="round" d="M 11688,8520 L 11688,8370"/>
 <path fill="none" stroke="rgb(179,179,179)" stroke-linejoin="round" d="M 14209,8520 L 14209,8370"/>
 <path fill="none" stroke="rgb(179,179,179)" stroke-linejoin="round" d="M 14209,8520 L 14209,8370"/>
 <path fill="none" stroke="rgb(179,179,179)" stroke-linejoin="round" d="M 1601,8370 L 14209,8370"/>
 <path fill="none" stroke="rgb(179,179,179)" stroke-linejoin="round" d="M 1451,8370 L 1601,8370"/>
 <path fill="none" stroke="rgb(179,179,179)" stroke-linejoin="round" d="M 1451,8370 L 1601,8370"/>
 <path fill="none" stroke="rgb(179,179,179)" stroke-linejoin="round" d="M 1451,7586 L 1601,7586"/>
 <path fill="none" stroke="rgb(179,179,179)" stroke-linejoin="round" d="M 1451,7586 L 1601,7586"/>
 <path fill="none" stroke="rgb(179,179,179)" stroke-linejoin="round" d="M 1451,6802 L 1601,6802"/>
 <path fill="none" stroke="rgb(179,179,179)" stroke-linejoin="round" d="M 1451,6802 L 1601,6802"/>
 <path fill="none" stroke="rgb(179,179,179)" stroke-linejoin="round" d="M 1451,6018 L 1601,6018"/>
 <path fill="none" stroke="rgb(179,179,179)" stroke-linejoin="round" d="M 1451,6018 L 1601,6018"/>
 <path fill="none" stroke="rgb(179,179,179)" stroke-linejoin="round" d="M 1451,5234 L 1601,5234"/>
 <path fill="none" stroke="rgb(179,179,179)" stroke-linejoin="round" d="M 1451,5234 L 1601,5234"/>
 <path fill="none" stroke="rgb(179,179,179)" stroke-linejoin="round" d="M 1451,4452 L 1601,4452"/>
 <path fill="none" stroke="rgb(179,179,179)" stroke-linejoin="round" d="M 1451,4452 L 1601,4452"/>
 <path fill="none" stroke="rgb(179,179,179)" stroke-linejoin="round" d="M 1451,3668 L 1601,3668"/>
 <path fill="none" stroke="rgb(179,179,179)" stroke-linejoin="round" d="M 1451,3668 L 1601,3668"/>
 <path fill="none" stroke="rgb(179,179,179)" stroke-linejoin="round" d="M 1451,2884 L 1601,2884"/>
 <path fill="none" stroke="rgb(179,179,179)" stroke-linejoin="round" d="M 1451,2884 L 1601,2884"/>
 <path fill="none" stroke="rgb(179,179,179)" stroke-linejoin="round" d="M 1451,2100 L 1601,2100"/>
 <path fill="none" stroke="rgb(179,179,179)" stroke-linejoin="round" d="M 1451,2100 L 1601,2100"/>
 <path fill="none" stroke="rgb(179,179,179)" stroke-linejoin="round" d="M 1451,1316 L 1601,1316"/>
 <path fill="none" stroke="rgb(179,179,179)" stroke-linejoin="round" d="M 1451,1316 L 1601,1316"/>
 <path fill="none" stroke="rgb(179,179,179)" stroke-linejoin="round" d="M 1601,8370 L 1601,1316"/>
 <path fill="none" stroke="rgb(255,211,32)" stroke-width="80" stroke-linejoin="round" d="M 1601,4913 L 1701,4877 1802,4841 1903,4812 2004,4779 2105,4764 2206,4763 2307,4860 2408,5224 2508,6255 2609,7039 2710,7304 2811,7284 2912,7176 3013,7060 3114,6959 3215,6873 3315,6787 3416,6702 3517,6616 3618,6532 3719,6456 3820,6390 3921,6335 4022,6291 4123,6259 4223,6239 4324,6234 4425,6240 4526,6258 4627,6290 4728,6328 4829,6376 4930,6424 5030,6465 5131,6501 5232,6512 5333,6505 5434,6468 5535,6390 5636,6258 5737,6029 5837,5679 5938,5175 6039,4613 6140,4065 6241,3468 6342,2923 6443,2485 6544,2250 6645,2240 6745,2353 6846,2505 6947,2678 7048,2836 7149,3111 7250,3393 7351,3527 7452,3614 7552,3692 7652,3758 7753,3809 7854,3856 7955,3897 8056,3935 8157,3971 8258,4005 8358,4036 8459,4065 8560,4092 8661,4117 8762,4140 8863,4163 8964,4184 9065,4204 9165,4223 9266,4240 9367,4257 9468,4274 9569,4289 9670,4305 9771,4319 9872,4333 9973,4347 10073,4359 10174,4372 10275,4383 10376,4394 10477,4406 10578,4418 10679,4430 10780,4443 10880,4454 10981,4464 11082,4469 11183,4471 11284,4468 11385,4458 11486,4429 11587,4420 11688,4411"/>
 <path fill="none" stroke="rgb(255,66,14)" stroke-width="80" stroke-linejoin="round" d="M 1601,4783 L 1701,4744 1802,4705 1903,4677 2004,4648 2105,4640 2206,4652 2307,4737 2408,4992 2508,5745 2609,6582 2710,7119 2811,7306 2912,7329 3013,7258 3114,7144 3215,7019 3315,6896 3416,6778 3517,6667 3618,6569 3719,6476 3820,6398 3921,6327 4022,6262 4123,6210 4223,6157 4324,6116 4425,6077 4526,6040 4627,6013 4728,5979 4829,5953 4930,5925 5030,5893 5131,5866 5232,5825 5333,5780 5434,5721 5535,5641 5636,5534 5737,5388 5837,5195 5938,4943 6039,4642 6140,4269 6241,3846 6342,3458 6443,3183 6544,3042 6645,2987 6745,2995 6846,3029 6947,3087 7048,3168 7149,3283 7250,3396 7351,3498 7452,3583 7552,3657 7652,3716 7753,3765 7854,3810 7955,3848 8056,3883 8157,3916 8258,3946 8358,3975 8459,4002 8560,4028 8661,4052 8762,4074 8863,4096 8964,4116 9065,4135 9165,4153 9266,4169 9367,4185 9468,4200 9569,4214 9670,4228 9771,4240 9872,4253 9973,4264 10073,4275 10174,4286 10275,4295 10376,4305 10477,4314 10578,4322 10679,4331 10780,4340 10880,4350 10981,4362 11082,4371 11183,4380 11284,4394 11385,4400 11486,4387 11587,4386 11688,4383"/>
 <path fill="none" stroke="rgb(0,69,134)" stroke-width="80" stroke-linejoin="round" d="M 1601,4833 L 1701,4774 1802,4719 1903,4666 2004,4609 2105,4571 2206,4609 2307,4922 2408,5762 2508,6986 2609,7254 2710,7210 2811,7139 2912,7055 3013,6989 3114,6929 3215,6871 3315,6819 3416,6767 3517,6713 3618,6656 3719,6595 3820,6535 3921,6476 4022,6422 4123,6379 4223,6345 4324,6328 4425,6326 4526,6335 4627,6365 4728,6394 4829,6430 4930,6459 5030,6474 5131,6480 5232,6449 5333,6397 5434,6317 5535,6195 5636,6047 5737,5831 5837,5557 5938,5137 6039,4654 6140,4185 6241,3662 6342,3130 6443,2648 6544,2293 6645,2150 6745,2176 6846,2266 6947,2405 7048,2555 7149,2819 7250,3162 7351,3337 7452,3440 7552,3528 7652,3602 7753,3658 7854,3709 7955,3753 8056,3794 8157,3833 8258,3869 8358,3902 8459,3933 8560,3961 8661,3988 8762,4012 8863,4035 8964,4056 9065,4076 9165,4095 9266,4113 9367,4130 9468,4145 9569,4160 9670,4175 9771,4188 9872,4201 9973,4214 10073,4225 10174,4237 10275,4248 10376,4259 10477,4268 10578,4279 10679,4290 10780,4296 10880,4305 10981,4322 11082,4323 11183,4312 11284,4353 11385,4365 11486,4317 11587,4308 11688,4295"/>
 <text class="TextShape"><tspan class="TextParagraph" font-family="Liberation Sans, sans-serif" font-size="353px" font-weight="400"><tspan class="TextPosition" x="1508" y="8858"><tspan fill="rgb(0,0,0)" stroke="none">0</tspan></tspan></tspan></text>
 <text class="TextShape"><tspan class="TextParagraph" font-family="Liberation Sans, sans-serif" font-size="353px" font-weight="400"><tspan class="TextPosition" x="3792" y="8858"><tspan fill="rgb(0,0,0)" stroke="none">0,05</tspan></tspan></tspan></text>
 <text class="TextShape"><tspan class="TextParagraph" font-family="Liberation Sans, sans-serif" font-size="353px" font-weight="400"><tspan class="TextPosition" x="6407" y="8858"><tspan fill="rgb(0,0,0)" stroke="none">0,1</tspan></tspan></tspan></text>
 <text class="TextShape"><tspan class="TextParagraph" font-family="Liberation Sans, sans-serif" font-size="353px" font-weight="400"><tspan class="TextPosition" x="8836" y="8858"><tspan fill="rgb(0,0,0)" stroke="none">0,15</tspan></tspan></tspan></text>
 <text class="TextShape"><tspan class="TextParagraph" font-family="Liberation Sans, sans-serif" font-size="353px" font-weight="400"><tspan class="TextPosition" x="11451" y="8858"><tspan fill="rgb(0,0,0)" stroke="none">0,2</tspan></tspan></tspan></text>
 <text class="TextShape"><tspan class="TextParagraph" font-family="Liberation Sans, sans-serif" font-size="353px" font-weight="400"><tspan class="TextPosition" x="13879" y="8858"><tspan fill="rgb(0,0,0)" stroke="none">0,25</tspan></tspan></tspan></text>
 <text class="TextShape"><tspan class="TextParagraph" font-family="Liberation Sans, sans-serif" font-size="353px" font-weight="400"><tspan class="TextPosition" x="1166" y="8450"><tspan fill="rgb(0,0,0)" stroke="none">0</tspan></tspan></tspan></text>
 <text class="TextShape"><tspan class="TextParagraph" font-family="Liberation Sans, sans-serif" font-size="353px" font-weight="400"><tspan class="TextPosition" x="875" y="7666"><tspan fill="rgb(0,0,0)" stroke="none">0,2</tspan></tspan></tspan></text>
 <text class="TextShape"><tspan class="TextParagraph" font-family="Liberation Sans, sans-serif" font-size="353px" font-weight="400"><tspan class="TextPosition" x="875" y="6882"><tspan fill="rgb(0,0,0)" stroke="none">0,4</tspan></tspan></tspan></text>
 <text class="TextShape"><tspan class="TextParagraph" font-family="Liberation Sans, sans-serif" font-size="353px" font-weight="400"><tspan class="TextPosition" x="875" y="6098"><tspan fill="rgb(0,0,0)" stroke="none">0,6</tspan></tspan></tspan></text>
 <text class="TextShape"><tspan class="TextParagraph" font-family="Liberation Sans, sans-serif" font-size="353px" font-weight="400"><tspan class="TextPosition" x="875" y="5314"><tspan fill="rgb(0,0,0)" stroke="none">0,8</tspan></tspan></tspan></text>
 <text class="TextShape"><tspan class="TextParagraph" font-family="Liberation Sans, sans-serif" font-size="353px" font-weight="400"><tspan class="TextPosition" x="1166" y="4531"><tspan fill="rgb(0,0,0)" stroke="none">1</tspan></tspan></tspan></text>
 <text class="TextShape"><tspan class="TextParagraph" font-family="Liberation Sans, sans-serif" font-size="353px" font-weight="400"><tspan class="TextPosition" x="875" y="3747"><tspan fill="rgb(0,0,0)" stroke="none">1,2</tspan></tspan></tspan></text>
 <text class="TextShape"><tspan class="TextParagraph" font-family="Liberation Sans, sans-serif" font-size="353px" font-weight="400"><tspan class="TextPosition" x="875" y="2963"><tspan fill="rgb(0,0,0)" stroke="none">1,4</tspan></tspan></tspan></text>
 <text class="TextShape"><tspan class="TextParagraph" font-family="Liberation Sans, sans-serif" font-size="353px" font-weight="400"><tspan class="TextPosition" x="875" y="2179"><tspan fill="rgb(0,0,0)" stroke="none">1,6</tspan></tspan></tspan></text>
 <text class="TextShape"><tspan class="TextParagraph" font-family="Liberation Sans, sans-serif" font-size="353px" font-weight="400"><tspan class="TextPosition" x="875" y="1395"><tspan fill="rgb(0,0,0)" stroke="none">1,8</tspan></tspan></tspan></text>
 <text class="TextShape"><tspan class="TextParagraph" font-family="Liberation Sans, sans-serif" font-size="459px" font-weight="400"><tspan class="TextPosition" x="3797" y="802"><tspan fill="rgb(0,0,0)" stroke="none">|U| within upper blade wake at t=120[s]</tspan></tspan></tspan></text>
 <path fill="none" stroke="rgb(0,69,134)" stroke-width="80" stroke-linejoin="round" d="M 9645,5282 L 10445,5282"/>
 <path fill="none" stroke="rgb(255,66,14)" stroke-width="80" stroke-linejoin="round" d="M 9645,5846 L 10445,5846"/>
 <path fill="none" stroke="rgb(255,211,32)" stroke-width="80" stroke-linejoin="round" d="M 9645,6410 L 10445,6410"/>
 <text class="TextShape"><tspan class="TextParagraph" font-family="Liberation Sans, sans-serif" font-size="353px" font-weight="400"><tspan class="TextPosition" x="10545" y="5361"><tspan fill="rgb(0,0,0)" stroke="none">U_laminar</tspan></tspan></tspan></text>
 <text class="TextShape"><tspan class="TextParagraph" font-family="Liberation Sans, sans-serif" font-size="353px" font-weight="400"><tspan class="TextPosition" x="10545" y="5925"><tspan fill="rgb(0,0,0)" stroke="none">U_Keps</tspan></tspan></tspan></text>
 <text class="TextShape"><tspan class="TextParagraph" font-family="Liberation Sans, sans-serif" font-size="353px" font-weight="400"><tspan class="TextPosition" x="10545" y="6489"><tspan fill="rgb(0,0,0)" stroke="none">U_KWSST</tspan></tspan></tspan></text>
 <text class="TextShape"><tspan class="TextParagraph" font-family="Liberation Sans, sans-serif" font-size="318px" font-weight="400"><tspan class="TextPosition" x="6993" y="9476"><tspan fill="rgb(0,0,0)" stroke="none">arc length</tspan></tspan></tspan></text>
 <text class="TextShape" transform="translate(395,5616) rotate(-90) translate(-395,-5616)"><tspan class="TextParagraph" font-family="Liberation Sans, sans-serif" font-size="318px" font-weight="400"><tspan class="TextPosition" x="395" y="5616"><tspan fill="rgb(0,0,0)" stroke="none">|U| [m/s]</tspan></tspan></tspan></text>
</svg>