<?xml version="1.0" encoding="UTF-8"?>
<!DOCTYPE svg PUBLIC "-//W3C//DTD SVG 1.1//EN" "http://www.w3.org/Graphics/SVG/1.1/DTD/svg11.dtd">
<svg width="152mm" height="102mm" viewBox="0 0 15200 10200" version="1.1" xmlns="http://www.w3.org/2000/svg" stroke-width="28.222" stroke-linejoin="round" xml:space="preserve">
 <path fill="rgb(255,255,255)" stroke="none" d="M 7623,10173 L 0,10173 0,0 15246,0 15246,10173 7623,10173 Z"/>
 <path fill="none" stroke="rgb(179,179,179)" stroke-linejoin="round" d="M 7925,8655 L 1837,8655 1837,1038 14014,1038 14014,8655 7925,8655 Z"/>
 <path fill="none" stroke="rgb(179,179,179)" stroke-linejoin="round" d="M 14014,8654 L 1837,8654"/>
 <path fill="none" stroke="rgb(179,179,179)" stroke-linejoin="round" d="M 14014,7892 L 1837,7892"/>
 <path fill="none" stroke="rgb(179,179,179)" stroke-linejoin="round" d="M 14014,7130 L 1837,7130"/>
 <path fill="none" stroke="rgb(179,179,179)" stroke-linejoin="round" d="M 14014,6368 L 1837,6368"/>
 <path fill="none" stroke="rgb(179,179,179)" stroke-linejoin="round" d="M 14014,5606 L 1837,5606"/>
 <path fill="none" stroke="rgb(179,179,179)" stroke-linejoin="round" d="M 14014,4846 L 1837,4846"/>
 <path fill="none" stroke="rgb(179,179,179)" stroke-linejoin="round" d="M 14014,4084 L 1837,4084"/>
 <path fill="none" stroke="rgb(179,179,179)" stroke-linejoin="round" d="M 14014,3322 L 1837,3322"/>
 <path fill="none" stroke="rgb(179,179,179)" stroke-linejoin="round" d="M 14014,2560 L 1837,2560"/>
 <path fill="none" stroke="rgb(179,179,179)" stroke-linejoin="round" d="M 14014,1798 L 1837,1798"/>
 <path fill="none" stroke="rgb(179,179,179)" stroke-linejoin="round" d="M 14014,1036 L 1837,1036"/>
 <path fill="none" stroke="rgb(179,179,179)" stroke-linejoin="round" d="M 1837,8042 L 1837,7892"/>
 <path fill="none" stroke="rgb(179,179,179)" stroke-linejoin="round" d="M 1837,8042 L 1837,7892"/>
 <path fill="none" stroke="rgb(179,179,179)" stroke-linejoin="round" d="M 3190,8042 L 3190,7892"/>
 <path fill="none" stroke="rgb(179,179,179)" stroke-linejoin="round" d="M 3190,8042 L 3190,7892"/>
 <path fill="none" stroke="rgb(179,179,179)" stroke-linejoin="round" d="M 4543,8042 L 4543,7892"/>
 <path fill="none" stroke="rgb(179,179,179)" stroke-linejoin="round" d="M 4543,8042 L 4543,7892"/>
 <path fill="none" stroke="rgb(179,179,179)" stroke-linejoin="round" d="M 5896,8042 L 5896,7892"/>
 <path fill="none" stroke="rgb(179,179,179)" stroke-linejoin="round" d="M 5896,8042 L 5896,7892"/>
 <path fill="none" stroke="rgb(179,179,179)" stroke-linejoin="round" d="M 7249,8042 L 7249,7892"/>
 <path fill="none" stroke="rgb(179,179,179)" stroke-linejoin="round" d="M 7249,8042 L 7249,7892"/>
 <path fill="none" stroke="rgb(179,179,179)" stroke-linejoin="round" d="M 8601,8042 L 8601,7892"/>
 <path fill="none" stroke="rgb(179,179,179)" stroke-linejoin="round" d="M 8601,8042 L 8601,7892"/>
 <path fill="none" stroke="rgb(179,179,179)" stroke-linejoin="round" d="M 9954,8042 L 9954,7892"/>
 <path fill="none" stroke="rgb(179,179,179)" stroke-linejoin="round" d="M 9954,8042 L 9954,7892"/>
 <path fill="none" stroke="rgb(179,179,179)" stroke-linejoin="round" d="M 11307,8042 L 11307,7892"/>
 <path fill="none" stroke="rgb(179,179,179)" stroke-linejoin="round" d="M 11307,8042 L 11307,7892"/>
 <path fill="none" stroke="rgb(179,179,179)" stroke-linejoin="round" d="M 12660,8042 L 12660,7892"/>
 <path fill="none" stroke="rgb(179,179,179)" stroke-linejoin="round" d="M 12660,8042 L 12660,7892"/>
 <path fill="none" stroke="rgb(179,179,179)" stroke-linejoin="round" d="M 14014,8042 L 14014,7892"/>
 <path fill="none" stroke="rgb(179,179,179)" stroke-linejoin="round" d="M 14014,8042 L 14014,7892"/>
 <path fill="none" stroke="rgb(179,179,179)" stroke-linejoin="round" d="M 1837,7892 L 14014,7892"/>
 <path fill="none" stroke="rgb(179,179,179)" stroke-linejoin="round" d="M 1687,8654 L 1837,8654"/>
 <path fill="none" stroke="rgb(179,179,179)" stroke-linejoin="round" d="M 1687,8654 L 1837,8654"/>
 <path fill="none" stroke="rgb(179,179,179)" stroke-linejoin="round" d="M 1687,7892 L 1837,7892"/>
 <path fill="none" stroke="rgb(179,179,179)" stroke-linejoin="round" d="M 1687,7892 L 1837,7892"/>
 <path fill="none" stroke="rgb(179,179,179)" stroke-linejoin="round" d="M 1687,7130 L 1837,7130"/>
 <path fill="none" stroke="rgb(179,179,179)" stroke-linejoin="round" d="M 1687,7130 L 1837,7130"/>
 <path fill="none" stroke="rgb(179,179,179)" stroke-linejoin="round" d="M 1687,6368 L 1837,6368"/>
 <path fill="none" stroke="rgb(179,179,179)" stroke-linejoin="round" d="M 1687,6368 L 1837,6368"/>
 <path fill="none" stroke="rgb(179,179,179)" stroke-linejoin="round" d="M 1687,5606 L 1837,5606"/>
 <path fill="none" stroke="rgb(179,179,179)" stroke-linejoin="round" d="M 1687,5606 L 1837,5606"/>
 <path fill="none" stroke="rgb(179,179,179)" stroke-linejoin="round" d="M 1687,4846 L 1837,4846"/>
 <path fill="none" stroke="rgb(179,179,179)" stroke-linejoin="round" d="M 1687,4846 L 1837,4846"/>
 <path fill="none" stroke="rgb(179,179,179)" stroke-linejoin="round" d="M 1687,4084 L 1837,4084"/>
 <path fill="none" stroke="rgb(179,179,179)" stroke-linejoin="round" d="M 1687,4084 L 1837,4084"/>
 <path fill="none" stroke="rgb(179,179,179)" stroke-linejoin="round" d="M 1687,3322 L 1837,3322"/>
 <path fill="none" stroke="rgb(179,179,179)" stroke-linejoin="round" d="M 1687,3322 L 1837,3322"/>
 <path fill="none" stroke="rgb(179,179,179)" stroke-linejoin="round" d="M 1687,2560 L 1837,2560"/>
 <path fill="none" stroke="rgb(179,179,179)" stroke-linejoin="round" d="M 1687,2560 L 1837,2560"/>
 <path fill="none" stroke="rgb(179,179,179)" stroke-linejoin="round" d="M 1687,1798 L 1837,1798"/>
 <path fill="none" stroke="rgb(179,179,179)" stroke-linejoin="round" d="M 1687,1798 L 1837,1798"/>
 <path fill="none" stroke="rgb(179,179,179)" stroke-linejoin="round" d="M 1687,1036 L 1837,1036"/>
 <path fill="none" stroke="rgb(179,179,179)" stroke-linejoin="round" d="M 1687,1036 L 1837,1036"/>
 <path fill="none" stroke="rgb(179,179,179)" stroke-linejoin="round" d="M 1837,8654 L 1837,1036"/>
 <path fill="none" stroke="rgb(255,66,14)" stroke-width="80" stroke-linejoin="round" d="M 1837,7930 L 1858,7930 1869,7930 1880,7930 1901,7930 1912,7930 1923,7930 1934,7930 1956,7930 1966,7930 1977,7930 1988,7930 2010,7930 2021,7930 2031,7930 2053,7931 2064,7931 2075,7931 2085,7931 2107,7931 2118,7931 2129,7931 2140,7931 2161,7931 2172,7931 2183,7931 2194,7931 2215,7931 2226,7931 2237,7931 2259,7931 2269,7931 2280,7931 2291,7931 2313,7931 2324,7931 2334,7931 2345,7931 2367,7931 2378,7931 2389,7931 2399,7931 2421,7931 2432,7931 2443,7931 2464,7931 2475,7931 2486,7931 2497,7931 2518,7931 2529,7931 2540,7931 2551,7931 2573,7931 2583,7931 2594,7931 2605,7931 2627,7931 2638,7931 2648,7931 2670,7931 2681,7931 2692,7931 2702,7931 2724,7931 2735,7931 2746,7931 2757,7931 2778,7931 2789,7931 2800,7931 2811,7931 2832,7931 2843,7931 2854,7931 2876,7931 2887,7931 2897,7931 2908,7931 2930,7931 2941,7931 2951,7931 2962,7931 2984,7931 2995,7931 3006,7931 3016,7931 3038,7931 3049,7931 3060,7931 3081,7931 3092,7931 3103,7931 3114,7931 3135,7931 3146,7931 3157,7931 3168,7931 3190,7931 3200,7931 3211,7931 3222,7931 3244,7931 3255,7931 3265,7931 3287,7931 3298,7931 3309,7931 3320,7931 3341,7931 3352,7931 3363,7931 3374,7931 3395,7931 3406,7931 3417,7932 3428,7932 3449,7932 3460,7932 3471,7932 3493,7932 3504,7932 3514,7932 3525,7932 3547,7932 3558,7932 3568,7932 3579,7932 3601,7932 3612,7932 3623,7932 3633,7932 3655,7932 3666,7932 3677,7932 3698,7932 3709,7932 3720,7932 3731,7932 3753,7932 3763,7932 3774,7932 3785,7932 3807,7932 3817,7932 3828,7932 3839,7932 3861,7932 3872,7932 3882,7932 3904,7932 3915,7932 3926,7932 3937,7932 3958,7932 3969,7932 3980,7932 3991,7932 4012,7932 4023,7932 4034,7932 4045,7932 4066,7932 4077,7932 4088,7932 4110,7932 4121,7932 4131,7932 4142,7932 4164,7932 4175,7932 4186,7932 4196,7932 4218,7932 4229,7932 4240,7932 4250,7932 4272,7932 4283,7932 4294,7933 4315,7933 4326,7933 4337,7933 4348,7933 4370,7933 4380,7933 4391,7933 4402,7933 4424,7933 4434,7933 4445,7933 4456,7933 4478,7933 4489,7933 4499,7933 4521,7933 4532,7933 4543,7933 4554,7933 4575,7933 4586,7933 4597,7933 4608,7933 4629,7933 4640,7933 4651,7933 4662,7933 4683,7933 4694,7933 4705,7933 4727,7933 4738,7933 4748,7933 4759,7933 4781,7933 4792,7933 4803,7933 4813,7933 4835,7933 4846,7933 4857,7933 4867,7933 4889,7933 4900,7933 4911,7933 4932,7933 4943,7933 4954,7932 4965,7932 4987,7932 4997,7932 5008,7932 5019,7932 5041,7932 5051,7932 5062,7932 5073,7932 5095,7932 5106,7932 5116,7932 5138,7932 5149,7932 5160,7932 5171,7932 5192,7932 5203,7932 5214,7932 5225,7932 5246,7932 5257,7932 5268,7932 5279,7932 5300,7931 5311,7931 5322,7931 5344,7931 5355,7931 5365,7931 5376,7931 5398,7931 5409,7931 5420,7931 5430,7931 5452,7931 5463,7931 5474,7930 5484,7930 5506,7930 5517,7930 5528,7930 5549,7930 5560,7930 5571,7930 5582,7930 5604,7929 5614,7929 5625,7929 5636,7929 5658,7929 5669,7929 5679,7929 5690,7929 5712,7928 5723,7928 5733,7928 5755,7928 5766,7928 5777,7928 5788,7928 5809,7927 5820,7927 5831,7927 5842,7927 5863,7927 5874,7927 5885,7927 5907,7926 5917,7926 5928,7926 5939,7926 5961,7926 5972,7926 5982,7926 5993,7925 6015,7925 6026,7925 6037,7925 6047,7925 6069,7925 6080,7924 6091,7924 6112,7924 6123,7924 6134,7924 6145,7924 6166,7923 6177,7923 6188,7923 6199,7923 6221,7923 6231,7923 6242,7922 6253,7922 6275,7922 6286,7922 6296,7922 6318,7922 6329,7922 6340,7921 6350,7921 6372,7921 6383,7921 6394,7921 6405,7921 6426,7920 6437,7920 6448,7920 6459,7920 6480,7920 6491,7920 6502,7920 6524,7919 6535,7919 6545,7919 6556,7919 6578,7919 6589,7919 6599,7919 6610,7919 6632,7918 6643,7918 6654,7918 6664,7918 6686,7918 6697,7918 6708,7918 6729,7917 6740,7917 6751,7917 6762,7917 6783,7917 6794,7917 6805,7917 6816,7917 6838,7917 6848,7916 6859,7916 6870,7916 6892,7916 6903,7916 6913,7916 6935,7916 6946,7916 6957,7916 6967,7915 6989,7915 7000,7915 7011,7915 7022,7915 7043,7915 7054,7915 7065,7915 7076,7915 7097,7915 7108,7914 7119,7914 7141,7914 7152,7914 7162,7914 7173,7914 7195,7914 7206,7914 7216,7914 7227,7914 7249,7913 7260,7913 7271,7913 7281,7913 7303,7913 7314,7913 7325,7913 7346,7913 7357,7913 7368,7913 7379,7912 7400,7912 7411,7912 7422,7912 7433,7912 7455,7912 7465,7912 7476,7912 7487,7912 7509,7912 7520,7911 7530,7911 7552,7911 7563,7911 7574,7911 7585,7911 7606,7911 7617,7911 7627,7911 7638,7911 7659,7910 7670,7910 7681,7910 7692,7910 7713,7910 7724,7910 7735,7910 7757,7910 7768,7909 7778,7909 7789,7909 7811,7909 7822,7909 7832,7909 7843,7909 7865,7909 7876,7909 7887,7908 7897,7908 7919,7908 7930,7908 7941,7908 7962,7908 7973,7908 7984,7907 7995,7907 8017,7907 8027,7907 8038,7907 8049,7907 8071,7907 8081,7907 8092,7906 8103,7906 8125,7906 8136,7906 8146,7906 8168,7906 8179,7906 8190,7905 8201,7905 8222,7905 8233,7905 8244,7905 8255,7905 8276,7904 8287,7904 8298,7904 8309,7904 8330,7904 8341,7904 8352,7904 8374,7903 8385,7903 8395,7903 8406,7903 8428,7903 8439,7903 8450,7902 8460,7902 8482,7902 8493,7902 8504,7902 8514,7902 8536,7901 8547,7901 8558,7901 8579,7901 8590,7901 8601,7901 8612,7900 8634,7900 8644,7900 8655,7900 8666,7900 8688,7899 8698,7899 8709,7899 8720,7899 8742,7899 8753,7899 8763,7898 8774,7898 8785,7898 8796,7898 8807,7898 8818,7898 8839,7897 8850,7897 8861,7897 8872,7897 8893,7897 8904,7897 8915,7896 8926,7896 8947,7896 8958,7896 8969,7896 8991,7895 9002,7895 9012,7895 9023,7895 9045,7895 9056,7895 9067,7894 9077,7894 9099,7894 9110,7894 9121,7894 9131,7894 9153,7893 9164,7893 9175,7893 9196,7893 9207,7893 9218,7893 9229,7892 9251,7892 9261,7892 9272,7892 9283,7892 9305,7892 9315,7891 9326,7891 9337,7891 9359,7891 9370,7891 9380,7891 9402,7890 9413,7890 9424,7890 9435,7890 9456,7890 9467,7890 9478,7890 9489,7890 9510,7889 9521,7889 9532,7889 9543,7889 9564,7889 9575,7889 9586,7889 9608,7889 9619,7888 9629,7888 9640,7888 9662,7888 9673,7888 9684,7888 9694,7888 9716,7888 9727,7888 9738,7888 9748,7888 9770,7887 9781,7887 9792,7887 9813,7887 9824,7887 9835,7887 9846,7887 9868,7887 9878,7887 9889,7887 9900,7887 9922,7887 9933,7887 9943,7887 9954,7887 9976,7887 9987,7887 9997,7887 10019,7887 10030,7887 10041,7887 10052,7887 10073,7887 10084,7887 10095,7887 10106,7887 10127,7887 10138,7887 10149,7887 10171,7887 10181,7887 10192,7887 10203,7887 10225,7887 10236,7887 10246,7887 10257,7887 10279,7887 10290,7887 10301,7887 10311,7887 10333,7887 10344,7887 10355,7887 10376,7887 10387,7887 10398,7887 10409,7887 10430,7887 10441,7888 10452,7888 10463,7888 10485,7888 10495,7888 10506,7888 10517,7888 10539,7888 10550,7888 10560,7888 10582,7888 10593,7888 10604,7888 10614,7888 10636,7888 10647,7888 10658,7888 10669,7888 10690,7888 10701,7888 10712,7889 10723,7889 10744,7889 10755,7889 10766,7889 10788,7889 10799,7889 10809,7889 10820,7889 10842,7889 10853,7889 10863,7889 10874,7889 10896,7889 10907,7889 10918,7889 10928,7889 10950,7889 10961,7889 10972,7889 10993,7890 11004,7890 11015,7890 11026,7890 11047,7890 11058,7890 11069,7890 11080,7890 11102,7890 11112,7890 11123,7890 11134,7890 11156,7890 11167,7890 11177,7890 11199,7890 11210,7890 11221,7890 11232,7890 11253,7890 11264,7890 11275,7890 11286,7891 11307,7891 11318,7891 11329,7891 11340,7891 11361,7891 11372,7891 11383,7891 11405,7891 11416,7891 11426,7891 11437,7891 11459,7891 11470,7891 11480,7891 11491,7891 11513,7891 11524,7891 11535,7891 11545,7891 11567,7891 11578,7891 11589,7891 11610,7891 11621,7891 11632,7891 11643,7891 11664,7891 11675,7891 11686,7891 11697,7891 11719,7891 11729,7891 11740,7891 11751,7891 11773,7891 11784,7891 11794,7891 11816,7891 11827,7891 11838,7891 11849,7891 11870,7892 11881,7892 11892,7892 11903,7892 11924,7892 11935,7892 11946,7892 11957,7892 11978,7892 11989,7892 12000,7892 12022,7892 12033,7892 12043,7892 12054,7892 12076,7892 12087,7892 12097,7892 12108,7892 12130,7892 12141,7892 12152,7892 12162,7892 12184,7892 12195,7892 12206,7892 12227,7892 12238,7892 12249,7892 12260,7892 12282,7892 12292,7892 12303,7892 12314,7892 12336,7892 12346,7892 12357,7892 12368,7892 12390,7892 12401,7892 12411,7892 12433,7892 12444,7892 12455,7892 12466,7892 12487,7892 12498,7892 12509,7892 12520,7892 12541,7892 12552,7892 12563,7892 12574,7892 12595,7892 12606,7892 12617,7892 12639,7892 12650,7892 12660,7892"/>
 <path fill="none" stroke="rgb(0,69,134)" stroke-width="80" stroke-linejoin="round" d="M 1837,1959 L 1847,1965 1858,1972 1869,1979 1880,1986 1891,1992 1901,1999 1912,2006 1923,2013 1934,2018 1956,2029 1966,2034 1977,2039 1988,2045 2010,2055 2021,2060 2031,2066 2042,2072 2053,2078 2064,2084 2075,2090 2085,2096 2096,2102 2107,2108 2118,2114 2129,2120 2140,2126 2161,2138 2172,2144 2183,2150 2194,2156 2215,2168 2226,2174 2237,2180 2259,2192 2269,2198 2280,2204 2291,2210 2302,2216 2313,2222 2324,2228 2334,2234 2345,2240 2356,2246 2367,2252 2378,2258 2389,2264 2399,2270 2421,2282 2432,2288 2443,2294 2454,2300 2464,2306 2475,2312 2486,2318 2497,2323 2518,2336 2529,2341 2540,2347 2551,2353 2573,2365 2583,2371 2594,2377 2605,2383 2616,2389 2627,2395 2638,2401 2648,2407 2670,2419 2681,2425 2692,2431 2702,2437 2713,2443 2724,2449 2735,2455 2746,2461 2757,2467 2767,2473 2778,2479 2789,2485 2800,2491 2811,2497 2832,2509 2843,2515 2854,2521 2876,2533 2887,2539 2897,2545 2908,2551 2930,2563 2941,2569 2951,2575 2962,2581 2973,2587 2984,2593 2995,2598 3006,2605 3016,2611 3027,2616 3038,2622 3049,2629 3060,2634 3071,2640 3081,2646 3092,2652 3103,2658 3114,2664 3125,2670 3135,2676 3146,2682 3157,2688 3168,2694 3190,2706 3200,2712 3211,2718 3222,2724 3244,2736 3255,2742 3265,2748 3287,2760 3298,2766 3309,2772 3320,2778 3341,2790 3352,2796 3363,2802 3374,2808 3384,2814 3395,2820 3406,2826 3417,2832 3428,2838 3439,2844 3449,2850 3460,2856 3471,2862 3482,2868 3493,2874 3504,2880 3514,2886 3525,2892 3547,2904 3558,2910 3568,2916 3579,2922 3601,2934 3612,2940 3623,2946 3633,2952 3644,2958 3655,2964 3666,2969 3677,2976 3698,2987 3709,2993 3720,3000 3731,3005 3742,3011 3753,3017 3763,3023 3774,3029 3785,3035 3796,3041 3807,3047 3817,3053 3828,3059 3839,3065 3861,3077 3872,3083 3882,3089 3893,3095 3904,3101 3915,3107 3926,3113 3937,3119 3958,3131 3969,3137 3980,3143 3991,3149 4012,3161 4023,3167 4034,3173 4045,3179 4056,3185 4066,3191 4077,3197 4088,3203 4110,3215 4121,3221 4131,3227 4142,3233 4153,3239 4164,3245 4175,3251 4186,3257 4196,3263 4218,3275 4229,3281 4240,3287 4250,3293 4272,3305 4283,3311 4294,3317 4315,3329 4326,3335 4337,3341 4348,3347 4370,3358 4380,3365 4391,3371 4402,3376 4413,3382 4424,3388 4434,3394 4445,3400 4456,3406 4467,3412 4478,3418 4489,3424 4499,3430 4510,3436 4521,3442 4532,3448 4543,3454 4554,3460 4564,3466 4575,3472 4586,3478 4597,3484 4608,3490 4629,3502 4640,3508 4651,3514 4662,3520 4683,3532 4694,3538 4705,3544 4727,3556 4738,3562 4748,3568 4759,3574 4781,3585 4792,3592 4803,3598 4813,3603 4824,3609 4835,3615 4846,3621 4857,3627 4867,3633 4889,3645 4900,3651 4911,3657 4922,3663 4932,3669 4943,3675 4954,3681 4965,3687 4987,3699 4997,3705 5008,3711 5019,3717 5041,3729 5051,3734 5062,3740 5073,3746 5095,3758 5106,3764 5116,3770 5138,3782 5149,3788 5160,3794 5171,3800 5181,3806 5192,3812 5203,3818 5214,3824 5225,3830 5236,3836 5246,3841 5257,3847 5268,3853 5279,3859 5300,3871 5311,3877 5322,3883 5333,3889 5344,3895 5355,3901 5365,3907 5376,3912 5398,3924 5409,3930 5420,3936 5430,3942 5452,3954 5463,3960 5474,3966 5484,3971 5506,3983 5517,3989 5528,3995 5549,4007 5560,4013 5571,4019 5582,4024 5604,4036 5614,4042 5625,4048 5636,4054 5647,4060 5658,4066 5669,4072 5679,4077 5690,4083 5701,4089 5712,4095 5723,4101 5733,4107 5744,4112 5755,4118 5766,4124 5777,4130 5788,4136 5798,4142 5809,4148 5820,4154 5831,4159 5842,4165 5863,4177 5874,4183 5885,4189 5896,4195 5907,4200 5917,4206 5928,4212 5939,4218 5961,4230 5972,4235 5982,4241 5993,4247 6015,4259 6026,4265 6037,4271 6047,4276 6069,4288 6080,4294 6091,4300 6112,4311 6123,4317 6134,4323 6145,4329 6166,4341 6177,4347 6188,4352 6199,4358 6210,4364 6221,4370 6231,4376 6242,4382 6253,4388 6264,4393 6275,4399 6286,4405 6296,4411 6307,4417 6318,4423 6329,4428 6340,4434 6350,4440 6361,4446 6372,4452 6383,4458 6394,4464 6405,4469 6426,4481 6437,4487 6448,4493 6459,4499 6480,4510 6491,4516 6502,4522 6524,4534 6535,4540 6545,4546 6556,4551 6578,4563 6589,4569 6599,4575 6610,4581 6632,4593 6643,4599 6654,4604 6664,4610 6675,4616 6686,4622 6697,4628 6708,4634 6729,4645 6740,4651 6751,4657 6762,4663 6773,4669 6783,4675 6794,4681 6805,4687 6816,4693 6827,4698 6838,4704 6848,4710 6859,4716 6870,4722 6892,4734 6903,4740 6913,4745 6924,4751 6935,4757 6946,4763 6957,4769 6967,4775 6989,4787 7000,4792 7011,4798 7022,4804 7043,4816 7054,4822 7065,4828 7076,4834 7087,4840 7097,4846 7108,4851 7119,4857 7141,4869 7152,4875 7162,4881 7173,4887 7184,4893 7195,4899 7206,4904 7216,4910 7227,4916 7238,4922 7249,4928 7260,4934 7271,4940 7281,4946 7303,4958 7314,4963 7325,4969 7336,4975 7346,4981 7357,4987 7368,4993 7379,4999 7400,5011 7411,5016 7422,5022 7433,5028 7455,5040 7465,5046 7476,5052 7487,5058 7509,5070 7520,5075 7530,5081 7552,5092 7563,5098 7574,5104 7585,5110 7606,5122 7617,5127 7627,5133 7638,5139 7648,5145 7659,5151 7670,5157 7681,5163 7692,5169 7703,5175 7713,5180 7724,5186 7735,5192 7746,5198 7757,5204 7768,5210 7778,5216 7789,5222 7800,5228 7811,5233 7822,5239 7832,5245 7843,5251 7865,5263 7876,5269 7887,5274 7897,5280 7919,5292 7930,5298 7941,5304 7962,5316 7973,5322 7984,5327 7995,5333 8017,5345 8027,5351 8038,5357 8049,5363 8060,5368 8071,5374 8081,5380 8092,5386 8103,5392 8114,5398 8125,5404 8136,5409 8146,5415 8157,5421 8168,5427 8179,5433 8190,5439 8201,5444 8211,5450 8222,5456 8233,5462 8244,5468 8255,5474 8276,5485 8287,5491 8298,5497 8309,5503 8330,5515 8341,5521 8352,5526 8363,5532 8374,5538 8385,5544 8395,5550 8406,5556 8428,5567 8439,5573 8450,5579 8460,5585 8482,5597 8493,5602 8504,5608 8514,5614 8525,5620 8536,5626 8547,5632 8558,5637 8579,5649 8590,5655 8601,5661 8612,5667 8634,5678 8644,5684 8655,5690 8666,5696 8677,5702 8688,5707 8698,5713 8709,5719 8720,5725 8731,5731 8742,5737 8753,5743 8763,5748 8774,5754 8785,5760 8796,5766 8807,5772 8818,5777 8828,5783 8839,5789 8850,5795 8861,5801 8872,5807 8893,5818 8904,5824 8915,5830 8926,5836 8947,5847 8958,5853 8969,5859 8991,5871 9002,5877 9012,5882 9023,5888 9045,5900 9056,5906 9067,5911 9077,5917 9099,5929 9110,5935 9121,5941 9131,5947 9142,5952 9153,5958 9164,5964 9175,5970 9196,5982 9207,5987 9218,5993 9229,5999 9240,6005 9251,6011 9261,6017 9272,6023 9283,6028 9294,6034 9305,6040 9315,6046 9326,6052 9337,6058 9359,6069 9370,6075 9380,6081 9391,6087 9402,6093 9413,6099 9424,6104 9435,6110 9456,6122 9467,6128 9478,6134 9489,6140 9510,6151 9521,6157 9532,6163 9543,6169 9564,6181 9575,6187 9586,6193 9608,6204 9619,6210 9629,6216 9640,6222 9662,6234 9673,6240 9684,6246 9694,6251 9705,6257 9716,6263 9727,6269 9738,6275 9748,6281 9759,6287 9770,6293 9781,6299 9792,6305 9803,6311 9813,6317 9824,6323 9835,6328 9846,6334 9857,6340 9868,6346 9878,6352 9889,6358 9900,6364 9922,6376 9933,6382 9943,6388 9954,6394 9976,6406 9987,6412 9997,6418 10019,6430 10030,6436 10041,6441 10052,6447 10073,6459 10084,6465 10095,6471 10106,6477 10117,6483 10127,6489 10138,6495 10149,6501 10160,6507 10171,6513 10181,6519 10192,6525 10203,6531 10214,6537 10225,6543 10236,6549 10246,6555 10257,6561 10279,6573 10290,6579 10301,6585 10311,6591 10333,6603 10344,6609 10355,6615 10376,6627 10387,6633 10398,6639 10409,6645 10430,6657 10441,6663 10452,6669 10463,6675 10474,6681 10485,6687 10495,6693 10506,6699 10517,6705 10528,6711 10539,6717 10550,6723 10560,6729 10571,6735 10582,6741 10593,6747 10604,6753 10614,6759 10636,6771 10647,6777 10658,6783 10669,6789 10690,6801 10701,6807 10712,6813 10723,6820 10734,6826 10744,6832 10755,6838 10766,6844 10788,6856 10799,6862 10809,6868 10820,6874 10831,6880 10842,6886 10853,6892 10863,6898 10874,6904 10885,6910 10896,6916 10907,6922 10918,6928 10928,6934 10950,6946 10961,6952 10972,6958 10993,6970 11004,6976 11015,6982 11026,6988 11047,7000 11058,7006 11069,7012 11080,7018 11091,7024 11102,7030 11112,7036 11123,7042 11134,7048 11145,7054 11156,7060 11167,7066 11177,7072 11188,7078 11199,7084 11210,7090 11221,7096 11232,7102 11242,7108 11253,7114 11264,7120 11275,7126 11286,7132 11307,7144 11318,7150 11329,7156 11340,7162 11361,7174 11372,7180 11383,7186 11405,7198 11416,7204 11426,7210 11437,7216 11459,7228 11470,7234 11480,7240 11491,7246 11502,7252 11513,7258 11524,7264 11535,7270 11545,7276 11567,7288 11578,7294 11589,7300 11600,7306 11610,7312 11621,7318 11632,7324 11643,7330 11664,7342 11675,7348 11686,7354 11697,7360 11719,7372 11729,7378 11740,7384 11751,7390 11762,7396 11773,7402 11784,7408 11794,7414 11816,7426 11827,7432 11838,7438 11849,7444 11859,7450 11870,7456 11881,7462 11892,7468 11903,7473 11913,7479 11924,7485 11935,7491 11946,7497 11957,7503 11978,7515 11989,7521 12000,7527 12011,7533 12022,7539 12033,7545 12043,7551 12054,7557 12076,7569 12087,7575 12097,7581 12108,7587 12130,7599 12141,7605 12152,7611 12162,7617 12173,7623 12184,7629 12195,7635 12206,7641 12217,7647 12227,7653 12238,7659 12249,7665 12260,7671 12271,7677 12282,7683 12292,7689 12303,7695 12314,7701 12336,7713 12346,7719 12357,7725 12368,7731 12390,7742 12401,7748 12411,7754 12433,7766 12444,7772 12455,7778 12466,7784 12487,7796 12498,7802 12509,7808 12520,7814 12530,7820 12541,7826 12552,7832 12563,7838 12574,7843 12585,7848 12595,7852 12606,7857 12617,7861 12639,7870 12650,7875 12660,7879"/>
 <text class="TextShape"><tspan class="TextParagraph" font-family="Liberation Sans, sans-serif" font-size="353px" font-weight="400"><tspan class="TextPosition" x="1744" y="8380"><tspan fill="rgb(0,0,0)" stroke="none">0</tspan></tspan></tspan></text>
 <text class="TextShape"><tspan class="TextParagraph" font-family="Liberation Sans, sans-serif" font-size="353px" font-weight="400"><tspan class="TextPosition" x="2859" y="8380"><tspan fill="rgb(0,0,0)" stroke="none">0.05</tspan></tspan></tspan></text>
 <text class="TextShape"><tspan class="TextParagraph" font-family="Liberation Sans, sans-serif" font-size="353px" font-weight="400"><tspan class="TextPosition" x="4305" y="8380"><tspan fill="rgb(0,0,0)" stroke="none">0.1</tspan></tspan></tspan></text>
 <text class="TextShape"><tspan class="TextParagraph" font-family="Liberation Sans, sans-serif" font-size="353px" font-weight="400"><tspan class="TextPosition" x="5565" y="8380"><tspan fill="rgb(0,0,0)" stroke="none">0.15</tspan></tspan></tspan></text>
 <text class="TextShape"><tspan class="TextParagraph" font-family="Liberation Sans, sans-serif" font-size="353px" font-weight="400"><tspan class="TextPosition" x="7011" y="8380"><tspan fill="rgb(0,0,0)" stroke="none">0.2</tspan></tspan></tspan></text>
 <text class="TextShape"><tspan class="TextParagraph" font-family="Liberation Sans, sans-serif" font-size="353px" font-weight="400"><tspan class="TextPosition" x="8271" y="8380"><tspan fill="rgb(0,0,0)" stroke="none">0.25</tspan></tspan></tspan></text>
 <text class="TextShape"><tspan class="TextParagraph" font-family="Liberation Sans, sans-serif" font-size="353px" font-weight="400"><tspan class="TextPosition" x="9717" y="8380"><tspan fill="rgb(0,0,0)" stroke="none">0.3</tspan></tspan></tspan></text>
 <text class="TextShape"><tspan class="TextParagraph" font-family="Liberation Sans, sans-serif" font-size="353px" font-weight="400"><tspan class="TextPosition" x="10977" y="8380"><tspan fill="rgb(0,0,0)" stroke="none">0.35</tspan></tspan></tspan></text>
 <text class="TextShape"><tspan class="TextParagraph" font-family="Liberation Sans, sans-serif" font-size="353px" font-weight="400"><tspan class="TextPosition" x="12423" y="8380"><tspan fill="rgb(0,0,0)" stroke="none">0.4</tspan></tspan></tspan></text>
 <text class="TextShape"><tspan class="TextParagraph" font-family="Liberation Sans, sans-serif" font-size="353px" font-weight="400"><tspan class="TextPosition" x="13684" y="8380"><tspan fill="rgb(0,0,0)" stroke="none">0.45</tspan></tspan></tspan></text>
 <text class="TextShape"><tspan class="TextParagraph" font-family="Liberation Sans, sans-serif" font-size="353px" font-weight="400"><tspan class="TextPosition" x="1005" y="8734"><tspan fill="rgb(0,0,0)" stroke="none">-0.5</tspan></tspan></tspan></text>
 <text class="TextShape"><tspan class="TextParagraph" font-family="Liberation Sans, sans-serif" font-size="353px" font-weight="400"><tspan class="TextPosition" x="1402" y="7972"><tspan fill="rgb(0,0,0)" stroke="none">0</tspan></tspan></tspan></text>
 <text class="TextShape"><tspan class="TextParagraph" font-family="Liberation Sans, sans-serif" font-size="353px" font-weight="400"><tspan class="TextPosition" x="1111" y="7210"><tspan fill="rgb(0,0,0)" stroke="none">0.5</tspan></tspan></tspan></text>
 <text class="TextShape"><tspan class="TextParagraph" font-family="Liberation Sans, sans-serif" font-size="353px" font-weight="400"><tspan class="TextPosition" x="1402" y="6448"><tspan fill="rgb(0,0,0)" stroke="none">1</tspan></tspan></tspan></text>
 <text class="TextShape"><tspan class="TextParagraph" font-family="Liberation Sans, sans-serif" font-size="353px" font-weight="400"><tspan class="TextPosition" x="1111" y="5686"><tspan fill="rgb(0,0,0)" stroke="none">1.5</tspan></tspan></tspan></text>
 <text class="TextShape"><tspan class="TextParagraph" font-family="Liberation Sans, sans-serif" font-size="353px" font-weight="400"><tspan class="TextPosition" x="1402" y="4925"><tspan fill="rgb(0,0,0)" stroke="none">2</tspan></tspan></tspan></text>
 <text class="TextShape"><tspan class="TextParagraph" font-family="Liberation Sans, sans-serif" font-size="353px" font-weight="400"><tspan class="TextPosition" x="1111" y="4163"><tspan fill="rgb(0,0,0)" stroke="none">2.5</tspan></tspan></tspan></text>
 <text class="TextShape"><tspan class="TextParagraph" font-family="Liberation Sans, sans-serif" font-size="353px" font-weight="400"><tspan class="TextPosition" x="1402" y="3401"><tspan fill="rgb(0,0,0)" stroke="none">3</tspan></tspan></tspan></text>
 <text class="TextShape"><tspan class="TextParagraph" font-family="Liberation Sans, sans-serif" font-size="353px" font-weight="400"><tspan class="TextPosition" x="1111" y="2639"><tspan fill="rgb(0,0,0)" stroke="none">3.5</tspan></tspan></tspan></text>
 <text class="TextShape"><tspan class="TextParagraph" font-family="Liberation Sans, sans-serif" font-size="353px" font-weight="400"><tspan class="TextPosition" x="1402" y="1877"><tspan fill="rgb(0,0,0)" stroke="none">4</tspan></tspan></tspan></text>
 <text class="TextShape"><tspan class="TextParagraph" font-family="Liberation Sans, sans-serif" font-size="353px" font-weight="400"><tspan class="TextPosition" x="1111" y="1115"><tspan fill="rgb(0,0,0)" stroke="none">4.5</tspan></tspan></tspan></text>
 <text class="TextShape"><tspan class="TextParagraph" font-family="Liberation Sans, sans-serif" font-size="459px" font-weight="400"><tspan class="TextPosition" x="2926" y="794"><tspan fill="rgb(0,0,0)" stroke="none">Static pressure comparison at outlet at time 2.4</tspan></tspan></tspan></text>
 <path fill="rgb(255,255,255)" stroke="none" d="M 10781,4531 L 8902,4531 8902,2259 12660,2259 12660,4531 10781,4531 Z"/>
 <path fill="none" stroke="rgb(0,69,134)" stroke-width="80" stroke-linejoin="round" d="M 9073,2962 L 9873,2962"/>
 <path fill="none" stroke="rgb(255,66,14)" stroke-width="80" stroke-linejoin="round" d="M 9073,3825 L 9873,3825"/>
 <text class="TextShape"><tspan class="TextParagraph" font-family="Liberation Sans, sans-serif" font-size="353px" font-weight="400"><tspan class="TextPosition" x="9973" y="3041"><tspan fill="rgb(0,0,0)" stroke="none">p with gravity</tspan></tspan></tspan></text>
 <text class="TextShape"><tspan class="TextParagraph" font-family="Liberation Sans, sans-serif" font-size="353px" font-weight="400"><tspan class="TextPosition" x="9973" y="3904"><tspan fill="rgb(0,0,0)" stroke="none">p without gravity</tspan></tspan></tspan></text>
 <text class="TextShape"><tspan class="TextParagraph" font-family="Liberation Sans, sans-serif" font-size="318px" font-weight="400"><tspan class="TextPosition" x="6788" y="9351"><tspan fill="rgb(0,0,0)" stroke="none">y coordinate</tspan></tspan></tspan></text>
 <text class="TextShape" transform="translate(525,5996) rotate(-90) translate(-525,-5996)"><tspan class="TextParagraph" font-family="Liberation Sans, sans-serif" font-size="318px" font-weight="400"><tspan class="TextPosition" x="525" y="5996"><tspan fill="rgb(0,0,0)" stroke="none">Velocity module</tspan></tspan></tspan></text>
</svg>