<?xml version="1.0" encoding="UTF-8"?>
<!DOCTYPE svg PUBLIC "-//W3C//DTD SVG 1.1//EN" "http://www.w3.org/Graphics/SVG/1.1/DTD/svg11.dtd">
<svg width="152mm" height="102mm" viewBox="0 0 15200 10200" version="1.1" xmlns="http://www.w3.org/2000/svg" stroke-width="28.222" stroke-linejoin="round" xml:space="preserve">
 <path fill="rgb(255,255,255)" stroke="none" d="M 7596,10267 L -24,10267 -24,107 15216,107 15216,10267 7596,10267 Z"/>
 <path fill="none" stroke="rgb(179,179,179)" stroke-linejoin="round" d="M 8528,8560 L 2475,8560 2475,1506 14582,1506 14582,8560 8528,8560 Z"/>
 <path fill="none" stroke="rgb(179,179,179)" stroke-linejoin="round" d="M 14582,8558 L 2475,8558"/>
 <path fill="none" stroke="rgb(179,179,179)" stroke-linejoin="round" d="M 14582,7551 L 2475,7551"/>
 <path fill="none" stroke="rgb(179,179,179)" stroke-linejoin="round" d="M 14582,6543 L 2475,6543"/>
 <path fill="none" stroke="rgb(179,179,179)" stroke-linejoin="round" d="M 14582,5535 L 2475,5535"/>
 <path fill="none" stroke="rgb(179,179,179)" stroke-linejoin="round" d="M 14582,4528 L 2475,4528"/>
 <path fill="none" stroke="rgb(179,179,179)" stroke-linejoin="round" d="M 14582,3520 L 2475,3520"/>
 <path fill="none" stroke="rgb(179,179,179)" stroke-linejoin="round" d="M 14582,2512 L 2475,2512"/>
 <path fill="none" stroke="rgb(179,179,179)" stroke-linejoin="round" d="M 14582,1504 L 2475,1504"/>
 <path fill="none" stroke="rgb(179,179,179)" stroke-linejoin="round" d="M 2475,8708 L 2475,8558"/>
 <path fill="none" stroke="rgb(179,179,179)" stroke-linejoin="round" d="M 2475,8708 L 2475,8558"/>
 <path fill="none" stroke="rgb(179,179,179)" stroke-linejoin="round" d="M 4493,8708 L 4493,8558"/>
 <path fill="none" stroke="rgb(179,179,179)" stroke-linejoin="round" d="M 4493,8708 L 4493,8558"/>
 <path fill="none" stroke="rgb(179,179,179)" stroke-linejoin="round" d="M 6511,8708 L 6511,8558"/>
 <path fill="none" stroke="rgb(179,179,179)" stroke-linejoin="round" d="M 6511,8708 L 6511,8558"/>
 <path fill="none" stroke="rgb(179,179,179)" stroke-linejoin="round" d="M 8528,8708 L 8528,8558"/>
 <path fill="none" stroke="rgb(179,179,179)" stroke-linejoin="round" d="M 8528,8708 L 8528,8558"/>
 <path fill="none" stroke="rgb(179,179,179)" stroke-linejoin="round" d="M 10546,8708 L 10546,8558"/>
 <path fill="none" stroke="rgb(179,179,179)" stroke-linejoin="round" d="M 10546,8708 L 10546,8558"/>
 <path fill="none" stroke="rgb(179,179,179)" stroke-linejoin="round" d="M 12564,8708 L 12564,8558"/>
 <path fill="none" stroke="rgb(179,179,179)" stroke-linejoin="round" d="M 12564,8708 L 12564,8558"/>
 <path fill="none" stroke="rgb(179,179,179)" stroke-linejoin="round" d="M 14582,8708 L 14582,8558"/>
 <path fill="none" stroke="rgb(179,179,179)" stroke-linejoin="round" d="M 14582,8708 L 14582,8558"/>
 <path fill="none" stroke="rgb(179,179,179)" stroke-linejoin="round" d="M 2475,8558 L 14582,8558"/>
 <path fill="none" stroke="rgb(179,179,179)" stroke-linejoin="round" d="M 2325,8558 L 2475,8558"/>
 <path fill="none" stroke="rgb(179,179,179)" stroke-linejoin="round" d="M 2325,8558 L 2475,8558"/>
 <path fill="none" stroke="rgb(179,179,179)" stroke-linejoin="round" d="M 2325,7551 L 2475,7551"/>
 <path fill="none" stroke="rgb(179,179,179)" stroke-linejoin="round" d="M 2325,7551 L 2475,7551"/>
 <path fill="none" stroke="rgb(179,179,179)" stroke-linejoin="round" d="M 2325,6543 L 2475,6543"/>
 <path fill="none" stroke="rgb(179,179,179)" stroke-linejoin="round" d="M 2325,6543 L 2475,6543"/>
 <path fill="none" stroke="rgb(179,179,179)" stroke-linejoin="round" d="M 2325,5535 L 2475,5535"/>
 <path fill="none" stroke="rgb(179,179,179)" stroke-linejoin="round" d="M 2325,5535 L 2475,5535"/>
 <path fill="none" stroke="rgb(179,179,179)" stroke-linejoin="round" d="M 2325,4528 L 2475,4528"/>
 <path fill="none" stroke="rgb(179,179,179)" stroke-linejoin="round" d="M 2325,4528 L 2475,4528"/>
 <path fill="none" stroke="rgb(179,179,179)" stroke-linejoin="round" d="M 2325,3520 L 2475,3520"/>
 <path fill="none" stroke="rgb(179,179,179)" stroke-linejoin="round" d="M 2325,3520 L 2475,3520"/>
 <path fill="none" stroke="rgb(179,179,179)" stroke-linejoin="round" d="M 2325,2512 L 2475,2512"/>
 <path fill="none" stroke="rgb(179,179,179)" stroke-linejoin="round" d="M 2325,2512 L 2475,2512"/>
 <path fill="none" stroke="rgb(179,179,179)" stroke-linejoin="round" d="M 2325,1504 L 2475,1504"/>
 <path fill="none" stroke="rgb(179,179,179)" stroke-linejoin="round" d="M 2325,1504 L 2475,1504"/>
 <path fill="none" stroke="rgb(179,179,179)" stroke-linejoin="round" d="M 2475,8558 L 2475,1504"/>
 <path fill="none" stroke="rgb(0,69,134)" stroke-width="80" stroke-linejoin="round" d="M 3282,2230 L 8124,6049 12967,6266"/>
 <path fill="rgb(0,69,134)" stroke="none" d="M 3157,2105 L 3157,2355 3407,2355 3407,2105 3157,2105 Z"/>
 <path fill="none" stroke="rgb(0,69,134)" stroke-linejoin="round" d="M 3157,2105 L 3157,2355 3407,2355 3407,2105 3157,2105 Z"/>
 <path fill="rgb(0,69,134)" stroke="none" d="M 7999,5924 L 7999,6174 8249,6174 8249,5924 7999,5924 Z"/>
 <path fill="none" stroke="rgb(0,69,134)" stroke-linejoin="round" d="M 7999,5924 L 7999,6174 8249,6174 8249,5924 7999,5924 Z"/>
 <path fill="rgb(0,69,134)" stroke="none" d="M 12842,6141 L 12842,6391 13092,6391 13092,6141 12842,6141 Z"/>
 <path fill="none" stroke="rgb(0,69,134)" stroke-linejoin="round" d="M 12842,6141 L 12842,6391 13092,6391 13092,6141 12842,6141 Z"/>
 <text class="TextShape"><tspan class="TextParagraph" font-family="Liberation Sans, sans-serif" font-size="353px" font-weight="400"><tspan class="TextPosition" x="2382" y="9046"><tspan fill="rgb(0,0,0)" stroke="none">1</tspan></tspan></tspan></text>
 <text class="TextShape"><tspan class="TextParagraph" font-family="Liberation Sans, sans-serif" font-size="353px" font-weight="400"><tspan class="TextPosition" x="4255" y="9046"><tspan fill="rgb(0,0,0)" stroke="none">1.5</tspan></tspan></tspan></text>
 <text class="TextShape"><tspan class="TextParagraph" font-family="Liberation Sans, sans-serif" font-size="353px" font-weight="400"><tspan class="TextPosition" x="6418" y="9046"><tspan fill="rgb(0,0,0)" stroke="none">2</tspan></tspan></tspan></text>
 <text class="TextShape"><tspan class="TextParagraph" font-family="Liberation Sans, sans-serif" font-size="353px" font-weight="400"><tspan class="TextPosition" x="8291" y="9046"><tspan fill="rgb(0,0,0)" stroke="none">2.5</tspan></tspan></tspan></text>
 <text class="TextShape"><tspan class="TextParagraph" font-family="Liberation Sans, sans-serif" font-size="353px" font-weight="400"><tspan class="TextPosition" x="10454" y="9046"><tspan fill="rgb(0,0,0)" stroke="none">3</tspan></tspan></tspan></text>
 <text class="TextShape"><tspan class="TextParagraph" font-family="Liberation Sans, sans-serif" font-size="353px" font-weight="400"><tspan class="TextPosition" x="12327" y="9046"><tspan fill="rgb(0,0,0)" stroke="none">3.5</tspan></tspan></tspan></text>
 <text class="TextShape"><tspan class="TextParagraph" font-family="Liberation Sans, sans-serif" font-size="353px" font-weight="400"><tspan class="TextPosition" x="14490" y="9046"><tspan fill="rgb(0,0,0)" stroke="none">4</tspan></tspan></tspan></text>
 <text class="TextShape"><tspan class="TextParagraph" font-family="Liberation Sans, sans-serif" font-size="353px" font-weight="400"><tspan class="TextPosition" x="1749" y="8638"><tspan fill="rgb(0,0,0)" stroke="none">4.4</tspan></tspan></tspan></text>
 <text class="TextShape"><tspan class="TextParagraph" font-family="Liberation Sans, sans-serif" font-size="353px" font-weight="400"><tspan class="TextPosition" x="1749" y="7631"><tspan fill="rgb(0,0,0)" stroke="none">4.5</tspan></tspan></tspan></text>
 <text class="TextShape"><tspan class="TextParagraph" font-family="Liberation Sans, sans-serif" font-size="353px" font-weight="400"><tspan class="TextPosition" x="1749" y="6623"><tspan fill="rgb(0,0,0)" stroke="none">4.6</tspan></tspan></tspan></text>
 <text class="TextShape"><tspan class="TextParagraph" font-family="Liberation Sans, sans-serif" font-size="353px" font-weight="400"><tspan class="TextPosition" x="1749" y="5615"><tspan fill="rgb(0,0,0)" stroke="none">4.7</tspan></tspan></tspan></text>
 <text class="TextShape"><tspan class="TextParagraph" font-family="Liberation Sans, sans-serif" font-size="353px" font-weight="400"><tspan class="TextPosition" x="1749" y="4607"><tspan fill="rgb(0,0,0)" stroke="none">4.8</tspan></tspan></tspan></text>
 <text class="TextShape"><tspan class="TextParagraph" font-family="Liberation Sans, sans-serif" font-size="353px" font-weight="400"><tspan class="TextPosition" x="1749" y="3599"><tspan fill="rgb(0,0,0)" stroke="none">4.9</tspan></tspan></tspan></text>
 <text class="TextShape"><tspan class="TextParagraph" font-family="Liberation Sans, sans-serif" font-size="353px" font-weight="400"><tspan class="TextPosition" x="2040" y="2591"><tspan fill="rgb(0,0,0)" stroke="none">5</tspan></tspan></tspan></text>
 <text class="TextShape"><tspan class="TextParagraph" font-family="Liberation Sans, sans-serif" font-size="353px" font-weight="400"><tspan class="TextPosition" x="1749" y="1583"><tspan fill="rgb(0,0,0)" stroke="none">5.1</tspan></tspan></tspan></text>
 <text class="TextShape"><tspan class="TextParagraph" font-family="Liberation Sans, sans-serif" font-size="459px" font-weight="400"><tspan class="TextPosition" x="4871" y="901"><tspan fill="rgb(0,0,0)" stroke="none">Mean Power of the last turn</tspan></tspan></tspan></text>
 <text class="TextShape"><tspan class="TextParagraph" font-family="Liberation Sans, sans-serif" font-size="318px" font-weight="400"><tspan class="TextPosition" x="6690" y="9664"><tspan fill="rgb(0,0,0)" stroke="none">Length of the domain</tspan></tspan></tspan></text>
 <text class="TextShape" transform="translate(1269,5963) rotate(-90) translate(-1269,-5963)"><tspan class="TextParagraph" font-family="Liberation Sans, sans-serif" font-size="318px" font-weight="400"><tspan class="TextPosition" x="1269" y="5963"><tspan fill="rgb(0,0,0)" stroke="none">Power [W]</tspan></tspan></tspan></text>
</svg>