<?xml version="1.0" encoding="UTF-8"?>
<!DOCTYPE svg PUBLIC "-//W3C//DTD SVG 1.1//EN" "http://www.w3.org/Graphics/SVG/1.1/DTD/svg11.dtd">
<svg width="178mm" height="102mm" viewBox="0 0 17800 10200" version="1.1" xmlns="http://www.w3.org/2000/svg" stroke-width="28.222" stroke-linejoin="round" xml:space="preserve">
 <path fill="rgb(255,255,255)" stroke="none" d="M 8890,10159 L 0,10159 0,0 17780,0 17780,10159 8890,10159 Z"/>
 <path fill="none" stroke="rgb(179,179,179)" stroke-linejoin="round" d="M 9250,9197 L 1340,9197 1340,519 17161,519 17161,9197 9250,9197 Z"/>
 <path fill="none" stroke="rgb(179,179,179)" stroke-linejoin="round" d="M 17161,9195 L 1340,9195"/>
 <path fill="none" stroke="rgb(179,179,179)" stroke-linejoin="round" d="M 17161,7618 L 1340,7618"/>
 <path fill="none" stroke="rgb(179,179,179)" stroke-linejoin="round" d="M 17161,6040 L 1340,6040"/>
 <path fill="none" stroke="rgb(179,179,179)" stroke-linejoin="round" d="M 17161,4462 L 1340,4462"/>
 <path fill="none" stroke="rgb(179,179,179)" stroke-linejoin="round" d="M 17161,2884 L 1340,2884"/>
 <path fill="none" stroke="rgb(179,179,179)" stroke-linejoin="round" d="M 17161,1307 L 1340,1307"/>
 <path fill="none" stroke="rgb(179,179,179)" stroke-linejoin="round" d="M 1340,9345 L 1340,9195"/>
 <path fill="none" stroke="rgb(179,179,179)" stroke-linejoin="round" d="M 1340,9345 L 1340,9195"/>
 <path fill="none" stroke="rgb(179,179,179)" stroke-linejoin="round" d="M 3317,9345 L 3317,9195"/>
 <path fill="none" stroke="rgb(179,179,179)" stroke-linejoin="round" d="M 3317,9345 L 3317,9195"/>
 <path fill="none" stroke="rgb(179,179,179)" stroke-linejoin="round" d="M 5295,9345 L 5295,9195"/>
 <path fill="none" stroke="rgb(179,179,179)" stroke-linejoin="round" d="M 5295,9345 L 5295,9195"/>
 <path fill="none" stroke="rgb(179,179,179)" stroke-linejoin="round" d="M 7273,9345 L 7273,9195"/>
 <path fill="none" stroke="rgb(179,179,179)" stroke-linejoin="round" d="M 7273,9345 L 7273,9195"/>
 <path fill="none" stroke="rgb(179,179,179)" stroke-linejoin="round" d="M 9250,9345 L 9250,9195"/>
 <path fill="none" stroke="rgb(179,179,179)" stroke-linejoin="round" d="M 9250,9345 L 9250,9195"/>
 <path fill="none" stroke="rgb(179,179,179)" stroke-linejoin="round" d="M 11227,9345 L 11227,9195"/>
 <path fill="none" stroke="rgb(179,179,179)" stroke-linejoin="round" d="M 11227,9345 L 11227,9195"/>
 <path fill="none" stroke="rgb(179,179,179)" stroke-linejoin="round" d="M 13205,9345 L 13205,9195"/>
 <path fill="none" stroke="rgb(179,179,179)" stroke-linejoin="round" d="M 13205,9345 L 13205,9195"/>
 <path fill="none" stroke="rgb(179,179,179)" stroke-linejoin="round" d="M 15183,9345 L 15183,9195"/>
 <path fill="none" stroke="rgb(179,179,179)" stroke-linejoin="round" d="M 15183,9345 L 15183,9195"/>
 <path fill="none" stroke="rgb(179,179,179)" stroke-linejoin="round" d="M 17161,9345 L 17161,9195"/>
 <path fill="none" stroke="rgb(179,179,179)" stroke-linejoin="round" d="M 17161,9345 L 17161,9195"/>
 <path fill="none" stroke="rgb(179,179,179)" stroke-linejoin="round" d="M 1340,9195 L 17161,9195"/>
 <path fill="none" stroke="rgb(179,179,179)" stroke-linejoin="round" d="M 1190,9195 L 1340,9195"/>
 <path fill="none" stroke="rgb(179,179,179)" stroke-linejoin="round" d="M 1190,9195 L 1340,9195"/>
 <path fill="none" stroke="rgb(179,179,179)" stroke-linejoin="round" d="M 1190,7618 L 1340,7618"/>
 <path fill="none" stroke="rgb(179,179,179)" stroke-linejoin="round" d="M 1190,7618 L 1340,7618"/>
 <path fill="none" stroke="rgb(179,179,179)" stroke-linejoin="round" d="M 1190,6040 L 1340,6040"/>
 <path fill="none" stroke="rgb(179,179,179)" stroke-linejoin="round" d="M 1190,6040 L 1340,6040"/>
 <path fill="none" stroke="rgb(179,179,179)" stroke-linejoin="round" d="M 1190,4462 L 1340,4462"/>
 <path fill="none" stroke="rgb(179,179,179)" stroke-linejoin="round" d="M 1190,4462 L 1340,4462"/>
 <path fill="none" stroke="rgb(179,179,179)" stroke-linejoin="round" d="M 1190,2884 L 1340,2884"/>
 <path fill="none" stroke="rgb(179,179,179)" stroke-linejoin="round" d="M 1190,2884 L 1340,2884"/>
 <path fill="none" stroke="rgb(179,179,179)" stroke-linejoin="round" d="M 1190,1307 L 1340,1307"/>
 <path fill="none" stroke="rgb(179,179,179)" stroke-linejoin="round" d="M 1190,1307 L 1340,1307"/>
 <path fill="none" stroke="rgb(179,179,179)" stroke-linejoin="round" d="M 1340,9195 L 1340,518"/>
 <path fill="none" stroke="rgb(126,0,33)" stroke-width="80" stroke-linejoin="round" d="M 1392,9195 L 1419,6608 1498,5270 1577,4585 1656,4054 1735,3599 1814,3282 1893,2990 1972,2744 2051,2531 2131,2331 2210,2169 2289,2016 2368,1885 2447,1772 2526,1669 2605,1590 2684,1518 2763,1462 2843,1419 2922,1381 3001,1357 3080,1336 3159,1321 3238,1310 3317,1300 3396,1295 3475,1291 3555,1288 3634,1288 3713,1288 3792,1289 3871,1291 3950,1292 4029,1295 4108,1300 4187,1305 4267,1310 4346,1315 4425,1322 4504,1329 4583,1337 4662,1346 4741,1355 4820,1367 4899,1379 4979,1393 5058,1409 5137,1427 5216,1448 5295,1471 5374,1500 5453,1532 5532,1569 5611,1614 5691,1663 5770,1728 5849,1799 5928,1882 6007,1982 6086,2089 6165,2221 6244,2362 6323,2518 6403,2689 6482,2866 6561,3058 6640,3253 6719,3452 6798,3650 6877,3847 6956,4037 7035,4222 7115,4398 7194,4563 7273,4722 7352,4864 7431,5001 7510,5125 7589,5240 7668,5349 7747,5445 7827,5536 7906,5621 7985,5701 8064,5777 8143,5848 8222,5918 8301,5985 8380,6052 8459,6118 8539,6184 8618,6250 8697,6316 8776,6384 8855,6452 8933,6521 9012,6591 9091,6662 9170,6733 9250,6805 9329,6876 9408,6947 9487,7017 9566,7086 9645,7154 9724,7217 9803,7280 9882,7338 9961,7392 10041,7443 10120,7487 10199,7529 10278,7564 10357,7593 10436,7619 10515,7636 10594,7650 10673,7657 10753,7658 10832,7656 10911,7643 10990,7626 11069,7603 11148,7570 11227,7533 11306,7481 11385,7424 11465,7357 11544,7277 11623,7191 11702,7086 11781,6974 11860,6847 11939,6706 12018,6556 12097,6384 12177,6205 12256,6010 12335,5803 12414,5590 12493,5361 12572,5129 12651,4890 12730,4649 12809,4406 12889,4165 12968,3927 13047,3694 13126,3469 13205,3249 13284,3046 13363,2849 13442,2668 13521,2503 13601,2345 13680,2211 13759,2085 13838,1975 13917,1878 13996,1788 14075,1716 14154,1648 14233,1590 14313,1540 14392,1494 14471,1457 14550,1422 14629,1393 14708,1367 14787,1344 14866,1326 14945,1309 15025,1294 15104,1283 15183,1272 15262,1264 15341,1256 15420,1249 15499,1246 15578,1241 15657,1240 15737,1240 15816,1240 15895,1241 15974,1243 16053,1245 16132,1248 16211,1251 16290,1256 16369,1259 16449,1263 16528,1267 16607,1271 16686,1274 16765,1279 16844,1284 16923,1287 17002,1292 17081,1299 17161,1307"/>
 <path fill="none" stroke="rgb(87,157,28)" stroke-width="80" stroke-linejoin="round" d="M 1383,9195 L 1419,5522 1498,4036 1577,3268 1656,2683 1735,2190 1814,1878 1893,1602 1972,1399 2051,1242 2131,1108 2210,1019 2289,942 2368,884 2447,838 2526,798 2605,773 2684,749 2763,732 2843,719 2922,708 3001,702 3080,697 3159,696 3238,694 3317,694 3396,696 3475,699 3555,702 3634,705 3713,710 3792,716 3871,723 3950,729 4029,737 4108,743 4187,753 4267,760 4346,770 4425,781 4504,790 4583,803 4662,814 4741,828 4820,843 4899,857 4979,874 5058,891 5137,912 5216,934 5295,958 5374,986 5453,1014 5532,1049 5611,1089 5691,1130 5770,1183 5849,1240 5928,1308 6007,1388 6086,1475 6165,1585 6244,1704 6323,1840 6403,1994 6482,2156 6561,2341 6640,2532 6719,2732 6798,2939 6877,3150 6956,3361 7035,3570 7115,3775 7194,3973 7273,4166 7352,4344 7431,4516 7510,4677 7589,4824 7668,4966 7747,5091 7827,5210 7906,5320 7985,5420 8064,5517 8143,5603 8222,5687 8301,5767 8380,5843 8459,5918 8539,5990 8618,6062 8697,6133 8776,6204 8855,6276 8933,6348 9012,6420 9091,6493 9170,6566 9250,6639 9329,6713 9408,6786 9487,6859 9566,6930 9645,7001 9724,7070 9803,7136 9882,7201 9961,7261 10041,7319 10120,7371 10199,7420 10278,7463 10357,7500 10436,7535 10515,7558 10594,7579 10673,7591 10753,7596 10832,7596 10911,7584 10990,7567 11069,7541 11148,7505 11227,7465 11306,7410 11385,7349 11465,7277 11544,7195 11623,7106 11702,7001 11781,6888 11860,6764 11939,6628 12018,6485 12097,6324 12177,6158 12256,5981 12335,5794 12414,5602 12493,5399 12572,5193 12651,4982 12730,4768 12809,4552 12889,4334 12968,4118 13047,3902 13126,3690 13205,3480 13284,3279 13363,3081 13442,2892 13521,2713 13601,2540 13680,2385 13759,2236 13838,2101 13917,1979 13996,1864 14075,1768 14154,1678 14233,1599 14313,1530 14392,1465 14471,1413 14550,1365 14629,1323 14708,1286 14787,1253 14866,1226 14945,1201 15025,1179 15104,1160 15183,1144 15262,1130 15341,1117 15420,1108 15499,1100 15578,1092 15657,1087 15737,1082 15816,1081 15895,1079 15974,1079 16053,1081 16132,1084 16211,1089 16290,1096 16369,1104 16449,1117 16528,1131 16607,1147 16686,1166 16765,1185 16844,1207 16923,1231 17002,1256 17081,1281 17161,1307"/>
 <path fill="none" stroke="rgb(255,211,32)" stroke-width="80" stroke-linejoin="round" d="M 1393,9195 L 1419,6730 1498,5399 1577,4716 1656,4185 1735,3730 1814,3412 1893,3119 1972,2873 2051,2657 2131,2458 2210,2293 2289,2140 2368,2007 2447,1893 2526,1787 2605,1707 2684,1634 2763,1577 2843,1532 2922,1493 3001,1468 3080,1446 3159,1430 3238,1418 3317,1408 3396,1402 3475,1397 3555,1395 3634,1393 3713,1393 3792,1393 3871,1395 3950,1397 4029,1400 4108,1403 4187,1407 4267,1412 4346,1417 4425,1423 4504,1429 4583,1436 4662,1444 4741,1452 4820,1462 4899,1473 4979,1486 5058,1499 5137,1515 5216,1534 5295,1553 5374,1579 5453,1606 5532,1639 5611,1679 5691,1723 5770,1781 5849,1845 5928,1921 6007,2013 6086,2112 6165,2237 6244,2370 6323,2520 6403,2684 6482,2856 6561,3045 6640,3236 6719,3434 6798,3632 6877,3830 6956,4022 7035,4211 7115,4391 7194,4561 7273,4725 7352,4873 7431,5014 7510,5144 7589,5263 7668,5376 7747,5475 7827,5571 7906,5658 7985,5739 8064,5818 8143,5889 8222,5960 8301,6027 8380,6093 8459,6159 8539,6223 8618,6288 8697,6354 8776,6420 8855,6486 8933,6554 9012,6622 9091,6692 9170,6762 9250,6832 9329,6903 9408,6974 9487,7045 9566,7114 9645,7183 9724,7248 9803,7312 9882,7373 9961,7430 10041,7485 10120,7533 10199,7579 10278,7619 10357,7653 10436,7684 10515,7707 10594,7727 10673,7741 10753,7750 10832,7755 10911,7750 10990,7742 11069,7728 11148,7705 11227,7679 11306,7640 11385,7598 11465,7544 11544,7479 11623,7410 11702,7321 11781,7226 11860,7117 11939,6993 12018,6862 12097,6709 12177,6548 12256,6371 12335,6181 12414,5984 12493,5769 12572,5549 12651,5321 12730,5088 12809,4852 12889,4614 12968,4377 13047,4142 13126,3913 13205,3687 13284,3474 13363,3268 13442,3073 13521,2892 13601,2719 13680,2568 13759,2426 13838,2298 13917,2185 13996,2079 14075,1991 14154,1909 14233,1837 14313,1774 14392,1715 14471,1667 14550,1622 14629,1583 14708,1548 14787,1515 14866,1489 14945,1464 15025,1442 15104,1423 15183,1405 15262,1390 15341,1376 15420,1364 15499,1354 15578,1344 15657,1337 15737,1330 15816,1324 15895,1320 15974,1315 16053,1312 16132,1310 16211,1308 16290,1306 16369,1305 16449,1303 16528,1303 16607,1302 16686,1302 16765,1302 16844,1300 16923,1300 17002,1300 17081,1300 17161,1300"/>
 <path fill="none" stroke="rgb(255,66,14)" stroke-width="80" stroke-linejoin="round" d="M 1389,9195 L 1419,6325 1498,4955 1577,4254 1656,3715 1735,3256 1814,2948 1893,2669 1972,2448 2051,2264 2131,2098 2210,1971 2289,1854 2368,1757 2447,1675 2526,1599 2605,1542 2684,1488 2763,1443 2843,1406 2922,1372 3001,1346 3080,1323 3159,1303 3238,1288 3317,1273 3396,1264 3475,1256 3555,1250 3634,1245 3713,1242 3792,1242 3871,1242 3950,1242 4029,1245 4108,1248 4187,1251 4267,1258 4346,1262 4425,1270 4504,1277 4583,1286 4662,1296 4741,1307 4820,1318 4899,1331 4979,1346 5058,1362 5137,1381 5216,1402 5295,1424 5374,1451 5453,1481 5532,1516 5611,1557 5691,1601 5770,1659 5849,1722 5928,1796 6007,1886 6086,1982 6165,2104 6244,2234 6323,2381 6403,2543 6482,2715 6561,2903 6640,3096 6719,3295 6798,3495 6877,3696 6956,3892 7035,4084 7115,4268 7194,4443 7273,4612 7352,4764 7431,4910 7510,5044 7589,5167 7668,5285 7747,5389 7827,5489 7906,5581 7985,5666 8064,5749 8143,5826 8222,5900 8301,5973 8380,6043 8459,6113 8539,6182 8618,6251 8697,6321 8776,6391 8855,6461 8933,6532 9012,6603 9091,6675 9170,6748 9250,6820 9329,6892 9408,6964 9487,7035 9566,7104 9645,7172 9724,7237 9803,7300 9882,7359 9961,7414 10041,7467 10120,7513 10199,7555 10278,7592 10357,7621 10436,7648 10515,7665 10594,7678 10673,7684 10753,7682 10832,7677 10911,7659 10990,7637 11069,7607 11148,7567 11227,7522 11306,7463 11385,7398 11465,7323 11544,7236 11623,7144 11702,7035 11781,6919 11860,6790 11939,6649 12018,6502 12097,6336 12177,6165 12256,5981 12335,5788 12414,5589 12493,5379 12572,5167 12651,4949 12730,4728 12809,4507 12889,4285 12968,4066 13047,3849 13126,3637 13205,3429 13284,3232 13363,3041 13442,2860 13521,2691 13601,2530 13680,2388 13759,2253 13838,2132 13917,2025 13996,1924 14075,1841 14154,1764 14233,1696 14313,1638 14392,1583 14471,1540 14550,1498 14629,1463 14708,1433 14787,1404 14866,1381 14945,1360 15025,1342 15104,1326 15183,1311 15262,1300 15341,1289 15420,1280 15499,1272 15578,1265 15657,1261 15737,1256 15816,1253 15895,1251 15974,1250 16053,1248 16132,1248 16211,1250 16290,1251 16369,1254 16449,1257 16528,1262 16607,1267 16686,1272 16765,1276 16844,1283 16923,1289 17002,1294 17081,1300 17161,1307"/>
 <path fill="none" stroke="rgb(0,69,134)" stroke-width="80" stroke-linejoin="round" d="M 1383,9195 L 1419,5591 1498,4109 1577,3343 1656,2757 1735,2263 1814,1950 1893,1674 1972,1470 2051,1312 2131,1177 2210,1089 2289,1010 2368,951 2447,906 2526,866 2605,839 2684,816 2763,798 2843,786 2922,775 3001,768 3080,764 3159,760 3238,759 3317,759 3396,760 3475,762 3555,765 3634,768 3713,773 3792,778 3871,783 3950,789 4029,795 4108,801 4187,809 4267,817 4346,825 4425,833 4504,842 4583,852 4662,863 4741,874 4820,886 4899,899 4979,915 5058,931 5137,948 5216,967 5295,987 5374,1011 5453,1038 5532,1068 5611,1104 5691,1140 5770,1189 5849,1241 5928,1302 6007,1377 6086,1457 6165,1560 6244,1672 6323,1802 6403,1950 6482,2106 6561,2287 6640,2474 6719,2672 6798,2878 6877,3089 6956,3302 7035,3514 7115,3723 7194,3925 7273,4124 7352,4308 7431,4486 7510,4653 7589,4807 7668,4955 7747,5086 7827,5211 7906,5325 7985,5430 8064,5531 8143,5620 8222,5707 8301,5789 8380,5867 8459,5943 8539,6015 8618,6088 8697,6159 8776,6230 8855,6301 8933,6372 9012,6443 9091,6515 9170,6588 9250,6660 9329,6734 9408,6807 9487,6880 9566,6952 9645,7024 9724,7093 9803,7162 9882,7228 9961,7291 10041,7353 10120,7408 10199,7461 10278,7509 10357,7552 10436,7592 10515,7621 10594,7647 10673,7667 10753,7679 10832,7688 10911,7684 10990,7676 11069,7660 11148,7634 11227,7604 11306,7559 11385,7509 11465,7449 11544,7378 11623,7301 11702,7206 11781,7106 11860,6994 11939,6869 12018,6738 12097,6589 12177,6434 12256,6268 12335,6092 12414,5910 12493,5716 12572,5519 12651,5315 12730,5107 12809,4897 12889,4683 12968,4469 13047,4256 13126,4044 13205,3833 13284,3628 13363,3427 13442,3232 13521,3047 13601,2865 13680,2700 13759,2542 13838,2396 13917,2263 13996,2137 14075,2029 14154,1928 14233,1838 14313,1759 14392,1684 14471,1623 14550,1565 14629,1515 14708,1471 14787,1429 14866,1395 14945,1363 15025,1335 15104,1311 15183,1287 15262,1268 15341,1251 15420,1237 15499,1223 15578,1212 15657,1202 15737,1193 15816,1185 15895,1178 15974,1172 16053,1167 16132,1164 16211,1160 16290,1156 16369,1155 16449,1152 16528,1150 16607,1149 16686,1147 16765,1145 16844,1144 16923,1142 17002,1142 17081,1141 17161,1141"/>
 <text class="TextShape"><tspan class="TextParagraph" font-family="Liberation Sans, sans-serif" font-size="353px" font-weight="400"><tspan class="TextPosition" x="1247" y="9683"><tspan fill="rgb(0,0,0)" stroke="none">0</tspan></tspan></tspan></text>
 <text class="TextShape"><tspan class="TextParagraph" font-family="Liberation Sans, sans-serif" font-size="353px" font-weight="400"><tspan class="TextPosition" x="2986" y="9683"><tspan fill="rgb(0,0,0)" stroke="none">0.05</tspan></tspan></tspan></text>
 <text class="TextShape"><tspan class="TextParagraph" font-family="Liberation Sans, sans-serif" font-size="353px" font-weight="400"><tspan class="TextPosition" x="5057" y="9683"><tspan fill="rgb(0,0,0)" stroke="none">0.1</tspan></tspan></tspan></text>
 <text class="TextShape"><tspan class="TextParagraph" font-family="Liberation Sans, sans-serif" font-size="353px" font-weight="400"><tspan class="TextPosition" x="6942" y="9683"><tspan fill="rgb(0,0,0)" stroke="none">0.15</tspan></tspan></tspan></text>
 <text class="TextShape"><tspan class="TextParagraph" font-family="Liberation Sans, sans-serif" font-size="353px" font-weight="400"><tspan class="TextPosition" x="9013" y="9683"><tspan fill="rgb(0,0,0)" stroke="none">0.2</tspan></tspan></tspan></text>
 <text class="TextShape"><tspan class="TextParagraph" font-family="Liberation Sans, sans-serif" font-size="353px" font-weight="400"><tspan class="TextPosition" x="10897" y="9683"><tspan fill="rgb(0,0,0)" stroke="none">0.25</tspan></tspan></tspan></text>
 <text class="TextShape"><tspan class="TextParagraph" font-family="Liberation Sans, sans-serif" font-size="353px" font-weight="400"><tspan class="TextPosition" x="12968" y="9683"><tspan fill="rgb(0,0,0)" stroke="none">0.3</tspan></tspan></tspan></text>
 <text class="TextShape"><tspan class="TextParagraph" font-family="Liberation Sans, sans-serif" font-size="353px" font-weight="400"><tspan class="TextPosition" x="14853" y="9683"><tspan fill="rgb(0,0,0)" stroke="none">0.35</tspan></tspan></tspan></text>
 <text class="TextShape"><tspan class="TextParagraph" font-family="Liberation Sans, sans-serif" font-size="353px" font-weight="400"><tspan class="TextPosition" x="16924" y="9683"><tspan fill="rgb(0,0,0)" stroke="none">0.4</tspan></tspan></tspan></text>
 <text class="TextShape"><tspan class="TextParagraph" font-family="Liberation Sans, sans-serif" font-size="353px" font-weight="400"><tspan class="TextPosition" x="614" y="9275"><tspan fill="rgb(0,0,0)" stroke="none">0.5</tspan></tspan></tspan></text>
 <text class="TextShape"><tspan class="TextParagraph" font-family="Liberation Sans, sans-serif" font-size="353px" font-weight="400"><tspan class="TextPosition" x="614" y="7697"><tspan fill="rgb(0,0,0)" stroke="none">0.6</tspan></tspan></tspan></text>
 <text class="TextShape"><tspan class="TextParagraph" font-family="Liberation Sans, sans-serif" font-size="353px" font-weight="400"><tspan class="TextPosition" x="614" y="6119"><tspan fill="rgb(0,0,0)" stroke="none">0.7</tspan></tspan></tspan></text>
 <text class="TextShape"><tspan class="TextParagraph" font-family="Liberation Sans, sans-serif" font-size="353px" font-weight="400"><tspan class="TextPosition" x="614" y="4542"><tspan fill="rgb(0,0,0)" stroke="none">0.8</tspan></tspan></tspan></text>
 <text class="TextShape"><tspan class="TextParagraph" font-family="Liberation Sans, sans-serif" font-size="353px" font-weight="400"><tspan class="TextPosition" x="614" y="2964"><tspan fill="rgb(0,0,0)" stroke="none">0.9</tspan></tspan></tspan></text>
 <text class="TextShape"><tspan class="TextParagraph" font-family="Liberation Sans, sans-serif" font-size="353px" font-weight="400"><tspan class="TextPosition" x="905" y="1386"><tspan fill="rgb(0,0,0)" stroke="none">1</tspan></tspan></tspan></text>
 <text class="TextShape"><tspan class="TextParagraph" font-family="Liberation Sans, sans-serif" font-size="459px" font-weight="400"><tspan class="TextPosition" x="7031" y="1033"><tspan fill="rgb(0,0,0)" stroke="none">Velocity comparison at 0.6m</tspan></tspan></tspan></text>
 <path fill="rgb(255,255,255)" stroke="none" d="M 10043,4083 L 7418,4083 7418,2127 12669,2127 12669,4083 10043,4083 Z"/>
 <path fill="none" stroke="rgb(0,69,134)" stroke-width="80" stroke-linejoin="round" d="M 8071,2346 L 8871,2346"/>
 <path fill="none" stroke="rgb(255,66,14)" stroke-width="80" stroke-linejoin="round" d="M 8071,2724 L 8871,2724"/>
 <path fill="none" stroke="rgb(255,211,32)" stroke-width="80" stroke-linejoin="round" d="M 8071,3103 L 8871,3103"/>
 <path fill="none" stroke="rgb(87,157,28)" stroke-width="80" stroke-linejoin="round" d="M 8071,3482 L 8871,3482"/>
 <path fill="none" stroke="rgb(126,0,33)" stroke-width="80" stroke-linejoin="round" d="M 8071,3861 L 8871,3861"/>
 <text class="TextShape"><tspan class="TextParagraph" font-family="Liberation Sans, sans-serif" font-size="353px" font-weight="400"><tspan class="TextPosition" x="8970" y="2425"><tspan fill="rgb(0,0,0)" stroke="none"> </tspan><tspan fill="rgb(0,0,0)" stroke="none">Reference case</tspan></tspan></tspan></text>
 <text class="TextShape"><tspan class="TextParagraph" font-family="Liberation Sans, sans-serif" font-size="353px" font-weight="400"><tspan class="TextPosition" x="8970" y="2803"><tspan fill="rgb(0,0,0)" stroke="none">Symmetric 2.4m</tspan></tspan></tspan></text>
 <text class="TextShape"><tspan class="TextParagraph" font-family="Liberation Sans, sans-serif" font-size="353px" font-weight="400"><tspan class="TextPosition" x="8970" y="3182"><tspan fill="rgb(0,0,0)" stroke="none">Longer Upstream</tspan></tspan></tspan></text>
 <text class="TextShape"><tspan class="TextParagraph" font-family="Liberation Sans, sans-serif" font-size="353px" font-weight="400"><tspan class="TextPosition" x="8970" y="3561"><tspan fill="rgb(0,0,0)" stroke="none">Longer Downstream</tspan></tspan></tspan></text>
 <text class="TextShape"><tspan class="TextParagraph" font-family="Liberation Sans, sans-serif" font-size="353px" font-weight="400"><tspan class="TextPosition" x="8970" y="3940"><tspan fill="rgb(0,0,0)" stroke="none">Symmetric 3.6m</tspan></tspan></tspan></text>
 <text class="TextShape"><tspan class="TextParagraph" font-family="Liberation Sans, sans-serif" font-size="318px" font-weight="400"><tspan class="TextPosition" x="7922" y="9985"><tspan fill="rgb(0,0,0)" stroke="none">y displacement</tspan></tspan></tspan></text>
 <text class="TextShape" transform="translate(828,5851) rotate(-90) translate(-828,-5851)"><tspan class="TextParagraph" font-family="Liberation Sans, sans-serif" font-size="318px" font-weight="400"><tspan class="TextPosition" x="828" y="5851"><tspan fill="rgb(0,0,0)" stroke="none">Speed m/s</tspan></tspan></tspan></text>
</svg>