<?xml version="1.0" encoding="UTF-8"?>
<!DOCTYPE svg PUBLIC "-//W3C//DTD SVG 1.1//EN" "http://www.w3.org/Graphics/SVG/1.1/DTD/svg11.dtd">
<svg width="152mm" height="102mm" viewBox="0 0 15200 10200" version="1.1" xmlns="http://www.w3.org/2000/svg" stroke-width="28.222" stroke-linejoin="round" xml:space="preserve">
 <path fill="rgb(255,255,255)" stroke="none" d="M 7620,10160 L 0,10160 0,0 15240,0 15240,10160 7620,10160 Z"/>
 <path fill="none" stroke="rgb(179,179,179)" stroke-linejoin="round" d="M 7923,8645 L 1837,8645 1837,1037 14010,1037 14010,8645 7923,8645 Z"/>
 <path fill="none" stroke="rgb(179,179,179)" stroke-linejoin="round" d="M 14010,8644 L 1837,8644"/>
 <path fill="none" stroke="rgb(179,179,179)" stroke-linejoin="round" d="M 14010,7375 L 1837,7375"/>
 <path fill="none" stroke="rgb(179,179,179)" stroke-linejoin="round" d="M 14010,6107 L 1837,6107"/>
 <path fill="none" stroke="rgb(179,179,179)" stroke-linejoin="round" d="M 14010,4840 L 1837,4840"/>
 <path fill="none" stroke="rgb(179,179,179)" stroke-linejoin="round" d="M 14010,3572 L 1837,3572"/>
 <path fill="none" stroke="rgb(179,179,179)" stroke-linejoin="round" d="M 14010,2304 L 1837,2304"/>
 <path fill="none" stroke="rgb(179,179,179)" stroke-linejoin="round" d="M 14010,1035 L 1837,1035"/>
 <path fill="none" stroke="rgb(179,179,179)" stroke-linejoin="round" d="M 1837,8794 L 1837,8644"/>
 <path fill="none" stroke="rgb(179,179,179)" stroke-linejoin="round" d="M 1837,8794 L 1837,8644"/>
 <path fill="none" stroke="rgb(179,179,179)" stroke-linejoin="round" d="M 3189,8794 L 3189,8644"/>
 <path fill="none" stroke="rgb(179,179,179)" stroke-linejoin="round" d="M 3189,8794 L 3189,8644"/>
 <path fill="none" stroke="rgb(179,179,179)" stroke-linejoin="round" d="M 4542,8794 L 4542,8644"/>
 <path fill="none" stroke="rgb(179,179,179)" stroke-linejoin="round" d="M 4542,8794 L 4542,8644"/>
 <path fill="none" stroke="rgb(179,179,179)" stroke-linejoin="round" d="M 5895,8794 L 5895,8644"/>
 <path fill="none" stroke="rgb(179,179,179)" stroke-linejoin="round" d="M 5895,8794 L 5895,8644"/>
 <path fill="none" stroke="rgb(179,179,179)" stroke-linejoin="round" d="M 7247,8794 L 7247,8644"/>
 <path fill="none" stroke="rgb(179,179,179)" stroke-linejoin="round" d="M 7247,8794 L 7247,8644"/>
 <path fill="none" stroke="rgb(179,179,179)" stroke-linejoin="round" d="M 8599,8794 L 8599,8644"/>
 <path fill="none" stroke="rgb(179,179,179)" stroke-linejoin="round" d="M 8599,8794 L 8599,8644"/>
 <path fill="none" stroke="rgb(179,179,179)" stroke-linejoin="round" d="M 9952,8794 L 9952,8644"/>
 <path fill="none" stroke="rgb(179,179,179)" stroke-linejoin="round" d="M 9952,8794 L 9952,8644"/>
 <path fill="none" stroke="rgb(179,179,179)" stroke-linejoin="round" d="M 11304,8794 L 11304,8644"/>
 <path fill="none" stroke="rgb(179,179,179)" stroke-linejoin="round" d="M 11304,8794 L 11304,8644"/>
 <path fill="none" stroke="rgb(179,179,179)" stroke-linejoin="round" d="M 12657,8794 L 12657,8644"/>
 <path fill="none" stroke="rgb(179,179,179)" stroke-linejoin="round" d="M 12657,8794 L 12657,8644"/>
 <path fill="none" stroke="rgb(179,179,179)" stroke-linejoin="round" d="M 14010,8794 L 14010,8644"/>
 <path fill="none" stroke="rgb(179,179,179)" stroke-linejoin="round" d="M 14010,8794 L 14010,8644"/>
 <path fill="none" stroke="rgb(179,179,179)" stroke-linejoin="round" d="M 1837,8644 L 14010,8644"/>
 <path fill="none" stroke="rgb(179,179,179)" stroke-linejoin="round" d="M 1687,8644 L 1837,8644"/>
 <path fill="none" stroke="rgb(179,179,179)" stroke-linejoin="round" d="M 1687,8644 L 1837,8644"/>
 <path fill="none" stroke="rgb(179,179,179)" stroke-linejoin="round" d="M 1687,7375 L 1837,7375"/>
 <path fill="none" stroke="rgb(179,179,179)" stroke-linejoin="round" d="M 1687,7375 L 1837,7375"/>
 <path fill="none" stroke="rgb(179,179,179)" stroke-linejoin="round" d="M 1687,6107 L 1837,6107"/>
 <path fill="none" stroke="rgb(179,179,179)" stroke-linejoin="round" d="M 1687,6107 L 1837,6107"/>
 <path fill="none" stroke="rgb(179,179,179)" stroke-linejoin="round" d="M 1687,4840 L 1837,4840"/>
 <path fill="none" stroke="rgb(179,179,179)" stroke-linejoin="round" d="M 1687,4840 L 1837,4840"/>
 <path fill="none" stroke="rgb(179,179,179)" stroke-linejoin="round" d="M 1687,3572 L 1837,3572"/>
 <path fill="none" stroke="rgb(179,179,179)" stroke-linejoin="round" d="M 1687,3572 L 1837,3572"/>
 <path fill="none" stroke="rgb(179,179,179)" stroke-linejoin="round" d="M 1687,2304 L 1837,2304"/>
 <path fill="none" stroke="rgb(179,179,179)" stroke-linejoin="round" d="M 1687,2304 L 1837,2304"/>
 <path fill="none" stroke="rgb(179,179,179)" stroke-linejoin="round" d="M 1687,1035 L 1837,1035"/>
 <path fill="none" stroke="rgb(179,179,179)" stroke-linejoin="round" d="M 1687,1035 L 1837,1035"/>
 <path fill="none" stroke="rgb(179,179,179)" stroke-linejoin="round" d="M 1837,8644 L 1837,1036"/>
 <path fill="none" stroke="rgb(255,66,14)" stroke-width="80" stroke-linejoin="round" d="M 1837,7290 L 1847,5641 1858,4856 1869,4511 1880,4200 1891,4025 1901,3877 1912,3730 1923,3582 1934,3492 1945,3430 1956,3369 1966,3307 1977,3246 1988,3184 1999,3123 2010,3061 2020,3007 2031,2967 2042,2927 2053,2887 2064,2848 2075,2808 2085,2768 2096,2728 2107,2689 2118,2664 2129,2638 2139,2613 2150,2588 2161,2563 2172,2538 2183,2513 2194,2488 2204,2468 2215,2452 2226,2436 2237,2419 2248,2403 2259,2386 2269,2370 2280,2354 2291,2339 2302,2328 2313,2317 2323,2307 2334,2295 2345,2285 2356,2274 2367,2263 2378,2252 2388,2245 2399,2238 2421,2224 2432,2217 2442,2210 2464,2195 2475,2190 2486,2185 2497,2181 2518,2171 2529,2166 2540,2162 2551,2157 2572,2150 2583,2146 2594,2143 2605,2140 2626,2134 2637,2131 2648,2127 2670,2123 2681,2121 2691,2119 2702,2117 2724,2113 2735,2110 2745,2109 2756,2108 2767,2106 2778,2105 2789,2103 2800,2102 2810,2101 2832,2098 2843,2097 2854,2096 2875,2094 2886,2094 2897,2093 2908,2092 2929,2091 2940,2090 2951,2089 2962,2089 2984,2088 2994,2087 3005,2087 3016,2086 3038,2086 3048,2086 3059,2086 3081,2085 3092,2085 3103,2085 3113,2085 3135,2084 3146,2084 3157,2084 3168,2084 3189,2084 3200,2084 3211,2085 3222,2085 3243,2085 3254,2085 3265,2086 3287,2086 3297,2086 3308,2086 3319,2086 3341,2087 3351,2087 3362,2087 3373,2087 3395,2088 3406,2089 3416,2089 3427,2089 3449,2090 3460,2091 3471,2091 3492,2092 3503,2092 3514,2092 3525,2093 3546,2094 3557,2094 3568,2094 3579,2095 3600,2096 3611,2096 3622,2097 3633,2098 3654,2099 3665,2099 3676,2099 3698,2101 3709,2101 3719,2102 3730,2103 3752,2104 3763,2105 3774,2105 3784,2106 3806,2106 3817,2107 3828,2108 3838,2108 3860,2110 3871,2111 3882,2111 3903,2113 3914,2113 3925,2114 3936,2115 3957,2117 3968,2117 3979,2118 3990,2118 4012,2120 4022,2121 4033,2122 4044,2122 4066,2124 4077,2125 4087,2126 4109,2127 4120,2129 4131,2129 4141,2130 4163,2132 4174,2133 4185,2134 4196,2135 4217,2137 4228,2138 4239,2139 4250,2140 4271,2142 4282,2144 4293,2144 4315,2147 4325,2148 4336,2149 4347,2151 4369,2153 4380,2155 4390,2156 4401,2157 4423,2160 4434,2161 4444,2163 4455,2164 4477,2167 4488,2169 4499,2170 4520,2173 4531,2175 4542,2177 4553,2179 4574,2183 4585,2185 4596,2187 4607,2189 4628,2192 4639,2195 4650,2197 4661,2199 4672,2202 4683,2205 4693,2206 4704,2209 4726,2214 4737,2217 4747,2220 4758,2223 4780,2229 4791,2232 4802,2235 4812,2238 4823,2242 4834,2246 4845,2249 4856,2253 4866,2257 4888,2265 4899,2268 4910,2273 4931,2283 4942,2287 4953,2293 4964,2298 4986,2307 4996,2313 5007,2319 5018,2326 5040,2338 5050,2345 5061,2351 5072,2358 5083,2364 5094,2372 5105,2381 5115,2389 5137,2405 5148,2414 5159,2422 5169,2430 5180,2440 5191,2450 5202,2460 5213,2471 5224,2481 5234,2492 5245,2502 5256,2512 5267,2523 5278,2536 5289,2548 5299,2561 5310,2574 5321,2586 5332,2599 5343,2611 5353,2624 5364,2638 5375,2653 5386,2667 5397,2682 5408,2696 5418,2711 5429,2725 5440,2740 5451,2755 5462,2771 5472,2787 5483,2803 5494,2819 5505,2835 5516,2851 5527,2867 5537,2883 5548,2900 5559,2917 5570,2934 5581,2951 5592,2967 5602,2984 5613,3001 5624,3018 5635,3035 5646,3052 5656,3069 5667,3087 5678,3104 5689,3121 5700,3138 5711,3155 5721,3172 5732,3189 5743,3206 5754,3222 5765,3239 5775,3256 5786,3273 5797,3290 5808,3306 5819,3322 5830,3338 5840,3354 5851,3370 5862,3386 5873,3402 5884,3418 5895,3434 5905,3449 5916,3464 5927,3478 5938,3493 5949,3508 5959,3523 5970,3538 5981,3552 5992,3566 6003,3580 6014,3593 6024,3606 6035,3620 6046,3633 6057,3647 6068,3660 6078,3673 6089,3685 6100,3697 6111,3709 6122,3721 6133,3733 6143,3745 6154,3756 6165,3768 6176,3779 6187,3789 6197,3800 6208,3810 6219,3821 6230,3831 6241,3842 6252,3852 6262,3862 6273,3871 6284,3880 6295,3890 6306,3899 6317,3908 6327,3917 6338,3926 6349,3935 6371,3951 6381,3960 6392,3968 6403,3976 6425,3992 6436,4000 6446,4007 6457,4015 6479,4029 6490,4036 6500,4043 6522,4058 6533,4065 6544,4071 6555,4078 6565,4084 6576,4091 6587,4097 6598,4104 6609,4111 6630,4123 6641,4129 6652,4135 6663,4141 6674,4148 6684,4154 6695,4160 6706,4166 6728,4178 6739,4183 6749,4189 6760,4195 6771,4201 6782,4207 6793,4213 6803,4218 6814,4224 6825,4230 6836,4236 6847,4241 6858,4247 6868,4253 6890,4264 6901,4270 6912,4276 6923,4281 6933,4287 6944,4293 6955,4298 6966,4304 6977,4310 6987,4315 6998,4321 7009,4327 7020,4333 7042,4344 7052,4350 7063,4356 7074,4361 7096,4373 7106,4379 7117,4385 7139,4396 7150,4402 7161,4408 7171,4414 7193,4425 7204,4431 7215,4437 7226,4443 7247,4454 7258,4460 7269,4466 7280,4472 7290,4478 7301,4484 7312,4490 7323,4496 7345,4507 7355,4513 7366,4519 7377,4525 7388,4531 7399,4537 7409,4543 7420,4548 7431,4554 7442,4560 7453,4566 7464,4572 7474,4577 7485,4583 7507,4595 7518,4600 7529,4606 7539,4612 7550,4617 7561,4623 7572,4628 7583,4634 7593,4640 7604,4645 7615,4651 7625,4656 7636,4661 7647,4667 7657,4672 7668,4677 7679,4682 7690,4688 7701,4693 7711,4698 7722,4703 7733,4708 7755,4718 7766,4723 7776,4728 7787,4733 7809,4741 7820,4746 7831,4750 7841,4755 7863,4764 7874,4768 7885,4772 7895,4776 7917,4784 7928,4788 7939,4792 7950,4795 7960,4799 7971,4803 7982,4806 7993,4809 8014,4816 8025,4819 8036,4822 8047,4825 8069,4831 8079,4833 8090,4836 8101,4838 8123,4843 8134,4845 8144,4848 8166,4851 8177,4853 8188,4854 8198,4856 8220,4859 8231,4861 8242,4862 8253,4863 8274,4864 8285,4865 8296,4865 8307,4866 8328,4867 8339,4867 8350,4867 8372,4866 8382,4866 8393,4866 8404,4865 8426,4864 8437,4863 8447,4861 8458,4860 8469,4859 8480,4857 8491,4856 8501,4855 8512,4853 8534,4848 8545,4846 8556,4843 8577,4838 8588,4836 8599,4834 8610,4830 8631,4823 8642,4819 8653,4816 8664,4812 8685,4805 8696,4800 8707,4795 8718,4791 8740,4781 8750,4776 8761,4771 8772,4766 8783,4761 8794,4755 8804,4749 8815,4743 8826,4736 8837,4730 8848,4724 8859,4718 8869,4712 8891,4697 8902,4689 8913,4682 8923,4674 8945,4659 8956,4651 8967,4643 8978,4634 8988,4625 8999,4616 9010,4607 9021,4598 9032,4589 9043,4580 9053,4570 9064,4560 9075,4549 9086,4539 9097,4528 9107,4518 9118,4507 9129,4497 9140,4486 9151,4475 9162,4463 9172,4451 9183,4439 9194,4427 9205,4415 9216,4403 9226,4391 9237,4378 9248,4365 9259,4351 9270,4338 9281,4325 9291,4311 9302,4298 9313,4285 9324,4271 9335,4257 9346,4242 9356,4227 9367,4213 9378,4198 9389,4184 9400,4169 9410,4155 9421,4139 9432,4124 9443,4108 9454,4092 9465,4077 9475,4061 9486,4046 9497,4030 9508,4014 9519,3998 9529,3981 9540,3965 9551,3949 9562,3932 9573,3916 9584,3900 9594,3883 9605,3866 9616,3849 9627,3832 9638,3816 9649,3799 9659,3782 9670,3765 9681,3748 9692,3731 9703,3714 9713,3697 9724,3680 9735,3662 9746,3645 9757,3628 9768,3611 9778,3594 9789,3577 9800,3559 9811,3542 9822,3525 9832,3508 9843,3491 9854,3474 9865,3457 9876,3440 9887,3423 9897,3406 9908,3389 9919,3372 9930,3355 9941,3338 9952,3321 9962,3305 9973,3288 9984,3272 9995,3255 10006,3239 10016,3223 10027,3206 10038,3190 10049,3174 10060,3158 10071,3142 10081,3127 10092,3111 10103,3096 10114,3080 10125,3064 10135,3049 10146,3034 10157,3020 10168,3005 10179,2991 10190,2976 10200,2962 10211,2947 10222,2932 10233,2919 10244,2906 10254,2893 10265,2879 10276,2866 10287,2853 10298,2840 10309,2826 10319,2814 10330,2802 10341,2791 10352,2779 10363,2767 10374,2755 10384,2744 10395,2732 10406,2721 10417,2710 10428,2700 10438,2690 10449,2680 10460,2670 10471,2659 10482,2649 10493,2639 10503,2630 10514,2622 10536,2605 10547,2596 10557,2587 10568,2579 10579,2570 10590,2562 10601,2555 10612,2548 10622,2541 10633,2533 10644,2526 10655,2519 10666,2512 10687,2499 10698,2493 10709,2487 10720,2481 10731,2475 10741,2469 10752,2463 10763,2457 10785,2447 10796,2442 10806,2437 10817,2432 10839,2422 10850,2417 10860,2413 10871,2409 10893,2401 10904,2397 10915,2393 10925,2389 10936,2385 10947,2381 10958,2377 10969,2374 10980,2371 10990,2367 11001,2364 11012,2361 11023,2357 11044,2351 11055,2348 11066,2346 11077,2343 11099,2338 11109,2335 11120,2332 11131,2330 11153,2325 11163,2323 11174,2321 11185,2318 11196,2316 11207,2314 11218,2312 11228,2310 11250,2306 11261,2304 11272,2302 11283,2300 11304,2297 11315,2295 11326,2294 11337,2292 11358,2289 11369,2288 11380,2286 11402,2283 11412,2282 11423,2281 11434,2279 11445,2278 11456,2278 11466,2276 11477,2275 11488,2274 11510,2272 11521,2271 11531,2270 11542,2269 11564,2267 11575,2266 11586,2265 11607,2264 11618,2262 11629,2262 11640,2261 11661,2260 11672,2259 11683,2259 11694,2258 11715,2257 11726,2256 11737,2255 11748,2255 11769,2253 11780,2253 11791,2253 11813,2252 11824,2251 11834,2250 11845,2250 11867,2250 11878,2249 11889,2248 11899,2248 11921,2248 11932,2247 11943,2247 11953,2246 11975,2246 11986,2246 11997,2245 12018,2245 12029,2245 12040,2245 12051,2244 12072,2243 12083,2243 12094,2243 12105,2243 12127,2243 12137,2242 12148,2242 12159,2242 12181,2241 12192,2241 12202,2241 12224,2241 12235,2241 12246,2241 12256,2240 12278,2240 12289,2240 12300,2240 12311,2240 12332,2240 12343,2240 12354,2239 12365,2239 12386,2239 12397,2239 12408,2238 12430,2238 12440,2238 12451,2238 12462,2238 12484,2238 12495,2238 12505,2238 12516,2238 12538,2238 12549,2238 12559,2238 12570,2237 12592,2237 12603,2237 12614,2237 12635,2237 12646,2237 12657,2237"/>
 <path fill="none" stroke="rgb(0,69,134)" stroke-width="80" stroke-linejoin="round" stroke-dasharray="158,158" d="M 1837,7963 L 1847,5642 1858,4857 1869,4511 1880,4200 1891,4025 1901,3878 1912,3730 1923,3582 1934,3491 1945,3430 1956,3368 1966,3307 1977,3245 1988,3184 1999,3122 2010,3061 2020,3006 2031,2966 2042,2927 2053,2887 2064,2847 2075,2807 2085,2767 2096,2728 2107,2688 2118,2663 2129,2638 2139,2613 2150,2587 2161,2562 2172,2537 2183,2512 2194,2487 2204,2468 2215,2451 2226,2435 2237,2418 2248,2402 2259,2386 2269,2369 2280,2353 2291,2338 2302,2327 2313,2317 2323,2306 2334,2295 2345,2284 2356,2273 2367,2262 2378,2252 2388,2245 2399,2238 2421,2223 2432,2216 2442,2209 2464,2195 2475,2190 2486,2184 2497,2180 2518,2171 2529,2165 2540,2161 2551,2156 2572,2149 2583,2146 2594,2143 2605,2139 2626,2133 2637,2130 2648,2127 2670,2122 2681,2120 2691,2119 2702,2116 2724,2112 2735,2110 2745,2108 2756,2106 2778,2104 2789,2103 2800,2101 2810,2099 2832,2097 2843,2096 2854,2096 2875,2094 2886,2093 2897,2092 2908,2091 2929,2089 2940,2089 2951,2089 2962,2088 2984,2087 2994,2087 3005,2086 3016,2086 3038,2085 3048,2085 3059,2085 3081,2084 3092,2084 3103,2084 3113,2084 3135,2084 3146,2084 3157,2084 3168,2084 3189,2084 3200,2084 3211,2084 3222,2084 3243,2084 3254,2084 3265,2084 3287,2085 3297,2085 3308,2085 3319,2086 3341,2086 3351,2086 3362,2086 3373,2087 3395,2087 3406,2087 3416,2088 3427,2088 3449,2089 3460,2089 3471,2089 3492,2091 3503,2091 3514,2091 3525,2092 3546,2092 3557,2092 3568,2093 3579,2094 3590,2094 3600,2094 3611,2095 3622,2096 3633,2096 3654,2097 3665,2098 3676,2098 3698,2099 3709,2099 3719,2100 3730,2101 3752,2102 3763,2103 3774,2103 3784,2104 3806,2105 3817,2106 3828,2106 3838,2107 3849,2108 3860,2108 3871,2109 3882,2110 3903,2111 3914,2111 3925,2112 3936,2113 3957,2114 3968,2115 3979,2116 3990,2117 4012,2118 4022,2119 4033,2120 4044,2120 4055,2121 4066,2122 4077,2123 4087,2123 4109,2125 4120,2127 4131,2127 4141,2128 4163,2130 4174,2131 4185,2132 4196,2133 4206,2134 4217,2135 4228,2136 4239,2137 4250,2138 4271,2140 4282,2141 4293,2142 4315,2145 4325,2146 4336,2148 4347,2149 4369,2151 4380,2153 4390,2154 4401,2155 4423,2158 4434,2160 4444,2161 4455,2162 4477,2165 4488,2167 4499,2169 4520,2172 4531,2173 4542,2175 4553,2177 4574,2181 4585,2183 4596,2185 4607,2187 4628,2191 4639,2193 4650,2196 4661,2198 4672,2201 4683,2203 4693,2205 4704,2208 4726,2213 4737,2216 4747,2219 4758,2222 4780,2228 4791,2231 4802,2234 4812,2237 4823,2241 4834,2244 4845,2249 4856,2253 4866,2256 4888,2264 4899,2268 4910,2272 4931,2282 4942,2287 4953,2293 4964,2297 4986,2307 4996,2313 5007,2319 5018,2325 5040,2338 5050,2345 5061,2351 5072,2358 5083,2364 5094,2372 5105,2381 5115,2389 5137,2406 5148,2414 5159,2422 5169,2431 5180,2440 5191,2451 5202,2461 5213,2471 5224,2482 5234,2492 5245,2503 5256,2513 5267,2524 5278,2537 5289,2549 5299,2562 5310,2575 5321,2587 5332,2600 5343,2612 5353,2625 5364,2640 5375,2654 5386,2669 5397,2683 5408,2698 5418,2712 5429,2727 5440,2741 5451,2757 5462,2773 5472,2789 5483,2805 5494,2821 5505,2837 5516,2853 5527,2869 5537,2885 5548,2902 5559,2919 5570,2936 5581,2952 5592,2969 5602,2986 5613,3003 5624,3020 5635,3037 5646,3054 5656,3071 5667,3089 5678,3106 5689,3123 5700,3140 5711,3157 5721,3174 5732,3191 5743,3208 5754,3224 5765,3241 5775,3258 5786,3275 5797,3292 5808,3308 5819,3324 5830,3340 5840,3356 5851,3372 5862,3388 5873,3404 5884,3420 5895,3436 5905,3451 5916,3466 5927,3480 5938,3495 5949,3510 5959,3525 5970,3540 5981,3554 5992,3568 6003,3582 6014,3595 6024,3608 6035,3622 6046,3635 6057,3649 6068,3662 6078,3675 6089,3687 6100,3699 6111,3711 6122,3722 6133,3734 6143,3746 6154,3758 6165,3770 6176,3781 6187,3791 6197,3801 6219,3822 6230,3833 6241,3843 6252,3854 6262,3864 6273,3873 6284,3882 6295,3891 6306,3900 6317,3909 6327,3919 6338,3928 6349,3937 6371,3953 6381,3961 6392,3969 6403,3977 6425,3993 6436,4001 6446,4008 6457,4016 6479,4030 6490,4037 6500,4044 6522,4059 6533,4066 6544,4072 6555,4079 6565,4085 6576,4092 6587,4098 6598,4105 6609,4111 6630,4124 6641,4130 6652,4136 6663,4142 6674,4148 6684,4155 6695,4161 6706,4167 6717,4173 6728,4178 6739,4184 6749,4190 6760,4196 6771,4202 6782,4208 6793,4214 6803,4219 6814,4225 6836,4236 6847,4242 6858,4248 6868,4254 6890,4265 6901,4271 6912,4276 6923,4282 6933,4288 6944,4293 6955,4299 6966,4305 6987,4316 6998,4322 7009,4328 7020,4333 7042,4345 7052,4351 7063,4356 7074,4362 7096,4374 7106,4379 7117,4385 7139,4397 7150,4403 7161,4408 7171,4414 7193,4426 7204,4432 7215,4438 7226,4443 7247,4455 7258,4461 7269,4467 7280,4473 7290,4479 7301,4485 7312,4490 7323,4496 7345,4508 7355,4514 7366,4520 7377,4526 7388,4532 7399,4537 7409,4543 7420,4549 7431,4555 7442,4561 7453,4566 7464,4572 7474,4578 7485,4584 7507,4595 7518,4601 7529,4607 7539,4612 7550,4618 7561,4623 7572,4629 7583,4635 7593,4640 7604,4646 7615,4651 7625,4657 7636,4662 7657,4673 7668,4678 7679,4683 7690,4688 7711,4699 7722,4704 7733,4708 7755,4718 7766,4723 7776,4728 7787,4733 7809,4742 7820,4747 7831,4751 7841,4756 7863,4764 7874,4769 7885,4773 7895,4777 7906,4781 7917,4785 7928,4788 7939,4792 7950,4796 7960,4800 7971,4804 7982,4807 7993,4810 8014,4816 8025,4820 8036,4823 8047,4826 8069,4832 8079,4834 8090,4837 8101,4839 8123,4844 8134,4846 8144,4849 8166,4852 8177,4854 8188,4855 8198,4857 8220,4860 8231,4862 8242,4863 8253,4864 8274,4865 8285,4866 8296,4866 8307,4867 8328,4868 8339,4868 8350,4868 8372,4867 8382,4867 8393,4867 8404,4866 8426,4865 8437,4864 8447,4862 8458,4861 8469,4860 8480,4858 8491,4857 8501,4856 8512,4854 8534,4849 8545,4847 8556,4844 8577,4839 8588,4837 8599,4834 8610,4831 8631,4824 8642,4820 8653,4816 8664,4813 8685,4806 8696,4801 8707,4796 8718,4791 8740,4782 8750,4777 8761,4772 8772,4767 8783,4762 8794,4756 8804,4749 8815,4743 8826,4737 8837,4731 8848,4725 8859,4719 8869,4712 8891,4697 8902,4690 8913,4682 8923,4674 8945,4659 8956,4652 8967,4643 8978,4634 8988,4625 8999,4616 9010,4607 9021,4598 9032,4589 9043,4580 9053,4570 9064,4560 9075,4549 9086,4539 9097,4528 9107,4518 9118,4507 9129,4497 9140,4486 9151,4474 9162,4462 9172,4450 9183,4438 9194,4426 9205,4414 9216,4402 9226,4391 9237,4378 9248,4364 9259,4351 9270,4338 9281,4324 9291,4311 9302,4298 9313,4284 9324,4270 9335,4256 9346,4241 9356,4227 9367,4212 9378,4197 9389,4183 9400,4168 9410,4154 9421,4138 9432,4123 9443,4107 9454,4091 9465,4076 9475,4060 9486,4045 9497,4029 9508,4013 9519,3996 9529,3980 9540,3964 9551,3947 9562,3931 9573,3915 9584,3898 9594,3882 9605,3865 9616,3848 9627,3831 9638,3814 9649,3797 9659,3780 9670,3763 9681,3747 9692,3729 9703,3712 9713,3695 9724,3678 9735,3661 9746,3643 9757,3626 9768,3609 9778,3592 9789,3575 9800,3558 9811,3540 9822,3523 9832,3506 9843,3489 9854,3472 9865,3455 9876,3438 9887,3421 9897,3404 9908,3387 9919,3370 9930,3353 9941,3336 9952,3319 9962,3303 9973,3286 9984,3270 9995,3253 10006,3237 10016,3220 10027,3204 10038,3188 10049,3172 10060,3156 10071,3140 10081,3125 10092,3109 10103,3093 10114,3078 10125,3062 10135,3047 10146,3032 10157,3018 10168,3003 10179,2989 10190,2974 10200,2959 10211,2945 10222,2930 10233,2917 10244,2904 10254,2891 10265,2877 10276,2864 10287,2851 10298,2837 10309,2824 10319,2812 10330,2800 10341,2789 10352,2777 10363,2765 10374,2753 10384,2741 10395,2730 10406,2719 10417,2708 10428,2698 10438,2688 10449,2678 10460,2668 10471,2658 10482,2647 10493,2637 10503,2629 10514,2620 10536,2603 10547,2594 10557,2585 10568,2577 10579,2568 10590,2560 10601,2553 10612,2546 10622,2539 10633,2532 10644,2524 10655,2517 10666,2510 10677,2503 10687,2497 10698,2491 10709,2485 10720,2479 10731,2473 10741,2467 10752,2461 10763,2455 10774,2450 10785,2446 10796,2441 10806,2436 10817,2431 10839,2421 10850,2416 10860,2412 10871,2408 10893,2400 10904,2395 10915,2391 10925,2387 10936,2383 10947,2380 10958,2376 10969,2373 10980,2370 10990,2366 11001,2363 11012,2360 11023,2356 11044,2350 11055,2347 11066,2345 11077,2342 11099,2337 11109,2334 11120,2331 11131,2329 11153,2324 11163,2322 11174,2320 11185,2317 11196,2315 11207,2313 11218,2311 11228,2309 11250,2305 11261,2304 11272,2302 11283,2300 11304,2296 11315,2295 11326,2293 11337,2291 11358,2288 11369,2287 11380,2286 11402,2283 11412,2281 11423,2280 11434,2279 11456,2277 11466,2276 11477,2274 11488,2273 11510,2271 11521,2270 11531,2269 11542,2268 11564,2266 11575,2266 11586,2264 11607,2263 11618,2262 11629,2262 11640,2260 11661,2259 11672,2259 11683,2258 11694,2257 11715,2256 11726,2255 11737,2255 11748,2254 11769,2253 11780,2253 11791,2252 11813,2252 11824,2251 11834,2250 11845,2250 11867,2249 11878,2249 11889,2248 11899,2248 11921,2247 11932,2247 11943,2246 11953,2246 11975,2246 11986,2245 11997,2245 12018,2245 12029,2245 12040,2244 12051,2244 12072,2243 12083,2243 12094,2243 12105,2243 12127,2242 12137,2242 12148,2242 12159,2242 12181,2241 12192,2241 12202,2241 12224,2241 12235,2241 12246,2240 12256,2240 12278,2240 12289,2240 12300,2240 12311,2240 12332,2240 12343,2239 12354,2239 12365,2239 12386,2239 12397,2238 12408,2238 12430,2238 12440,2238 12451,2238 12462,2238 12484,2238 12495,2238 12505,2238 12516,2238 12538,2238 12549,2238 12559,2237 12570,2237 12592,2237 12603,2237 12614,2237 12635,2237 12646,2237 12657,2237"/>
 <text class="TextShape"><tspan class="TextParagraph" font-family="Liberation Sans, sans-serif" font-size="353px" font-weight="400"><tspan class="TextPosition" x="1744" y="9132"><tspan fill="rgb(0,0,0)" stroke="none">0</tspan></tspan></tspan></text>
 <text class="TextShape"><tspan class="TextParagraph" font-family="Liberation Sans, sans-serif" font-size="353px" font-weight="400"><tspan class="TextPosition" x="2858" y="9132"><tspan fill="rgb(0,0,0)" stroke="none">0.05</tspan></tspan></tspan></text>
 <text class="TextShape"><tspan class="TextParagraph" font-family="Liberation Sans, sans-serif" font-size="353px" font-weight="400"><tspan class="TextPosition" x="4304" y="9132"><tspan fill="rgb(0,0,0)" stroke="none">0.1</tspan></tspan></tspan></text>
 <text class="TextShape"><tspan class="TextParagraph" font-family="Liberation Sans, sans-serif" font-size="353px" font-weight="400"><tspan class="TextPosition" x="5564" y="9132"><tspan fill="rgb(0,0,0)" stroke="none">0.15</tspan></tspan></tspan></text>
 <text class="TextShape"><tspan class="TextParagraph" font-family="Liberation Sans, sans-serif" font-size="353px" font-weight="400"><tspan class="TextPosition" x="7009" y="9132"><tspan fill="rgb(0,0,0)" stroke="none">0.2</tspan></tspan></tspan></text>
 <text class="TextShape"><tspan class="TextParagraph" font-family="Liberation Sans, sans-serif" font-size="353px" font-weight="400"><tspan class="TextPosition" x="8269" y="9132"><tspan fill="rgb(0,0,0)" stroke="none">0.25</tspan></tspan></tspan></text>
 <text class="TextShape"><tspan class="TextParagraph" font-family="Liberation Sans, sans-serif" font-size="353px" font-weight="400"><tspan class="TextPosition" x="9715" y="9132"><tspan fill="rgb(0,0,0)" stroke="none">0.3</tspan></tspan></tspan></text>
 <text class="TextShape"><tspan class="TextParagraph" font-family="Liberation Sans, sans-serif" font-size="353px" font-weight="400"><tspan class="TextPosition" x="10974" y="9132"><tspan fill="rgb(0,0,0)" stroke="none">0.35</tspan></tspan></tspan></text>
 <text class="TextShape"><tspan class="TextParagraph" font-family="Liberation Sans, sans-serif" font-size="353px" font-weight="400"><tspan class="TextPosition" x="12420" y="9132"><tspan fill="rgb(0,0,0)" stroke="none">0.4</tspan></tspan></tspan></text>
 <text class="TextShape"><tspan class="TextParagraph" font-family="Liberation Sans, sans-serif" font-size="353px" font-weight="400"><tspan class="TextPosition" x="13680" y="9132"><tspan fill="rgb(0,0,0)" stroke="none">0.45</tspan></tspan></tspan></text>
 <text class="TextShape"><tspan class="TextParagraph" font-family="Liberation Sans, sans-serif" font-size="353px" font-weight="400"><tspan class="TextPosition" x="1402" y="8724"><tspan fill="rgb(0,0,0)" stroke="none">0</tspan></tspan></tspan></text>
 <text class="TextShape"><tspan class="TextParagraph" font-family="Liberation Sans, sans-serif" font-size="353px" font-weight="400"><tspan class="TextPosition" x="1111" y="7455"><tspan fill="rgb(0,0,0)" stroke="none">0.2</tspan></tspan></tspan></text>
 <text class="TextShape"><tspan class="TextParagraph" font-family="Liberation Sans, sans-serif" font-size="353px" font-weight="400"><tspan class="TextPosition" x="1111" y="6187"><tspan fill="rgb(0,0,0)" stroke="none">0.4</tspan></tspan></tspan></text>
 <text class="TextShape"><tspan class="TextParagraph" font-family="Liberation Sans, sans-serif" font-size="353px" font-weight="400"><tspan class="TextPosition" x="1111" y="4919"><tspan fill="rgb(0,0,0)" stroke="none">0.6</tspan></tspan></tspan></text>
 <text class="TextShape"><tspan class="TextParagraph" font-family="Liberation Sans, sans-serif" font-size="353px" font-weight="400"><tspan class="TextPosition" x="1111" y="3651"><tspan fill="rgb(0,0,0)" stroke="none">0.8</tspan></tspan></tspan></text>
 <text class="TextShape"><tspan class="TextParagraph" font-family="Liberation Sans, sans-serif" font-size="353px" font-weight="400"><tspan class="TextPosition" x="1402" y="2383"><tspan fill="rgb(0,0,0)" stroke="none">1</tspan></tspan></tspan></text>
 <text class="TextShape"><tspan class="TextParagraph" font-family="Liberation Sans, sans-serif" font-size="353px" font-weight="400"><tspan class="TextPosition" x="1111" y="1114"><tspan fill="rgb(0,0,0)" stroke="none">1.2</tspan></tspan></tspan></text>
 <text class="TextShape"><tspan class="TextParagraph" font-family="Liberation Sans, sans-serif" font-size="459px" font-weight="400"><tspan class="TextPosition" x="3638" y="794"><tspan fill="rgb(0,0,0)" stroke="none">Velocity comparison at outlet at time 2.4</tspan></tspan></tspan></text>
 <path fill="rgb(255,255,255)" stroke="none" d="M 10496,7830 L 7508,7830 7508,5766 13485,5766 13485,7830 10496,7830 Z"/>
 <path fill="none" stroke="rgb(0,69,134)" stroke-width="80" stroke-linejoin="round" stroke-dasharray="158,158" d="M 8362,6400 L 9962,6400"/>
 <path fill="none" stroke="rgb(255,66,14)" stroke-width="80" stroke-linejoin="round" d="M 8362,7194 L 9962,7194"/>
 <text class="TextShape"><tspan class="TextParagraph" font-family="Liberation Sans, sans-serif" font-size="353px" font-weight="400"><tspan class="TextPosition" x="10062" y="6479"><tspan fill="rgb(0,0,0)" stroke="none">U with gravity</tspan></tspan></tspan></text>
 <text class="TextShape"><tspan class="TextParagraph" font-family="Liberation Sans, sans-serif" font-size="353px" font-weight="400"><tspan class="TextPosition" x="10062" y="7273"><tspan fill="rgb(0,0,0)" stroke="none">U without gravity</tspan></tspan></tspan></text>
 <text class="TextShape"><tspan class="TextParagraph" font-family="Liberation Sans, sans-serif" font-size="318px" font-weight="400"><tspan class="TextPosition" x="6839" y="9750"><tspan fill="rgb(0,0,0)" stroke="none">y coordinate</tspan></tspan></tspan></text>
 <text class="TextShape" transform="translate(631,6195) rotate(-90) translate(-631,-6195)"><tspan class="TextParagraph" font-family="Liberation Sans, sans-serif" font-size="318px" font-weight="400"><tspan class="TextPosition" x="631" y="6195"><tspan fill="rgb(0,0,0)" stroke="none">Velocity module</tspan></tspan></tspan></text>
</svg>