<?xml version="1.0" encoding="UTF-8"?>
<!DOCTYPE svg PUBLIC "-//W3C//DTD SVG 1.1//EN" "http://www.w3.org/Graphics/SVG/1.1/DTD/svg11.dtd">
<svg width="152mm" height="102mm" viewBox="0 0 15200 10200" version="1.1" xmlns="http://www.w3.org/2000/svg" stroke-width="28.222" stroke-linejoin="round" xml:space="preserve">
 <path fill="rgb(255,255,255)" stroke="none" d="M 7620,10160 L 0,10160 0,0 15240,0 15240,10160 7620,10160 Z"/>
 <path fill="none" stroke="rgb(179,179,179)" stroke-linejoin="round" d="M 7455,8704 L 1783,8704 1783,1039 13127,1039 13127,8704 7455,8704 Z"/>
 <path fill="none" stroke="rgb(179,179,179)" stroke-linejoin="round" d="M 13127,8703 L 1783,8703"/>
 <path fill="none" stroke="rgb(179,179,179)" stroke-linejoin="round" d="M 13127,7607 L 1783,7607"/>
 <path fill="none" stroke="rgb(179,179,179)" stroke-linejoin="round" d="M 13127,6512 L 1783,6512"/>
 <path fill="none" stroke="rgb(179,179,179)" stroke-linejoin="round" d="M 13127,5417 L 1783,5417"/>
 <path fill="none" stroke="rgb(179,179,179)" stroke-linejoin="round" d="M 13127,4323 L 1783,4323"/>
 <path fill="none" stroke="rgb(179,179,179)" stroke-linejoin="round" d="M 13127,3228 L 1783,3228"/>
 <path fill="none" stroke="rgb(179,179,179)" stroke-linejoin="round" d="M 13127,2133 L 1783,2133"/>
 <path fill="none" stroke="rgb(179,179,179)" stroke-linejoin="round" d="M 13127,1038 L 1783,1038"/>
 <path fill="none" stroke="rgb(179,179,179)" stroke-linejoin="round" d="M 1783,8853 L 1783,8703"/>
 <path fill="none" stroke="rgb(179,179,179)" stroke-linejoin="round" d="M 1783,8853 L 1783,8703"/>
 <path fill="none" stroke="rgb(179,179,179)" stroke-linejoin="round" d="M 3043,8853 L 3043,8703"/>
 <path fill="none" stroke="rgb(179,179,179)" stroke-linejoin="round" d="M 3043,8853 L 3043,8703"/>
 <path fill="none" stroke="rgb(179,179,179)" stroke-linejoin="round" d="M 4304,8853 L 4304,8703"/>
 <path fill="none" stroke="rgb(179,179,179)" stroke-linejoin="round" d="M 4304,8853 L 4304,8703"/>
 <path fill="none" stroke="rgb(179,179,179)" stroke-linejoin="round" d="M 5564,8853 L 5564,8703"/>
 <path fill="none" stroke="rgb(179,179,179)" stroke-linejoin="round" d="M 5564,8853 L 5564,8703"/>
 <path fill="none" stroke="rgb(179,179,179)" stroke-linejoin="round" d="M 6825,8853 L 6825,8703"/>
 <path fill="none" stroke="rgb(179,179,179)" stroke-linejoin="round" d="M 6825,8853 L 6825,8703"/>
 <path fill="none" stroke="rgb(179,179,179)" stroke-linejoin="round" d="M 8084,8853 L 8084,8703"/>
 <path fill="none" stroke="rgb(179,179,179)" stroke-linejoin="round" d="M 8084,8853 L 8084,8703"/>
 <path fill="none" stroke="rgb(179,179,179)" stroke-linejoin="round" d="M 9345,8853 L 9345,8703"/>
 <path fill="none" stroke="rgb(179,179,179)" stroke-linejoin="round" d="M 9345,8853 L 9345,8703"/>
 <path fill="none" stroke="rgb(179,179,179)" stroke-linejoin="round" d="M 10605,8853 L 10605,8703"/>
 <path fill="none" stroke="rgb(179,179,179)" stroke-linejoin="round" d="M 10605,8853 L 10605,8703"/>
 <path fill="none" stroke="rgb(179,179,179)" stroke-linejoin="round" d="M 11866,8853 L 11866,8703"/>
 <path fill="none" stroke="rgb(179,179,179)" stroke-linejoin="round" d="M 11866,8853 L 11866,8703"/>
 <path fill="none" stroke="rgb(179,179,179)" stroke-linejoin="round" d="M 13127,8853 L 13127,8703"/>
 <path fill="none" stroke="rgb(179,179,179)" stroke-linejoin="round" d="M 13127,8853 L 13127,8703"/>
 <path fill="none" stroke="rgb(179,179,179)" stroke-linejoin="round" d="M 1783,8703 L 13127,8703"/>
 <path fill="none" stroke="rgb(179,179,179)" stroke-linejoin="round" d="M 1633,8703 L 1783,8703"/>
 <path fill="none" stroke="rgb(179,179,179)" stroke-linejoin="round" d="M 1633,8703 L 1783,8703"/>
 <path fill="none" stroke="rgb(179,179,179)" stroke-linejoin="round" d="M 1633,7607 L 1783,7607"/>
 <path fill="none" stroke="rgb(179,179,179)" stroke-linejoin="round" d="M 1633,7607 L 1783,7607"/>
 <path fill="none" stroke="rgb(179,179,179)" stroke-linejoin="round" d="M 1633,6512 L 1783,6512"/>
 <path fill="none" stroke="rgb(179,179,179)" stroke-linejoin="round" d="M 1633,6512 L 1783,6512"/>
 <path fill="none" stroke="rgb(179,179,179)" stroke-linejoin="round" d="M 1633,5417 L 1783,5417"/>
 <path fill="none" stroke="rgb(179,179,179)" stroke-linejoin="round" d="M 1633,5417 L 1783,5417"/>
 <path fill="none" stroke="rgb(179,179,179)" stroke-linejoin="round" d="M 1633,4323 L 1783,4323"/>
 <path fill="none" stroke="rgb(179,179,179)" stroke-linejoin="round" d="M 1633,4323 L 1783,4323"/>
 <path fill="none" stroke="rgb(179,179,179)" stroke-linejoin="round" d="M 1633,3228 L 1783,3228"/>
 <path fill="none" stroke="rgb(179,179,179)" stroke-linejoin="round" d="M 1633,3228 L 1783,3228"/>
 <path fill="none" stroke="rgb(179,179,179)" stroke-linejoin="round" d="M 1633,2133 L 1783,2133"/>
 <path fill="none" stroke="rgb(179,179,179)" stroke-linejoin="round" d="M 1633,2133 L 1783,2133"/>
 <path fill="none" stroke="rgb(179,179,179)" stroke-linejoin="round" d="M 1633,1037 L 1783,1037"/>
 <path fill="none" stroke="rgb(179,179,179)" stroke-linejoin="round" d="M 1633,1037 L 1783,1037"/>
 <path fill="none" stroke="rgb(179,179,179)" stroke-linejoin="round" d="M 1783,8703 L 1783,1038"/>
 <path fill="none" stroke="rgb(179,179,179)" stroke-linejoin="round" d="M 13277,8703 L 13127,8703"/>
 <path fill="none" stroke="rgb(179,179,179)" stroke-linejoin="round" d="M 13277,8703 L 13127,8703"/>
 <path fill="none" stroke="rgb(179,179,179)" stroke-linejoin="round" d="M 13277,7936 L 13127,7936"/>
 <path fill="none" stroke="rgb(179,179,179)" stroke-linejoin="round" d="M 13277,7936 L 13127,7936"/>
 <path fill="none" stroke="rgb(179,179,179)" stroke-linejoin="round" d="M 13277,7169 L 13127,7169"/>
 <path fill="none" stroke="rgb(179,179,179)" stroke-linejoin="round" d="M 13277,7169 L 13127,7169"/>
 <path fill="none" stroke="rgb(179,179,179)" stroke-linejoin="round" d="M 13277,6403 L 13127,6403"/>
 <path fill="none" stroke="rgb(179,179,179)" stroke-linejoin="round" d="M 13277,6403 L 13127,6403"/>
 <path fill="none" stroke="rgb(179,179,179)" stroke-linejoin="round" d="M 13277,5636 L 13127,5636"/>
 <path fill="none" stroke="rgb(179,179,179)" stroke-linejoin="round" d="M 13277,5636 L 13127,5636"/>
 <path fill="none" stroke="rgb(179,179,179)" stroke-linejoin="round" d="M 13277,4871 L 13127,4871"/>
 <path fill="none" stroke="rgb(179,179,179)" stroke-linejoin="round" d="M 13277,4871 L 13127,4871"/>
 <path fill="none" stroke="rgb(179,179,179)" stroke-linejoin="round" d="M 13277,4104 L 13127,4104"/>
 <path fill="none" stroke="rgb(179,179,179)" stroke-linejoin="round" d="M 13277,4104 L 13127,4104"/>
 <path fill="none" stroke="rgb(179,179,179)" stroke-linejoin="round" d="M 13277,3337 L 13127,3337"/>
 <path fill="none" stroke="rgb(179,179,179)" stroke-linejoin="round" d="M 13277,3337 L 13127,3337"/>
 <path fill="none" stroke="rgb(179,179,179)" stroke-linejoin="round" d="M 13277,2571 L 13127,2571"/>
 <path fill="none" stroke="rgb(179,179,179)" stroke-linejoin="round" d="M 13277,2571 L 13127,2571"/>
 <path fill="none" stroke="rgb(179,179,179)" stroke-linejoin="round" d="M 13277,1804 L 13127,1804"/>
 <path fill="none" stroke="rgb(179,179,179)" stroke-linejoin="round" d="M 13277,1804 L 13127,1804"/>
 <path fill="none" stroke="rgb(179,179,179)" stroke-linejoin="round" d="M 13277,1038 L 13127,1038"/>
 <path fill="none" stroke="rgb(179,179,179)" stroke-linejoin="round" d="M 13277,1038 L 13127,1038"/>
 <path fill="none" stroke="rgb(179,179,179)" stroke-linejoin="round" d="M 13127,8703 L 13127,1038"/>
 <path fill="none" stroke="rgb(255,66,14)" stroke-width="80" stroke-linejoin="round" d="M 2433,5066 L 3299,8027 4333,8290 5493,7928 8298,7721 11664,7566"/>
 <path fill="rgb(255,66,14)" stroke="none" d="M 2308,5066 L 2433,5190 2558,5066 2433,4941 2308,5066 Z"/>
 <path fill="none" stroke="rgb(255,66,14)" stroke-linejoin="round" d="M 2308,5066 L 2433,5190 2558,5066 2433,4941 2308,5066 Z"/>
 <path fill="rgb(255,66,14)" stroke="none" d="M 3174,8027 L 3299,8152 3424,8027 3299,7902 3174,8027 Z"/>
 <path fill="none" stroke="rgb(255,66,14)" stroke-linejoin="round" d="M 3174,8027 L 3299,8152 3424,8027 3299,7902 3174,8027 Z"/>
 <path fill="rgb(255,66,14)" stroke="none" d="M 4208,8290 L 4333,8415 4458,8290 4333,8165 4208,8290 Z"/>
 <path fill="none" stroke="rgb(255,66,14)" stroke-linejoin="round" d="M 4208,8290 L 4333,8415 4458,8290 4333,8165 4208,8290 Z"/>
 <path fill="rgb(255,66,14)" stroke="none" d="M 5368,7928 L 5493,8053 5618,7928 5493,7803 5368,7928 Z"/>
 <path fill="none" stroke="rgb(255,66,14)" stroke-linejoin="round" d="M 5368,7928 L 5493,8053 5618,7928 5493,7803 5368,7928 Z"/>
 <path fill="rgb(255,66,14)" stroke="none" d="M 8173,7721 L 8298,7846 8423,7721 8298,7596 8173,7721 Z"/>
 <path fill="none" stroke="rgb(255,66,14)" stroke-linejoin="round" d="M 8173,7721 L 8298,7846 8423,7721 8298,7596 8173,7721 Z"/>
 <path fill="rgb(255,66,14)" stroke="none" d="M 11539,7566 L 11664,7691 11789,7566 11664,7441 11539,7566 Z"/>
 <path fill="none" stroke="rgb(255,66,14)" stroke-linejoin="round" d="M 11539,7566 L 11664,7691 11789,7566 11664,7441 11539,7566 Z"/>
 <path fill="none" stroke="rgb(0,69,134)" stroke-width="80" stroke-linejoin="round" d="M 2433,2342 L 3299,4703 4333,5303 5493,5877 8298,5977 11664,5993"/>
 <path fill="rgb(0,69,134)" stroke="none" d="M 2308,2217 L 2308,2467 2558,2467 2558,2217 2308,2217 Z"/>
 <path fill="none" stroke="rgb(0,69,134)" stroke-linejoin="round" d="M 2308,2217 L 2308,2467 2558,2467 2558,2217 2308,2217 Z"/>
 <path fill="rgb(0,69,134)" stroke="none" d="M 3174,4578 L 3174,4828 3424,4828 3424,4578 3174,4578 Z"/>
 <path fill="none" stroke="rgb(0,69,134)" stroke-linejoin="round" d="M 3174,4578 L 3174,4828 3424,4828 3424,4578 3174,4578 Z"/>
 <path fill="rgb(0,69,134)" stroke="none" d="M 4208,5178 L 4208,5428 4458,5428 4458,5178 4208,5178 Z"/>
 <path fill="none" stroke="rgb(0,69,134)" stroke-linejoin="round" d="M 4208,5178 L 4208,5428 4458,5428 4458,5178 4208,5178 Z"/>
 <path fill="rgb(0,69,134)" stroke="none" d="M 5368,5752 L 5368,6002 5618,6002 5618,5752 5368,5752 Z"/>
 <path fill="none" stroke="rgb(0,69,134)" stroke-linejoin="round" d="M 5368,5752 L 5368,6002 5618,6002 5618,5752 5368,5752 Z"/>
 <path fill="rgb(0,69,134)" stroke="none" d="M 8173,5852 L 8173,6102 8423,6102 8423,5852 8173,5852 Z"/>
 <path fill="none" stroke="rgb(0,69,134)" stroke-linejoin="round" d="M 8173,5852 L 8173,6102 8423,6102 8423,5852 8173,5852 Z"/>
 <path fill="rgb(0,69,134)" stroke="none" d="M 11539,5868 L 11539,6118 11789,6118 11789,5868 11539,5868 Z"/>
 <path fill="none" stroke="rgb(0,69,134)" stroke-linejoin="round" d="M 11539,5868 L 11539,6118 11789,6118 11789,5868 11539,5868 Z"/>
 <text class="TextShape"><tspan class="TextParagraph" font-family="Liberation Sans, sans-serif" font-size="353px" font-weight="400"><tspan class="TextPosition" x="1690" y="9191"><tspan fill="rgb(0,0,0)" stroke="none">0</tspan></tspan></tspan></text>
 <text class="TextShape"><tspan class="TextParagraph" font-family="Liberation Sans, sans-serif" font-size="353px" font-weight="400"><tspan class="TextPosition" x="2580" y="9191"><tspan fill="rgb(0,0,0)" stroke="none">20000</tspan></tspan></tspan></text>
 <text class="TextShape"><tspan class="TextParagraph" font-family="Liberation Sans, sans-serif" font-size="353px" font-weight="400"><tspan class="TextPosition" x="3841" y="9191"><tspan fill="rgb(0,0,0)" stroke="none">40000</tspan></tspan></tspan></text>
 <text class="TextShape"><tspan class="TextParagraph" font-family="Liberation Sans, sans-serif" font-size="353px" font-weight="400"><tspan class="TextPosition" x="5101" y="9191"><tspan fill="rgb(0,0,0)" stroke="none">60000</tspan></tspan></tspan></text>
 <text class="TextShape"><tspan class="TextParagraph" font-family="Liberation Sans, sans-serif" font-size="353px" font-weight="400"><tspan class="TextPosition" x="6362" y="9191"><tspan fill="rgb(0,0,0)" stroke="none">80000</tspan></tspan></tspan></text>
 <text class="TextShape"><tspan class="TextParagraph" font-family="Liberation Sans, sans-serif" font-size="353px" font-weight="400"><tspan class="TextPosition" x="7529" y="9191"><tspan fill="rgb(0,0,0)" stroke="none">100000</tspan></tspan></tspan></text>
 <text class="TextShape"><tspan class="TextParagraph" font-family="Liberation Sans, sans-serif" font-size="353px" font-weight="400"><tspan class="TextPosition" x="8790" y="9191"><tspan fill="rgb(0,0,0)" stroke="none">120000</tspan></tspan></tspan></text>
 <text class="TextShape"><tspan class="TextParagraph" font-family="Liberation Sans, sans-serif" font-size="353px" font-weight="400"><tspan class="TextPosition" x="10050" y="9191"><tspan fill="rgb(0,0,0)" stroke="none">140000</tspan></tspan></tspan></text>
 <text class="TextShape"><tspan class="TextParagraph" font-family="Liberation Sans, sans-serif" font-size="353px" font-weight="400"><tspan class="TextPosition" x="11311" y="9191"><tspan fill="rgb(0,0,0)" stroke="none">160000</tspan></tspan></tspan></text>
 <text class="TextShape"><tspan class="TextParagraph" font-family="Liberation Sans, sans-serif" font-size="353px" font-weight="400"><tspan class="TextPosition" x="12572" y="9191"><tspan fill="rgb(0,0,0)" stroke="none">180000</tspan></tspan></tspan></text>
 <text class="TextShape"><tspan class="TextParagraph" font-family="Liberation Sans, sans-serif" font-size="353px" font-weight="400"><tspan class="TextPosition" x="1057" y="8783"><tspan fill="rgb(0,102,179)" stroke="none">4.7</tspan></tspan></tspan></text>
 <text class="TextShape"><tspan class="TextParagraph" font-family="Liberation Sans, sans-serif" font-size="353px" font-weight="400"><tspan class="TextPosition" x="1057" y="7687"><tspan fill="rgb(0,102,179)" stroke="none">4.8</tspan></tspan></tspan></text>
 <text class="TextShape"><tspan class="TextParagraph" font-family="Liberation Sans, sans-serif" font-size="353px" font-weight="400"><tspan class="TextPosition" x="1057" y="6592"><tspan fill="rgb(0,102,179)" stroke="none">4.9</tspan></tspan></tspan></text>
 <text class="TextShape"><tspan class="TextParagraph" font-family="Liberation Sans, sans-serif" font-size="353px" font-weight="400"><tspan class="TextPosition" x="1348" y="5497"><tspan fill="rgb(0,102,179)" stroke="none">5</tspan></tspan></tspan></text>
 <text class="TextShape"><tspan class="TextParagraph" font-family="Liberation Sans, sans-serif" font-size="353px" font-weight="400"><tspan class="TextPosition" x="1057" y="4402"><tspan fill="rgb(0,102,179)" stroke="none">5.1</tspan></tspan></tspan></text>
 <text class="TextShape"><tspan class="TextParagraph" font-family="Liberation Sans, sans-serif" font-size="353px" font-weight="400"><tspan class="TextPosition" x="1057" y="3307"><tspan fill="rgb(0,102,179)" stroke="none">5.2</tspan></tspan></tspan></text>
 <text class="TextShape"><tspan class="TextParagraph" font-family="Liberation Sans, sans-serif" font-size="353px" font-weight="400"><tspan class="TextPosition" x="1057" y="2212"><tspan fill="rgb(0,102,179)" stroke="none">5.3</tspan></tspan></tspan></text>
 <text class="TextShape"><tspan class="TextParagraph" font-family="Liberation Sans, sans-serif" font-size="353px" font-weight="400"><tspan class="TextPosition" x="1057" y="1116"><tspan fill="rgb(0,102,179)" stroke="none">5.4</tspan></tspan></tspan></text>
 <text class="TextShape"><tspan class="TextParagraph" font-family="Liberation Sans, sans-serif" font-size="353px" font-weight="400"><tspan class="TextPosition" x="13377" y="8783"><tspan fill="rgb(239,65,61)" stroke="none">-0.2</tspan></tspan></tspan></text>
 <text class="TextShape"><tspan class="TextParagraph" font-family="Liberation Sans, sans-serif" font-size="353px" font-weight="400"><tspan class="TextPosition" x="13377" y="8016"><tspan fill="rgb(239,65,61)" stroke="none">-0.18</tspan></tspan></tspan></text>
 <text class="TextShape"><tspan class="TextParagraph" font-family="Liberation Sans, sans-serif" font-size="353px" font-weight="400"><tspan class="TextPosition" x="13377" y="7249"><tspan fill="rgb(239,65,61)" stroke="none">-0.16</tspan></tspan></tspan></text>
 <text class="TextShape"><tspan class="TextParagraph" font-family="Liberation Sans, sans-serif" font-size="353px" font-weight="400"><tspan class="TextPosition" x="13377" y="6483"><tspan fill="rgb(239,65,61)" stroke="none">-0.14</tspan></tspan></tspan></text>
 <text class="TextShape"><tspan class="TextParagraph" font-family="Liberation Sans, sans-serif" font-size="353px" font-weight="400"><tspan class="TextPosition" x="13377" y="5716"><tspan fill="rgb(239,65,61)" stroke="none">-0.12</tspan></tspan></tspan></text>
 <text class="TextShape"><tspan class="TextParagraph" font-family="Liberation Sans, sans-serif" font-size="353px" font-weight="400"><tspan class="TextPosition" x="13377" y="4950"><tspan fill="rgb(239,65,61)" stroke="none">-0.1</tspan></tspan></tspan></text>
 <text class="TextShape"><tspan class="TextParagraph" font-family="Liberation Sans, sans-serif" font-size="353px" font-weight="400"><tspan class="TextPosition" x="13377" y="4183"><tspan fill="rgb(239,65,61)" stroke="none">-0.08</tspan></tspan></tspan></text>
 <text class="TextShape"><tspan class="TextParagraph" font-family="Liberation Sans, sans-serif" font-size="353px" font-weight="400"><tspan class="TextPosition" x="13377" y="3416"><tspan fill="rgb(239,65,61)" stroke="none">-0.06</tspan></tspan></tspan></text>
 <text class="TextShape"><tspan class="TextParagraph" font-family="Liberation Sans, sans-serif" font-size="353px" font-weight="400"><tspan class="TextPosition" x="13377" y="2650"><tspan fill="rgb(239,65,61)" stroke="none">-0.04</tspan></tspan></tspan></text>
 <text class="TextShape"><tspan class="TextParagraph" font-family="Liberation Sans, sans-serif" font-size="353px" font-weight="400"><tspan class="TextPosition" x="13377" y="1883"><tspan fill="rgb(239,65,61)" stroke="none">-0.02</tspan></tspan></tspan></text>
 <text class="TextShape"><tspan class="TextParagraph" font-family="Liberation Sans, sans-serif" font-size="353px" font-weight="400"><tspan class="TextPosition" x="13377" y="1117"><tspan fill="rgb(239,65,61)" stroke="none">0</tspan></tspan></tspan></text>
 <text class="TextShape"><tspan class="TextParagraph" font-family="Liberation Sans, sans-serif" font-size="459px" font-weight="400"><tspan class="TextPosition" x="6998" y="794"><tspan fill="rgb(0,0,0)" stroke="none">Power</tspan></tspan></tspan></text>
 <path fill="none" stroke="rgb(0,69,134)" stroke-width="80" stroke-linejoin="round" d="M 9080,2319 L 9880,2319"/>
 <path fill="rgb(0,69,134)" stroke="none" d="M 9374,2214 L 9374,2425 9585,2425 9585,2214 9374,2214 Z"/>
 <path fill="none" stroke="rgb(0,69,134)" stroke-linejoin="round" d="M 9374,2214 L 9374,2425 9585,2425 9585,2214 9374,2214 Z"/>
 <path fill="none" stroke="rgb(255,66,14)" stroke-width="80" stroke-linejoin="round" d="M 9080,2973 L 9880,2973"/>
 <path fill="rgb(255,66,14)" stroke="none" d="M 9374,2973 L 9480,3079 9585,2973 9480,2868 9374,2973 Z"/>
 <path fill="none" stroke="rgb(255,66,14)" stroke-linejoin="round" d="M 9374,2973 L 9480,3079 9585,2973 9480,2868 9374,2973 Z"/>
 <text class="TextShape"><tspan class="TextParagraph" font-family="Liberation Sans, sans-serif" font-size="353px" font-weight="400"><tspan class="TextPosition" x="9980" y="2239"><tspan fill="rgb(0,0,0)" stroke="none">Power </tspan></tspan><tspan class="TextPosition" x="9980" y="2557"><tspan fill="rgb(0,0,0)" stroke="none">Pressure</tspan></tspan></tspan></text>
 <text class="TextShape"><tspan class="TextParagraph" font-family="Liberation Sans, sans-serif" font-size="353px" font-weight="400"><tspan class="TextPosition" x="9980" y="2893"><tspan fill="rgb(0,0,0)" stroke="none">Power Tau</tspan></tspan></tspan></text>
 <text class="TextShape"><tspan class="TextParagraph" font-family="Liberation Sans, sans-serif" font-size="318px" font-weight="400"><tspan class="TextPosition" x="6635" y="9809"><tspan fill="rgb(0,0,0)" stroke="none">Cells number</tspan></tspan></tspan></text>
 <text class="TextShape" transform="translate(577,6596) rotate(-90) translate(-577,-6596)"><tspan class="TextParagraph" font-family="Liberation Sans, sans-serif" font-size="318px" font-weight="400"><tspan class="TextPosition" x="577" y="6596"><tspan fill="rgb(0,0,0)" stroke="none">Power (Pressure) [W]</tspan></tspan></tspan></text>
 <text class="TextShape" transform="translate(14784,6384) rotate(-90) translate(-14784,-6384)"><tspan class="TextParagraph" font-family="Liberation Sans, sans-serif" font-size="318px" font-weight="400"><tspan class="TextPosition" x="14784" y="6384"><tspan fill="rgb(0,0,0)" stroke="none">Power (Shear) [W]</tspan></tspan></tspan></text>
</svg>