<?xml version="1.0" encoding="UTF-8"?>
<!DOCTYPE svg PUBLIC "-//W3C//DTD SVG 1.1//EN" "http://www.w3.org/Graphics/SVG/1.1/DTD/svg11.dtd">
<svg width="152mm" height="102mm" viewBox="0 0 15200 10200" version="1.1" xmlns="http://www.w3.org/2000/svg" stroke-width="28.222" stroke-linejoin="round" xml:space="preserve">
 <path fill="rgb(255,255,255)" stroke="none" d="M 7620,10160 L 0,10160 0,0 15240,0 15240,10160 7620,10160 Z"/>
 <path fill="none" stroke="rgb(179,179,179)" stroke-linejoin="round" d="M 8185,8460 L 1990,8460 1990,1402 14380,1402 14380,8460 8185,8460 Z"/>
 <path fill="none" stroke="rgb(179,179,179)" stroke-linejoin="round" d="M 14380,8459 L 1990,8459"/>
 <path fill="none" stroke="rgb(179,179,179)" stroke-linejoin="round" d="M 14380,7576 L 1990,7576"/>
 <path fill="none" stroke="rgb(179,179,179)" stroke-linejoin="round" d="M 14380,6694 L 1990,6694"/>
 <path fill="none" stroke="rgb(179,179,179)" stroke-linejoin="round" d="M 14380,5811 L 1990,5811"/>
 <path fill="none" stroke="rgb(179,179,179)" stroke-linejoin="round" d="M 14380,4930 L 1990,4930"/>
 <path fill="none" stroke="rgb(179,179,179)" stroke-linejoin="round" d="M 14380,4048 L 1990,4048"/>
 <path fill="none" stroke="rgb(179,179,179)" stroke-linejoin="round" d="M 14380,3165 L 1990,3165"/>
 <path fill="none" stroke="rgb(179,179,179)" stroke-linejoin="round" d="M 14380,2283 L 1990,2283"/>
 <path fill="none" stroke="rgb(179,179,179)" stroke-linejoin="round" d="M 14380,1401 L 1990,1401"/>
 <path fill="none" stroke="rgb(179,179,179)" stroke-linejoin="round" d="M 1990,8609 L 1990,8459"/>
 <path fill="none" stroke="rgb(179,179,179)" stroke-linejoin="round" d="M 1990,8609 L 1990,8459"/>
 <path fill="none" stroke="rgb(179,179,179)" stroke-linejoin="round" d="M 3366,8609 L 3366,8459"/>
 <path fill="none" stroke="rgb(179,179,179)" stroke-linejoin="round" d="M 3366,8609 L 3366,8459"/>
 <path fill="none" stroke="rgb(179,179,179)" stroke-linejoin="round" d="M 4743,8609 L 4743,8459"/>
 <path fill="none" stroke="rgb(179,179,179)" stroke-linejoin="round" d="M 4743,8609 L 4743,8459"/>
 <path fill="none" stroke="rgb(179,179,179)" stroke-linejoin="round" d="M 6120,8609 L 6120,8459"/>
 <path fill="none" stroke="rgb(179,179,179)" stroke-linejoin="round" d="M 6120,8609 L 6120,8459"/>
 <path fill="none" stroke="rgb(179,179,179)" stroke-linejoin="round" d="M 7497,8609 L 7497,8459"/>
 <path fill="none" stroke="rgb(179,179,179)" stroke-linejoin="round" d="M 7497,8609 L 7497,8459"/>
 <path fill="none" stroke="rgb(179,179,179)" stroke-linejoin="round" d="M 8872,8609 L 8872,8459"/>
 <path fill="none" stroke="rgb(179,179,179)" stroke-linejoin="round" d="M 8872,8609 L 8872,8459"/>
 <path fill="none" stroke="rgb(179,179,179)" stroke-linejoin="round" d="M 10249,8609 L 10249,8459"/>
 <path fill="none" stroke="rgb(179,179,179)" stroke-linejoin="round" d="M 10249,8609 L 10249,8459"/>
 <path fill="none" stroke="rgb(179,179,179)" stroke-linejoin="round" d="M 11626,8609 L 11626,8459"/>
 <path fill="none" stroke="rgb(179,179,179)" stroke-linejoin="round" d="M 11626,8609 L 11626,8459"/>
 <path fill="none" stroke="rgb(179,179,179)" stroke-linejoin="round" d="M 13003,8609 L 13003,8459"/>
 <path fill="none" stroke="rgb(179,179,179)" stroke-linejoin="round" d="M 13003,8609 L 13003,8459"/>
 <path fill="none" stroke="rgb(179,179,179)" stroke-linejoin="round" d="M 14380,8609 L 14380,8459"/>
 <path fill="none" stroke="rgb(179,179,179)" stroke-linejoin="round" d="M 14380,8609 L 14380,8459"/>
 <path fill="none" stroke="rgb(179,179,179)" stroke-linejoin="round" d="M 1990,8459 L 14380,8459"/>
 <path fill="none" stroke="rgb(179,179,179)" stroke-linejoin="round" d="M 1840,8459 L 1990,8459"/>
 <path fill="none" stroke="rgb(179,179,179)" stroke-linejoin="round" d="M 1840,8459 L 1990,8459"/>
 <path fill="none" stroke="rgb(179,179,179)" stroke-linejoin="round" d="M 1840,7576 L 1990,7576"/>
 <path fill="none" stroke="rgb(179,179,179)" stroke-linejoin="round" d="M 1840,7576 L 1990,7576"/>
 <path fill="none" stroke="rgb(179,179,179)" stroke-linejoin="round" d="M 1840,6694 L 1990,6694"/>
 <path fill="none" stroke="rgb(179,179,179)" stroke-linejoin="round" d="M 1840,6694 L 1990,6694"/>
 <path fill="none" stroke="rgb(179,179,179)" stroke-linejoin="round" d="M 1840,5811 L 1990,5811"/>
 <path fill="none" stroke="rgb(179,179,179)" stroke-linejoin="round" d="M 1840,5811 L 1990,5811"/>
 <path fill="none" stroke="rgb(179,179,179)" stroke-linejoin="round" d="M 1840,4930 L 1990,4930"/>
 <path fill="none" stroke="rgb(179,179,179)" stroke-linejoin="round" d="M 1840,4930 L 1990,4930"/>
 <path fill="none" stroke="rgb(179,179,179)" stroke-linejoin="round" d="M 1840,4048 L 1990,4048"/>
 <path fill="none" stroke="rgb(179,179,179)" stroke-linejoin="round" d="M 1840,4048 L 1990,4048"/>
 <path fill="none" stroke="rgb(179,179,179)" stroke-linejoin="round" d="M 1840,3165 L 1990,3165"/>
 <path fill="none" stroke="rgb(179,179,179)" stroke-linejoin="round" d="M 1840,3165 L 1990,3165"/>
 <path fill="none" stroke="rgb(179,179,179)" stroke-linejoin="round" d="M 1840,2283 L 1990,2283"/>
 <path fill="none" stroke="rgb(179,179,179)" stroke-linejoin="round" d="M 1840,2283 L 1990,2283"/>
 <path fill="none" stroke="rgb(179,179,179)" stroke-linejoin="round" d="M 1840,1401 L 1990,1401"/>
 <path fill="none" stroke="rgb(179,179,179)" stroke-linejoin="round" d="M 1840,1401 L 1990,1401"/>
 <path fill="none" stroke="rgb(179,179,179)" stroke-linejoin="round" d="M 1990,8459 L 1990,1401"/>
 <path fill="none" stroke="rgb(0,69,134)" stroke-width="80" stroke-linejoin="round" d="M 2700,2496 L 3646,5080 4775,5624 6043,6003 9105,6037 12782,6014"/>
 <path fill="rgb(0,69,134)" stroke="none" d="M 2575,2371 L 2575,2621 2825,2621 2825,2371 2575,2371 Z"/>
 <path fill="none" stroke="rgb(0,69,134)" stroke-linejoin="round" d="M 2575,2371 L 2575,2621 2825,2621 2825,2371 2575,2371 Z"/>
 <path fill="rgb(0,69,134)" stroke="none" d="M 3521,4956 L 3521,5205 3771,5205 3771,4956 3521,4956 Z"/>
 <path fill="none" stroke="rgb(0,69,134)" stroke-linejoin="round" d="M 3521,4956 L 3521,5205 3771,5205 3771,4956 3521,4956 Z"/>
 <path fill="rgb(0,69,134)" stroke="none" d="M 4650,5499 L 4650,5749 4900,5749 4900,5499 4650,5499 Z"/>
 <path fill="none" stroke="rgb(0,69,134)" stroke-linejoin="round" d="M 4650,5499 L 4650,5749 4900,5749 4900,5499 4650,5499 Z"/>
 <path fill="rgb(0,69,134)" stroke="none" d="M 5918,5878 L 5918,6128 6168,6128 6168,5878 5918,5878 Z"/>
 <path fill="none" stroke="rgb(0,69,134)" stroke-linejoin="round" d="M 5918,5878 L 5918,6128 6168,6128 6168,5878 5918,5878 Z"/>
 <path fill="rgb(0,69,134)" stroke="none" d="M 8980,5912 L 8980,6162 9230,6162 9230,5912 8980,5912 Z"/>
 <path fill="none" stroke="rgb(0,69,134)" stroke-linejoin="round" d="M 8980,5912 L 8980,6162 9230,6162 9230,5912 8980,5912 Z"/>
 <path fill="rgb(0,69,134)" stroke="none" d="M 12657,5889 L 12657,6139 12907,6139 12907,5889 12657,5889 Z"/>
 <path fill="none" stroke="rgb(0,69,134)" stroke-linejoin="round" d="M 12657,5889 L 12657,6139 12907,6139 12907,5889 12657,5889 Z"/>
 <text class="TextShape"><tspan class="TextParagraph" font-family="Liberation Sans, sans-serif" font-size="353px" font-weight="400"><tspan class="TextPosition" x="1897" y="8947"><tspan fill="rgb(0,0,0)" stroke="none">0</tspan></tspan></tspan></text>
 <text class="TextShape"><tspan class="TextParagraph" font-family="Liberation Sans, sans-serif" font-size="353px" font-weight="400"><tspan class="TextPosition" x="2903" y="8947"><tspan fill="rgb(0,0,0)" stroke="none">20000</tspan></tspan></tspan></text>
 <text class="TextShape"><tspan class="TextParagraph" font-family="Liberation Sans, sans-serif" font-size="353px" font-weight="400"><tspan class="TextPosition" x="4280" y="8947"><tspan fill="rgb(0,0,0)" stroke="none">40000</tspan></tspan></tspan></text>
 <text class="TextShape"><tspan class="TextParagraph" font-family="Liberation Sans, sans-serif" font-size="353px" font-weight="400"><tspan class="TextPosition" x="5657" y="8947"><tspan fill="rgb(0,0,0)" stroke="none">60000</tspan></tspan></tspan></text>
 <text class="TextShape"><tspan class="TextParagraph" font-family="Liberation Sans, sans-serif" font-size="353px" font-weight="400"><tspan class="TextPosition" x="7034" y="8947"><tspan fill="rgb(0,0,0)" stroke="none">80000</tspan></tspan></tspan></text>
 <text class="TextShape"><tspan class="TextParagraph" font-family="Liberation Sans, sans-serif" font-size="353px" font-weight="400"><tspan class="TextPosition" x="8317" y="8947"><tspan fill="rgb(0,0,0)" stroke="none">100000</tspan></tspan></tspan></text>
 <text class="TextShape"><tspan class="TextParagraph" font-family="Liberation Sans, sans-serif" font-size="353px" font-weight="400"><tspan class="TextPosition" x="9694" y="8947"><tspan fill="rgb(0,0,0)" stroke="none">120000</tspan></tspan></tspan></text>
 <text class="TextShape"><tspan class="TextParagraph" font-family="Liberation Sans, sans-serif" font-size="353px" font-weight="400"><tspan class="TextPosition" x="11071" y="8947"><tspan fill="rgb(0,0,0)" stroke="none">140000</tspan></tspan></tspan></text>
 <text class="TextShape"><tspan class="TextParagraph" font-family="Liberation Sans, sans-serif" font-size="353px" font-weight="400"><tspan class="TextPosition" x="12448" y="8947"><tspan fill="rgb(0,0,0)" stroke="none">160000</tspan></tspan></tspan></text>
 <text class="TextShape"><tspan class="TextParagraph" font-family="Liberation Sans, sans-serif" font-size="353px" font-weight="400"><tspan class="TextPosition" x="13825" y="8947"><tspan fill="rgb(0,0,0)" stroke="none">180000</tspan></tspan></tspan></text>
 <text class="TextShape"><tspan class="TextParagraph" font-family="Liberation Sans, sans-serif" font-size="353px" font-weight="400"><tspan class="TextPosition" x="1264" y="8539"><tspan fill="rgb(0,0,0)" stroke="none">4.5</tspan></tspan></tspan></text>
 <text class="TextShape"><tspan class="TextParagraph" font-family="Liberation Sans, sans-serif" font-size="353px" font-weight="400"><tspan class="TextPosition" x="1264" y="7656"><tspan fill="rgb(0,0,0)" stroke="none">4.6</tspan></tspan></tspan></text>
 <text class="TextShape"><tspan class="TextParagraph" font-family="Liberation Sans, sans-serif" font-size="353px" font-weight="400"><tspan class="TextPosition" x="1264" y="6774"><tspan fill="rgb(0,0,0)" stroke="none">4.7</tspan></tspan></tspan></text>
 <text class="TextShape"><tspan class="TextParagraph" font-family="Liberation Sans, sans-serif" font-size="353px" font-weight="400"><tspan class="TextPosition" x="1264" y="5891"><tspan fill="rgb(0,0,0)" stroke="none">4.8</tspan></tspan></tspan></text>
 <text class="TextShape"><tspan class="TextParagraph" font-family="Liberation Sans, sans-serif" font-size="353px" font-weight="400"><tspan class="TextPosition" x="1264" y="5009"><tspan fill="rgb(0,0,0)" stroke="none">4.9</tspan></tspan></tspan></text>
 <text class="TextShape"><tspan class="TextParagraph" font-family="Liberation Sans, sans-serif" font-size="353px" font-weight="400"><tspan class="TextPosition" x="1555" y="4127"><tspan fill="rgb(0,0,0)" stroke="none">5</tspan></tspan></tspan></text>
 <text class="TextShape"><tspan class="TextParagraph" font-family="Liberation Sans, sans-serif" font-size="353px" font-weight="400"><tspan class="TextPosition" x="1264" y="3244"><tspan fill="rgb(0,0,0)" stroke="none">5.1</tspan></tspan></tspan></text>
 <text class="TextShape"><tspan class="TextParagraph" font-family="Liberation Sans, sans-serif" font-size="353px" font-weight="400"><tspan class="TextPosition" x="1264" y="2362"><tspan fill="rgb(0,0,0)" stroke="none">5.2</tspan></tspan></tspan></text>
 <text class="TextShape"><tspan class="TextParagraph" font-family="Liberation Sans, sans-serif" font-size="353px" font-weight="400"><tspan class="TextPosition" x="1264" y="1480"><tspan fill="rgb(0,0,0)" stroke="none">5.3</tspan></tspan></tspan></text>
 <text class="TextShape"><tspan class="TextParagraph" font-family="Liberation Sans, sans-serif" font-size="459px" font-weight="400"><tspan class="TextPosition" x="4895" y="794"><tspan fill="rgb(0,0,0)" stroke="none">Mean Power of the last turn</tspan></tspan></tspan></text>
 <text class="TextShape"><tspan class="TextParagraph" font-family="Liberation Sans, sans-serif" font-size="318px" font-weight="400"><tspan class="TextPosition" x="7134" y="9565"><tspan fill="rgb(0,0,0)" stroke="none">Cells number</tspan></tspan></tspan></text>
 <text class="TextShape" transform="translate(784,5862) rotate(-90) translate(-784,-5862)"><tspan class="TextParagraph" font-family="Liberation Sans, sans-serif" font-size="318px" font-weight="400"><tspan class="TextPosition" x="784" y="5862"><tspan fill="rgb(0,0,0)" stroke="none">Power [W]</tspan></tspan></tspan></text>
</svg>