<?xml version="1.0" encoding="UTF-8"?>
<!DOCTYPE svg PUBLIC "-//W3C//DTD SVG 1.1//EN" "http://www.w3.org/Graphics/SVG/1.1/DTD/svg11.dtd">
<svg width="152mm" height="102mm" viewBox="0 0 15200 10200" version="1.1" xmlns="http://www.w3.org/2000/svg" stroke-width="28.222" stroke-linejoin="round" xml:space="preserve">
 <path fill="rgb(255,255,255)" stroke="none" d="M 7666,10160 L 46,10160 46,0 15286,0 15286,10160 7666,10160 Z"/>
 <path fill="none" stroke="rgb(179,179,179)" stroke-linejoin="round" d="M 8085,8460 L 1930,8460 1930,1242 14240,1242 14240,8460 8085,8460 Z"/>
 <path fill="none" stroke="rgb(179,179,179)" stroke-linejoin="round" d="M 14240,8459 L 1930,8459"/>
 <path fill="none" stroke="rgb(179,179,179)" stroke-linejoin="round" d="M 14240,7496 L 1930,7496"/>
 <path fill="none" stroke="rgb(179,179,179)" stroke-linejoin="round" d="M 14240,6533 L 1930,6533"/>
 <path fill="none" stroke="rgb(179,179,179)" stroke-linejoin="round" d="M 14240,5571 L 1930,5571"/>
 <path fill="none" stroke="rgb(179,179,179)" stroke-linejoin="round" d="M 14240,4609 L 1930,4609"/>
 <path fill="none" stroke="rgb(179,179,179)" stroke-linejoin="round" d="M 14240,3647 L 1930,3647"/>
 <path fill="none" stroke="rgb(179,179,179)" stroke-linejoin="round" d="M 14240,2684 L 1930,2684"/>
 <path fill="none" stroke="rgb(179,179,179)" stroke-linejoin="round" d="M 14240,1722 L 1930,1722"/>
 <path fill="none" stroke="rgb(179,179,179)" stroke-linejoin="round" d="M 1930,8609 L 1930,8459"/>
 <path fill="none" stroke="rgb(179,179,179)" stroke-linejoin="round" d="M 1930,8609 L 1930,8459"/>
 <path fill="none" stroke="rgb(179,179,179)" stroke-linejoin="round" d="M 3297,8609 L 3297,8459"/>
 <path fill="none" stroke="rgb(179,179,179)" stroke-linejoin="round" d="M 3297,8609 L 3297,8459"/>
 <path fill="none" stroke="rgb(179,179,179)" stroke-linejoin="round" d="M 4665,8609 L 4665,8459"/>
 <path fill="none" stroke="rgb(179,179,179)" stroke-linejoin="round" d="M 4665,8609 L 4665,8459"/>
 <path fill="none" stroke="rgb(179,179,179)" stroke-linejoin="round" d="M 6033,8609 L 6033,8459"/>
 <path fill="none" stroke="rgb(179,179,179)" stroke-linejoin="round" d="M 6033,8609 L 6033,8459"/>
 <path fill="none" stroke="rgb(179,179,179)" stroke-linejoin="round" d="M 7401,8609 L 7401,8459"/>
 <path fill="none" stroke="rgb(179,179,179)" stroke-linejoin="round" d="M 7401,8609 L 7401,8459"/>
 <path fill="none" stroke="rgb(179,179,179)" stroke-linejoin="round" d="M 8768,8609 L 8768,8459"/>
 <path fill="none" stroke="rgb(179,179,179)" stroke-linejoin="round" d="M 8768,8609 L 8768,8459"/>
 <path fill="none" stroke="rgb(179,179,179)" stroke-linejoin="round" d="M 10136,8609 L 10136,8459"/>
 <path fill="none" stroke="rgb(179,179,179)" stroke-linejoin="round" d="M 10136,8609 L 10136,8459"/>
 <path fill="none" stroke="rgb(179,179,179)" stroke-linejoin="round" d="M 11504,8609 L 11504,8459"/>
 <path fill="none" stroke="rgb(179,179,179)" stroke-linejoin="round" d="M 11504,8609 L 11504,8459"/>
 <path fill="none" stroke="rgb(179,179,179)" stroke-linejoin="round" d="M 12872,8609 L 12872,8459"/>
 <path fill="none" stroke="rgb(179,179,179)" stroke-linejoin="round" d="M 12872,8609 L 12872,8459"/>
 <path fill="none" stroke="rgb(179,179,179)" stroke-linejoin="round" d="M 14240,8609 L 14240,8459"/>
 <path fill="none" stroke="rgb(179,179,179)" stroke-linejoin="round" d="M 14240,8609 L 14240,8459"/>
 <path fill="none" stroke="rgb(179,179,179)" stroke-linejoin="round" d="M 1930,8459 L 14240,8459"/>
 <path fill="none" stroke="rgb(179,179,179)" stroke-linejoin="round" d="M 1780,8459 L 1930,8459"/>
 <path fill="none" stroke="rgb(179,179,179)" stroke-linejoin="round" d="M 1780,8459 L 1930,8459"/>
 <path fill="none" stroke="rgb(179,179,179)" stroke-linejoin="round" d="M 1780,7496 L 1930,7496"/>
 <path fill="none" stroke="rgb(179,179,179)" stroke-linejoin="round" d="M 1780,7496 L 1930,7496"/>
 <path fill="none" stroke="rgb(179,179,179)" stroke-linejoin="round" d="M 1780,6533 L 1930,6533"/>
 <path fill="none" stroke="rgb(179,179,179)" stroke-linejoin="round" d="M 1780,6533 L 1930,6533"/>
 <path fill="none" stroke="rgb(179,179,179)" stroke-linejoin="round" d="M 1780,5571 L 1930,5571"/>
 <path fill="none" stroke="rgb(179,179,179)" stroke-linejoin="round" d="M 1780,5571 L 1930,5571"/>
 <path fill="none" stroke="rgb(179,179,179)" stroke-linejoin="round" d="M 1780,4609 L 1930,4609"/>
 <path fill="none" stroke="rgb(179,179,179)" stroke-linejoin="round" d="M 1780,4609 L 1930,4609"/>
 <path fill="none" stroke="rgb(179,179,179)" stroke-linejoin="round" d="M 1780,3647 L 1930,3647"/>
 <path fill="none" stroke="rgb(179,179,179)" stroke-linejoin="round" d="M 1780,3647 L 1930,3647"/>
 <path fill="none" stroke="rgb(179,179,179)" stroke-linejoin="round" d="M 1780,2684 L 1930,2684"/>
 <path fill="none" stroke="rgb(179,179,179)" stroke-linejoin="round" d="M 1780,2684 L 1930,2684"/>
 <path fill="none" stroke="rgb(179,179,179)" stroke-linejoin="round" d="M 1780,1722 L 1930,1722"/>
 <path fill="none" stroke="rgb(179,179,179)" stroke-linejoin="round" d="M 1780,1722 L 1930,1722"/>
 <path fill="none" stroke="rgb(179,179,179)" stroke-linejoin="round" d="M 1930,8459 L 1930,1241"/>
 <path fill="none" stroke="rgb(0,69,134)" stroke-width="80" stroke-linejoin="round" d="M 2636,4020 L 3575,4149 4697,4406 5956,4804 8999,5290 12652,5509"/>
 <path fill="rgb(0,69,134)" stroke="none" d="M 2511,3895 L 2511,4145 2761,4145 2761,3895 2511,3895 Z"/>
 <path fill="none" stroke="rgb(0,69,134)" stroke-linejoin="round" d="M 2511,3895 L 2511,4145 2761,4145 2761,3895 2511,3895 Z"/>
 <path fill="rgb(0,69,134)" stroke="none" d="M 3450,4024 L 3450,4274 3700,4274 3700,4024 3450,4024 Z"/>
 <path fill="none" stroke="rgb(0,69,134)" stroke-linejoin="round" d="M 3450,4024 L 3450,4274 3700,4274 3700,4024 3450,4024 Z"/>
 <path fill="rgb(0,69,134)" stroke="none" d="M 4572,4281 L 4572,4531 4822,4531 4822,4281 4572,4281 Z"/>
 <path fill="none" stroke="rgb(0,69,134)" stroke-linejoin="round" d="M 4572,4281 L 4572,4531 4822,4531 4822,4281 4572,4281 Z"/>
 <path fill="rgb(0,69,134)" stroke="none" d="M 5831,4679 L 5831,4929 6081,4929 6081,4679 5831,4679 Z"/>
 <path fill="none" stroke="rgb(0,69,134)" stroke-linejoin="round" d="M 5831,4679 L 5831,4929 6081,4929 6081,4679 5831,4679 Z"/>
 <path fill="rgb(0,69,134)" stroke="none" d="M 8874,5165 L 8874,5415 9124,5415 9124,5165 8874,5165 Z"/>
 <path fill="none" stroke="rgb(0,69,134)" stroke-linejoin="round" d="M 8874,5165 L 8874,5415 9124,5415 9124,5165 8874,5165 Z"/>
 <path fill="rgb(0,69,134)" stroke="none" d="M 12527,5384 L 12527,5634 12777,5634 12777,5384 12527,5384 Z"/>
 <path fill="none" stroke="rgb(0,69,134)" stroke-linejoin="round" d="M 12527,5384 L 12527,5634 12777,5634 12777,5384 12527,5384 Z"/>
 <text class="TextShape"><tspan class="TextParagraph" font-family="Liberation Sans, sans-serif" font-size="353px" font-weight="400"><tspan class="TextPosition" x="1837" y="8947"><tspan fill="rgb(0,0,0)" stroke="none">0</tspan></tspan></tspan></text>
 <text class="TextShape"><tspan class="TextParagraph" font-family="Liberation Sans, sans-serif" font-size="353px" font-weight="400"><tspan class="TextPosition" x="2834" y="8947"><tspan fill="rgb(0,0,0)" stroke="none">20000</tspan></tspan></tspan></text>
 <text class="TextShape"><tspan class="TextParagraph" font-family="Liberation Sans, sans-serif" font-size="353px" font-weight="400"><tspan class="TextPosition" x="4202" y="8947"><tspan fill="rgb(0,0,0)" stroke="none">40000</tspan></tspan></tspan></text>
 <text class="TextShape"><tspan class="TextParagraph" font-family="Liberation Sans, sans-serif" font-size="353px" font-weight="400"><tspan class="TextPosition" x="5570" y="8947"><tspan fill="rgb(0,0,0)" stroke="none">60000</tspan></tspan></tspan></text>
 <text class="TextShape"><tspan class="TextParagraph" font-family="Liberation Sans, sans-serif" font-size="353px" font-weight="400"><tspan class="TextPosition" x="6938" y="8947"><tspan fill="rgb(0,0,0)" stroke="none">80000</tspan></tspan></tspan></text>
 <text class="TextShape"><tspan class="TextParagraph" font-family="Liberation Sans, sans-serif" font-size="353px" font-weight="400"><tspan class="TextPosition" x="8213" y="8947"><tspan fill="rgb(0,0,0)" stroke="none">100000</tspan></tspan></tspan></text>
 <text class="TextShape"><tspan class="TextParagraph" font-family="Liberation Sans, sans-serif" font-size="353px" font-weight="400"><tspan class="TextPosition" x="9581" y="8947"><tspan fill="rgb(0,0,0)" stroke="none">120000</tspan></tspan></tspan></text>
 <text class="TextShape"><tspan class="TextParagraph" font-family="Liberation Sans, sans-serif" font-size="353px" font-weight="400"><tspan class="TextPosition" x="10949" y="8947"><tspan fill="rgb(0,0,0)" stroke="none">140000</tspan></tspan></tspan></text>
 <text class="TextShape"><tspan class="TextParagraph" font-family="Liberation Sans, sans-serif" font-size="353px" font-weight="400"><tspan class="TextPosition" x="12317" y="8947"><tspan fill="rgb(0,0,0)" stroke="none">160000</tspan></tspan></tspan></text>
 <text class="TextShape"><tspan class="TextParagraph" font-family="Liberation Sans, sans-serif" font-size="353px" font-weight="400"><tspan class="TextPosition" x="13685" y="8947"><tspan fill="rgb(0,0,0)" stroke="none">180000</tspan></tspan></tspan></text>
 <text class="TextShape"><tspan class="TextParagraph" font-family="Liberation Sans, sans-serif" font-size="353px" font-weight="400"><tspan class="TextPosition" x="1310" y="8539"><tspan fill="rgb(0,0,0)" stroke="none">50</tspan></tspan></tspan></text>
 <text class="TextShape"><tspan class="TextParagraph" font-family="Liberation Sans, sans-serif" font-size="353px" font-weight="400"><tspan class="TextPosition" x="1310" y="7576"><tspan fill="rgb(0,0,0)" stroke="none">70</tspan></tspan></tspan></text>
 <text class="TextShape"><tspan class="TextParagraph" font-family="Liberation Sans, sans-serif" font-size="353px" font-weight="400"><tspan class="TextPosition" x="1310" y="6613"><tspan fill="rgb(0,0,0)" stroke="none">90</tspan></tspan></tspan></text>
 <text class="TextShape"><tspan class="TextParagraph" font-family="Liberation Sans, sans-serif" font-size="353px" font-weight="400"><tspan class="TextPosition" x="1124" y="5651"><tspan fill="rgb(0,0,0)" stroke="none">110</tspan></tspan></tspan></text>
 <text class="TextShape"><tspan class="TextParagraph" font-family="Liberation Sans, sans-serif" font-size="353px" font-weight="400"><tspan class="TextPosition" x="1124" y="4688"><tspan fill="rgb(0,0,0)" stroke="none">130</tspan></tspan></tspan></text>
 <text class="TextShape"><tspan class="TextParagraph" font-family="Liberation Sans, sans-serif" font-size="353px" font-weight="400"><tspan class="TextPosition" x="1124" y="3726"><tspan fill="rgb(0,0,0)" stroke="none">150</tspan></tspan></tspan></text>
 <text class="TextShape"><tspan class="TextParagraph" font-family="Liberation Sans, sans-serif" font-size="353px" font-weight="400"><tspan class="TextPosition" x="1124" y="2763"><tspan fill="rgb(0,0,0)" stroke="none">170</tspan></tspan></tspan></text>
 <text class="TextShape"><tspan class="TextParagraph" font-family="Liberation Sans, sans-serif" font-size="353px" font-weight="400"><tspan class="TextPosition" x="1124" y="1801"><tspan fill="rgb(0,0,0)" stroke="none">190</tspan></tspan></tspan></text>
 <text class="TextShape"><tspan class="TextParagraph" font-family="Liberation Sans, sans-serif" font-size="459px" font-weight="400"><tspan class="TextPosition" x="2665" y="794"><tspan fill="rgb(0,0,0)" stroke="none">Total pressure drop at 2.4 seconds (constant inlet)</tspan></tspan></tspan></text>
 <text class="TextShape"><tspan class="TextParagraph" font-family="Liberation Sans, sans-serif" font-size="318px" font-weight="400"><tspan class="TextPosition" x="7180" y="9565"><tspan fill="rgb(0,0,0)" stroke="none">Cells number</tspan></tspan></tspan></text>
 <text class="TextShape" transform="translate(830,6722) rotate(-90) translate(-830,-6722)"><tspan class="TextParagraph" font-family="Liberation Sans, sans-serif" font-size="318px" font-weight="400"><tspan class="TextPosition" x="830" y="6722"><tspan fill="rgb(0,0,0)" stroke="none">Relative pressure [Pa]</tspan></tspan></tspan></text>
</svg>