<?xml version="1.0" encoding="UTF-8"?>
<!DOCTYPE svg PUBLIC "-//W3C//DTD SVG 1.1//EN" "http://www.w3.org/Graphics/SVG/1.1/DTD/svg11.dtd">
<svg width="152mm" height="102mm" viewBox="0 0 15200 10200" version="1.1" xmlns="http://www.w3.org/2000/svg" stroke-width="28.222" stroke-linejoin="round" xml:space="preserve">
 <path fill="rgb(255,255,255)" stroke="none" d="M 7620,10161 L 0,10161 0,1 15240,1 15240,10161 7620,10161 Z"/>
 <path fill="none" stroke="rgb(179,179,179)" stroke-linejoin="round" d="M 8224,8461 L 2070,8461 2070,1243 14379,1243 14379,8461 8224,8461 Z"/>
 <path fill="none" stroke="rgb(179,179,179)" stroke-linejoin="round" d="M 14379,8460 L 2070,8460"/>
 <path fill="none" stroke="rgb(179,179,179)" stroke-linejoin="round" d="M 14379,7497 L 2070,7497"/>
 <path fill="none" stroke="rgb(179,179,179)" stroke-linejoin="round" d="M 14379,6534 L 2070,6534"/>
 <path fill="none" stroke="rgb(179,179,179)" stroke-linejoin="round" d="M 14379,5572 L 2070,5572"/>
 <path fill="none" stroke="rgb(179,179,179)" stroke-linejoin="round" d="M 14379,4610 L 2070,4610"/>
 <path fill="none" stroke="rgb(179,179,179)" stroke-linejoin="round" d="M 14379,3648 L 2070,3648"/>
 <path fill="none" stroke="rgb(179,179,179)" stroke-linejoin="round" d="M 14379,2685 L 2070,2685"/>
 <path fill="none" stroke="rgb(179,179,179)" stroke-linejoin="round" d="M 14379,1723 L 2070,1723"/>
 <path fill="none" stroke="rgb(179,179,179)" stroke-linejoin="round" d="M 2070,8610 L 2070,8460"/>
 <path fill="none" stroke="rgb(179,179,179)" stroke-linejoin="round" d="M 2070,8610 L 2070,8460"/>
 <path fill="none" stroke="rgb(179,179,179)" stroke-linejoin="round" d="M 3437,8610 L 3437,8460"/>
 <path fill="none" stroke="rgb(179,179,179)" stroke-linejoin="round" d="M 3437,8610 L 3437,8460"/>
 <path fill="none" stroke="rgb(179,179,179)" stroke-linejoin="round" d="M 4805,8610 L 4805,8460"/>
 <path fill="none" stroke="rgb(179,179,179)" stroke-linejoin="round" d="M 4805,8610 L 4805,8460"/>
 <path fill="none" stroke="rgb(179,179,179)" stroke-linejoin="round" d="M 6173,8610 L 6173,8460"/>
 <path fill="none" stroke="rgb(179,179,179)" stroke-linejoin="round" d="M 6173,8610 L 6173,8460"/>
 <path fill="none" stroke="rgb(179,179,179)" stroke-linejoin="round" d="M 7541,8610 L 7541,8460"/>
 <path fill="none" stroke="rgb(179,179,179)" stroke-linejoin="round" d="M 7541,8610 L 7541,8460"/>
 <path fill="none" stroke="rgb(179,179,179)" stroke-linejoin="round" d="M 8907,8610 L 8907,8460"/>
 <path fill="none" stroke="rgb(179,179,179)" stroke-linejoin="round" d="M 8907,8610 L 8907,8460"/>
 <path fill="none" stroke="rgb(179,179,179)" stroke-linejoin="round" d="M 10275,8610 L 10275,8460"/>
 <path fill="none" stroke="rgb(179,179,179)" stroke-linejoin="round" d="M 10275,8610 L 10275,8460"/>
 <path fill="none" stroke="rgb(179,179,179)" stroke-linejoin="round" d="M 11643,8610 L 11643,8460"/>
 <path fill="none" stroke="rgb(179,179,179)" stroke-linejoin="round" d="M 11643,8610 L 11643,8460"/>
 <path fill="none" stroke="rgb(179,179,179)" stroke-linejoin="round" d="M 13011,8610 L 13011,8460"/>
 <path fill="none" stroke="rgb(179,179,179)" stroke-linejoin="round" d="M 13011,8610 L 13011,8460"/>
 <path fill="none" stroke="rgb(179,179,179)" stroke-linejoin="round" d="M 14379,8610 L 14379,8460"/>
 <path fill="none" stroke="rgb(179,179,179)" stroke-linejoin="round" d="M 14379,8610 L 14379,8460"/>
 <path fill="none" stroke="rgb(179,179,179)" stroke-linejoin="round" d="M 2070,8460 L 14379,8460"/>
 <path fill="none" stroke="rgb(179,179,179)" stroke-linejoin="round" d="M 1920,8460 L 2070,8460"/>
 <path fill="none" stroke="rgb(179,179,179)" stroke-linejoin="round" d="M 1920,8460 L 2070,8460"/>
 <path fill="none" stroke="rgb(179,179,179)" stroke-linejoin="round" d="M 1920,7497 L 2070,7497"/>
 <path fill="none" stroke="rgb(179,179,179)" stroke-linejoin="round" d="M 1920,7497 L 2070,7497"/>
 <path fill="none" stroke="rgb(179,179,179)" stroke-linejoin="round" d="M 1920,6534 L 2070,6534"/>
 <path fill="none" stroke="rgb(179,179,179)" stroke-linejoin="round" d="M 1920,6534 L 2070,6534"/>
 <path fill="none" stroke="rgb(179,179,179)" stroke-linejoin="round" d="M 1920,5572 L 2070,5572"/>
 <path fill="none" stroke="rgb(179,179,179)" stroke-linejoin="round" d="M 1920,5572 L 2070,5572"/>
 <path fill="none" stroke="rgb(179,179,179)" stroke-linejoin="round" d="M 1920,4610 L 2070,4610"/>
 <path fill="none" stroke="rgb(179,179,179)" stroke-linejoin="round" d="M 1920,4610 L 2070,4610"/>
 <path fill="none" stroke="rgb(179,179,179)" stroke-linejoin="round" d="M 1920,3648 L 2070,3648"/>
 <path fill="none" stroke="rgb(179,179,179)" stroke-linejoin="round" d="M 1920,3648 L 2070,3648"/>
 <path fill="none" stroke="rgb(179,179,179)" stroke-linejoin="round" d="M 1920,2685 L 2070,2685"/>
 <path fill="none" stroke="rgb(179,179,179)" stroke-linejoin="round" d="M 1920,2685 L 2070,2685"/>
 <path fill="none" stroke="rgb(179,179,179)" stroke-linejoin="round" d="M 1920,1723 L 2070,1723"/>
 <path fill="none" stroke="rgb(179,179,179)" stroke-linejoin="round" d="M 1920,1723 L 2070,1723"/>
 <path fill="none" stroke="rgb(179,179,179)" stroke-linejoin="round" d="M 2070,8460 L 2070,1242"/>
 <path fill="none" stroke="rgb(0,69,134)" stroke-width="80" stroke-linejoin="round" d="M 2776,3917 L 3715,4434 4837,4627 6096,4925 9139,5284 12791,5489"/>
 <path fill="rgb(0,69,134)" stroke="none" d="M 2651,3792 L 2651,4042 2901,4042 2901,3792 2651,3792 Z"/>
 <path fill="none" stroke="rgb(0,69,134)" stroke-linejoin="round" d="M 2651,3792 L 2651,4042 2901,4042 2901,3792 2651,3792 Z"/>
 <path fill="rgb(0,69,134)" stroke="none" d="M 3590,4309 L 3590,4559 3840,4559 3840,4309 3590,4309 Z"/>
 <path fill="none" stroke="rgb(0,69,134)" stroke-linejoin="round" d="M 3590,4309 L 3590,4559 3840,4559 3840,4309 3590,4309 Z"/>
 <path fill="rgb(0,69,134)" stroke="none" d="M 4712,4502 L 4712,4752 4962,4752 4962,4502 4712,4502 Z"/>
 <path fill="none" stroke="rgb(0,69,134)" stroke-linejoin="round" d="M 4712,4502 L 4712,4752 4962,4752 4962,4502 4712,4502 Z"/>
 <path fill="rgb(0,69,134)" stroke="none" d="M 5971,4800 L 5971,5050 6221,5050 6221,4800 5971,4800 Z"/>
 <path fill="none" stroke="rgb(0,69,134)" stroke-linejoin="round" d="M 5971,4800 L 5971,5050 6221,5050 6221,4800 5971,4800 Z"/>
 <path fill="rgb(0,69,134)" stroke="none" d="M 9014,5159 L 9014,5409 9264,5409 9264,5159 9014,5159 Z"/>
 <path fill="none" stroke="rgb(0,69,134)" stroke-linejoin="round" d="M 9014,5159 L 9014,5409 9264,5409 9264,5159 9014,5159 Z"/>
 <path fill="rgb(0,69,134)" stroke="none" d="M 12666,5364 L 12666,5614 12916,5614 12916,5364 12666,5364 Z"/>
 <path fill="none" stroke="rgb(0,69,134)" stroke-linejoin="round" d="M 12666,5364 L 12666,5614 12916,5614 12916,5364 12666,5364 Z"/>
 <text class="TextShape"><tspan class="TextParagraph" font-family="Liberation Sans, sans-serif" font-size="353px" font-weight="400"><tspan class="TextPosition" x="1977" y="8948"><tspan fill="rgb(0,0,0)" stroke="none">0</tspan></tspan></tspan></text>
 <text class="TextShape"><tspan class="TextParagraph" font-family="Liberation Sans, sans-serif" font-size="353px" font-weight="400"><tspan class="TextPosition" x="2974" y="8948"><tspan fill="rgb(0,0,0)" stroke="none">20000</tspan></tspan></tspan></text>
 <text class="TextShape"><tspan class="TextParagraph" font-family="Liberation Sans, sans-serif" font-size="353px" font-weight="400"><tspan class="TextPosition" x="4342" y="8948"><tspan fill="rgb(0,0,0)" stroke="none">40000</tspan></tspan></tspan></text>
 <text class="TextShape"><tspan class="TextParagraph" font-family="Liberation Sans, sans-serif" font-size="353px" font-weight="400"><tspan class="TextPosition" x="5710" y="8948"><tspan fill="rgb(0,0,0)" stroke="none">60000</tspan></tspan></tspan></text>
 <text class="TextShape"><tspan class="TextParagraph" font-family="Liberation Sans, sans-serif" font-size="353px" font-weight="400"><tspan class="TextPosition" x="7078" y="8948"><tspan fill="rgb(0,0,0)" stroke="none">80000</tspan></tspan></tspan></text>
 <text class="TextShape"><tspan class="TextParagraph" font-family="Liberation Sans, sans-serif" font-size="353px" font-weight="400"><tspan class="TextPosition" x="8352" y="8948"><tspan fill="rgb(0,0,0)" stroke="none">100000</tspan></tspan></tspan></text>
 <text class="TextShape"><tspan class="TextParagraph" font-family="Liberation Sans, sans-serif" font-size="353px" font-weight="400"><tspan class="TextPosition" x="9720" y="8948"><tspan fill="rgb(0,0,0)" stroke="none">120000</tspan></tspan></tspan></text>
 <text class="TextShape"><tspan class="TextParagraph" font-family="Liberation Sans, sans-serif" font-size="353px" font-weight="400"><tspan class="TextPosition" x="11088" y="8948"><tspan fill="rgb(0,0,0)" stroke="none">140000</tspan></tspan></tspan></text>
 <text class="TextShape"><tspan class="TextParagraph" font-family="Liberation Sans, sans-serif" font-size="353px" font-weight="400"><tspan class="TextPosition" x="12456" y="8948"><tspan fill="rgb(0,0,0)" stroke="none">160000</tspan></tspan></tspan></text>
 <text class="TextShape"><tspan class="TextParagraph" font-family="Liberation Sans, sans-serif" font-size="353px" font-weight="400"><tspan class="TextPosition" x="13824" y="8948"><tspan fill="rgb(0,0,0)" stroke="none">180000</tspan></tspan></tspan></text>
 <text class="TextShape"><tspan class="TextParagraph" font-family="Liberation Sans, sans-serif" font-size="353px" font-weight="400"><tspan class="TextPosition" x="1264" y="8540"><tspan fill="rgb(0,0,0)" stroke="none">100</tspan></tspan></tspan></text>
 <text class="TextShape"><tspan class="TextParagraph" font-family="Liberation Sans, sans-serif" font-size="353px" font-weight="400"><tspan class="TextPosition" x="1264" y="7577"><tspan fill="rgb(0,0,0)" stroke="none">120</tspan></tspan></tspan></text>
 <text class="TextShape"><tspan class="TextParagraph" font-family="Liberation Sans, sans-serif" font-size="353px" font-weight="400"><tspan class="TextPosition" x="1264" y="6614"><tspan fill="rgb(0,0,0)" stroke="none">140</tspan></tspan></tspan></text>
 <text class="TextShape"><tspan class="TextParagraph" font-family="Liberation Sans, sans-serif" font-size="353px" font-weight="400"><tspan class="TextPosition" x="1264" y="5652"><tspan fill="rgb(0,0,0)" stroke="none">160</tspan></tspan></tspan></text>
 <text class="TextShape"><tspan class="TextParagraph" font-family="Liberation Sans, sans-serif" font-size="353px" font-weight="400"><tspan class="TextPosition" x="1264" y="4689"><tspan fill="rgb(0,0,0)" stroke="none">180</tspan></tspan></tspan></text>
 <text class="TextShape"><tspan class="TextParagraph" font-family="Liberation Sans, sans-serif" font-size="353px" font-weight="400"><tspan class="TextPosition" x="1264" y="3727"><tspan fill="rgb(0,0,0)" stroke="none">200</tspan></tspan></tspan></text>
 <text class="TextShape"><tspan class="TextParagraph" font-family="Liberation Sans, sans-serif" font-size="353px" font-weight="400"><tspan class="TextPosition" x="1264" y="2764"><tspan fill="rgb(0,0,0)" stroke="none">220</tspan></tspan></tspan></text>
 <text class="TextShape"><tspan class="TextParagraph" font-family="Liberation Sans, sans-serif" font-size="353px" font-weight="400"><tspan class="TextPosition" x="1264" y="1802"><tspan fill="rgb(0,0,0)" stroke="none">240</tspan></tspan></tspan></text>
 <text class="TextShape"><tspan class="TextParagraph" font-family="Liberation Sans, sans-serif" font-size="459px" font-weight="400"><tspan class="TextPosition" x="4167" y="795"><tspan fill="rgb(0,0,0)" stroke="none">Total pressure drop at 2.4 seconds</tspan></tspan></tspan></text>
 <text class="TextShape"><tspan class="TextParagraph" font-family="Liberation Sans, sans-serif" font-size="318px" font-weight="400"><tspan class="TextPosition" x="7134" y="9566"><tspan fill="rgb(0,0,0)" stroke="none">Cells number</tspan></tspan></tspan></text>
 <text class="TextShape" transform="translate(784,6723) rotate(-90) translate(-784,-6723)"><tspan class="TextParagraph" font-family="Liberation Sans, sans-serif" font-size="318px" font-weight="400"><tspan class="TextPosition" x="784" y="6723"><tspan fill="rgb(0,0,0)" stroke="none">Relative pressure [Pa]</tspan></tspan></tspan></text>
</svg>